<?xml version="1.0" encoding="utf-8"?>
<!-- Generator: Adobe Illustrator 16.0.0, SVG Export Plug-In . SVG Version: 6.00 Build 0)  -->
<!DOCTYPE svg PUBLIC "-//W3C//DTD SVG 1.1//EN" "http://www.w3.org/Graphics/SVG/1.1/DTD/svg11.dtd">
<svg version="1.1" id="Layer_1" xmlns="http://www.w3.org/2000/svg" xmlns:xlink="http://www.w3.org/1999/xlink" x="0px" y="0px"
	 width="1400px" height="700px" viewBox="0 0 1400 700" enable-background="new 0 0 1400 700" xml:space="preserve">
<g id="Layer_2">
</g>
<g id="Layer_1_1_">
	<g>
		<g>
			<path fill="#5FA5B0" d="M393,266.715l-28.582-80.273c-39.427,14.041-72.281,41.926-92.711,77.807l74.094,42.092
				C356.204,288.068,372.923,273.865,393,266.715z"/>
			<path fill="#F26933" d="M545.395,227.26l-60.235,60.235c15.998,15.993,25.893,38.095,25.893,62.505
				c0,23.258-8.996,44.403-23.679,60.186l62.384,58.015c28.833-30.99,46.479-72.53,46.479-118.199
				C596.234,302.068,576.807,258.674,545.395,227.26z"/>
			<path fill="#C05428" d="M422.654,438.398c-40.383,0-74.414-27.088-84.98-64.076l-81.94,23.455
				c20.75,72.632,87.624,125.803,166.92,125.803c50.195,0,95.41-21.316,127.103-55.381l-62.384-58.014
				C471.234,427.535,448.216,438.398,422.654,438.398z"/>
			<path fill="#C0E5E8" d="M334.255,350c0-1.118,0.045-2.225,0.085-3.332l-85.132-3.215c-0.081,2.172-0.136,4.352-0.136,6.547
				c0,16.571,2.325,32.6,6.662,47.777l81.94-23.455C335.464,366.594,334.255,358.438,334.255,350z"/>
			<path fill="#F89D6D" d="M422.654,261.604c24.41,0,46.509,9.894,62.505,25.891l60.235-60.235
				c-31.414-31.408-74.809-50.84-122.74-50.84c-20.431,0-40.031,3.539-58.236,10.021L393,266.715
				C402.271,263.414,412.25,261.604,422.654,261.604z"/>
			<path fill="#96D7DC" d="M345.801,306.34l-74.094-42.092c-13.389,23.52-21.431,50.471-22.499,79.205l85.132,3.215
				C334.884,332.035,338.982,318.318,345.801,306.34z"/>
		</g>
		<g>
			<rect x="736.5" y="388.967" fill="#7F7774" width="414.428" height="0.5"/>
			<rect x="736.5" y="321.785" fill="#7F7774" width="414.428" height="0.5"/>
			<rect x="736.5" y="523.33" fill="#7F7774" width="414.428" height="0.5"/>
			<rect x="736.5" y="187.423" fill="#7F7774" width="414.428" height="0.5"/>
			<rect x="736.5" y="254.604" fill="#7F7774" width="414.428" height="0.5"/>
			<rect x="736.5" y="456.148" fill="#7F7774" width="414.428" height="0.5"/>
			<g>
				<rect x="768.966" y="194.721" fill="#C0E5E8" width="31.409" height="261.347"/>
				<rect x="768.966" y="456.066" fill="#5FA5B0" width="31.409" height="45.752"/>
				<rect x="768.966" y="247.164" fill="#96D7DC" width="31.409" height="208.902"/>
				<rect x="800.375" y="304.848" fill="#F89D6D" width="31.409" height="151.219"/>
				<rect x="800.375" y="456.066" fill="#C05428" width="31.409" height="57.94"/>
				<rect x="800.375" y="348.991" fill="#F26933" width="31.409" height="107.075"/>
				<rect x="864.523" y="234.052" fill="#C0E5E8" width="31.409" height="222.016"/>
				<rect x="864.523" y="456.066" fill="#5FA5B0" width="31.409" height="71.274"/>
				<rect x="864.523" y="328.068" fill="#96D7DC" width="31.409" height="127.999"/>
				<rect x="895.933" y="152.434" fill="#F89D6D" width="31.409" height="303.633"/>
				<rect x="895.933" y="456.066" fill="#C05428" width="31.409" height="53.295"/>
				<rect x="895.933" y="273.383" fill="#F26933" width="31.409" height="182.685"/>
				<rect x="960.085" y="152.434" fill="#C0E5E8" width="31.409" height="303.633"/>
				<rect x="960.085" y="456.066" fill="#5FA5B0" width="31.409" height="91.504"/>
				<rect x="960.085" y="364.725" fill="#96D7DC" width="31.409" height="91.343"/>
				<rect x="991.494" y="226.188" fill="#F89D6D" width="31.407" height="229.879"/>
				<rect x="991.494" y="456.066" fill="#C05428" width="31.407" height="57.94"/>
				<rect x="991.494" y="291.363" fill="#F26933" width="31.407" height="164.703"/>
				<rect x="1055.642" y="226.188" fill="#C0E5E8" width="31.41" height="229.879"/>
				<rect x="1055.642" y="456.066" fill="#5FA5B0" width="31.41" height="49.121"/>
				<rect x="1055.642" y="296.18" fill="#96D7DC" width="31.41" height="159.888"/>
				<rect x="1087.052" y="312.713" fill="#F89D6D" width="31.409" height="143.354"/>
				<rect x="1087.052" y="456.066" fill="#C05428" width="31.409" height="69.35"/>
				<rect x="1087.052" y="373.715" fill="#F26933" width="31.409" height="82.353"/>
			</g>
		</g>
	</g>
</g>
<g id="Layer_3">
</g>
</svg>
