<?xml version="1.0" encoding="utf-8"?>
<!-- Generator: Adobe Illustrator 16.0.0, SVG Export Plug-In . SVG Version: 6.00 Build 0)  -->
<!DOCTYPE svg PUBLIC "-//W3C//DTD SVG 1.1//EN" "http://www.w3.org/Graphics/SVG/1.1/DTD/svg11.dtd">
<svg version="1.1" xmlns="http://www.w3.org/2000/svg" xmlns:xlink="http://www.w3.org/1999/xlink" x="0px" y="0px" width="500px"
	 height="602.272px" viewBox="0 0 500 602.272" enable-background="new 0 0 500 602.272" xml:space="preserve">
<g id="Layer_2">
</g>
<g id="Layer_1">
	<g>
		<g>
			<path fill="#47413E" d="M70.111,562.194c-5.684,5.685-13.145,8.764-21.553,8.764s-15.869-3.079-21.553-8.764
				c-7.935-7.935-7.935-16.224-7.935-34.106c0-17.882,0-26.171,7.935-34.105c5.684-5.685,13.145-8.764,21.553-8.764
				s15.869,3.079,21.553,8.764c7.935,7.935,7.935,16.224,7.935,34.105C78.046,545.971,78.046,554.26,70.111,562.194z
				 M63.125,499.312c-3.671-3.79-9-6.04-14.566-6.04c-5.565,0-10.895,2.25-14.566,6.04c-5.329,5.447-5.921,11.132-5.921,28.776
				c0,17.646,0.592,23.33,5.921,28.777c3.672,3.789,9.001,6.04,14.566,6.04c5.566,0,10.896-2.251,14.566-6.04
				c5.329-5.447,5.921-11.132,5.921-28.777C69.046,510.443,68.454,504.759,63.125,499.312z"/>
			<path fill="#47413E" d="M131.456,570.958c-8.29,0-15.869-3.079-21.553-8.764c-7.935-7.935-7.935-16.224-7.935-34.106
				c0-17.882,0-26.171,7.935-34.105c5.684-5.685,13.263-8.764,21.553-8.764c15.158,0,26.408,9.237,29.251,25.106h-9.237
				c-2.25-10.304-9.474-17.054-20.014-17.054c-5.565,0-10.895,2.132-14.566,5.922c-5.329,5.447-5.921,11.25-5.921,28.895
				c0,17.646,0.592,23.448,5.921,28.896c3.672,3.79,9.001,5.922,14.566,5.922c10.54,0,18-6.751,20.25-17.054h9.001
				C157.983,561.721,146.496,570.958,131.456,570.958z"/>
			<path fill="#47413E" d="M214.708,570.958c-17.053,0-29.369-11.725-29.369-28.54V485.93h9.001v55.777
				c0,12.79,8.053,21.198,20.368,21.198c12.316,0,20.487-8.408,20.487-21.198V485.93h9v56.488
				C244.195,559.233,231.762,570.958,214.708,570.958z"/>
			<path fill="#47413E" d="M273.329,570.247V485.93h9v76.265h43.106v8.053H273.329z"/>
			<path fill="#47413E" d="M371.504,570.958c-17.053,0-29.369-11.725-29.369-28.54V485.93h9v55.777
				c0,12.79,8.053,21.198,20.369,21.198c12.315,0,20.487-8.408,20.487-21.198V485.93h9v56.488
				C400.991,559.233,388.557,570.958,371.504,570.958z"/>
			<path fill="#47413E" d="M451.797,570.958c-12.672,0-20.961-3.198-28.896-11.132l6.158-6.158c6.986,6.986,13.5,9.237,22.974,9.237
				c12.316,0,19.896-5.803,19.896-15.633c0-4.381-1.303-8.171-4.026-10.539s-4.855-3.079-11.014-4.026l-9.829-1.54
				c-6.632-1.065-11.842-3.197-15.514-6.395c-4.263-3.79-6.395-9-6.395-15.75c0-14.329,10.303-23.804,27.001-23.804
				c10.776,0,17.882,2.724,25.105,9.237l-5.803,5.803c-5.211-4.737-10.776-7.224-19.658-7.224c-11.251,0-17.764,6.276-17.764,15.632
				c0,4.145,1.185,7.461,3.789,9.711c2.605,2.25,6.987,3.907,11.369,4.618l9.237,1.421c7.934,1.185,11.842,2.843,15.395,5.921
				c4.618,3.908,7.105,9.711,7.105,16.698C480.929,561.839,469.323,570.958,451.797,570.958z"/>
		</g>
		<path fill="#F26933" d="M387.392,72.417l-13.109,13.114c-72.251-72.307-189.406-72.272-261.682,0
			c-72.255,72.246-72.255,189.433,0,261.693l13.082-13.085c72.272,72.257,189.429,72.233,261.688,0
			C459.649,261.834,459.672,144.705,387.392,72.417z M178.02,281.777l-13.058,13.08c-43.365-43.345-43.365-113.646-0.027-156.99
			c43.351-43.362,113.667-43.392,157.038-0.032l13.055-13.045c43.365,43.352,43.365,113.64,0,156.987
			C291.706,325.146,221.391,325.171,178.02,281.777z"/>
	</g>
</g>
<g id="Layer_3">
</g>
</svg>
