<?xml version="1.0" encoding="utf-8"?>
<!-- Generator: Adobe Illustrator 16.0.0, SVG Export Plug-In . SVG Version: 6.00 Build 0)  -->
<!DOCTYPE svg PUBLIC "-//W3C//DTD SVG 1.1//EN" "http://www.w3.org/Graphics/SVG/1.1/DTD/svg11.dtd">
<svg version="1.1" id="Layer_1" xmlns="http://www.w3.org/2000/svg" xmlns:xlink="http://www.w3.org/1999/xlink" x="0px" y="0px"
	 width="1400px" height="700px" viewBox="0 0 1400 700" enable-background="new 0 0 1400 700" xml:space="preserve">
<g id="Layer_2">
</g>
<rect x="-13.138" y="-6.568" fill="#F26933" width="1426.275" height="713.137"/>
<path fill="#FFFFFF" d="M505.646,202.352l-8.604,8.6c-47.407-47.438-124.278-47.42-171.699,0.006
	c-47.409,47.402-47.409,124.291,0,171.699l8.584-8.582c47.423,47.424,124.296,47.405,171.705,0
	C553.055,326.648,553.074,249.775,505.646,202.352z M368.271,339.732L359.7,348.3c-28.451-28.449-28.451-74.57-0.021-103.004
	c28.453-28.455,74.588-28.471,103.041-0.02l8.57-8.566c28.451,28.449,28.451,74.568,0,103.021
	C442.859,368.166,396.722,368.186,368.271,339.732z"/>
<path fill="#924023" d="M419.852,361.823c-40.442,0-73.348-32.904-73.348-73.348s32.904-73.348,73.348-73.348
	c40.444,0,73.351,32.904,73.351,73.348S460.296,361.823,419.852,361.823z M419.852,216.127c-39.893,0-72.348,32.455-72.348,72.348
	s32.455,72.348,72.348,72.348c39.895,0,72.351-32.455,72.351-72.348S459.745,216.127,419.852,216.127z"/>
<path fill="#924023" d="M411.393,369.907c-40.441,0-73.347-32.903-73.347-73.346c0-40.445,32.903-73.35,73.347-73.35
	c40.444,0,73.351,32.905,73.351,73.35C484.741,337.004,451.837,369.907,411.393,369.907z M411.393,224.211
	c-39.892,0-72.347,32.456-72.347,72.35c0,39.892,32.455,72.346,72.347,72.346c39.895,0,72.351-32.455,72.351-72.346
	C483.741,256.667,451.286,224.211,411.393,224.211z"/>
<path fill="#924023" d="M419.852,410.387c-67.222,0-121.912-54.688-121.912-121.912s54.689-121.914,121.912-121.914
	c67.226,0,121.914,54.69,121.914,121.914C541.766,355.697,487.075,410.387,419.852,410.387z M419.852,167.561
	c-66.671,0-120.912,54.242-120.912,120.914c0,66.671,54.241,120.912,120.912,120.912c66.674,0,120.914-54.24,120.914-120.912
	C540.766,221.803,486.524,167.561,419.852,167.561z"/>
<path fill="#924023" d="M411.393,418.706c-67.223,0-121.913-54.69-121.913-121.913c0-67.223,54.69-121.913,121.913-121.913
	c67.225,0,121.913,54.69,121.913,121.913C533.306,364.016,478.616,418.706,411.393,418.706z M411.393,175.88
	c-66.671,0-120.913,54.241-120.913,120.913s54.241,120.913,120.913,120.913c66.674,0,120.913-54.241,120.913-120.913
	S478.064,175.88,411.393,175.88z"/>
<path opacity="0.6" fill="#924023" enable-background="new    " d="M296.013,413.406l-1.414-1.414l2.829-2.828l1.414,1.414
	L296.013,413.406z M301.67,407.749l-1.414-1.414l2.829-2.828l1.414,1.414L301.67,407.749z M307.327,402.093l-1.414-1.414
	l2.829-2.829l1.414,1.414L307.327,402.093z M312.984,396.436l-1.414-1.414l2.828-2.826l1.414,1.414L312.984,396.436z
	 M318.641,390.779l-1.414-1.414l2.829-2.829l1.414,1.414L318.641,390.779z M324.297,385.122l-1.414-1.414l2.829-2.828l1.414,1.414
	L324.297,385.122z M329.954,379.465l-1.414-1.414l2.829-2.828l1.414,1.414L329.954,379.465z M335.611,373.809l-1.414-1.414
	l2.828-2.828l1.414,1.414L335.611,373.809z M341.268,368.15l-1.414-1.414l2.829-2.827l1.414,1.414L341.268,368.15z M346.925,362.494
	l-1.414-1.414l2.829-2.828l1.414,1.414L346.925,362.494z M352.582,356.838l-1.414-1.414l2.829-2.828l1.414,1.414L352.582,356.838z
	 M358.239,351.182l-1.414-1.414l2.828-2.828l1.414,1.414L358.239,351.182z M363.896,345.523l-1.414-1.414l2.826-2.829l1.414,1.414
	L363.896,345.523z M369.552,339.867l-1.414-1.414l2.829-2.829l1.414,1.414L369.552,339.867z M375.209,334.21l-1.414-1.414
	l2.829-2.829l1.414,1.414L375.209,334.21z M380.866,328.553l-1.414-1.414l2.828-2.828l1.414,1.414L380.866,328.553z
	 M386.523,322.896l-1.414-1.414l2.828-2.828l1.412,1.414L386.523,322.896z M392.18,317.24l-1.414-1.414l2.829-2.829l1.414,1.414
	L392.18,317.24z M397.836,311.583l-1.414-1.414l2.829-2.829l1.414,1.414L397.836,311.583z M403.493,305.926l-1.414-1.414
	l2.829-2.829l1.414,1.414L403.493,305.926z M409.15,300.269l-1.414-1.414l2.828-2.828l1.413,1.414L409.15,300.269z M414.807,294.612
	l-1.414-1.414l2.829-2.829l1.414,1.414L414.807,294.612z M420.464,288.956l-1.414-1.414l2.829-2.829l1.414,1.414L420.464,288.956z
	 M426.121,283.299l-1.414-1.414l2.829-2.829l1.414,1.414L426.121,283.299z M431.778,277.642l-1.414-1.414l2.828-2.828l1.414,1.414
	L431.778,277.642z M437.435,271.985l-1.412-1.414l2.826-2.828l1.414,1.414L437.435,271.985z M443.091,266.328l-1.414-1.414
	l2.829-2.829l1.414,1.414L443.091,266.328z M448.748,260.671l-1.414-1.414l2.829-2.829l1.414,1.414L448.748,260.671z
	 M454.405,255.014l-1.414-1.414l2.828-2.828l1.414,1.414L454.405,255.014z M460.062,249.357l-1.414-1.414l2.826-2.828l1.414,1.414
	L460.062,249.357z M465.719,243.701l-1.414-1.414l2.829-2.829l1.414,1.414L465.719,243.701z M471.375,238.044l-1.414-1.414
	l2.829-2.829l1.414,1.414L471.375,238.044z M477.032,232.387l-1.414-1.414l2.829-2.829l1.414,1.414L477.032,232.387z
	 M482.689,226.73l-1.414-1.414l2.827-2.828l1.413,1.414L482.689,226.73z M488.346,221.073l-1.414-1.414l2.829-2.829l1.414,1.414
	L488.346,221.073z M494.003,215.417l-1.414-1.414l2.829-2.829l1.414,1.414L494.003,215.417z M499.66,209.76l-1.414-1.414
	l2.829-2.829l1.414,1.414L499.66,209.76z M505.317,204.103l-1.414-1.414l2.827-2.828l1.413,1.414L505.317,204.103z M510.974,198.446
	l-1.414-1.414l2.828-2.828l1.414,1.414L510.974,198.446z M516.63,192.789l-1.414-1.414l2.829-2.829l1.414,1.414L516.63,192.789z
	 M522.287,187.132l-1.414-1.414l2.829-2.829l1.414,1.414L522.287,187.132z M527.944,181.475l-1.414-1.414l2.828-2.828l1.413,1.414
	L527.944,181.475z M533.602,175.818l-1.414-1.414l2.796-2.795l1.413,1.414L533.602,175.818z"/>
<rect x="245.522" y="471.936" fill="#924023" width="339.955" height="1"/>
<rect x="245.522" y="528.497" fill="#924023" width="339.955" height="1"/>
<rect x="245.522" y="409.387" fill="#924023" width="339.955" height="1"/>
<rect x="245.522" y="174.879" fill="#924023" width="339.955" height="1"/>
<path opacity="0.6" fill="#924023" enable-background="new    " d="M416.498,573.613h-2v-4h2V573.613z M416.498,565.613h-2v-4h2
	V565.613z M416.498,557.613h-2v-4h2V557.613z M416.498,549.613h-2v-4h2V549.613z M416.498,541.613h-2v-4h2V541.613z
	 M416.498,533.613h-2v-4h2V533.613z M416.498,525.613h-2v-4h2V525.613z M416.498,517.613h-2v-4h2V517.613z M416.498,509.613h-2v-4h2
	V509.613z M416.498,501.613h-2v-4h2V501.613z M416.498,493.613h-2v-4h2V493.613z M416.498,485.613h-2v-4h2V485.613z
	 M416.498,477.613h-2v-4h2V477.613z M416.498,469.613h-2v-4h2V469.613z M416.498,461.613h-2v-4h2V461.613z M416.498,453.613h-2v-4h2
	V453.613z M416.498,445.613h-2v-4h2V445.613z M416.498,437.613h-2v-4h2V437.613z M416.498,429.613h-2v-4h2V429.613z
	 M416.498,421.613h-2v-4h2V421.613z M416.498,413.613h-2v-4h2V413.613z M416.498,405.613h-2v-4h2V405.613z M416.498,397.613h-2v-4h2
	V397.613z M416.498,389.613h-2v-4h2V389.613z M416.498,381.613h-2v-4h2V381.613z M416.498,373.613h-2v-4h2V373.613z
	 M416.498,365.613h-2v-4h2V365.613z M416.498,357.613h-2v-4h2V357.613z M416.498,349.613h-2v-4h2V349.613z M416.498,341.613h-2v-4h2
	V341.613z M416.498,333.613h-2v-4h2V333.613z M416.498,325.613h-2v-4h2V325.613z M416.498,317.613h-2v-4h2V317.613z
	 M416.498,309.613h-2v-4h2V309.613z M416.498,301.613h-2v-4h2V301.613z M416.498,293.613h-2v-4h2V293.613z M416.498,285.613h-2v-4h2
	V285.613z M416.498,277.613h-2v-4h2V277.613z M416.498,269.613h-2v-4h2V269.613z M416.498,261.613h-2v-4h2V261.613z
	 M416.498,253.613h-2v-4h2V253.613z M416.498,245.613h-2v-4h2V245.613z M416.498,237.613h-2v-4h2V237.613z M416.498,229.613h-2v-4h2
	V229.613z M416.498,221.613h-2v-4h2V221.613z M416.498,213.613h-2v-4h2V213.613z M416.498,205.613h-2v-4h2V205.613z
	 M416.498,197.613h-2v-4h2V197.613z M416.498,189.613h-2v-4h2V189.613z M416.498,181.613h-2v-4h2V181.613z M416.498,173.613h-2v-4h2
	V173.613z M416.498,165.613h-2v-4h2V165.613z M416.498,157.613h-2v-4h2V157.613z M416.498,149.613h-2v-4h2V149.613z
	 M416.498,141.613h-2v-4h2V141.613z M416.498,133.613h-2v-4h2V133.613z M416.498,125.613h-2v-4h2V125.613z M416.498,117.613h-2
	v-3.227h2V117.613z"/>
<text transform="matrix(1 0 0 1 410.3354 560.7197)" fill="#924023" font-family="'DINPro-Regular'" font-size="22.6637" letter-spacing="1"> </text>
<g>
	<rect x="338.747" y="472.436" opacity="0.3" fill="#924023" enable-background="new    " width="16.458" height="88.285"/>
	<g enable-background="new    ">
		<path fill="#FFFFFF" d="M332.819,523.712c-3.729,3.729-8.624,5.749-14.141,5.749s-10.412-2.02-14.141-5.749
			c-5.206-5.206-5.206-10.645-5.206-22.377s0-17.172,5.206-22.377c3.729-3.729,8.625-5.75,14.141-5.75s10.411,2.021,14.141,5.75
			c5.206,5.205,5.206,10.645,5.206,22.377S338.025,518.506,332.819,523.712z M328.235,482.454c-2.408-2.486-5.905-3.962-9.557-3.962
			c-3.652,0-7.148,1.476-9.557,3.962c-3.496,3.574-3.885,7.304-3.885,18.881s0.389,15.307,3.885,18.88
			c2.409,2.486,5.905,3.963,9.557,3.963c3.651,0,7.148-1.477,9.557-3.963c3.496-3.573,3.885-7.303,3.885-18.88
			S331.731,486.028,328.235,482.454z"/>
		<path fill="#FFFFFF" d="M366.699,529.461c-9.635,0-16.938-6.526-16.938-19.579c0-13.054,7.304-19.58,16.938-19.58
			c5.283,0,8.624,1.398,12.587,5.672l-3.807,3.574c-2.875-3.186-5.129-4.273-8.78-4.273c-3.729,0-6.837,1.477-8.857,4.351
			c-1.787,2.486-2.486,5.439-2.486,10.257c0,4.816,0.699,7.77,2.486,10.256c2.021,2.875,5.128,4.351,8.857,4.351
			c3.651,0,5.905-1.165,8.78-4.351l3.807,3.651C375.323,528.062,371.982,529.461,366.699,529.461z"/>
		<path fill="#FFFFFF" d="M415.03,528.995v-4.273c-2.72,3.108-6.527,4.739-10.801,4.739c-4.117,0-7.536-1.243-9.867-3.573
			c-2.72-2.643-3.885-6.294-3.885-10.723v-24.397h5.594v23.543c0,6.76,3.574,10.178,9.324,10.178c5.749,0,9.557-3.496,9.557-10.178
			v-23.543h5.594v38.228H415.03z"/>
		<path fill="#FFFFFF" d="M445.025,528.995c-6.683,0-9.712-4.352-9.712-10.179v-45.143h5.594v44.91c0,3.729,1.243,5.594,5.128,5.594
			h3.03v4.817H445.025z"/>
		<path fill="#FFFFFF" d="M483.642,528.995v-4.273c-2.72,3.108-6.527,4.739-10.801,4.739c-4.117,0-7.536-1.243-9.867-3.573
			c-2.72-2.643-3.885-6.294-3.885-10.723v-24.397h5.594v23.543c0,6.76,3.574,10.178,9.324,10.178c5.749,0,9.557-3.496,9.557-10.178
			v-23.543h5.595v38.228H483.642z"/>
		<path fill="#FFFFFF" d="M516.124,529.461c-6.449,0-11.499-1.476-15.695-5.517l3.729-3.729c3.03,3.187,7.148,4.429,11.888,4.429
			c6.294,0,10.179-2.253,10.179-6.759c0-3.342-1.942-5.206-6.371-5.595l-6.294-0.544c-7.459-0.621-11.421-3.963-11.421-10.256
			c0-6.993,5.904-11.188,14.062-11.188c5.439,0,10.334,1.32,13.753,4.118l-3.652,3.651c-2.719-2.098-6.215-3.03-10.178-3.03
			c-5.595,0-8.547,2.409-8.547,6.294c0,3.263,1.864,5.205,6.682,5.594l6.139,0.544c6.682,0.622,11.266,3.186,11.266,10.334
			C531.663,525.188,525.37,529.461,516.124,529.461z"/>
	</g>
	<g enable-background="new    ">
		<path fill="#924023" d="M367.264,546.127v14.593h-1.722v-14.593h-4.668v-1.541h11.058v1.541H367.264z"/>
		<path fill="#924023" d="M379.661,551.701c-0.612-0.611-1.065-0.815-1.926-0.815c-1.631,0-2.674,1.291-2.674,2.991v6.843h-1.631
			v-11.148h1.631v1.359c0.612-0.929,1.835-1.495,3.127-1.495c1.065,0,1.881,0.249,2.674,1.042L379.661,551.701z"/>
		<path fill="#924023" d="M389.066,560.72v-1.065c-0.906,0.907-1.722,1.201-3.218,1.201c-1.541,0-2.447-0.294-3.149-1.02
			c-0.544-0.544-0.838-1.382-0.838-2.266c0-1.949,1.359-3.218,3.852-3.218h3.354v-1.065c0-1.631-0.815-2.447-2.855-2.447
			c-1.427,0-2.152,0.34-2.81,1.27l-1.11-1.02c0.997-1.292,2.13-1.654,3.943-1.654c2.99,0,4.464,1.291,4.464,3.716v7.568H389.066z
			 M389.066,555.576h-3.127c-1.677,0-2.493,0.68-2.493,1.972c0,1.291,0.793,1.903,2.561,1.903c0.951,0,1.79-0.068,2.492-0.748
			c0.385-0.362,0.566-0.997,0.566-1.926V555.576z"/>
		<path fill="#924023" d="M398.993,560.855c-2.81,0-4.939-1.903-4.939-5.71s2.13-5.71,4.939-5.71c1.541,0,2.516,0.407,3.671,1.654
			l-1.11,1.042c-0.838-0.929-1.495-1.246-2.561-1.246c-1.088,0-1.994,0.431-2.583,1.269c-0.521,0.726-0.726,1.586-0.726,2.991
			s0.204,2.266,0.726,2.991c0.589,0.838,1.495,1.269,2.583,1.269c1.065,0,1.723-0.34,2.561-1.269l1.11,1.064
			C401.509,560.448,400.534,560.855,398.993,560.855z"/>
		<path fill="#924023" d="M413.111,560.72l-3.535-5.71l-2.175,2.492v3.218h-1.632v-16.134h1.632v10.786l5.03-5.801h2.039
			l-3.784,4.26l4.441,6.889H413.111z"/>
		<path fill="#924023" d="M417.826,546.399v-1.836h1.836v1.836H417.826z M417.917,560.72v-11.148h1.632v11.148H417.917z"/>
		<path fill="#924023" d="M430.789,560.72v-6.866c0-1.971-1.064-2.968-2.741-2.968s-2.765,1.02-2.765,2.968v6.866h-1.632v-11.148
			h1.632v1.224c0.793-0.906,1.881-1.359,3.127-1.359c1.201,0,2.175,0.362,2.855,1.042c0.793,0.771,1.155,1.812,1.155,3.104v7.138
			H430.789z"/>
		<path fill="#924023" d="M439.968,565.841c-1.677,0-2.605-0.431-3.784-1.496l1.065-1.042c0.815,0.726,1.382,1.11,2.674,1.11
			c2.152,0,3.059-1.518,3.059-3.422v-1.744c-0.906,1.155-1.926,1.45-3.127,1.45c-1.133,0-2.107-0.408-2.696-0.997
			c-1.11-1.11-1.359-2.833-1.359-4.646s0.249-3.534,1.359-4.645c0.589-0.59,1.586-0.975,2.72-0.975c1.224,0,2.22,0.271,3.127,1.45
			v-1.314h1.608v11.488C444.613,563.824,442.892,565.841,439.968,565.841z M440.218,550.886c-2.425,0-2.787,2.085-2.787,4.169
			c0,2.085,0.362,4.17,2.787,4.17c2.424,0,2.764-2.085,2.764-4.17C442.981,552.971,442.642,550.886,440.218,550.886z"/>
	</g>
	<g enable-background="new    ">
		<path fill="#924023" d="M467.458,559.678c-0.748,0.747-1.791,1.2-3.218,1.2c-1.405,0-2.538-0.453-3.24-1.155
			c-0.703-0.725-1.042-1.654-1.133-2.81h1.632c0.204,1.608,1.042,2.515,2.742,2.515c0.793,0,1.518-0.271,1.994-0.747
			c0.838-0.839,0.883-2.13,0.883-3.286c0-1.971-0.385-3.92-2.719-3.92c-1.405,0-2.357,0.635-2.674,1.586h-1.473v-8.475h8.158v1.45
			h-6.685v5.121c0.634-0.702,1.631-1.11,2.9-1.11c1.201,0,2.152,0.386,2.787,1.02c1.178,1.179,1.337,2.811,1.337,4.328
			C468.75,557.004,468.614,558.521,467.458,559.678z"/>
		<path fill="#924023" d="M476.025,560.855c-2.515,0-4.418-1.768-4.418-4.441v-7.522c0-2.674,1.903-4.441,4.418-4.441
			s4.418,1.768,4.418,4.441v7.522C480.444,559.088,478.541,560.855,476.025,560.855z M478.812,548.982
			c0-1.768-0.997-3.082-2.787-3.082s-2.787,1.314-2.787,3.082v7.342c0,1.767,0.997,3.081,2.787,3.081s2.787-1.314,2.787-3.081
			V548.982z"/>
	</g>
</g>
<g enable-background="new    ">
	<path fill="#924023" d="M799.908,160.714c-0.975,0.974-2.402,1.495-4.078,1.495h-5.529v-16.134h5.529
		c1.676,0,3.104,0.521,4.078,1.496c1.677,1.677,1.586,4.146,1.586,6.39S801.585,159.037,799.908,160.714z M798.707,148.795
		c-0.838-0.861-1.926-1.179-3.172-1.179h-3.512v13.052h3.512c1.246,0,2.334-0.317,3.172-1.178c1.11-1.156,1.065-3.558,1.065-5.529
		S799.817,149.95,798.707,148.795z"/>
	<path fill="#924023" d="M805.166,147.889v-1.836h1.835v1.836H805.166z M805.256,162.209v-11.148h1.632v11.148H805.256z"/>
	<path fill="#924023" d="M818.127,162.209v-6.866c0-1.971-1.065-2.968-2.742-2.968s-2.764,1.02-2.764,2.968v6.866h-1.632v-11.148
		h1.632v1.224c0.793-0.906,1.88-1.359,3.126-1.359c1.201,0,2.176,0.362,2.855,1.042c0.793,0.771,1.155,1.812,1.155,3.104v7.138
		H818.127z"/>
	<path fill="#924023" d="M835.665,155.569h-4.283v6.64h-1.722v-16.134h6.005c2.945,0,4.984,1.836,4.984,4.736
		S838.61,155.569,835.665,155.569z M835.506,147.616h-4.124v6.413h4.124c2.017,0,3.422-1.088,3.422-3.218
		S837.522,147.616,835.506,147.616z"/>
	<path fill="#924023" d="M849.872,153.19c-0.611-0.611-1.064-0.815-1.926-0.815c-1.632,0-2.674,1.291-2.674,2.991v6.843h-1.632
		v-11.148h1.632v1.359c0.611-0.929,1.835-1.495,3.127-1.495c1.064,0,1.881,0.249,2.674,1.042L849.872,153.19z"/>
	<path fill="#924023" d="M859.57,161.076c-0.77,0.771-1.835,1.269-3.194,1.269s-2.425-0.498-3.195-1.269
		c-1.133-1.156-1.359-2.72-1.359-4.441s0.227-3.285,1.359-4.441c0.771-0.771,1.836-1.269,3.195-1.269s2.425,0.498,3.194,1.269
		c1.134,1.156,1.36,2.72,1.36,4.441S860.704,159.92,859.57,161.076z M858.415,153.19c-0.521-0.521-1.246-0.815-2.039-0.815
		s-1.496,0.294-2.017,0.815c-0.816,0.815-0.906,2.198-0.906,3.444s0.09,2.629,0.906,3.444c0.521,0.521,1.224,0.815,2.017,0.815
		s1.518-0.294,2.039-0.815c0.815-0.815,0.884-2.198,0.884-3.444S859.23,154.006,858.415,153.19z"/>
</g>
<g enable-background="new    ">
	<path fill="#FFFFFF" d="M811.963,224.209l-2.641-7.458h-14.406l-2.641,7.458h-3.753l12.138-32.984h2.965l12.091,32.984H811.963z
		 M802.189,196.274l-6.209,17.419h12.323L802.189,196.274z"/>
	<path fill="#FFFFFF" d="M833.364,224.209v-2.178c-1.853,1.854-3.521,2.456-6.578,2.456c-3.149,0-5.003-0.603-6.438-2.085
		c-1.112-1.112-1.715-2.826-1.715-4.633c0-3.983,2.78-6.578,7.876-6.578h6.855v-2.178c0-3.335-1.667-5.003-5.837-5.003
		c-2.918,0-4.4,0.695-5.744,2.595l-2.27-2.085c2.038-2.641,4.354-3.382,8.061-3.382c6.115,0,9.126,2.641,9.126,7.598v15.473H833.364
		z M833.364,213.693h-6.393c-3.428,0-5.096,1.39-5.096,4.03s1.621,3.892,5.234,3.892c1.946,0,3.66-0.14,5.097-1.529
		c0.787-0.741,1.157-2.038,1.157-3.938V213.693z"/>
	<path fill="#FFFFFF" d="M858.239,224.209h-12.832v-32.984h12.415c5.745,0,9.729,3.29,9.729,8.803c0,3.474-2.084,6.207-4.864,7.227
		c3.15,1.158,5.374,3.892,5.374,7.829C868.061,221.059,864.076,224.209,858.239,224.209z M857.545,194.375h-8.617v11.442h8.617
		c3.659,0,6.485-1.807,6.485-5.744S861.204,194.375,857.545,194.375z M857.915,208.968h-8.987v12.091h8.987
		c4.077,0,6.625-2.362,6.625-6.068S861.992,208.968,857.915,208.968z"/>
	<path fill="#FFFFFF" d="M891.083,222.495c-1.204,1.204-3.242,1.992-5.559,1.992c-2.502,0-4.587-0.603-6.439-3.012v2.733h-3.336
		v-32.984h3.336v12.833c1.853-2.363,3.938-2.919,6.439-2.919c2.316,0,4.354,0.788,5.559,1.992c2.316,2.316,2.779,6.115,2.779,9.682
		C893.862,216.38,893.399,220.179,891.083,222.495z M884.829,204.104c-4.957,0-5.744,4.262-5.744,8.709s0.787,8.71,5.744,8.71
		s5.698-4.263,5.698-8.71S889.786,204.104,884.829,204.104z"/>
	<path fill="#FFFFFF" d="M911.883,224.487c-3.242,0-6.207-1.205-8.431-3.429c-3.104-3.104-3.104-6.347-3.104-13.342
		s0-10.237,3.104-13.342c2.224-2.224,5.188-3.428,8.431-3.428c5.93,0,10.331,3.613,11.442,9.821h-3.613
		c-0.88-4.03-3.706-6.671-7.829-6.671c-2.177,0-4.262,0.834-5.698,2.316c-2.084,2.131-2.315,4.4-2.315,11.303
		s0.231,9.173,2.315,11.304c1.437,1.482,3.521,2.316,5.698,2.316c4.123,0,7.042-2.641,7.922-6.671h3.521
		C922.26,220.873,917.767,224.487,911.883,224.487z"/>
	<path fill="#FFFFFF" d="M939.353,224.487c-5.744,0-10.099-3.892-10.099-11.675c0-7.782,4.354-11.674,10.099-11.674
		c3.15,0,5.142,0.834,7.505,3.382l-2.271,2.131c-1.714-1.899-3.058-2.548-5.234-2.548c-2.224,0-4.077,0.88-5.281,2.595
		c-1.065,1.482-1.482,3.242-1.482,6.114c0,2.873,0.417,4.633,1.482,6.115c1.204,1.714,3.058,2.595,5.281,2.595
		c2.177,0,3.521-0.695,5.234-2.595l2.271,2.178C944.494,223.653,942.503,224.487,939.353,224.487z"/>
	<path fill="#FFFFFF" d="M973.447,221.151c-1.992,1.992-4.911,3.058-8.339,3.058h-11.304v-32.984h11.304
		c3.428,0,6.347,1.066,8.339,3.058c3.428,3.429,3.242,8.478,3.242,13.064C976.689,211.933,976.875,217.724,973.447,221.151z
		 M970.991,196.784c-1.714-1.761-3.938-2.409-6.485-2.409h-7.181v26.684h7.181c2.548,0,4.771-0.648,6.485-2.408
		c2.271-2.363,2.178-7.273,2.178-11.304S973.262,199.146,970.991,196.784z"/>
	<path fill="#FFFFFF" d="M997.998,224.209v-2.733c-1.854,2.409-3.984,3.012-6.485,3.012c-2.316,0-4.354-0.788-5.56-1.992
		c-2.316-2.316-2.779-6.115-2.779-9.683c0-3.566,0.463-7.365,2.779-9.682c1.205-1.204,3.243-1.992,5.56-1.992
		c2.501,0,4.586,0.556,6.439,2.919v-12.833h3.335v32.984H997.998z M992.254,204.104c-4.957,0-5.744,4.262-5.744,8.709
		s0.787,8.71,5.744,8.71s5.698-4.263,5.698-8.71S997.211,204.104,992.254,204.104z"/>
	<path fill="#FFFFFF" d="M1010.227,224.209v-32.984h20.476v3.15h-16.955v11.628h14.454v3.15h-14.454v11.905h16.955v3.15H1010.227z"
		/>
	<path fill="#FFFFFF" d="M1039.503,213.693c0,5.003,2.362,7.875,6.718,7.875c2.64,0,4.169-0.787,5.976-2.594l2.27,1.991
		c-2.315,2.316-4.447,3.521-8.338,3.521c-6.022,0-9.96-3.614-9.96-11.675c0-7.365,3.566-11.674,9.357-11.674
		c5.883,0,9.357,4.262,9.357,11.025v1.529H1039.503z M1050.853,207.393c-0.88-2.084-2.918-3.428-5.327-3.428
		s-4.447,1.344-5.327,3.428c-0.51,1.251-0.603,1.946-0.695,3.799h12.045C1051.455,209.339,1051.362,208.644,1050.853,207.393z"/>
	<path fill="#FFFFFF" d="M1066.093,194.375v12.138h14.454v3.15h-14.454v14.546h-3.521v-32.984h20.476v3.15H1066.093z"/>
	<path fill="#FFFFFF" d="M1092.914,204.104v20.105h-3.336v-20.105h-2.918v-2.548h2.918v-4.309c0-3.382,1.899-6.114,5.791-6.114
		h2.409v2.872h-1.807c-2.131,0-3.058,1.251-3.058,3.335v4.216h4.864v2.548H1092.914z"/>
	<path fill="#FFFFFF" d="M1123.07,220.688c-2.316,2.501-5.42,3.799-8.802,3.799c-3.242,0-6.207-1.205-8.431-3.429
		c-3.104-3.104-3.104-6.347-3.104-13.342s0-10.237,3.104-13.342c2.224-2.224,5.142-3.428,8.431-3.428
		c6.301,0,10.562,4.076,11.535,9.867h-3.521c-0.927-4.169-3.892-6.717-8.015-6.717c-2.177,0-4.262,0.88-5.698,2.362
		c-2.084,2.131-2.316,4.354-2.316,11.257s0.232,9.173,2.316,11.304c1.437,1.482,3.521,2.316,5.698,2.316
		c2.409,0,4.726-0.973,6.254-2.826c1.344-1.621,1.854-3.428,1.854-5.976v-2.502h-8.107v-3.104h11.628v5.234
		C1125.896,215.963,1125.109,218.511,1123.07,220.688z"/>
	<path fill="#FFFFFF" d="M1140.812,234.679c-3.429,0-5.328-0.88-7.737-3.058l2.178-2.131c1.668,1.482,2.826,2.27,5.467,2.27
		c4.4,0,6.254-3.104,6.254-6.995v-3.566c-1.854,2.362-3.938,2.965-6.394,2.965c-2.316,0-4.308-0.834-5.513-2.039
		c-2.27-2.27-2.779-5.79-2.779-9.496s0.51-7.228,2.779-9.497c1.205-1.204,3.243-1.992,5.56-1.992c2.501,0,4.54,0.556,6.393,2.965
		v-2.687h3.289v23.487C1150.309,230.556,1146.788,234.679,1140.812,234.679z M1141.321,204.104c-4.956,0-5.698,4.262-5.698,8.524
		c0,4.262,0.742,8.523,5.698,8.523c4.957,0,5.652-4.262,5.652-8.523C1146.974,208.365,1146.278,204.104,1141.321,204.104z"/>
</g>
<g enable-background="new    ">
	<path fill="#FFFFFF" d="M811.917,286.209v-15.056H796.26v15.056h-3.521v-32.984h3.521v14.778h15.657v-14.778h3.521v32.984H811.917z
		"/>
	<path fill="#FFFFFF" d="M838.97,286.209v-14.083c0-3.984-2.131-6.022-5.559-6.022c-3.429,0-5.698,2.085-5.698,6.022v14.083h-3.336
		v-32.984h3.336v12.693c1.668-1.899,3.845-2.779,6.393-2.779c5.143,0,8.2,3.289,8.2,8.432v14.639H838.97z"/>
	<path fill="#FFFFFF" d="M851.014,286.209v-32.984h3.521v32.984H851.014z"/>
	<path fill="#FFFFFF" d="M863.29,256.932v-3.753h3.752v3.753H863.29z M863.475,286.209v-22.792h3.336v22.792H863.475z"/>
	<path fill="#FFFFFF" d="M879.641,286.487c-3.149,0-5.513-0.927-7.551-2.965l2.362-2.363c1.205,1.205,2.456,2.178,5.188,2.178
		c4.309,0,6.764-2.733,6.764-7.598v-22.515h3.521v22.979C889.926,282.549,885.663,286.487,879.641,286.487z"/>
	<path fill="#FFFFFF" d="M895.946,296.447h-2.409v-2.919h1.807c2.316,0,3.058-1.111,3.058-3.335v-26.638h3.336v26.776
		C901.737,293.807,899.931,296.447,895.946,296.447z M898.217,256.932v-3.753h3.752v3.753H898.217z"/>
	<path fill="#FFFFFF" d="M931.246,286.209l-10.053-17.558l-6.949,8.339v9.219h-3.521v-32.984h3.521v18.947l15.381-18.947h4.308
		l-10.377,12.74l11.859,20.244H931.246z"/>
	<path fill="#FFFFFF" d="M955.241,286.209l-7.227-11.674l-4.447,5.096v6.578h-3.336v-32.984h3.336v22.052l10.284-11.859h4.169
		l-7.736,8.709l9.08,14.083H955.241z"/>
	<path fill="#FFFFFF" d="M965.663,286.209v-32.984h3.521v29.834h16.863v3.15H965.663z"/>
	<path fill="#FFFFFF" d="M997.303,286.209c-3.983,0-5.791-2.594-5.791-6.068v-26.916h3.336v26.776c0,2.224,0.741,3.336,3.058,3.336
		h1.807v2.872H997.303z"/>
	<path fill="#FFFFFF" d="M1030.703,286.209v-25.062l-9.034,19.874h-3.011l-9.173-19.874v25.062h-3.521v-32.984h3.521l10.748,23.395
		l10.47-23.395h3.521v32.984H1030.703z"/>
	<path fill="#FFFFFF" d="M1072.44,286.209v-14.037c0-4.03-2.178-6.068-5.605-6.068c-3.336,0-5.698,2.085-5.698,5.698v14.407h-3.335
		v-14.037c0-4.03-2.178-6.068-5.605-6.068c-3.429,0-5.698,2.085-5.698,6.068v14.037h-3.336v-22.792h3.336v2.501
		c1.621-1.853,3.892-2.779,6.439-2.779c3.149,0,5.605,1.297,6.995,3.799c1.76-2.502,4.308-3.799,7.505-3.799
		c2.455,0,4.493,0.788,5.883,2.131c1.621,1.575,2.455,3.706,2.455,6.347v14.593H1072.44z"/>
	<path fill="#FFFFFF" d="M1105.516,286.209l-17.512-26.452v26.452h-3.521v-32.984h3.336l17.511,26.359v-26.359h3.521v32.984
		H1105.516z"/>
	<path fill="#FFFFFF" d="M1132.383,286.209v-14.037c0-4.03-2.177-6.068-5.605-6.068c-3.428,0-5.651,2.085-5.651,6.068v14.037h-3.336
		v-22.792h3.336v2.501c1.621-1.853,3.845-2.779,6.393-2.779c2.455,0,4.447,0.741,5.837,2.131c1.622,1.575,2.363,3.706,2.363,6.347
		v14.593H1132.383z"/>
</g>
<g enable-background="new    ">
	<path fill="#FFFFFF" d="M811.454,345.059c-2.224,2.224-5.143,3.429-8.432,3.429s-6.208-1.205-8.431-3.429
		c-3.104-3.104-3.104-6.347-3.104-13.342s0-10.237,3.104-13.342c2.223-2.224,5.142-3.428,8.431-3.428s6.208,1.204,8.432,3.428
		c3.104,3.104,3.104,6.347,3.104,13.342S814.558,341.955,811.454,345.059z M808.721,320.46c-1.436-1.482-3.521-2.362-5.698-2.362
		c-2.177,0-4.262,0.88-5.698,2.362c-2.084,2.131-2.316,4.354-2.316,11.257s0.232,9.126,2.316,11.258
		c1.437,1.482,3.521,2.362,5.698,2.362c2.178,0,4.263-0.88,5.698-2.362c2.084-2.132,2.316-4.355,2.316-11.258
		S810.805,322.591,808.721,320.46z"/>
	<path fill="#FFFFFF" d="M836.886,345.893c-1.575,1.575-3.753,2.595-6.532,2.595s-4.957-1.02-6.532-2.595
		c-2.316-2.362-2.779-5.559-2.779-9.08c0-3.521,0.463-6.717,2.779-9.079c1.575-1.575,3.753-2.595,6.532-2.595
		s4.957,1.02,6.532,2.595c2.315,2.362,2.779,5.559,2.779,9.079C839.665,340.334,839.201,343.53,836.886,345.893z M834.522,329.771
		c-1.065-1.065-2.548-1.668-4.169-1.668s-3.058,0.603-4.123,1.668c-1.668,1.668-1.854,4.493-1.854,7.041s0.186,5.374,1.854,7.042
		c1.065,1.065,2.502,1.668,4.123,1.668s3.104-0.603,4.169-1.668c1.668-1.668,1.807-4.494,1.807-7.042
		S836.19,331.439,834.522,329.771z"/>
	<path fill="#FFFFFF" d="M859.677,334.636h-8.756v13.573H847.4v-32.984h12.276c6.022,0,10.191,3.753,10.191,9.683
		S865.699,334.636,859.677,334.636z M859.353,318.375h-8.432v13.11h8.432c4.123,0,6.995-2.224,6.995-6.578
		S863.476,318.375,859.353,318.375z"/>
	<path fill="#FFFFFF" d="M891.315,346.495c-1.204,1.204-3.242,1.992-5.559,1.992c-2.502,0-4.587-0.603-6.439-2.965V358.4h-3.336
		v-32.983h3.336v2.687c1.853-2.409,3.938-2.965,6.439-2.965c2.316,0,4.354,0.788,5.559,1.992c2.316,2.316,2.779,6.115,2.779,9.682
		C894.095,340.38,893.632,344.179,891.315,346.495z M885.062,328.104c-4.957,0-5.744,4.262-5.744,8.709s0.787,8.71,5.744,8.71
		s5.698-4.263,5.698-8.71S890.019,328.104,885.062,328.104z"/>
	<path fill="#FFFFFF" d="M922.862,349.83l-3.66-3.659c-1.992,1.528-4.447,2.316-7.088,2.316c-3.289,0-6.207-1.205-8.431-3.429
		c-3.104-3.104-3.104-6.347-3.104-13.342s0-10.237,3.104-13.342c2.224-2.224,5.142-3.428,8.431-3.428s6.208,1.204,8.432,3.428
		c3.104,3.104,3.104,6.347,3.104,13.342c0,6.301,0,9.543-2.27,12.369l3.613,3.613L922.862,349.83z M917.812,320.46
		c-1.437-1.482-3.521-2.362-5.698-2.362c-2.177,0-4.262,0.88-5.698,2.362c-2.084,2.131-2.316,4.354-2.316,11.257
		s0.232,9.126,2.316,11.258c1.437,1.482,3.521,2.362,5.698,2.362c1.761,0,3.336-0.556,4.679-1.575l-4.169-4.169l2.131-2.132
		l4.03,4.031c1.205-1.946,1.344-4.494,1.344-9.775C920.129,324.814,919.897,322.591,917.812,320.46z"/>
	<path fill="#FFFFFF" d="M944.865,358.4v-12.878c-1.854,2.362-3.938,2.965-6.439,2.965c-2.316,0-4.354-0.788-5.56-1.992
		c-2.316-2.316-2.779-6.115-2.779-9.683c0-3.566,0.463-7.365,2.779-9.682c1.205-1.204,3.243-1.992,5.56-1.992
		c2.501,0,4.633,0.556,6.485,2.965v-2.687h3.289V358.4H944.865z M939.167,328.104c-4.957,0-5.745,4.262-5.745,8.709
		s0.788,8.71,5.745,8.71s5.698-4.263,5.698-8.71S944.124,328.104,939.167,328.104z"/>
	<path fill="#FFFFFF" d="M976.088,348.209l-7.505-14.639h-7.922v14.639h-3.521v-32.984h12.646c5.745,0,9.775,3.475,9.775,9.173
		c0,4.818-2.919,7.968-7.181,8.849l7.829,14.963H976.088z M969.463,318.375h-8.802v12.091h8.802c3.846,0,6.579-1.991,6.579-6.021
		S973.309,318.375,969.463,318.375z"/>
	<path fill="#FFFFFF" d="M999.666,329.771c-1.251-1.251-2.178-1.668-3.938-1.668c-3.336,0-5.467,2.641-5.467,6.115v13.99h-3.336
		v-22.792h3.336v2.779c1.251-1.899,3.752-3.058,6.393-3.058c2.178,0,3.846,0.51,5.467,2.131L999.666,329.771z"/>
	<path fill="#FFFFFF" d="M1015.508,348.487c-4.957,0-8.199-1.251-11.304-4.354l2.409-2.409c2.733,2.733,5.281,3.613,8.987,3.613
		c4.817,0,7.782-2.271,7.782-6.115c0-1.714-0.509-3.196-1.574-4.123s-1.899-1.204-4.309-1.575l-3.845-0.602
		c-2.595-0.417-4.633-1.251-6.069-2.502c-1.667-1.482-2.501-3.521-2.501-6.161c0-5.605,4.03-9.312,10.562-9.312
		c4.216,0,6.996,1.065,9.821,3.613l-2.27,2.27c-2.038-1.853-4.216-2.825-7.69-2.825c-4.4,0-6.949,2.455-6.949,6.114
		c0,1.622,0.464,2.919,1.482,3.799c1.02,0.881,2.733,1.529,4.447,1.807l3.614,0.557c3.104,0.463,4.632,1.111,6.022,2.316
		c1.807,1.528,2.779,3.798,2.779,6.531C1026.904,344.92,1022.364,348.487,1015.508,348.487z"/>
	<path fill="#FFFFFF" d="M1040.847,348.487c-3.845,0-6.856-0.881-9.357-3.289l2.224-2.224c1.807,1.898,4.262,2.641,7.088,2.641
		c3.752,0,6.068-1.344,6.068-4.031c0-1.991-1.158-3.104-3.799-3.335l-3.752-0.324c-4.447-0.371-6.811-2.362-6.811-6.115
		c0-4.169,3.521-6.671,8.386-6.671c3.242,0,6.161,0.788,8.199,2.455l-2.177,2.178c-1.622-1.251-3.707-1.807-6.069-1.807
		c-3.335,0-5.096,1.436-5.096,3.752c0,1.946,1.112,3.104,3.984,3.336l3.659,0.324c3.984,0.37,6.718,1.899,6.718,6.161
		C1050.112,345.939,1046.359,348.487,1040.847,348.487z"/>
	<path fill="#FFFFFF" d="M1066.926,318.375v29.834h-3.521v-29.834h-9.543v-3.15h22.607v3.15H1066.926z"/>
	<path fill="#FFFFFF" d="M1088.421,348.209c-3.892,0-5.837-2.733-5.837-6.115v-13.99h-2.873v-2.548h2.873v-7.134h3.335v7.134h4.864
		v2.548h-4.864v13.897c0,2.085,0.973,3.336,3.104,3.336h1.761v2.872H1088.421z"/>
	<path fill="#FFFFFF" d="M1109.033,348.487c-6.671,0-11.488-4.587-11.488-11.165v-22.098h3.521v21.82
		c0,5.003,3.15,8.292,7.968,8.292c4.818,0,8.015-3.289,8.015-8.292v-21.82h3.521v22.098
		C1120.568,343.9,1115.704,348.487,1109.033,348.487z"/>
	<path fill="#FFFFFF" d="M1143.452,348.209v-2.548c-1.621,1.853-3.891,2.826-6.438,2.826c-2.456,0-4.494-0.741-5.884-2.132
		c-1.621-1.574-2.316-3.752-2.316-6.393v-14.546h3.336v14.036c0,4.03,2.131,6.069,5.559,6.069c3.429,0,5.698-2.085,5.698-6.069
		v-14.036h3.336v22.792H1143.452z"/>
</g>
<g enable-background="new    ">
	<path fill="#FFFFFF" d="M802.05,410.209h-2.872l-10.84-32.984h3.705l8.57,26.684l8.57-26.684h3.707L802.05,410.209z"/>
	<path fill="#FFFFFF" d="M825.072,410.209h-2.965l-8.339-22.792h3.613l6.208,18.299l6.254-18.299h3.613L825.072,410.209z"/>
	<path fill="#FFFFFF" d="M864.355,410.209h-3.289l-7.319-26.405l-7.319,26.405h-3.289l-8.432-32.984h3.752l6.439,26.592
		l7.273-26.592h3.15l7.272,26.592l6.439-26.592h3.753L864.355,410.209z"/>
	<path fill="#FFFFFF" d="M899.375,410.209h-3.104l-5.977-17.696l-5.93,17.696h-3.104l-7.227-22.792h3.613l5.234,18.299l5.977-18.299
		h2.872l6.022,18.299l5.188-18.299h3.613L899.375,410.209z"/>
	<path fill="#FFFFFF" d="M927.818,410.209l-8.015-13.852l-8.061,13.852h-3.983l10.099-16.909l-9.45-16.075h4.076l7.319,13.018
		l7.319-13.018h4.077l-9.497,16.075l10.191,16.909H927.818z"/>
	<path fill="#FFFFFF" d="M949.173,410.209l-5.467-8.849l-5.56,8.849h-4.03l7.737-11.628l-7.412-11.164h4.03l5.234,8.431l5.143-8.431
		h4.03l-7.412,11.164l7.736,11.628H949.173z"/>
	<path fill="#FFFFFF" d="M968.443,396.589v13.62h-3.521v-13.62l-9.82-19.364h3.798l7.783,15.798l7.69-15.798h3.798L968.443,396.589z
		"/>
	<path fill="#FFFFFF" d="M988.362,415.722c-0.464,1.251-0.973,2.085-1.622,2.687c-1.204,1.158-2.825,1.575-4.447,1.575h-1.436
		v-2.965h1.02c2.315,0,3.011-0.741,3.752-2.825l1.621-4.447l-8.199-22.329h3.613l6.254,18.299l6.208-18.299h3.613L988.362,415.722z"
		/>
	<path fill="#FFFFFF" d="M1001.888,410.209v-3.336l16.492-26.498h-15.844v-3.15h19.827v2.965l-16.631,26.869h16.631v3.15H1001.888z"
		/>
	<path fill="#FFFFFF" d="M1027.32,410.209v-2.872l12.693-16.955h-11.999v-2.965h15.844v2.825l-12.739,17.002h12.739v2.965H1027.32z"
		/>
</g>
<g enable-background="new    ">
	<path fill="#FFFFFF" d="M800.058,472.487c-5.142,0-9.033-3.614-9.033-9.08v-15.38c0-5.467,3.892-9.08,9.033-9.08
		c5.143,0,9.034,3.613,9.034,9.08v15.38C809.092,468.873,805.2,472.487,800.058,472.487z M805.756,448.212
		c0-3.613-2.038-6.3-5.698-6.3c-3.659,0-5.698,2.687-5.698,6.3v15.01c0,3.613,2.039,6.301,5.698,6.301
		c3.66,0,5.698-2.688,5.698-6.301V448.212z"/>
	<path fill="#FFFFFF" d="M824.1,472.209v-29.277l-6.161,5.42v-3.799l6.161-5.328h3.335v32.984H824.1z"/>
	<path fill="#FFFFFF" d="M839.479,472.209v-2.965l13.018-16.538c1.25-1.622,1.853-3.058,1.853-4.864c0-3.567-2.131-5.93-5.744-5.93
		c-3.058,0-5.744,1.714-5.744,5.976h-3.336c0-5.188,3.567-8.94,9.08-8.94c5.42,0,9.08,3.475,9.08,8.895
		c0,2.641-0.834,4.354-2.641,6.671l-11.535,14.731h14.176v2.965H839.479z"/>
	<path fill="#FFFFFF" d="M872.137,472.533c-5.188,0-9.404-2.733-9.683-8.709h3.336c0.278,4.123,3.196,5.744,6.347,5.744
		c3.566,0,6.347-2.362,6.347-6.393c0-3.984-1.992-6.394-6.485-6.394h-0.695v-2.918h0.695c4.03,0,5.883-2.271,5.883-5.977
		c0-3.938-2.548-6.022-5.744-6.022c-3.475,0-5.605,2.132-5.93,5.514h-3.336c0.371-5.328,4.263-8.479,9.266-8.479
		c5.374,0,9.08,3.567,9.08,8.941c0,3.475-1.482,5.976-4.447,7.319c3.335,1.251,5.049,3.938,5.049,8.061
		C881.818,469.29,877.511,472.533,872.137,472.533z"/>
	<path fill="#FFFFFF" d="M902.987,466.975v5.234h-3.289v-5.234h-13.157v-3.012l11.906-24.738h3.567l-11.906,24.738h9.59v-9.357
		h3.289v9.357h4.03v3.012H902.987z"/>
	<path fill="#FFFFFF" d="M927.631,470.078c-1.528,1.528-3.659,2.455-6.578,2.455c-2.872,0-5.188-0.927-6.625-2.362
		c-1.436-1.482-2.131-3.382-2.315-5.745h3.335c0.417,3.29,2.131,5.143,5.605,5.143c1.621,0,3.104-0.556,4.077-1.528
		c1.714-1.715,1.807-4.354,1.807-6.718c0-4.03-0.788-8.014-5.56-8.014c-2.872,0-4.817,1.297-5.467,3.242h-3.011v-17.326h16.678
		v2.965H915.91v10.47c1.298-1.436,3.336-2.27,5.93-2.27c2.456,0,4.401,0.787,5.698,2.085c2.409,2.408,2.733,5.744,2.733,8.848
		C930.271,464.611,929.994,467.716,927.631,470.078z"/>
	<path fill="#FFFFFF" d="M945.233,472.487c-5.605,0-9.173-3.799-9.173-9.497c0-2.362,0.695-4.633,2.085-7.412l8.107-16.354h3.428
		l-7.366,14.824c1.02-0.463,2.178-0.694,3.475-0.694c5.143,0,8.57,3.938,8.57,9.357
		C954.359,468.317,950.839,472.487,945.233,472.487z M945.188,456.181c-3.521,0-5.791,2.594-5.791,6.671
		c0,4.03,2.27,6.671,5.791,6.671c3.521,0,5.837-2.641,5.837-6.671C951.024,459.191,948.986,456.181,945.188,456.181z"/>
	<path fill="#FFFFFF" d="M967.607,472.209h-3.521l11.442-30.02H964.04v5.189h-3.289v-8.154h18.299v2.965L967.607,472.209z"/>
	<path fill="#FFFFFF" d="M993.502,472.487c-5.466,0-9.729-3.799-9.729-9.358c0-3.845,2.178-6.439,4.957-8.014
		c-2.594-1.482-4.309-3.892-4.309-7.32c0-5.142,3.846-8.848,9.08-8.848c5.235,0,9.08,3.706,9.08,8.848
		c0,3.429-1.668,5.838-4.262,7.32c2.779,1.574,4.91,4.169,4.91,8.014C1003.23,468.688,998.969,472.487,993.502,472.487z
		 M993.502,456.644c-3.613,0-6.393,2.779-6.393,6.439c0,3.659,2.779,6.439,6.393,6.439s6.394-2.78,6.394-6.439
		C999.896,459.423,997.115,456.644,993.502,456.644z M993.502,441.912c-3.382,0-5.744,2.502-5.744,5.93
		c0,3.475,2.362,5.883,5.744,5.883s5.744-2.408,5.744-5.883C999.246,444.414,996.884,441.912,993.502,441.912z"/>
	<path fill="#FFFFFF" d="M1024.678,455.856l-8.106,16.353h-3.475l7.412-14.824c-1.02,0.463-2.224,0.695-3.521,0.695
		c-5.143,0-8.524-3.938-8.524-9.358c0-5.605,3.521-9.774,9.126-9.774s9.173,3.799,9.173,9.497
		C1026.763,450.807,1026.067,453.076,1024.678,455.856z M1017.59,441.912c-3.521,0-5.79,2.641-5.79,6.671
		c0,3.659,1.991,6.671,5.79,6.671c3.521,0,5.837-2.595,5.837-6.671C1023.427,444.553,1021.111,441.912,1017.59,441.912z"/>
</g>
<g enable-background="new    ">
	<path fill="#FFFFFF" d="M806.775,514.983l-3.799,5.467c-0.557,0.834-0.834,1.945-0.834,2.687v1.807h-3.336v-1.853
		c0-1.807,0.464-2.965,1.437-4.354l3.753-5.42c0.879-1.298,1.528-2.363,1.528-3.938c0-3.104-2.224-5.467-5.327-5.467
		c-3.289,0-5.374,2.594-5.374,5.513h-3.336c0-4.726,3.706-8.478,8.71-8.478c4.863,0,8.662,3.475,8.662,8.432
		C808.859,511.556,807.979,513.224,806.775,514.983z M798.482,534.209v-3.892h3.984v3.892H798.482z"/>
	<path fill="#FFFFFF" d="M837.673,534.209l-2.965-3.613c-1.344,1.251-4.447,3.892-9.729,3.892c-6.393,0-10.423-3.846-10.423-9.59
		c0-4.957,3.521-7.458,7.134-9.867c-1.621-1.946-3.567-4.216-3.567-7.181c0-3.938,3.058-6.902,7.273-6.902
		c4.123,0,7.181,3.011,7.181,6.949c0,2.64-1.575,4.447-3.66,5.883c0,0-1.667,1.112-2.455,1.668l8.432,10.146
		c1.343-2.039,1.807-3.846,1.853-7.552h3.336c-0.047,4.17-0.927,7.552-3.058,10.1l5.05,6.068H837.673z M823.636,517.254
		c-2.825,1.945-5.651,3.799-5.651,7.551c0,3.938,2.872,6.578,6.949,6.578c2.455,0,4.957-0.648,7.782-3.196L823.636,517.254z
		 M825.396,503.958c-2.27,0-3.799,1.622-3.799,3.846c0,1.528,0.788,2.779,2.965,5.42c0.556-0.371,1.761-1.205,1.761-1.205
		c1.528-1.065,2.965-2.224,2.965-4.122C829.288,505.672,827.62,503.958,825.396,503.958z"/>
	<path fill="#FFFFFF" d="M854.488,518.227c-3.614,0-6.255-2.455-6.255-6.208v-4.864c0-3.798,2.641-6.254,6.255-6.254
		c3.566,0,6.254,2.456,6.254,6.254v4.864C860.742,515.771,858.055,518.227,854.488,518.227z M858.102,507.247
		c0-2.455-1.112-4.03-3.613-4.03c-2.549,0-3.614,1.529-3.614,4.03v4.68c0,2.501,1.112,3.983,3.614,3.983
		c2.501,0,3.613-1.528,3.613-3.983V507.247z M858.193,534.209h-2.779l15.473-32.984h2.78L858.193,534.209z M874.593,534.533
		c-3.613,0-6.254-2.455-6.254-6.254v-4.864c0-3.799,2.641-6.254,6.254-6.254c3.567,0,6.254,2.455,6.254,6.254v4.864
		C880.847,532.078,878.16,534.533,874.593,534.533z M878.207,523.508c0-2.455-1.112-4.03-3.614-4.03
		c-2.548,0-3.613,1.528-3.613,4.03v4.679c0,2.502,1.065,4.03,3.613,4.03c2.502,0,3.614-1.575,3.614-4.03V523.508z"/>
	<path fill="#FFFFFF" d="M910.309,534.209v-2.548c-1.528,1.945-3.382,2.872-6.207,2.872c-2.595,0-4.864-1.02-6.301-2.826
		c-1.575-1.945-2.038-4.308-2.038-8.523c0-4.077,0.463-6.578,1.899-8.478c1.344-1.807,3.706-2.872,6.393-2.872
		c2.688,0,4.633,0.973,6.208,2.918v-3.613c0-2.455-0.464-3.892-1.807-5.281c-1.298-1.297-2.965-1.853-5.143-1.853h-6.022
		c-2.177,0-3.706,0.51-5.049,1.853c-1.391,1.39-1.854,2.733-1.854,5.281v15.612c0,2.918,0.51,4.03,2.641,5.604l-2.27,2.271
		c-2.826-2.085-3.613-3.706-3.613-7.829v-15.565c0-3.15,0.833-5.651,2.594-7.458c1.714-1.761,4.123-2.595,7.134-2.595h6.856
		c2.965,0,5.374,0.834,7.135,2.595c1.807,1.807,2.64,4.308,2.64,7.458v23.023L910.309,534.209z M904.657,514.706
		c-4.864,0-5.605,4.169-5.605,8.478s0.741,8.478,5.605,8.478s5.605-4.169,5.605-8.478S909.521,514.706,904.657,514.706z"/>
	<path fill="#FFFFFF" d="M922.861,534.209v-3.892h3.984v3.892H922.861z M926.289,524.943h-2.872l-0.463-23.719h3.845
		L926.289,524.943z"/>
	<path fill="#FFFFFF" d="M946.395,534.395v5.096h-2.779v-5.003c-4.355-0.186-7.32-1.482-10.192-4.354l2.409-2.409
		c2.455,2.455,4.818,3.428,7.968,3.566v-12.276l-0.926-0.092c-2.502-0.232-4.726-1.391-6.022-2.502
		c-1.668-1.482-2.548-3.521-2.548-6.161c0-5.235,3.521-8.802,9.312-9.266v-4.123h2.779v4.123c3.567,0.186,6.068,1.298,8.616,3.567
		l-2.27,2.27c-1.761-1.574-3.66-2.594-6.485-2.779v11.998l1.436,0.232c3.058,0.51,4.586,1.111,5.977,2.316
		c1.807,1.528,2.825,3.798,2.825,6.531C956.493,530.503,952.51,533.978,946.395,534.395z M943.8,504.051
		c-3.845,0.324-6.022,2.641-6.022,6.068c0,1.622,0.464,2.919,1.482,3.799c1.298,1.065,2.965,1.575,4.54,1.807V504.051z
		 M951.352,521.099c-1.529-1.343-3.15-1.436-5.096-1.714v11.905c4.169-0.277,6.717-2.501,6.717-6.068
		C952.973,523.508,952.417,522.025,951.352,521.099z"/>
	<path fill="#FFFFFF" d="M982.526,514.196l-1.065,6.532h4.123v2.965h-4.586l-1.668,10.516h-3.428l1.668-10.516h-7.412l-1.622,10.516
		h-3.428l1.668-10.516h-4.123v-2.965h4.632l1.066-6.532h-4.263v-3.058h4.679l1.575-9.96h3.475l-1.621,9.96h7.365l1.575-9.96h3.382
		l-1.575,9.96h4.03v3.058H982.526z M971.732,514.196l-1.065,6.532h7.366l1.065-6.532H971.732z"/>
	<path fill="#FFFFFF" d="M994.662,520.265v-4.354h4.354v4.354H994.662z M994.755,540.88v-10.747h4.077v7.087L994.755,540.88z"/>
	<path fill="#FFFFFF" d="M1011.664,538.563c-1.482-1.482-2.502-2.455-3.336-3.983c-0.833-1.529-0.973-3.15-0.973-4.772v-24.182
		c0-1.621,0.14-3.243,0.973-4.771c0.834-1.528,1.854-2.502,3.336-3.984l2.27,2.271c-1.065,1.065-1.899,1.807-2.501,3.011
		c-0.464,0.927-0.741,2.224-0.741,3.753v23.626c0,1.528,0.277,2.825,0.741,3.752c0.602,1.205,1.436,1.946,2.501,3.012
		L1011.664,538.563z"/>
	<path fill="#FFFFFF" d="M1025.468,534.58c-0.834,1.528-1.854,2.501-3.336,3.983l-2.362-2.362c1.065-1.065,1.945-1.807,2.548-3.012
		c0.464-0.926,0.648-2.177,0.648-3.659v-23.626c0-1.482-0.185-2.733-0.648-3.66c-0.603-1.204-1.482-1.945-2.548-3.011l2.362-2.363
		c1.482,1.482,2.502,2.456,3.336,3.984s0.927,3.15,0.927,4.771v24.182C1026.395,531.43,1026.302,533.051,1025.468,534.58z"/>
	<path fill="#FFFFFF" d="M1043.116,537.637c-2.316,0-3.706-0.417-4.679-1.39c-1.02-1.019-1.39-2.177-1.39-4.586v-8.849
		c0-1.297-0.278-2.224-0.834-2.779c-0.463-0.463-1.204-0.834-2.085-0.834h-1.204v-2.965h1.204c0.881,0,1.622-0.37,2.085-0.834
		c0.556-0.556,0.834-1.482,0.834-2.779v-8.848c0-2.409,0.37-3.567,1.39-4.587c0.973-0.973,2.362-1.39,4.679-1.39h1.714v2.965h-1.065
		c-1.621,0-2.27,0.139-2.732,0.603c-0.51,0.51-0.649,1.343-0.649,3.011v8.709c0,2.641-1.158,3.799-2.918,4.633
		c1.76,0.834,2.918,1.992,2.918,4.633v8.709c0,1.668,0.14,2.502,0.649,3.012c0.463,0.463,1.111,0.602,2.732,0.602h1.065v2.965
		H1043.116z"/>
	<path fill="#FFFFFF" d="M1060.07,519.199c-0.88,0-1.621,0.371-2.084,0.834c-0.556,0.556-0.834,1.482-0.834,2.779v8.849
		c0,2.409-0.371,3.567-1.39,4.586c-0.973,0.973-2.362,1.39-4.679,1.39h-1.761v-2.965h1.112c1.621,0,2.223-0.139,2.687-0.602
		c0.51-0.51,0.694-1.344,0.694-3.012v-8.709c0-2.641,1.158-3.799,2.919-4.633c-1.761-0.834-2.919-1.992-2.919-4.633v-8.709
		c0-1.668-0.185-2.501-0.694-3.011c-0.464-0.464-1.065-0.603-2.687-0.603h-1.112v-2.965h1.761c2.316,0,3.706,0.417,4.679,1.39
		c1.019,1.02,1.39,2.178,1.39,4.587v8.848c0,1.297,0.278,2.224,0.834,2.779c0.463,0.464,1.204,0.834,2.084,0.834h1.158v2.965
		H1060.07z"/>
	<path fill="#FFFFFF" d="M1081.056,514.613l-5.42-3.289l0.185,6.347h-2.687l0.186-6.347l-5.374,3.289l-1.344-2.27l5.56-3.012
		l-5.56-3.058l1.344-2.224l5.374,3.289l-0.186-6.347h2.687l-0.185,6.347l5.42-3.289l1.297,2.224l-5.559,3.058l5.559,3.012
		L1081.056,514.613z"/>
</g>
<g id="Layer_3">
</g>
</svg>
