<?xml version="1.0" encoding="utf-8"?>
<!-- Generator: Adobe Illustrator 16.0.0, SVG Export Plug-In . SVG Version: 6.00 Build 0)  -->
<!DOCTYPE svg PUBLIC "-//W3C//DTD SVG 1.1//EN" "http://www.w3.org/Graphics/SVG/1.1/DTD/svg11.dtd">
<svg version="1.1" xmlns="http://www.w3.org/2000/svg" xmlns:xlink="http://www.w3.org/1999/xlink" x="0px" y="0px" width="1400px"
	 height="700px" viewBox="0 0 1400 700" enable-background="new 0 0 1400 700" xml:space="preserve">
<g id="Layer_2">
</g>
<g id="Layer_1">
	<g>
		<g>
			<g>
				<path fill="#7F7774" d="M447.71,208.771l-0.631,3.867h2.442v1.757h-2.717l-0.987,6.229h-2.031l0.988-6.229h-4.39l-0.96,6.229
					h-2.03l0.987-6.229h-2.442v-1.757h2.744l0.631-3.867h-2.524v-1.812h2.771l0.933-5.899h2.058l-0.96,5.899h4.363l0.933-5.899
					h2.003l-0.934,5.899h2.387v1.812H447.71z M441.316,208.771l-0.631,3.867h4.363l0.631-3.867H441.316z"/>
				<path fill="#7F7774" d="M456.658,202.953v7.188h8.561v1.866h-8.561v8.616h-2.086v-19.536H466.7v1.865H456.658z"/>
				<path fill="#7F7774" d="M469.529,220.624v-1.756l7.71-9.796c0.741-0.96,1.098-1.812,1.098-2.881
					c0-2.113-1.263-3.512-3.403-3.512c-1.812,0-3.403,1.014-3.403,3.538h-1.975c0-3.072,2.113-5.295,5.378-5.295
					c3.21,0,5.378,2.058,5.378,5.269c0,1.563-0.494,2.58-1.564,3.95l-6.833,8.727h8.397v1.756H469.529z"/>
				<path fill="#7F7774" d="M489.205,220.789c-3.321,0-5.434-2.25-5.434-5.626c0-1.399,0.412-2.743,1.235-4.391l4.802-9.685h2.03
					l-4.362,8.78c0.603-0.274,1.289-0.411,2.058-0.411c3.046,0,5.077,2.332,5.077,5.541
					C494.611,218.319,492.525,220.789,489.205,220.789z M489.178,211.131c-2.086,0-3.43,1.537-3.43,3.949
					c0,2.389,1.344,3.953,3.43,3.953c2.085,0,3.457-1.564,3.457-3.953C492.635,212.914,491.427,211.131,489.178,211.131z"/>
				<path fill="#7F7774" d="M507.619,210.938l-4.802,9.687h-2.058l4.391-8.78c-0.604,0.275-1.317,0.412-2.086,0.412
					c-3.046,0-5.049-2.333-5.049-5.544c0-3.319,2.086-5.789,5.406-5.789s5.433,2.251,5.433,5.624
					C508.854,207.947,508.441,209.291,507.619,210.938z M503.42,202.68c-2.086,0-3.43,1.562-3.43,3.949
					c0,2.168,1.18,3.953,3.43,3.953c2.085,0,3.457-1.537,3.457-3.953C506.877,204.242,505.506,202.68,503.42,202.68z"/>
				<path fill="#7F7774" d="M517.525,220.816c-3.073,0-5.57-1.619-5.735-5.159h1.976c0.164,2.443,1.893,3.403,3.759,3.403
					c2.113,0,3.759-1.4,3.759-3.787c0-2.359-1.18-3.787-3.842-3.787h-0.411v-1.729h0.411c2.388,0,3.485-1.344,3.485-3.54
					c0-2.331-1.509-3.567-3.402-3.567c-2.058,0-3.32,1.263-3.512,3.266h-1.976c0.219-3.154,2.525-5.021,5.488-5.021
					c3.184,0,5.378,2.114,5.378,5.297c0,2.058-0.878,3.539-2.634,4.336c1.975,0.74,2.991,2.331,2.991,4.773
					C523.261,218.896,520.709,220.816,517.525,220.816z"/>
				<path fill="#7F7774" d="M531.85,220.816c-3.073,0-5.57-1.619-5.734-5.159h1.976c0.165,2.443,1.893,3.403,3.758,3.403
					c2.113,0,3.759-1.4,3.759-3.787c0-2.359-1.179-3.787-3.841-3.787h-0.412v-1.729h0.412c2.387,0,3.484-1.344,3.484-3.54
					c0-2.331-1.509-3.567-3.403-3.567c-2.058,0-3.319,1.263-3.512,3.266h-1.975c0.219-3.154,2.524-5.021,5.487-5.021
					c3.184,0,5.379,2.114,5.379,5.297c0,2.058-0.878,3.539-2.634,4.336c1.975,0.74,2.991,2.331,2.991,4.773
					C537.585,218.896,535.034,220.816,531.85,220.816z"/>
			</g>
			<g>
				<path fill="#AAA7A5" d="M447.71,138.201l-0.631,3.869h2.442v1.756h-2.717l-0.987,6.229h-2.031l0.988-6.229h-4.39l-0.96,6.229
					h-2.03l0.987-6.229h-2.442v-1.756h2.744l0.631-3.869h-2.524v-1.811h2.771l0.933-5.9h2.058l-0.96,5.9h4.363l0.933-5.9h2.003
					l-0.934,5.9h2.387v1.811H447.71z M441.316,138.201l-0.631,3.869h4.363l0.631-3.869H441.316z"/>
				<path fill="#AAA7A5" d="M456.658,132.384v7.188h8.561v1.867h-8.561v8.615h-2.086V130.52H466.7v1.864H456.658z"/>
				<path fill="#AAA7A5" d="M473.81,150.055h-2.086l6.777-17.779h-6.804v3.072h-1.948v-4.828h10.838v1.756L473.81,150.055z"/>
				<path fill="#AAA7A5" d="M493.293,140.369l-4.802,9.686h-2.058l4.39-8.779c-0.604,0.274-1.317,0.411-2.085,0.411
					c-3.046,0-5.049-2.333-5.049-5.544c0-3.318,2.085-5.789,5.406-5.789s5.433,2.251,5.433,5.625
					C494.528,137.379,494.117,138.723,493.293,140.369z M489.095,132.11c-2.085,0-3.43,1.563-3.43,3.95
					c0,2.168,1.179,3.952,3.43,3.952c2.085,0,3.457-1.537,3.457-3.952C492.552,133.674,491.181,132.11,489.095,132.11z"/>
				<path fill="#AAA7A5" d="M505.231,150.221c-1.921,0-3.677-0.714-4.994-2.031c-1.838-1.84-1.838-3.76-1.838-7.903
					s0-6.063,1.838-7.902c1.317-1.316,3.073-2.03,4.994-2.03c3.512,0,6.119,2.141,6.777,5.817h-2.141
					c-0.521-2.387-2.195-3.952-4.637-3.952c-1.29,0-2.524,0.494-3.375,1.373c-1.235,1.262-1.372,2.607-1.372,6.694
					c0,4.089,0.137,5.433,1.372,6.695c0.851,0.88,2.085,1.372,3.375,1.372c2.441,0,4.17-1.563,4.692-3.95h2.085
					C511.378,148.08,508.716,150.221,505.231,150.221z"/>
				<path fill="#AAA7A5" d="M521.011,150.221c-3.32,0-5.433-2.251-5.433-5.627c0-1.398,0.412-2.742,1.235-4.39l4.802-9.685h2.031
					l-4.362,8.779c0.603-0.274,1.289-0.411,2.058-0.411c3.046,0,5.076,2.333,5.076,5.542
					C526.417,147.75,524.332,150.221,521.011,150.221z M520.984,140.562c-2.085,0-3.43,1.537-3.43,3.95
					c0,2.389,1.344,3.952,3.43,3.952c2.086,0,3.457-1.563,3.457-3.952C524.441,142.346,523.233,140.562,520.984,140.562z"/>
				<path fill="#AAA7A5" d="M537.038,150.221c-1.921,0-3.677-0.714-4.994-2.031c-1.838-1.84-1.838-3.76-1.838-7.903
					s0-6.063,1.838-7.902c1.317-1.316,3.073-2.03,4.994-2.03c3.512,0,6.118,2.141,6.777,5.817h-2.141
					c-0.521-2.387-2.195-3.952-4.636-3.952c-1.29,0-2.525,0.494-3.375,1.373c-1.235,1.262-1.372,2.607-1.372,6.694
					c0,4.089,0.137,5.433,1.372,6.695c0.851,0.88,2.085,1.372,3.375,1.372c2.441,0,4.17-1.563,4.691-3.95h2.086
					C543.184,148.08,540.522,150.221,537.038,150.221z"/>
			</g>
			<g>
				<path fill="#AAA7A5" d="M447.71,279.338l-0.631,3.87h2.442v1.757h-2.717l-0.987,6.229h-2.031l0.988-6.229h-4.39l-0.96,6.229
					h-2.03l0.987-6.229h-2.442v-1.757h2.744l0.631-3.87h-2.524v-1.811h2.771l0.933-5.898h2.058l-0.96,5.898h4.363l0.933-5.898h2.003
					l-0.934,5.898h2.387v1.811H447.71z M441.316,279.338l-0.631,3.87h4.363l0.631-3.87H441.316z"/>
				<path fill="#AAA7A5" d="M462.173,291.193h-7.601v-19.537h7.354c3.403,0,5.763,1.947,5.763,5.213
					c0,2.059-1.235,3.677-2.881,4.281c1.866,0.686,3.183,2.305,3.183,4.638C467.99,289.326,465.63,291.193,462.173,291.193z
					 M461.762,273.521h-5.104v6.777h5.104c2.168,0,3.842-1.069,3.842-3.402C465.604,274.564,463.93,273.521,461.762,273.521z
					 M461.981,282.165h-5.323v7.161h5.323c2.414,0,3.923-1.398,3.923-3.594S464.396,282.165,461.981,282.165z"/>
				<path fill="#AAA7A5" d="M474.99,273.521v7.189h8.561v1.866h-8.561v8.616h-2.085v-19.537h12.128v1.865H474.99z"/>
				<path fill="#AAA7A5" d="M497.109,289.932c-0.906,0.904-2.168,1.454-3.897,1.454c-1.701,0-3.073-0.55-3.923-1.4
					c-0.851-0.878-1.263-2.003-1.373-3.401h1.975c0.248,1.947,1.263,3.045,3.32,3.045c0.96,0,1.839-0.328,2.416-0.905
					c1.015-1.015,1.07-2.58,1.07-3.979c0-2.388-0.466-4.748-3.293-4.748c-1.701,0-2.854,0.77-3.237,1.921h-1.784v-10.262h9.878
					v1.756h-8.094v6.201c0.768-0.85,1.975-1.344,3.512-1.344c1.454,0,2.606,0.466,3.375,1.233c1.427,1.429,1.619,3.403,1.619,5.242
					C498.672,286.692,498.508,288.531,497.109,289.932z"/>
				<path fill="#AAA7A5" d="M507.208,291.386c-3.073,0-5.57-1.62-5.734-5.159h1.976c0.164,2.442,1.893,3.402,3.758,3.402
					c2.114,0,3.759-1.4,3.759-3.787c0-2.358-1.179-3.787-3.842-3.787h-0.411v-1.729h0.411c2.388,0,3.485-1.344,3.485-3.539
					c0-2.332-1.509-3.567-3.403-3.567c-2.058,0-3.319,1.263-3.512,3.265h-1.975c0.219-3.154,2.524-5.021,5.487-5.021
					c3.184,0,5.379,2.114,5.379,5.296c0,2.059-0.878,3.539-2.634,4.334c1.975,0.742,2.991,2.334,2.991,4.776
					C512.943,289.465,510.391,291.386,507.208,291.386z"/>
				<path fill="#AAA7A5" d="M516.511,291.193v-1.756l7.711-9.796c0.741-0.96,1.098-1.812,1.098-2.882
					c0-2.113-1.263-3.512-3.402-3.512c-1.812,0-3.403,1.015-3.403,3.539h-1.975c0-3.072,2.113-5.295,5.378-5.295
					c3.209,0,5.377,2.057,5.377,5.268c0,1.564-0.494,2.578-1.564,3.951l-6.833,8.727h8.396v1.756H516.511z"/>
				<path fill="#AAA7A5" d="M536.133,291.357c-3.238,0-5.763-2.25-5.763-5.543c0-2.277,1.29-3.814,2.936-4.746
					c-1.536-0.879-2.552-2.305-2.552-4.336c0-3.047,2.277-5.24,5.379-5.24c3.1,0,5.378,2.193,5.378,5.24
					c0,2.031-0.988,3.457-2.525,4.336c1.646,0.932,2.909,2.469,2.909,4.746C541.895,289.107,539.37,291.357,536.133,291.357z
					 M536.133,281.975c-2.141,0-3.788,1.646-3.788,3.813s1.646,3.813,3.788,3.813c2.14,0,3.786-1.646,3.786-3.813
					S538.272,281.975,536.133,281.975z M536.133,273.248c-2.003,0-3.403,1.48-3.403,3.512c0,2.059,1.399,3.484,3.403,3.484
					c2.002,0,3.402-1.426,3.402-3.484C539.535,274.729,538.135,273.248,536.133,273.248z"/>
			</g>
			<rect x="333.852" y="173.578" fill="#F26933" width="70.569" height="70.568"/>
			<rect x="333.852" y="103.008" fill="#F89D6D" width="70.569" height="70.57"/>
			<rect x="333.852" y="244.146" fill="#C05428" width="70.569" height="70.57"/>
			<polygon fill="#47413E" points="297.822,215.317 291.453,218.663 292.669,211.574 287.517,206.549 294.635,205.517 
				297.822,199.062 301.006,205.517 308.125,206.549 302.975,211.574 304.19,218.663 			"/>
		</g>
		<g>
			<g>
				<path fill="#7F7774" d="M1011.605,208.771l-0.631,3.867h2.442v1.757h-2.717l-0.987,6.229h-2.032l0.989-6.229h-4.39l-0.96,6.229
					h-2.031l0.988-6.229h-2.442v-1.757h2.744l0.631-3.867h-2.523v-1.812h2.771l0.933-5.899h2.058l-0.96,5.899h4.363l0.934-5.899
					h2.003l-0.933,5.899h2.387v1.812H1011.605z M1005.211,208.771l-0.631,3.867h4.363l0.631-3.867H1005.211z"/>
				<path fill="#7F7774" d="M1026.946,210.938l-4.802,9.687h-2.058l4.39-8.78c-0.604,0.275-1.317,0.412-2.085,0.412
					c-3.046,0-5.049-2.333-5.049-5.544c0-3.319,2.085-5.789,5.406-5.789s5.433,2.251,5.433,5.624
					C1028.181,207.947,1027.77,209.291,1026.946,210.938z M1022.748,202.68c-2.085,0-3.43,1.562-3.43,3.949
					c0,2.168,1.179,3.953,3.43,3.953c2.085,0,3.457-1.537,3.457-3.953C1026.205,204.242,1024.833,202.68,1022.748,202.68z"/>
				<path fill="#7F7774" d="M1037.183,220.789c-3.32,0-5.433-2.25-5.433-5.626c0-1.399,0.412-2.743,1.235-4.391l4.802-9.685h2.031
					l-4.362,8.78c0.603-0.274,1.289-0.411,2.058-0.411c3.046,0,5.076,2.332,5.076,5.541
					C1042.588,218.319,1040.503,220.789,1037.183,220.789z M1037.155,211.131c-2.085,0-3.43,1.537-3.43,3.949
					c0,2.389,1.344,3.953,3.43,3.953c2.086,0,3.457-1.564,3.457-3.953C1040.612,212.914,1039.405,211.131,1037.155,211.131z"/>
				<path fill="#7F7774" d="M1058.752,218.813c-1.18,1.18-2.909,1.811-4.94,1.811h-6.695v-19.536h6.695
					c2.031,0,3.76,0.631,4.94,1.811c2.03,2.031,1.921,5.021,1.921,7.737C1060.673,213.353,1060.782,216.782,1058.752,218.813z
					 M1057.297,204.379c-1.015-1.041-2.332-1.426-3.842-1.426h-4.253v15.805h4.253c1.51,0,2.827-0.385,3.842-1.427
					c1.344-1.399,1.29-4.308,1.29-6.695C1058.587,208.249,1058.642,205.779,1057.297,204.379z"/>
				<path fill="#7F7774" d="M1069.978,220.789c-3.32,0-5.433-2.25-5.433-5.626c0-1.399,0.412-2.743,1.234-4.391l4.802-9.685h2.03
					l-4.362,8.78c0.603-0.274,1.289-0.411,2.057-0.411c3.046,0,5.077,2.332,5.077,5.541
					C1075.383,218.319,1073.298,220.789,1069.978,220.789z M1069.95,211.131c-2.085,0-3.43,1.537-3.43,3.949
					c0,2.389,1.344,3.953,3.43,3.953s3.457-1.564,3.457-3.953C1073.407,212.914,1072.2,211.131,1069.95,211.131z"/>
				<path fill="#7F7774" d="M1091.547,218.813c-1.181,1.18-2.909,1.811-4.94,1.811h-6.695v-19.536h6.695
					c2.031,0,3.759,0.631,4.94,1.811c2.03,2.031,1.921,5.021,1.921,7.737C1093.468,213.353,1093.577,216.782,1091.547,218.813z
					 M1090.092,204.379c-1.015-1.041-2.332-1.426-3.842-1.426h-4.253v15.805h4.253c1.51,0,2.827-0.385,3.842-1.427
					c1.344-1.399,1.29-4.308,1.29-6.695C1091.382,208.249,1091.437,205.779,1090.092,204.379z"/>
				<path fill="#7F7774" d="M1104.473,220.789c-1.921,0-3.677-0.713-4.994-2.031c-1.838-1.839-1.838-3.76-1.838-7.902
					c0-4.144,0-6.064,1.838-7.902c1.317-1.316,3.073-2.03,4.994-2.03c3.512,0,6.118,2.14,6.777,5.817h-2.141
					c-0.521-2.387-2.195-3.953-4.637-3.953c-1.29,0-2.525,0.495-3.375,1.373c-1.235,1.262-1.372,2.607-1.372,6.695
					s0.137,5.433,1.372,6.696c0.851,0.876,2.085,1.37,3.375,1.37c2.441,0,4.17-1.562,4.692-3.949h2.085
					C1110.62,218.648,1107.958,220.789,1104.473,220.789z"/>
			</g>
			<g>
				<path fill="#AAA7A5" d="M1011.605,138.201l-0.631,3.869h2.442v1.756h-2.717l-0.987,6.229h-2.032l0.989-6.229h-4.39l-0.96,6.229
					h-2.031l0.988-6.229h-2.442v-1.756h2.744l0.631-3.869h-2.523v-1.811h2.771l0.933-5.9h2.058l-0.96,5.9h4.363l0.934-5.9h2.003
					l-0.933,5.9h2.387v1.811H1011.605z M1005.211,138.201l-0.631,3.869h4.363l0.631-3.869H1005.211z"/>
				<path fill="#AAA7A5" d="M1026.068,150.055h-7.601V130.52h7.354c3.403,0,5.763,1.947,5.763,5.212c0,2.06-1.235,3.677-2.881,4.281
					c1.866,0.686,3.183,2.305,3.183,4.638C1031.885,148.189,1029.525,150.055,1026.068,150.055z M1025.657,132.384h-5.104v6.777
					h5.104c2.168,0,3.841-1.069,3.841-3.401C1029.498,133.427,1027.825,132.384,1025.657,132.384z M1025.876,141.027h-5.324v7.162
					h5.324c2.414,0,3.923-1.399,3.923-3.596C1029.8,142.4,1028.291,141.027,1025.876,141.027z"/>
				<path fill="#AAA7A5" d="M1038.885,132.384v7.188h8.561v1.867h-8.561v8.615h-2.085V130.52h12.128v1.864H1038.885z"/>
				<path fill="#AAA7A5" d="M1052.717,150.055V130.52h12.128v1.864h-10.042v6.888h8.561v1.867h-8.561v7.051h10.042v1.865H1052.717z"
					/>
				<path fill="#AAA7A5" d="M1077.47,148.793c-0.906,0.904-2.168,1.455-3.897,1.455c-1.701,0-3.073-0.551-3.923-1.4
					c-0.851-0.878-1.263-2.003-1.372-3.402h1.975c0.247,1.947,1.263,3.047,3.32,3.047c0.96,0,1.838-0.33,2.415-0.906
					c1.015-1.015,1.07-2.58,1.07-3.979c0-2.387-0.466-4.748-3.293-4.748c-1.701,0-2.853,0.77-3.237,1.921h-1.784V130.52h9.878v1.756
					h-8.094v6.2c0.768-0.85,1.975-1.345,3.512-1.345c1.454,0,2.606,0.467,3.375,1.234c1.427,1.429,1.619,3.404,1.619,5.242
					C1079.033,145.555,1078.868,147.393,1077.47,148.793z"/>
				<path fill="#AAA7A5" d="M1083.507,150.055V130.52h12.128v1.864h-10.042v6.888h8.561v1.867h-8.561v7.051h10.042v1.865H1083.507z"
					/>
				<path fill="#AAA7A5" d="M1104.309,150.221c-3.238,0-5.762-2.251-5.762-5.544c0-2.276,1.29-3.813,2.936-4.746
					c-1.536-0.878-2.552-2.305-2.552-4.336c0-3.046,2.277-5.241,5.378-5.241c3.101,0,5.378,2.195,5.378,5.241
					c0,2.031-0.987,3.458-2.524,4.336c1.646,0.933,2.908,2.47,2.908,4.746C1110.071,147.97,1107.546,150.221,1104.309,150.221z
					 M1104.309,140.836c-2.141,0-3.787,1.646-3.787,3.814s1.646,3.813,3.787,3.813c2.14,0,3.787-1.646,3.787-3.813
					S1106.449,140.836,1104.309,140.836z M1104.309,132.11c-2.003,0-3.402,1.481-3.402,3.513c0,2.057,1.399,3.484,3.402,3.484
					c2.002,0,3.402-1.428,3.402-3.484C1107.711,133.592,1106.312,132.11,1104.309,132.11z"/>
			</g>
			<g>
				<path fill="#AAA7A5" d="M1011.605,279.338l-0.631,3.87h2.442v1.757h-2.717l-0.987,6.229h-2.032l0.989-6.229h-4.39l-0.96,6.229
					h-2.031l0.988-6.229h-2.442v-1.757h2.744l0.631-3.87h-2.523v-1.811h2.771l0.933-5.898h2.058l-0.96,5.898h4.363l0.934-5.898
					h2.003l-0.933,5.898h2.387v1.811H1011.605z M1005.211,279.338l-0.631,3.87h4.363l0.631-3.87H1005.211z"/>
				<path fill="#AAA7A5" d="M1026.754,289.932c-0.906,0.904-2.168,1.454-3.897,1.454c-1.701,0-3.073-0.55-3.923-1.4
					c-0.851-0.878-1.263-2.003-1.373-3.401h1.975c0.247,1.947,1.263,3.045,3.32,3.045c0.96,0,1.839-0.328,2.416-0.905
					c1.015-1.015,1.07-2.58,1.07-3.979c0-2.388-0.466-4.748-3.293-4.748c-1.701,0-2.853,0.77-3.237,1.921h-1.784v-10.262h9.878
					v1.756h-8.094v6.201c0.768-0.85,1.975-1.344,3.512-1.344c1.454,0,2.606,0.466,3.375,1.233c1.427,1.429,1.619,3.403,1.619,5.242
					C1028.318,286.692,1028.153,288.531,1026.754,289.932z"/>
				<path fill="#AAA7A5" d="M1034.878,273.521v7.189h8.561v1.866h-8.561v8.616h-2.085v-19.537h12.128v1.865H1034.878z"/>
				<path fill="#AAA7A5" d="M1058.451,291.193l-1.564-4.419h-8.533l-1.564,4.419h-2.222l7.189-19.537h1.756l7.161,19.537H1058.451z
					 M1052.661,274.646l-3.677,10.318h7.299L1052.661,274.646z"/>
				<path fill="#AAA7A5" d="M1071.842,288.093v3.101h-1.948v-3.101h-7.793v-1.784l7.053-14.652h2.113l-7.052,14.652h5.679v-5.542
					h1.948v5.542h2.388v1.784H1071.842z"/>
				<path fill="#AAA7A5" d="M1085.757,291.193h-7.601v-19.537h7.354c3.403,0,5.763,1.947,5.763,5.213
					c0,2.059-1.235,3.677-2.881,4.281c1.866,0.686,3.183,2.305,3.183,4.638C1091.574,289.326,1089.214,291.193,1085.757,291.193z
					 M1085.345,273.521h-5.104v6.777h5.104c2.168,0,3.842-1.069,3.842-3.402C1089.187,274.564,1087.513,273.521,1085.345,273.521z
					 M1085.565,282.165h-5.323v7.161h5.323c2.415,0,3.923-1.398,3.923-3.594S1087.979,282.165,1085.565,282.165z"/>
				<path fill="#AAA7A5" d="M1100.824,291.357c-3.046,0-5.351-2.14-5.351-5.379v-9.109c0-3.237,2.305-5.377,5.351-5.377
					c3.045,0,5.35,2.14,5.35,5.377v9.109C1106.174,289.218,1103.869,291.357,1100.824,291.357z M1104.199,276.979
					c0-2.139-1.208-3.73-3.375-3.73c-2.168,0-3.375,1.592-3.375,3.73v8.892c0,2.14,1.208,3.731,3.375,3.731
					c2.167,0,3.375-1.592,3.375-3.731V276.979z"/>
			</g>
			<rect x="898.402" y="173.578" fill="#96D7DC" width="70.569" height="70.568"/>
			<rect x="898.402" y="103.008" fill="#C0E5E8" width="70.569" height="70.57"/>
			<rect x="898.402" y="244.146" fill="#5FA5B0" width="70.569" height="70.57"/>
			<polygon fill="#47413E" points="861.233,215.317 854.864,218.663 856.08,211.574 850.928,206.549 858.047,205.517 
				861.233,199.062 864.417,205.517 871.538,206.549 866.386,211.574 867.602,218.663 			"/>
		</g>
		<g>
			<g>
				<path fill="#7F7774" d="M1012.128,493.006l-0.631,3.869h2.442v1.757h-2.716l-0.988,6.229h-2.031l0.988-6.229h-4.39l-0.96,6.229
					h-2.03l0.987-6.229h-2.442v-1.757h2.744l0.632-3.869h-2.525v-1.811h2.771l0.933-5.899h2.058l-0.96,5.899h4.363l0.933-5.899
					h2.003l-0.933,5.899h2.387v1.811H1012.128z M1005.735,493.006l-0.631,3.869h4.363l0.631-3.869H1005.735z"/>
				<path fill="#7F7774" d="M1021.076,487.189v7.188h8.561v1.866h-8.561v8.616h-2.085v-19.536h12.128v1.865H1021.076z"/>
				<path fill="#7F7774" d="M1039.161,504.86v-17.342l-3.65,3.21v-2.25l3.65-3.154h1.975v19.536H1039.161z"/>
				<path fill="#7F7774" d="M1051.318,487.189v7.188h8.561v1.866h-8.561v8.616h-2.086v-19.536h12.128v1.865H1051.318z"/>
				<path fill="#7F7774" d="M1069.402,504.86v-17.342l-3.649,3.21v-2.25l3.649-3.154h1.976v19.536H1069.402z"/>
				<path fill="#7F7774" d="M1081.561,487.189v7.188h8.561v1.866h-8.561v8.616h-2.086v-19.536h12.128v1.865H1081.561z"/>
				<path fill="#7F7774" d="M1094.431,504.86v-1.756l7.71-9.796c0.742-0.96,1.098-1.812,1.098-2.881
					c0-2.113-1.263-3.512-3.403-3.512c-1.811,0-3.402,1.014-3.402,3.538h-1.976c0-3.072,2.113-5.295,5.378-5.295
					c3.21,0,5.378,2.058,5.378,5.269c0,1.563-0.494,2.578-1.564,3.95l-6.833,8.727h8.396v1.756H1094.431z"/>
			</g>
			<g>
				<path fill="#AAA7A5" d="M1012.128,422.439l-0.631,3.867h2.442v1.756h-2.716l-0.988,6.229h-2.031l0.988-6.229h-4.39l-0.96,6.229
					h-2.03l0.987-6.229h-2.442v-1.756h2.744l0.632-3.867h-2.525v-1.812h2.771l0.933-5.899h2.058l-0.96,5.899h4.363l0.933-5.899
					h2.003l-0.933,5.899h2.387v1.812H1012.128z M1005.735,422.439l-0.631,3.867h4.363l0.631-3.867H1005.735z"/>
				<path fill="#AAA7A5" d="M1021.076,416.62v7.188h8.561v1.867h-8.561v8.615h-2.085v-19.535h12.128v1.864H1021.076z"/>
				<path fill="#AAA7A5" d="M1036.993,416.62v7.188h8.561v1.867h-8.561v8.615h-2.085v-19.535h12.128v1.864H1036.993z"/>
				<path fill="#AAA7A5" d="M1052.91,416.62v7.188h8.561v1.867h-8.561v8.615h-2.085v-19.535h12.128v1.864H1052.91z"/>
				<path fill="#AAA7A5" d="M1068.827,416.62v7.188h8.561v1.867h-8.561v8.615h-2.085v-19.535h12.128v1.864H1068.827z"/>
				<path fill="#AAA7A5" d="M1084.743,416.62v7.188h8.561v1.867h-8.561v8.615h-2.085v-19.535h12.128v1.864H1084.743z"/>
				<path fill="#AAA7A5" d="M1100.66,416.62v7.188h8.561v1.867h-8.561v8.615h-2.085v-19.535h12.128v1.864H1100.66z"/>
			</g>
			<g>
				<path fill="#AAA7A5" d="M1012.128,563.576l-0.631,3.868h2.442v1.757h-2.716l-0.988,6.229h-2.031l0.988-6.229h-4.39l-0.96,6.229
					h-2.03l0.987-6.229h-2.442v-1.757h2.744l0.632-3.868h-2.525v-1.812h2.771l0.933-5.898h2.058l-0.96,5.898h4.363l0.933-5.898
					h2.003l-0.933,5.898h2.387v1.812H1012.128z M1005.735,563.576l-0.631,3.868h4.363l0.631-3.868H1005.735z"/>
				<path fill="#AAA7A5" d="M1030.625,573.619c-1.18,1.18-2.908,1.811-4.939,1.811h-6.695v-19.537h6.695
					c2.031,0,3.759,0.631,4.939,1.811c2.031,2.031,1.921,5.021,1.921,7.738S1032.656,571.588,1030.625,573.619z M1029.17,559.185
					c-1.015-1.042-2.332-1.427-3.842-1.427h-4.252v15.805h4.252c1.51,0,2.827-0.384,3.842-1.426c1.344-1.398,1.29-4.309,1.29-6.695
					S1030.515,560.584,1029.17,559.185z"/>
				<path fill="#AAA7A5" d="M1041.713,575.43v-17.342l-3.649,3.21v-2.25l3.649-3.155h1.976v19.537H1041.713z"/>
				<path fill="#AAA7A5" d="M1063.419,573.619c-1.18,1.18-2.908,1.811-4.939,1.811h-6.695v-19.537h6.695
					c2.031,0,3.759,0.631,4.939,1.811c2.031,2.031,1.921,5.021,1.921,7.738S1065.45,571.588,1063.419,573.619z M1061.964,559.185
					c-1.015-1.042-2.332-1.427-3.842-1.427h-4.252v15.805h4.252c1.51,0,2.827-0.384,3.842-1.426c1.344-1.398,1.29-4.309,1.29-6.695
					S1063.309,560.584,1061.964,559.185z"/>
				<path fill="#AAA7A5" d="M1069.294,575.43v-1.756l7.71-9.796c0.741-0.96,1.098-1.812,1.098-2.882
					c0-2.113-1.263-3.512-3.403-3.512c-1.811,0-3.403,1.015-3.403,3.539h-1.975c0-3.072,2.113-5.295,5.378-5.295
					c3.21,0,5.378,2.057,5.378,5.268c0,1.564-0.494,2.58-1.564,3.951l-6.833,8.727h8.396v1.756H1069.294z"/>
				<path fill="#AAA7A5" d="M1096.214,573.619c-1.18,1.18-2.908,1.811-4.939,1.811h-6.695v-19.537h6.695
					c2.031,0,3.759,0.631,4.939,1.811c2.03,2.031,1.921,5.021,1.921,7.738S1098.244,571.588,1096.214,573.619z M1094.759,559.185
					c-1.015-1.042-2.332-1.427-3.842-1.427h-4.252v15.805h4.252c1.51,0,2.827-0.384,3.842-1.426c1.344-1.398,1.29-4.309,1.29-6.695
					S1096.104,560.584,1094.759,559.185z"/>
				<path fill="#AAA7A5" d="M1111.061,572.329v3.101h-1.948v-3.101h-7.793v-1.784l7.052-14.652h2.113l-7.051,14.652h5.679v-5.542
					h1.948v5.542h2.388v1.784H1111.061z"/>
			</g>
			<rect x="898.271" y="455.854" fill="#F1F2F2" width="70.568" height="70.567"/>
			<rect x="898.271" y="385.283" fill="#FFFFFF" width="70.568" height="70.57"/>
			<rect x="898.271" y="526.421" fill="#D1D3D4" width="70.568" height="70.571"/>
			<polygon fill="#47413E" points="862.239,497.592 855.872,500.938 857.086,493.849 851.936,488.824 859.054,487.792 
				862.239,481.337 865.425,487.792 872.544,488.824 867.394,493.849 868.608,500.938 			"/>
		</g>
		<g>
			<g>
				<path fill="#7F7774" d="M446.616,493.006l-0.631,3.869h2.442v1.757h-2.716l-0.988,6.229h-2.031l0.988-6.229h-4.39l-0.96,6.229
					h-2.03l0.987-6.229h-2.442v-1.757h2.744l0.631-3.869h-2.524v-1.811h2.771l0.933-5.899h2.058l-0.96,5.899h4.363l0.933-5.899
					h2.003l-0.934,5.899h2.387v1.811H446.616z M440.223,493.006l-0.631,3.869h4.363l0.631-3.869H440.223z"/>
				<path fill="#7F7774" d="M456.799,504.86h-2.085l6.777-17.78h-6.804v3.072h-1.948v-4.828h10.838v1.756L456.799,504.86z"/>
				<path fill="#7F7774" d="M469.889,487.189v7.188h8.561v1.866h-8.561v8.616h-2.085v-19.536h12.128v1.865H469.889z"/>
				<path fill="#7F7774" d="M487.041,504.86h-2.085l6.777-17.78h-6.804v3.072h-1.948v-4.828h10.838v1.756L487.041,504.86z"/>
				<path fill="#7F7774" d="M501.366,504.86h-2.085l6.777-17.78h-6.805v3.072h-1.948v-4.828h10.838v1.756L501.366,504.86z"/>
				<path fill="#7F7774" d="M515.691,504.86h-2.085l6.777-17.78h-6.805v3.072h-1.948v-4.828h10.838v1.756L515.691,504.86z"/>
				<path fill="#7F7774" d="M534.708,501.76v3.101h-1.948v-3.101h-7.793v-1.783l7.053-14.652h2.112l-7.051,14.652h5.679v-5.543
					h1.948v5.543h2.388v1.783H534.708z"/>
			</g>
			<g>
				<path fill="#AAA7A5" d="M446.616,422.439l-0.631,3.867h2.442v1.756h-2.716l-0.988,6.229h-2.031l0.988-6.229h-4.39l-0.96,6.229
					h-2.03l0.987-6.229h-2.442v-1.756h2.744l0.631-3.867h-2.524v-1.812h2.771l0.933-5.899h2.058l-0.96,5.899h4.363l0.933-5.899
					h2.003l-0.934,5.899h2.387v1.812H446.616z M440.223,422.439l-0.631,3.867h4.363l0.631-3.867H440.223z"/>
				<path fill="#AAA7A5" d="M464.866,434.291l-1.564-4.418h-8.534l-1.564,4.418h-2.222l7.189-19.535h1.756l7.161,19.535H464.866z
					 M459.077,417.745l-3.677,10.317h7.299L459.077,417.745z"/>
				<path fill="#AAA7A5" d="M481.634,434.291l-1.564-4.418h-8.534l-1.564,4.418h-2.223l7.189-19.535h1.756l7.161,19.535H481.634z
					 M475.845,417.745l-3.677,10.317h7.299L475.845,417.745z"/>
				<path fill="#AAA7A5" d="M498.402,434.291l-1.564-4.418h-8.533l-1.564,4.418h-2.222l7.189-19.535h1.756l7.161,19.535H498.402z
					 M492.612,417.745l-3.677,10.317h7.299L492.612,417.745z"/>
				<path fill="#AAA7A5" d="M507.103,434.291h-2.086l6.777-17.779h-6.804v3.072h-1.948v-4.828h10.838v1.756L507.103,434.291z"/>
				<path fill="#AAA7A5" d="M529.495,434.291l-1.564-4.418h-8.534l-1.564,4.418h-2.223l7.189-19.535h1.756l7.161,19.535H529.495z
					 M523.705,417.745l-3.677,10.317h7.299L523.705,417.745z"/>
				<path fill="#AAA7A5" d="M543.163,433.029c-0.906,0.904-2.168,1.455-3.897,1.455c-1.701,0-3.073-0.551-3.923-1.4
					c-0.851-0.878-1.263-2.003-1.373-3.402h1.976c0.247,1.947,1.263,3.047,3.32,3.047c0.96,0,1.838-0.33,2.415-0.906
					c1.015-1.015,1.07-2.58,1.07-3.979c0-2.387-0.466-4.748-3.293-4.748c-1.701,0-2.854,0.77-3.237,1.922h-1.784v-10.262h9.879
					v1.756h-8.095v6.201c0.768-0.851,1.975-1.345,3.512-1.345c1.454,0,2.606,0.466,3.375,1.233c1.426,1.429,1.618,3.404,1.618,5.242
					C544.726,429.791,544.561,431.629,543.163,433.029z"/>
			</g>
			<g>
				<path fill="#AAA7A5" d="M446.616,563.576l-0.631,3.868h2.442v1.757h-2.716l-0.988,6.229h-2.031l0.988-6.229h-4.39l-0.96,6.229
					h-2.03l0.987-6.229h-2.442v-1.757h2.744l0.631-3.868h-2.524v-1.812h2.771l0.933-5.898h2.058l-0.96,5.898h4.363l0.933-5.898
					h2.003l-0.934,5.898h2.387v1.812H446.616z M440.223,563.576l-0.631,3.868h4.363l0.631-3.868H440.223z"/>
				<path fill="#AAA7A5" d="M461.491,572.329v3.101h-1.948v-3.101h-7.793v-1.784l7.052-14.652h2.113l-7.052,14.652h5.68v-5.542
					h1.948v5.542h2.388v1.784H461.491z"/>
				<path fill="#AAA7A5" d="M471.124,575.43h-2.085l6.777-17.781h-6.805v3.072h-1.948v-4.828h10.838v1.756L471.124,575.43z"/>
				<path fill="#AAA7A5" d="M490.141,572.329v3.101h-1.948v-3.101H480.4v-1.784l7.052-14.652h2.113l-7.052,14.652h5.68v-5.542h1.948
					v5.542h2.388v1.784H490.141z"/>
				<path fill="#AAA7A5" d="M500.708,575.43v-17.342l-3.65,3.21v-2.25l3.65-3.155h1.975v19.537H500.708z"/>
				<path fill="#AAA7A5" d="M514.84,575.622c-3.073,0-5.57-1.62-5.735-5.159h1.976c0.164,2.443,1.893,3.402,3.759,3.402
					c2.114,0,3.759-1.399,3.759-3.787c0-2.358-1.18-3.787-3.842-3.787h-0.411v-1.729h0.411c2.388,0,3.485-1.344,3.485-3.539
					c0-2.332-1.509-3.567-3.403-3.567c-2.058,0-3.319,1.263-3.512,3.265h-1.975c0.219-3.154,2.524-5.021,5.487-5.021
					c3.184,0,5.378,2.114,5.378,5.296c0,2.059-0.878,3.539-2.634,4.336c1.975,0.74,2.991,2.332,2.991,4.774
					C520.576,573.701,518.024,575.622,514.84,575.622z"/>
				<path fill="#AAA7A5" d="M525.104,575.43v-19.537h12.128v1.865H527.19v6.888h8.561v1.866h-8.561v7.051h10.042v1.867H525.104z"/>
			</g>
			<rect x="333.414" y="455.854" fill="#7F7774" width="70.569" height="70.567"/>
			<rect x="333.414" y="385.283" fill="#AAA7A5" width="70.569" height="70.57"/>
			<rect x="333.414" y="526.421" fill="#47413E" width="70.569" height="70.571"/>
			<polygon fill="#47413E" points="296.244,497.592 289.875,500.938 291.09,493.849 285.939,488.824 293.058,487.792 
				296.244,481.337 299.429,487.792 306.548,488.824 301.397,493.849 302.613,500.938 			"/>
		</g>
	</g>
</g>
<g id="Layer_3">
</g>
</svg>
