<?xml version="1.0" encoding="utf-8"?>
<!-- Generator: Adobe Illustrator 16.0.0, SVG Export Plug-In . SVG Version: 6.00 Build 0)  -->
<!DOCTYPE svg PUBLIC "-//W3C//DTD SVG 1.1//EN" "http://www.w3.org/Graphics/SVG/1.1/DTD/svg11.dtd">
<svg version="1.1" id="Layer_1" xmlns="http://www.w3.org/2000/svg" xmlns:xlink="http://www.w3.org/1999/xlink" x="0px" y="0px"
	 width="1400px" height="559.86px" viewBox="0 0 1400 559.86" enable-background="new 0 0 1400 559.86" xml:space="preserve">
<g>
	<g>
		<g>
			<g>
				<g>
					<path d="M557.644,498.314c-0.938,0.044-5.078,7.924-7.068,10.075c-1.992,2.149-14.956,14.556-8.036,19.545
						c6.926,4.997,14.387-13.882,15.479-17.177C559.112,507.464,559.459,498.236,557.644,498.314z"/>
					<path d="M532.802,532.746c-0.324-1.906,2.554-2.678,4.436-2.844c1.876-0.172,3.903,0.03,3.775,1.564
						c-0.13,1.537-2.63,4.496-3.855,4.336C535.671,535.606,533.142,534.747,532.802,532.746z"/>
				</g>
				<g>
					<path d="M554.047,495.793c0.282,0.894-5.812,7.635-7.069,10.068c-1.255,2.432-8.603,19.014-15.647,14.201
						c-7.054-4.813,6.607-17.356,10.61-20.238C545.941,496.947,553.505,494.06,554.047,495.793z"/>
					<path d="M530.114,530.858c1.902-0.342,1.648-3.311,1.169-5.139c-0.479-1.822-1.358-3.663-2.757-3.021
						c-1.399,0.65-3.339,4.008-2.766,5.102C526.452,529.137,528.117,531.219,530.114,530.858z"/>
				</g>
			</g>
			<g>
				<g>
					<path d="M507.576,506.542c-0.938,0.04-5.075,7.917-7.067,10.072c-1.99,2.144-14.954,14.552-8.03,19.543
						c6.922,4.995,14.385-13.884,15.476-17.174C509.05,515.688,509.395,506.46,507.576,506.542z"/>
					<path d="M482.737,540.968c-0.322-1.907,2.557-2.675,4.435-2.844c1.879-0.169,3.903,0.037,3.774,1.57
						c-0.127,1.53-2.624,4.497-3.853,4.334C485.606,543.828,483.079,542.972,482.737,540.968z"/>
				</g>
				<g>
					<path d="M503.98,504.018c0.282,0.9-5.81,7.639-7.065,10.069c-1.258,2.436-8.605,19.014-15.652,14.2
						c-7.051-4.811,6.609-17.355,10.613-20.237C495.876,505.171,503.438,502.284,503.98,504.018z"/>
					<path d="M480.051,539.086c1.902-0.344,1.646-3.315,1.168-5.142c-0.48-1.825-1.358-3.655-2.758-3.017
						c-1.397,0.643-3.338,4.005-2.77,5.1C476.385,537.358,478.052,539.446,480.051,539.086z"/>
				</g>
			</g>
		</g>
		<g>
			<g>
				<g>
					<path d="M623.919,403.879c-0.94,0.041-5.078,7.917-7.07,10.068c-1.987,2.152-14.954,14.556-8.03,19.548
						c6.92,4.997,14.384-13.881,15.477-17.174C625.39,413.023,625.738,403.801,623.919,403.879z"/>
					<path d="M599.079,438.308c-0.323-1.904,2.556-2.674,4.434-2.844c1.88-0.168,3.903,0.032,3.778,1.565
						c-0.134,1.533-2.625,4.5-3.856,4.336C601.948,441.168,599.419,440.312,599.079,438.308z"/>
				</g>
				<g>
					<path d="M620.324,401.352c0.279,0.903-5.811,7.642-7.069,10.075c-1.258,2.434-8.603,19.014-15.652,14.201
						c-7.052-4.813,6.61-17.36,10.615-20.241C612.219,402.509,619.78,399.622,620.324,401.352z"/>
					<path d="M596.392,436.42c1.901-0.342,1.644-3.311,1.166-5.136c-0.479-1.828-1.357-3.662-2.757-3.02
						c-1.398,0.643-3.337,4.001-2.767,5.102C592.726,434.699,594.393,436.784,596.392,436.42z"/>
				</g>
			</g>
			<g>
				<g>
					<path d="M573.854,412.104c-0.936,0.038-5.076,7.917-7.067,10.071c-1.991,2.147-14.955,14.552-8.032,19.547
						c6.921,4.995,14.382-13.881,15.476-17.178C575.323,421.25,575.672,412.025,573.854,412.104z"/>
					<path d="M549.013,446.533c-0.324-1.904,2.556-2.674,4.436-2.848c1.88-0.166,3.905,0.034,3.776,1.571
						c-0.133,1.531-2.629,4.497-3.855,4.331C551.881,449.396,549.354,448.534,549.013,446.533z"/>
				</g>
				<g>
					<path d="M570.256,409.58c0.284,0.897-5.809,7.636-7.065,10.072c-1.257,2.433-8.604,19.015-15.654,14.205
						c-7.049-4.813,6.616-17.364,10.617-20.24C562.152,410.738,569.714,407.846,570.256,409.58z"/>
					<path d="M546.325,444.646c1.9-0.338,1.646-3.308,1.169-5.136c-0.477-1.825-1.355-3.662-2.757-3.016
						c-1.401,0.643-3.336,4.001-2.768,5.098C542.66,442.924,544.332,445.006,546.325,444.646z"/>
				</g>
			</g>
		</g>
		<g>
			<g>
				<g>
					<path d="M690.194,309.445c-0.941,0.038-5.076,7.917-7.068,10.071c-1.99,2.147-14.953,14.552-8.034,19.547
						c6.922,4.996,14.383-13.881,15.479-17.176C691.663,318.592,692.012,309.364,690.194,309.445z"/>
					<path d="M665.353,343.874c-0.321-1.906,2.556-2.678,4.438-2.846c1.875-0.167,3.902,0.034,3.771,1.567
						c-0.128,1.536-2.626,4.499-3.854,4.333C668.222,346.733,665.692,345.874,665.353,343.874z"/>
				</g>
				<g>
					<path d="M686.6,306.917c0.281,0.899-5.811,7.638-7.069,10.072c-1.26,2.434-8.605,19.014-15.653,14.204
						c-7.049-4.816,6.611-17.361,10.613-20.237C678.491,308.075,686.058,305.186,686.6,306.917z"/>
					<path d="M662.667,341.989c1.898-0.345,1.644-3.314,1.167-5.143c-0.48-1.824-1.36-3.655-2.755-3.016
						c-1.4,0.639-3.335,4-2.771,5.098C659.002,340.261,660.666,342.347,662.667,341.989z"/>
				</g>
			</g>
			<g>
				<g>
					<path d="M640.132,317.667c-0.94,0.044-5.078,7.92-7.069,10.071c-1.987,2.151-14.956,14.556-8.032,19.547
						c6.922,4.995,14.381-13.878,15.476-17.173C641.603,326.816,641.944,317.585,640.132,317.667z"/>
					<path d="M615.291,352.099c-0.325-1.9,2.553-2.675,4.435-2.844c1.881-0.173,3.901,0.027,3.775,1.562
						c-0.131,1.536-2.628,4.499-3.855,4.339C618.157,354.958,615.632,354.099,615.291,352.099z"/>
				</g>
				<g>
					<path d="M636.535,315.146c0.278,0.896-5.812,7.635-7.066,10.065c-1.261,2.436-8.605,19.017-15.657,14.205
						c-7.052-4.81,6.614-17.36,10.615-20.234C628.428,316.3,635.991,313.409,636.535,315.146z"/>
					<path d="M612.604,350.214c1.898-0.345,1.643-3.314,1.165-5.14c-0.479-1.825-1.356-3.662-2.757-3.019
						c-1.4,0.643-3.338,3.997-2.769,5.098C608.939,348.486,610.605,350.571,612.604,350.214z"/>
				</g>
			</g>
		</g>
	</g>
	<g>
		<path d="M277.611,459.423c2.359,0,4.516,0.94,6.584,2.882c2.533,2.376,3.088,2.894,3.055,5.804
			c0.191,9.525-8.921,16.857-17.235,24.313c-8.553,7.662-12.64,11.62-12.629,16.132c-0.574,5.468,3.645,7.168,5.025,7.168
			c5.291,0,12.363-6.357,22.557-16.067c10.424-9.924,23.401-22.279,34.783-22.279c3.783,0,7.209,1.334,10.423,4.058l-1.672,1.634
			c-2.701-2.17-6.698-4.187-9.952-4.187c-9.618,0-19.738,9.357-32.55,21.558c-8.672,8.252-17.394,17.039-24.056,17.042
			c-1.824,0-3.14-0.007-4.651-1.349c-2.295-2.042-2.781-4.199-2.782-5.65c-0.015-5.883,6.899-12.084,14.908-19.266
			c7.948-7.121,16.164-14.486,16.237-20.974c0.025-2.273-0.967-4.318-3.037-6.258c-1.621-1.518-3.994-2.781-5.742-2.781
			c-5.811-0.512-17.38,13.414-17.38,13.414c-7.326,8.297-15.245,16.797-23.91,16.797c-0.268,0-4.809-0.188-7.236-1.881
			c-2.163-1.511-0.485-3.139,1.534-1.771c2.019,1.363,4.052,2.11,6.083,2.235c0.206,0.013,0.412,0.02,0.621,0.02
			c7.681,0,15.229-8.545,21.883-16.083l0.128-0.142c6.387-7.237,12.422-14.069,18.597-14.361
			C277.332,459.427,277.471,459.423,277.611,459.423 M277.611,457.119c-0.174,0-0.351,0.009-0.526,0.013
			c-7.146,0.335-13.492,7.525-20.214,15.135c-6.402,7.254-13.599,15.447-20.282,15.447c-0.162,0-0.322-0.007-0.483-0.016
			c-3.784-0.229-7.713-3.271-11.681-9.043l-5.698,3.913c5.31,7.727,10.857,11.658,16.961,12.031c0.324,0.02,0.642,0.032,0.958,0.032
			c9.753,0,17.683-9.04,25.407-17.789c5.474-6.198,11.135-12.604,15.358-12.803c0.066-0.005,0.134-0.005,0.204-0.005
			c0.779,0,1.924,0.226,3.429,1.637c2.095,1.963,2.32,3.533,2.31,4.549c-0.062,5.472-8.248,12.812-15.473,19.284
			c-8.418,7.548-15.689,14.07-15.677,20.984c0.006,1.922,0.625,4.766,3.556,7.368c2.02,1.796,4.192,2.577,6.491,2.577
			c7.583,0,16.537-8.525,25.889-17.43c12.525-11.929,22.805-20.892,31.404-20.892c3.232,0,6.228,1.266,9.014,4.123l4.949-4.828
			c-4.38-4.49-9.02-6.331-13.756-6.331c-12.311,0-25.321,12.395-36.381,22.923c-7.663,7.297-16.203,15.422-20.959,15.422
			c-0.801,0-1.491-0.229-2.056-0.732c-1.095-0.969-1.236-1.692-1.236-2.216c-0.01-3.819,7.103-10.195,13.378-15.82
			c8.69-7.789,17.671-15.84,17.768-24.357c0.041-3.584-1.471-6.836-4.496-9.67C283.289,458.297,280.55,457.119,277.611,457.119
			L277.611,457.119z"/>
		<g>
			<path d="M341.38,496.009c0,0-30.639-20.487-39.878-48.971c-2.75-8.481-4.446-13.992-11.751-22.332
				c-7.301-8.338-24.705-40.96-27.167-48.292c-2.461-7.331-1.642-28.333-0.06-29.343c1.578-1.012,2.239,5.243,3.482,15.023
				c1.241,9.784,12.215,27.809,13.515,30.543c1.303,2.728,14.944,26.509,21.701,24.191c6.759-2.316,13.717-9.883,12.122-16.208
				c-1.597-6.325-4.123-11.501-5.589-24.59c-1.469-13.084-2.154-31.569-0.793-34.664c1.359-3.095,4.797-10.081,10.693-10.955
				c5.896-0.875-4.234,3.818-2.696,17.196c1.536,13.376,2.734,35.096,5.402,39.621c2.673,4.527,9.366,7.117,14.577,4.581
				c5.208-2.54,15.736-3.666,16.034-8.94c0.299-5.274-0.371-15.198,1.344-21.741c1.71-6.554,11.685-19.162,13.984-19.742
				c2.302-0.581-10.101,19.368-8.495,30.587c1.606,11.212,3.198,16.32,12.261,15.869c9.061-0.448,17.613,4.045,17.889-0.918
				c0.276-4.964-1.875-11.071-1.23-12.153c0.646-1.08,6.212,9.026,7.581,13.379c1.169,3.721,1.006,5.208,5.224,7.378
				c4.217,2.169,7.373,2.556,13.227-3.333c5.856-5.895,0.271,5.916-0.951,7.139c-1.22,1.227-6.531,5.625-16.176,3.771
				c-9.64-1.847-31.248-9.239-51.645,0.493c-20.402,9.733-30.513,24.21-29.781,30.755c0.735,6.541,13.454,36.366,25.405,42.521
				c11.955,6.162,12.325,11.27,12.325,11.27S350.369,495.266,341.38,496.009z"/>
			<g>
				<path fill="#FFFFFF" d="M321.026,480.253c0.721,0.487,1.42,0.756,2.014,0.829c0.354,1.053,1.37,2.27,2.646,3.054
					c0.725,0.442,1.403,0.661,1.963,0.686c0.362,0.697,0.968,1.431,1.751,2.045c1.603,1.261,3.321,1.542,3.838,0.627
					c2.775-4.939,8.462-8.188,8.521-8.222c0.943-0.533,0.564-2.147-0.832-3.609c-0.927-0.972-2.068-1.624-3.011-1.807
					c-0.188-0.557-0.557-1.184-1.116-1.793c-0.521-0.571-1.129-1.042-1.729-1.376c-0.044-0.063-0.078-0.119-0.127-0.179
					c-0.814-1-1.922-1.762-2.905-2.085c-0.047-0.592-0.368-1.32-0.967-2.063c-0.74-0.922-1.731-1.644-2.654-2.013
					c0.028-0.609-0.271-1.408-0.927-2.233c-1.217-1.537-3.146-2.562-4.314-2.289c-0.403,0.091-10.425,5.798-10.65,6.189
					c-0.526,0.91-2.64,3.888-1.039,5.158c0.959,0.763,1.955,1.16,2.716,1.167c0.138,0.932,0.917,2.117,2.083,3.042
					c0.766,0.599,1.552,0.969,2.225,1.103C318.407,477.578,319.467,479.203,321.026,480.253z"/>
				<path d="M315.465,476.524c0.508,0.405,1.049,0.743,1.588,1.01c0.516,1.415,1.728,2.919,3.308,3.979
					c0.543,0.371,1.096,0.659,1.64,0.865c0.711,1.176,1.825,2.289,3.118,3.08c0.575,0.354,1.156,0.62,1.721,0.793
					c0.48,0.64,1.074,1.241,1.738,1.762c2.478,1.95,3.357,2.448,4.318,0.79c3.13-5.387,9.134-9.182,9.287-9.354
					c1.071-1.227,1.756-2.681-0.156-4.685c-0.886-0.938-1.962-1.684-3.029-2.138c-0.282-0.489-0.643-0.969-1.066-1.427
					c-0.558-0.607-1.202-1.153-1.888-1.596c-0.739-0.872-1.664-1.624-2.627-2.158c-0.247-0.604-0.621-1.225-1.103-1.824
					c-0.664-0.825-1.497-1.559-2.386-2.111c-0.226-0.693-0.625-1.414-1.183-2.117c-1.784-2.258-4.828-3.863-6.699-3.433
					c-0.387,0.087-5.337,2.217-12.144,8.66c-1.308,1.239-1.658,3.785,0.757,5.691c0.77,0.614,1.59,1.076,2.387,1.357
					C313.565,474.69,314.414,475.701,315.465,476.524z M320.406,477.638c0.604-2.65,7.005-8.514,10.207-8.833
					c2.304-0.226,0.964,1.146,0.323,1.438c-5.893,2.663-6.731,5.23-8.542,7.391C321.75,478.396,319.957,479.61,320.406,477.638z
					 M316.382,472.32c1.021-1.483,7.944-7.409,11.036-7.011c1.268,0.16,2.621,0.834,0.736,1.571
					c-3.203,1.26-7.187,3.832-9.314,6.052C316.337,475.543,314.996,474.345,316.382,472.32z M334.69,472.129
					c1.052-0.224,1.764,0.674,0.474,1.279c-4.161,1.966-7.173,5.118-8.576,7.876c-0.802,1.578-2.9,1.624-1.914-0.235
					C328.058,474.66,332.523,472.586,334.69,472.129z M339.609,476.875c-1.709,1.682-1.768,0.114-3.677,2.296
					c-0.893,1.016-4.665,6.13-5.185,6.629c-0.521,0.492-2.151,0.373-1.658-1.434c0.496-1.806,5.738-8.528,9.469-8.729
					C340.377,475.543,340.197,476.302,339.609,476.875z M311.66,468.664c1.382-2.233,8.839-7.826,11.849-7.896
					c1.09-0.021,2.942,1.016-0.061,1.793c-1.561,0.402-7.312,4.052-10.177,7.489C311.984,471.592,310.272,470.899,311.66,468.664z"
					/>
			</g>
		</g>
		<path fill="#FFFFFF" d="M202.442,500.44c0,0,30.635-20.485,39.877-48.97c2.75-8.48,4.445-13.99,11.745-22.331
			c7.305-8.341,24.708-40.958,27.169-48.292c2.465-7.332,1.642-28.333,0.062-29.343c-1.58-1.01-2.242,5.242-3.483,15.022
			c-1.243,9.78-12.217,27.81-13.517,30.541c-1.301,2.731-14.942,26.508-21.698,24.194c-6.76-2.316-13.719-9.882-12.126-16.207
			c1.599-6.325,4.129-11.502,5.591-24.59c1.469-13.084,2.154-31.569,0.796-34.664c-1.362-3.095-4.801-10.078-10.695-10.955
			c-5.897-0.879,4.236,3.818,2.698,17.194c-1.539,13.374-2.737,35.095-5.407,39.619c-2.67,4.527-9.361,7.121-14.574,4.584
			c-5.21-2.536-15.736-3.669-16.036-8.94c-0.297-5.274,0.367-15.199-1.34-21.746c-1.714-6.553-11.688-19.159-13.985-19.738
			c-2.301-0.58,10.102,19.368,8.497,30.588c-1.609,11.216-3.202,16.32-12.264,15.865c-9.061-0.444-17.611,4.049-17.889-0.915
			c-0.277-4.961,1.876-11.071,1.23-12.154c-0.643-1.078-6.21,9.031-7.582,13.383c-1.166,3.716-1.008,5.206-5.223,7.376
			c-4.217,2.169-7.373,2.556-13.229-3.337c-5.854-5.889-0.269,5.92,0.951,7.143c1.219,1.223,6.534,5.625,16.176,3.775
			c9.643-1.854,31.252-9.247,51.65,0.487c20.397,9.732,30.509,24.209,29.777,30.753c-0.736,6.545-13.458,36.37-25.409,42.525
			c-11.951,6.164-12.321,11.27-12.321,11.27S193.454,499.703,202.442,500.44z"/>
		<g>
			<path d="M211.919,496.226c0,0,30.638-20.485,39.879-48.969c2.752-8.478,4.445-13.99,11.746-22.328
				c7.307-8.34,24.705-40.96,27.168-48.288c2.465-7.334,1.642-28.339,0.062-29.349c-1.579-1.007-2.238,5.246-3.486,15.022
				c-1.239,9.783-12.21,27.813-13.51,30.544c-1.305,2.724-14.944,26.508-21.701,24.194c-6.758-2.317-13.719-9.887-12.122-16.208
				c1.596-6.327,4.122-11.501,5.588-24.592c1.468-13.082,2.153-31.569,0.793-34.664c-1.361-3.091-4.8-10.081-10.693-10.953
				c-5.896-0.877,4.237,3.82,2.698,17.196c-1.539,13.374-2.738,35.093-5.404,39.621c-2.673,4.525-9.367,7.115-14.575,4.579
				c-5.212-2.54-15.739-3.666-16.037-8.937c-0.298-5.275,0.368-15.199-1.341-21.746c-1.712-6.549-11.688-19.162-13.989-19.735
				c-2.297-0.586,10.106,19.362,8.498,30.582c-1.604,11.216-3.197,16.32-12.26,15.871c-9.062-0.452-17.613,4.048-17.89-0.921
				c-0.28-4.964,1.875-11.069,1.232-12.15c-0.649-1.079-6.213,9.027-7.583,13.379c-1.17,3.723-1.007,5.208-5.223,7.378
				c-4.219,2.169-7.375,2.552-13.23-3.336c-5.854-5.892-0.265,5.917,0.952,7.142c1.219,1.227,6.534,5.623,16.173,3.776
				c9.646-1.85,31.252-9.248,51.652,0.485c20.399,9.733,30.511,24.21,29.779,30.754c-0.734,6.544-13.455,36.367-25.408,42.525
				c-11.953,6.164-12.323,11.266-12.323,11.266S202.93,495.489,211.919,496.226z"/>
			<g>
				<path fill="#FFFFFF" d="M232.271,480.475c-0.722,0.487-1.424,0.753-2.01,0.829c-0.358,1.05-1.374,2.27-2.648,3.05
					c-0.728,0.442-1.406,0.665-1.963,0.688c-0.36,0.699-0.971,1.429-1.751,2.043c-1.603,1.264-3.32,1.547-3.842,0.628
					c-2.774-4.936-8.46-8.188-8.519-8.216c-0.94-0.539-0.564-2.151,0.83-3.615c0.926-0.975,2.072-1.623,3.012-1.803
					c0.186-0.561,0.556-1.188,1.116-1.796c0.521-0.574,1.13-1.038,1.73-1.376c0.042-0.057,0.075-0.12,0.126-0.175
					c0.817-1.001,1.923-1.762,2.907-2.086c0.045-0.593,0.363-1.324,0.964-2.063c0.743-0.922,1.733-1.646,2.657-2.016
					c-0.033-0.607,0.27-1.404,0.926-2.232c1.216-1.534,3.148-2.559,4.312-2.289c0.405,0.09,10.427,5.8,10.653,6.191
					c0.523,0.907,2.639,3.889,1.039,5.159c-0.962,0.759-1.958,1.16-2.718,1.166c-0.139,0.931-0.916,2.113-2.083,3.039
					c-0.763,0.599-1.552,0.972-2.228,1.107C234.893,477.798,233.826,479.425,232.271,480.475z"/>
				<path d="M240.251,473.894c0.8-0.282,1.616-0.746,2.388-1.358c2.415-1.909,2.067-4.456,0.755-5.691
					c-6.804-6.444-11.756-8.573-12.145-8.661c-1.868-0.432-4.911,1.176-6.698,3.433c-0.556,0.7-0.957,1.421-1.182,2.113
					c-0.89,0.556-1.722,1.289-2.386,2.114c-0.479,0.599-0.856,1.216-1.103,1.818c-0.961,0.54-1.886,1.292-2.628,2.161
					c-0.685,0.442-1.327,0.987-1.889,1.596c-0.422,0.46-0.779,0.94-1.064,1.429c-1.065,0.452-2.143,1.204-3.03,2.136
					c-1.914,2-1.229,3.46-0.152,4.687c0.15,0.17,6.155,3.963,9.282,9.351c0.963,1.662,1.844,1.163,4.322-0.788
					c0.662-0.521,1.255-1.126,1.734-1.766c0.562-0.175,1.147-0.439,1.723-0.793c1.295-0.786,2.405-1.9,3.119-3.075
					c0.544-0.208,1.098-0.499,1.642-0.859c1.58-1.069,2.79-2.571,3.305-3.982c0.542-0.272,1.08-0.611,1.591-1.012
					C238.881,475.923,239.73,474.907,240.251,473.894z M230.98,478.688c-1.813-2.157-2.365-5.107-8.257-7.772
					c-0.641-0.292-2.346-2.117-0.038-1.888c3.2,0.317,9.602,6.18,10.208,8.833C233.341,479.83,231.622,479.451,230.98,478.688z
					 M234.916,474.069c-1.066-2.182-6.015-5.258-9.217-6.515c-1.888-0.74-1.088-1.866,0.18-2.022
					c3.093-0.399,10.021,5.525,11.038,7.011C238.301,474.565,236.508,477.318,234.916,474.069z M228.625,481.272
					c1.159,1.753-1.114,2.643-1.916,1.069c-1.403-2.762-3.825-6.309-7.982-8.272c-1.29-0.607-1.173-1.943-0.12-1.718
					C220.776,472.809,224.636,475.228,228.625,481.272z M214.735,475.86c3.734,0.197,8.975,6.923,9.473,8.73
					c0.49,1.806-1.354,2.43-1.877,1.935c-0.519-0.496-0.542-2.785-1.433-3.8c-1.91-2.183-5.501-3.945-7.212-5.625
					C213.101,476.524,212.918,475.766,214.735,475.86z M239.623,469.567c-2.866-3.433-8.523-6.221-10.086-6.623
					c-2.999-0.777-0.837-1.979,0.25-1.956c3.013,0.072,10.471,5.663,11.854,7.898C243.028,471.12,240.91,471.113,239.623,469.567z"
					/>
			</g>
		</g>
		<path d="M214.849,480.215c0,0,4.817,2.744,5.04-3.023c0,0,5.345,1.443,4.042-3.743c0,0,5.355,2.769,4.744-3.308
			c0,0,6.193,0.281,4.322-4.472c0,0,4.615-1.001,2.59-4.465l7.492,6.591v2.733l-3.889,2.45l-1.298,2.734l-3.024,1.587l-1.729,2.733
			l-2.521,1.195l-1.943,3.349l-3.024,0.464l-1.728,2.989h-2.351L214.849,480.215z"/>
		<path d="M315.315,464.631c0.432,0,6.038,0.48,4.317,3.456c0,0,5.315,1.238,2.899,4.753c0,0,6.607-1.082,3.873,3.456
			c0,0,6.623-0.982,4.03,3.352c0,0,6.578-1.537,4.246,3.418l7.203-5.623l-1.587-3.317l-2.093-0.276l-1.652-2.455l-2.302-1.443
			l-3.025-3.167l-3.172-3.747l-4.317-4.036L315.315,464.631z"/>
	</g>
	<g>
		<g>
			<g>
				<path fill="#FFFFFF" d="M871.086,488.546c-1.363-0.154-7.105-11.219-6.734-15.045c2.174-22.321,11.092-37.3,11.092-37.3
					c-0.357-2.914-8.881,3.763-11.695,11.551c-2.818,7.795-9.504,23.429-12.811,23.643c-8.928,0.577-37.289-1.922-40.736-8.827
					c-2.186-4.375,5.691-10.52,12.615-16.277c33.172-27.59,34.066-41.01,34.496-42.936c1.201-5.406-3.068-17.579-3.068-17.579
					c-3.492,2.973,2.709,13.649-6.033,24.69c-8.738,11.041-17.303,17.983-17.643,16.232c-2.854-14.662-3.016-26.802-2.373-33.801
					c1.443-15.7,7.58-27.434,7.58-27.434c-2.166-3.424-14.924,15.967-15.34,28.186c-0.717,21.259,0.865,41.832,0.865,41.832
					s-17.938,16.243-19.742,15.881c-10.818-2.183-5.746-53.252,0.168-81.895c1.502-7.269,9.037-17.629,9.037-22.323
					c-1.613-1.454-12.781,11.909-14.51,17.228c-1.73,5.312-17.485,70.654-5.669,95.08c11.821,24.427,45.452,24.619,54.487,28.641
					c9.031,4.02,14.6,10.734,14.725,11.814c0.135,1.085-0.672,2.807-0.24,3.453c0.434,0.655,7.064,0.854,12.094-4.016
					c3.414-3.305,4.355-10.915,3.492-11.564C874.277,487.129,872.447,488.7,871.086,488.546z"/>
				<g>
					<path d="M876.117,486.483c-0.42-0.313-0.941-0.486-1.504-0.486c-0.742,0-1.438,0.282-2.113,0.548
						c-0.295,0.12-0.664,0.271-0.951,0.346c-1.602-1.784-5.857-10.405-5.58-13.229c2.105-21.664,10.584-36.708,11.09-37.656
						c0.5-0.95-1.115-2.126-2.389-2.126c-3.264,0-10.02,6.588-12.453,13.32c-4.02,11.143-9.49,21.908-11.387,22.576
						c-0.787,0.048-1.734,0.075-2.812,0.075c-12.887,0-33.959-3.195-36.367-8.009c-1.48-2.966,5.428-8.686,10.975-13.281l1.23-1.019
						c20.889-17.375,32.98-32.426,34.979-43.517c0.023-0.128,0.045-0.237,0.061-0.319c1.268-5.695-2.666-17.18-3.115-18.469
						c0,0-0.451-1.486-1.004-1.633c-0.551-0.147-3.787,4.058-3.279,8.689c0.498,4.552,0.443,10.849-4.557,17.164
						c-6.426,8.115-12.465,13.618-15.076,15.342c-3.066-16.693-2.352-28.467-2.047-31.754c1.391-15.17,7.264-26.504,7.549-27.081
						c0.281-0.575-0.217-1.365-0.217-1.365c-0.465-0.737-1.221-1.154-2.078-1.154c-4.85,0-15.879,18.927-16.256,30.148
						c-0.639,18.767,0.527,37.21,0.811,41.214c-7.518,6.782-15.969,13.9-18.033,14.882c-0.551-0.209-1.066-0.677-1.561-1.424
						c-6.34-9.585-2.08-52.484,3.287-78.467c0.691-3.343,2.781-7.47,4.807-11.458c2.285-4.513,4.471-11.595,4.264-11.912
						c-0.207-0.319-0.535-0.486-0.535-0.486c-0.383-0.342-0.871-0.523-1.41-0.523c-3.699,0-14.119,13.476-15.736,18.449
						c-2.139,6.575-17.618,71.419-5.582,96.297c9.359,19.337,32.064,24.087,45.631,26.922c4.113,0.86,7.666,1.6,9.654,2.487
						c8.24,3.666,13.121,9.406,13.777,10.651c-0.008,0.257-0.102,0.702-0.164,1.019c-0.205,0.979-0.438,2.095,0.182,3.022
						c0.33,0.496,0.982,1.06,3.102,1.06l0,0c3.143,0,7.807-1.263,11.477-4.815c3.299-3.193,4.424-9.389,4.27-11.841
						C877.01,488.005,876.867,487.045,876.117,486.483z M821.121,393.71c0.277-8.159,6.408-20.256,11.504-25.446
						c-1.961,4.936-6.275,14.835-7.189,24.769c-0.172,1.869,1.914,15.158-3.516,17.237
						C821.848,404.993,820.934,399.33,821.121,393.71z M790.585,459.454c-11.391-23.548,3.661-88.924,5.669-95.08
						c1.203-3.698,7.949-11.402,12.01-13.897c-0.758,1.902-2.662,4.195-3.785,6.418c-2.125,4.18-5.043,8.143-5.822,11.912
						c-5.406,26.173-10.382,73.154-1.762,86.483c8.936,13.803,9.342,18.537,9.342,18.537
						C800.416,472.747,793.557,465.591,790.585,459.454z M854.236,470.856c6.133-9.746,9.15-26.289,18.924-33.972
						C868.494,444.868,864.16,465.083,854.236,470.856z"/>
					<path d="M861.307,505.995c-1.902,0-3.029-0.418-3.654-1.356c-0.775-1.159-0.502-2.471-0.283-3.524
						c0.057-0.279,0.111-0.538,0.137-0.735c-0.939-1.514-5.719-6.792-13.367-10.193c-1.914-0.855-5.41-1.585-9.461-2.433
						c-13.742-2.87-36.646-7.656-46.152-27.297c-12.132-25.075,3.403-90.194,5.549-96.794c1.561-4.802,12.178-18.909,16.369-18.909
						c0.68,0,1.297,0.221,1.795,0.642c0.158,0.094,0.477,0.312,0.709,0.673c0.574,0.878-2.607,9.378-4.227,12.575
						c-2.002,3.941-4.072,8.018-4.75,11.291c-5.344,25.876-9.625,68.529-3.385,77.965c0.328,0.494,0.66,0.844,0.992,1.044
						c2.188-1.261,9.436-7.274,17.359-14.411c-0.293-4.238-1.422-22.374-0.789-40.959c0.367-10.937,11.281-30.793,16.922-30.793
						c1.09,0,2.053,0.534,2.643,1.462c0.072,0.117,0.684,1.132,0.252,2.014c-1.057,2.104-6.207,12.921-7.484,26.85
						c-0.289,3.126-0.992,14.42,1.852,30.54c2.801-2.117,8.229-7.205,14.084-14.603c4.859-6.137,4.914-12.136,4.416-16.678
						c-0.402-3.683,1.426-7.223,2.754-8.704c0.449-0.503,0.809-0.728,1.158-0.728l0.203,0.027c0.793,0.211,1.262,1.396,1.471,2.083
						c0.738,2.114,4.4,13.082,3.129,18.806l-0.055,0.29c-2.029,11.259-14.205,26.442-35.209,43.916l-1.234,1.02
						c-4.805,3.981-12.045,9.98-10.801,12.47c2.059,4.114,21.389,7.64,35.77,7.64c1.012,0,1.906-0.025,2.66-0.067
						c1.473-0.76,6.594-10.174,10.912-22.144c2.562-7.089,9.541-13.76,13.08-13.76c1.098,0,2.365,0.675,2.887,1.539
						c0.314,0.522,0.348,1.077,0.092,1.564c-2.166,3.982-9.135,18.048-11.016,37.408c-0.236,2.409,3.428,10.102,5.145,12.389
						c0.16-0.06,0.324-0.128,0.467-0.185c0.748-0.295,1.521-0.6,2.369-0.6c0.703,0,1.359,0.213,1.902,0.618
						c0.969,0.723,1.148,1.875,1.203,2.68c0.16,2.562-1.02,9.022-4.473,12.364C869.436,504.681,864.58,505.995,861.307,505.995z
						 M810.443,346.086c-3.086,0-13.449,12.91-15.102,17.989c-2.129,6.547-17.565,71.104-5.616,95.801
						c9.22,19.049,31.722,23.751,45.167,26.561c4.184,0.873,7.744,1.619,9.789,2.531c8.193,3.643,13.268,9.381,14.096,10.949
						l0.082,0.155l-0.006,0.176c-0.008,0.259-0.088,0.685-0.156,1.027c-0.207,1.005-0.4,1.93,0.062,2.625
						c0.139,0.208,0.51,0.764,2.547,0.764c3.012,0,7.488-1.217,11.014-4.63c2.998-2.901,4.225-8.82,4.068-11.319
						c-0.039-0.583-0.15-1.307-0.67-1.696c-0.756-0.565-1.857-0.292-2.922,0.127c-0.369,0.148-0.77,0.308-1.078,0.39l-0.395,0.104
						l-0.271-0.302c-1.602-1.785-6.059-10.566-5.748-13.741c1.906-19.61,8.977-33.877,11.098-37.781
						c0.078-0.143,0.113-0.207,0.012-0.373c-0.186-0.308-0.66-0.641-1.17-0.801l-1.508,2.581c-1.43,2.443-2.875,6.177-4.402,10.133
						c-3.445,8.904-7.732,19.987-14.762,24.078l-2.346,1.362l1.445-2.295c2.191-3.481,3.973-7.826,5.857-12.424
						c3.367-8.214,6.85-16.708,13.219-21.714l2.262-1.778c-0.113-0.023-0.229-0.037-0.34-0.037c-2.701,0-9.346,6.021-11.826,12.881
						c-3.756,10.414-9.391,22.132-11.791,22.978l-0.184,0.038c-0.797,0.047-1.758,0.075-2.852,0.075
						c-11.438,0-34.211-2.877-36.963-8.376c-1.715-3.437,5.109-9.091,11.129-14.081l1.248-1.034
						c20.76-17.268,32.775-32.178,34.748-43.118l0.053-0.285c1.232-5.549-2.637-16.89-3.082-18.167
						c-0.119-0.389-0.303-0.801-0.453-1.043c-0.84,0.838-2.941,4.134-2.537,7.807c0.482,4.42,0.52,11.06-4.699,17.649
						c-6.605,8.346-12.729,13.833-15.23,15.486l-0.842,0.554l-0.182-0.991c-3.092-16.839-2.355-28.701-2.057-31.936
						c1.303-14.168,6.547-25.185,7.586-27.25c0.096-0.195-0.016-0.557-0.152-0.783c-0.344-0.538-0.881-0.839-1.514-0.839
						c-4.121,0-15.205,18.099-15.59,29.505c-0.646,19.043,0.561,37.616,0.809,41.145l0.023,0.325l-0.242,0.218
						c-7.381,6.66-16,13.947-18.191,14.988l-0.258,0.123l-0.266-0.103c-0.689-0.262-1.307-0.811-1.881-1.678
						c-6.438-9.734-2.199-52.874,3.191-78.97c0.713-3.449,2.824-7.606,4.865-11.626c2.062-4.071,3.986-10.118,4.188-11.375
						c-0.07-0.066-0.143-0.112-0.174-0.127l-0.137-0.095C811.15,346.208,810.816,346.086,810.443,346.086z M870.914,439.887
						c-4.494,4.896-7.363,11.894-10.15,18.694c-1.438,3.502-2.811,6.857-4.365,9.829c5.221-4.809,8.766-13.976,11.691-21.538
						C869.055,444.374,869.988,441.962,870.914,439.887z M806.975,474.644l-0.861-0.16c-6.102-1.134-13.123-8.534-16.128-14.739
						c-11.592-23.965,3.866-90.156,5.634-95.578c1.223-3.755,8.002-11.618,12.297-14.257l1.713-1.055l-0.746,1.867
						c-0.439,1.106-1.209,2.28-2.023,3.523c-0.637,0.975-1.295,1.979-1.787,2.951c-0.67,1.32-1.42,2.623-2.146,3.882
						c-1.596,2.763-3.102,5.376-3.617,7.864c-5.609,27.159-10.078,73.27-1.854,85.986c8.922,13.783,9.428,18.642,9.445,18.843
						L806.975,474.644z M806.141,352.91c-3.818,3.304-8.334,8.848-9.252,11.671c-1.754,5.377-17.117,70.984-5.703,94.584
						c2.703,5.579,8.857,12.139,14.166,13.759c-0.561-1.983-2.496-7.198-9.016-17.271c-8.521-13.173-4.155-58.794,1.666-86.98
						c0.559-2.698,2.117-5.4,3.768-8.26c0.717-1.245,1.461-2.53,2.115-3.82c0.523-1.036,1.203-2.074,1.861-3.077
						C805.879,353.312,806.012,353.109,806.141,352.91z M821.268,411.234l-0.014-0.955c-0.031-2.218-0.209-4.47-0.398-6.855
						c-0.25-3.178-0.512-6.465-0.398-9.735c0.279-8.288,6.402-20.503,11.691-25.89l2.316-2.361l-1.82,4.566
						c-2.141,5.3-5.723,14.171-6.543,23.091c-0.027,0.296,0.02,1.075,0.074,1.977c0.281,4.527,0.861,13.954-4.018,15.821
						L821.268,411.234z M830.414,371.988c-4.26,5.93-8.406,15.258-8.625,21.746c-0.109,3.196,0.148,6.445,0.396,9.586
						c0.16,2.007,0.311,3.923,0.375,5.815c2.996-2.447,2.504-10.414,2.285-13.981c-0.066-1.074-0.111-1.783-0.072-2.182
						C825.494,385.145,828.271,377.413,830.414,371.988z"/>
				</g>
			</g>
			<g>
				<path fill="#FFFFFF" d="M910.762,488.546c1.369-0.154,7.107-11.219,6.74-15.045c-2.176-22.321-11.098-37.3-11.098-37.3
					c0.361-2.914,8.885,3.763,11.701,11.551c2.816,7.795,9.502,23.429,12.809,23.643c8.928,0.577,37.289-1.922,40.738-8.827
					c2.184-4.375-5.695-10.52-12.617-16.277c-33.172-27.59-34.064-41.01-34.496-42.936c-1.201-5.406,3.066-17.579,3.066-17.579
					c3.49,2.973-2.709,13.649,6.035,24.69c8.74,11.041,17.303,17.983,17.639,16.232c2.855-14.662,3.02-26.802,2.375-33.801
					c-1.443-15.7-7.578-27.434-7.578-27.434c2.168-3.424,14.926,15.967,15.34,28.186c0.715,21.259-0.865,41.832-0.865,41.832
					s17.936,16.243,19.742,15.881c10.82-2.183,5.746-53.252-0.17-81.895c-1.498-7.269-9.033-17.629-9.033-22.323
					c1.613-1.454,12.781,11.909,14.508,17.228c1.729,5.312,17.486,70.654,5.668,95.08c-11.822,24.427-45.451,24.619-54.486,28.641
					c-9.033,4.02-14.602,10.734-14.729,11.814c-0.131,1.085,0.678,2.807,0.244,3.453c-0.434,0.655-7.062,0.854-12.1-4.016
					c-3.408-3.305-4.354-10.915-3.488-11.564C907.576,487.129,909.402,488.7,910.762,488.546z"/>
				<g>
					<path d="M987.143,363.87c-1.619-4.973-11.312-17.836-15.113-18.288c-0.531-0.062-3.113-0.006-2.889,1.456
						c0.162,1.044,2.297,6.791,4.586,11.304c2.023,3.988,4.115,8.115,4.805,11.458c5.369,25.983,9.625,68.882,3.289,78.467
						c-0.494,0.747-1.01,1.214-1.561,1.424c-2.066-0.981-10.516-8.1-18.033-14.882c0.281-4.004,1.447-22.448,0.811-41.214
						c-0.379-11.222-11.408-30.148-16.256-30.148c-0.857,0-3.043,0.039-2.58,1.951c0.469,1.906,6.438,12.445,7.834,27.649
						c0.303,3.287,1.02,15.061-2.047,31.754c-2.613-1.725-8.656-7.228-15.076-15.342c-5-6.314-4.748-12.586-4.555-17.164
						c0.209-4.989-2.316-9.862-3.5-9.285c-1.184,0.571-5.168,15.003-3.9,20.698c0.014,0.082,0.035,0.191,0.057,0.319
						c1.998,11.09,14.094,26.142,34.986,43.517l1.227,1.019c5.545,4.596,12.455,10.315,10.975,13.281
						c-2.406,4.813-23.482,8.009-36.365,8.009c-1.08,0-2.027-0.027-2.73-0.063c-1.979-0.68-7.451-11.445-11.473-22.588
						c-2.432-6.732-9.188-13.32-12.453-13.32c-1.268,0-3.223,1.418-2.455,2.678c0.902,1.477,9.043,15.394,11.158,37.104
						c0.275,2.824-3.977,11.447-5.576,13.229c-0.287-0.075-0.66-0.226-0.955-0.346c-0.676-0.267-1.371-0.548-2.115-0.548
						c-0.561,0-1.082,0.172-1.504,0.486c-0.748,0.562-0.891,1.521-0.934,2.188c-0.156,2.452,0.973,8.648,4.268,11.841
						c3.674,3.553,8.34,4.815,11.479,4.815c2.121,0,2.773-0.564,3.1-1.06c0.621-0.928,0.389-2.043,0.184-3.022
						c-0.064-0.317-0.154-0.762-0.168-1.019c0.658-1.245,5.541-6.985,13.781-10.651c1.986-0.888,5.537-1.627,9.652-2.487
						c13.564-2.834,36.273-7.584,45.633-26.922C1004.762,435.289,989.279,370.444,987.143,363.87z M947.594,367.993
						c3.941,5.165,10.086,18.017,10.357,26.123c0.301,8.845-0.566,26.505-2.043,26.649c-1.475,0.147-2.018-25.283-2.254-27.866
						C952.744,383.03,949.561,372.94,947.594,367.993z M924.883,403.725c-0.779-7.588,0.902-12.19,1.986-15.881
						c-0.15,4.751,0.266,17.023,5.496,23.63c2.566,3.242,7.713,9.62,6.973,10.476C938.598,422.809,925.328,408.059,924.883,403.725z
						 M913.244,491.607c-0.594-0.577-0.52-1.825-0.092-3.433c1.17-4.411,5.008-11.526,5.008-14.884
						c0-10.693-7.281-29.772-10.016-35.324c2.309,1.87,6.072,6.993,7.312,10.421c1.236,3.426,11.523,26.382,9.947,31.396
						c-0.951,3.023-4.248,9.398-6.926,12.098C917.303,493.062,914.049,492.388,913.244,491.607z M988.346,441.607
						c-0.889,0.012,0.059-50.875-7.701-72.259c-1.312-3.615-2.48-7.369-4.6-11.545c-1.131-2.229-3.484-6.406-4.242-8.304
						c3.506,3.422,9.684,12.26,11.096,15.879C991.111,386.404,996.387,441.488,988.346,441.607z"/>
					<path d="M920.545,505.995c-3.271,0-8.127-1.314-11.939-5.003c-3.457-3.346-4.635-9.805-4.473-12.362
						c0.029-0.463,0.119-1.869,1.199-2.679c0.547-0.407,1.205-0.62,1.904-0.62c0.85,0,1.623,0.304,2.307,0.574
						c0.178,0.072,0.361,0.147,0.535,0.21c1.715-2.284,5.377-9.976,5.143-12.389c-2.107-21.622-10.154-35.328-11.064-36.82
						c-0.363-0.598-0.363-1.28,0-1.928c0.547-0.974,1.902-1.763,3.023-1.763c3.541,0,10.52,6.671,13.08,13.76
						c4.322,11.977,9.488,21.395,10.99,22.154c0.686,0.032,1.576,0.057,2.586,0.057c14.381,0,33.711-3.526,35.768-7.64
						c1.24-2.486-5.988-8.478-10.771-12.445l-1.26-1.045c-21.01-17.474-33.188-32.658-35.215-43.912l-0.059-0.325
						c-1.242-5.583,2.502-20.559,4.27-21.412c0.516-0.253,1.16-0.073,1.754,0.545c1.426,1.487,2.863,5.492,2.701,9.369
						c-0.189,4.468-0.445,10.587,4.412,16.722c5.848,7.392,11.279,12.484,14.082,14.603c2.842-16.101,2.143-27.409,1.855-30.54
						c-1.098-11.924-4.992-20.863-6.863-25.16c-0.508-1.168-0.844-1.939-0.955-2.393c-0.219-0.907,0.045-1.493,0.307-1.825
						c0.748-0.95,2.27-0.95,2.92-0.95c5.641,0,16.553,19.856,16.922,30.793c0.629,18.53-0.498,36.712-0.789,40.959
						c7.924,7.137,15.174,13.15,17.359,14.411c0.332-0.201,0.666-0.552,0.992-1.044c6.24-9.444,1.959-52.095-3.387-77.965
						c-0.672-3.253-2.742-7.336-4.744-11.283c-2.348-4.63-4.479-10.39-4.652-11.511c-0.076-0.494,0.049-0.946,0.361-1.311
						c0.719-0.839,2.223-0.928,2.836-0.928c0.184,0,0.332,0.008,0.428,0.021c4.312,0.511,14.139,14.041,15.67,18.741
						c2.145,6.6,17.68,71.721,5.549,96.794c-9.504,19.639-32.41,24.426-46.094,27.285c-4.096,0.856-7.604,1.589-9.52,2.442
						c-7.637,3.398-12.418,8.672-13.367,10.191c0.031,0.228,0.092,0.518,0.137,0.739c0.221,1.05,0.494,2.362-0.283,3.525
						C923.58,505.577,922.451,505.995,920.545,505.995z M907.236,486.664c-0.412,0-0.795,0.123-1.105,0.354
						c-0.525,0.396-0.633,1.157-0.666,1.696c-0.158,2.497,1.064,8.413,4.066,11.319c3.529,3.413,8.002,4.63,11.014,4.63
						c2.041,0,2.406-0.554,2.545-0.763c0.467-0.699,0.273-1.624,0.086-2.518c-0.072-0.349-0.166-0.837-0.182-1.12l-0.01-0.185
						l0.088-0.163c0.828-1.568,5.908-7.306,14.098-10.95c2.047-0.912,5.619-1.659,9.754-2.521
						c13.48-2.817,35.984-7.52,45.203-26.567c11.949-24.697-3.49-89.254-5.619-95.8c-1.689-5.191-11.26-17.44-14.555-17.832
						c-0.062-0.005-0.156-0.011-0.273-0.011c-0.828,0-1.594,0.195-1.824,0.464c-0.039,0.046-0.076,0.103-0.055,0.241
						c0.141,0.913,2.232,6.593,4.52,11.103c2.045,4.033,4.158,8.197,4.865,11.624c5.391,26.092,9.631,69.228,3.191,78.97
						c-0.576,0.868-1.191,1.416-1.881,1.678l-0.266,0.103l-0.258-0.123c-2.191-1.041-10.811-8.328-18.191-14.988l-0.242-0.218
						l0.023-0.325c0.248-3.541,1.453-22.161,0.809-41.145c-0.385-11.406-11.471-29.505-15.59-29.505
						c-0.504,0-0.912,0.038-1.225,0.109l2.568,3.366c4.094,5.366,10.217,18.359,10.492,26.506c0.01,0.269,0.312,27.046-2.643,27.334
						c-0.002,0-0.006,0-0.008,0c-1.232,0-1.879-1.086-2.758-23.602c-0.092-2.395-0.166-4.284-0.219-4.867
						c-0.848-9.208-3.771-19.072-6.016-24.721l-1.578-3.972c-0.23,0.07-0.393,0.167-0.488,0.288
						c-0.041,0.054-0.17,0.218-0.059,0.685c0.084,0.34,0.436,1.151,0.883,2.175c1.9,4.36,5.852,13.431,6.969,25.57
						c0.299,3.241,1.031,15.12-2.059,31.936l-0.182,0.991l-0.842-0.554c-2.506-1.656-8.631-7.145-15.229-15.486
						c-5.166-6.523-4.896-12.929-4.699-17.606c0.148-3.561-1.139-6.748-2.037-8.038l-0.117,3.639
						c-0.086,2.637-0.225,16.155,5.352,23.194l0.473,0.596c6.4,8.069,7.262,9.827,6.482,10.729l-0.199,0.23l-0.398,0.037
						c-1.52,0-7.387-6.993-8.051-7.791c-2.004-2.402-6.689-8.294-6.975-11.067c-0.727-7.057,0.627-11.546,1.715-15.152l1.414-4.793
						c-0.078-0.081-0.15-0.141-0.215-0.18c-1.104,1.59-4.713,14.567-3.527,19.895l0.049,0.261
						c1.986,11.026,14.002,25.936,34.771,43.206l1.225,1.019c6.045,5.01,12.859,10.66,11.145,14.093
						c-2.75,5.5-25.523,8.376-36.961,8.376c-1.092,0-2.051-0.028-2.766-0.062l-0.184-0.037c-2.447-0.841-8.119-12.569-11.881-22.993
						c-2.479-6.859-9.123-12.88-11.826-12.88c-0.643,0-1.547,0.528-1.859,1.084c-0.162,0.288-0.1,0.462-0.025,0.582
						c0.926,1.518,9.115,15.469,11.254,37.386c0.309,3.18-4.146,11.958-5.746,13.739l-0.271,0.302l-0.395-0.104
						c-0.311-0.083-0.717-0.243-1.035-0.372C908.428,486.897,907.832,486.664,907.236,486.664z M926.256,392.444
						c-0.703,2.903-1.199,6.459-0.709,11.212c0.338,3.302,9.262,13.771,12.678,16.841c-1.266-2.162-4.51-6.25-5.908-8.013
						l-0.475-0.597C927.643,406.585,926.521,397.93,926.256,392.444z M950.164,373.254c1.781,5.604,3.525,12.77,4.154,19.583
						c0.057,0.619,0.127,2.43,0.225,4.936c0.217,5.572,0.689,17.718,1.414,21.461c0.891-3.727,1.619-16.509,1.328-25.097
						C957.084,388.139,953.582,379.396,950.164,373.254z M916.422,493.186c-1.428,0-2.994-0.472-3.643-1.1
						c-0.967-0.941-0.617-2.781-0.271-4.083c0.484-1.826,1.422-4.117,2.326-6.334c1.307-3.199,2.658-6.511,2.658-8.379
						c0-10.425-7.113-29.282-9.945-35.028l-1.342-2.723l2.359,1.911c2.334,1.89,6.209,7.088,7.52,10.71
						c0.221,0.617,0.738,1.869,1.428,3.533c5.139,12.442,9.727,24.48,8.527,28.291c-0.959,3.045-4.273,9.529-7.088,12.366
						C918.406,492.897,917.533,493.186,916.422,493.186z M910.342,441.242c3.326,7.965,8.486,23.047,8.486,32.047
						c0,2.129-1.34,5.412-2.76,8.884c-0.889,2.177-1.809,4.427-2.271,6.171c-0.547,2.059-0.242,2.633-0.088,2.785
						c0.311,0.302,1.496,0.724,2.713,0.724c0.727,0,1.305-0.162,1.584-0.443c2.582-2.602,5.832-8.873,6.762-11.828
						c1.219-3.873-5.584-20.345-8.49-27.379c-0.697-1.691-1.223-2.966-1.447-3.59C914.035,446.419,912.156,443.492,910.342,441.242z
						 M988.35,442.273c-0.883,0-0.885-0.028-1.18-9.645c-0.475-15.375-1.459-47.364-7.152-63.054
						c-0.252-0.694-0.498-1.394-0.748-2.101c-1.045-2.964-2.127-6.033-3.82-9.371c-0.371-0.733-0.875-1.674-1.408-2.676
						c-1.096-2.05-2.334-4.374-2.859-5.68l-1.172-2.927l2.258,2.202c3.592,3.504,9.797,12.389,11.254,16.113
						c7.34,18.803,12.838,67.212,7.131,75.699c-0.633,0.942-1.404,1.427-2.295,1.439
						C988.354,442.273,988.352,442.273,988.35,442.273z M974.721,353.87c0.166,0.312,0.334,0.623,0.496,0.929
						c0.541,1.012,1.049,1.964,1.422,2.703c1.732,3.414,2.83,6.523,3.889,9.53c0.248,0.702,0.492,1.398,0.742,2.088
						c5.768,15.892,6.758,48.026,7.232,63.469c0.113,3.682,0.215,6.943,0.338,8.213c0.201-0.114,0.445-0.323,0.705-0.711
						c5.029-7.482,0.412-54.808-7.266-74.47C981.289,363.089,977.852,357.858,974.721,353.87z"/>
				</g>
			</g>
		</g>
		<path fill="#FFFFFF" d="M853.646,388.114c-1.127,2.075,0.104,7.55-0.381,12.226c-0.539,5.233-6.539,11.146-6.111,11.595
			c0.428,0.451,7.84-5.59,8.377-9.2C856.072,399.123,854.305,387.734,853.646,388.114z"/>
		<g>
			<polygon points="909.994,494.401 918.27,481.727 913.877,493.861 920.102,482.944 915.672,496.116 			"/>
			<path d="M916.098,496.941l-7.148-2.159l11.904-18.229l-3.697,10.211l2.365-4.152l1.213,0.544L916.098,496.941z M911.039,494.02
				l4.209,1.271l2.035-6.057l-2.826,4.958l-1.207-0.557l2.439-6.734L911.039,494.02z"/>
		</g>
		<g>
			<polygon points="924.342,469.952 916.941,457.047 923.443,464.265 			"/>
			<path d="M925.566,473.426l-12.312-21.467l10.818,12.007L925.566,473.426z M920.627,462.134l2.492,4.344l-0.303-1.914
				L920.627,462.134z"/>
		</g>
		<g>
			<polygon points="927.568,391.544 926.688,401.763 925.404,390.867 926.482,387.145 927.568,387.145 			"/>
			<path d="M926.789,408.333l-2.062-17.521l1.254-4.333h2.256v5.065L926.789,408.333z M926.082,390.923l0.502,4.271l0.32-3.708
				l-0.002-3.396L926.082,390.923z"/>
		</g>
		<g>
			<polygon points="940.494,424.164 933.322,414.685 941.713,420.912 			"/>
			<path d="M940.693,425.533l-10.709-14.158l12.527,9.3L940.693,425.533z M936.662,417.994l3.633,4.801l0.617-1.646L936.662,417.994
				z"/>
		</g>
		<g>
			<polygon points="954.162,423.075 955.652,404.266 957.41,422.398 			"/>
			<path d="M953.426,423.91l1.561-19.698l1.33-0.011l1.814,18.728L953.426,423.91z M955.719,411.864l-0.822,10.378l1.793-0.374
				L955.719,411.864z"/>
		</g>
		<g>
			<polygon points="984.84,366.234 984.219,394.454 986.777,368.808 			"/>
			<path d="M984.881,394.52l-1.33-0.08l0.664-30.143l3.254,4.318L984.881,394.52z M985.463,368.17l-0.199,9.105l0.826-8.274
				L985.463,368.17z"/>
		</g>
		<g>
			<polygon points="795.955,445.229 789.904,411.959 793.424,445.229 			"/>
			<path d="M796.754,445.895h-3.93l-3.583-33.865l1.32-0.189L796.754,445.895z M794.023,444.562h1.131l-2.703-14.877
				L794.023,444.562z"/>
		</g>
		<g>
			<polygon points="790.808,383.965 795.955,373.139 789.049,395.471 			"/>
			<path d="M789.686,395.668l-1.296-0.299l1.815-11.691l5.146-10.826l1.24,0.484L789.686,395.668z M791.452,384.164l-0.387,2.528
				l1.517-4.908L791.452,384.164z"/>
		</g>
		<g>
			<polygon points="827.35,392.625 823.525,381.529 825.436,394.454 			"/>
			<path d="M824.965,395.826l-2.1-14.2l1.291-0.314l3.963,11.501L824.965,395.826z M825.236,388.541l0.672,4.541l0.672-0.642
				L825.236,388.541z"/>
		</g>
		<g>
			<polygon points="871.018,437.832 865.062,450.822 873.725,439.453 874.809,435.847 			"/>
			<path d="M861.955,456l8.551-18.653l5.396-2.827l-1.646,5.336L861.955,456z M871.527,438.316l-3.357,7.328l4.951-6.498
				l0.594-1.973L871.527,438.316z"/>
		</g>
		<g>
			<polygon points="805.83,471.396 792.296,458.809 803.527,475.317 809.076,477.08 			"/>
			<path d="M810.504,478.232l-7.398-2.348l-14.691-21.595l17.994,16.776L810.504,478.232z M803.949,474.752l3.701,1.175l-2.35-4.114
				l-9.125-8.485L803.949,474.752z"/>
		</g>
		<g>
			<polygon points="957.41,382.79 955.785,397.229 955.785,379.545 			"/>
			<path d="M956.447,397.305l-1.328-0.075v-20.507l2.975,5.945L956.447,397.305z M956.453,382.366v2.972l0.273-2.426
				L956.453,382.366z"/>
		</g>
		<g>
			<polygon points="806.381,472.357 797.572,459.891 807.592,467.943 			"/>
			<path d="M806.648,473.894l-12.363-17.499l14.066,11.301L806.648,473.894z M800.859,463.387l5.25,7.434l0.723-2.632
				L800.859,463.387z"/>
		</g>
		<g>
			<polygon points="821.527,411.959 823.525,398.988 824.373,412.659 			"/>
			<path d="M825.094,413.523l-4.316-1.062l3.031-19.692L825.094,413.523z M822.279,411.458l1.371,0.337l-0.408-6.588
				L822.279,411.458z"/>
		</g>
		<g>
			<polygon points="988.131,443.786 989.756,422.271 991.922,443.109 			"/>
			<path d="M987.402,444.593l1.689-22.373l1.326-0.019l2.232,21.455L987.402,444.593z M989.859,429.731l-0.998,13.248l2.334-0.417
				L989.859,429.731z"/>
		</g>
	</g>
	<g>
		<g>
			<path fill="#FFFFFF" d="M1258.18,428.919l-95.537-0.041c0,0-12.383,71.953,47.094,91.496l0.639,0.179l0.639-0.179
				C1270.508,500.884,1258.18,428.919,1258.18,428.919z"/>
			<path d="M1210.377,523.811l-1.484-0.415c-61.473-20.197-49.471-94.304-49.342-95.049l0.449-2.608l100.826,0.044l0.445,2.605
				c0.129,0.746,12.076,74.865-49.281,94.967L1210.377,523.811z M1165.387,432.016c-0.637,5.624-1.652,19.616,1.607,34.812
				c5.516,25.718,20.111,42.691,43.387,50.455c23.225-7.685,37.875-24.66,43.42-50.417c3.27-15.195,2.266-29.186,1.631-34.811
				L1165.387,432.016z"/>
		</g>
		<path d="M1210.381,513.102l-0.559-0.214c-40.086-15.281-42.475-57.961-41.643-75.601l0.07-1.497l84.287,0.046l0.062,1.502
			c0.748,17.661-1.818,60.378-41.66,75.55L1210.381,513.102z M1171.25,438.929c-1.697,47.364,23.453,64.66,39.131,70.812
			c15.584-6.111,40.613-23.343,39.141-70.77L1171.25,438.929z"/>
		<g>
			<path d="M1233.705,419.881h-46.617l-7.357,47.581c0,0,7.975,24.097,30.666,24.097c22.688,0,30.664-24.097,30.664-24.097
				L1233.705,419.881z"/>
			<path d="M1210.396,492.225c-22.908,0-31.219-24.308-31.299-24.553l-0.051-0.154l7.469-48.302h47.76l7.469,48.302l-0.051,0.154
				C1241.613,467.917,1233.301,492.225,1210.396,492.225z M1180.414,467.399c0.719,1.997,8.961,23.493,29.982,23.493
				c21.02,0,29.262-21.496,29.98-23.493l-7.244-46.851h-45.475L1180.414,467.399z"/>
		</g>
		<polygon fill="#FFFFFF" points="1199.746,446.008 1195.785,458.907 1199.746,458.907 1201.457,468.155 1205.244,465.003 
			1209.301,474.457 1214.285,463.737 1218.848,468.995 1218.848,458.062 1225.004,460.23 1218.832,446.008 		"/>
		<g>
			<path d="M1210.393,391.088c-9.609,0-18.889,5.933-18.889,5.933c-3.615,1.201-4.023,15.276-3.615,16.361
				c0.398,1.098-1.609,10.57-1.609,10.57l3.615,7.695c0,0,6.77,14.11,14.531,18.623c1.475,0.849,10.492,0.836,11.98-0.035
				c7.754-4.533,14.488-18.587,14.488-18.587l3.617-7.695c0,0-2.012-9.472-1.609-10.57c0.404-1.085,0-15.161-3.615-16.361
				C1229.287,397.021,1220.006,391.088,1210.393,391.088z"/>
			<path d="M1210.305,451.564c-1.166,0-5.057-0.053-6.213-0.717c-7.85-4.565-14.52-18.329-14.799-18.912l-3.713-7.901l0.047-0.22
				c0.943-4.451,1.811-9.49,1.629-10.219c-0.383-1.022-0.145-10.653,1.908-14.941c0.566-1.189,1.256-1.939,2.047-2.238
				c0.92-0.577,9.807-5.996,19.182-5.996c9.379,0,18.268,5.419,19.188,5.996c0.789,0.296,1.477,1.046,2.043,2.229
				c2.053,4.285,2.293,13.924,1.904,14.97c-0.176,0.708,0.691,5.747,1.635,10.198l0.047,0.22l-3.711,7.897
				c-0.281,0.586-6.914,14.295-14.756,18.879C1215.547,451.51,1211.512,451.564,1210.305,451.564z M1186.977,423.871l3.521,7.492
				c0.064,0.135,6.771,13.974,14.262,18.33c0.463,0.266,2.518,0.538,5.545,0.538c3.109,0,5.291-0.294,5.764-0.572
				c7.488-4.377,14.158-18.161,14.225-18.3l3.52-7.488c-0.637-3.017-1.949-9.594-1.537-10.718
				c0.439-1.516-0.326-14.545-3.199-15.499l-0.148-0.073c-0.092-0.058-9.236-5.827-18.535-5.827c-9.295,0-18.439,5.769-18.529,5.827
				l-0.148,0.073c-2.879,0.954-3.643,13.982-3.199,15.505C1188.924,414.279,1187.613,420.854,1186.977,423.871z"/>
		</g>
		<path fill="#FFFFFF" d="M1210.396,443.01c-3.873,0-9.555-3.875-9.555-3.875v-2.79l4.652,2.534v-2.261l-2.07-1.87v-3.097
			c0,0,3.965-1.311,6.973-1.311c3.006,0,6.965,1.311,6.965,1.311v3.097l-2.061,1.986v2.145l4.646-2.534v2.79
			C1219.947,439.134,1214.266,443.01,1210.396,443.01"/>
		<g>
			<path fill="#FFFFFF" d="M1194.371,412.751c0.348-1.038,7.637,0.875,8.943,6.768c0,0-3.057,1.523-7.199,0
				C1191.975,417.988,1193.277,416.029,1194.371,412.751z"/>
			<path fill="#FFFFFF" d="M1226.414,412.751c-0.338-1.038-7.629,0.875-8.938,6.768c0,0,3.057,1.523,7.197,0
				C1228.816,417.988,1227.506,416.029,1226.414,412.751z"/>
		</g>
		<g>
			<g>
				<path d="M1190.141,415.051c0,0-28.916,5.597-30.633-21.244l32.697,12.395L1190.141,415.051z"/>
				<path d="M1184.059,416.202c-8.885,0-23.971-2.904-25.217-22.354l-0.064-1.033l34.209,12.968l-2.293,9.839l-0.424,0.082
					C1190.164,415.725,1187.66,416.202,1184.059,416.202z M1160.256,394.804c1.639,17.427,15.547,20.064,23.803,20.064
					c2.631,0,4.688-0.27,5.535-0.401l1.83-7.849L1160.256,394.804z"/>
			</g>
			<g>
				<path d="M1230.645,415.051c0,0,28.914,5.597,30.635-21.244l-32.701,12.395L1230.645,415.051z"/>
				<path d="M1236.729,416.202c-3.604,0-6.105-0.478-6.211-0.497l-0.424-0.082l-2.297-9.839l34.215-12.968l-0.066,1.033
					C1260.699,413.298,1245.611,416.202,1236.729,416.202z M1231.193,414.467c0.848,0.131,2.904,0.401,5.535,0.401
					c8.252,0,22.164-2.637,23.805-20.064l-31.174,11.814L1231.193,414.467z"/>
			</g>
		</g>
		<g>
			<g>
				<path d="M1199.314,395.929c0,0-3.557-6.879-3.959-8.604c-0.404-1.715,0.143-15.897,3.959-25.191l-5.393,3.982
					c0,0-4.227,17.083-5.211,19.148c-0.984,2.061-20.605-1.031-27.486-8.946c0,0,18.326-10.739,30.973-29.608l0.143-10.046
					c0,0-6.553,13.175-15.531,20.826l0.672-14.273l-2.92,3.524l-2.582,15.393l-13.77,9.987c0,0-9.977-19.971,4.734-58.455
					l-5.85,5.165c0,0-13.684,32.977-3.414,60.978c0,0,13.824,11.279,33.621,13.998c0,0,4.896,3.932,6.621,7.507
					C1193.922,401.313,1196.434,400.755,1199.314,395.929z"/>
				<path d="M1193.551,402.078l-0.229-0.475c-1.48-3.066-5.5-6.497-6.301-7.162c-19.654-2.76-33.623-14.002-33.764-14.115
					l-0.143-0.116l-0.062-0.172c-10.24-27.922,3.287-61.13,3.424-61.462l0.176-0.245l7.881-6.958l-0.967,2.533
					c-12.883,33.698-6.621,53.264-5.072,57.185l12.873-9.336l2.566-15.3l4.307-5.2l-0.691,14.686
					c8.176-7.581,14.131-19.449,14.193-19.572l1.307-2.625l-0.188,13.174l-0.109,0.165c-11.189,16.693-26.988,27.182-30.488,29.38
					c5.645,5.753,18.352,8.758,23.846,8.755c1.693,0,2.031-0.289,2.033-0.291c0.75-1.594,3.961-14.238,5.133-18.972l0.057-0.232
					l7.504-5.543l-0.906,2.208c-3.711,9.042-4.316,23.121-3.924,24.784c0.314,1.352,2.922,6.559,3.9,8.452l0.17,0.329l-0.189,0.318
					c-2.994,5.016-5.707,5.667-5.82,5.692L1193.551,402.078z M1154.242,379.403c1.502,1.174,14.824,11.228,33.148,13.743
					l0.184,0.025l0.143,0.115c0.195,0.156,4.561,3.685,6.516,7.181c0.779-0.398,2.445-1.537,4.318-4.565
					c-0.729-1.42-3.477-6.847-3.844-8.427c-0.428-1.805,0.078-14.243,3.199-23.475l-3.395,2.509
					c-0.533,2.143-4.25,17.048-5.199,19.042c-0.33,0.692-1.318,1.001-3.203,1.001c-0.002,0-0.002,0-0.002,0
					c-6.055,0-19.713-3.273-25.387-9.796l-0.525-0.606l0.691-0.406c0.182-0.107,18.24-10.825,30.646-29.242l0.102-7.124
					c-2.365,4.204-7.74,12.95-14.395,18.62l-1.172,0.997l0.652-13.816l-1.531,1.849l-2.598,15.485l-14.629,10.61l-0.35-0.705
					c-0.404-0.807-9.525-19.811,3.777-56.49l-3.738,3.298C1156.709,321.594,1144.635,352.931,1154.242,379.403z"/>
			</g>
			<g>
				<path d="M1221.477,395.929c0,0,3.559-6.879,3.961-8.604c0.4-1.715-0.15-15.897-3.961-25.191l5.393,3.982
					c0,0,4.229,17.083,5.211,19.148c0.984,2.061,20.604-1.031,27.486-8.946c0,0-18.328-10.739-30.979-29.608l-0.135-10.046
					c0,0,6.549,13.175,15.531,20.826l-0.68-14.273l2.926,3.524l2.582,15.393l13.771,9.987c0,0,9.977-19.971-4.74-58.455l5.854,5.165
					c0,0,13.68,32.977,3.416,60.978c0,0-13.826,11.279-33.623,13.998c0,0-4.902,3.932-6.621,7.507
					C1226.869,401.313,1224.357,400.755,1221.477,395.929z"/>
				<path d="M1227.24,402.078l-0.516-0.115c-0.113-0.025-2.824-0.677-5.82-5.692l-0.191-0.318l0.172-0.329
					c0.979-1.894,3.588-7.102,3.902-8.449c0.389-1.669-0.223-15.75-3.928-24.789l-0.904-2.204l7.504,5.541l0.059,0.232
					c1.17,4.729,4.377,17.357,5.164,19.02c-0.01-0.022,0.357,0.245,2.002,0.243c5.49,0,18.197-3.003,23.842-8.755
					c-3.498-2.199-19.301-12.688-30.492-29.38l-0.109-0.165l-0.178-13.17l1.305,2.621c0.061,0.123,6.02,11.995,14.193,19.57
					l-0.701-14.682l4.314,5.199l2.566,15.3l12.875,9.336c1.549-3.921,7.811-23.486-5.076-57.185l-0.969-2.53l8.059,7.2
					c0.137,0.332,13.662,33.54,3.428,61.462l-0.064,0.172l-0.141,0.116c-0.141,0.113-14.113,11.355-33.766,14.115
					c-0.803,0.665-4.826,4.095-6.299,7.16L1227.24,402.078z M1222.24,395.902c1.871,3.028,3.539,4.167,4.316,4.565
					c1.951-3.497,6.322-7.025,6.518-7.181l0.143-0.115l0.184-0.025c18.32-2.516,31.648-12.569,33.15-13.743
					c9.604-26.483-2.471-57.812-3.414-60.177l-3.74-3.298c13.309,36.68,4.188,55.683,3.783,56.49l-0.352,0.705l-14.629-10.61
					l-2.598-15.485l-1.537-1.85l0.66,13.817l-1.172-0.997c-6.658-5.671-12.033-14.421-14.396-18.623l0.096,7.127
					c12.418,18.429,30.471,29.134,30.652,29.242l0.693,0.406l-0.527,0.606c-5.674,6.522-19.334,9.796-25.387,9.796
					c-1.887,0-2.875-0.309-3.205-1.001c-0.949-1.994-4.668-16.899-5.199-19.042l-3.398-2.51c3.117,9.228,3.627,21.668,3.205,23.478
					C1225.717,389.058,1222.967,394.482,1222.24,395.902z"/>
			</g>
		</g>
	</g>
</g>
<g>
	<path d="M1041.033,150.487l-12.58-6.851v-14.01l12.58-6.852l12.572,6.853v14.006L1041.033,150.487z M1034.727,139.908l6.307,3.434
		l6.299-3.432v-6.557l-6.299-3.432l-6.307,3.435V139.908z"/>
	<g>
		<rect x="1037.867" y="56.963" width="6.275" height="70.706"/>
		<rect x="1037.867" y="145.592" width="6.275" height="70.708"/>
		<rect x="967.277" y="111.338" transform="matrix(0.866 0.5 -0.5 0.866 191.5552 -485.9663)" width="70.709" height="6.275"/>
		
			<rect x="1044.039" y="155.651" transform="matrix(0.866 0.5001 -0.5001 0.866 224.0793 -518.5162)" width="70.707" height="6.274"/>
		<rect x="1076.259" y="79.125" transform="matrix(0.5 0.8661 -0.8661 0.5 638.8865 -877.5687)" width="6.274" height="70.699"/>
		<rect x="999.498" y="123.429" transform="matrix(0.5 0.8661 -0.8661 0.5 638.88 -788.9316)" width="6.274" height="70.717"/>
	</g>
	<g>
		<path d="M1013.781,183.491v-93.72l81.166,46.859L1013.781,183.491z M1020.055,100.64v71.983l62.346-35.993L1020.055,100.64z"/>
		<path d="M1068.273,183.491l-81.162-46.861l81.17-46.862L1068.273,183.491z M999.66,136.63l62.34,35.993l0.006-71.987
			L999.66,136.63z"/>
	</g>
	<g>
		<polygon points="1041.021,93.228 1017.031,79.379 1020.168,73.945 1041.021,85.984 1061.885,73.945 1065.02,79.379 		"/>
		<polygon points="1020.168,199.318 1017.033,193.884 1041.033,180.037 1065.02,193.884 1061.883,199.318 1041.033,187.279 		"/>
	</g>
	<g>
		<polygon points="1041.021,77.637 1024.766,68.253 1027.904,62.82 1041.021,70.394 1054.158,62.82 1057.293,68.253 		"/>
		<polygon points="1027.904,210.443 1024.766,205.009 1041.033,195.616 1057.295,205.009 1054.156,210.443 1041.033,202.862 		"/>
	</g>
	<g>
		<polygon points="973.672,116.527 970.535,111.092 983.666,103.51 983.666,88.358 989.939,88.358 989.939,107.132 		"/>
		<polygon points="1098.389,184.906 1092.115,184.906 1092.117,166.125 1108.375,156.731 1111.514,162.165 1098.391,169.746 		"/>
	</g>
	<g>
		<polygon points="1108.375,116.527 1092.117,107.132 1092.115,88.358 1098.389,88.358 1098.391,103.51 1111.514,111.092 		"/>
		<polygon points="989.939,184.906 983.666,184.906 983.666,169.746 970.535,162.165 973.672,156.731 989.939,166.125 		"/>
	</g>
	<g>
		<polygon points="979.451,128.784 976.314,123.35 997.166,111.309 997.17,87.226 1003.445,87.226 1003.441,114.93 		"/>
		<polygon points="1084.889,186.038 1078.613,186.038 1078.619,158.327 1102.609,144.474 1105.746,149.908 1084.893,161.948 		"/>
	</g>
	<g>
		<polygon points="1102.609,128.784 1078.619,114.93 1078.613,87.226 1084.889,87.226 1084.893,111.309 1105.746,123.35 		"/>
		<polygon points="997.17,186.038 997.166,161.948 976.314,149.908 979.451,144.474 1003.441,158.327 1003.445,186.038 		"/>
	</g>
</g>
<g>
	<g>
		<path fill="#FFFFFF" d="M120.569,185.551c12.361-1.718,30.146-8.544,42.539-17.273l2.079-43.661l-0.644-5.117l-0.438-3.468
			l-2.291-3.39l1.701-3.775l-1.556-2.37l3.153-4.103l-2.126-1.902l2.034-4.528l-3.378-2.979l1.857-3.81l-1.951-2.616l0.575-3.534
			l-3.567-2.254l1.677-6.148l-3.454-0.242l0.924-4.964l-3.311,0.405c1.507-2.377,1.927-6.547,1.927-6.547l-7.648,3.763
			c2.182-3.891,3.612-9.648,3.612-9.648l-8.967,6.403l2.7-10.09l-8.18,5.917l1.051-10.426c-31.194,27.389-43.82,70.978-43.82,70.978
			s5.704,10.268,8.454,16.437c2.745,6.177,7.684,28.163,7.847,34.918c0.073,2.894-1.701,6.111-3.743,8.845
			C110.244,183.874,114.296,186.417,120.569,185.551z"/>
		<path d="M130.838,66.511l-0.643,6.382l5.198-3.76l-2.655,9.926l3.334-2.38l-2.751,4.903l8.995-4.425l-0.319,0.501l7.973-0.973
			l-0.645,3.465l2.845,0.2l-0.885,3.249l3.921,2.479l0.06,0.037l-0.337,2.066l1.257,1.684l-0.181,0.372l-2.096,4.296l3.493,3.081
			l-0.138,0.308l-1.882,4.186l1.208,1.082l-2.323,3.022l2.113,3.22l-0.287,0.635l-1.438,3.19l1.959,2.901l1.453,2.149l0.25,1.978
			l0.575,4.578l-1.903,39.973c-10.858,6.985-26.045,12.941-37.279,14.502c-0.535,0.075-1.052,0.113-1.534,0.113
			c-0.88,0-1.668-0.123-2.387-0.376c1.305-2.69,1.915-5.239,1.852-7.699c-0.185-7.655-5.278-30.324-8.389-37.32
			c-2.03-4.552-5.502-11.064-7.39-14.539C104.423,111.86,113.492,87.369,130.838,66.511 M138.889,49.194
			c-31.194,27.389-43.82,70.978-43.82,70.978s5.704,10.268,8.454,16.437c2.745,6.177,7.684,28.163,7.847,34.918
			c0.073,2.894-1.701,6.111-3.743,8.845c2.27,3.035,5.615,5.35,10.551,5.35c0.759,0,1.556-0.056,2.393-0.171
			c12.361-1.718,30.146-8.544,42.539-17.273l2.079-43.661l-0.644-5.117l-0.438-3.468l-2.291-3.39l1.701-3.775l-1.556-2.37
			l3.153-4.103l-2.126-1.902l2.034-4.528l-3.378-2.979l1.857-3.81l-1.951-2.616l0.575-3.534l-3.567-2.254l1.677-6.148l-3.454-0.242
			l0.924-4.964l-3.311,0.405c1.507-2.377,1.927-6.547,1.927-6.547l-7.648,3.763c2.182-3.891,3.612-9.648,3.612-9.648l-8.967,6.403
			l2.7-10.09l-8.18,5.917L138.889,49.194L138.889,49.194z"/>
	</g>
	<g>
		<path d="M13.137,174.098c0,0,8.451-3.334,15.739-7.31c7.294-3.976,8.617-5.303,14.58-3.976c5.963,1.323,19.022,8.506,40.228,9.839
			c21.206,1.321,21.206,1.321,21.206,1.321s11.47-6.162,12.788-12.785c1.322-6.631,1.328-29.164,0-35.79
			c-1.328-6.623-4.642-17.892-4.642-17.892s22.397-44.03,58.846-63.912c0,0-2.184,12.552-3.84,14.207l10.631-6.893l-5.984,11.201
			l11.379-4.058c0,0-4.097,6.046-7.077,9.364l9.694-2.399c0,0-2.734,4.384-4.724,6.375l6.112,0.417l-4.788,4.553l6.183,1.714
			l-5.852,4.908l4.457,3.28l-2.798,3.019l2.798,3.431l-4.123,2.862l3.953,4.271l-4.287,3.353l2.894,3.263l-5.211,2.368l2.769,4.083
			l-4.258,1.882l2.691,4.035l-2.438,3.308l1.393,4.876l-12.749,42.952c0,0,14.748,3.809,32.64,12.758
			c17.893,8.943,52.735,12.765,52.735,12.765l-28.426,12.157l-27.626-3.218c0,0-14.08,9.936-44.4,8.614
			c-30.317-1.33-62.029-25.689-71.31-27.675c-9.282-1.988-29.665-5.088-37.619-5.236c-7.891-0.138-12.996-4.202-18.804-4.202
			c-5.804,0-12.761-1.01-12.761-1.01V174.098z"/>
		<path d="M159.12,216.299c-1.844,0-3.735-0.041-5.626-0.125c-21.63-0.948-43.668-13.068-58.251-21.089
			c-5.98-3.29-11.146-6.131-13.578-6.651c-9.047-1.938-29.232-5.023-37.021-5.168c-4.694-0.082-8.428-1.379-11.723-2.521
			c-2.594-0.903-4.834-1.68-7.023-1.68c-5.961,0-12.918-1-13.211-1.042L10,177.634v-5.67l1.985-0.784
			c0.084-0.033,8.363-3.312,15.39-7.146c0.815-0.445,1.557-0.855,2.238-1.236c4.065-2.257,6.519-3.619,10.074-3.619
			c1.28,0,2.693,0.181,4.448,0.572c1.807,0.4,3.994,1.205,6.763,2.224c7.139,2.628,17.928,6.6,32.981,7.545l20.285,1.263
			c3.961-2.284,9.736-6.692,10.436-10.208c1.26-6.317,1.26-28.279,0.002-34.56c-1.286-6.413-4.544-17.511-4.576-17.622l-0.352-1.197
			l0.564-1.111c0.933-1.834,23.263-45.127,60.14-65.246l5.706-3.112l-1.112,6.403c-0.424,2.435-0.828,4.488-1.211,6.224
			l13.409-8.693l-7.89,14.767l12.76-4.549l-5.376,7.935c-0.067,0.097-0.716,1.053-1.666,2.389l8.441-2.09l-4.094,6.565
			c-0.119,0.189-0.61,0.973-1.298,1.984l7.357,0.501l-5.946,5.655l6.593,1.831l-7.362,6.173l4.072,2.996l-3.332,3.597l3.217,3.943
			l-3.943,2.737l3.816,4.124l-4.343,3.396l3.499,3.947l-5.693,2.587l2.791,4.114l-4.285,1.894l1.843,2.762l-2.829,3.84l1.22,4.272
			l-12.107,40.788c5.317,1.604,16.815,5.437,30.134,12.098c17.179,8.585,51.332,12.416,51.676,12.453l11.877,1.305l-40.179,17.183
			l-27.357-3.186C195.123,209.832,182.282,216.299,159.12,216.299z M24.027,172.758c0.632,0.021,1.259,0.033,1.87,0.033
			c3.247,0,6.214,1.03,9.082,2.025c2.99,1.038,6.082,2.112,9.776,2.176c8.402,0.157,28.978,3.327,38.222,5.305
			c3.334,0.713,8.349,3.472,15.289,7.289c14.071,7.741,35.337,19.436,55.502,20.32c1.798,0.079,3.6,0.117,5.352,0.117
			c25.024,0,36.995-8.086,37.112-8.168l0.974-0.674l1.188,0.128l26.797,3.122l17.263-7.383
			c-11.943-1.892-30.633-5.584-42.509-11.521c-17.396-8.699-31.878-12.49-32.022-12.528l-3.148-0.812l13.415-45.194l-1.564-5.479
			l2.046-2.777l-3.54-5.309l4.231-1.868l-2.747-4.052l4.729-2.147l-2.289-2.581l4.229-3.308l-4.089-4.418l4.305-2.988l-2.38-2.917
			l2.264-2.445l-4.842-3.562l4.34-3.64l-5.771-1.602l3.629-3.45l-5.873-0.401l3.822-3.825l-10.854,2.686l6.822-7.594
			c0.235-0.263,0.479-0.543,0.729-0.84l-9.291,3.313l4.079-7.635l-25.434,16.489l20.951-20.932c0.437-0.779,1.078-3.06,1.713-5.807
			c-28.708,18.536-47.55,51.576-51.002,57.945c0.902,3.135,3.258,11.476,4.351,16.929c1.417,7.073,1.418,29.908,0.001,37.02
			c-1.562,7.847-13.073,14.232-14.381,14.934l-0.788,0.424l-22.098-1.377c-15.97-1.003-27.275-5.166-34.758-7.918
			c-2.547-0.939-4.56-1.679-5.955-1.99c-1.298-0.289-2.279-0.422-3.088-0.422c-1.842,0-3.154,0.681-7.028,2.832
			c-0.693,0.386-1.449,0.805-2.281,1.259C28.271,170.692,26.084,171.783,24.027,172.758z"/>
	</g>
	<g>
		<path fill="#FFFFFF" d="M145.536,175.762c-7.818,1.217-15.42,1.624-21.49,1.119c-6.312-0.523-9.704-3.897-11.49-7.889
			c-3.458,2.962-7.197,4.98-7.197,4.98s-0.039-0.003-10.785-0.671l-11.464,12.166c9.63,2.412,27.26,20.865,57.271,22.179
			c22.739,0.994,50.05-14.004,50.489-14.264C172.999,181.064,164.593,180.465,145.536,175.762z"/>
		<path d="M111.668,173.666c2.791,3.737,6.916,5.911,12.118,6.342c1.776,0.147,3.698,0.222,5.713,0.222
			c4.871,0,10.353-0.438,15.895-1.273c2.533,0.624,4.88,1.173,7.087,1.69c12.585,2.952,20.111,4.719,32.159,12.367
			c-8.297,3.962-26.245,11.54-42.06,11.54c-0.69,0-1.381-0.014-2.063-0.043c-19.866-0.871-34.006-9.506-44.33-15.813
			c-2.854-1.743-5.363-3.275-7.64-4.427l7.301-7.749c8.601,0.537,9.253,0.578,9.26,0.578l0,0l0.923,0.073l0.817-0.44
			C106.968,176.668,109.096,175.514,111.668,173.666 M112.556,168.993c-3.458,2.962-7.197,4.98-7.197,4.98
			s-0.039-0.003-10.785-0.671l-11.464,12.166c9.63,2.412,27.26,20.865,57.271,22.179c0.729,0.031,1.463,0.047,2.2,0.047
			c22.264,0,47.863-14.059,48.289-14.311c-17.87-12.317-26.276-12.917-45.333-17.62c-5.62,0.875-11.129,1.331-16.037,1.331
			c-1.919,0-3.746-0.068-5.453-0.212C117.734,176.358,114.342,172.984,112.556,168.993L112.556,168.993z"/>
	</g>
	<g>
		<path fill="#FFFFFF" d="M47.16,163.903l-15.658,13.019c3.896,1.213,7.978,3.116,13.359,3.208c1.389,0.025,3.166,0.15,5.187,0.335
			l8.786-12.482C53.999,166.475,50.125,164.945,47.16,163.903z"/>
		<path d="M47.787,167.462c0.37,0.135,0.751,0.274,1.145,0.419c1.438,0.526,3.081,1.128,4.901,1.757l-5.313,7.548
			c-1.442-0.112-2.631-0.176-3.604-0.194c-2.602-0.043-4.901-0.584-7.077-1.258L47.787,167.462 M47.16,163.903l-15.658,13.019
			c3.896,1.213,7.978,3.116,13.359,3.208c1.389,0.025,3.166,0.15,5.187,0.335l8.786-12.482
			C53.999,166.475,50.125,164.945,47.16,163.903L47.16,163.903z"/>
	</g>
	<path fill="#FFFFFF" d="M36.344,169.059c0,1.191-0.964,2.16-2.158,2.16c-1.192,0-2.164-0.969-2.164-2.16s0.972-2.164,2.164-2.164
		C35.38,166.895,36.344,167.868,36.344,169.059z"/>
</g>
<g>
	<g>
		<path d="M456.615,78.705c34.474,0,62.524,28.057,62.524,62.536s-28.051,62.534-62.524,62.534
			c-34.484,0-62.537-28.055-62.537-62.534S422.131,78.705,456.615,78.705 M456.615,66.849c-41.092,0-74.395,33.303-74.395,74.392
			c0,41.082,33.303,74.392,74.395,74.392c41.079,0,74.395-33.31,74.395-74.392C531.01,100.152,497.694,66.849,456.615,66.849
			L456.615,66.849z"/>
		<path d="M456.615,216.299c-41.39,0-75.062-33.67-75.062-75.059c0-41.388,33.673-75.058,75.062-75.058
			c41.389,0,75.062,33.67,75.062,75.058C531.677,182.629,498.004,216.299,456.615,216.299z M456.615,67.516
			c-40.654,0-73.729,33.071-73.729,73.725c0,40.654,33.074,73.726,73.729,73.726c40.653,0,73.728-33.072,73.728-73.726
			C530.343,100.587,497.269,67.516,456.615,67.516z M456.615,204.44c-34.851,0-63.204-28.35-63.204-63.2
			c0-34.851,28.354-63.202,63.204-63.202c34.844,0,63.191,28.351,63.191,63.202C519.807,176.09,491.459,204.44,456.615,204.44z
			 M456.615,79.37c-34.115,0-61.869,27.755-61.869,61.871c0,34.113,27.754,61.867,61.869,61.867
			c34.108,0,61.858-27.754,61.858-61.867C518.474,107.125,490.724,79.37,456.615,79.37z"/>
	</g>
	<path d="M456.615,199.25c-31.988,0-58.013-26.022-58.013-58.009c0-31.987,26.024-58.011,58.013-58.011
		c31.985,0,58.009,26.023,58.009,58.011C514.624,173.227,488.601,199.25,456.615,199.25z M456.615,86.364
		c-30.259,0-54.875,24.618-54.875,54.876c0,30.257,24.616,54.873,54.875,54.873c30.257,0,54.872-24.616,54.872-54.873
		C511.487,110.982,486.872,86.364,456.615,86.364z"/>
	<g>
		<polygon points="456.615,113.315 461.55,136.305 484.54,141.241 461.55,146.176 456.615,169.167 451.673,146.176 428.682,141.241 
			451.673,136.305 		"/>
		<path d="M456.615,172.341l-5.503-25.604l-25.607-5.497l25.607-5.496l5.503-25.604l5.496,25.604l25.605,5.496l-25.605,5.497
			L456.615,172.341z M431.858,141.241l20.376,4.375l4.38,20.375l4.375-20.375l20.375-4.375l-20.375-4.375l-4.375-20.376
			l-4.38,20.376L431.858,141.241z"/>
	</g>
	<path d="M456.615,64.076c-10.444,0-18.94-8.498-18.94-18.941s8.496-18.941,18.94-18.941c10.441,0,18.936,8.498,18.936,18.941
		S467.057,64.076,456.615,64.076z M456.615,32.468c-6.984,0-12.667,5.682-12.667,12.667c0,6.984,5.683,12.666,12.667,12.666
		c6.981,0,12.661-5.682,12.661-12.666C469.276,38.15,463.597,32.468,456.615,32.468z"/>
	<g>
		<path d="M462.69,72.402c0,2.217-1.796,4.014-4.021,4.014h-4.111c-2.215,0-4.018-1.796-4.018-4.014V54.743
			c0-2.221,1.803-4.021,4.018-4.021h4.111c2.226,0,4.021,1.8,4.021,4.021V72.402z"/>
		<path d="M458.669,77.082h-4.111c-2.583,0-4.685-2.099-4.685-4.679V54.743c0-2.584,2.102-4.687,4.685-4.687h4.111
			c2.585,0,4.688,2.103,4.688,4.687v17.659C463.357,74.983,461.254,77.082,458.669,77.082z M454.558,51.39
			c-1.848,0-3.351,1.504-3.351,3.354v17.659c0,1.846,1.503,3.347,3.351,3.347h4.111c1.85,0,3.354-1.501,3.354-3.347V54.743
			c0-1.849-1.504-3.354-3.354-3.354H454.558z"/>
	</g>
	<g>
		<g>
			<path d="M458.666,177.168c-0.496-0.172-1.146-0.326-1.79-0.326c-1.842,0-2.432,0.947-2.432,1.689c0,0.97,0.707,1.258,1.579,1.465
				l1.595,0.399c1.96,0.498,4.12,1.138,4.12,3.897c0,2.521-1.709,4.372-5.487,4.372c-1.464,0-2.983-0.147-4.771-0.743v-3.516h2.774
				v1.75c0.701,0.279,1.465,0.345,2.241,0.345c1.637,0,2.356-0.781,2.356-1.794c0-0.677-0.378-1.175-2.165-1.63l-1.466-0.383
				c-2.734-0.699-3.663-1.766-3.663-3.816c0-2.109,1.481-3.97,5.242-3.97c1.611,0,3.229,0.261,4.375,0.693v3.177h-2.51V177.168z"/>
			<path d="M456.251,189.33c-1.233,0-2.914-0.088-4.981-0.777l-0.456-0.15v-4.663h4.109v1.933c0.429,0.11,0.933,0.162,1.573,0.162
				c0.771,0,1.688-0.196,1.688-1.127c0-0.21,0-0.561-1.662-0.985l-1.47-0.382c-2.955-0.756-4.161-2.05-4.161-4.463
				c0-2.242,1.553-4.636,5.909-4.636c1.691,0,3.371,0.268,4.609,0.735l0.433,0.163v4.304h-3.845v-1.781
				c-0.314-0.081-0.713-0.155-1.122-0.155c-1.302,0-1.766,0.529-1.766,1.023c0,0.383,0.105,0.588,1.067,0.816l1.602,0.399
				c1.844,0.471,4.626,1.178,4.626,4.545C462.405,187.448,460.104,189.33,456.251,189.33z M452.147,187.432
				c1.679,0.497,3.063,0.565,4.104,0.565c3.109,0,4.82-1.315,4.82-3.705c0-2.164-1.499-2.713-3.617-3.252l-1.592-0.396
				c-0.618-0.147-2.086-0.495-2.086-2.112c0-1.172,0.959-2.356,3.1-2.356c0.841,0,1.619,0.228,2.009,0.362l0.448,0.156v1.416h1.176
				v-2.032c-1.038-0.317-2.386-0.504-3.708-0.504c-2.907,0-4.575,1.205-4.575,3.303c0,1.566,0.488,2.487,3.161,3.17l1.469,0.383
				c1.381,0.353,2.664,0.872,2.664,2.276c0,1.19-0.796,2.459-3.023,2.459c-0.699,0-1.614-0.043-2.487-0.392l-0.421-0.167v-1.534
				h-1.44V187.432z"/>
		</g>
	</g>
	<g>
		<g>
			<path d="M449.958,105.22h1.235v-9.429h-1.69v-1.938h3.858l5.608,7.055c0.588,0.74,0.945,1.273,1.116,1.781h0.044v-6.898h-1.218
				v-1.938h4.807v1.938h-1.31v11.366h-2.052l-6.329-7.946c-0.327-0.396-0.589-0.834-0.627-1.024h-0.04v7.033h1.291v1.938h-4.694
				V105.22z"/>
			<path d="M463.076,107.823h-3.04l-6.007-7.542v4.271h1.29v3.271h-6.028v-3.271h1.235v-8.096h-1.69v-3.27h4.847l5.78,7.27v-4
				h-1.218v-3.27h6.141v3.27h-1.31V107.823z M460.679,106.491h1.063V95.124h1.31v-0.605h-3.473v0.605h1.219v8.231h-1.147
				l-0.196-0.453c-0.129-0.386-0.421-0.842-1.007-1.579l-5.407-6.805h-2.869v0.605h1.689v10.761h-1.235v0.605h3.359v-0.605h-1.29
				V97.52h1.212l0.147,0.532c0.023,0.068,0.202,0.39,0.487,0.734L460.679,106.491z"/>
		</g>
	</g>
	<g>
		<g>
			<path d="M421.548,134.587h5.167v1.938h-1.065l-4.441,11.366h-2.95l-2.108-6.23h-0.037l-2.281,6.23h-3.002l-4.447-11.366h-1.063
				v-1.938h5.396v1.938h-1.122l2.603,7.604c0.172,0.495,0.325,1.046,0.4,1.599h0.041c0.073-0.553,0.227-1.104,0.399-1.599
				l1.993-5.738l-0.688-1.866h-1.252v-1.938h5.28v1.938h-1.193l2.342,7.604c0.145,0.495,0.299,1.046,0.372,1.599h0.044
				c0.072-0.553,0.223-1.104,0.396-1.599l2.604-7.604h-1.388V134.587z"/>
			<path d="M421.663,148.558h-3.885l-1.672-4.944l-1.81,4.944h-3.924l-4.447-11.367h-1.274v-3.27h6.73v3.27h-0.857l2.093,6.112
				l1.704-4.906l-0.443-1.206h-1.455v-3.27h6.614v3.27h-0.957l1.856,6.033l2.066-6.033h-1.122v-3.27h6.502v3.27h-1.277
				L421.663,148.558z M418.735,147.225h2.018l4.441-11.367h0.854v-0.605h-3.833v0.605h1.653l-2.906,8.487
				c-0.185,0.524-0.307,1.019-0.366,1.468l-0.075,0.58h-1.17l-0.121-0.578c-0.067-0.513-0.218-1.042-0.352-1.499l-2.604-8.459h1.429
				v-0.605h-3.946v0.605h1.051l0.93,2.526l-2.071,5.964c-0.186,0.533-0.31,1.027-0.368,1.468l-0.077,0.578h-1.166l-0.12-0.577
				c-0.06-0.439-0.184-0.935-0.369-1.471l-2.906-8.488h1.388v-0.605h-4.062v0.605h0.851l4.448,11.367h2.082l2.281-6.23h0.943
				l0.191,0.454L418.735,147.225z"/>
		</g>
	</g>
	<g>
		<g>
			<path d="M499.901,143.708h2.281l-0.153,4.183h-9.556v-1.941h1.196v-9.425h-1.427v-1.938h9.729l0.119,3.913h-2.281l-0.118-1.975
				h-3.25v3.502h3.351v2.047h-3.351v3.875h3.306L499.901,143.708z"/>
			<path d="M502.672,148.558h-10.865v-3.272h1.195v-8.094h-1.426v-3.27h11.042l0.159,5.246h-3.596l-0.117-1.976h-1.956v2.17h3.351
				v3.379h-3.351v2.544h2.016l0.155-2.243h3.596L502.672,148.558z M493.141,147.225h8.246l0.104-2.85h-0.967l-0.155,2.241h-4.595
				v-5.208h3.35v-0.714h-3.35v-4.835h4.545l0.117,1.976h0.967l-0.079-2.581h-8.414v0.605h1.427v10.758h-1.196V147.225z"/>
		</g>
	</g>
	<g>
		<rect x="452.162" y="77.824" transform="matrix(0.0047 1 -1 0.0047 533.5363 -377.276)" width="8.274" height="3.137"/>
		<rect x="452.794" y="201.516" transform="matrix(0.0051 1 -1 0.0051 657.6925 -254.8707)" width="8.272" height="3.137"/>
		<rect x="516.894" y="136.792" transform="matrix(0.0062 1 -1 0.0062 656.1506 -378.408)" width="3.136" height="8.259"/>
		<rect x="393.199" y="137.424" transform="matrix(0.0047 1 -1 0.0047 534.4771 -253.8674)" width="3.136" height="8.265"/>
		
			<rect x="498.551" y="93.145" transform="matrix(0.7105 0.7037 -0.7037 0.7105 213.2294 -323.7608)" width="3.138" height="8.276"/>
		
			<rect x="411.535" y="181.062" transform="matrix(0.7099 0.7043 -0.7043 0.7099 250.2762 -237.2249)" width="3.139" height="8.272"/>
		<rect x="496.434" y="183.183" transform="matrix(0.7112 0.703 -0.703 0.7112 274.4462 -298.541)" width="8.274" height="3.139"/>
		
			<rect x="408.525" y="96.168" transform="matrix(0.7107 0.7035 -0.7035 0.7107 188.1245 -262.0198)" width="8.269" height="3.136"/>
		<rect x="478.42" y="79.846" transform="matrix(0.926 0.3774 -0.3774 0.926 67.196 -174.9462)" width="3.137" height="8.275"/>
		
			<rect x="431.672" y="194.366" transform="matrix(0.9256 0.3786 -0.3786 0.9256 107.3931 -149.2387)" width="3.137" height="8.273"/>
		
			<rect x="509.735" y="163.046" transform="matrix(0.9258 0.3781 -0.3781 0.9258 100.3777 -182.0635)" width="8.279" height="3.136"/>
		
			<rect x="395.218" y="116.301" transform="matrix(0.9256 0.3784 -0.3784 0.9256 74.3109 -142.3692)" width="8.277" height="3.137"/>
		<rect x="512.061" y="113.138" transform="matrix(0.388 0.9217 -0.9217 0.388 422.4468 -401.6196)" width="3.136" height="8.28"/>
		
			<rect x="398.029" y="161.067" transform="matrix(0.3874 0.9219 -0.9219 0.3874 397.0748 -267.1893)" width="3.136" height="8.273"/>
		<rect x="476.429" y="196.69" transform="matrix(0.3868 0.9222 -0.9222 0.3868 477.522 -321.5897)" width="8.276" height="3.137"/>
		
			<rect x="428.515" y="82.658" transform="matrix(0.3878 0.9218 -0.9218 0.3878 342.5151 -347.2323)" width="8.273" height="3.137"/>
	</g>
	<g>
		<g>
			<path fill="#FFFFFF" d="M458.314,138.09c2.58,2.583,2.58,6.757,0,9.334c-2.582,2.577-6.756,2.577-9.335,0.003
				c-2.572-2.575-2.58-6.757,0-9.337C451.559,135.512,455.732,135.516,458.314,138.09z"/>
			<g>
				<path fill="#FFFFFF" d="M485.13,183.217c-2.398,0-4.645-0.934-6.344-2.627c-3.494-3.5-3.494-9.19,0-12.69
					c3.395-3.39,9.303-3.39,12.69,0c3.498,3.5,3.494,9.19,0,12.69C489.781,182.283,487.524,183.217,485.13,183.217z
					 M485.135,170.681c-0.953,0-1.853,0.371-2.524,1.044c-1.387,1.39-1.387,3.65,0,5.043c1.35,1.345,3.695,1.348,5.042-0.007
					c1.393-1.386,1.393-3.646,0-5.036C486.98,171.051,486.087,170.684,485.135,170.681z"/>
				<polygon fill="#FFFFFF" points="482.529,167.984 478.882,171.64 420.308,113.074 417.728,106.837 423.956,109.414 				"/>
			</g>
		</g>
		<g>
			<g>
				<path d="M460.137,136.264c2.578,2.579,2.581,6.755,0,9.332c-2.577,2.577-6.752,2.581-9.333,0c-2.575-2.568-2.58-6.751,0-9.332
					C453.381,133.687,457.56,133.687,460.137,136.264z"/>
				<path d="M455.47,148.197c-1.939,0-3.764-0.756-5.138-2.129c-1.372-1.369-2.128-3.19-2.129-5.132c0-1.942,0.755-3.77,2.128-5.143
					c1.373-1.371,3.197-2.127,5.139-2.127s3.766,0.756,5.138,2.127c1.375,1.374,2.131,3.201,2.131,5.141s-0.758,3.764-2.131,5.135
					C459.234,147.441,457.41,148.197,455.47,148.197z M455.47,134.998c-1.584,0-3.074,0.618-4.195,1.738
					c-1.12,1.122-1.737,2.612-1.737,4.199c0.001,1.584,0.617,3.073,1.737,4.188c2.246,2.247,6.147,2.244,8.391,0
					c1.122-1.119,1.74-2.606,1.74-4.191s-0.617-3.075-1.74-4.197C458.544,135.616,457.054,134.998,455.47,134.998z"/>
			</g>
			<g>
				<g>
					<path d="M486.953,181.393c-2.393,0-4.646-0.938-6.34-2.628c-3.498-3.499-3.498-9.194,0-12.693
						c3.399-3.383,9.302-3.383,12.688,0c3.497,3.499,3.497,9.191-0.004,12.693C491.599,180.455,489.35,181.389,486.953,181.393z
						 M486.953,168.853c-0.947,0-1.841,0.374-2.516,1.044c-1.391,1.389-1.391,3.654,0,5.046c1.348,1.342,3.693,1.345,5.035-0.003
						c1.397-1.392,1.397-3.653,0.008-5.042C488.805,169.226,487.909,168.85,486.953,168.853z"/>
					<path d="M486.954,182.059L486.954,182.059c-2.567,0-4.986-1.002-6.812-2.822c-3.758-3.759-3.758-9.877,0-13.637
						c1.745-1.737,4.229-2.732,6.82-2.732c2.59,0,5.073,0.995,6.811,2.732c3.756,3.76,3.754,9.878-0.004,13.637
						C491.942,181.053,489.523,182.055,486.954,182.059z M486.962,164.202c-2.239,0-4.382,0.854-5.879,2.341
						c-3.236,3.239-3.236,8.51,0.002,11.75c1.571,1.568,3.656,2.434,5.867,2.434c2.214-0.003,4.301-0.868,5.874-2.434
						c3.238-3.239,3.24-8.51,0.003-11.75C491.34,165.054,489.201,164.202,486.962,164.202z M486.957,176.617
						c-1.134,0-2.223-0.438-2.99-1.202c-0.8-0.8-1.239-1.864-1.239-2.997c0-1.132,0.439-2.194,1.238-2.993
						c0.806-0.799,1.866-1.238,2.987-1.238h0.012c1.121,0,2.182,0.439,2.985,1.237c0.8,0.8,1.239,1.862,1.237,2.993
						c0,1.132-0.442,2.197-1.244,2.995C489.182,176.176,488.093,176.617,486.957,176.617z M486.965,168.853l-0.01,0.667
						c-0.769,0-1.496,0.302-2.049,0.852c-0.544,0.543-0.846,1.272-0.846,2.047c0,0.776,0.302,1.506,0.849,2.053
						c1.034,1.031,3.061,1.034,4.091-0.001c0.551-0.549,0.854-1.279,0.854-2.054c0.001-0.773-0.3-1.501-0.845-2.046
						c-0.552-0.548-1.278-0.851-2.045-0.851V168.853z"/>
				</g>
				<g>
					<polygon points="484.354,166.162 480.699,169.81 422.131,111.25 419.554,105.012 425.786,107.593 					"/>
					<path d="M480.699,170.751l-59.185-59.249l-3.191-7.721l7.934,3.34l59.041,59.041L480.699,170.751z M422.696,110.871
						l58.004,57.996l2.71-2.705l-58.003-58.003l-4.624-1.916L422.696,110.871z"/>
				</g>
			</g>
		</g>
	</g>
</g>
<g>
	<path d="M1322.766,115.521c-14.24,0-25.826-11.586-25.826-25.827v-3.137h45.377c0.004-11.25,0.004-49.105,0.004-49.551
		c0-11.68,9.502-21.181,21.18-21.181v6.273c-8.219,0-14.906,6.688-14.906,14.908l-0.002,50.426c0,0.769-0.002,1.545-0.078,2.262
		h0.076C1348.59,103.935,1337.004,115.521,1322.766,115.521z M1303.465,92.832c1.506,9.295,9.586,16.415,19.301,16.415
		c9.713,0,17.793-7.119,19.299-16.415H1303.465z"/>
	<g>
		<path d="M1374.555,130.248v75.946c0,3.851-3.119,6.968-6.967,6.968h-85.361c-3.848,0-6.967-3.118-6.967-6.968v-75.946H1374.555z"
			/>
		<path d="M1367.588,216.299h-85.361c-5.572,0-10.104-4.532-10.104-10.105V127.11h105.568v79.084
			C1377.691,211.767,1373.158,216.299,1367.588,216.299z M1278.396,133.385v72.809c0,2.112,1.719,3.83,3.83,3.83h85.361
			c2.111,0,3.828-1.718,3.828-3.83v-72.809H1278.396z"/>
	</g>
	<path fill="#FFFFFF" d="M1274.709,143.58c-0.227,4.911-0.455,9.818-0.207,14.866c0.377,0.185,1.609,0.577,2.014,0.65
		c4.861-3.766,1.322-19.357,9.324-18.255c1.254,3.048-0.15,8.459,5.219,7.136c2.645-0.648,0.811-7.772,4.281-9.04
		c5.01-1.821,6.393,5.086,6.545,8.41c0.131,2.914,0.014,18.365,4.125,13.202c1.986-2.494,0.742-5.127,0.299-7.79
		c-0.541-3.27-0.01-5.672,1.391-8.381c2.867-5.553,7.395-6.964,10.852-0.693c1.859,3.377-0.811,17.226,2.441,17.894
		c3.453,0.562,2.365-14.931,4.799-16.755c4.164-3.121,7.938,3.213,9.406,6.644c0.971,2.289,0.58,7.88,4.74,4.583
		c1.758-1.392,0.416-5.092,0.885-7.042c1.111-4.697,7.135-10.695,10.971-5.077c3.211,4.694,0.539,14.026,0.539,19.325
		c0,3.649,0.08,7.299-0.32,10.836c-0.262,2.352-1.213,6.723-0.352,9.059c1.957,5.315,5.156,0.602,5.639-2.894
		c0.59-4.274-0.008-9.344,0.004-13.708c0.006-5.664-3.061-22.034,5.104-23.53c3.287,4.201,4.59,7.303,5.695,12.54
		c0.777,3.721,1.16,9.287,5.697,10.351c1.176-3.459-1.09-35.655-0.049-35.903c-6.42,1.523-13.77,0.401-20.354,0.401
		c-10.82,0-21.605,0.338-32.441,0.338c-14.312,0-28.098-0.822-42.213-1.674c-1.391-0.087-2.697-0.7-4.018-0.038
		c-0.26,0.687,0.174,0.411,0.225,0.697C1275.129,134.427,1274.918,139.002,1274.709,143.58z"/>
	<path d="M1274.709,146.717h-12.307c-1.732,0-3.137-1.404-3.137-3.137c0-1.732,1.404-3.137,3.137-3.137h12.307
		c1.732,0,3.139,1.404,3.139,3.137C1277.848,145.312,1276.441,146.717,1274.709,146.717z"/>
	<path d="M1386.863,146.717h-12.309c-1.734,0-3.139-1.404-3.139-3.137c0-1.732,1.404-3.137,3.139-3.137h12.309
		c1.732,0,3.137,1.404,3.137,3.137C1390,145.312,1388.596,146.717,1386.863,146.717z"/>
	<path d="M1367.588,216.299h-85.361c-5.572,0-10.104-4.532-10.104-10.105V127.11h105.568v79.084
		C1377.691,211.767,1373.158,216.299,1367.588,216.299z M1278.396,133.385v72.809c0,2.112,1.719,3.83,3.83,3.83h85.361
		c2.111,0,3.828-1.718,3.828-3.83v-72.809H1278.396z"/>
</g>
<g>
	<g>
		<polygon points="807.254,213.16 696.195,213.16 696.195,96.99 701.217,90.944 812.275,90.944 812.275,207.114 		"/>
		<path d="M808.727,216.299H693.058V95.858l6.687-8.049h115.668V208.25L808.727,216.299z M699.332,210.024h106.449l3.357-4.041
			v-111.9h-106.45l-3.356,4.042V210.024z"/>
	</g>
	<g>
		<rect x="702.205" y="90.944" fill="#FFFFFF" width="110.07" height="116.17"/>
		<path d="M809.139,94.083V203.98H705.344V94.083H809.139 M812.275,90.944h-110.07v116.17h110.07V90.944L812.275,90.944z"/>
	</g>
	<g>
		<g>
			<path d="M804.717,102.91c0,2.593-2.111,4.707-4.713,4.707c-2.6,0-4.707-2.113-4.707-4.707c0-2.603,2.107-4.713,4.707-4.713
				C802.605,98.197,804.717,100.307,804.717,102.91z"/>
			<path d="M800.004,108.285c-2.965,0-5.375-2.412-5.375-5.375c0-2.967,2.41-5.377,5.375-5.377c2.967,0,5.379,2.411,5.379,5.377
				C805.383,105.873,802.971,108.285,800.004,108.285z M800.004,98.865c-2.229,0-4.041,1.815-4.041,4.045s1.812,4.042,4.041,4.042
				c2.23,0,4.045-1.812,4.045-4.042S802.234,98.865,800.004,98.865z"/>
		</g>
		<g>
			<path d="M790.367,102.91c0,2.593-2.111,4.707-4.713,4.707c-2.6,0-4.713-2.113-4.713-4.707c0-2.603,2.113-4.713,4.713-4.713
				C788.256,98.197,790.367,100.307,790.367,102.91z"/>
			<path d="M785.654,108.285c-2.967,0-5.381-2.412-5.381-5.375c0-2.967,2.414-5.377,5.381-5.377s5.379,2.411,5.379,5.377
				C791.033,105.873,788.621,108.285,785.654,108.285z M785.654,98.865c-2.23,0-4.047,1.815-4.047,4.045s1.816,4.042,4.047,4.042
				s4.045-1.812,4.045-4.042S787.885,98.865,785.654,98.865z"/>
		</g>
		<g>
			<path d="M776.014,102.91c0,2.593-2.104,4.707-4.711,4.707c-2.602,0-4.707-2.113-4.707-4.707c0-2.603,2.105-4.713,4.707-4.713
				C773.91,98.197,776.014,100.307,776.014,102.91z"/>
			<path d="M771.303,108.285c-2.963,0-5.373-2.412-5.373-5.375c0-2.967,2.41-5.377,5.373-5.377c2.965,0,5.377,2.411,5.377,5.377
				C776.68,105.873,774.268,108.285,771.303,108.285z M771.303,98.865c-2.229,0-4.041,1.815-4.041,4.045s1.812,4.042,4.041,4.042
				s4.043-1.812,4.043-4.042S773.531,98.865,771.303,98.865z"/>
		</g>
		<g>
			<path d="M761.662,102.91c0,2.593-2.105,4.707-4.707,4.707s-4.711-2.113-4.711-4.707c0-2.603,2.109-4.713,4.711-4.713
				S761.662,100.307,761.662,102.91z"/>
			<path d="M756.955,108.285c-2.965,0-5.379-2.412-5.379-5.375c0-2.967,2.414-5.377,5.379-5.377c2.963,0,5.373,2.411,5.373,5.377
				C762.328,105.873,759.918,108.285,756.955,108.285z M756.955,98.865c-2.23,0-4.045,1.815-4.045,4.045s1.814,4.042,4.045,4.042
				c2.227,0,4.039-1.812,4.039-4.042S759.182,98.865,756.955,98.865z"/>
		</g>
		<g>
			<path d="M747.314,102.91c0,2.593-2.111,4.707-4.713,4.707c-2.6,0-4.709-2.113-4.709-4.707c0-2.603,2.109-4.713,4.709-4.713
				C745.203,98.197,747.314,100.307,747.314,102.91z"/>
			<path d="M742.602,108.285c-2.965,0-5.377-2.412-5.377-5.375c0-2.967,2.412-5.377,5.377-5.377c2.967,0,5.379,2.411,5.379,5.377
				C747.98,105.873,745.568,108.285,742.602,108.285z M742.602,98.865c-2.23,0-4.043,1.815-4.043,4.045s1.812,4.042,4.043,4.042
				s4.045-1.812,4.045-4.042S744.832,98.865,742.602,98.865z"/>
		</g>
		<g>
			<path d="M732.963,102.91c0,2.593-2.113,4.707-4.711,4.707c-2.602,0-4.707-2.113-4.707-4.707c0-2.603,2.105-4.713,4.707-4.713
				C730.85,98.197,732.963,100.307,732.963,102.91z"/>
			<path d="M728.252,108.285c-2.965,0-5.375-2.412-5.375-5.375c0-2.967,2.41-5.377,5.375-5.377s5.377,2.411,5.377,5.377
				C733.629,105.873,731.217,108.285,728.252,108.285z M728.252,98.865c-2.229,0-4.041,1.815-4.041,4.045s1.812,4.042,4.041,4.042
				c2.23,0,4.043-1.812,4.043-4.042S730.482,98.865,728.252,98.865z"/>
		</g>
		<g>
			<path d="M718.613,102.91c0,2.593-2.107,4.707-4.713,4.707c-2.602,0-4.705-2.113-4.705-4.707c0-2.603,2.104-4.713,4.705-4.713
				C716.506,98.197,718.613,100.307,718.613,102.91z"/>
			<path d="M713.9,108.285c-2.962,0-5.373-2.412-5.373-5.375c0-2.967,2.411-5.377,5.373-5.377c2.965,0,5.379,2.411,5.379,5.377
				C719.279,105.873,716.865,108.285,713.9,108.285z M713.9,98.865c-2.227,0-4.039,1.815-4.039,4.045s1.812,4.042,4.039,4.042
				c2.23,0,4.045-1.812,4.045-4.042S716.131,98.865,713.9,98.865z"/>
		</g>
	</g>
	<g>
		<path d="M713.9,104.478c-0.867,0-1.568-0.699-1.568-1.567c0-0.866,0.701-1.568,1.566-1.568c0.922-0.141,3.078-4.647,3.078-12.762
			c0-8.114-2.158-12.62-3.078-12.759c-0.902,0.003-3.073,3.23-3.073,11.223c0,0.868-0.702,1.568-1.567,1.568
			c-0.867,0-1.569-0.7-1.569-1.568c0-8.724,2.439-14.357,6.212-14.357c4.27,0,6.213,8.24,6.213,15.894
			C720.113,96.238,718.17,104.478,713.9,104.478z"/>
		<path d="M728.252,104.478c-0.867,0-1.568-0.699-1.568-1.567c0-0.866,0.701-1.568,1.568-1.568c0.92-0.138,3.076-4.64,3.076-12.762
			c0-8.121-2.158-12.624-3.078-12.759c-0.904,0.003-3.076,3.23-3.076,11.223c0,0.868-0.703,1.568-1.568,1.568
			c-0.867,0-1.568-0.7-1.568-1.568c0-8.724,2.439-14.357,6.215-14.357c4.268,0,6.213,8.24,6.213,15.894
			C734.465,96.238,732.52,104.478,728.252,104.478z"/>
		<path d="M742.602,104.478c-0.867,0-1.57-0.699-1.57-1.567c0-0.866,0.703-1.568,1.568-1.568c0.92-0.138,3.078-4.64,3.078-12.762
			c0-8.121-2.16-12.624-3.08-12.759c-0.9,0.003-3.072,3.23-3.072,11.223c0,0.868-0.703,1.568-1.568,1.568
			c-0.867,0-1.57-0.7-1.57-1.568c0-8.724,2.441-14.357,6.215-14.357c4.27,0,6.213,8.24,6.213,15.894
			C748.814,96.238,746.871,104.478,742.602,104.478z"/>
		<path d="M756.955,104.478c-0.867,0-1.57-0.699-1.57-1.567c0-0.866,0.701-1.568,1.566-1.568c0.922-0.144,3.078-4.653,3.078-12.762
			c0-8.108-2.158-12.618-3.08-12.759c-0.898,0.003-3.07,3.23-3.07,11.223c0,0.868-0.703,1.568-1.568,1.568
			c-0.867,0-1.57-0.7-1.57-1.568c0-8.724,2.441-14.357,6.215-14.357c4.268,0,6.211,8.24,6.211,15.894
			C763.166,96.238,761.223,104.478,756.955,104.478z"/>
		<path d="M771.303,104.478c-0.867,0-1.568-0.699-1.568-1.567c0-0.866,0.701-1.568,1.564-1.568
			c0.924-0.141,3.082-4.647,3.082-12.762c0-8.114-2.162-12.62-3.082-12.759c-0.9,0.003-3.068,3.23-3.068,11.223
			c0,0.868-0.703,1.568-1.568,1.568c-0.867,0-1.57-0.7-1.57-1.568c0-8.724,2.439-14.357,6.211-14.357
			c4.271,0,6.215,8.24,6.215,15.894C777.518,96.238,775.574,104.478,771.303,104.478z"/>
		<path d="M785.654,104.478c-0.867,0-1.568-0.699-1.568-1.567c0-0.866,0.699-1.568,1.566-1.568c0.922-0.141,3.08-4.647,3.08-12.762
			c0-8.114-2.16-12.62-3.08-12.759c-0.902,0.003-3.072,3.23-3.072,11.223c0,0.868-0.703,1.568-1.568,1.568
			c-0.867,0-1.568-0.7-1.568-1.568c0-8.724,2.438-14.357,6.211-14.357c4.27,0,6.215,8.24,6.215,15.894
			C791.869,96.238,789.924,104.478,785.654,104.478z"/>
		<path d="M800.004,104.478c-0.867,0-1.568-0.699-1.568-1.567c0-0.866,0.701-1.568,1.564-1.568
			c0.924-0.141,3.078-4.647,3.078-12.762c0-8.114-2.156-12.62-3.078-12.759c-0.9,0.003-3.07,3.23-3.07,11.223
			c0,0.868-0.701,1.568-1.566,1.568c-0.867,0-1.57-0.7-1.57-1.568c0-8.724,2.438-14.357,6.211-14.357
			c4.268,0,6.213,8.24,6.213,15.894C806.217,96.238,804.271,104.478,800.004,104.478z"/>
	</g>
	<g>
		<rect x="729.555" y="125.502" width="3.137" height="70.269"/>
		<rect x="712.332" y="125.502" width="3.137" height="70.269"/>
		<rect x="746.779" y="125.502" width="3.137" height="70.269"/>
		<rect x="763.992" y="125.502" width="3.137" height="70.269"/>
		<rect x="781.217" y="125.502" width="3.137" height="70.269"/>
		<rect x="798.436" y="125.502" width="3.137" height="70.269"/>
		<polygon points="801.572,145.592 800.004,145.588 712.686,145.583 712.686,142.447 714.256,142.447 801.572,142.453 		"/>
		<rect x="712.686" y="125.502" width="88.887" height="3.136"/>
		<rect x="712.686" y="159.388" width="88.887" height="3.136"/>
		<rect x="712.686" y="176.336" width="88.887" height="3.135"/>
		<rect x="712.686" y="193.278" width="88.887" height="3.136"/>
	</g>
	<rect x="698.874" y="111.89" width="115.687" height="6.274"/>
</g>
</svg>
