<?xml version="1.0" encoding="utf-8"?>
<!-- Generator: Adobe Illustrator 16.0.0, SVG Export Plug-In . SVG Version: 6.00 Build 0)  -->
<!DOCTYPE svg PUBLIC "-//W3C//DTD SVG 1.1//EN" "http://www.w3.org/Graphics/SVG/1.1/DTD/svg11.dtd">
<svg version="1.1" id="Layer_1" xmlns="http://www.w3.org/2000/svg" xmlns:xlink="http://www.w3.org/1999/xlink" x="0px" y="0px"
	 width="1400px" height="164px" viewBox="0 0 1400 164" enable-background="new 0 0 1400 164" xml:space="preserve">
<g>
	<g>
		<ellipse cx="1130.894" cy="114.655" rx="21.139" ry="5.637"/>
		<g>
			<path fill="#FFFFFF" d="M1151.753,66.805c0,19.571-21.141,36.534-21.141,36.534s-21.139-16.896-21.139-36.534
				c0-11.675,9.463-21.14,21.139-21.14S1151.753,55.13,1151.753,66.805z"/>
			<path d="M1130.614,105.967l-1.283-1.026c-0.895-0.715-21.91-17.746-21.91-38.136c0-12.788,10.404-23.191,23.191-23.191
				c12.789,0,23.191,10.403,23.191,23.191c0,20.322-21.014,37.417-21.906,38.134L1130.614,105.967z M1130.612,47.718
				c-10.525,0-19.088,8.562-19.088,19.087c0,15.694,14.609,29.861,19.084,33.831c4.471-3.986,19.092-18.217,19.092-33.831
				C1149.7,56.28,1141.136,47.718,1130.612,47.718z"/>
		</g>
		<circle cx="1130.613" cy="66.511" r="9.69"/>
	</g>
	<g>
		<g>
			<rect x="1309.576" y="56.236" fill="#FFFFFF" width="71.518" height="53.483"/>
			<path d="M1383.146,111.772h-75.623V54.185h75.623V111.772z M1311.629,107.668h67.414v-49.38h-67.414V107.668z"/>
		</g>
		
			<rect x="1340.845" y="95.346" transform="matrix(0.8018 0.5975 -0.5975 0.8018 327.7181 -795.4614)" width="44.675" height="2.052"/>
		
			<rect x="1305.02" y="68.652" transform="matrix(0.8019 0.5975 -0.5975 0.8019 304.5792 -779.2376)" width="44.677" height="2.053"/>
		
			<rect x="1326.397" y="74.086" transform="matrix(0.5991 0.8007 -0.8007 0.5991 609.3461 -1024.2106)" width="2.054" height="44.574"/>
		
			<rect x="1362.157" y="47.264" transform="matrix(0.599 0.8007 -0.8007 0.599 602.379 -1063.6367)" width="2.053" height="44.732"/>
		<circle cx="1345.336" cy="82.978" r="9.631"/>
	</g>
	<g>
		<g>
			<path fill="#FFFFFF" d="M954.143,102.553c0,2.436-1.975,4.41-4.408,4.41h-67.688c-2.436,0-4.41-1.975-4.41-4.41V63.403
				c0-2.434,1.975-4.408,4.41-4.408h67.688c2.434,0,4.408,1.975,4.408,4.408V102.553z"/>
			<path d="M949.734,109.015h-67.688c-3.562,0-6.463-2.899-6.463-6.462V63.403c0-3.562,2.9-6.46,6.463-6.46h67.688
				c3.562,0,6.461,2.898,6.461,6.46v39.149C956.195,106.115,953.297,109.015,949.734,109.015z M882.047,61.048
				c-1.301,0-2.357,1.057-2.357,2.355v39.149c0,1.3,1.057,2.357,2.357,2.357h67.688c1.301,0,2.357-1.058,2.357-2.357V63.403
				c0-1.299-1.057-2.355-2.357-2.355H882.047z"/>
		</g>
		<rect x="877.637" y="71.401" width="76.506" height="9.805"/>
		<rect x="889.465" y="89.484" width="52.852" height="2.053"/>
	</g>
	<g>
		<g>
			<rect x="242.772" y="46.956" fill="#FFFFFF" width="57.9" height="72.047"/>
			<path d="M302.726,121.055H240.72V44.903h62.006V121.055z M244.823,116.95h53.797V49.008h-53.797V116.95z"/>
		</g>
		<g>
			<g>
				<rect x="261.282" y="102.749" width="28.002" height="2.053"/>
				<rect x="261.282" y="93.054" width="28.002" height="2.053"/>
				<rect x="261.282" y="83.361" width="28.002" height="2.052"/>
				<rect x="261.282" y="73.666" width="28.002" height="2.052"/>
				<rect x="254.163" y="102.749" width="2.846" height="2.053"/>
				<rect x="254.163" y="93.054" width="2.846" height="2.053"/>
				<rect x="254.163" y="83.361" width="2.846" height="2.052"/>
				<rect x="254.163" y="73.666" width="2.846" height="2.052"/>
			</g>
			<rect x="254.163" y="59.31" width="35.121" height="5.746"/>
		</g>
	</g>
	<g>
		<g>
			<g>
				<path fill="#FFFFFF" d="M721.371,89.049c-4.135,17.481-18.981,23.009-22.445,21.798c-3.47-1.215-14.438-12.062-10.303-29.547
					c4.136-17.478,25.278-33.757,25.278-33.757S725.506,71.57,721.371,89.049z"/>
				<path d="M700.072,113.058c-0.688,0-1.303-0.092-1.824-0.273c-3.752-1.314-16.189-12.644-11.621-31.957
					c4.254-17.979,25.136-34.228,26.022-34.91l2.001-1.541l1.099,2.274c0.487,1.009,11.873,24.891,7.619,42.871
					C719.434,106.153,706.255,113.058,700.072,113.058z M713.121,50.842c-5.298,4.515-19.324,17.505-22.502,30.931
					c-3.873,16.385,6.473,26.258,8.984,27.138c0,0,0.135,0.044,0.469,0.044c4.263,0,15.87-5.863,19.303-20.378
					C722.551,75.149,715.834,57.251,713.121,50.842z"/>
			</g>
			
				<rect x="695.746" y="110.708" transform="matrix(0.9731 0.2304 -0.2304 0.9731 45.2643 -157.6924)" width="4.103" height="8.493"/>
		</g>
		<g>
			<g>
				<path fill="#FFFFFF" d="M713.723,84.874c0,17.963-13.174,26.758-16.826,26.376c-3.654-0.381-16.826-8.413-16.826-26.376
					c0-17.964,16.826-38.675,16.826-38.675S713.723,66.91,713.723,84.874z"/>
				<path d="M697.137,113.314c-0.16,0-0.311-0.008-0.455-0.023c-3.951-0.412-18.664-8.566-18.664-28.417
					c0-18.48,16.58-39.101,17.285-39.969l1.594-1.96l1.592,1.96c0.707,0.868,17.286,21.488,17.286,39.969
					C715.774,103.349,702.545,113.314,697.137,113.314z M696.896,49.589c-4.115,5.613-14.774,21.486-14.774,35.285
					c0,16.84,12.341,24.06,14.987,24.335l0.027,0.001c2.875,0,14.533-7.827,14.533-24.336
					C711.67,71.075,701.012,55.202,696.896,49.589z"/>
			</g>
			<rect x="695.87" y="46.199" width="2.052" height="65.062"/>
			<rect x="694.689" y="111.261" width="4.105" height="8.496"/>
			<polygon points="696.668,68.719 686.338,61.522 687.511,59.839 696.691,66.234 706.297,59.827 707.436,61.534 			"/>
			<polygon points="696.59,79.972 682.876,70.417 684.049,68.734 696.615,77.489 709.76,68.726 710.897,70.433 			"/>
			<polygon points="696.53,91.229 680.167,79.827 681.34,78.144 696.557,88.745 712.469,78.132 713.609,79.839 			"/>
			<polygon points="696.527,102.483 679.912,90.908 681.084,89.225 696.551,99.999 712.726,89.211 713.865,90.918 			"/>
		</g>
	</g>
	<g>
		<path d="M484.87,49.395c-2.771,0-5.234,1.334-6.764,3.393c-1.527-2.059-3.988-3.393-6.762-3.393c-4.643,0-8.4,3.733-8.4,8.341
			c0,9.36,13.014,18.007,15.162,18.007c2.152,0,15.164-8.646,15.164-18.007C493.271,53.128,489.513,49.395,484.87,49.395z"/>
		<g>
			<path fill="#FFFFFF" d="M503.507,91.159c0,14.028-11.373,25.402-25.402,25.402c-14.031,0-25.404-11.374-25.404-25.402
				l-0.021-8.682h50.828V91.159z"/>
			<path d="M478.104,118.614c-15.141,0-27.457-12.316-27.457-27.455l-0.025-10.734h54.938v10.734
				C505.56,106.298,493.243,118.614,478.104,118.614z M454.735,84.529l0.016,6.626c0,12.88,10.477,23.354,23.354,23.354
				c12.875,0,23.352-10.475,23.352-23.351v-6.63H454.735z"/>
		</g>
		<g>
			<path fill="#FFFFFF" d="M520.218,90.829c0,4.615-3.742,8.356-8.355,8.356s-8.355-3.741-8.355-8.356
				c0-4.612,3.742-8.352,8.355-8.352S520.218,86.217,520.218,90.829z"/>
			<path d="M511.862,101.237c-5.738,0-10.406-4.668-10.406-10.408c0-5.736,4.668-10.404,10.406-10.404s10.406,4.668,10.406,10.404
				C522.269,96.569,517.601,101.237,511.862,101.237z M511.862,84.529c-3.475,0-6.303,2.825-6.303,6.3
				c0,3.476,2.828,6.304,6.303,6.304s6.303-2.828,6.303-6.304C518.165,87.354,515.337,84.529,511.862,84.529z"/>
		</g>
		<rect x="452.7" y="92.223" width="51.012" height="2.052"/>
	</g>
	<g>
		<g>
			<rect x="28.052" y="74.001" fill="#FFFFFF" width="57.898" height="44.332"/>
			<path d="M88.002,120.386H25.999V71.949h62.003V120.386z M30.104,116.281h53.793V76.054H30.104V116.281z"/>
		</g>
		<rect x="28.298" y="76.199" width="57.405" height="10.396"/>
		<g>
			<polygon fill="#FFFFFF" points="57.002,47.625 18.905,75.732 18.905,79.969 95.096,79.969 95.096,75.732 			"/>
			<path d="M97.147,82.021H16.854v-7.324l40.148-29.621l40.146,29.621V82.021z M20.958,77.917h72.086v-1.148L57.002,50.175
				L20.958,76.769V77.917z"/>
		</g>
		<path d="M65.429,119.359H48.571v-18.697c0-4.646,3.781-8.427,8.426-8.427c4.646,0,8.425,3.78,8.425,8.427L65.429,119.359z
			 M50.624,117.308h12.752l-0.006-16.646c0-3.515-2.859-6.374-6.373-6.374s-6.373,2.859-6.373,6.374V117.308z"/>
	</g>
</g>
</svg>
