<?xml version="1.0" encoding="utf-8"?>
<!-- Generator: Adobe Illustrator 16.0.0, SVG Export Plug-In . SVG Version: 6.00 Build 0)  -->
<!DOCTYPE svg PUBLIC "-//W3C//DTD SVG 1.1//EN" "http://www.w3.org/Graphics/SVG/1.1/DTD/svg11.dtd">
<svg version="1.1" id="Layer_1" xmlns="http://www.w3.org/2000/svg" xmlns:xlink="http://www.w3.org/1999/xlink" x="0px" y="0px"
	 width="1400px" height="117px" viewBox="0 0 1400 117" enable-background="new 0 0 1400 117" xml:space="preserve">
<g>
	<g>
		<path d="M1302.922,108.328c-3.408,0-10.985-6.032-10.985-11.551c0-5.521,24.089-30.578,24.089-30.578l8.019,5.609
			C1324.044,71.809,1306.33,108.328,1302.922,108.328z"/>
		<path d="M1355.521,9.755l-36.145,51.659l24.553,17.169c0,0,9.025-4.913,26.234-19.491c-6.293,8.208-12.91,16.186-20.311,23.634
			l4.006,2.804C1378.84,63.806,1390,33.868,1390,33.868L1355.521,9.755z M1355.664,34.663c-2.241,0.07-4.109-1.683-4.182-3.914
			c-0.073-2.236,1.677-4.105,3.92-4.175c2.232-0.076,4.102,1.676,4.176,3.912C1359.648,32.717,1357.896,34.587,1355.664,34.663z"/>
	</g>
	<g>
		<path d="M947.425,79.536c-24.987,0-45.315-20.329-45.315-45.318c0-7.947-6.44-14.396-14.395-14.396
			c-7.952,0.001-14.394,6.45-14.394,14.396c0,40.863,33.244,74.109,74.104,74.109c7.953,0,14.398-6.446,14.398-14.395
			C961.823,85.978,955.378,79.536,947.425,79.536z M893.183,71.891c-2.729-3.426-5.11-7.169-7.022-11.167
			c-3.853-8.003-5.741-16.894-6.48-25.693l-0.004-0.03c-0.107-1.28,0.844-2.407,2.126-2.515c1.279-0.106,2.404,0.844,2.514,2.125
			c0.005,0.067,0.011,0.14,0.007,0.206c-0.02,4.267,0.228,8.49,0.851,12.685c0.624,4.188,1.635,8.325,3.126,12.309
			c1.486,3.984,3.454,7.807,5.824,11.396c2.362,3.599,5.109,6.964,7.997,10.206C898.957,78.443,895.904,75.327,893.183,71.891z"/>
		<polygon points="965.106,91.904 971.893,84.757 971.893,101.283 965.106,94.131 		"/>
		<polygon points="885.409,16.588 878.167,8.672 894.699,8.672 888.511,16.588 		"/>
	</g>
	<g>
		<path d="M343.39,22.964c0,0.841-0.684,1.522-1.527,1.522H327.92c-0.841,0-1.527-0.681-1.527-1.522V11.28
			c0-0.841,0.686-1.522,1.527-1.522h13.942c0.841,0,1.527,0.681,1.527,1.522V22.964z"/>
		<path d="M343.39,42.293V30.151h-16.996v12.142C313.932,45.991,306,57.114,306,70.26c0,0.068,0,31.915,0,31.915
			c0,3.584,2.427,6.153,6.011,6.153h45.585c3.585,0,6.188-2.568,6.188-6.153c0,0,0-31.846,0-31.915
			C363.785,57.114,355.854,45.992,343.39,42.293z M315.686,62.663c2.237-6.366,7.1-11.513,13.348-14.121
			c0.795-0.332,1.701,0.044,2.031,0.834c0.329,0.791-0.042,1.701-0.834,2.031c-5.437,2.27-9.671,6.748-11.615,12.286
			c-0.225,0.638-0.824,1.04-1.465,1.04c-0.169,0-0.343-0.029-0.514-0.088C315.828,64.359,315.4,63.472,315.686,62.663z
			 M356.985,92.25c0,2.07-2.052,3.616-4.116,3.616h-36.132c-2.062,0-3.939-1.546-3.939-3.616V77.076
			c0-2.072,1.875-3.869,3.939-3.869h36.132c2.064,0,4.116,1.797,4.116,3.869V92.25z"/>
		<rect x="320.604" y="78.555" transform="matrix(-0.707 -0.7072 0.7072 -0.707 490.0541 372.354)" width="3.104" height="12.226"/>
		
			<rect x="316.045" y="83.106" transform="matrix(-0.7069 -0.7073 0.7073 -0.7069 490.0316 372.3575)" width="12.227" height="3.104"/>
		
			<rect x="333.256" y="78.553" transform="matrix(-0.7072 -0.707 0.707 -0.7072 511.7187 381.2605)" width="3.104" height="12.228"/>
		
			<rect x="328.694" y="83.115" transform="matrix(-0.7072 -0.707 0.707 -0.7072 511.7176 381.2595)" width="12.227" height="3.104"/>
		
			<rect x="345.893" y="78.549" transform="matrix(-0.7073 -0.7069 0.7069 -0.7073 533.3621 390.1473)" width="3.105" height="12.228"/>
		<rect x="341.34" y="83.107" transform="matrix(-0.707 -0.7072 0.7072 -0.707 533.2238 390.2413)" width="12.226" height="3.105"/>
	</g>
	<g>
		<path d="M84.508,10.264c-0.285-0.322-0.697-0.505-1.125-0.505H11.5c-0.432,0-0.84,0.184-1.125,0.505
			c-0.283,0.323-0.418,0.75-0.364,1.179l11.982,95.252c0.027,0.217,0.11,0.408,0.218,0.587c0.266,0.553,0.733,1.045,1.269,1.045
			h47.921c0.533,0,1.003-0.493,1.269-1.045c0.108-0.177,0.19-0.37,0.218-0.587L84.87,11.443
			C84.924,11.014,84.791,10.587,84.508,10.264z M78.124,15.358l-1.766,14.562H28.28l6.604,64.957c0.055,0.535-0.334,1.146-0.87,1.2
			c-0.52,0.052-0.985-0.512-1.062-1.022l-9.717-65.134h-4.709l-1.765-14.562H78.124z"/>
	</g>
	<g>
		<path d="M225.435,63.529v10.207c3.943,1.015,7.185,4.634,7.185,9.209c0,4.898-3.71,8.729-8.399,9.42
			c-0.708,3.537-1.931,7.262-3.435,10.219h1.794c10.952,0,20.077-8.658,20.077-19.613C242.657,72.844,235.292,64.696,225.435,63.529
			z"/>
		<path d="M199.842,45.137c-0.781,0-1.569-0.265-2.214-0.807c-1.448-1.214-1.646-3.362-0.456-4.82
			c0.346-0.449,3.038-4.254-0.349-10.417c-5.802-10.557,0.124-17.824,0.38-18.127c1.224-1.457,3.398-1.649,4.857-0.426
			c1.459,1.224,1.649,3.4,0.425,4.858c-0.287,0.37-3.019,4.182,0.382,10.373c5.806,10.562-0.128,17.83-0.382,18.134
			C201.804,44.718,200.826,45.137,199.842,45.137z"/>
		<path d="M181.173,45.137c-0.781,0-1.566-0.265-2.211-0.806c-1.448-1.213-1.648-3.362-0.458-4.819
			c0.347-0.448,3.037-4.255-0.348-10.419c-5.803-10.555,0.125-17.822,0.379-18.126c1.224-1.457,3.399-1.649,4.859-0.426
			c1.459,1.224,1.648,3.4,0.425,4.858c-0.285,0.37-3.02,4.182,0.382,10.373c5.8,10.561-0.125,17.829-0.379,18.133
			C183.135,44.717,182.159,45.137,181.173,45.137z"/>
		<path d="M162.501,45.137c-0.78,0-1.567-0.265-2.215-0.807c-1.445-1.213-1.644-3.362-0.456-4.819
			c0.345-0.448,3.039-4.254-0.348-10.418c-5.801-10.556,0.125-17.823,0.381-18.126c1.223-1.457,3.398-1.649,4.857-0.426
			c1.458,1.224,1.648,3.4,0.423,4.858c-0.285,0.37-3.021,4.182,0.381,10.373c5.805,10.562-0.125,17.829-0.381,18.133
			C164.462,44.718,163.486,45.137,162.501,45.137z"/>
		<path d="M143.62,52.142v20.232c0,14.994,7.708,28.068,19.406,35.954h36.304c11.696-7.886,19.205-20.96,19.205-35.954V52.142
			H143.62z M169.873,99.572c-0.357,0.433-0.988,0.51-1.44,0.194c-2.73-1.933-5.202-4.266-7.293-6.929s-3.805-5.643-5.05-8.831
			c-1.25-3.191-2.031-6.558-2.31-10.031l-0.53-9.811c-0.079-1.478,1.055-2.74,2.533-2.819c1.477-0.08,2.74,1.054,2.821,2.531
			c0.003,0.096,0.003,0.196,0,0.288l-0.257,4.864c-0.071,1.627-0.209,3.255-0.198,4.78c0.006,3.005,0.465,6.074,1.361,9
			c1.779,5.874,5.363,11.263,10.215,15.263C170.183,98.445,170.248,99.117,169.873,99.572z"/>
	</g>
	<g>
		<path d="M1199.215,90.726V55.82h2.812c2.576,0,4.665-2.353,4.665-4.929c0-2.578-2.089-4.929-4.665-4.929h-2.812V34.968
			c3.943-2.033,7.838-6.8,7.838-12.343c0-7.386-6.189-13.397-13.576-13.397c-7.388,0-13.44,6.011-13.44,13.397
			c0,5.613,3.407,10.42,8.336,12.412v10.927h-3.806c-2.578,0-4.665,2.351-4.665,4.929c0,2.576,2.087,4.929,4.665,4.929h3.806v34.928
			c-11.828-1.731-23.085-9.741-28.174-21.396l-8.53,3.733c6.576,15.062,19.947,25.264,36.704,27.042v3.535
			c0,2.576,2.845,4.665,5.422,4.665s5.421-2.089,5.421-4.665v-3.552c15.771-1.84,29.599-12.019,36.146-27.025l-8.371-3.733
			C1221.927,80.951,1210.059,88.944,1199.215,90.726z M1193.297,18.558c2.241,0,4.066,1.825,4.066,4.066
			c0,2.24-1.825,4.065-4.066,4.065c-2.24,0-4.064-1.825-4.064-4.065C1189.232,20.382,1191.057,18.558,1193.297,18.558z"/>
		<path d="M1242.565,68.148l-1.673-15.74c-0.191-1.825-1.567-2.433-3.046-1.353l-12.793,9.316c-1.48,1.08-1.321,2.575,0.349,3.316
			l14.472,6.421C1241.541,70.855,1242.76,69.967,1242.565,68.148z"/>
		<path d="M1161.552,60.372l-12.797-9.316c-1.479-1.08-2.856-0.473-3.046,1.353l-1.675,15.74c-0.188,1.818,1.024,2.707,2.693,1.961
			l14.468-6.421C1162.871,62.947,1163.028,61.452,1161.552,60.372z"/>
	</g>
	<g>
		<path d="M488.413,34.025c0.006-13.406-11.162-24.27-24.575-24.27c-13.396-0.003-24.616,10.864-24.616,24.268v36.874
			c0,5.887,5.472,9.83,11.359,9.83h27.217c5.893,0,10.639-4.356,10.642-10.246L488.413,34.025z M455.496,68.75
			c-1.307,0.054-2.409-0.963-2.462-2.269c-0.004-0.062-0.004-0.132,0-0.193l1.296-31.537c0.025-0.59,0.521-1.048,1.113-1.024
			c0.558,0.022,1,0.475,1.026,1.024l1.296,31.537C457.817,67.593,456.803,68.695,455.496,68.75z M473.081,68.75
			c-1.308,0.054-2.409-0.963-2.465-2.269c-0.002-0.062-0.002-0.132,0-0.193l1.298-31.537c0.023-0.59,0.521-1.048,1.112-1.024
			c0.561,0.022,1,0.475,1.024,1.024l1.298,31.537C475.4,67.593,474.386,68.695,473.081,68.75z"/>
		<path d="M457,87.381v14.26c0,3.698,3.21,6.686,6.906,6.686c3.694,0,6.906-2.988,6.906-6.686V87.379L457,87.381z"/>
	</g>
	<g>
		<path d="M576.15,86.813c-5.945,0-10.759,4.815-10.759,10.757c0,5.945,4.813,10.757,10.759,10.757
			c5.943,0,10.762-4.812,10.762-10.757C586.913,91.629,582.094,86.813,576.15,86.813z M576.15,102.189
			c-2.547,0-4.615-2.067-4.615-4.618c0-2.55,2.068-4.617,4.615-4.617c2.553,0,4.621,2.067,4.621,4.617
			C580.771,100.122,578.703,102.189,576.15,102.189z"/>
		<path d="M642.693,86.813c-5.945,0-10.76,4.815-10.76,10.757c0,5.945,4.814,10.757,10.76,10.757
			c5.941,0,10.759-4.812,10.759-10.757C653.452,91.629,648.635,86.813,642.693,86.813z M642.693,102.189
			c-2.552,0-4.616-2.067-4.616-4.618c0-2.55,2.064-4.617,4.616-4.617c2.547,0,4.615,2.067,4.615,4.617
			C647.309,100.122,645.241,102.189,642.693,102.189z"/>
		<path d="M664.705,88.673h-1.48V71.012l-16.632-9.474l-9.647-27.115c0-1.12-1.036-1.772-2.16-1.772h-77.021
			c-1.12,0-2.012,0.394-2.012,1.513v54.51h-1.408c-1.124,0-2.024,1.14-2.024,2.26v4.607c0,1.122,0.9,2.281,2.024,2.281h3.419h4.43
			c0.237-9.148,6.384-13.533,13.956-13.533s13.719,4.385,13.96,13.533h38.624c0.239-9.148,6.384-13.533,13.959-13.533
			c7.566,0,13.718,4.385,13.957,13.533h4.42h3.429c1.118,0,2.03-1.035,2.03-2.156l0.205-4.788
			C666.734,89.76,665.821,88.673,664.705,88.673z M593.481,38.368h8.003v7.304c0,2.022-1.667,3.66-3.997,3.66
			s-4.006-1.639-4.006-3.66V38.368z M578.619,38.368h8.003v7.304c0,2.022-1.675,3.66-4.008,3.66c-2.322,0-3.995-1.639-3.995-3.66
			V38.368z M564.897,45.672v-7.304h8.003v7.304c0,2.022-1.671,3.66-4,3.66C566.568,49.332,564.897,47.693,564.897,45.672z
			 M569.472,70.38V52.133l41.773,18.247H569.472z M616.347,45.672c0,2.022-2.249,3.66-4.575,3.66c-2.329,0-4.572-1.639-4.572-3.66
			v-7.304h9.147V45.672z M624.35,60.091V38.368h4.384c0.806,0,1.454,1.041,1.454,1.84l6.942,19.883H624.35z"/>
	</g>
	<g>
		<path d="M749.799,33.986l1.651,4.988l9.915-18.035c0,0-14.747-0.312-31.492,17.316l7.768,10.775
			C739.612,44.596,744.275,37.979,749.799,33.986z"/>
		<g>
			<path d="M746.788,108.328c4.915-11.578,5.771-24.472,2.559-36.507c-12.037-3.212-24.93-2.356-36.509,2.56l22.133,11.816
				L746.788,108.328z"/>
			<path d="M794.979,65.889c14.691-14.692,19.522-35.5,14.526-54.228c-13.983-3.732-29.123-1.98-42.013,5.26
				c-0.032,0.348-0.069,0.699-0.105,1.087c-0.05,0.502-0.106,1.038-0.162,1.602c-0.073,0.566-0.015,1.161-0.03,1.784
				c0,0.627,0.002,1.278,0.002,1.954c0.069,0.672,0.141,1.366,0.214,2.081c0.034,0.361,0.071,0.725,0.107,1.093
				c0.052,0.368,0.145,0.73,0.214,1.102c0.15,0.749,0.302,1.513,0.46,2.289c0.491,1.5,0.866,3.12,1.581,4.643
				c0.577,1.587,1.453,3.061,2.25,4.592c0.961,1.423,1.856,2.92,2.99,4.202c1.024,1.385,2.289,2.507,3.425,3.701
				c0.632,0.529,1.251,1.047,1.857,1.555c0.311,0.249,0.603,0.519,0.915,0.748c0.321,0.218,0.637,0.434,0.951,0.646
				c0.629,0.429,1.241,0.845,1.834,1.249c0.63,0.343,1.236,0.675,1.821,0.994c0.592,0.304,1.138,0.661,1.7,0.884
				c0.562,0.234,1.094,0.457,1.593,0.668c0.506,0.211,0.976,0.41,1.411,0.593c0.456,0.139,0.874,0.269,1.251,0.384
				c1.512,0.46,2.376,0.723,2.376,0.723s-0.89-0.16-2.445-0.441c-0.389-0.068-0.818-0.148-1.286-0.232
				c-0.462-0.133-0.961-0.274-1.492-0.428c-0.537-0.154-1.108-0.317-1.711-0.491c-0.608-0.161-1.196-0.454-1.841-0.694
				c-0.639-0.256-1.306-0.522-1.994-0.801c-0.661-0.342-1.34-0.696-2.043-1.061c-0.353-0.185-0.711-0.372-1.07-0.558
				c-0.354-0.202-0.691-0.441-1.044-0.664c-0.7-0.458-1.415-0.927-2.146-1.404c-1.338-1.102-2.828-2.154-4.097-3.493
				c-1.381-1.239-2.535-2.721-3.764-4.161c-1.068-1.55-2.22-3.073-3.071-4.744c-0.989-1.604-1.634-3.343-2.381-4.985
				c-0.281-0.854-0.561-1.697-0.832-2.522c-0.129-0.414-0.281-0.82-0.389-1.231c-0.093-0.416-0.185-0.825-0.275-1.23
				c-0.181-0.814-0.356-1.604-0.525-2.37c-0.097-0.781-0.188-1.533-0.277-2.257c-0.029-0.274-0.063-0.541-0.101-0.809
				c-2.119,1.591-4.154,3.344-6.085,5.273c-14.691,14.691-19.524,35.497-14.526,54.224C759.48,85.412,780.285,80.581,794.979,65.889
				z M786.459,29.399c0-2.934,2.38-5.313,5.31-5.315c2.937,0,5.312,2.381,5.312,5.315c0,2.932-2.377,5.309-5.312,5.31
				C788.837,34.709,786.457,32.332,786.459,29.399z"/>
		</g>
		<path d="M793.542,61.183c0,0-0.589,15.747-12.793,27.95l-10.485-15.64L793.542,61.183z"/>
	</g>
	<g>
		<polygon points="1059.445,37.757 1065.912,31.619 1041.125,31.62 1047.586,37.757 		"/>
		<path d="M1051.546,29.232V11.728c0-1.088,0.884-1.971,1.972-1.971c1.09,0,1.971,0.883,1.971,1.971v17.504H1051.546z"/>
		<path d="M1053.521,45.834c-15.722,0.001-28.451,12.736-28.451,28.454v24.228c0,5.418,12.737,9.812,28.447,9.812
			c15.711,0,28.447-4.394,28.447-9.812V74.288C1081.965,58.57,1069.229,45.834,1053.521,45.834z M1071.295,102.069
			c-4.848,1.494-11.162,2.316-17.777,2.316s-12.928-0.822-17.777-2.316c-4.645-1.43-6.342-2.972-6.687-3.553
			c0.345-0.581,2.042-2.124,6.687-3.553c4.85-1.494,11.162-2.316,17.777-2.316s12.93,0.822,17.777,2.316
			c4.646,1.429,6.342,2.972,6.688,3.553C1077.637,99.097,1075.94,100.639,1071.295,102.069z"/>
		<g>
			<path d="M1053.984,94.841c0.919,0.098,2.134,0.295,2.643,1.11c0.535,0.862,0.643,2.299,0.1,3.159
				c-0.472,0.742-1.571,1.122-2.501,0.921c-0.888-0.191-1.8-0.843-2.549-1.311c-0.708-0.443-1.479-0.674-2.194-1.076
				c-1-0.56-2.291-1.628-1.289-2.739c0.848-0.938,2.574-0.489,3.674-0.286C1052.476,94.733,1053.24,94.76,1053.984,94.841z"/>
			<path d="M1036.604,96.6c1.069-0.47,2.251-0.637,3.408-0.824c1.17-0.189,2.393-0.329,3.55,0.01
				c0.466,0.138,0.909,0.496,0.907,0.993c-0.002,0.857-0.783,1.433-1.132,2.172c-0.295,0.625-0.571,1.244-1.319,1.5
				c-1.082,0.367-2.176-0.116-3.227-0.333c-0.926-0.195-1.929-0.165-2.781-0.6c-0.63-0.321-1.105-1.033-0.903-1.693
				c0.155-0.508,0.924-0.958,1.399-1.18C1036.539,96.629,1036.571,96.615,1036.604,96.6z"/>
			<path d="M1046.057,99.459c0.289-0.285,0.6-0.5,0.872-0.581c0.901-0.265,1.889,0.435,2.628,0.819
				c0.749,0.388,1.49,0.93,1.775,1.726c0.436,1.218-1.005,1.32-1.937,1.266c-0.951-0.056-3.733,0.122-4.261-0.836
				C1044.79,101.229,1045.363,100.143,1046.057,99.459z"/>
			<path d="M1066.598,97.59c-1.361,0.811-1.621,3.188,0.448,3.34c1.122,0.082,5.679-0.855,4.824-2.434
				c-0.753-1.391-3.44-1.502-4.826-1.101C1066.884,97.44,1066.736,97.508,1066.598,97.59z"/>
			<path d="M1062.571,95.309c2.039,0.078,1.665,1.621,0.826,3.22c-0.555,1.057,0.41,2.451-0.503,3.337
				c-0.82,0.797-3.197,1.233-3.918,0.063c-0.827-1.341,0.249-3.629,1.048-4.797c0.476-0.694,1.132-1.498,1.942-1.767
				C1062.107,95.318,1062.325,95.301,1062.571,95.309z"/>
		</g>
		<path d="M1059.615,43.771h-12.197c-1.088,0-1.972-0.883-1.972-1.971c0-1.089,0.884-1.972,1.972-1.972h12.197
			c1.091,0,1.973,0.883,1.973,1.972C1061.588,42.888,1060.706,43.771,1059.615,43.771z"/>
	</g>
</g>
</svg>
