<?xml version="1.0" encoding="utf-8"?>
<!-- Generator: Adobe Illustrator 16.0.0, SVG Export Plug-In . SVG Version: 6.00 Build 0)  -->
<!DOCTYPE svg PUBLIC "-//W3C//DTD SVG 1.1//EN" "http://www.w3.org/Graphics/SVG/1.1/DTD/svg11.dtd">
<svg version="1.1" id="Layer_1" xmlns="http://www.w3.org/2000/svg" xmlns:xlink="http://www.w3.org/1999/xlink" x="0px" y="0px"
	 width="1400px" height="327px" viewBox="0 0 1400 327" enable-background="new 0 0 1400 327" xml:space="preserve">
<g>
	<g>
		<g>
			<path d="M1133.82,156.297c2.027-0.285,12.576-4.479,13.617-3.033c1.043,1.443-0.879,4.215,1.926,3.492
				c2.807-0.725,6.508-6.742,8.127-6.732c11.029,0.066,41.174,9.619,53.049,12.6c11.873,2.984,39.121,9.16,39.121,9.16
				s3.229,1.879,2.166,2.822c-0.98,0.867-25.146,7.361-25.475,8.65c-0.323,1.291,17.406,1.412,19.998,0.631
				c25.781-7.73,15.22-17.197,20.465-18.719c8.649-2.508,16.051,5.285,16.365,9.406c0.324,4.281-24.759,14.1-51.963,16.422
				c-0.307,0.027-1.32,0.152-0.787,0.506c28.301,16.842,63.711,34.98,157.02,19.998c4.891-1.393-39.158-6.152-39.158-6.152
				s-9.807-5.537-21.578-6.807c-8.287-0.893-5.27-4.604-5.645-4.787l4.299-2.73c2.621,1.893,4.98,3.434,5.963,3.312
				s7.506-4.92,8.793-6.002c0,0,2.635,1.102,3.273,0.553c0.637-0.551,0.842-7.119,0.842-7.119s3.52-1.217,4.043-1.723
				c0.398-0.391,2.254-6.479,3.092-9.271c3.203,0.521,6.889,1.334,6.889,1.334s-14.713-30.654-33.535-24.641
				c0,0-7.256-4.584-13.391,3.328c-4.678,6.043-6.508,15.748-7.113,20.014c-6.547-3.615-19.067-10.506-23.828-12.977
				c-1.848-0.961-4.82-2.164-10.226-3.123c-3.433-0.145-9.858-0.402-12.485-0.498c-3.633-0.137-20.898-4.879-22.438-4.574
				c-1.472,0.295,15.656,7.535,19.338,8.863c-7.461,14.043-25.311-6.52-31.965-6.129c-26.749,1.576-47.646-5.27-47.646-5.27
				c3.209-3.199,15.404-2.355,23.43-1.785c9.765,0.693,15.824,1.025,14.174,0.631c-12.623-3.029-40.727-3.756-44.011-3.453
				c-3.284,0.301-13.497-1.07-16.767-1.021c-3.268,0.053-15.158,5.611-15.984,6.814
				C1134.987,149.49,1131.795,156.582,1133.82,156.297z M1336.252,182.104c0.564-1.721,1.93-3.859,3.039-4.832
				c1.104-0.977,3.035-0.854,4.289-1.34c1.256-0.488-0.08-5.127,0.809-5.828c0.225-0.178,2.736,0.137,3.893,0.268
				c-0.35,3.043-0.949,8.264-1.209,8.475c-0.365,0.291-5.838,0.664-6.146,1.342c-0.219,0.484,1.016,1.357,1.213,1.859
				c0.248,0.645,0.195,4.643-0.27,4.799c-0.365,0.123-3.02-1.396-3.02-1.396s-6.832,5.098-7.77,5.039
				c-0.414-0.025-1.906-1.172-1.924-1.82C1329.135,188.018,1335.689,183.824,1336.252,182.104z"/>
			<path d="M1286.359,221.416c-43.923-8.496-65.123-29.002-91.878-38.439c-18.851-6.648-39.433-6.699-56.982-4.432
				c0,0,25.975,5.008,62.868,22.66C1242.598,221.416,1286.359,221.416,1286.359,221.416z"/>
			<path d="M1322.215,237.773"/>
			<path d="M1309.447,225.24c0,0-78.696,7.555-133.156-8.166c-54.463-15.721-90.505,13.92-90.505,13.92s54.308,0.508,96.505,14.42
				C1227.701,260.387,1309.447,225.24,1309.447,225.24z"/>
			<path d="M1360.217,222.934c0,0-57.586,10.875-94.387,31.385c-42.232,23.541-93.463,28.846-133.848,15.234
				c0,0,62.086,55.744,140.773,3.809C1345.447,225.383,1360.217,222.934,1360.217,222.934z"/>
			<path d="M1335.984,278.551c-22.035,49.154-89.886,39.117-89.886,39.117c19.045-4.471,54.233-14.195,76.116-51.842
				c20.029-34.469,66.504-42.893,66.504-42.893S1353.531,239.416,1335.984,278.551z"/>
		</g>
		<path d="M1060.619,286c-0.363-1.633-1.47-1.762-1.799-1.762c-0.355,0-0.967,0.113-2.857,0.475
			c-4.178,0.805-12.864,2.473-16.332,1.752c-3.258-0.674-9.525-0.768-14.564-0.844c-2.51-0.039-4.877-0.074-5.652-0.186
			c-0.861-0.123-8.983-0.908-19.091-1.873c-5.562-2.004-18.177-5.93-19.001-5.93c-3.424,0-9.814-2.541-9.814-2.541
			s-17.601-16.414-25.215-23.689s-19.118-10.15-19.118-10.15s-22.676-26.398-26.058-29.443c-2.807-2.523-6.805-4.605-8.1-5.25
			c0.893-0.574,1.707-1.139,2.131-1.443h1.674l1.71-3.053c2.987,0.508,3.599,0.01,3.837-0.189c0.301-0.242,0.473-0.602,0.464-0.877
			c0.114-0.576,1.628-3.703,3.027-6.406l3.251-1.502l5.908-9.326l-0.006-0.004c1.48-3.625,3.285-13.213-4.846-20.938
			c-7.546-7.168-17.215-4.918-21.617-1.789c0,0-4.297-6.453-11.289-2.887c-8.23,4.195-6.109,13.393-12.932,18.168
			c-1.339-0.08-2.254-0.227-2.254-0.227s1.264-0.699,3.61-3.746c1.334-1.734,4.42-13.408,10.399-17.309
			c3.217-1.764,6.264-1.182,8.168-0.453l2.312,1.256l5.416-9.996c7.453-1.221,33.703-12.734,39.119-15.131
			c3.521,3.867,9.575,4.967,11.408,5.215c3.015,3.273,9.533,9.953,12.51,9.951c0.009,0,0.014,0,0.021,0
			c0.626-0.006,1.186-0.254,1.572-0.695c0.732-0.836,1.363-1.561-8.752-17.84l-0.188-0.295l-0.303-0.172
			c-2.341-1.299-14.174-7.781-17.405-7.781c-2.859,0-42.768,10.365-47.744,13.959c-4.498,3.252-32.854,37.506-38.548,50.553
			c-1.278,2.924,3.985-2.537,6.057-5.877c4.759-7.674,15.222-23.844,34.067-42.496c3.599-3.562,43.238-13.447,46.168-13.449
			c1.828,0,10.221,4.197,15.796,7.275c0.841,1.359,1.69,2.756,2.518,4.127c-1.554-1.279-3.313-2.686-4.353-3.357
			c-2.157-1.396-10.66-4.312-10.66-4.312s-44.933,14.076-45.803,14.523c-19.837,10.158-30.455,39.521-30.455,39.521l0.006-0.004
			c-3.104,4.918-6.812,12.324-5.393,13.465c1.779,1.43,9.305-5.322,9.305-5.322h6.316c-6.009,3.451-22.604,12.746-26.873,12.605
			c-1.688-0.051-2.785-2.227-1.782-5.398c1.15-3.639-1.11-2.32-1.969-0.635c-0.856,1.688-3.145,6.674-4.157,10.881
			c-3.136,13.018-3.09,25.104,0.248,58.311c-0.037-0.004-0.062-0.008-0.062-0.008l0.408,2.871c4.545,0.691,18.31-1.062,19.963,0.457
			c2.453,2.248-27.154,2.902-31.808,3.91c-7.528,1.635-6.854,2.848-5.62,3.24c1.07,0.34,14.539-1.879,32.197-1.273
			c0.713,0.186,10.49,6.299,12.824,12.398c-12.521,0.039-39.051-4.814-41.656-4.4c-3.395,0.545-2.95,2.529-2.95,2.529
			s47.944,8.449,48.26,8.564l0.341,0.127l0.021-0.002c2.51,1.949,8.948,4.477,25.542-0.102c2.348,0.191,4.938,0.285,7.463,0.369
			c2.926,0.1,6.824,0.234,9.384,0.594c-2.82,1.648-9.315,5.359-12.915,6.752c-4.684,1.809-7.996,0.168-10.588,0
			s-7.07-1.008-13.455-0.168c-3.986,0.523-59.512-1.85-59.512-1.85c-10.533-12.262-16.172-16.475-16.359-16.57
			c0.668-0.896,3.131-3.771,6.473-4.73c5.25-1.512,0-1.445-2.781-0.439c-3.067,1.102-5.168,2.486-6.332,4.188
			c-1.425,2.068-2.439,6.463-1.514,10.525c0.73,3.221,2.545,5.744,5.244,7.305c1.499,0.863,9.468,5.785,15.379,7.006
			c7.497,1.549,16.545,2.324,26.845,2.324c10.243,0,21.724-0.764,34.146-2.299c3.049-0.127,29.825-1.277,31.383-1.539
			c1.27-0.211,3.734-1.973,5.51-3.604c1.971-1.803,3.154-3.436,3.578-4.887l38.426,3.662c1.811,0.719,15.305,5.953,23.814,6.117
			c8.205,0.156,35.38-0.975,39.793-1.164c1.475,1.35,6.034,5.223,9.815,5.223c4.743,0,9.335-4.992,11.741-8.113l1.027-0.916
			c1.919-1.131,5.865-1.699,9.425-2.209c3.616-0.52,7.032-1.008,9.337-2.084C1059.931,293.195,1061.175,288.512,1060.619,286z
			 M845.009,241.666c-2.029,2.107-3.991,2.023-5.612,4.922c-1.365,2.445,0.303,13.396,1.74,16.332
			c-2.396,0.219-4.792,0.23-4.792,0.23s-3.614-12.508-3.978-46.525c1.649,1.85,6.316,6.859,12.238,12.135
			C844.527,228.48,848.15,238.4,845.009,241.666z M881.105,177.414c0.732-2.199,2.342-3.666,4.525-2.832
			c1.779,0.676,1.141,5.1,1.605,5.84c0.467,0.736,13.498-0.805,14.557,0.736c1.061,1.541-1.617,2.199-1.697,4.494
			c-0.021,0.662,3.473,2.553,2.84,3.758c0,0-5.598-1.83-6.137-1.291c-0.806,0.801,2.684,4.508,2.727,5.627
			c0.047,1.119-5.123,1.797-6.71-0.666c-2.622-4.062-3.393-0.609-4.409,0.574c-1.015,1.184-3.367,3.604-4.385,0.725
			c-1.012-2.877-0.336-8.871-0.422-9.131c-0.064-0.207-1.342-0.729-1.866-0.938C880.719,183.396,879.756,181.461,881.105,177.414z
			 M878.57,183.82c0,0,0.219,1.195,1.875,1.693c-1.18,5.26-4.981,10.57-4.981,10.57s-1.695-0.09-3.046-2.137
			C870.739,191.408,877.303,184.955,878.57,183.82z M862.705,209.334c-4.428-6.914,1.168-14.211,4.275-17.453
			c-0.085,1.33,0.133,2.863,0.928,4.57c0.837,1.803,1.549,3.254,2.242,4.443c0,0.027,0.002,0.057,0,0.086
			c-0.086,2.281,5.892,6.619,7.614,7.189c0.946,0.314,3.446,0.861,5.808,1.074c-1.175,1.805-2.762,4.098-4.244,5.781
			C876.491,218.24,868.627,218.576,862.705,209.334z M957.486,279.527c-0.83-0.389-3.814-1.777-6.477-2.812
			c-0.917-0.357-5.849-1.895-13.312-4.227c-10.18-3.184-31.162-12.984-35.391-11.32c-10.612,4.17-14.422,15.965-16.236,15.965
			c0.363-9.48,11.271-17.281,11.277-18.158c0.016-2.027-15.973-3.064-18.111-9.238c-0.899-2.6-0.442-9.779-0.129-10.133
			c2.602-2.922,3.736-6.895,3.977-7.828c3.395-1.576,8.063-4.373,9.836-4.232c2.132,0.17,28.16,27.752,31.209,29.445
			c2.943,1.637,38.492,21.314,42.201,23.367C961.762,279.93,958.481,279.623,957.486,279.527z"/>
	</g>
	<g>
		<g>
			<path d="M132.073,101.848l-7.53-9.354c-1.805,0.174-6.185,0.463-7.227-0.748c-0.923-1.08-1.248-4.146-1.349-5.463
				c-1.011-0.285-2.341-0.805-2.61-1.611c-0.076-0.234-0.311-0.945,1.963-6.186l-0.646-2.463l0.014-0.123
				c0.027-0.225,0.704-5.541,3.385-9.223l2.998,1.141c-4.492,1.688-5.096,7.459-5.213,8.256l1.508,2.508
				c-1.504,2.586-2.781,5.271-2.754,5.746c0.127,0.141,1.156,0.574,2.131,0.809l0.47,0.115l0.029,0.482
				c0.097,1.74,0.328,4.727,1.165,5.008c2.117,0.705,3.013,0.242,7.922-1.492l-1.213,1.873l7.975,9.906L132.073,101.848z"/>
			<path d="M94.301,161.311l26.857-22.229c0,0,27.906-26.547,33.615-31.279c5.713-4.73,1.631-9.301-5.709-13.055
				c-7.346-3.754-16.484,6.689-16.484,6.689s-0.67,3.283-0.998,6.059c-0.325,2.773,3.936-6.223,9.811-8.016
				c5.875-1.795,8.322,0.816,7.506,3.102c-0.814,2.283-21.377,25.947-23.335,27.742s-6.556,2.609-8.011,4.404L94.301,161.311z"/>
			<path d="M82.961,173.705l-6.812-5.178l0.23-0.848c2.353-8.709,3.046-9.006,3.987-9.016c0.756-0.182,4.552-1.645,8.001-3.039
				c2.002-2.475,16.22-19.902,24.168-24.988c4.581-4.078,10.568-10.121,12.59-12.693c2.023-2.572-3.604,10.402-5.518,12.104
				l-5.586,2.74c-7.987,5.045-23.12,22.273-23.911,23.117c-0.789,0.842-1.226,1.115-1.877,2.123
				c-0.653,1.002-6.103,2.836-7.03,3.102c-0.451,0.945,1.441,2.621,1.441,2.621s5.822,2.756,5.998,2.518
				c0.178-0.238,3.798-5.115,3.798-5.115l32.345-26.248l29.221-29.773l1.864,1.828l-29.382,29.928l-31.883,25.869l-2.443,5.977
				L82.961,173.705z"/>
			<path d="M114.111,83.971c0,0,4.761,0,4.926,0.416c0.16,0.412-2.013,2.635-2.013,2.635L114.111,83.971z"/>
			<path d="M117.024,69.127c0,0,0.706-8.691,13.761-8.488c6.385,0.104,18.006,7.291,17.57,15.127c0,0,5.656-1.092,6.529,1.738
				c0.868,2.83-0.192,4.514,4.568,8.92c-1.66,1.225-6.308-0.215-7.397-2.176c0,0,0.027,2.666,2.608,5.439
				c-3.889,1.062-7.688-3.172-8.775-4.693c0,0-1.232,0.996-4.41,1.809c-2.943,0.754-9.537-4.277-9.537-4.277
				s0.646-1.744,0.236-2.969c-0.407-1.225-1.881-2.842-3.352-0.803c0,0-3.017-0.734-3.67-1.141c-0.297-0.188,0.365-3.449-0.52-5.439
				C123.58,69.783,120.72,68.652,117.024,69.127z"/>
			<path d="M115.646,77.156c0,0,3.062,0.455,3.062,0.863c0,0.98-3.015,1.256-3.015,1.256l0.315-0.738L115.646,77.156z"/>
			<path d="M132.418,81.387c0,0-0.305,2.039-3.469,2.861c-0.96,0.504,3.799,0.422,4.613-1.049
				C134.378,81.732,132.418,81.387,132.418,81.387z"/>
			<path d="M119.3,91.586c3.449-0.652,7.297-1.99,9.032-3.289c5.035-3.77,2.543,2.01,2.277,2.969
				c-0.265,0.959-0.285,2.527,1.633,5.303c0.416,0.6,2.378,4.137,2.378,4.137l-2.04,2.938l-3.967-7.133l-3.783-4.699
				C124.83,91.811,115.914,92.229,119.3,91.586z"/>
			<path d="M157.465,171.285c0,0-23.089,7.506-23.742,8.975c-0.651,1.469,6.455,3.705,20.21,0.93
				C167.689,178.416,157.465,171.285,157.465,171.285z"/>
			<path d="M160.193,225.529c-0.525,0.002-6.67-5.043-9.768-8.234c-14.901-15.354-29.537-30.783-30.552-36.082
				c-1.567-8.203,4.138-11.25,6.708-13.227c2.57-1.979,0.691,1.715-1.033,3.502c-1.727,1.787-4.33,2.846-3.109,9.234
				c0.953,4.975,17.762,20.111,28.092,28.756c4.967,4.158-6.281-22.094-16.631-28.582l2.916-1.219
				c15.154,2.473,31.09,40.559,30.553,41.842C166.58,223.396,162.772,225.529,160.193,225.529z"/>
			<path d="M159.05,182.51l-1.521,13.143c0,0,5.346,5.801,7.089,10.482c1.749,4.682,4.42,11.631,5.572,11.713
				c1.15,0.082,11.347-35.338,11.347-35.338H159.05z"/>
			<path d="M226.252,309.453c-29.634,0-53.742-24.109-53.742-53.746c0-29.633,24.108-53.744,53.742-53.744
				c29.635,0,53.747,24.111,53.747,53.744C279.999,285.344,255.887,309.453,226.252,309.453z M226.252,208.492
				c-26.033,0-47.215,21.182-47.215,47.215c0,26.035,21.182,47.219,47.215,47.219c26.037,0,47.219-21.184,47.219-47.219
				C273.471,229.674,252.289,208.492,226.252,208.492z"/>
			<path d="M65.025,309.453c-29.635,0-53.744-24.109-53.744-53.746c0-29.633,24.109-53.744,53.744-53.744
				s53.744,24.111,53.744,53.744C118.77,285.344,94.66,309.453,65.025,309.453z M65.025,208.492
				c-26.035,0-47.219,21.182-47.219,47.215c0,26.035,21.184,47.219,47.219,47.219s47.218-21.184,47.218-47.219
				C112.243,229.674,91.061,208.492,65.025,208.492z"/>
			<path d="M82.035,187.383c-3.391-0.066-7.189-1.443-9.302-3.98c-2.433-2.918-3.286-7.248-2.462-12.52
				c0.812-5.199,7.936-6.09,10.276-6.381l0.649,5.18c-4.618,0.578-5.721,1.729-5.764,2.006c-0.576,3.691-0.113,6.666,1.311,8.373
				c1.108,1.33,2.672,2.188,5.493,2.523C85.296,182.951,85.424,187.449,82.035,187.383z"/>
			<path d="M66.772,255.326l-3.019-1.027c0.098-0.074,9.32-11.643,12.498-21.133c2.958-8.832,15.886-51.482,19.493-63.404
				c-1.367-0.104-3.069-0.225-4.896-0.334l0.314-5.215c4.477,0.271,10.711-0.4,11.445,0.889c0.733,1.287-17.95,59.41-21.406,69.723
				C77.51,245.852,67.217,254.988,66.772,255.326z"/>
			<rect x="94.844" y="179.119" width="26.803" height="5.221"/>
			
				<rect x="157.392" y="231.311" transform="matrix(0.9392 0.3434 -0.3434 0.9392 93.1801 -40.1286)" width="4.97" height="23.365"/>
			<path d="M171.372,253.967c0,8.562-6.944,15.502-15.502,15.502c-8.56,0-15.5-6.939-15.5-15.502c0-8.559,6.94-15.498,15.5-15.498
				C164.428,238.469,171.372,245.408,171.372,253.967z"/>
			<path d="M155.87,273.219c-3.978,0-7.593-1.512-10.335-3.975c-4.134,3.006-12.234,9.066-13.607,9.066c0,0-4.786,1.74-4.445,4.787
				c0.336,3.045,14.455-1.09,17.502-1.959c3.046-0.871,18.928-4.785,19.801-5.875c0.459-0.576,0.311-2.725-0.035-4.852
				C162.234,272.176,159.176,273.219,155.87,273.219z"/>
			<path fill="#FFFFFF" d="M158.314,253.967c0,1.354-1.096,2.445-2.444,2.445c-1.351,0-2.444-1.092-2.444-2.445
				c0-1.35,1.094-2.445,2.444-2.445C157.219,251.521,158.314,252.617,158.314,253.967z"/>
			<path fill="#FFFFFF" d="M168.266,225.543c0,0-4.354,5.332-9.682,4.027l-13.869,9.102c0,0-4.611,4.924,0.71,8.422
				c3.263,2.145,10.333-0.119,13.051-1.969c2.721-1.85,5.577-6.092,7.038-6.859c2.374-1.242,7.65-5.434,7.758-6.412
				S170.295,225.205,168.266,225.543z"/>
			<path fill="#FFFFFF" d="M156.895,241.783c0,0,1.803,3.346,2.982,3.102c1.182-0.246,5.66-4.768,5.831-5.793
				c0.171-1.027-1.958-3.918-2.447-3.51C162.771,235.99,157.793,240.641,156.895,241.783z"/>
			
				<rect x="157.075" y="239.798" transform="matrix(0.9423 0.3348 -0.3348 0.9423 91.8614 -38.7442)" fill="#FFFFFF" width="2.485" height="14.591"/>
			<path d="M168.266,222.633c0,0-4.354,5.332-9.682,4.027l-7.725,9.355c0,0-8.051,4.678-5.549,7.941s10.447,0.111,13.165-1.74
				c2.721-1.848,5.577-6.092,7.038-6.859c2.374-1.242,7.65-5.434,7.758-6.414C173.379,227.965,170.295,222.297,168.266,222.633z"/>
			<path d="M69.134,255.705c0,2.27-1.839,4.111-4.108,4.111c-2.271,0-4.109-1.842-4.109-4.111c0-2.268,1.838-4.105,4.109-4.105
				C67.295,251.6,69.134,253.438,69.134,255.705z"/>
			<path d="M231.723,255.705c0,3.021-2.449,5.473-5.471,5.473c-3.019,0-5.47-2.451-5.47-5.473c0-3.02,2.451-5.465,5.47-5.465
				C229.273,250.24,231.723,252.686,231.723,255.705z"/>
			<path d="M145.311,92.789c-0.166-0.816-3.527-8.904-4.515-9.822c-5.55-5.176-6.093-4.711-7.233,0.232
				c-1.238,5.373,3.861,15.436,3.861,15.436L145.311,92.789z"/>
			<path d="M116.751,79.016c0.724-0.107,1.784,0.309,2.653,1.729c0.777,1.266,2.389-0.633,1.589-2.527
				c-0.235-0.564-4.474-1.145-5.243-0.891C114.986,77.58,116.026,79.125,116.751,79.016z"/>
			<path d="M183.768,179.119c0,0-5.531,0-10.932,0c-4.424-3.51,18.33-3.51,22.304-9.682c4.132-6.424,6.034-25.703-2.917-32.703
				c-2.207-3.012-6.637-9.32-12.969-19.631c-9.355-15.23-34.435-27.244-35.088-27.244c0,0-11.314,7.609-12.021,14.518
				c0,0,10.664-10.119,14.361-8.16c3.7,1.957,9.465,5.006,7.942,8.27s-16.21,16.709-16.21,16.709s0.232,2.055,1.318,5.213
				c1.208,3.502,8.743,4.025,11.9,4.893c2.206,0.609,8.271,8.252,11.719,13.064c7.892-0.555,18.361-7.842,16.109-4.947
				c-5.498,7.053-37.721,20.816-38.109,22.537c-0.406,1.809,7.211,4.791,7.992,17.164h-10.587v5.221h42.251l40.777,67.018h-66.094
				l-62.092-60.805l-3.652,3.729l63.609,62.297h73.689l1.682-3.527L183.768,179.119z"/>
		</g>
		<g>
			<path d="M655.127,97.588c0,0,0.285-3.672-0.35-5.822c-0.189-0.641-0.219-3.584,3.209-7.012c1.166-0.873,0.314-3.961-0.116-4.115
				c-0.427-0.156-2.913,0.801-4.192,0.75c-1.284-0.051-5.405-3.314-5.284-4.195c0.118-0.879,1.881-1.914,6.13-2.432
				c0.611-0.076-1.767-8.492-5.287-8.492c-3.521,0,5.086-4.35,5.287-4.35c0.202,0,9.418,2.279,9.418,2.279l3.988,2.889l1.707,8.502
				l-1.196,5.045l0.171,5.186l-6.741,12.914h-4.036L655.127,97.588z"/>
			<path d="M587.648,145.49c0,1.811,5.359,17.188,33.008,21.227l2.174-5.488c0,0-24.791-16.037-29.371-22.949
				C591.749,138.434,587.648,143.959,587.648,145.49z"/>
			<path d="M605.779,192.744c-0.393-0.098-8.354-7.701-19.296-7.701l-0.351,2.02c3.914,0,7.428,1.582,10.359,3.326
				c-1.189,4.949-9.873,40.977-10.838,42.811c-1.035,1.967-3.732,2.76-5.591,3.934c-1.486,0.938-12.853,47.307-17.713,47.225
				c-4.862-0.082,0.007-30.391,2.526-40.396c1.766-7.008,13.076-20.09,13.326-20.66c0.25-0.572-1.123-16.949-1.143-20.029
				c-0.016-3.08-1.569-7.502-1.678-5.799c-0.111,1.703,0.332,24.916,0.332,24.916c-1.756,2.086-10.306,12.498-13.186,20.754
				c-2.973,8.521-7.516,35.098-8.077,38.422l-2.944,3.863c-3.129,1.494-3.129,2.379-3.127,2.799
				c-0.023,0.262-0.295,1.766-0.558,3.219c-1.868,10.357-1.716,10.586-1.253,11.289c1.693,2.609,4.341,4.156,7.865,4.596
				c2.746,0.346,6.552,0.559,9.93,0.559c2.352,0,5.466-0.107,6.979-0.611l0.927-0.311l-0.081-0.973
				c-0.011-0.117-0.271-2.916-2.774-5.877c-1.612-1.904-3.197-7.691-3.785-10.242c1.27-2.744,8.992-19.387,11.811-24.834
				c2.947-5.701,10.19-22.043,11.125-24.162c1.176-1.229,8.087-8.65,9.887-15.236c1.844-6.754,8.172-31.135,8.234-31.379
				l0.316-1.225L605.779,192.744z M567.518,301.723c1.113,1.316,1.67,2.576,1.943,3.424c-1.177,0.164-2.969,0.256-5.096,0.256
				c-3.236,0-7.011-0.209-9.621-0.537c-3.939-0.492-5.449-2.516-6.002-3.354c0.029-1.322,1.031-6.883,1.528-9.625
				c0.345-1.92,0.495-2.764,0.556-3.191c0.344-0.275,1.213-0.777,2.008-1.143l7.963,1.277c-0.395,1.143-0.615,1.787-0.615,1.787
				l3.16,0.385C563.932,293.438,565.512,299.354,567.518,301.723z"/>
			<path d="M562.305,289.531c-5.708-0.014-9.592-3.82-9.592-3.82l-2.422,1.076l-2.174,11.908l-0.518,3.936l6.729,3.676
				c0,0,14.085,0,14.241,0c0.154,0,2.537-0.57,2.537-0.57l-1.295-3.211l-2.176-3.209l-3.262-11.08
				C564.375,288.236,564.096,289.535,562.305,289.531z"/>
			<path d="M555.158,288.883c0.104-0.025,2.539-3.363,3.315-3.494c0.774-0.131,6.136,0.322,6.136,0.322l-1.217,6.721
				L555.158,288.883z"/>
			<g>
				<path d="M608.464,138.279c0,0,0.017,0.002,0.038,0.004C608.46,138.252,608.435,138.24,608.464,138.279z"/>
				<path d="M709.922,299.473c-1.66-0.826-11.392-5.592-11.392-5.592l-9.32-9.32c0,0-9.274-37.389-12.22-47.012
					c-2.943-9.623-5.491-15.906-5.491-15.906s-5.057-15.498-12.788-28.646c0.484-0.33,0.827-0.658,0.986-0.988
					c0.584-1.203-2.814-4.82-3.727-6.41c2.832-3.385,5.676-6.875,6.83-8.578c2.642-3.883,4.814-12.736,4.814-12.736l4.236-20.641
					c2.355-0.199,2.678-0.357,2.827-0.432l0.524-0.262l0.129-0.57c0.038-0.162,3.738-16.197,4.355-19.074
					c0.635-2.971-0.086-11.002-2.701-13.748c-2.103-2.205-13.105-7.859-15.742-9.197l-0.073-0.197
					c0.743-0.078,1.103-0.221,1.341-0.363c1.309-0.785,6.563-10.705,7.07-12.35c0.61-1.98,0.218-5.889,0.082-7.062
					c0,0,1.092-2.623,1.262-4.02c0.17-1.395-2.084-11.248-2.084-11.248l-0.067-0.23c-0.101-0.262-2.628-6.369-16.038-6.693
					l-0.484-0.008c-12.606,0-16.504,12.016-17.551,16.764c-2.309,0.836-9.459,3.93-12.791,11.146
					c-3.364,7.285-10.77,7.955-11.08,7.98l-4.807,0.357l4.38,2.01c0.095,0.043,2.328,1.053,5.399,1.053c0.82,0,1.62-0.07,2.4-0.209
					l-1.175,1.402c-2.266,0.635-3.875,1.24-4.324,1.764c-0.747,0.871-2.442,3.922-5.808,10.111
					c-1.941,3.568,7.084-7.783,7.624-8.426c0.517-0.389,14.323-3.545,17.823-4.189c-0.98,1.82-2.964,3.723-2.989,6.84
					c-0.021,2.568,5.075,8.699,4.038,10.045c-3.66,4.754-8.178,3.418-9.859,5.021c-0.836,0.801-14.654,18.459-15.031,18.426
					c0.351,0.258,2.795,2.604,4.38,4.133c-0.637,1.508-1.027,2.449-1.027,2.449s3.55,3.465,9.053,5.164
					c-4.19,2.467-12.458-1.33-12.458-1.33l6.82,19.26c-28.682-9.01-29.799-19.854-30.945-19.004
					c-8.508,13.309-10.57,38.84-10.057,40.158c0.514,1.316,12.785-0.65,27.597,5.508c1.153,0.48,2.059,1.295,3.202,1.803
					c3.357,1.488,9.895,1.877,12.574,1.877l-0.102-0.996c4.193,0.111,8.918,0.064,8.918,0.064s11.051,20.713,25.406,33.139
					c0,0,4.625,3.934,4.829,7.041c0.209,3.105-0.204,13.461,4.349,20.504c4.561,7.041,14.807,26.924,14.807,26.924
					s-1.768,15.324,0,16.982c1.765,1.656,12.12,1.656,15.434,2.9c3.313,1.242,18.225,0.412,20.089-0.83
					C711.37,304.029,711.576,300.301,709.922,299.473z M639.812,81.078c1.562-1.854,3.526,1.037,3.526,1.037
					s3.697-8.389,5.017-10.254c1.32-1.863,5.126-6.912,5.283-7.145c0.154-0.234,4.271-0.699,4.271-0.699
					c1.369,0.373,6.885,3.342,9.013,4.506l1.435,8.053l-1.234,3.543l0.037,0.289c0.23,1.758,0.441,5.029,0.047,6.311
					c-0.543,1.766-4.965,9.646-6.014,10.936c-0.135,0.027-0.42,0.061-0.918,0.072c0,0-3.449-0.168-3.564-0.203
					C645.406,93.916,638.156,83.045,639.812,81.078z M630.229,95.807c0.585-0.684,1.05-1.447,1.303-2.322
					c0.958-3.342,2.209-6.531,3.242-8.93c0.499,3.268,1.629,7.066,4.165,7.949l0.013,0.002l-1.73,2.053
					C635.125,94.916,632.71,95.34,630.229,95.807z M643.23,91.59c0.447,0.424,4.347,22.764,7.066,23.607
					c2.721,0.846,3.506-1.086,4.045-0.516c0.539,0.568-0.473,6.188-3.111,7.041c-3.503,1.133-4.971-2.484-4.971-2.484l-8.955-22.174
					C637.564,97.023,643.23,91.59,643.23,91.59z M649.126,171.836c-0.149-0.396-0.251-0.678-0.296-0.811
					c0,0-0.092-3.791-0.939-5.732s-4.552-4.686-4.552-4.686l2.48-4.869c0,0,1.244-4.527,6.108-5.59
					c4.867-1.062,8.506-7.145,10.137-6.254c0.42,0.23-2.029,4.855-5.963,7.496c-0.685,0.459-1.688,8.605-1.688,9.008
					C654.414,160.398,651.957,165.666,649.126,171.836z"/>
			</g>
			<path fill="#FFFFFF" d="M630.066,207.701c0,0,15.959,3.301,17.463,3.52c1.501,0.221,2.883-5.658,1.178-5.967
				c-1.711-0.309-17.166-3.143-17.166-3.143L630.066,207.701z"/>
			<g>
				<path d="M601.355,131.287l-0.992-3.301c0,0,0.355-3.463,0.93-5.287s-2.871,3.646-3.447,4.736l-0.326,0.609l1.365,2.338
					C598.885,130.383,599.939,133.02,601.355,131.287z"/>
			</g>
			<path fill="#FFFFFF" d="M600.205,131.352l-4.038,21.902c0,0,2.796,16.072,5.437,19.529c2.639,3.461,16.133,22.76,16.133,22.76
				l0.951,10.523l3.729,2.176l5.901-6.131l-2.371-8.004l-18.287-42.406l1.244-13.053L600.205,131.352z"/>
			<path d="M607.004,137.057c0,0-4.78,12.676-3.538,13.713c1.242,1.035,20.089,42.662,20.089,42.662l1.864,8.68l-6.007,4.611
				c0,0,3.792,3.957,4.559,4.004c0.931,0.055,11.264-0.312,11.264-0.312v-1.941l-3.576-2.639l0.467-4.379l1.477-0.436l2.873,1.092
				l-2.381-4.277l-8.727-6.471l-11.57-29.645l-3.963-8.23l4.66-12.115L607.004,137.057z"/>
			<path d="M624.15,209.484h9.44l0.426-0.416l-4.073-2.99l1.121-5.244l0.264-0.262c0.463-0.459,1.219-0.639,2.233-0.65
				c-0.545-0.936-1.013-1.791-1.224-2.314c-0.76-0.76-4.887-3.693-8.598-6.199l-0.325-0.221l-0.14-0.365
				c-0.299-0.783-7.335-19.207-8.579-23.559c-1.192-4.176-5.913-13.186-5.963-13.275l-0.261-0.5l4.42-11.447
				c-2.475-1.215-8.604-4.467-12.047-8.377l-3.424,19.158c0.191,1.502,1.624,12.1,4.82,18.35
				c3.479,6.805,16.348,22.652,16.721,23.609s0.924,10.705,0.924,10.705L624.15,209.484z M623.348,211.861
				c-1.683-0.543-4.881-3.545-5.855-5.213c-0.978-1.668-0.941-10.91-0.941-10.91c-1.821-2.322-13.156-16.848-16.521-23.434
				c-3.631-7.107-5.04-18.875-5.099-19.371l-0.021-0.182l4.703-26.328l1.662,3.518c2.466,5.215,13.59,10.289,13.703,10.34
				l1.07,0.484l-4.852,12.566c1.035,2.006,4.781,9.369,5.892,13.25c1.116,3.918,7.351,20.32,8.368,22.986
				c8.934,6.051,9.075,6.641,9.199,7.168c0.133,0.383,1.323,2.424,2.34,4.064l1.53,2.477l-2.848-0.605
				c-0.011-0.006-1.257-0.266-2.216-0.266c-0.072,0-0.137,0.002-0.193,0.004l-0.56,2.615c0,0,4.123,3.938,3.765,4.77
				C635.232,212.668,625.031,212.404,623.348,211.861z"/>
			<path fill="#FFFFFF" d="M677.403,200.086l-26.456,5.359c0.619,2.33-0.271,4.977-1.088,6.422
				c0.839,0.623,22.185,15.707,22.185,15.707l-1.061-4.578c0,0-0.13-0.07-0.349-0.199l0.633,2.686c0,0-17.801-11.766-18.018-14.256
				c-0.284-3.244,2.525-3.84,5.236-4.43c10.479-2.285,17.794-3.543,17.794-3.543L677.403,200.086z"/>
			<path d="M687.834,239.414c-9.439-2.25-16.451-9.057-18.744-17.084l2.409-0.688c0.09,0.436,0.188,0.867,0.312,1.299l0,0l0,0
				c2.053,7.191,8.299,12.842,16.308,14.754c11.352,2.709,22.974-3.002,25.196-12.967c2.223-9.961-3.473-21.258-15.92-24.492
				c-12.449-3.234-22.808,3.488-25.795,14.016c-0.686,2.416-0.613,4.922-0.103,7.389l-2.407,0.689v-0.004
				c-0.952-3.326-1.086-6.869-0.248-10.377c2.857-11.984,15.998-19.115,29.348-15.93c9.438,2.252,16.455,9.059,18.742,17.092
				c0.948,3.326,1.092,6.861,0.251,10.375C714.322,235.471,701.186,242.6,687.834,239.414z"/>
		</g>
		<g>
			<path d="M298.532,30.66l-0.169-0.893l-0.459-1.379c0.904-0.301,132.215-15.682,134.227-16.01
				c2.014-0.328,2.561,3.576,0.199,3.873C430.396,16.494,300.582,30.271,298.532,30.66z"/>
			<polygon fill="#FFFFFF" points="402.27,11.898 407.877,11.309 412.766,12.398 417.225,19.082 416.436,27.836 410.731,58.631 
				394.565,83.871 384.658,72.896 393.316,59.713 397.057,51.547 409.451,26.951 401.875,19.18 			"/>
			<path d="M388.692,77.322c0,0,12.298-13.199,14.362-15.502c2.068-2.305,11.02-35.164,11.02-35.164s-4.031-7.674-4.524-8.754
				c-0.493-1.084,2.361-6.004,2.361-6.004l2.853,1.674l2.461,6.689l-0.789,7.574c0,0-0.959,20.121-5.704,30.795
				c-4.75,10.676-16.431,25.58-16.431,25.58L388.692,77.322z"/>
			<g>
				<path d="M422.979,24.344c0,0-6.936-1.623-8.266-3.395c-1.328-1.77-2.011-7.254-2.011-7.254s2.31-3.963,3.487-3.963
					c1.182,0,9.299-0.064,11.217,1.445c1.917,1.508,10.771,27.152,12.248,36.615c1.476,9.459,0,17.135,0,17.135
					s-10.773,11.805-20.217,15.789c0,0-2.213-10.33-1.182-17.855l6.938-1.918c0,0-1.033-14.021-0.738-33.203L422.979,24.344z"/>
				<path d="M418.537,82.447l-0.314-1.469c-0.092-0.432-2.246-10.633-1.197-18.287l0.11-0.811l6.751-1.865
					c-0.225-3.555-0.914-16.051-0.679-32.027l-1.123-2.58c-2.197-0.551-7.024-1.928-8.366-3.711c-1.482-1.979-2.176-7.254-2.25-7.85
					l-0.051-0.416l0.211-0.361c1.771-3.039,3.305-4.58,4.561-4.58l0.402-0.002c6.242,0,10.14,0.576,11.584,1.711
					c2.55,2.01,11.383,28.924,12.705,37.402c1.494,9.564,0.055,17.238-0.007,17.561l-0.065,0.344l-0.237,0.26
					c-0.446,0.49-11.066,12.053-20.65,16.098L418.537,82.447z M419.391,63.836c-0.562,5.422,0.443,12.125,0.97,15.09
					c7.96-3.953,16.583-12.924,18.132-14.574c0.252-1.568,1.185-8.35-0.066-16.367c-1.482-9.508-10.068-34.021-11.827-35.865
					c-0.651-0.51-3.697-1.145-10.007-1.145h-0.266c-0.457,0.281-1.492,1.609-2.334,2.986c0.287,2.041,0.948,5.221,1.715,6.244
					c0.653,0.869,4.432,2.197,7.555,2.93l0.607,0.143l1.832,4.213l-0.004,0.268c-0.291,18.91,0.725,32.955,0.735,33.096l0.075,1.016
					L419.391,63.836z"/>
			</g>
			<path d="M366.309,68.174l9.17,6.83l9.18-2.625l2.332,3.1c0,0-11.679,10.502-20.906,12.027c-2.854,0.469-8.775-12.1-8.775-12.1
				L366.309,68.174z"/>
			<path fill="#FFFFFF" d="M349.118,79.02l10.185,4.281h6.123l3.099-2.141l1.474-7.527l-3.172-7.715l0.146-2.539l-1.328-4.799
				l-3.244-1.328l-7.455-6.344L336.499,61.82c0,0,1.771,8.936,1.994,8.936c0.22,0,4.057,3.986,4.057,3.986s1.919,3.613,2.14,3.539
				C344.911,78.209,349.118,79.02,349.118,79.02z"/>
			<path d="M360.855,84.738c-1.949,0-3.445-0.123-4.44-0.363c-1.967-0.48-6.437-3.26-7.669-4.043
				c-0.866-0.055-3.09-0.264-4.422-1.023c-1.666-0.953-2.563-2.307-2.674-4.033c-1.953-0.615-6.245-2.498-7.689-7.434
				c-0.229-0.779,0.068-1.518,0.305-2.113c0.072-0.18,0.178-0.439,0.204-0.574c-2.18-6.252,0.882-11.406,4.487-14.152
				c2.973-2.264,8.438-3.908,13-3.908c2.518,0,4.608,0.502,6.049,1.451l0.887,0.584l-1.05,2.033l4.961,5.174
				c0.128-0.014,0.265-0.023,0.413-0.023c0.959,0,2.735,0.424,3.875,3.277c1.161,2.9,0.898,5.211,0.689,6.195
				c0.893,1.84,2.956,6.26,2.956,7.848c0,1.654-1.288,7.604-1.437,8.275l-0.102,0.465l-3.23,2.146l-0.303,0.027
				C365.57,84.553,363.281,84.738,360.855,84.738z M351.957,49.455c-4.031,0-9.006,1.471-11.568,3.424
				c-2.961,2.254-5.477,6.48-3.662,11.576c0.277,0.781-0.025,1.539-0.268,2.146c-0.081,0.203-0.215,0.541-0.219,0.66
				c1.426,4.836,6.61,5.908,6.83,5.951l1.052,0.205l-0.103,1.072c-0.129,1.291,0.299,2.094,1.479,2.768
				c0.916,0.525,3.002,0.709,3.662,0.73L349.483,78l0.273,0.174c2.079,1.34,5.878,3.58,7.216,3.904
				c0.559,0.137,1.687,0.299,3.883,0.299c1.831,0,3.625-0.111,4.316-0.162l1.922-1.277c0.535-2.486,1.282-6.314,1.282-7.305
				c0-0.801-1.507-4.357-2.904-7.193l-0.217-0.443l0.161-0.465c0.022-0.074,0.661-2.121-0.516-5.068
				c-0.268-0.668-0.842-1.791-1.684-1.791c-0.18,0-0.307,0.051-0.309,0.053l-0.741,0.301l-0.595-0.562l-6.602-6.883l0.795-1.541
				C354.77,49.654,353.478,49.455,351.957,49.455z"/>
			<path d="M299.221,29.973c0,0,0,8.625,0,10.092c0,1.463-1.465,3.74-4.229,1.949c-2.77-1.789-3.584-2.92-2.606-5.689
				s4.097-7.701,5.696-7.977C299.679,28.07,299.221,29.973,299.221,29.973z"/>
			<path d="M357.309,50.76c0,0-5.607,14.389-17.809,14.465c0,0,7.501,6.516,7.994,10.254c0,0-10.551-2.582-12.225-6.615V66.6
				l0.492-1.672c0,0-3.344-5.807,2.46-12.004C344.027,46.727,357.027,47.213,357.309,50.76z"/>
			<path d="M351.037,58.287c0,0,2.213,6.85,2.877,7.631c0,0,1.254,0.928,1.844,1.592c0.309,0.348,3.336,2.963,5.902,6.826
				c2.365,3.553,4.303,8.367,4.206,8.965l2.142-1.477l1.623-8.045l-3.099-7.861l0.146-4.098l-1.771-3.533l-2.286-0.812l-6.568-6.566
				L351.037,58.287z"/>
			<path d="M347.42,70.83c0,0,3.88-2.877,4.817-2.656c0.938,0.219,6.989,6.643,7.063,7.305c0.072,0.664-2.287,2.361-3.691-0.441
				c-1.401-2.805-1.988-2.953-2.247-2.953c-0.261,0-0.188,1.623-2.325,1.846C348.895,74.15,343.731,73.93,347.42,70.83z"/>
			<path d="M357.92,74.412c0.184,0,1.145,0.852,4.564-2.25c0.015-0.016,0.75,1.305,0.75,1.305s-5.276,4.922-7.072,2.424
				C354.957,74.215,357.92,74.412,357.92,74.412z"/>
			<path d="M365.939,80.939c0,0,4.475-2.531,6.856-3.389c3.429-1.238,7.278-2.51,11.247-3.758
				c2.668,2.906,9.477,11.994,10.211,12.213c0.735,0.219,3.045-3.676,4.328-3.641c1.285,0.037,2.357,8.461-1.929,10.109
				c-1.374,0.527-6.585,3.738-7.961,4.723c-1.378,0.982-3.036,16.879-5.792,21.012s6.266,1.143,12.037-5.469
				c2.617-2.998,1.902,17.191-2.785,29.309l-2.917,2.184l-0.009,0.002l-0.002,0.006l0,0c-2.344-5.363-10.65-17.578-11.381-19.039
				c-0.367-0.738-1.607-2.002-4.434-4.74c-1.355-1.311-7.209-6.52-7.1-5.752c0.097,0.678,3.062,4.924,5.445,7.438
				c1.758,1.855,3.715,3.643,3.976,4.109c0.81,1.619,8.837,19.99,9.894,22.41c3.399,0.514,6.705,0.918,7.396,0.969
				c6.691,0.494,18.792-4.133,18.891-3.541c-6.297,6.986-21.555,9.033-21.653,10.607c0.115,7.363,3.299,11.176,3.746,11.924
				c0.411,0.688,3.618,4.588,7.529,9.756c-0.744,9.52-1.731,20.424-2.667,25.25c-0.67,3.465-4.915,25.699-5.499,26.883
				c-0.562,1.135-13.394,13.574-14.12,14.062c-1.901,1.277-17.419,30.631-17.838,25.727c6.923-17.832,14.909-34.975,17.575-38.596
				c5.385-4.207,7.836-7.984,8.625-9.76c0.793-1.773-3.742-43.387-3.936-47.52c-0.22-4.727,0.229-10.977-0.725-7.119
				c-2.473,9.998,2.102,54.049,2.102,54.049s-3.545,5.176-7.349,8.293c-4.185,3.432-19.859,40.961-19.859,40.961
				c1.192,4.803,4.324,15.809-2.097,3.51c-0.805-1.547-2.463,7.846-3.751,11.58c-1.476,4.277,2.804,19.186,3.983,20.365
				c1.182,1.182,5.609,1.182,6.348,0.736c0.549-0.328,4.52-13.943,6.521-20.914c1.723,1,3,1.463,3.161,1.516l0.772,0.27l0.521-0.631
				c3.067-3.68,27.113-32.637,33.884-42.826l0.365-0.447l0.077-0.234c0.676-1.055,1.125-1.865,1.275-2.346
				c0.91-2.91,4.287-13.779,6.744-21.695l-3.174,72.955l0.475,0.375c0.16,0.125,0.325,0.25,0.494,0.371l-6.403,5.197
				c0,0-4.868,1.77-7.821,1.918c-2.951,0.146-5.607,3.836-3.541,5.312c2.065,1.475,17.267,2.508,19.184,2.213
				c1.92-0.295,15.053-1.477,15.053-3.098c0-0.783,0-3.24,0-5.578c1.236,0.246,2.049,0.377,2.176,0.4l1.037,0.162l0.287-1.012
				c0.094-0.336,9.492-33.955,11.547-52.432c1.248-11.238,1.42-30.615,1.558-46.182c0.088-9.67,0.161-18.023,0.501-20.174
				c0.556-3.523,2.719-26.363-0.211-30.393c-1.584-2.178-7.199-9.729-10.695-14.428c0.219-0.145,0.446-0.281,0.666-0.43l0.783-0.535
				l-0.355-0.883c-0.506-1.258-12.176-30.135-23.384-43.977c0,0,6.544-2.301,9.441-4.164c2.899-1.863-4.062-23.717-4.062-23.717
				l-1.24,0.32c-0.096,0.023-3.436,0.881-8.488,2.248c1.67-3.041,8-15.875,8.045-35.727c0.386-1.117,1.906-6.164-0.074-11.535
				c-1.768-4.799-3.582-5.809-4.791-5.809c-0.031,0-0.062,0-0.092,0.002c-0.875-0.193-4.289-0.902-7.232-0.902
				c-2.234,0-3.734,0.412-4.584,1.264l-0.346,0.346v7.768l7.717,7.717c-1.472,2.988-6.959,14.068-10.22,19.844
				c-3.497,6.184-5.05,10.402-5.353,11.266l-8.895,13.242c-4.113,1.289-8.107,2.607-11.652,3.885
				c-2.484,0.896-4.743,2.018-6.725,3.332L365.939,80.939z M355.607,83.246c-1.082,1.811-1.953,3.832-2.124,4.969
				c-0.202,1.34,0.501,3.266,2.151,5.879c-0.128,1.158,0.004,3.078,0.064,5.035c0.059,1.953,2.033-2.814,2.328-5.17l0.052-0.428
				l-0.233-0.361c-2.102-3.24-1.594-5.076-1.562-5.277c0.188-1.246,4.767-2.502,5.76-4.021L355.607,83.246z M387.242,70.33
				 M387.573,73.965l7.02-14.578l0.14-0.283c0.013-0.045,1.495-4.418,5.22-11.01c3.81-6.742,10.589-20.584,10.658-20.723l0.37-0.758
				l-8.221-8.219v-5.68c0.385-0.166,1.139-0.357,2.57-0.357c3.057,0,6.865,0.879,6.904,0.889l0.324,0.074l0.121-0.039
				c0.256,0.121,1.29,0.816,2.551,4.24c1.877,5.096,0.025,10.039,0.006,10.084l-0.078,0.207v0.221
				c0,21.799-8.012,35.262-8.068,35.354l-12.605,18.91L387.573,73.965z"/>
		</g>
	</g>
</g>
</svg>
