<?xml version="1.0" encoding="utf-8"?>
<!-- Generator: Adobe Illustrator 16.0.0, SVG Export Plug-In . SVG Version: 6.00 Build 0)  -->
<!DOCTYPE svg PUBLIC "-//W3C//DTD SVG 1.1//EN" "http://www.w3.org/Graphics/SVG/1.1/DTD/svg11.dtd">
<svg version="1.1" id="Layer_1" xmlns="http://www.w3.org/2000/svg" xmlns:xlink="http://www.w3.org/1999/xlink" x="0px" y="0px"
	 width="600px" height="600px" viewBox="0 0 600 600" enable-background="new 0 0 600 600" xml:space="preserve">
<g>
	<g>
		<path d="M112.784,333.49H100v-67.278h12.975c9.899,0,15.665,5.665,15.665,17.972c0,7.4-2.691,11.828-7.493,14.325
			c4.902,2.398,8.075,6.63,8.075,15.279C129.222,326.188,123.838,333.49,112.784,333.49z M112.589,275.339h-2.213v18.841h2.31
			c3.367,0,5.284-2.596,5.284-9.707C117.97,277.646,116.244,275.339,112.589,275.339z M112.299,303.022h-1.923v21.344h2.31
			c4.23,0,5.769-2.982,5.769-10.479C118.455,306.002,116.732,303.022,112.299,303.022z"/>
		<path d="M154.695,334.553c-11.829,0-15.483-11.244-15.483-34.507c0-23.459,3.754-34.894,15.679-34.894
			c11.907,0,15.758,11.534,15.758,34.513C170.649,323.112,166.798,334.553,154.695,334.553z M154.787,275.062
			c-3.548,0-4.511,4.221-4.511,24.604c0,20.562,1.243,24.99,4.616,24.99c3.453,0,4.607-4.231,4.607-24.609
			C159.499,279.479,158.249,275.062,154.787,275.062z"/>
		<path d="M196.595,334.553c-11.82,0-15.473-11.244-15.473-34.507c0-23.459,3.748-34.894,15.668-34.894
			c11.918,0,15.756,11.534,15.756,34.513C212.546,323.112,208.708,334.553,196.595,334.553z M196.695,275.062
			c-3.558,0-4.522,4.221-4.522,24.604c0,20.562,1.256,24.99,4.618,24.99c3.458,0,4.611-4.231,4.611-24.609
			C201.401,279.479,200.153,275.062,196.695,275.062z"/>
		<path d="M239.737,276.206v57.284h-10.771v-57.284h-9.034v-9.994h28.934v9.994H239.737z"/>
		<path d="M296.054,334.553c-11.438,0-15.473-10.476-15.473-34.507c0-23.933,3.84-34.894,15.668-34.894
			c10.479,0,13.936,8.458,14.514,20.472l-10.573,1.543c-0.675-8.942-1.252-12.105-4.037-12.105c-3.361,0-4.523,3.739-4.523,24.604
			c0,20.949,1.256,24.99,4.808,24.99c2.405,0,3.173-2.215,4.139-11.827l10.376,1.538
			C309.514,327.242,306.444,334.553,296.054,334.553z"/>
		<path d="M335.739,334.553c-11.818,0-15.473-11.244-15.473-34.507c0-23.459,3.749-34.894,15.669-34.894
			c11.918,0,15.763,11.534,15.763,34.513C351.698,323.112,347.854,334.553,335.739,334.553z M335.841,275.062
			c-3.559,0-4.524,4.221-4.524,24.604c0,20.562,1.257,24.99,4.619,24.99c3.458,0,4.616-4.231,4.616-24.609
			C340.552,279.479,339.298,275.062,335.841,275.062z"/>
		<path d="M374.382,276.206v16.827h11.15v9.989h-11.15v30.468h-10.764v-67.278h25.569v9.994H374.382z"/>
		<path d="M410.997,276.206v16.827h11.156v9.989h-11.156v30.468h-10.76v-67.278h25.568v9.994H410.997z"/>
		<path d="M436.845,333.49v-67.278h25.188v9.994h-14.411v16.827h11.051v9.989h-11.051v20.471h15.282v9.997H436.845z"/>
		<path d="M473.948,333.49v-67.278h25.183v9.994h-14.415v16.827h11.053v9.989h-11.053v20.471H500v9.997H473.948z"/>
	</g>
	<g>
		<path d="M277.379,237.86H102.878c-1.58,0-2.878,1.138-2.878,2.515v0.587c0,1.385,1.298,2.521,2.878,2.521h174.501
			c1.58,0,2.881-1.137,2.881-2.514v-0.589C280.26,238.998,278.959,237.86,277.379,237.86z"/>
		<path d="M138.969,228.488h320.909c1.577,0,2.88-1.136,2.88-2.514v-0.586c0-1.386-1.303-2.522-2.88-2.522H138.969
			c-1.58,0-2.881,1.137-2.881,2.514v0.589C136.088,227.353,137.389,228.488,138.969,228.488z"/>
		<path d="M497.121,237.86H322.899c-1.578,0-2.874,1.138-2.874,2.515v0.587c0,1.385,1.296,2.521,2.874,2.521h174.222
			c1.58,0,2.879-1.137,2.879-2.514v-0.589C500,238.998,498.701,237.86,497.121,237.86z"/>
		<path d="M310.231,237.869l-5.271-0.009c-1.389,0-2.517,1.138-2.517,2.521v0.589c0,1.377,1.128,2.514,2.517,2.514h5.271
			c1.395,0,2.523-1.137,2.523-2.514v-0.589C312.755,238.998,311.626,237.869,310.231,237.869z"/>
		<path d="M294.296,237.86h-4.334c-1.395,0-2.526,1.138-2.526,2.521v0.581c0,1.385,1.131,2.521,2.526,2.521h4.334
			c1.387,0,2.517-1.137,2.517-2.514v-0.589C296.813,238.998,295.684,237.86,294.296,237.86z"/>
		<path d="M118.964,228.488h5.269c1.397,0,2.526-1.136,2.526-2.514v-0.586c0-1.386-1.129-2.515-2.526-2.515l-5.269-0.008
			c-1.388,0-2.518,1.137-2.518,2.522v0.586C116.446,227.353,117.576,228.488,118.964,228.488z"/>
		<path d="M103.965,228.488h4.334c1.388,0,2.518-1.136,2.518-2.514v-0.586c0-1.386-1.13-2.522-2.518-2.522h-4.334
			c-1.394,0-2.525,1.137-2.525,2.522v0.58C101.439,227.353,102.571,228.488,103.965,228.488z"/>
		<path d="M490.764,228.488h5.271c1.396,0,2.525-1.136,2.525-2.514v-0.586c0-1.386-1.129-2.515-2.525-2.515l-5.271-0.008
			c-1.386,0-2.518,1.137-2.518,2.522v0.586C488.246,227.353,489.378,228.488,490.764,228.488z"/>
		<path d="M475.767,228.488h4.337c1.384,0,2.514-1.136,2.514-2.514v-0.586c0-1.386-1.13-2.522-2.514-2.522h-4.337
			c-1.396,0-2.525,1.137-2.525,2.522v0.58C473.241,227.353,474.371,228.488,475.767,228.488z"/>
	</g>
	<g>
		<path d="M322.621,362.139h174.501c1.58,0,2.878-1.137,2.878-2.514v-0.588c0-1.385-1.298-2.521-2.878-2.521H322.621
			c-1.58,0-2.881,1.136-2.881,2.513v0.59C319.74,361.002,321.041,362.139,322.621,362.139z"/>
		<path d="M461.031,371.511H140.122c-1.577,0-2.88,1.138-2.88,2.514v0.586c0,1.386,1.303,2.523,2.88,2.523h320.909
			c1.58,0,2.881-1.138,2.881-2.515v-0.588C463.912,372.648,462.611,371.511,461.031,371.511z"/>
		<path d="M102.879,362.139h174.222c1.578,0,2.874-1.137,2.874-2.514v-0.588c0-1.385-1.295-2.521-2.874-2.521H102.879
			c-1.58,0-2.879,1.136-2.879,2.513v0.59C100,361.002,101.299,362.139,102.879,362.139z"/>
		<path d="M289.769,362.132l5.271,0.007c1.388,0,2.517-1.137,2.517-2.52v-0.59c0-1.377-1.128-2.513-2.517-2.513h-5.271
			c-1.395,0-2.524,1.136-2.524,2.513v0.59C287.245,361.002,288.374,362.132,289.769,362.132z"/>
		<path d="M305.704,362.139h4.334c1.395,0,2.526-1.137,2.526-2.52v-0.582c0-1.385-1.132-2.521-2.526-2.521h-4.334
			c-1.388,0-2.518,1.136-2.518,2.513v0.59C303.187,361.002,304.316,362.139,305.704,362.139z"/>
		<path d="M481.036,371.511h-5.27c-1.396,0-2.526,1.138-2.526,2.514v0.586c0,1.386,1.13,2.515,2.526,2.515l5.27,0.009
			c1.388,0,2.518-1.138,2.518-2.523v-0.586C483.554,372.648,482.424,371.511,481.036,371.511z"/>
		<path d="M496.035,371.511H491.7c-1.388,0-2.518,1.138-2.518,2.514v0.586c0,1.386,1.13,2.523,2.518,2.523h4.335
			c1.394,0,2.525-1.138,2.525-2.523v-0.579C498.561,372.648,497.429,371.511,496.035,371.511z"/>
		<path d="M109.236,371.511h-5.271c-1.397,0-2.525,1.138-2.525,2.514v0.586c0,1.386,1.128,2.515,2.525,2.515l5.271,0.009
			c1.386,0,2.518-1.138,2.518-2.523v-0.586C111.754,372.648,110.622,371.511,109.236,371.511z"/>
		<path d="M124.233,371.511h-4.336c-1.384,0-2.514,1.138-2.514,2.514v0.586c0,1.386,1.129,2.523,2.514,2.523h4.336
			c1.396,0,2.525-1.138,2.525-2.523v-0.579C126.758,372.648,125.629,371.511,124.233,371.511z"/>
	</g>
</g>
</svg>
