<?xml version="1.0" encoding="utf-8"?>
<!-- Generator: Adobe Illustrator 16.0.0, SVG Export Plug-In . SVG Version: 6.00 Build 0)  -->
<!DOCTYPE svg PUBLIC "-//W3C//DTD SVG 1.1//EN" "http://www.w3.org/Graphics/SVG/1.1/DTD/svg11.dtd">
<svg version="1.1" id="Layer_1" xmlns="http://www.w3.org/2000/svg" xmlns:xlink="http://www.w3.org/1999/xlink" x="0px" y="0px"
	 width="600px" height="600px" viewBox="0 0 600 600" enable-background="new 0 0 600 600" xml:space="preserve">
<g>
	<path d="M300,500c-110.277,0-199.994-89.717-199.994-199.995C100.006,189.722,189.723,100,300,100s199.994,89.722,199.994,200.005
		C499.994,410.283,410.277,500,300,500z M300,113.402c-102.887,0-186.592,83.71-186.592,186.603
		c0,102.887,83.705,186.592,186.592,186.592s186.592-83.706,186.592-186.592C486.592,197.112,402.887,113.402,300,113.402z"/>
	<g>
		<g>
			<g>
				<path d="M144.3,284.225c-0.538-0.093-0.942-0.607-0.838-1.195l2.217-12.466c1.12-6.314,6.377-10.733,11.993-9.736
					c4.123,0.731,6.463,4.958,7.353,7.709c1.681-2.628,5.075-6.496,9.997-5.619c5.992,1.065,9.385,7.129,8.256,13.496l-2.359,13.271
					c-0.104,0.588-0.662,0.931-1.197,0.835L144.3,284.225z M160.701,274.228c0.363-2.032-1.046-4.051-3.186-4.43
					c-2.143-0.382-3.943,1.065-4.307,3.101l-0.741,4.169l7.492,1.329L160.701,274.228z M175.434,276.125
					c0.37-2.084-1.027-4.155-3.219-4.545c-2.143-0.382-4.158,1.637-4.526,3.724l-0.771,4.331l7.654,1.359L175.434,276.125z"/>
				<path d="M161.336,224.99c5.174-9.555,17.003-13.032,26.555-7.863c9.553,5.174,13.01,16.929,7.836,26.481
					c-5.172,9.555-16.877,13.037-26.432,7.866C159.74,246.299,156.164,234.542,161.336,224.99z M188.083,239.469
					c2.846-5.251,0.874-11.881-4.331-14.699c-5.254-2.845-11.928-0.898-14.772,4.358c-2.818,5.205-0.8,11.856,4.454,14.702
					C178.641,246.648,185.266,244.679,188.083,239.469z"/>
				<path d="M196.169,181.366c8.173-7.157,20.472-6.306,27.629,1.865c7.157,8.17,6.312,20.395-1.859,27.549
					c-8.171,7.157-20.356,6.355-27.517-1.818C187.265,200.794,187.998,188.522,196.169,181.366z M216.212,204.246
					c4.493-3.936,4.949-10.837,1.05-15.29c-3.936-4.493-10.871-4.99-15.364-1.052c-4.454,3.9-4.875,10.837-0.938,15.333
					C204.861,207.688,211.758,208.143,216.212,204.246z"/>
				<path d="M234.778,165.796l-7.081,3.197c-0.543,0.244-1.143-0.022-1.364-0.517l-2.437-5.399
					c-0.223-0.494-0.027-1.118,0.517-1.365l21.982-9.92c0.544-0.247,1.143,0.022,1.365,0.517l2.436,5.396
					c0.226,0.494,0.027,1.121-0.517,1.365l-7.08,3.194l11.931,26.437c0.226,0.497-0.02,1.143-0.517,1.368l-5.938,2.681
					c-0.494,0.225-1.143-0.022-1.365-0.516L234.778,165.796z"/>
				<path d="M297.518,142.344c5.432-0.192,9.508,1.352,13.32,4.586c0.505,0.42,0.527,1.071,0.109,1.519l-4.081,4.548
					c-0.368,0.396-0.967,0.415-1.356,0.05c-2.077-1.722-4.773-2.606-7.433-2.513c-6.138,0.217-10.466,5.482-10.252,11.565
					c0.212,6.028,4.952,10.865,11.09,10.647c2.552-0.09,5.29-1.109,7.185-2.861c0.371-0.341,1.074-0.366,1.415,0.005l4.394,4.358
					c0.396,0.365,0.365,1.071,0,1.469c-3.567,3.713-8.179,5.562-13.013,5.729c-10.864,0.387-19.911-7.942-20.296-18.805
					C278.216,151.781,286.652,142.726,297.518,142.344z"/>
				<path d="M345.64,149.145c10.393,3.156,16.166,14.051,13.011,24.446c-3.156,10.396-13.982,16.132-24.378,12.977
					c-10.396-3.159-16.146-13.936-12.99-24.328C324.438,151.844,335.242,145.989,345.64,149.145z M336.797,178.251
					c5.718,1.736,11.814-1.524,13.54-7.188c1.735-5.715-1.506-11.867-7.224-13.603c-5.663-1.722-11.779,1.587-13.518,7.303
					C327.876,170.432,331.134,176.529,336.797,178.251z"/>
				<path d="M379.553,165.412c0.308-0.448,0.945-0.602,1.434-0.267l18.517,12.763c0.489,0.341,0.571,0.989,0.264,1.437l-3.361,4.875
					c-0.308,0.448-0.945,0.604-1.434,0.264l-12.387-8.539l-4.438,6.438l10.195,7.028c0.447,0.311,0.571,0.992,0.264,1.439
					l-3.362,4.872c-0.308,0.448-0.985,0.571-1.434,0.264l-10.194-7.028l-7.492,10.868c-0.308,0.448-0.989,0.574-1.434,0.264
					l-5.279-3.636c-0.491-0.34-0.57-0.989-0.264-1.437L379.553,165.412z"/>
				<path d="M411.45,190.434c0.411-0.352,1.065-0.34,1.455,0.113l14.622,17.091c0.39,0.453,0.302,1.102-0.112,1.458l-4.499,3.848
					c-0.414,0.354-1.068,0.341-1.455-0.113l-9.786-11.436l-5.945,5.086l8.055,9.412c0.352,0.412,0.3,1.104-0.115,1.456l-4.499,3.851
					c-0.414,0.354-1.104,0.299-1.455-0.113l-8.053-9.415l-10.035,8.583c-0.412,0.354-1.102,0.302-1.453-0.113l-4.169-4.872
					c-0.388-0.453-0.3-1.104,0.112-1.456L411.45,190.434z"/>
				<path d="M435.959,222.911c0.491-0.233,1.12-0.052,1.373,0.492l9.643,20.315c0.256,0.538,0.003,1.143-0.491,1.373l-5.348,2.541
					c-0.491,0.23-1.117,0.046-1.376-0.492l-6.448-13.595l-6.086,2.889l5.312,11.189c0.23,0.489,0,1.143-0.492,1.373l-5.347,2.541
					c-0.541,0.255-1.143-0.003-1.379-0.492l-5.306-11.189l-6.625,3.145l6.449,13.592c0.258,0.541,0.002,1.143-0.489,1.373
					l-5.348,2.541c-0.491,0.231-1.117,0.049-1.376-0.489l-9.64-20.318c-0.255-0.539,0-1.14,0.489-1.376L435.959,222.911z"/>
				<path d="M451.572,262.063c0.535-0.09,1.091,0.253,1.194,0.843l3.829,22.153c0.099,0.59-0.308,1.101-0.844,1.194l-5.836,1.008
					c-0.532,0.09-1.087-0.253-1.191-0.843l-2.56-14.822l-6.636,1.148l2.104,12.2c0.094,0.535-0.302,1.101-0.84,1.194l-5.834,1.008
					c-0.588,0.099-1.099-0.308-1.191-0.843l-2.109-12.203l-7.224,1.247l2.56,14.828c0.103,0.587-0.307,1.098-0.84,1.192
					l-5.834,1.008c-0.535,0.093-1.093-0.253-1.191-0.84l-3.828-22.158c-0.104-0.59,0.305-1.099,0.84-1.192L451.572,262.063z"/>
			</g>
		</g>
		<g>
			<g>
				<path d="M400.094,374.065l1.623,4.922c0.23,0.796-0.544,1.491-1,1.59c-0.23,0.088-4.993,1.046-7.404,3.702
					c-1.461,1.609-1.516,3.688-0.104,4.969c1.687,1.538,4.254,1.296,7.827-0.454c4.51-2.219,11.15-4.117,15.979,0.27
					c3.982,3.617,5.196,10.37-0.434,16.569c-3.801,4.18-8.854,5.463-10.837,5.867c-0.72,0.225-1.371-0.511-1.506-0.929l-1.235-4.864
					c-0.187-0.681,0.109-1.736,0.72-1.84c0.53-0.182,5.41-1.11,7.638-3.565c1.315-1.447,1.337-3.411,0.25-4.397
					c-1.488-1.354-3.708-1.17-7.883,0.84c-4.098,2.007-11.084,4.765-16.555-0.203c-4.145-3.763-5.076-11.145,0.293-17.061
					c4.749-5.227,9.556-6.152,11.318-6.237C399.553,373.208,399.824,373.233,400.094,374.065z"/>
				<path d="M391.233,426.66c0.288,0.464,0.179,1.107-0.332,1.425l-19.094,11.889c-0.505,0.319-1.134,0.132-1.422-0.33l-3.131-5.028
					c-0.286-0.459-0.176-1.107,0.332-1.42l12.773-7.959l-4.136-6.641l-10.514,6.55c-0.461,0.285-1.137,0.129-1.423-0.333
					l-3.131-5.029c-0.288-0.461-0.132-1.131,0.33-1.422l10.519-6.548l-6.981-11.205c-0.288-0.461-0.132-1.137,0.329-1.423
					l5.443-3.392c0.509-0.313,1.135-0.129,1.423,0.332L391.233,426.66z"/>
				<path d="M271.481,418.217l-29.546,27.462c-0.275,0.242-0.73,0.349-1.082,0.206l-0.503-0.206
					c-0.354-0.14-0.602-0.536-0.629-0.898l-1.967-40.292c-0.032-0.774,0.635-1.264,1.39-0.958l5.587,2.274
					c0.906,0.368,1.187,0.835,1.252,1.978l0.192,4.71l13.69,5.575l3.452-3.29c0.498-0.5,1.297-0.879,2.302-0.47l5.54,2.255
					C271.915,416.866,272.05,417.687,271.481,418.217z M246.406,420.565l0.445,9.865l0.049,0.021l7.157-6.77L246.406,420.565z"/>
				<path d="M203.722,424.391c-0.374,0.316-0.989,0.258-1.308-0.039l-0.632-0.599c-0.197-0.187-0.403-0.681-0.296-1.027l6.932-25.72
					l-0.077-0.074l-25.272,8.423c-0.341,0.124-0.846-0.055-1.044-0.239l-0.632-0.596c-0.315-0.296-0.409-0.912-0.115-1.302
					l20.588-30.768c0.403-0.59,1.093-0.61,1.57-0.162l4.661,4.4c0.354,0.332,0.414,0.986,0.153,1.34l-9.738,13.886l0.079,0.074
					l18.715-6.542c0.343-0.124,0.884,0.014,1.082,0.203l0.714,0.667c0.236,0.225,0.368,0.722,0.261,1.068l-5.402,19.107l0.083,0.074
					l13.254-10.571c0.341-0.277,0.953-0.296,1.349,0.077l4.66,4.397c0.479,0.448,0.494,1.14-0.065,1.579L203.722,424.391z"/>
			</g>
		</g>
	</g>
	<g>
		<g>
			<path d="M310.311,427.341c-4.955,15.091-12.812,17.566-12.812,26.706c0,7.053,5.773,12.771,12.812,12.771
				c7.074,0,12.737-5.718,12.737-12.771C323.048,445.319,315.183,442.748,310.311,427.341z"/>
		</g>
		<g>
			<path d="M422.257,334.707c13.219,8.789,13.532,17.02,22.331,19.447c6.812,1.876,13.858-2.161,15.731-8.956
				c1.873-6.811-2.131-13.79-8.931-15.668C442.974,327.211,438.397,334.108,422.257,334.707z"/>
		</g>
		<g>
			<path d="M177.743,334.707c-13.225,8.789-13.526,17.02-22.331,19.447c-6.812,1.876-13.858-2.161-15.727-8.956
				c-1.878-6.811,2.126-13.79,8.932-15.668C157.026,327.211,161.603,334.108,177.743,334.707z"/>
		</g>
	</g>
	<g>
		<g>
			<path d="M300,391.768c-51.051,0-92.582-41.541-92.582-92.6c0-51.048,41.531-92.578,92.582-92.578
				c51.056,0,92.593,41.53,92.593,92.578C392.593,350.227,351.056,391.768,300,391.768z M300,219.994
				c-43.66,0-79.18,35.518-79.18,79.174c0,43.668,35.52,79.196,79.18,79.196c43.665,0,79.19-35.528,79.19-79.196
				C379.19,255.512,343.665,219.994,300,219.994z"/>
			<path d="M314.512,300.033c0,47.87-6.498,86.704-14.512,86.683c-8.009,0.021-14.523-38.812-14.523-86.683
				c0-47.917,6.515-86.74,14.523-86.74C307.998,213.293,314.512,252.116,314.512,300.033z"/>
		</g>
		<g>
			<g>
				<path d="M259.518,219.321v4.471h18.862c2.291-1.593,4.669-3.082,7.097-4.471H259.518z"/>
				<path d="M278.731,224.909H258.4v-6.704h31.275l-3.645,2.086c-2.474,1.417-4.833,2.903-7.014,4.419L278.731,224.909z
					 M260.636,222.676h17.396c1.096-0.755,2.233-1.502,3.405-2.238h-20.801V222.676z"/>
			</g>
			<g>
				<path d="M241.479,236.761v4.471h18.027c1.266-1.554,2.642-3.01,4.01-4.471H241.479z"/>
				<path d="M259.507,242.349h-19.146v-6.704h25.731l-2.016,2.152c-1.25,1.333-2.541,2.713-3.705,4.142l-0.335,0.411H259.507z
					 M242.597,240.116h16.383c0.64-0.765,1.305-1.509,1.972-2.238h-18.354V240.116z"/>
			</g>
			<g>
				<path d="M227.434,254.192v4.463h20.9c0.753-1.505,1.506-3.004,2.34-4.463H227.434z"/>
				<path d="M249.023,259.772h-22.707v-6.696H252.6l-0.956,1.671c-0.823,1.44-1.568,2.921-2.31,4.408L249.023,259.772z
					 M228.552,257.539h19.093c0.374-0.747,0.753-1.491,1.143-2.23h-20.235V257.539z"/>
			</g>
			<g>
				<path d="M219.521,271.624v4.471h22.232c0.396-1.494,0.758-2.999,1.236-4.471H219.521z"/>
				<path d="M242.613,277.211h-24.209v-6.704h26.123l-0.475,1.461c-0.365,1.121-0.659,2.262-0.956,3.4L242.613,277.211z
					 M220.64,274.979h20.252l0.044-0.17c0.179-0.691,0.357-1.382,0.552-2.068H220.64V274.979z"/>
			</g>
			<g>
				<path d="M215.652,289.053v4.471h23.212c0.1-1.5,0.204-2.999,0.368-4.471H215.652z"/>
				<path d="M239.911,294.641h-25.377v-6.704h25.948l-0.141,1.24c-0.162,1.456-0.266,2.939-0.362,4.422L239.911,294.641z
					 M216.77,292.408h21.052c0.052-0.749,0.106-1.496,0.176-2.239H216.77V292.408z"/>
			</g>
			<g>
				<path d="M216.221,306.487v4.468h23.012c-0.164-1.478-0.269-2.969-0.368-4.468H216.221z"/>
				<path d="M240.482,312.072h-25.38v-6.701h24.809l0.068,1.042c0.097,1.483,0.2,2.958,0.362,4.419L240.482,312.072z
					 M217.338,309.839h20.659c-0.069-0.743-0.124-1.487-0.176-2.235h-20.483V309.839z"/>
			</g>
			<g>
				<path d="M219.521,323.921v4.471h23.469c-0.473-1.472-0.83-2.977-1.23-4.471H219.521z"/>
				<path d="M244.522,329.509h-26.118v-6.704h24.212l0.547,2.065c0.277,1.066,0.555,2.133,0.89,3.181L244.522,329.509z
					 M220.64,327.276h20.854c-0.173-0.613-0.333-1.229-0.492-1.845l-0.104-0.394H220.64V327.276z"/>
			</g>
			<g>
				<path d="M227.434,341.35v4.466h23.24c-0.829-1.456-1.587-2.953-2.34-4.466H227.434z"/>
				<path d="M250.674,346.932h-24.357v-6.698h22.71l0.308,0.619c0.744,1.494,1.491,2.973,2.31,4.41l0.953,1.669H250.674z
					 M228.552,344.699h20.235c-0.39-0.737-0.769-1.483-1.145-2.232h-19.091V344.699z"/>
			</g>
			<g>
				<path d="M241.466,358.779v4.471h22.051c-1.368-1.466-2.735-2.917-4.01-4.471H241.466z"/>
				<path d="M263.517,364.367h-23.169v-6.704h19.687l0.338,0.408c1.161,1.421,2.405,2.752,3.655,4.091l2.057,2.206H263.517z
					 M242.583,362.134h18.371c-0.67-0.733-1.332-1.474-1.972-2.238h-16.399V362.134z"/>
			</g>
			<g>
				<path d="M261.124,376.216v4.469h24.353c-2.428-1.393-4.806-2.87-7.097-4.469H261.124z"/>
				<path d="M289.671,381.801h-29.664V375.1h18.725l0.289,0.2c2.128,1.486,4.421,2.929,7.011,4.415L289.671,381.801z
					 M262.242,379.568h19.189c-1.187-0.743-2.315-1.483-3.4-2.235h-15.789V379.568z"/>
			</g>
		</g>
		<g>
			<g>
				<path d="M312.546,217.146h-2.884c-1.288,1.357-2.549,2.84-3.755,4.466h9.226C314.298,219.903,313.436,218.459,312.546,217.146z"
					/>
				<path d="M315.133,222.728h-11.444l1.321-1.782c1.175-1.585,2.469-3.123,3.842-4.569l0.33-0.348h3.957l0.333,0.49
					c1.005,1.483,1.875,2.988,2.663,4.602l0.786,1.606H315.133z M308.195,220.495h5.098c-0.421-0.761-0.865-1.501-1.346-2.233
					h-1.802C309.473,218.986,308.821,219.731,308.195,220.495z"/>
			</g>
			<g>
				<path d="M319.867,234.572H298.61c-0.621,1.425-1.197,2.919-1.761,4.468l24.193-0.005
					C320.661,237.497,320.271,236.008,319.867,234.572z"/>
				<path d="M295.254,240.158l0.547-1.5c0.571-1.571,1.156-3.087,1.785-4.533l0.294-0.67h22.834l0.23,0.814
					c0.406,1.447,0.799,2.947,1.184,4.496l0.344,1.386L295.254,240.158z M299.347,235.688c-0.306,0.729-0.602,1.474-0.89,2.234
					l21.152-0.004c-0.195-0.756-0.39-1.5-0.591-2.23H299.347z"/>
			</g>
			<g>
				<path d="M323.674,251.998l-30.584,0.011c-0.326,1.445-0.643,2.934-0.934,4.466l32.229-0.011
					C324.163,254.931,323.927,253.481,323.674,251.998z"/>
				<path d="M290.808,257.593l0.25-1.327c0.294-1.545,0.612-3.047,0.942-4.503l0.197-0.871l32.419-0.012l0.159,0.93
					c0.253,1.493,0.492,2.951,0.714,4.493l0.188,1.277L290.808,257.593z M293.985,253.125c-0.162,0.733-0.318,1.476-0.473,2.231
					l29.576-0.01c-0.115-0.751-0.235-1.491-0.359-2.231L293.985,253.125z"/>
			</g>
			<g>
				<path d="M325.885,269.44h-35.679c-0.165,1.458-0.311,2.95-0.444,4.469h36.514C326.151,272.396,326.022,270.91,325.885,269.44z"
					/>
				<path d="M327.486,275.025h-38.944l0.107-1.215c0.134-1.527,0.28-3.028,0.447-4.495l0.112-0.991h37.692l0.096,1.012
					c0.138,1.473,0.267,2.964,0.391,4.482L327.486,275.025z M290.983,272.792h34.078c-0.063-0.751-0.13-1.495-0.195-2.235h-33.657
					C291.129,271.294,291.055,272.04,290.983,272.792z"/>
			</g>
			<g>
				<path d="M326.98,286.864h-38.037c-0.05,1.472-0.1,2.955-0.135,4.471h38.282C327.068,289.833,327.017,288.35,326.98,286.864z"/>
				<path d="M328.225,292.452h-40.559l0.024-1.143c0.036-1.52,0.085-3.007,0.138-4.482l0.035-1.079h40.208l0.068,2.646
					c0.027,0.971,0.053,1.944,0.069,2.925L328.225,292.452z M289.953,290.219h35.998c-0.011-0.589-0.027-1.177-0.044-1.762
					l-0.014-0.477h-35.871C290,288.722,289.976,289.466,289.953,290.219z"/>
			</g>
			<g>
				<path d="M327.091,304.307h-38.282c0.035,1.51,0.079,2.999,0.135,4.465h38.037C327.03,307.289,327.068,305.806,327.091,304.307z"
					/>
				<path d="M328.061,309.889h-40.194l-0.038-1.075c-0.055-1.471-0.102-2.965-0.138-4.481l-0.024-1.143h40.559l-0.016,1.133
					c-0.022,1.506-0.061,2.997-0.113,4.486L328.061,309.889z M290.022,307.656h35.876c0.022-0.743,0.042-1.486,0.056-2.233h-36.001
					C289.973,306.173,289.995,306.917,290.022,307.656z"/>
			</g>
			<g>
				<path d="M326.275,321.735H289.75c0.138,1.516,0.291,3.01,0.456,4.466h35.688C326.03,324.729,326.168,323.246,326.275,321.735z"
					/>
				<path d="M326.912,327.317h-37.703l-0.112-0.992c-0.165-1.462-0.321-2.964-0.459-4.49l-0.109-1.217h38.947l-0.086,1.196
					c-0.109,1.519-0.247,3.01-0.384,4.49L326.912,327.317z M291.206,325.084h33.668c0.069-0.74,0.135-1.483,0.195-2.233h-34.091
					C291.05,323.603,291.126,324.349,291.206,325.084z"/>
			</g>
			<g>
				<path d="M324.399,339.164h-32.254c0.285,1.532,0.604,3.016,0.944,4.468h30.59C323.927,342.155,324.18,340.696,324.399,339.164z"
					/>
				<path d="M323.68,344.749h-31.474l-0.204-0.861c-0.343-1.469-0.667-2.969-0.955-4.519l-0.247-1.321h34.888l-0.182,1.274
					c-0.187,1.295-0.396,2.538-0.604,3.783l-0.278,1.644H323.68z M293.979,342.516h28.756c0.123-0.742,0.247-1.482,0.365-2.236
					h-29.602C293.653,341.036,293.812,341.78,293.979,342.516z"/>
			</g>
			<g>
				<path d="M321.043,356.598h-24.207c0.563,1.549,1.137,3.049,1.752,4.466h21.285C320.279,359.633,320.667,358.142,321.043,356.598
					z"/>
				<path d="M319.873,362.181h-22.018l-0.291-0.672c-0.624-1.438-1.206-2.958-1.777-4.529l-0.547-1.498h27.226l-0.338,1.381
					c-0.379,1.557-0.769,3.062-1.181,4.505l-0.23,0.812H319.873z M299.327,359.948h19.697c0.2-0.731,0.398-1.474,0.591-2.233H298.44
					C298.731,358.476,299.022,359.221,299.327,359.948z"/>
			</g>
			<g>
				<path d="M305.907,374.033h-0.035c1.214,1.62,2.466,3.106,3.749,4.465h-3.714V374.033z"/>
				<path d="M312.211,379.615h-7.421v-5.162l-1.151-1.537h1.151v-2.183l1.64,2.183h0.56l0.025,0.774
					c1.087,1.431,2.238,2.789,3.419,4.042L312.211,379.615z"/>
			</g>
		</g>
	</g>
</g>
</svg>
