<?xml version="1.0" encoding="utf-8"?>
<!-- Generator: Adobe Illustrator 16.0.0, SVG Export Plug-In . SVG Version: 6.00 Build 0)  -->
<!DOCTYPE svg PUBLIC "-//W3C//DTD SVG 1.1//EN" "http://www.w3.org/Graphics/SVG/1.1/DTD/svg11.dtd">
<svg version="1.1" id="Layer_1" xmlns="http://www.w3.org/2000/svg" xmlns:xlink="http://www.w3.org/1999/xlink" x="0px" y="0px"
	 width="600px" height="600px" viewBox="0 0 600 600" enable-background="new 0 0 600 600" xml:space="preserve">
<g>
	<path d="M277.41,238.021c21.089,0,42.157,0,63.229,0c26.468,0,51.059,2.587,77.092,4.809c13.852,1.186,29.087,0.622,42.606,3.928
		c13.101,3.22,27.575,10.639,32.065,13.325c4.498,2.673,5.004,10.541,3.799,15.98c-1.966,8.789-5.042,8.438-13.733,11.897
		c-7.787,3.102-14.214,6.697-21.328,9.975c-20.09,9.272-46.287,10.239-68.841,11.425c-46.008,2.411-91.924,2.386-138.047,2.386
		c-35.43,0-68.378-0.185-103.28-8.309c-12.044-2.803-24.137-6.089-35.731-10.136c-9.895-3.442-13.307-3.358-11.566-14.922
		c2.691-17.892,20.56-21.437,35.922-21.336c37.726,0.25,68.619-12.688,106.104-12.688L277.41,238.021z"/>
	<path fill="#FFFFFF" d="M272.929,253.409c1.341-0.012,2.683-0.046,4.015-0.109c1.695-0.075,3.206-0.639,4.884-0.809
		c2.48-0.245,5.065-0.083,7.563-0.112c6.48-0.104,12.838-0.956,19.37-0.956c7.531,0,15.055-0.417,22.58-0.691
		c7.027-0.253,14.052,0.225,21.095,0.627c15.29,0.863,30.473,3.045,45.694,4.754c0.293,0.029,0.606,0.072,0.903,0.092
		c2.121,0.242,4.035,1.272,6.078,1.802c3.335,0.869,6.981,0.852,10.369,1.358c0.995,0.152,1.968,0.342,2.946,0.489
		c2.006,0.311,3.485,1.237,5.445,1.709c2.018,0.495,4.207,0.846,6.161,1.099c0.795,0.115,2.127-0.334,2.841-0.023
		c1.335,0.579,2.291,2.072,3.623,2.803c1.051,0.575,2.127,1.188,3.188,1.75c2.455,1.301,5.459,1.646,7.2,4.032
		c2.602,3.574,4.185,9.356,2.708,13.232c-3.974,0.035-8.055,0.981-11.957,1.638c-2.65,0.438-5.123,0.869-7.652,1.542
		c-1.985,0.524-3.116,0.46-4.587,1.237c-1.404,0.749-2.432,1.068-3.957,1.525c-2.179,0.662-4.058,2.124-6.19,2.682
		c-5.35,1.416-11.805,0.483-17.172-0.075c-4.239-0.446-8.455-0.343-12.727-0.343c-3.62-0.008-7.131,0.521-10.711,0.458
		c-3.094-0.04-4.273,1.226-7.154,2.13c-4.637,1.439-10.217,1.163-15.051,1.531c-4.11,0.316-8.335,0.098-12.456,0.089
		c-6.544,0-13.021-0.463-19.566-0.463c-3.453,0-6.906,0-10.36,0c-1.654,0-3.341,0.104-4.981-0.081
		c-6.359-0.722-12.26-1.672-18.582-0.386c-6.944,1.422-13.816-0.627-20.643,0.297c-7.293,0.981-14.734-0.127-22.05-0.282
		c-2.861-0.063-5.776-0.313-8.64-0.469c-2.653-0.149-5.264-0.774-7.896-0.979c-3.114-0.23-6.285,0.308-9.385-0.078
		c-9.092-1.14-18.462-0.414-27.619-1.206c-3.292-0.271-6.593-1.001-9.877-1.03c-1.801-0.012-2.058,0-3.364-0.967
		c-2.979-2.193-5.854-3.39-9.364-4.19c-1.436-0.331-2.843-0.452-4.343-0.466c-3.718-0.04-6.794-2.25-9.148-4.91
		c-1.92-2.175-5.419-5.284-3.982-8.51c1.43-3.229,6.794-5.045,9.772-6.397c1.891-0.869,3.62-1.364,5.638-1.525
		c2.127-0.173,3.753-1.097,5.831-1.618c1.493-0.38,2.714-0.316,4.271-0.458c3.215-0.308,6.377-0.964,9.692-0.956
		c2.699,0.009,5.315,0.078,7.96-0.584c1.896-0.478,2.665-1.491,4.279-2.216c2.176-0.999,5.485-1.209,7.871-1.548
		c7.163-0.999,15.207-1.128,22.401-0.328c2.806,0.308,4.835,0.933,7.744,0.564c3.562-0.455,7.097-1.108,10.591-1.951
		c5.283-1.284,9.652-2.852,15.146-2.843C265.205,253.323,269.081,253.44,272.929,253.409z"/>
	<path d="M102.534,305.003c2.861,2.817,7.636,3.747,11.445,5.244c5.886,2.328,11.852,5.272,17.852,7.304
		c7.027,2.389,15.425,3.931,22.971,4.668c6.829,0.662,13.67,1.436,20.496,1.531c8.352,0.121,16.323,2.549,24.706,2.492
		c38.394-0.259,76.698,2.498,115.154,2.498c16.263,0,32.534,0,48.791,0c8.498,0,17.034,0.213,25.532,0
		c5.033-0.126,8.059-2.25,13.104-2.596c6.562-0.455,9.942-0.489,14.887-2.36c10.513-3.991,24.18-0.65,34.942-4.708
		c3.203-1.203,4.245-3.77,6.783-5.114c2.467-1.31,6.944-0.319,9.531-1.436c4.755-2.046,10.295-5.37,15.5-7.862
		c2.737-1.324,5.952-1.615,8.527-3.033c2.383-1.318,4.777-3.569,7.244-4.91c-0.686,12.271-1.856,22.039-7.227,33.124
		c-4,8.265-7.845,15.652-10.36,24.174c-1.358,4.616-2.915,7.465-5.318,12.093c-1.678,3.234-2.639,8.536-4.952,11.31
		c-2.484,2.961-4.795,3.658-6.688,7.247c-3.439,6.493-3.732,14.24-7.339,20.617c-3.31,5.854-8.893,9.998-13.943,14.303
		c-7.715,6.564-17.022,11.946-23.359,19.992c-2.302,2.913-3.557,6.916-6.127,9.482c-3.623,3.624-9.396,5.736-13.404,9.106
		c-8.251,6.964-17.311,11.718-28.209,16.312c-6.297,2.653-12.734,3.989-18.732,6.043c-17.845,6.066-37.244,7.534-56.244,7.54
		c-9.37,0-18.734-0.029-28.105,0c-9.059,0.029-17.039-2.141-24.893-5.531c-8.378-3.598-16.527-3.592-25.826-5.612
		c-7.258-1.571-13.092-5.485-19.057-8.967c-3.88-2.268-9.132-3.667-12.703-5.986c-4.386-2.843-7.339-7.644-11.201-10.864
		c-3.536-2.947-8.857-4.573-11.856-7.876c-1.651-1.831-1.885-5.508-3.508-7.684c-1.41-1.905-4.109-1.865-5.813-3.56
		c-10.093-10.093-22.341-16.968-27.399-30.681c-3.364-9.117-4.818-17.169-9.98-25.912c-4.786-8.133-10.479-16.378-13.336-25.276
		c-2.331-7.255-3.126-12.521-3.126-20.119c0-2.878,0.251-5.882,0-8.749c-0.25-2.797-1.557-6.118-1.243-8.743L102.534,305.003z"/>
	<path d="M294.337,123.917c0.371,8.875-11.517,29.527-16.832,37.539c-7.497,11.318-13.215,17.451-13.16,31.812
		c0.022,6.539-0.974,11.051,2.825,15.506c3.166,3.718,5.472,9.149,9.636,11.252c10.087,5.114,20.366,6.285,32.482,5.002
		c9.324-0.99,22.165-9.629,24.815-18.229c3.398-11.01,1.477-20.413-4.987-29.987c-1.151-1.692-3.598-2.032-4.826-4.069
		c-0.987-1.606-2.616-7.292-3.342-9.459c-1.901-5.701-1.663-8.303-5.531-13.586c-6.028-8.23-11.611-29.993-16.72-37.76
		L294.337,123.917z"/>
	<path d="M227.477,269.698c2.435,0,4.86,0,7.292,0c9.315,0.023,18.165-1.842,27.406-1.885c6.884-0.037,15.042,1.333,21.765,0
		c3.324-0.653,4.248-1.562,7.868-1.827c7.235-0.535,14.559-1.744,21.794-1.928c5.646-0.144,11.307,0.02,16.944,0.02
		c10.928,0,21.849,0.043,32.779,0c6.305-0.014,13.448,0.078,19.722,0.944c3.108,0.429,5.966,1.027,9.209,1.876
		c2.645,0.682,5.727,2.996,8.473,2.964c0.834,3.848,2.236,6.541-1.701,8.993c-3.27,2.049-9.212,2.417-12.953,2.817
		c-11.146,1.188-22.836,0.106-33.847,1.194c-8.239,0.812-17.12,0.76-25.408,0.886c-4.817,0.092-9.275,0.846-14.035,0.938
		c-11.172,0.242-22.355,0-33.526,0c-23.032,0-46.944,0.195-69.581-1.859c-3.583-0.331-6.956,0.328-9.606-2.515
		c-3.1-3.324-1.591-6.481,0.933-9.028c5.401-5.445,13.561-2.527,20.845-2.527L227.477,269.698z"/>
</g>
</svg>
