<?xml version="1.0" encoding="utf-8"?>
<!-- Generator: Adobe Illustrator 16.0.0, SVG Export Plug-In . SVG Version: 6.00 Build 0)  -->
<!DOCTYPE svg PUBLIC "-//W3C//DTD SVG 1.1//EN" "http://www.w3.org/Graphics/SVG/1.1/DTD/svg11.dtd">
<svg version="1.1" id="Layer_1" xmlns="http://www.w3.org/2000/svg" xmlns:xlink="http://www.w3.org/1999/xlink" x="0px" y="0px"
	 width="600px" height="600px" viewBox="0 0 600 600" enable-background="new 0 0 600 600" xml:space="preserve">
<g>
	<path d="M249.555,397.373c-4.926-5.268-9-11.305-12.85-17.425c-6.664-10.547-6.721-18.725-8.793-30.811
		c-0.799-4.743-2.785-9.524-3.619-14.251c-1.57-9.009-4.5-19.129-4.807-27.75c-1.012-27.947,3.545-57.797,16.227-82.898
		c6.025-11.912,14.287-23.066,25.5-30.537c9.668-6.458,20.355-4.53,31.561-4.886c11.221-0.351,23.584-1.031,34.066,3.765
		c28.934,13.253,55.389,39.001,63.891,69.934c1.738,6.291,0.084,11.917,0.596,18.477c0.68,8.541,3.443,15.365,2.562,24.036
		c-0.9,8.641-1.682,17.312-2.146,25.983c-0.871,16.094-2.355,33.654-11.072,47.672c-25.166,40.48-82.404,54.352-122.375,26.367
		C255.074,402.804,252.195,400.193,249.555,397.373z"/>
	<path fill="#FFFFFF" d="M314.65,208.585c1.262,0,8.18,7.292,11.549,11.449c3.23,4.003,5.746,8.282,9.385,11.799
		c2.973,2.851,2.461,6.286,4.467,9.982c1.816,3.374,2.355,5.651,2.318,9.447c-0.057,5.319,1.736,9.815,1.689,15.083
		c-0.027,3.378,0,6.757,0,10.135c0,7.609,0,15.208,0,22.81c0,6.823-1.059,12.866-1.682,19.408
		c-0.594,6.186-0.852,12.134-1.502,17.964c-0.363,3.128-0.445,6.076-1.086,9.071c-0.352,1.638-0.076,3.588-0.77,5.114
		c-0.586,1.234-1.469,1.925-1.756,3.312c-0.816,3.993,0.529,8.541-0.146,12.552c-0.531,3.071-2.938,4.625-4.486,7.156
		c-1.475,2.417-3.396,4.418-4.619,6.537c-1.699,2.948-11.979,17.609-15.895,15.735c-2.693-1.292,3.795-17.297,4.393-19.452
		c3.301-11.697,5.297-24.678,5.586-36.854c0.166-7.302,0-14.627,0-21.942c0-6.588-1.123-14.63,0.771-20.875
		c1.113-3.675,1.791-5.621,1.764-9.675c-0.008-1.705,0-3.409,0-5.111c0-4.077,0.416-8.446-0.008-12.508
		c-0.672-6.378-0.891-12.818-0.848-19.437c0.049-7.064-1.754-13.166-4.23-18.535c-1.301-2.806-2.018-6.573-3.371-9.537
		c-1.459-3.184-1.654-5.104-1.338-8.416C314.947,212.67,312.895,208.585,314.65,208.585z"/>
	<g>
		<path d="M307.502,100.963c2.711,0.975,6.807,68.926-13.178,40.403C287.184,131.162,286.988,93.536,307.502,100.963z"/>
		<path d="M315.855,451.249c0.633,1.382,1.125,27.289-0.748,41.872c-4.078,5.449-11.232,10.944-14.381,2.59
			c-1.32-8.733-2.328-16.68-3.516-25.016c-1.654-11.615,6.459-15.643,8.648-22.382c0.559-1.39,5.516-2.654,7.102-2.979
			C314.549,445.019,315.217,449.882,315.855,451.249z"/>
		<path d="M479.504,303.571c0.898,3.222,1.029,6.081,0.062,9.334c-11.641,2.009-24.199,2.303-35.031,4.084
			c-6.508,1.06-39.164-2.697-23.432-22.879C430.881,281.578,469.328,296.707,479.504,303.571z"/>
		<path d="M186.219,298.092c-7.816-3.581-14.365-3.891-19.658-5.478c-6.9-2.05-13.422-1.919-20.914-1.909
			c-9.719,0.015-30.658-4.003-24.896,12.659c5.346,15.495,57.426,19.702,65.469,7.619
			C186.219,310.983,194.02,301.685,186.219,298.092z"/>
		<path d="M419.061,143.931c2.918-0.256,5.359,12.536,3.01,20.02c-2.635,8.436-13.135,12.669-19.502,17.857
			c-7.152,5.818-12.418,13.911-19.207,3.711C370.85,166.705,407.18,144.944,419.061,143.931z"/>
		<path d="M173.547,455.472c-8.275-10.836,3.777-16.068,10.682-22.18c3.381-2.979,15.066-18.295,20.246-16.273
			c6.926,2.708,1.598,13.401-0.354,17.399C200.131,442.669,184.416,469.702,173.547,455.472z"/>
		<path d="M216.625,179.162c-7.508-1.615-19.613-13.483-28.508-19.639c-8.221-5.697-20.777-11.958-24.336-7.985
			c-3.557,3.972,8.324,24.709,22.992,34.668c5.465,3.703,13.17,5.618,19.143,8.74c9.234,4.796,14.951,0.696,15.797-3.102
			C222.547,188.035,224.145,180.787,216.625,179.162z"/>
		<path d="M441.854,450.033c-2.777,4.604-48.551-10.985-37.076-26.452C424.16,397.493,444.627,445.444,441.854,450.033z"/>
	</g>
</g>
</svg>
