<?xml version="1.0" encoding="utf-8"?>
<!-- Generator: Adobe Illustrator 16.0.0, SVG Export Plug-In . SVG Version: 6.00 Build 0)  -->
<!DOCTYPE svg PUBLIC "-//W3C//DTD SVG 1.1//EN" "http://www.w3.org/Graphics/SVG/1.1/DTD/svg11.dtd">
<svg version="1.1" id="Layer_1" xmlns="http://www.w3.org/2000/svg" xmlns:xlink="http://www.w3.org/1999/xlink" x="0px" y="0px"
	 width="600px" height="600px" viewBox="0 0 600 600" enable-background="new 0 0 600 600" xml:space="preserve">
<g>
	<polygon fill="#85D5C8" points="102,199.981 301,134.879 500,199.981 500,396.345 301,461.443 102,396.345 	"/>
	<polygon fill="#B85856" points="292.206,236.46 367.029,185.74 433.027,224.397 	"/>
	<polygon fill="#B85856" points="131.387,243.723 218.689,191.866 303.234,248.649 	"/>
	<polygon fill="#B85856" points="406.446,237.955 457.639,201.562 497.445,224.063 495.606,237.509 	"/>
	<polygon fill="#FF5D60" points="113.619,271.511 299.247,152.521 449.659,248.714 	"/>
	<polygon fill="#B85856" points="295.27,170.12 294.458,188.166 305.546,194.625 325.902,254.203 218.689,260.777 260.5,200.06 
		272.897,195.754 285.771,173.182 	"/>
	<polygon fill="#B85856" points="315.182,169 334.494,192.534 323.005,194.322 347.815,243.811 401.564,235.025 321.613,169 	"/>
	<polygon fill="#FF5D60" points="290.062,261.599 404.621,188.166 497.445,247.53 	"/>
	<polygon fill="#FFFFFF" points="266.848,172.264 299.247,151.584 329.132,170.647 317.02,169.966 307.83,177.012 295.119,171.528 
		281.639,180.687 279.188,169.812 	"/>
	<polygon fill="#B85856" points="397.889,197.071 351.401,236.688 378.743,239.347 392.683,239.655 397.735,219.758 
		395.436,211.101 401.564,199.126 	"/>
	<polygon fill="#B85856" points="409.834,199.22 418.719,216.219 412.355,247.462 464.285,238.888 431.66,222 427.87,213.041 
		415.351,197.689 	"/>
	<g>
		<defs>
			<polygon id="SVGID_3_" points="102,201.819 301,136.715 500,201.819 500,398.183 301,463.282 102,398.183 			"/>
		</defs>
		<clipPath id="SVGID_1_">
			<use xlink:href="#SVGID_3_"  overflow="visible"/>
		</clipPath>
		<g clip-path="url(#SVGID_1_)">
			<polygon fill="#506E5A" points="435.208,329 424.015,305 430.388,305 420.438,284 426.365,284 415.175,257 419.616,257 
				402.446,218.567 385.274,257 389.719,257 378.525,284 384.453,284 374.506,305 380.883,305 369.686,329 402.749,329 			"/>
			<polygon fill="#556757" points="433.582,307 423.637,285 429.56,285 418.369,259 422.815,259 402.568,219.156 410.523,252 
				406.262,252 420.191,277 414.729,277 424.714,300 416.326,300 429.009,326.688 369.686,327.851 376.081,330.826 438.404,330.13 
				427.209,307 			"/>
		</g>
		<g clip-path="url(#SVGID_1_)">
			<polygon fill="#556757" points="424.182,329 412.986,305 419.359,305 409.41,284 415.339,284 404.146,257 408.59,257 
				391.42,218.567 374.246,257 378.692,257 367.498,284 373.425,284 363.479,305 369.854,305 358.657,329 391.721,329 			"/>
			<polygon fill="#556757" points="422.555,307 412.605,285 418.533,285 407.341,259 411.787,259 391.468,219.013 403.171,252 
				398.909,252 409.164,277 403.7,277 413.686,300 405.299,300 417.98,326.688 358.657,327.851 365.053,330.826 427.376,330.13 
				416.181,307 			"/>
		</g>
		<g clip-path="url(#SVGID_1_)">
			<polygon fill="#506E5A" points="389.258,327 378.062,303 384.436,303 374.49,280 380.418,280 369.227,256 373.669,256 
				356.498,217.568 339.325,256 343.771,256 332.576,280 338.505,280 328.558,303 334.935,303 323.737,327 356.801,327 			"/>
			<polygon fill="#556757" points="387.635,305 377.685,284 383.612,284 372.421,257 376.867,257 356.498,216.406 364.575,249 
				360.312,249 374.24,276 368.78,276 378.766,299 370.378,299 383.061,325.27 323.737,326.221 330.133,329.095 392.456,328.262 
				381.259,305 			"/>
		</g>
		<g clip-path="url(#SVGID_1_)">
			<polygon fill="#556757" points="402.125,329 390.928,305 397.305,305 387.355,284 393.282,284 382.092,257 386.534,257 
				369.364,218.567 352.19,257 356.637,257 345.441,284 351.37,284 341.423,305 347.8,305 336.603,329 369.666,329 			"/>
			<polygon fill="#556757" points="400.5,307 390.55,285 396.478,285 385.286,259 389.732,259 369.44,219.075 381.116,252 
				376.854,252 387.107,277 381.646,277 391.631,300 383.243,300 395.926,326.688 336.603,327.851 342.998,330.826 405.321,330.13 
				394.124,307 			"/>
		</g>
		<g clip-path="url(#SVGID_1_)">
			<polygon fill="#556757" points="284.495,327 273.302,303 279.675,303 269.726,280 275.652,280 264.462,256 268.903,256 
				251.733,217.568 234.561,256 239.006,256 227.812,280 233.742,280 223.793,303 230.173,303 218.973,327 252.036,327 			"/>
			<polygon fill="#556757" points="282.869,305 272.924,284 278.847,284 267.658,257 272.104,257 251.733,216.406 263.486,249 
				259.223,249 269.478,276 264.019,276 274.003,299 265.617,299 278.298,325.27 218.973,326.221 225.368,329.095 287.691,328.262 
				276.496,305 			"/>
		</g>
		<g clip-path="url(#SVGID_1_)">
			<polygon fill="#556757" points="297.36,321 286.167,299 292.54,299 282.591,276 288.518,276 277.331,249 281.769,249 
				264.603,210.568 247.426,249 251.871,249 240.677,276 246.607,276 236.658,299 243.038,299 231.838,321 264.903,321 			"/>
			<polygon fill="#556757" points="295.738,300 285.789,277 291.716,277 280.525,252 284.97,252 264.603,211.406 271.878,244 
				268.686,244 282.343,271 276.885,271 286.869,292 278.482,292 291.164,319.013 231.838,320.335 238.233,323.393 300.557,322.912 
				289.361,300 			"/>
		</g>
		<g clip-path="url(#SVGID_1_)">
			<polygon fill="#506E5A" points="242.223,316 231.029,292 237.402,292 227.453,271 233.38,271 222.189,244 226.632,244 
				209.462,205.567 192.288,244 196.734,244 185.539,271 191.471,271 181.521,292 187.9,292 176.699,316 209.764,316 			"/>
			<polygon fill="#556757" points="240.597,293 230.65,272 236.574,272 225.384,245 229.83,245 209.513,205.513 221.214,239 
				216.951,239 227.205,264 221.743,264 231.729,287 223.343,287 236.023,313.757 176.699,314.949 183.096,317.943 245.417,316.688 
				234.224,293 			"/>
		</g>
		<g clip-path="url(#SVGID_1_)">
			<polygon fill="#556757" points="185.64,263 172.982,235 180.189,235 168.941,212 175.645,212 162.99,181 168.014,181 
				148.601,137.547 129.187,181 134.209,181 121.557,212 128.26,212 117.011,235 124.224,235 111.561,263 148.941,263 			"/>
			<polygon fill="#556757" points="183.805,237 172.556,213 179.256,213 166.602,184 171.628,184 148.601,138.35 161.887,176 
				157.066,176 168.662,203 162.486,203 173.774,229 164.293,229 178.631,259.644 111.561,261.19 118.795,264.672 189.251,263.52 
				176.595,237 			"/>
		</g>
		<g clip-path="url(#SVGID_1_)">
			<polygon fill="#506E5A" points="459.102,337 447.908,315 454.281,315 444.331,292 450.259,292 439.067,267 443.51,267 
				426.34,228.565 409.166,267 413.612,267 402.418,292 408.349,292 398.399,315 404.778,315 393.577,337 426.641,337 			"/>
			<polygon fill="#556757" points="457.476,316 447.528,293 453.453,293 442.262,269 446.707,269 426.434,228.154 432.578,260 
				428.316,260 444.084,287 438.624,287 448.606,308 440.222,308 452.905,335.285 393.577,336.74 399.974,339.868 462.296,339.151 
				451.103,316 			"/>
		</g>
		<g clip-path="url(#SVGID_1_)">
			<polygon fill="#0E955E" points="154.583,291 141.199,260 148.82,260 136.926,235 144.015,235 130.634,203 135.944,203 
				115.416,157.044 94.882,203 100.196,203 86.811,235 93.9,235 82.006,260 89.631,260 76.242,291 115.774,291 			"/>
			<polygon fill="#506E5A" points="152.643,263 140.746,237 147.835,237 134.452,207 139.769,207 115.416,157.71 126.102,201 
				119.208,201 133.225,232.121 113.619,233.206 138.967,257.389 117.835,258.123 147.174,286.798 76.242,288.51 83.889,292.23 
				158.407,291.028 145.02,263 			"/>
		</g>
		<g clip-path="url(#SVGID_1_)">
			<polygon fill="#0E955E" points="213.397,301 200.012,272 207.637,272 195.74,245 202.828,245 189.446,215 194.762,215 
				174.229,169.044 153.695,215 159.011,215 145.628,245 152.713,245 140.819,272 148.444,272 135.057,301 174.589,301 			"/>
			<polygon fill="#506E5A" points="211.457,273 199.56,248 206.648,248 193.267,216 198.582,216 174.229,168.008 186.371,214.06 
				168.908,214.142 190.441,237.99 182.617,238.25 195.965,263.282 174.884,265.545 205.991,298.013 135.057,299.63 
				142.702,303.304 217.22,301.565 203.835,273 			"/>
		</g>
		<g clip-path="url(#SVGID_1_)">
			<polygon fill="#0E955E" points="266.713,316 255.303,292 261.802,292 251.66,271 257.702,271 246.296,243 250.826,243 
				233.325,203.83 215.822,243 220.354,243 208.946,271 214.985,271 204.847,292 211.348,292 199.935,316 233.633,316 			"/>
			<polygon fill="#506E5A" points="265.059,293 254.919,272 260.959,272 249.553,244 254.082,244 233.325,202.961 243.958,239.593 
				233.235,240.576 251.407,263 245.845,263 256.023,287 247.471,287 260.397,314.146 199.935,315.296 206.453,318.319 
				269.972,317.092 258.562,293 			"/>
		</g>
		<g clip-path="url(#SVGID_1_)">
			<polygon fill="#0E955E" points="317.578,301 306.383,277 312.758,277 302.808,256 308.738,256 297.547,229 301.989,229 
				284.82,190.567 267.643,229 272.089,229 260.898,256 266.825,256 256.876,277 263.256,277 252.054,301 285.117,301 			"/>
			<polygon fill="#506E5A" points="315.956,279 306.005,257 311.933,257 298.904,229 303.351,229 284.868,190.795 294.734,226.65 
				282.408,226.867 302.561,249 297.101,249 307.086,272 298.698,272 311.381,298.906 252.054,300.171 258.453,303.205 
				320.772,302.317 309.579,279 			"/>
		</g>
		<g clip-path="url(#SVGID_1_)">
			<polygon fill="#0E955E" points="367.203,309 356.008,287 362.381,287 352.436,264 358.362,264 347.17,239 351.614,239 
				334.443,200.567 317.271,239 321.713,239 310.521,264 316.449,264 306.499,287 312.879,287 301.679,309 334.745,309 			"/>
			<polygon fill="#506E5A" points="365.58,288 355.63,267 361.558,267 350.366,241 354.811,241 334.443,200.36 344.589,234.246 
				332.028,235.291 352.186,259 346.725,259 356.711,280 348.323,280 361.006,307.498 301.679,309.063 308.078,312.244 
				370.397,311.338 359.202,288 			"/>
		</g>
		<g clip-path="url(#SVGID_1_)">
			<polygon fill="#0E955E" points="409.478,324 398.28,301 404.657,301 394.706,279 400.634,279 389.444,255 393.885,255 
				376.716,216.567 359.543,255 363.987,255 352.794,279 358.722,279 348.774,301 355.151,301 343.954,324 377.017,324 			"/>
			<polygon fill="#506E5A" points="407.852,303 397.9,280 403.829,280 392.639,256 397.083,256 376.716,215.406 388.469,248 
				384.205,248 394.46,273 388.998,273 398.983,295 390.594,295 403.278,322.349 343.954,323.842 350.35,326.985 412.672,326.208 
				401.479,303 			"/>
		</g>
		<g clip-path="url(#SVGID_1_)">
			<polygon fill="#0E955E" points="446.236,333 435.043,308 441.416,308 431.465,287 437.394,287 426.202,260 430.645,260 
				413.475,221.565 396.301,260 400.747,260 389.553,287 395.483,287 385.534,308 391.914,308 380.712,333 413.775,333 			"/>
			<polygon fill="#506E5A" points="444.61,309 434.663,288 440.588,288 429.396,263 433.843,263 413.551,223.076 425.228,256 
				420.964,256 431.219,280 425.757,280 435.741,303 427.356,303 440.036,330.025 380.712,331.357 387.107,334.419 449.431,332.927 
				438.237,309 			"/>
		</g>
		<g clip-path="url(#SVGID_1_)">
			<polygon fill="#506E5A" points="343.31,327 332.115,303 338.488,303 328.541,280 334.47,280 323.278,256 327.721,256 
				310.551,217.568 293.377,256 297.819,256 286.629,280 292.556,280 282.606,303 288.985,303 277.785,327 310.853,327 			"/>
			<polygon fill="#556757" points="341.687,305 331.736,284 337.664,284 326.473,257 330.919,257 310.551,216.823 318.781,248 
				308.268,248 328.292,276 322.833,276 332.817,299 324.43,299 337.112,325.27 277.785,326.221 284.185,329.095 346.504,328.262 
				335.31,305 			"/>
		</g>
	</g>
	<g>
		<polygon points="329.709,252 346.067,252 326.704,258.629 		"/>
		<polygon points="325.584,272 350.148,272 322.646,278.832 		"/>
		<polygon points="322.787,288 352.896,288 319.621,294.976 		"/>
	</g>
	<g>
		<g>
			<path d="M128.25,270.191c0.135-0.725,1.167-12.395,0.423-14.408c-0.743-2.024-8.366-11.677-8.301-19.931
				c0.064-8.243,7.646-16.588,13.693-19.827c6.042-3.244,13.542-5.784,20.269-5.922c3.078-0.065,6.633-0.083,9.73,0.224
				l-0.442-1.486l7.872,0.899l-0.449-1.841c0,0,5.928,1.372,8.23,1.695c2.855,0.404,17.099,1.972,19.71,2.96
				c2.612,0.983,5.154,1.898,5.154,1.898s0.341-1.951,2.224-2.044c1.88-0.094,3.699,1.121,3.855,2.561
				c0.16,1.453-1.696,3.781-1.696,3.781s1.722,6.35,0.958,9.471c-0.767,3.114-3.207,4.803-3.207,4.803s0.109,3.831-0.174,4.415
				c-0.281,0.579-0.642,1.304-1.578,1.528c-0.939,0.227-2.312,0.208-3.258-0.454c-0.946-0.654-2.407-1.945-2.407-1.945l0.575,7.294
				l-0.642,0.589c0,0,0.093,2.026,0.396,3.468c0.301,1.445,3.254,13.873,3.476,13.943c0.216,0.07,3.544,1.189,3.544,1.189
				l0.806,1.81l-12.134,1.259l-7.906-9.614l-1.621-4.279l-0.949,0.245l-0.345-5.779c0,0-3.017,2.201-4.036,9.083
				c-1.017,6.876-0.041,9.967-0.041,9.967l3.729,0.654l0.488,2.133c0,0-10.277,1.192-11.051,1.296
				c-0.771,0.107-3.262-5.083-3.262-5.083l-3.162-7.972l1.439-0.597l-1.764-2.965l1.148-0.884l-0.729-5.492
				c0,0-5.569,2.756-11.066,3.007c-5.491,0.243-8.48,0.464-8.48,0.464s-2.396,7.674-4.016,10.102
				c-1.614,2.425-4.598,7.701-4.598,7.701l-0.23,2.788l2.46,0.923l0.803,2.242l-10.69,1.291
				C130.999,275.354,128.109,270.916,128.25,270.191z"/>
			<polygon fill="#58595B" points="196.927,226.551 201.835,227.991 200.605,229.188 198.415,228.632 			"/>
			<polygon fill="#58595B" points="204.021,227.839 205.309,228.567 206.55,227.821 207.354,225.693 			"/>
			<path fill="#58595B" d="M199.21,235.694c0,0,0.517-3.557,2.662-4.18c2.441-0.702,3.472,0.456,3.472,0.456l0.09,3.896
				c0,0-0.485-0.321-1.412-0.185c-2.104,0.318-1.681,2.274-1.681,2.274L199.21,235.694z"/>
		</g>
		<path fill="#58595B" d="M184.917,212.509c-2.774-0.097-10.8-1.343-10.8-1.343l0.652,1.648c-1.881-0.018-8.616-1.226-8.616-1.226
			l0.65,1.57c0,0-15.575-0.594-23.395,1.758c-13.678,4.12-17.308,13.651-17.308,13.651s7.925-7.315,17.114-10.011
			c9.189-2.699,15.745-1.981,19.923-0.602l-3.51,6.443c0,0,4.934-4.243,12.744-6.081c7.81-1.838,14.532-0.331,16.22,0.282
			c0,0,0.382-1.838,2.066-1.917c1.688-0.078,3.524,0.694,3.753,2.146c0,0,2.069-1.226,4.365-1.917
			c2.296-0.688,5.244-0.459,5.244-0.459S196.365,212.889,184.917,212.509z"/>
	</g>
	<g>
		<polygon fill="#E7C29E" points="100.076,374.68 500,362.583 500,224.397 100.288,278.864 		"/>
	</g>
	<g>
		<polygon fill="#BF7F31" points="100.076,378.356 500,366.259 500,228.071 100.288,282.539 		"/>
	</g>
	<g>
		<path fill="#976F43" d="M138.807,290.474c5.644-0.743,10.215,0.657,14.093,4.146c0.446,0.459,0.485,1.229-0.019,1.81l-4.821,5.539
			c-0.448,0.514-1.026,0.517-1.456,0.193c-1.819-1.57-4.695-2.354-7.232-2.018c-6.535,0.855-11.195,8.569-10.137,16.622
			c0.782,5.964,4.796,10.467,9.995,9.781c2.158-0.284,4.946-2.13,6.925-4.261c0.395-0.443,1.161-0.48,1.527-0.144l5.064,5.145
			c0.448,0.457,0.294,1.249-0.09,1.747c-3.955,4.78-8.475,7.185-13.549,7.852c-9.574,1.259-19.232-6.441-20.705-17.602
			C116.504,304.83,125.109,292.276,138.807,290.474z"/>
		<path fill="#976F43" d="M160.36,289.512c-0.022-0.642,0.472-1.288,1.106-1.372l7.865-1.035c0.571-0.076,1.026,0.448,1.046,1.087
			l-0.299,34.492l12.937-1.7c0.632-0.089,1.026,0.44,1.046,1.087l-0.046,7.036c0.022,0.642-0.47,1.288-1.106,1.372l-21.813,2.869
			c-0.637,0.083-1.092-0.438-1.111-1.077L160.36,289.512z"/>
		<path fill="#976F43" d="M207.364,281.457c9.827-1.296,18.856,6.551,20.3,17.521c1.88,14.27-7.127,27.196-20.448,28.946
			c-9.764,1.288-18.841-6.42-20.277-17.328C185.053,296.261,194.172,283.19,207.364,281.457z M217.426,301.552
			c-0.786-5.967-4.987-10.441-10.062-9.774c-6.149,0.811-11.236,8.253-10.2,16.118c0.776,5.899,4.979,10.376,9.987,9.716
			C213.43,316.786,218.459,309.414,217.426,301.552z"/>
		<path fill="#976F43" d="M233.232,317.727l2.749-5.588c0.462-0.899,1.491-0.905,1.977-0.646c0.91,0.532,4.3,2.276,7.727,1.823
			c2.345-0.308,3.889-2.318,3.551-4.399c-0.369-2.274-1.986-3.802-4.95-5.221c-4.343-2.136-10.321-5.417-11.19-12.011
			c-0.898-6.851,2.996-14.006,13.271-15.362c6.022-0.788,10.764,1.88,12.656,3.051c0.703,0.417,1.097,1.465,0.667,2.104
			l-3.355,5.406c-0.424,0.704-1.491,0.907-1.988,0.584c-0.49-0.321-4.115-2.36-7.474-1.917c-2.159,0.281-3.888,1.864-3.634,3.768
			c0.288,2.216,1.844,3.241,5.949,5.017c3.423,1.492,10.168,4.733,11.147,12.152c0.955,7.292-3.205,14.872-13.985,16.291
			c-6.723,0.884-11.477-1.911-12.881-3.278C232.877,318.937,232.928,318.351,233.232,317.727z"/>
		<path fill="#976F43" d="M268.423,275.294c-0.02-0.642,0.475-1.291,1.046-1.364l23.908-3.147c0.633-0.081,1.092,0.438,1.111,1.082
			l-0.107,7.046c0.02,0.644-0.41,1.278-1.045,1.361l-15.096,1.984l-0.105,8.017l12.301-1.62c0.571-0.076,1.092,0.438,1.113,1.085
			l-0.105,7.043c-0.035,0.714-0.538,1.293-1.109,1.369l-12.24,1.611l-0.077,8.72l15.092-1.984c0.631-0.081,1.029,0.446,1.046,1.084
			l-0.042,7.041c0.019,0.642-0.475,1.283-1.11,1.369l-23.905,3.15c-0.636,0.079-1.091-0.443-1.046-1.092L268.423,275.294z"/>
		<path fill="#976F43" d="M334.639,264.71c5.648-0.743,10.214,0.657,14.095,4.146c0.449,0.459,0.484,1.229-0.016,1.81l-4.824,5.536
			c-0.449,0.514-1.023,0.521-1.457,0.193c-1.818-1.565-4.698-2.35-7.233-2.013c-6.533,0.858-11.193,8.569-10.135,16.622
			c0.789,5.956,4.795,10.465,10.001,9.782c2.151-0.285,4.943-2.139,6.918-4.267c0.392-0.44,1.165-0.477,1.531-0.138l5.063,5.143
			c0.446,0.457,0.293,1.249-0.092,1.752c-3.955,4.777-8.476,7.179-13.549,7.847c-9.575,1.259-19.233-6.436-20.702-17.6
			C312.338,279.065,320.943,266.512,334.639,264.71z"/>
		<path fill="#976F43" d="M350.437,306.762l18.414-45.844c0.205-0.412,0.481-0.771,0.991-0.837l0.571-0.076
			c0.442-0.057,0.799,0.222,0.976,0.579l17.538,41.116c0.359,0.785-0.102,1.687-0.987,1.805l-7.166,0.941
			c-1.143,0.154-1.819-0.083-2.241-1.317l-1.737-4.866l-14.012,1.846l-1.804,5.39c-0.272,0.876-1.007,1.685-2.338,1.857
			l-7.229,0.952C350.522,308.426,350.101,307.643,350.437,306.762z M373.252,289.953l-3.359-10.33l-0.06,0.011l-3.687,11.25
			L373.252,289.953z"/>
		<path fill="#976F43" d="M394.309,258.73c-0.021-0.639,0.475-1.286,1.111-1.369l7.86-1.035c0.571-0.079,1.026,0.446,1.05,1.09
			l-0.303,34.487l12.938-1.703c0.635-0.081,1.021,0.446,1.046,1.093l-0.046,7.038c0.021,0.642-0.478,1.283-1.107,1.369
			l-21.817,2.871c-0.635,0.078-1.09-0.441-1.106-1.08L394.309,258.73z"/>
		<path fill="#976F43" d="M424.175,254.803c-0.02-0.642,0.478-1.289,1.109-1.372l7.865-1.033c0.571-0.076,1.026,0.446,1.046,1.087
			l-0.302,34.492l12.942-1.703c0.633-0.088,1.023,0.441,1.043,1.088l-0.042,7.035c0.022,0.642-0.479,1.289-1.11,1.369l-21.813,2.874
			c-0.635,0.081-1.092-0.438-1.111-1.077L424.175,254.803z"/>
		<path fill="#976F43" d="M451.516,289.008l2.746-5.588c0.461-0.897,1.5-0.905,1.982-0.641c0.908,0.521,4.298,2.269,7.724,1.817
			c2.345-0.31,3.884-2.318,3.55-4.399c-0.365-2.277-1.984-3.802-4.945-5.221c-4.343-2.136-10.325-5.417-11.188-12.011
			c-0.901-6.853,2.994-14.006,13.267-15.357c6.021-0.795,10.762,1.875,12.656,3.041c0.701,0.425,1.096,1.471,0.661,2.112
			l-3.348,5.406c-0.427,0.699-1.494,0.908-1.988,0.582c-0.49-0.318-4.119-2.36-7.477-1.917c-2.156,0.281-3.882,1.864-3.636,3.773
			c0.295,2.214,1.846,3.236,5.947,5.012c3.423,1.492,10.172,4.733,11.146,12.155c0.963,7.289-3.201,14.869-13.982,16.288
			c-6.723,0.884-11.477-1.909-12.878-3.272C451.159,290.221,451.212,289.634,451.516,289.008z"/>
	</g>
	<g>
		<path fill="#976F43" d="M446.191,349.241c-12.252-2.3-20.137-15.396-20.439-22.152c-0.117-0.016-1.572-1.074-3.018-1.314
			c-1.285-0.227-2.53-0.315-3.362-0.195c-0.097,0.284-0.294,0.806-0.571,1.525c-0.408,1.098-1.465,2.639-2.926,3.437l-0.574,0.321
			c-0.264,0.133-0.557,0.287-0.787,0.383c-0.49,0.219-0.992,0.415-1.518,0.566c-2.057,0.636-4.48,0.772-6.822-0.076
			c-0.577-0.204-1.139-0.48-1.668-0.792c-0.479-0.305-0.347-0.217-0.702-0.47c-0.306-0.224-0.578-0.451-0.767-0.626
			c-0.857-0.769-1.428-1.489-1.916-2.039c-0.471-0.555-0.842-0.918-1.09-1.09c-0.237-0.162-0.43-0.253-0.879-0.344
			c-0.865-0.188-2.232-0.102-3.948-0.016c-1.794,0.044-3.024,0.068-3.58,0.331c-1.112,0.451-2.845,1.4-4.879,1.885
			c-1.314,0.269-2.187,0.451-2.735,0.624c-0.218,0.326-0.436,0.586-0.603,0.803c-0.456,0.506-0.848,0.847-1.187,1.15l-0.797,0.696
			c-0.095,0.088-0.082,0.091-0.048,0.029l-0.362,0.495c-0.493,0.639-1.058,1.515-2.185,2.462c-1.145,0.988-2.86,1.523-4.093,1.585
			c-1.312,0.055-1.597,0.029-2.434,0.102l-2.393,0.227c-1.682,0.162-3.693,0.292-5.752-0.081c-1.899-0.331-3.503-0.86-4.795-1.09
			c-1.29-0.256-2.287-0.204-3.16,0.083l-1.148,0.427l-0.949,0.41c-0.632,0.287-1.32,0.621-1.981,0.983
			c-1.331,0.72-2.672,1.544-4.049,2.407c-2.797,1.807-5.802,3.382-8.278,5.059c-0.628,0.427-1.234,0.866-1.818,1.322
			c-0.286,0.229-0.622,0.498-0.692,0.589c-0.139,0.136-0.373,0.407-0.6,0.686c-0.469,0.584-1.026,1.351-1.905,2.159
			c-0.45,0.401-1.002,0.808-1.656,1.121l-0.247,0.115l-0.212,0.083l-0.035,0.013l-0.074,0.021l-0.183,0.055l-0.413,0.441
			c-0.525,0.104-0.802,0.447-1.074,0.447h-0.501h-0.097c0.039,0-0.103,0.01,0.088-0.031L330.338,352h-0.077l-0.15-0.313
			c-0.129,0.021-0.463-0.069-0.799,0.041l-1.116,0.303l-0.497,0.14c-0.119,0.042-0.247,0.062-0.424,0.143
			c-0.67,0.295-1.353,0.661-2.387,1.068c-0.304,0.099-0.98,0.321-1.365,0.397l-1.175,0.261c-0.327,0.089-0.668,0.144-0.905,0.228
			c-0.021-0.003-0.218,0.094-0.102,0.002l-0.27,0.154c-0.02,0.019-0.042-0.031-0.16,0.086c-0.196,0.17-0.427,0.493-0.728,0.882
			c-0.165,0.195-0.341,0.391-0.553,0.584c-0.201,0.19-0.34,0.274-0.509,0.412c-0.642,0.495-1.333,1.095-2.198,1.486
			c-0.855,0.417-1.796,0.475-2.624,0.336c0.796-0.315,1.47-0.741,1.94-1.299c0.466-0.568,0.841-1.231,1.287-1.948
			c0.095-0.169,0.246-0.381,0.295-0.506c0.059-0.12,0.105-0.266,0.162-0.412c0.123-0.313,0.255-0.725,0.527-1.231
			c0.109-0.222,0.369-0.566,0.635-0.839l0.213-0.227c0.269-0.219,0.266-0.206,0.416-0.321c0.459-0.344,0.892-0.579,1.322-0.79
			l1.141-0.537c0.389-0.186,0.476-0.258,0.908-0.511c0.43-0.323,1.116-0.848,1.874-1.346c0.183-0.123,0.416-0.263,0.664-0.407
			c0.259-0.144,0.32-0.19,0.619-0.334l1.134-0.565c0.42-0.196,0.854-0.407,1.518-0.595l0.147-0.042l0.074-0.021l0.198-0.044
			c0.167-0.026,0.367-0.068,0.51-0.081l0.726-0.073c0.017-0.003,0.026-0.005,0.046-0.005l0.086-0.039l0.067-0.029l0.038-0.013
			c0.039-0.019-0.286,0.112-0.144,0.055l0.003-0.005l0.025-0.021c0.077-0.049,0.189-0.136,0.341-0.289
			c0.308-0.318,0.712-0.89,1.241-1.594c0.279-0.365,0.561-0.728,0.984-1.179c0.483-0.514,0.795-0.748,1.138-1.045
			c0.684-0.571,1.389-1.111,2.099-1.625c1.424-1.025,2.864-1.927,4.257-2.801c1.404-0.876,2.668-1.685,4.045-2.613
			c1.366-0.913,2.783-1.849,4.304-2.73c0.76-0.443,1.533-0.85,2.374-1.262l1.288-0.592l1.136-0.462
			c2.204-0.874,4.587-0.884,6.509-0.55c1.928,0.328,3.451,0.813,4.779,1.009c1.171,0.193,2.46,0.125,4.022-0.049l2.486-0.276
			c0.788-0.091,2.138-0.125,2.456-0.146c0.394-0.065,0.311-0.055,0.417-0.138c0.135-0.102,0.523-0.577,0.994-1.252l0.357-0.498
			c0.281-0.389,0.569-0.691,0.769-0.879c0.427-0.419,0.754-0.693,1.03-0.944c0.269-0.243,0.483-0.454,0.571-0.558
			c0.121-0.081,1.132-1.588,1.132-1.588c1.101-0.801,2.328-1.244,3.307-1.486c0.49-0.125,0.965-0.219,1.335-0.297
			c0.367-0.07,0.82-0.154,1.028-0.214c1.072-0.243,2.162-0.829,3.968-1.604c1.174-0.472,2.349-0.652,3.324-0.722
			c0.986-0.076,1.786-0.068,2.502-0.099c1.445-0.044,3.28-0.292,5.552,0.128c1.106,0.201,2.432,0.688,3.489,1.455
			c1.053,0.743,1.768,1.557,2.332,2.204c0.552,0.642,0.982,1.163,1.312,1.458c0.104,0.091,0.139,0.117,0.151,0.136
			c-0.032-0.011,0.216,0.154,0.286,0.206c0.149,0.086,0.301,0.167,0.468,0.224c0.654,0.258,1.571,0.287,2.54-0.002
			c0.241-0.065,0.481-0.159,0.718-0.258c0.136-0.055,0.19-0.094,0.286-0.133c0.077-0.029,0.279-0.151,0.433-0.235
			c0.014-0.029,0.042-0.078,0.097-0.196c0.202-0.368,0.324-1.249,1.129-2.657c0.411-0.683,1.104-1.447,1.887-1.922
			c0.817-0.495,1.484-0.72,2.312-0.879c2.32-0.357,4.209-0.013,5.905,0.305c1.685,0.336,3.243,0.756,4.546,0.98
			c1.729,0.282,3.307,0.652,3.81,0.553c0.017-0.003,0.067-0.008,0.052-0.003c-0.031,0.003-0.103,0.031-0.092,0.039l0.123-0.044
			c0.046-0.026,0.146-0.097,0.316-0.256l0.435-0.399c0.132-0.123,0.543-0.48,0.652-0.558c0.475-0.368,0.809-0.571,1.167-0.811
			c1.495-0.991,6.938,2.363,6.938,2.363c1.127-2.248,0.587-10.439-2.518-15.333c-1.931-3.046-7.955-8.783-13.293-11.498
			c-4.965-2.519-10.469-3.674-15.947-4.443c-9.504-1.33-19.402-2.318-28.941-0.829c-10.572,1.648-20.855,5.581-30.776,9.456
			c-12.312,4.811-24.287,10.517-36.273,16.063c-15.233,7.051-38.654,14.833-54.818,19.36
			c-94.044,26.343-155.898,4.485-155.898,4.485l-0.941,54.17l198.821,65.102L500,393.437v-63.409
			C500,330.028,477.01,355.036,446.191,349.241z"/>
		<path fill="#976F43" d="M432.396,323h0.003C432.453,321,432.435,323,432.396,323z"/>
		<path fill="#976F43" d="M330.752,346.044c-0.025,0.008-0.052,0.016-0.08,0.026C330.774,346.058,330.852,346.034,330.752,346.044z"
			/>
		<path fill="#976F43" d="M419.109,325.605c-0.009,0.003-0.022,0.003-0.035,0.008C419.106,325.608,419.097,325.616,419.109,325.605z
			"/>
	</g>
	<g>
		<path d="M140.388,286.734c5.642-0.743,10.216,0.657,14.09,4.149c0.449,0.457,0.487,1.226-0.019,1.807l-4.817,5.536
			c-0.45,0.511-1.03,0.521-1.459,0.193c-1.82-1.565-4.694-2.355-7.234-2.019c-6.533,0.858-11.19,8.574-10.132,16.627
			c0.782,5.956,4.794,10.467,9.994,9.781c2.159-0.284,4.942-2.138,6.922-4.264c0.395-0.443,1.164-0.479,1.529-0.143l5.065,5.145
			c0.446,0.454,0.295,1.249-0.093,1.747c-3.951,4.78-8.472,7.184-13.545,7.852c-9.578,1.257-19.236-6.438-20.706-17.599
			C118.081,301.09,126.688,288.537,140.388,286.734z"/>
		<path d="M161.938,285.775c-0.018-0.644,0.477-1.291,1.111-1.375l7.865-1.035c0.57-0.076,1.021,0.449,1.045,1.087l-0.302,34.49
			l12.939-1.703c0.632-0.081,1.027,0.446,1.043,1.09l-0.042,7.038c0.022,0.644-0.475,1.286-1.107,1.372l-21.817,2.869
			c-0.632,0.086-1.087-0.438-1.106-1.08L161.938,285.775z"/>
		<path d="M208.942,277.714c9.828-1.291,18.86,6.551,20.304,17.521c1.876,14.269-7.127,27.196-20.449,28.948
			c-9.763,1.286-18.845-6.423-20.277-17.329C186.633,292.523,195.75,279.451,208.942,277.714z M219.004,297.815
			c-0.782-5.967-4.984-10.444-10.06-9.776c-6.148,0.811-11.235,8.253-10.198,16.118c0.771,5.894,4.978,10.378,9.987,9.716
			C215.01,313.049,220.04,305.674,219.004,297.815z"/>
		<path d="M234.811,313.99l2.748-5.591c0.463-0.897,1.496-0.905,1.979-0.646c0.911,0.529,4.302,2.274,7.729,1.82
			c2.344-0.305,3.887-2.315,3.55-4.396c-0.369-2.276-1.985-3.805-4.949-5.223c-4.343-2.136-10.321-5.414-11.191-12.009
			c-0.898-6.848,2.997-14.006,13.268-15.359c6.026-0.79,10.767,1.875,12.66,3.043c0.701,0.425,1.097,1.471,0.664,2.107l-3.353,5.411
			c-0.424,0.704-1.492,0.905-1.988,0.582c-0.494-0.321-4.116-2.36-7.478-1.922c-2.155,0.287-3.885,1.87-3.634,3.773
			c0.292,2.219,1.847,3.239,5.953,5.02c3.42,1.484,10.167,4.73,11.143,12.147c0.96,7.293-3.201,14.877-13.983,16.293
			c-6.721,0.879-11.477-1.912-12.88-3.278C234.454,315.195,234.506,314.614,234.811,313.99z"/>
		<path d="M270.004,271.555c-0.02-0.639,0.475-1.289,1.046-1.364l23.905-3.145c0.636-0.089,1.091,0.438,1.11,1.08l-0.103,7.049
			c0.02,0.641-0.413,1.277-1.046,1.358l-15.095,1.984l-0.105,8.016l12.301-1.619c0.57-0.073,1.091,0.44,1.113,1.082l-0.109,7.046
			c-0.035,0.715-0.536,1.293-1.107,1.372l-12.239,1.609l-0.079,8.717l15.091-1.984c0.635-0.081,1.03,0.443,1.048,1.087l-0.042,7.038
			c0.018,0.645-0.475,1.289-1.109,1.369l-23.908,3.147c-0.632,0.083-1.088-0.438-1.046-1.087L270.004,271.555z"/>
		<path d="M336.225,260.968c5.642-0.738,10.212,0.662,14.09,4.149c0.449,0.456,0.484,1.228-0.019,1.81l-4.821,5.536
			c-0.449,0.514-1.026,0.519-1.456,0.196c-1.819-1.573-4.696-2.352-7.233-2.019c-6.533,0.861-11.195,8.569-10.136,16.619
			c0.786,5.964,4.795,10.467,9.997,9.787c2.16-0.284,4.943-2.136,6.923-4.264c0.391-0.443,1.167-0.48,1.529-0.141l5.065,5.14
			c0.442,0.457,0.292,1.249-0.093,1.755c-3.956,4.775-8.478,7.182-13.55,7.844c-9.574,1.262-19.234-6.433-20.701-17.597
			C313.918,275.323,322.521,262.775,336.225,260.968z"/>
		<path d="M352.015,303.022l18.418-45.841c0.205-0.412,0.478-0.772,0.988-0.839l0.571-0.076c0.445-0.062,0.801,0.219,0.978,0.579
			l17.538,41.111c0.362,0.792-0.103,1.692-0.986,1.807l-7.169,0.944c-1.143,0.151-1.816-0.083-2.236-1.322l-1.742-4.864
			l-14.014,1.846l-1.803,5.393c-0.269,0.879-1.004,1.682-2.334,1.856l-7.231,0.952C352.104,304.688,351.678,303.901,352.015,303.022
			z M374.833,286.216l-3.361-10.332l-0.058,0.005l-3.686,11.255L374.833,286.216z"/>
		<path d="M395.891,254.991c-0.022-0.639,0.472-1.288,1.106-1.366l7.862-1.038c0.574-0.076,1.026,0.446,1.049,1.093l-0.302,34.484
			l12.938-1.7c0.637-0.083,1.023,0.441,1.043,1.087l-0.039,7.038c0.017,0.639-0.478,1.286-1.112,1.372l-21.812,2.871
			c-0.633,0.081-1.09-0.44-1.111-1.084L395.891,254.991z"/>
		<path d="M425.759,251.063c-0.021-0.642,0.475-1.291,1.107-1.372l7.864-1.038c0.574-0.071,1.026,0.448,1.044,1.092l-0.299,34.492
			l12.938-1.705c0.636-0.083,1.027,0.443,1.045,1.09l-0.044,7.036c0.022,0.642-0.472,1.288-1.107,1.372l-21.817,2.869
			c-0.631,0.086-1.087-0.438-1.106-1.077L425.759,251.063z"/>
		<path d="M453.1,285.271l2.743-5.591c0.466-0.895,1.498-0.905,1.982-0.646c0.911,0.529,4.299,2.274,7.724,1.825
			c2.349-0.313,3.889-2.321,3.551-4.402c-0.365-2.276-1.986-3.805-4.948-5.221c-4.345-2.138-10.323-5.416-11.188-12.011
			c-0.898-6.85,2.992-14.006,13.267-15.359c6.023-0.792,10.765,1.878,12.659,3.046c0.7,0.422,1.094,1.471,0.664,2.104l-3.355,5.411
			c-0.422,0.699-1.49,0.905-1.985,0.582c-0.493-0.318-4.115-2.363-7.479-1.919c-2.152,0.287-3.881,1.87-3.631,3.771
			c0.295,2.219,1.848,3.242,5.949,5.02c3.423,1.486,10.172,4.728,11.143,12.152c0.963,7.289-3.199,14.872-13.98,16.288
			c-6.723,0.884-11.477-1.912-12.881-3.273C452.741,286.479,452.792,285.895,453.1,285.271z"/>
	</g>
	<g>
		<path fill="#85D5C8" d="M446.191,352.918c-12.252-2.303-20.137-15.396-20.439-22.153c-0.117-0.016-1.572-1.074-3.018-1.317
			c-1.285-0.224-2.53-0.315-3.362-0.193c-0.097,0.284-0.294,0.806-0.571,1.525c-0.408,1.098-1.465,2.639-2.926,3.437l-0.574,0.318
			c-0.264,0.133-0.557,0.287-0.787,0.383c-0.49,0.219-0.992,0.417-1.518,0.568c-2.057,0.634-4.48,0.772-6.822-0.076
			c-0.577-0.206-1.139-0.482-1.668-0.795c-0.479-0.302-0.347-0.214-0.702-0.469c-0.306-0.222-0.578-0.448-0.767-0.623
			c-0.857-0.77-1.428-1.489-1.916-2.04c-0.471-0.558-0.842-0.92-1.09-1.09c-0.237-0.164-0.43-0.253-0.879-0.347
			c-0.865-0.188-2.232-0.099-3.948-0.013c-1.794,0.042-3.024,0.068-3.58,0.329c-1.112,0.454-2.845,1.4-4.879,1.885
			c-1.314,0.269-2.187,0.454-2.735,0.624c-0.218,0.328-0.436,0.592-0.603,0.806c-0.456,0.506-0.848,0.848-1.187,1.147l-0.797,0.696
			c-0.095,0.091-0.082,0.094-0.048,0.028l-0.362,0.496c-0.493,0.642-1.058,1.518-2.185,2.464c-1.145,0.986-2.86,1.523-4.093,1.583
			c-1.312,0.057-1.597,0.028-2.434,0.104l-2.393,0.227c-1.682,0.159-3.693,0.29-5.752-0.081c-1.899-0.333-3.503-0.86-4.795-1.09
			c-1.29-0.255-2.287-0.206-3.16,0.081l-1.148,0.428l-0.949,0.409c-0.632,0.287-1.32,0.621-1.981,0.983
			c-1.331,0.723-2.672,1.546-4.049,2.41c-2.797,1.807-5.802,3.38-8.278,5.059c-0.628,0.425-1.234,0.863-1.818,1.322
			c-0.286,0.227-0.622,0.499-0.692,0.587c-0.139,0.138-0.373,0.41-0.6,0.688c-0.469,0.582-1.026,1.351-1.905,2.159
			c-0.45,0.401-1.002,0.806-1.656,1.119l-0.247,0.115l-0.212,0.086l-0.035,0.011l-0.074,0.023l-0.183,0.052l-0.413,0.606
			c-0.525,0.104-0.802,0.608-1.074,0.608h-0.501h-0.097c0.039,0-0.103,0.011,0.088-0.031L330.338,356h-0.077l-0.15-0.476
			c-0.129,0.021-0.463-0.15-0.799-0.038l-1.116,0.263l-0.497,0.116c-0.119,0.042-0.247,0.052-0.424,0.133
			c-0.67,0.295-1.353,0.658-2.387,1.065c-0.304,0.099-0.98,0.316-1.365,0.392l-1.175,0.262c-0.327,0.091-0.668,0.143-0.905,0.227
			c-0.021-0.005-0.218,0.094-0.102,0.003l-0.27,0.154c-0.02,0.018-0.042-0.032-0.16,0.086c-0.196,0.169-0.427,0.49-0.728,0.879
			c-0.165,0.198-0.341,0.391-0.553,0.586c-0.201,0.19-0.34,0.271-0.509,0.412c-0.642,0.496-1.333,1.095-2.198,1.486
			c-0.855,0.417-1.796,0.475-2.624,0.336c0.796-0.315,1.47-0.743,1.94-1.298c0.466-0.569,0.841-1.234,1.287-1.948
			c0.095-0.169,0.246-0.381,0.295-0.508c0.059-0.118,0.105-0.264,0.162-0.412c0.123-0.313,0.255-0.725,0.527-1.229
			c0.109-0.221,0.369-0.566,0.635-0.839l0.213-0.225c0.269-0.224,0.266-0.208,0.416-0.326c0.459-0.344,0.892-0.576,1.322-0.788
			l1.141-0.54c0.389-0.182,0.476-0.258,0.908-0.508c0.43-0.326,1.116-0.848,1.874-1.346c0.183-0.125,0.416-0.263,0.664-0.407
			c0.259-0.144,0.32-0.19,0.619-0.333l1.134-0.569c0.42-0.193,0.854-0.404,1.518-0.592l0.147-0.042l0.074-0.024l0.198-0.042
			c0.167-0.029,0.367-0.068,0.51-0.083l0.726-0.07c0.017-0.005,0.026-0.008,0.046-0.008l0.086-0.037l0.067-0.029l0.038-0.016
			c0.039-0.016-0.286,0.112-0.144,0.055l0.003-0.002l0.025-0.023c0.077-0.049,0.189-0.135,0.341-0.29
			c0.308-0.315,0.712-0.887,1.241-1.59c0.279-0.365,0.561-0.728,0.984-1.182c0.483-0.511,0.795-0.746,1.138-1.043
			c0.684-0.571,1.389-1.113,2.099-1.627c1.424-1.022,2.864-1.927,4.257-2.798c1.404-0.876,2.668-1.685,4.045-2.616
			c1.366-0.91,2.783-1.846,4.304-2.728c0.76-0.443,1.533-0.85,2.374-1.265l1.288-0.592l1.136-0.459
			c2.204-0.876,4.587-0.887,6.509-0.553c1.928,0.332,3.451,0.816,4.779,1.009c1.171,0.196,2.46,0.125,4.022-0.049l2.486-0.274
			c0.788-0.094,2.138-0.125,2.456-0.146c0.394-0.065,0.311-0.055,0.417-0.138c0.135-0.102,0.523-0.576,0.994-1.251l0.357-0.499
			c0.281-0.388,0.569-0.691,0.769-0.881c0.427-0.42,0.754-0.691,1.03-0.944c0.269-0.24,0.483-0.451,0.571-0.555
			c0.121-0.084,1.132-1.591,1.132-1.591c1.101-0.801,2.328-1.241,3.307-1.486c0.49-0.125,0.965-0.217,1.335-0.295
			c0.367-0.07,0.82-0.154,1.028-0.214c1.072-0.245,2.162-0.829,3.968-1.604c1.174-0.472,2.349-0.652,3.324-0.723
			c0.986-0.076,1.786-0.07,2.502-0.102c1.445-0.042,3.28-0.29,5.552,0.13c1.106,0.201,2.432,0.688,3.489,1.453
			c1.053,0.746,1.768,1.56,2.332,2.204c0.552,0.644,0.982,1.166,1.312,1.458c0.104,0.097,0.139,0.12,0.151,0.138
			c-0.032-0.01,0.216,0.154,0.286,0.204c0.149,0.086,0.301,0.169,0.468,0.227c0.654,0.258,1.571,0.287,2.54-0.002
			c0.241-0.065,0.481-0.159,0.718-0.258c0.136-0.055,0.19-0.097,0.286-0.133c0.077-0.029,0.279-0.151,0.433-0.235
			c0.014-0.029,0.042-0.078,0.097-0.198c0.202-0.365,0.324-1.249,1.129-2.655c0.411-0.683,1.104-1.447,1.887-1.922
			c0.817-0.495,1.484-0.722,2.312-0.878c2.32-0.36,4.209-0.016,5.905,0.305c1.685,0.336,3.243,0.756,4.546,0.98
			c1.729,0.279,3.307,0.652,3.81,0.553c0.017-0.003,0.067-0.008,0.052-0.003c-0.031,0.003-0.103,0.032-0.092,0.037l0.123-0.042
			c0.046-0.029,0.146-0.097,0.316-0.256l0.435-0.401c0.132-0.123,0.543-0.477,0.652-0.556c0.475-0.368,0.809-0.571,1.167-0.811
			c1.495-0.994,5.514-1.692,5.514-1.692c2.345-2.624,1.354-7.479-1.094-11.279c-1.95-3.033-7.955-8.783-13.293-11.497
			c-4.965-2.522-10.469-3.677-15.947-4.444c-9.504-1.327-19.402-2.321-28.941-0.829c-10.572,1.646-20.855,5.581-30.776,9.453
			c-12.312,4.811-24.287,10.52-36.273,16.066c-15.233,7.049-38.654,14.833-54.818,19.36c-94.044,26.34-155.898,4.482-155.898,4.482
			l-0.941,54.173l198.821,65.099L500,397.114v-63.412C500,333.702,477.01,358.713,446.191,352.918z"/>
		<path fill="#C4E9F8" d="M432.396,327h0.003C432.453,324,432.435,327,432.396,327z"/>
		<path fill="#C4E9F8" d="M330.752,349.721c-0.025,0.008-0.052,0.016-0.08,0.023C330.774,349.732,330.852,349.711,330.752,349.721z"
			/>
		<path fill="#C4E9F8" d="M419.109,329.282c-0.009,0.002-0.022,0.002-0.035,0.005C419.106,329.285,419.097,329.29,419.109,329.282z"
			/>
	</g>
	<path fill="#456363" d="M424.252,334.231l7.885-5.938l4.734-8.434l-41.583-2.699l-77.54,21.368L300.86,362.88
		c0,0,0.92,6.895,2.069,6.895c1.148,0,82.251-18.191,82.251-18.191L424.252,334.231z"/>
	<g>
		<path fill="#00A896" d="M457.866,361.263c-30.112,0.115-34.467-27.136-34.467-27.136s0,0-1.445-0.24
			c-1.285-0.227-2.646-0.955-2.646-0.955c-0.096,0.282-0.263,0.803-0.542,1.526c-0.407,1.098-1.446,2.639-2.909,3.434l-0.564,0.321
			c-0.264,0.133-0.552,0.287-0.782,0.383c-0.491,0.219-0.992,0.417-1.518,0.566c-2.057,0.636-4.478,0.772-6.819-0.073
			c-0.577-0.206-1.139-0.482-1.668-0.795c-0.479-0.305-0.347-0.214-0.702-0.47c-0.306-0.224-0.578-0.448-0.767-0.623
			c-0.857-0.772-1.428-1.492-1.916-2.042c-0.471-0.555-0.842-0.918-1.09-1.09c-0.237-0.162-0.43-0.25-0.879-0.344
			c-0.865-0.188-2.232-0.102-3.948-0.016c-1.794,0.044-3.024,0.068-3.58,0.331c-1.112,0.454-2.845,1.4-4.879,1.886
			c-1.314,0.269-2.187,0.451-2.735,0.623c-0.218,0.326-0.436,0.589-0.603,0.806c-0.456,0.503-0.848,0.845-1.187,1.147l-0.797,0.696
			c-0.095,0.089-0.082,0.094-0.048,0.029l-0.362,0.495c-0.493,0.639-1.058,1.515-2.185,2.462c-1.145,0.988-2.86,1.523-4.093,1.585
			c-1.312,0.058-1.597,0.029-2.434,0.104l-2.393,0.224c-1.682,0.162-3.693,0.292-5.752-0.078c-1.899-0.334-3.503-0.863-4.795-1.093
			c-1.29-0.253-2.287-0.204-3.16,0.083l-1.148,0.428l-0.949,0.409c-0.632,0.287-1.32,0.621-1.981,0.983
			c-1.331,0.722-2.672,1.543-4.049,2.409c-2.797,1.805-5.802,3.382-8.278,5.057c-0.628,0.428-1.234,0.866-1.818,1.322
			c-0.286,0.229-0.622,0.499-0.692,0.589c-0.139,0.136-0.373,0.41-0.6,0.688c-0.469,0.582-1.026,1.351-1.905,2.159
			c-0.45,0.399-1.002,0.806-1.656,1.119l-0.247,0.114l-0.212,0.086l-0.035,0.01l-0.074,0.023l-0.183,0.052l-0.413,1.265
			c-0.525,0.107-0.802,1.273-1.074,1.273h-0.501h-0.097c0.039,0-0.103,0.01,0.088-0.031L330.338,361h-0.077l-0.15-1.137
			c-0.129,0.021-0.463-0.48-0.799-0.373l-1.116,0.099l-0.497,0.034c-0.119,0.044-0.247,0.013-0.424,0.091
			c-0.67,0.297-1.353,0.641-2.387,1.045c-0.304,0.102-0.98,0.308-1.365,0.383l-1.175,0.254c-0.327,0.092-0.668,0.142-0.905,0.226
			c-0.021-0.005-0.218,0.092-0.102,0.003l-0.27,0.149c-0.02,0.018-0.042-0.032-0.16,0.088c-0.196,0.167-0.427,0.49-0.728,0.879
			c-0.165,0.195-0.341,0.391-0.553,0.584c-0.201,0.19-0.34,0.274-0.509,0.412c-0.642,0.496-1.333,1.095-2.198,1.486
			c-0.855,0.417-1.796,0.475-2.624,0.339c0.796-0.315,1.47-0.743,1.94-1.301c0.466-0.565,0.841-1.23,1.287-1.948
			c0.095-0.167,0.246-0.381,0.295-0.506c0.059-0.12,0.105-0.266,0.162-0.412c0.123-0.313,0.255-0.725,0.527-1.228
			c0.109-0.222,0.369-0.566,0.635-0.842l0.213-0.225c0.269-0.222,0.266-0.208,0.416-0.323c0.459-0.344,0.892-0.576,1.322-0.79
			l1.141-0.537c0.389-0.183,0.476-0.258,0.908-0.511c0.43-0.321,1.116-0.848,1.874-1.346c0.183-0.123,0.416-0.263,0.664-0.404
			c0.259-0.146,0.32-0.193,0.619-0.333l1.134-0.568c0.42-0.193,0.854-0.407,1.518-0.592l0.147-0.044l0.074-0.021l0.198-0.044
			c0.167-0.026,0.367-0.068,0.51-0.081l0.726-0.073c0.017-0.002,0.026-0.005,0.046-0.005l0.086-0.036l0.067-0.029l0.038-0.013
			c0.039-0.021-0.286,0.109-0.144,0.052l0.003-0.002l0.025-0.024c0.077-0.049,0.189-0.135,0.341-0.289
			c0.308-0.316,0.712-0.887,1.241-1.591c0.279-0.368,0.561-0.73,0.984-1.181c0.483-0.514,0.795-0.749,1.138-1.043
			c0.684-0.571,1.389-1.113,2.099-1.627c1.424-1.022,2.864-1.927,4.257-2.801c1.404-0.876,2.668-1.685,4.045-2.613
			c1.366-0.913,2.783-1.849,4.304-2.728c0.76-0.446,1.533-0.85,2.374-1.265l1.288-0.592l1.136-0.459
			c2.204-0.876,4.587-0.887,6.509-0.553c1.928,0.331,3.451,0.813,4.779,1.009c1.171,0.193,2.46,0.125,4.022-0.05l2.486-0.274
			c0.788-0.094,2.138-0.125,2.456-0.146c0.394-0.068,0.311-0.055,0.417-0.138c0.135-0.104,0.523-0.579,0.994-1.254l0.357-0.498
			c0.281-0.388,0.569-0.688,0.769-0.879c0.427-0.419,0.754-0.693,1.03-0.944c0.269-0.24,0.483-0.454,0.571-0.558
			c0.121-0.081,1.132-1.588,1.132-1.588c1.101-0.801,2.328-1.244,3.307-1.486c0.49-0.125,0.965-0.219,1.335-0.295
			c0.367-0.07,0.82-0.154,1.028-0.216c1.072-0.243,2.162-0.829,3.968-1.604c1.174-0.472,2.349-0.649,3.324-0.72
			c0.986-0.075,1.786-0.07,2.502-0.102c1.445-0.044,3.28-0.292,5.552,0.13c1.106,0.198,2.432,0.688,3.489,1.453
			c1.053,0.743,1.768,1.56,2.332,2.204c0.552,0.642,0.982,1.163,1.312,1.458c0.104,0.094,0.139,0.117,0.151,0.136
			c-0.032-0.011,0.216,0.156,0.286,0.206c0.149,0.086,0.301,0.167,0.468,0.227c0.654,0.258,1.571,0.287,2.54-0.005
			c0.241-0.065,0.481-0.159,0.718-0.258c0.136-0.055,0.19-0.094,0.286-0.133c0.077-0.029,0.279-0.151,0.433-0.235
			c0.014-0.029,0.042-0.078,0.097-0.195c0.202-0.365,0.324-1.25,1.129-2.658c0.411-0.683,1.104-1.444,1.887-1.919
			c0.817-0.496,1.484-0.723,2.312-0.879c2.32-0.36,4.209-0.016,5.905,0.302c1.685,0.339,3.243,0.759,4.546,0.98
			c1.729,0.282,3.307,0.655,3.81,0.553c0.017-0.003,0.067-0.008,0.052-0.003c-0.031,0.003-0.103,0.032-0.092,0.04l0.123-0.044
			c0.046-0.026,0.146-0.097,0.316-0.253l0.435-0.402c0.132-0.123,0.543-0.479,0.652-0.558c0.475-0.365,0.809-0.571,1.167-0.811
			c1.495-0.991,1.617-1.009,2.268-2.188c0.289-0.55,0.571-1.213,0.943-2.021c0,0-4.025-19.725-30.389-23.368
			c-53.767-7.427-91.266,35.932-154.732,51.066C157.918,372.375,102,351.56,102,351.56v48.462l198.488,65.099l198.397-64.333
			l0.429-57.32C499.314,343.468,488.409,361.148,457.866,361.263z"/>
		<path fill="#50C9ED" d="M330.752,353.398c-0.025,0.005-0.052,0.013-0.08,0.023C330.774,353.409,330.852,353.385,330.752,353.398z"
			/>
		<path fill="#50C9ED" d="M419.109,332.956c-0.009,0.005-0.022,0.005-0.035,0.008C419.106,332.961,419.097,332.969,419.109,332.956z
			"/>
	</g>
	<path fill="#85D5C8" d="M386.745,335.927c0,0-18.35,40.829,11.99,94.754l-27.19,7.771c-17.659-58.444,9.831-99.223,9.831-99.223
		l2.634-2.678L386.745,335.927z"/>
	<path fill="#85D5C8" d="M415.293,338.213c0,0,5.251,51.409,83.682,34.868l-1.837,24.33c0,0-77.851,13.43-85.604-57.896
		C411.534,339.515,414.511,338.597,415.293,338.213z"/>
	<path fill="#85D5C8" d="M401.121,335.16c0,0,2.173,66.867,53.143,76.458l-38.516,12.493c0,0-22.34-29.96-19.354-90.459
		C396.394,333.652,400.042,332.964,401.121,335.16z"/>
	<path fill="#85D5C8" d="M363.703,343.935c0,0-31.675,23.762-12.629,101.159l-28.823,9.21c0,0-5.466-76.956,34.854-111.49
		C357.104,342.813,359.062,342.214,363.703,343.935z"/>
	<path fill="#85D5C8" d="M324.888,360.726c0,0-40.524,39.901-37.168,98.29l-32.579-11.062c0,0,24.506-61.879,57.438-83.168
		c0,0,1.549,1.166,3.845,0.342c1.403-0.503,3.58-3.072,4.918-3.508C322.896,361.117,324.43,360.726,324.888,360.726z"/>
	<polygon fill="none" stroke="#000000" stroke-width="9" stroke-linejoin="round" stroke-miterlimit="10" points="102.5,199.981 
		301,134.879 499.5,199.981 499.5,396.345 301,461.443 102.5,396.345 	"/>
	<g>
		<g>
			<g>
				<path fill="#456363" d="M305.546,395.894c0,0-0.894,0.216-2.571,0.622c-1.68,0.385-4.145,0.951-7.281,1.67
					c-1.57,0.344-3.311,0.725-5.204,1.14c-1.907,0.352-3.993,0.63-6.213,0.984c-2.226,0.327-4.595,0.674-7.091,1.04
					c-0.625,0.088-1.258,0.191-1.899,0.267c-0.644,0.053-1.296,0.106-1.956,0.16c-1.318,0.108-2.668,0.219-4.047,0.332
					c-1.379,0.109-2.787,0.22-4.222,0.333c-1.437,0.085-2.895,0.275-4.388,0.265c-2.984,0.059-6.069,0.119-9.24,0.182
					c-1.586,0.067-3.193-0.006-4.82-0.071c-1.627-0.06-3.274-0.12-4.939-0.181c-3.336-0.036-6.721-0.474-10.173-0.773
					c-0.862-0.082-1.729-0.163-2.599-0.245c-0.867-0.097-1.732-0.258-2.604-0.384c-1.742-0.269-3.496-0.541-5.261-0.814
					c-0.886-0.113-1.759-0.326-2.638-0.518c-0.879-0.194-1.761-0.388-2.645-0.583c-0.883-0.195-1.77-0.391-2.656-0.586
					c-0.897-0.221-1.748-0.465-2.649-0.732c-3.52-1.062-6.969-2.391-10.337-3.942c-3.363-1.562-6.658-3.32-9.76-5.452
					c-1.545-1.076-3.044-2.24-4.402-3.64c-0.672-0.71-1.318-1.473-1.831-2.419c-0.263-0.463-0.46-1.015-0.579-1.611
					c-0.02-0.323-0.078-0.632-0.014-0.976c0.034-0.186,0.022-0.298,0.105-0.54l0.107-0.326c0.529-1.351,1.648-2.029,2.672-2.38
					c1.033-0.34,2.035-0.424,3.006-0.448c1.943-0.029,3.793,0.234,5.609,0.553c7.231,1.362,14.012,3.727,20.548,5.804
					c1.646,0.501,3.272,1.051,4.892,1.5c1.622,0.43,3.229,0.855,4.816,1.277c1.579,0.458,3.193,0.732,4.764,1.085
					c1.577,0.324,3.127,0.692,4.672,0.968c3.106,0.47,6.113,1.031,9.049,1.388c2.942,0.321,5.785,0.632,8.514,0.93
					c5.481,0.34,10.502,0.825,14.975,0.844c4.467,0.163,8.365,0.36,11.578,0.299c3.215,0.035,5.74,0.062,7.463,0.081
					c1.725,0.036,2.645,0.055,2.645,0.055s-0.917,0.061-2.637,0.174c-1.722,0.097-4.247,0.238-7.461,0.419
					c-3.216,0.206-7.126,0.188-11.615,0.224c-4.49,0.076-9.549-0.301-15.074-0.527c-2.754-0.275-5.622-0.562-8.591-0.859
					c-2.964-0.34-6.007-0.883-9.147-1.337c-1.564-0.268-3.135-0.629-4.732-0.945c-1.594-0.346-3.222-0.611-4.834-1.066
					c-1.619-0.417-3.256-0.839-4.908-1.265c-1.644-0.443-3.26-0.977-4.912-1.468c-6.598-2.048-13.334-4.333-20.35-5.601
					c-1.742-0.296-3.512-0.525-5.215-0.485c-0.844,0.023-1.681,0.117-2.383,0.356c-0.342,0.127-0.652,0.28-0.886,0.47
					c-0.229,0.191-0.386,0.434-0.475,0.607c-0.528,1.039,0.609,2.537,1.757,3.745c1.207,1.231,2.632,2.322,4.102,3.341
					c2.951,2.044,6.156,3.773,9.424,5.305c3.274,1.522,6.642,2.833,10.045,3.873c0.832,0.25,1.717,0.507,2.567,0.719
					c0.87,0.195,1.738,0.39,2.604,0.583c0.866,0.194,1.73,0.388,2.592,0.582c0.862,0.192,1.717,0.404,2.592,0.519
					c1.738,0.275,3.465,0.548,5.181,0.82c0.858,0.128,1.71,0.29,2.566,0.388c0.858,0.084,1.715,0.168,2.567,0.251
					c3.41,0.307,6.752,0.754,10.055,0.8c1.648,0.066,3.279,0.132,4.891,0.197c1.609,0.07,3.201,0.148,4.773,0.087
					c3.144-0.051,6.201-0.1,9.16-0.147c2.957-0.075,5.804-0.394,8.545-0.537c1.37-0.09,2.712-0.179,4.023-0.266
					c0.655-0.043,1.303-0.086,1.943-0.128c0.637-0.073,1.266-0.146,1.887-0.217c2.484-0.284,4.842-0.553,7.057-0.806
					c2.217-0.25,4.3-0.433,6.218-0.694c1.915-0.3,3.675-0.577,5.264-0.826c3.184-0.467,5.685-0.834,7.391-1.084
					C304.635,396.016,305.546,395.894,305.546,395.894z"/>
			</g>
			<g>
				<path fill="#456363" d="M235.68,406.703c0,0,0.375,0.024,1.076,0.071c0.701,0.035,1.73,0.086,3.041,0.151
					c1.309,0.074,2.901,0.095,4.725,0.149c0.912,0.006,1.883,0.012,2.906,0.018c1.021,0.028,2.098,0.031,3.219,0.016
					c1.122-0.008,2.291-0.016,3.5-0.023c1.208-0.041,2.457-0.083,3.742-0.126c1.283-0.037,2.602-0.087,3.947-0.183
					c1.346-0.074,2.722-0.149,4.12-0.226c1.397-0.077,2.813-0.235,4.25-0.352c1.435-0.137,2.893-0.202,4.351-0.391
					c1.459-0.173,2.93-0.348,4.407-0.523l2.218-0.267l2.211-0.341c1.476-0.227,2.951-0.454,4.42-0.68
					c1.473-0.208,2.912-0.562,4.356-0.832c1.442-0.281,2.872-0.56,4.286-0.835c1.398-0.343,2.779-0.682,4.138-1.015
					c1.36-0.33,2.698-0.654,4.007-0.972c1.291-0.384,2.554-0.76,3.783-1.125c2.457-0.741,4.801-1.39,6.88-2.23
					c2.097-0.789,4.04-1.466,5.757-2.085c1.67-0.733,3.125-1.373,4.323-1.899c2.411-1.039,3.789-1.633,3.789-1.633
					s-1.33,0.693-3.657,1.906c-1.172,0.598-2.595,1.324-4.227,2.156c-1.686,0.712-3.582,1.537-5.674,2.386
					c-2.066,0.92-4.397,1.656-6.846,2.49c-1.228,0.413-2.488,0.836-3.775,1.27c-1.311,0.358-2.649,0.724-4.011,1.096
					c-1.365,0.361-2.753,0.729-4.157,1.1c-1.422,0.303-2.859,0.61-4.309,0.919c-1.455,0.282-2.908,0.647-4.393,0.866
					c-1.48,0.237-2.967,0.475-4.453,0.713l-2.23,0.357l-2.238,0.258c-1.49,0.167-2.975,0.333-4.447,0.497
					c-2.948,0.286-5.859,0.471-8.676,0.627c-2.819,0.085-5.543,0.238-8.129,0.177c-1.292-0.007-2.549-0.014-3.764-0.021
					c-1.215-0.04-2.389-0.078-3.516-0.114c-2.254-0.04-4.315-0.225-6.141-0.345c-1.824-0.172-3.414-0.296-4.719-0.455
					c-1.307-0.137-2.33-0.284-3.025-0.388C236.051,406.759,235.68,406.703,235.68,406.703z"/>
			</g>
			<g>
				<path fill="#456363" d="M252.516,385.001c0,0,1.104,0.126,3.021,0.277c0.96,0.08,2.125,0.177,3.462,0.288
					c1.341,0.087,2.854,0.185,4.506,0.292c1.65,0.118,3.439,0.22,5.336,0.285c1.895,0.08,3.893,0.164,5.961,0.25
					c2.068,0.069,4.206,0.072,6.379,0.112c2.173,0.01,4.383,0.113,6.589,0.048c2.208-0.042,4.415-0.085,6.589-0.127
					c2.174-0.035,4.314-0.067,6.379-0.232c2.066-0.128,4.064-0.253,5.959-0.371c1.893-0.14,3.693-0.171,5.334-0.413
					c6.586-0.779,10.976-1.298,10.976-1.298s-4.378,0.636-10.944,1.591c-1.639,0.285-3.437,0.364-5.328,0.555
					c-1.895,0.168-3.893,0.346-5.96,0.53c-2.065,0.22-4.208,0.31-6.386,0.402c-2.177,0.1-4.389,0.202-6.601,0.303
					c-2.212,0.123-4.427,0.08-6.606,0.127c-2.18,0.018-4.326,0.071-6.402,0.058c-2.076-0.032-4.084-0.063-5.987-0.093
					c-1.904-0.015-3.704-0.07-5.364-0.144c-1.661-0.063-3.184-0.121-4.533-0.172c-1.352-0.076-2.529-0.143-3.5-0.198
					c-1.945-0.101-3.041-0.197-3.041-0.197L252.516,385.001z"/>
			</g>
			<g>
				<path fill="#456363" d="M391.277,349.919c0,0-4.065,3.697-10.754,8.51c-1.672,1.201-3.514,2.463-5.496,3.746
					c-1.992,1.267-4.107,2.588-6.371,3.826c-2.242,1.275-4.649,2.444-7.115,3.569c-2.459,1.097-4.924,2.257-7.265,3.624
					c-1.167,0.683-2.302,1.42-3.335,2.247c-1.005,0.819-2.016,1.775-2.404,2.815c-0.09,0.253-0.123,0.497-0.094,0.702
					c0.016,0.103,0.044,0.196,0.091,0.282c0.028,0.076,0.144,0.205,0.122,0.171c0.104,0.08,0.396,0.179,0.674,0.225
					c0.287,0.051,0.594,0.077,0.904,0.089c1.248,0.04,2.531-0.115,3.771-0.323c4.979-0.9,9.492-2.583,13.217-4.26
					c3.735-1.681,6.706-3.395,8.752-4.639c2.053-1.238,3.188-2.011,3.188-2.011s-1.085,0.84-3.062,2.206
					c-1.989,1.345-4.894,3.196-8.583,5.063c-1.843,0.936-3.89,1.856-6.111,2.699c-2.223,0.838-4.621,1.612-7.197,2.083
					c-1.289,0.233-2.614,0.418-4.012,0.395c-0.352-0.009-0.707-0.033-1.076-0.093c-0.373-0.073-0.748-0.133-1.199-0.434
					c-0.877-0.744-0.808-1.827-0.529-2.566c0.291-0.761,0.756-1.349,1.245-1.88c0.493-0.53,1.03-0.995,1.586-1.428
					c1.113-0.864,2.297-1.607,3.505-2.291c2.417-1.364,4.938-2.514,7.441-3.536c2.475-1.05,4.881-2.139,7.143-3.345
					c2.281-1.167,4.418-2.425,6.434-3.635c2.008-1.226,3.875-2.436,5.574-3.59C387.115,353.511,391.277,349.919,391.277,349.919z"/>
			</g>
			<g>
				<path fill="#456363" d="M367.08,379.11c0,0,0.586-0.301,1.611-0.828c0.516-0.259,1.141-0.575,1.857-0.936
					c0.705-0.382,1.473-0.859,2.328-1.342c0.425-0.246,0.867-0.502,1.326-0.767c0.441-0.294,0.898-0.598,1.367-0.91
					c0.932-0.635,1.947-1.253,2.92-2.007c0.986-0.734,2.028-1.461,3.005-2.307c1.001-0.815,2.007-1.653,2.973-2.541
					c0.993-0.856,1.937-1.767,2.851-2.678c0.941-0.885,1.774-1.847,2.627-2.734c0.818-0.917,1.621-1.796,2.346-2.661
					c0.719-0.869,1.404-1.688,1.995-2.476c2.435-3.102,3.799-5.364,3.799-5.364s-0.294,0.59-0.884,1.583
					c-0.599,0.985-1.46,2.396-2.625,3.998c-1.146,1.615-2.585,3.427-4.205,5.303c-0.849,0.902-1.678,1.881-2.617,2.784
					c-0.912,0.929-1.854,1.858-2.847,2.733c-0.956,0.916-1.989,1.743-3.01,2.553c-0.996,0.84-2.058,1.562-3.062,2.29
					c-0.988,0.75-2.021,1.364-2.989,1.959c-0.485,0.296-0.956,0.585-1.411,0.864c-0.474,0.25-0.932,0.493-1.37,0.725
					c-0.88,0.458-1.673,0.905-2.405,1.236c-0.736,0.316-1.381,0.593-1.91,0.82C367.688,378.855,367.08,379.11,367.08,379.11z"/>
			</g>
		</g>
		<g>
			<path d="M193.494,378.769c0,0,38.484-17.618,55.501-21.443c17.016-3.828,1.396,9.949,8.228,25.454
				c3.072,6.981,8.117,10.24,9.984,11.099c1.928,0.886,5.042,2.936,0.446,3.22c-53.858,3.335-71.778-11.875-73.938-13.265
				C189.004,380.797,193.494,378.769,193.494,378.769z"/>
			<path d="M351.401,377.04c0,0,21.692-25.506,27.909-29.652c3.603-2.399,2.107,0.803,2.107,0.803l-8.562,20.093
				C372.856,368.283,355.226,380.159,351.401,377.04z"/>
		</g>
	</g>
	<path fill="#58595B" d="M196.173,381.48c0,0,36.759-17.305,52.382-20.825c0,0-17.767,8.269-26.805,13.785
		c-9.036,5.513-15.009,12.042-15.009,12.042C200.998,386.54,196.173,381.48,196.173,381.48z"/>
	<path fill="#58595B" d="M376.067,351.56c0,0-13.24,15.931-18.007,21.521l5.973-2.735L376.067,351.56z"/>
	<g>
		<path fill="#FFFFFF" d="M314.3,365.563c0.796-0.315,1.47-0.743,1.94-1.301c0.466-0.565,0.841-1.23,1.287-1.948
			c0.095-0.167,0.246-0.381,0.295-0.506c0.059-0.12,0.105-0.266,0.162-0.412c0.123-0.313,0.255-0.725,0.527-1.228
			c0.109-0.222,0.369-0.566,0.635-0.842l0.213-0.225c0.269-0.222,0.266-0.208,0.416-0.323c0.459-0.344,0.892-0.576,1.322-0.79
			l1.141-0.537c0.389-0.183,0.476-0.258,0.908-0.511c0.43-0.321,1.116-0.848,1.874-1.346c0.183-0.123,0.416-0.263,0.664-0.404
			c0.259-0.146,0.32-0.193,0.619-0.333l1.134-0.568c0.42-0.193,0.854-0.407,1.518-0.592l0.147-0.044l0.074-0.021l0.198-0.044
			c0.167-0.026,0.367-0.068,0.51-0.081c0,0,0.726-0.073,0.771-0.078l0.086-0.036c0,0,0.067-0.029,0.105-0.042
			c0.039-0.021-0.286,0.109-0.115,0.026c0.077-0.049,0.189-0.135,0.341-0.289c0.308-0.316,0.712-0.887,1.241-1.591
			c0.279-0.368,0.561-0.73,0.984-1.181c0.483-0.514,0.795-0.749,1.138-1.043c0.684-0.571,1.389-1.113,2.099-1.627
			c1.424-1.022,2.864-1.927,4.257-2.801c1.404-0.876,2.668-1.685,4.045-2.613c1.366-0.913,2.783-1.849,4.304-2.728
			c0.76-0.446,1.533-0.85,2.374-1.265l1.288-0.592l1.136-0.459c2.204-0.876,4.587-0.887,6.509-0.553
			c1.928,0.331,3.451,0.813,4.779,1.009c1.171,0.193,2.46,0.125,4.022-0.05l2.486-0.274c0.788-0.094,2.138-0.125,2.456-0.146
			c0.394-0.068,0.311-0.055,0.417-0.138c0.135-0.104,0.523-0.579,0.994-1.254l0.357-0.498c0.281-0.388,0.569-0.688,0.769-0.879
			c0.427-0.419,0.754-0.693,1.03-0.944c0.269-0.24,0.483-0.454,0.571-0.558c0.121-0.081,1.132-1.588,1.132-1.588
			c1.101-0.801,2.328-1.244,3.307-1.486c0.49-0.125,0.965-0.219,1.335-0.295c0.367-0.07,0.82-0.154,1.028-0.216
			c1.072-0.243,2.162-0.829,3.968-1.604c1.174-0.472,2.349-0.649,3.324-0.72c0.986-0.075,1.786-0.07,2.502-0.102
			c1.445-0.044,3.28-0.292,5.552,0.13c1.106,0.198,2.432,0.688,3.489,1.453c1.053,0.743,1.768,1.56,2.332,2.204
			c0.552,0.642,0.982,1.163,1.312,1.458c0.104,0.094,0.139,0.117,0.151,0.136c-0.032-0.011,0.216,0.156,0.286,0.206
			c0.149,0.086,0.301,0.167,0.468,0.227c0.654,0.258,1.571,0.287,2.54-0.005c0.241-0.065,0.481-0.159,0.718-0.258
			c0.136-0.055,0.19-0.094,0.286-0.133c0.077-0.029,0.279-0.151,0.433-0.235c0.014-0.029,0.042-0.078,0.097-0.195
			c0.202-0.365,0.324-1.25,1.129-2.658c0.411-0.683,1.104-1.444,1.887-1.919c0.817-0.496,1.484-0.723,2.312-0.879
			c2.32-0.36,4.209-0.016,5.905,0.302c1.685,0.339,3.243,0.759,4.546,0.98c1.729,0.282,3.307,0.655,3.81,0.553
			c0.017-0.003,0.067-0.008,0.052-0.003c-0.031,0.003-0.103,0.032-0.092,0.04l0.123-0.044c0.046-0.026,0.146-0.097,0.316-0.253
			l0.435-0.402c0.132-0.123,0.543-0.479,0.652-0.558c0.475-0.365,0.809-0.571,1.167-0.811c1.495-0.991,1.617-1.009,2.268-2.188
			c0.289-0.55,0.571-1.213,0.943-2.021c0.061-0.138,0.677-0.316,0.824-0.383c0.295-0.138,0.587-0.282,0.886-0.412
			c0.429-0.183,0.872-0.347,1.264-0.605c0.347-0.227,0.683-0.524,0.9-0.881c0.327-0.529,0.257-0.939,0.299-1.523
			c0.062-0.952,0.26-2.005,0.035-2.947c-0.969-4.058-5.007-5.025-8.414-3.004c-0.642,0.378-1.093,0.871-1.771,1.215
			c-2.175,1.116-4.253,2.201-5.833,4.034c-1.669,1.933-3.42,1.197-4.835-0.613c-1.062-1.358-1.668-2.128-3.315-2.216
			c-1.412-0.079-2.028-0.165-2.816,1.027c-1.489,2.253-1.646,2.996-4.609,2.97c-1.491-0.016-2.977-0.449-4.049-1.523
			c-0.969-0.978-0.969-2.503-2.001-3.32c-1.672-1.322-4.177-1.351-6.175-0.983c-0.834,0.156-1.648,0.323-2.19,1.045
			c-0.673,0.9-0.254,1.946-0.632,2.944c-0.302,0.788-1.437,2.19-2.255,2.451c-1.589,0.511-2.971-1.014-4.555-1.066
			c-1.345-0.044-3.012,0.177-4.333,0.477c-1.21,0.274-2.339,0.941-3.262,1.766c-1.241,1.111-1.711,2.913-3.504,3.346
			c-3.499,0.85-7.204-1.192-10.752-1.174c-1.461,0.008-3.592-0.06-4.91,0.6c-1.437,0.72-1.425,2.547-2.75,3.411
			c-1.753,1.137-3.841,1.179-5.849,1.171c-1.656-0.008-4.193-0.472-5.716,0.315c-1.296,0.673-1.229,2.071-1.575,3.325
			c-0.604,2.195-1.771,3.327-3.979,3.893c-1.665,0.43-3.203,1.403-4.46,2.561c-1.197,1.098-1.599,2.712-2.759,3.914
			c-1.123,1.163-2.208,1.2-3.695,1.434c-2.092,0.326-3.177,1.116-4.258,2.902c-0.881,1.453-1.539,2.741-3.219,3.364
			c-0.867,0.323-1.547,0.957-2.388,1.265c-2.366,0.863-5.081-0.008-5.911,2.774c-0.68,2.269-0.49,4.499-0.631,6.819
			c-0.064,1.074-0.223,1.179-0.842,1.995c-0.134,0.18-1.535,2.355-1.43,2.399L314.3,365.563z"/>
	</g>
	<path fill="#FF5D60" d="M330.344,241.647"/>
	<polygon fill="#FFFFFF" points="385.828,199.142 404.012,186.504 427.064,201.786 410.773,200.411 404.416,207.637 
		397.276,199.261 	"/>
	<g>
		<g>
			<path d="M339.665,427.509l-1.045-3.147l2.842-0.944l0.497,1.497c0.738,0.055,1.46-0.036,2.223-0.294
				c0.998-0.329,1.479-1.015,1.241-1.727c-0.324-0.978-1.337-0.876-3.312-0.735c-2.349,0.183-4.337-0.156-5.143-2.574
				c-0.888-2.688,0.408-5.012,3.937-6.186c2.171-0.72,3.736-0.683,4.875-0.532l0.952,2.879l-2.646,0.876l-0.427-1.28
				c-0.648-0.086-1.299,0.002-1.988,0.235c-0.94,0.31-1.447,1.03-1.206,1.76c0.308,0.923,1.408,0.707,3.175,0.568
				c2.326-0.175,4.462,0.159,5.29,2.652c0.916,2.764-0.376,5.043-4.04,6.264C342.55,427.598,340.804,427.536,339.665,427.509z"/>
			<path d="M361.008,418.127c0.183,0.555,0.332,0.675,0.694,0.555l0.826-0.271l0.671,2.034l-6.541,2.169l-0.673-2.037l0.673-0.219
				c0.345-0.117,0.389-0.3,0.2-0.858l-2.406-7.252c-0.188-0.576-0.327-0.681-0.674-0.566l-0.67,0.222l-0.677-2.034l6.678-2.214
				c3.513-1.168,5.557-0.461,6.441,2.204c0.905,2.73-0.25,4.451-3.855,5.648l-1.401,0.467L361.008,418.127z M360.206,413.788
				c1.514-0.503,2.021-1.351,1.589-2.657c-0.42-1.262-1.334-1.646-2.871-1.137l-0.555,0.186l1.264,3.802L360.206,413.788z"/>
			<path d="M378.423,407.127c0.519-0.175,0.635-0.404,0.413-1.08l-0.135-0.401l1.648-0.542l1.537,4.626l-1.651,0.545l-0.139-0.422
				c-0.225-0.673-0.481-0.866-0.997-0.691l-0.883,0.29l1.12,3.379l2.303-0.764c1.001-0.331,1.171-0.454,1.317-1.356l0.068-0.959
				l1.707-0.563l1.228,3.701l-11.151,3.703l-0.675-2.037l0.675-0.222c0.342-0.112,0.394-0.279,0.207-0.858l-2.408-7.252
				c-0.193-0.576-0.334-0.678-0.677-0.563l-0.674,0.225l-0.677-2.037l10.998-3.648l1.229,3.703l-1.707,0.566l-0.628-0.728
				c-0.601-0.592-0.89-0.621-1.887-0.292l-2.13,0.707l1.081,3.265L378.423,407.127z"/>
			<path d="M390.043,404.528c-1.453-4.378,0.023-7.445,4.283-8.858c2.398-0.793,4.4-0.863,5.642-0.592l1.366,4.125l-3.108,1.03
				l-0.664-1.995c-0.465-0.12-1.032-0.232-1.938,0.07c-1.821,0.6-2.29,1.695-1.404,4.366l0.247,0.746
				c0.875,2.631,1.928,3.239,3.715,2.647c0.9-0.297,1.313-0.715,1.593-1.106l-0.644-2.002l3.089-1.025l1.368,4.125
				c-0.83,0.959-2.476,2.102-4.872,2.899C394.512,410.354,391.464,408.807,390.043,404.528z"/>
			<path d="M409.939,402.674l0.674-0.225c0.343-0.112,0.388-0.294,0.205-0.853l-2.408-7.255c-0.193-0.574-0.33-0.678-0.677-0.566
				l-0.67,0.222l-0.679-2.034l6.387-2.115l0.681,2.029l-0.67,0.225c-0.365,0.12-0.418,0.287-0.225,0.866l2.408,7.25
				c0.183,0.561,0.33,0.678,0.692,0.558l0.674-0.219l0.67,2.031l-6.386,2.12L409.939,402.674z"/>
			<path d="M426.284,394.991l-0.021,1.476c0.012,0.615,0.198,0.722,0.638,0.576l0.446-0.151l0.676,2.04l-4.747,1.572l-0.674-2.034
				c0,0,0.521-0.169,0.501-0.167c0.439-0.146,0.469-0.326,0.494-0.949l0.417-11.26l4.108-1.364l6.909,8.83
				c0.379,0.49,0.622,0.582,1.026,0.446l0.482-0.159l0.673,2.036l-6.489,2.151L430.052,396c0,0,0.596-0.198,0.519-0.172
				c0.424-0.143,0.526-0.344,0.147-0.837l-0.917-1.166L426.284,394.991z M428.655,392.115l-2.404-3.202l-0.033,4.013
				L428.655,392.115z"/>
			<path d="M442.752,391.786l0.672-0.224c0.346-0.117,0.391-0.302,0.207-0.86l-2.408-7.25c-0.191-0.576-0.334-0.681-0.679-0.566
				l-0.672,0.222l-0.673-2.031l6.543-2.172l0.674,2.034l-0.824,0.271c-0.362,0.123-0.417,0.29-0.228,0.868l2.646,7.961l1.19-0.396
				c1.133-0.373,1.383-0.521,1.398-1.382l-0.065-2.042l2.034-0.675l1.569,4.72l-10.706,3.554L442.752,391.786z"/>
		</g>
		<g>
			<g>
				<polygon points="329.707,422.273 319.647,430.946 313.804,424.933 				"/>
			</g>
			<g>
				<polygon points="457.629,379.819 470.877,380.756 471.964,372.445 				"/>
			</g>
		</g>
	</g>
</g>
</svg>
