<?xml version="1.0" encoding="utf-8"?>
<!-- Generator: Adobe Illustrator 16.0.0, SVG Export Plug-In . SVG Version: 6.00 Build 0)  -->
<!DOCTYPE svg PUBLIC "-//W3C//DTD SVG 1.1//EN" "http://www.w3.org/Graphics/SVG/1.1/DTD/svg11.dtd">
<svg version="1.1" id="Layer_1" xmlns="http://www.w3.org/2000/svg" xmlns:xlink="http://www.w3.org/1999/xlink" x="0px" y="0px"
	 width="600px" height="600px" viewBox="0 0 600 600" enable-background="new 0 0 600 600" xml:space="preserve">
<g>
	<g>
		<path fill="#D36149" d="M338.453,270.271c-11.039-11.036-28.622-9.414-42.327,4.297l-2.504,2.493l-2.499-2.493
			c-13.702-13.711-32.099-14.521-43.142-3.48c-11.041,11.041-9.4,28.619,4.295,42.314l41.345,41.357l41.352-41.348
			C348.678,299.714,349.489,281.312,338.453,270.271z"/>
		<g>
			<g>
				<path fill="#231F20" d="M300.042,389.833c-24.345,0-47.231-9.471-64.442-26.668c-17.215-17.202-26.695-40.08-26.694-64.42
					c-0.002-6.314-0.085-119.597-0.085-119.597c0-11.893,9.759-21.566,21.754-21.566c5.054,0,9.71,1.718,13.407,4.595V141.97
					c0-11.897,9.626-21.577,21.457-21.577c4.932,0,9.48,1.683,13.107,4.508v-5.078c0-11.895,9.623-21.572,21.451-21.572
					c11.831,0,21.456,9.678,21.456,21.572v15.363c3.627-2.823,8.176-4.506,13.107-4.506c11.832,0,21.457,9.675,21.457,21.568v56.427
					c3.767-3.04,8.512-4.881,13.593-4.881h21.573l-0.018,95.575C390.723,349.267,349.845,389.833,300.042,389.833z M230.575,165.924
					c-7.396,0-13.411,5.93-13.411,13.22c0-0.003,0.083,113.282,0.085,119.598c-0.001,22.113,8.611,42.895,24.249,58.52
					c15.636,15.624,36.427,24.228,58.545,24.228c45.243,0,82.378-36.855,82.781-82.158l0.017-87.194h-13.229
					c-7.241,0-13.593,6.389-13.593,13.671h-8.343v-73.561c0-7.292-5.883-13.225-13.114-13.225c-7.228,0-13.107,5.933-13.107,13.225
					h-8.343v-32.425c0-7.294-5.883-13.229-13.113-13.229c-7.228,0-13.108,5.935-13.108,13.229v22.147h-8.343
					c0-7.297-5.88-13.234-13.107-13.234c-7.231,0-13.114,5.937-13.114,13.234v37.174h-8.343
					C243.982,171.854,237.968,165.924,230.575,165.924z"/>
				<path fill="#231F20" d="M356.55,223.052c0.096,2.397-0.116,4.793-0.186,7.19l-0.302,7.189l-0.604,14.38l-1.208,28.76
					l-0.504-1.342c1.691,1.831,3.287,3.745,4.869,5.671c1.591,1.918,3.116,3.895,4.638,5.873c1.503,1.996,3.004,3.992,4.439,6.048
					c1.444,2.046,2.875,4.105,4.21,6.247c-1.945-1.608-3.797-3.299-5.634-5.001c-1.847-1.695-3.627-3.448-5.407-5.201
					c-1.759-1.771-3.516-3.544-5.208-5.375c-1.699-1.823-3.385-3.658-4.976-5.577l-0.472-0.57l-0.032-0.772l-1.207-28.76
					l-0.603-14.38l-0.301-7.19c-0.071-2.396-0.282-4.793-0.187-7.19H356.55z"/>
				<rect x="313.111" y="147.776" fill="#231F20" width="8.343" height="94.158"/>
				<rect x="278.547" y="137.049" fill="#231F20" width="8.343" height="104.885"/>
				<rect x="243.982" y="170.421" fill="#231F20" width="8.343" height="71.513"/>
			</g>
			<path fill="#231F20" d="M224.32,279.734c0,0,1.999-0.188,5.496-0.404c3.497-0.251,8.493-0.524,14.488-0.764
				c5.995-0.226,12.989-0.428,20.483-0.521c7.493-0.102,15.487-0.209,23.48-0.317c3.997-0.054,7.994-0.107,11.928-0.161
				c3.934-0.021,7.806-0.042,11.553-0.063c7.494-0.031,14.488-0.061,20.483-0.085c5.995,0.015,10.991,0.026,14.488,0.035
				c3.497,0.031,5.495,0.049,5.495,0.049v4.462c0,0-1.998,0.018-5.495,0.049c-3.497,0.009-8.493,0.021-14.488,0.035
				c-5.995-0.025-12.989-0.055-20.483-0.086c-3.747-0.021-7.619-0.042-11.553-0.063c-3.934-0.053-7.931-0.107-11.928-0.161
				c-7.993-0.107-15.987-0.215-23.48-0.316c-7.494-0.093-14.488-0.295-20.483-0.521c-5.995-0.239-10.991-0.513-14.488-0.764
				C226.318,279.922,224.32,279.734,224.32,279.734z"/>
			<path fill="#231F20" d="M352.269,281.965c0,0-0.478,0.024-1.374,0.071c-0.448,0.023-1,0.052-1.65,0.085
				c-0.609,0.063-1.309,0.135-2.093,0.216c-1.569,0.162-3.523,0.44-5.705,0.893c-2.182,0.47-4.628,1.095-7.207,2.038
				c-5.193,1.756-10.965,4.706-16.391,8.902c-2.698,2.112-5.324,4.512-7.722,7.203c-2.404,2.686-4.565,5.661-6.464,8.799
				c-1.891,3.143-3.47,6.479-4.693,9.885c-1.222,3.407-2.152,6.87-2.714,10.29c-0.119,0.857-0.282,1.704-0.381,2.55
				c-0.095,0.849-0.189,1.688-0.282,2.52c-0.109,1.662-0.21,3.305-0.247,4.968c-0.144,3.29-0.278,6.399-0.403,9.27
				c-0.298,5.741-0.585,10.525-0.839,13.874c-0.133,1.675-0.237,2.99-0.308,3.887c-0.077,0.897-0.118,1.375-0.118,1.375
				s-0.041-0.479-0.118-1.375c-0.071-0.897-0.175-2.212-0.308-3.887c-0.254-3.349-0.542-8.133-0.839-13.874
				c-0.125-2.87-0.26-5.98-0.403-9.27c-0.069-1.626-0.089-3.36-0.099-5.15c0.059-1.779,0.12-3.604,0.355-5.447
				c0.439-3.684,1.202-7.473,2.419-11.195c1.211-3.722,2.812-7.388,4.763-10.865c3.899-6.96,9.273-13.076,15.18-17.683
				c2.954-2.306,6.013-4.274,9.056-5.871c3.039-1.607,6.062-2.83,8.905-3.772c2.847-0.944,5.532-1.548,7.921-1.988
				c2.4-0.424,4.484-0.66,6.25-0.79c0.886-0.046,1.676-0.087,2.364-0.123c0.651,0,1.204,0,1.653,0
				c0.897,0.001,1.376,0.001,1.376,0.001L352.269,281.965z"/>
			<path fill="#231F20" d="M352.212,246.193c0,0-7.93-0.137-19.826-0.343c-5.948-0.126-12.887-0.275-20.322-0.433
				c-7.435-0.18-15.365-0.374-23.296-0.566c-7.931-0.223-15.861-0.445-23.295-0.654c-7.435-0.218-14.375-0.378-20.322-0.613
				c-2.974-0.132-5.7-0.25-8.116-0.411c-2.416-0.155-4.523-0.252-6.257-0.397c-3.469-0.261-5.452-0.46-5.452-0.46
				c0,0.001,1.983-0.198,5.452-0.459c1.734-0.146,3.841-0.243,6.257-0.397c2.417-0.161,5.143-0.279,8.116-0.411
				c5.948-0.235,12.887-0.396,20.322-0.613c7.435-0.209,15.365-0.431,23.295-0.654c7.931-0.192,15.861-0.386,23.296-0.566
				c7.435-0.158,14.374-0.307,20.322-0.433c11.896-0.206,19.826-0.343,19.826-0.343V246.193z"/>
			<path fill="#231F20" d="M348.673,175.31c0,0-1.773,0.511-4.434,0.963c-2.66,0.473-6.208,0.879-9.755,1.094
				c-1.773,0.135-3.547,0.199-5.209,0.269c-1.663,0.046-3.214,0.071-4.544,0.061c-2.661-0.009-4.434-0.157-4.434-0.157v-4.462
				c0,0,1.773-0.147,4.434-0.157c1.33-0.01,2.882,0.015,4.544,0.062c1.663,0.07,3.437,0.134,5.209,0.269
				c3.547,0.215,7.095,0.621,9.755,1.094C346.9,174.798,348.673,175.31,348.673,175.31z"/>
			<path fill="#231F20" d="M348.673,212.179c0,0-1.773,0.484-4.434,0.923c-1.33,0.226-2.882,0.448-4.545,0.636
				c-0.832,0.111-1.69,0.175-2.563,0.259c-0.873,0.088-1.759,0.151-2.646,0.208c-3.547,0.263-7.094,0.37-9.754,0.352
				c-2.661-0.003-4.434-0.146-4.434-0.146v-4.462c0,0,1.773-0.144,4.434-0.147c2.66-0.018,6.207,0.09,9.754,0.352
				c0.887,0.057,1.773,0.12,2.646,0.208c0.873,0.084,1.732,0.148,2.563,0.259c1.663,0.188,3.215,0.411,4.545,0.636
				C346.9,211.695,348.673,212.179,348.673,212.179z"/>
			<path fill="#231F20" d="M278.564,169.527c0,0-1.773,0.435-4.433,0.849c-1.329,0.215-2.881,0.434-4.543,0.616
				c-1.663,0.203-3.435,0.351-5.208,0.496c-1.772,0.129-3.546,0.239-5.208,0.302c-1.662,0.064-3.214,0.099-4.543,0.096
				c-2.66,0.01-4.433-0.127-4.433-0.127v-4.463c0,0,1.773-0.137,4.433-0.126c1.329-0.003,2.881,0.031,4.543,0.095
				c1.663,0.063,3.436,0.173,5.208,0.302c1.773,0.144,3.546,0.292,5.208,0.495c1.662,0.183,3.214,0.401,4.543,0.616
				C276.791,169.093,278.564,169.527,278.564,169.527z"/>
			<path fill="#231F20" d="M278.564,206.394c0,0-0.444,0.167-1.219,0.379c-0.775,0.222-1.883,0.487-3.214,0.743
				c-0.665,0.108-1.385,0.264-2.147,0.355c-0.762,0.103-1.565,0.225-2.396,0.304c-1.663,0.177-3.435,0.261-5.208,0.39
				c-0.886,0.042-1.772,0.084-2.646,0.126c-0.873,0.044-1.731,0.075-2.563,0.086c-1.662,0.048-3.214,0.042-4.543,0.034
				c-1.331-0.022-2.438-0.061-3.214-0.103c-0.775-0.053-1.219-0.083-1.219-0.083v-4.463c0,0,0.444-0.03,1.219-0.083
				c0.775-0.042,1.883-0.08,3.214-0.103c1.329-0.008,2.881-0.014,4.543,0.034c0.832,0.011,1.69,0.042,2.563,0.086
				c0.873,0.042,1.759,0.084,2.646,0.126c1.773,0.129,3.546,0.213,5.208,0.39c0.831,0.08,1.634,0.201,2.396,0.304
				c0.762,0.091,1.482,0.248,2.147,0.355c1.331,0.256,2.438,0.521,3.214,0.743C278.121,206.227,278.564,206.394,278.564,206.394z"/>
			<path fill="#231F20" d="M243.516,196.934c0,0-1.773,0.504-4.433,0.953c-2.661,0.47-6.207,0.877-9.753,1.097
				c-1.773,0.135-3.546,0.201-5.209,0.273c-1.662,0.046-3.213,0.073-4.544,0.063c-2.66-0.008-4.433-0.154-4.433-0.154v-4.463
				c0,0,1.773-0.146,4.433-0.154c1.331-0.01,2.882,0.017,4.544,0.063c1.663,0.072,3.436,0.137,5.209,0.273
				c3.546,0.22,7.093,0.627,9.753,1.097C241.742,196.429,243.516,196.934,243.516,196.934z"/>
			<path fill="#231F20" d="M243.516,221.504c0,0-1.773,0.504-4.433,0.953c-2.661,0.47-6.207,0.877-9.753,1.097
				c-1.773,0.135-3.546,0.201-5.209,0.273c-1.662,0.046-3.213,0.073-4.544,0.062c-2.66-0.007-4.433-0.154-4.433-0.154v-4.463
				c0,0,1.773-0.146,4.433-0.154c1.331-0.01,2.882,0.017,4.544,0.063c1.663,0.072,3.436,0.138,5.209,0.273
				c3.546,0.219,7.093,0.627,9.753,1.097C241.742,221,243.516,221.504,243.516,221.504z"/>
			<path fill="#231F20" d="M314.19,155.302c0,0-1.773,0.486-4.433,0.926c-1.33,0.227-2.882,0.448-4.545,0.637
				c-0.831,0.111-1.69,0.174-2.563,0.258c-0.873,0.089-1.759,0.15-2.646,0.208c-3.547,0.261-7.094,0.369-9.754,0.35
				c-2.66-0.003-4.434-0.147-4.434-0.147v-4.463c0,0,1.773-0.144,4.434-0.147c2.66-0.02,6.207,0.089,9.754,0.35
				c0.887,0.057,1.773,0.118,2.646,0.208c0.873,0.084,1.732,0.147,2.563,0.258c1.663,0.188,3.215,0.41,4.545,0.637
				C312.417,154.816,314.19,155.302,314.19,155.302z"/>
			<path fill="#231F20" d="M314.19,197.949c0,0-1.773,0.514-4.433,0.966c-2.66,0.475-6.207,0.88-9.754,1.094
				c-1.773,0.135-3.547,0.198-5.209,0.268c-1.663,0.046-3.214,0.07-4.544,0.061c-2.66-0.009-4.434-0.157-4.434-0.157v-4.462
				c0,0,1.773-0.148,4.434-0.157c1.33-0.01,2.882,0.014,4.544,0.061c1.662,0.07,3.436,0.133,5.209,0.268
				c3.547,0.214,7.094,0.619,9.754,1.094C312.417,197.435,314.19,197.949,314.19,197.949z"/>
			<path fill="#231F20" d="M373.663,251.669c0,0-0.335,0.097-0.922,0.226c-0.586,0.121-1.424,0.328-2.43,0.501
				c-2.011,0.373-4.692,0.743-7.373,0.996c-2.681,0.271-5.362,0.434-7.373,0.493c-1.006,0.028-1.844,0.022-2.43,0.032
				c-0.587-0.01-0.922-0.016-0.922-0.016v-4.462c0,0,0.335-0.006,0.922-0.017c0.586,0.01,1.424,0.004,2.43,0.032
				c2.011,0.059,4.692,0.221,7.373,0.492c2.681,0.254,5.362,0.624,7.373,0.997c1.005,0.174,1.843,0.38,2.43,0.501
				C373.328,251.572,373.663,251.669,373.663,251.669z"/>
			<path fill="#231F20" d="M333.083,282.53c0,0-1.603,0.516-4.408,1.418c-2.813,0.877-6.832,2.129-11.654,3.632
				c-4.837,1.453-10.481,3.148-16.529,4.964c-6.041,1.836-12.521,3.674-18.987,5.561c-6.484,1.826-12.948,3.719-19.043,5.376
				c-6.084,1.695-11.795,3.169-16.699,4.405c-4.902,1.24-9.015,2.181-11.899,2.826c-1.438,0.333-2.572,0.584-3.349,0.741
				c-0.775,0.163-1.189,0.25-1.189,0.25s0.392-0.158,1.127-0.453c0.733-0.302,1.815-0.724,3.196-1.247
				c2.755-1.067,6.697-2.572,11.461-4.267c4.763-1.699,10.329-3.649,16.328-5.623c5.988-2.012,12.413-4.033,18.817-6.12
				c6.423-2.026,12.832-4.102,18.874-5.934c6.036-1.853,11.669-3.583,16.498-5.065c4.844-1.432,8.88-2.626,11.707-3.462
				c2.833-0.809,4.453-1.271,4.453-1.271L333.083,282.53z"/>
		</g>
	</g>
	<g>
		<path fill="#231F20" d="M193.772,445c0.363,0,1.692,0.484,1.692,0.846c-1.813,4.835-6.588,14.204-12.995,14.204
			c-7.313,0-10.456-7.555-10.456-16.44c0-12.753,6.527-28.286,16.621-28.286c4.956,0,7.011,4.11,7.011,9.187
			c0,4.11-1.33,8.885-3.626,12.632l-4.835-2.176c2.72-4.835,3.929-9.126,3.929-12.088c0-2.659-0.967-4.291-2.78-4.291
			c-5.561,0-10.396,15.593-10.396,26.714c0,6.104,1.451,10.819,5.138,10.819C187.185,456.121,191.113,451.648,193.772,445z"/>
		<path fill="#231F20" d="M207.433,445c0.302,0,1.45,0.484,1.45,0.786c0,0.061,0,0.061,0,0.061
			c-3.566,9.67-6.346,14.204-10.274,14.204c-3.626,0-5.077-3.566-5.077-9.852c0-4.412,0.725-10.214,1.934-17.104
			c2.72-15.17,6.527-22,10.033-22c3.143,0,4.049,2.539,4.049,5.621c0,3.566-1.209,7.857-1.813,9.73
			c-2.478,7.918-6.527,13.841-8.945,16.803c-0.302,2.599-0.483,4.956-0.483,6.89c0,4.049,0.906,5.318,2.296,5.318
			C202.537,455.456,204.833,451.708,207.433,445z M206.284,415.142c-1.632,0-5.198,13.055-6.951,24.297
			c3.022-5.5,7.495-15.593,7.555-22.967C206.889,415.626,206.586,415.142,206.284,415.142z"/>
		<path fill="#231F20" d="M215.351,431.884c0,0-1.208,5.017-2.72,12.753c-0.665,3.384-1.208,6.225-1.208,8.643
			c0,1.753,0.665,2.055,1.208,2.055c0.967,0,2.78-3.566,4.05-8.824l0.362-1.995c0.907-5.137,2.055-9.61,2.78-12.632h5.138
			c-2.116,9.429-3.868,16.439-3.868,21.396c0,1.753,0.665,2.055,1.208,2.055c1.572,0,3.566-3.385,6.226-10.335
			c0.302,0,1.692,0.423,1.692,0.786v0.061c-2.66,6.89-4.775,13.901-9.731,13.901c-2.66,0-3.868-1.995-4.231-4.956
			c-1.33,2.961-3.083,4.956-5.439,4.956c-3.204,0-4.292-2.901-4.292-6.951c0-2.478,0.423-5.379,0.967-8.28
			c1.511-7.857,2.72-12.632,2.72-12.632H215.351z"/>
		<path fill="#231F20" d="M234.693,432.609l-0.242,1.148c1.269-1.269,2.84-2.055,4.533-2.055c4.352,0,5.742,4.292,5.742,10.517
			c0,2.72-0.665,5.682-1.632,8.341c1.813-0.786,3.445-2.417,4.654-5.561c0.363,0,1.692,0.484,1.692,0.846
			c-1.45,3.868-4.472,6.528-7.555,7.434c-1.995,3.626-4.714,6.467-7.555,6.467c-4.473,0-6.044-4.049-6.044-10.214
			c0-3.748,0.604-8.28,1.511-13.176c2.841-15.594,4.533-25.143,10.275-25.143c2.478,0,3.566,1.39,3.566,3.566
			c0,3.928-3.445,10.456-8.764,16.802L234.693,432.609z M237.171,453.28c-2.236-0.544-3.626-1.994-4.473-3.868
			c0,3.506,0.302,5.863,1.753,5.863C235.479,455.274,236.385,454.549,237.171,453.28z M237.654,435.631
			c-2.72,0-4.412,3.687-4.412,7.495c0,3.505,1.511,7.192,4.956,7.917c1.088-2.901,1.753-6.708,1.753-10.033
			S239.226,435.631,237.654,435.631z M240.918,415.988c0-0.544-0.242-0.846-0.544-0.846c-0.423,0-1.813,0.604-4.533,12.028
			c1.934-2.841,4.23-6.77,5.016-10.698C240.857,416.291,240.918,416.109,240.918,415.988z"/>
		<path fill="#231F20" d="M276.458,437.203h10.94l-0.484,2.962c0,0-1.269,0.061-2.961,0.061c-0.242,6.406-1.874,12.148-5.077,15.774
			c2.599,3.748,5.5,6.226,8.583,6.226c1.813,0,3.083-0.907,4.05-2.417l2.539,2.599c-1.874,1.934-3.687,2.72-6.528,2.72
			c-4.352,0-8.461-2.538-11.907-6.467c-1.632,0.846-3.505,1.39-5.621,1.39c-8.099,0-11.665-5.258-11.665-11.182
			c0-4.896,2.417-10.275,6.769-13.599c-0.423-2.297-0.604-4.533-0.604-6.588c0-7.495,2.659-13.115,9.066-13.115
			c4.835,0,6.951,3.505,6.951,7.253c0,2.538-0.967,5.137-2.72,6.89l-3.505-2.72c1.27-1.571,1.874-3.384,1.874-4.956
			c0-1.934-0.906-3.445-2.659-3.445c-2.72,0-3.868,3.203-3.868,7.797c0,7.495,3.022,18.797,7.434,26.714
			c1.209-2.901,1.451-7.313,1.511-12.874c-0.846,0-1.692,0-2.599-0.061L276.458,437.203z M273.859,456.483
			c-3.748-5.017-6.588-11.544-8.099-17.951c-1.39,2.417-1.995,5.379-1.995,8.22c0,5.439,2.357,10.335,6.83,10.335
			C271.865,457.088,272.953,456.906,273.859,456.483z"/>
		<path fill="#231F20" d="M320.399,445c0.363,0,1.692,0.484,1.692,0.846c-1.813,4.835-6.588,14.204-12.995,14.204
			c-7.313,0-10.456-7.555-10.456-16.44c0-12.753,6.527-28.286,16.621-28.286c4.956,0,7.011,4.11,7.011,9.187
			c0,4.11-1.33,8.885-3.626,12.632l-4.835-2.176c2.72-4.835,3.929-9.126,3.929-12.088c0-2.659-0.967-4.291-2.78-4.291
			c-5.561,0-10.396,15.593-10.396,26.714c0,6.104,1.451,10.819,5.138,10.819C313.812,456.121,317.74,451.648,320.399,445z"/>
		<path fill="#231F20" d="M341.917,445.846c-1.39,3.626-4.11,6.165-7.011,7.192c-2.055,4.412-5.137,7.011-9.005,7.011
			c-4.17,0-5.983-4.352-5.983-9.852c0-3.384,0.665-7.192,1.874-10.758l2.176,0.544c0.665-4.654,3.203-8.703,7.495-8.703
			c4.049,0,6.165,4.654,6.165,10.093c0,2.962-0.726,6.044-1.511,8.704c1.571-0.725,3.022-2.236,4.11-5.077
			C340.587,445,341.917,445.483,341.917,445.846z M329.405,453.099c-2.538-0.967-4.17-3.385-5.016-6.286
			c-0.121,0.906-0.182,1.813-0.182,2.599c0,3.566,0.967,6.044,2.478,6.044c0.182,0,0.302,0,0.483-0.06
			C327.955,455.154,328.68,454.308,329.405,453.099z M326.988,443.368c0,3.264,0.967,6.407,3.687,7.192
			c1.33-3.203,2.236-7.434,2.236-10.637c0-2.72-0.665-4.775-2.357-4.775c-0.121,0-0.302,0.061-0.423,0.061
			C328.378,435.571,326.988,439.5,326.988,443.368z"/>
		<path fill="#231F20" d="M348.142,431.884c0,0-1.208,5.017-2.72,12.753c-0.665,3.384-1.208,6.225-1.208,8.643
			c0,1.753,0.665,2.055,1.208,2.055c0.967,0,2.78-3.566,4.05-8.824l0.362-1.995c0.907-5.137,2.055-9.61,2.78-12.632h5.138
			c-2.116,9.429-3.868,16.439-3.868,21.396c0,1.753,0.665,2.055,1.208,2.055c1.571,0,3.566-3.385,6.226-10.335
			c0.302,0,1.692,0.423,1.692,0.786v0.061c-2.66,6.89-4.775,13.901-9.731,13.901c-2.66,0-3.868-1.995-4.231-4.956
			c-1.33,2.961-3.083,4.956-5.439,4.956c-3.204,0-4.292-2.901-4.292-6.951c0-2.478,0.423-5.379,0.967-8.28
			c1.511-7.857,2.72-12.632,2.72-12.632H348.142z"/>
		<path fill="#231F20" d="M358.297,459.445c0,0,0.544-5.5,2.236-10.033c1.208-6.83,2.236-12.934,2.961-17.527h5.198l-0.665,4.049
			c1.934-2.901,4.352-4.714,6.89-4.714c2.115,0,3.505,1.39,3.505,4.292c0,5.621-3.929,12.813-3.929,17.769
			c0,1.753,0.665,2.055,1.209,2.055c1.571,0,3.566-3.385,6.225-10.335c0.363,0,1.692,0.484,1.692,0.846
			c-2.659,6.89-5.379,13.901-10.335,13.901c-2.116,0-4.11-1.692-4.11-5.379c0-6.527,3.928-13.236,3.928-17.588
			c0-0.665-0.302-1.209-0.967-1.209c-1.511,0-4.17,2.841-6.165,11.363l-2.417,12.511H358.297z"/>
		<path fill="#231F20" d="M391.298,417.62c-0.302,4.956-0.907,9.55-1.934,14.385c0.967,0,1.813-0.06,2.357-0.121l-0.544,2.84
			c-0.242,0.061-1.39,0.061-2.478,0.061c-0.544,2.297-1.148,4.654-1.874,7.132c-0.604,4.17-0.906,7.313-0.906,9.55
			c0,2.539,0.423,3.868,1.208,3.868c1.632,0,3.989-5.682,5.802-10.335c0.363,0,1.692,0.544,1.692,0.846
			c-3.566,9.67-5.439,13.901-9.368,13.901c-2.659,0-3.747-3.264-3.747-8.401c0-4.412,0.665-10.396,2.055-16.561
			c-1.39,0-2.417,0-2.659-0.061l0.423-2.84c0.423,0,1.451,0.061,2.72,0.061c0.786-4.17,1.572-8.22,2.962-14.325H391.298z"/>
		<path fill="#231F20" d="M401.332,455.154c1.33,0,3.445-3.204,6.104-10.154c0.302,0,1.692,0.423,1.692,0.786v0.061
			c-2.659,6.89-4.774,13.901-9.73,13.901c-2.841,0-3.929-1.813-3.929-4.533c0-3.928,2.78-8.22,2.78-11.302
			c0-1.813-0.544-3.203-1.209-4.473l-2.417,6.407c0,0-1.692-0.302-1.692-0.786V445c1.088-2.901,1.874-5.923,2.478-8.824
			c-0.604-1.33-1.088-2.961-1.088-5.077c0-1.934,0.423-4.352,1.39-7.495l4.533,1.33c-0.242,3.989-0.726,6.89-1.692,10.033
			c1.994,2.055,4.593,4.472,4.593,7.917c0,3.868-2.78,8.885-2.78,11C400.364,454.791,400.727,455.154,401.332,455.154z"/>
		<path fill="#231F20" d="M427.986,445.785c0,0.061,0,0.061,0,0.061c-2.297,5.923-5.621,10.214-8.885,13.599l-1.33,7.797
			c-1.028,6.104-3.324,10.577-7.192,10.577c-2.72,0-4.654-1.572-4.654-4.775c0-4.17,3.868-7.616,8.341-11.907l0.726-4.049
			c-1.148,1.632-2.539,2.659-4.17,2.659c-3.204,0-4.292-2.901-4.292-6.951c0-2.478,0.423-5.379,0.967-8.28
			c1.511-7.857,2.72-12.632,2.72-12.632h5.137c0,0-1.208,5.017-2.72,12.753c-0.665,3.384-1.208,6.225-1.208,8.643
			c0,1.753,0.665,2.055,1.208,2.055c3.022,0,5.5-17.83,6.709-23.451h4.956c-0.725,2.659-2.72,13.901-4.473,23.511
			c2.539-2.901,4.896-6.286,6.467-10.396C426.837,445,427.986,445.423,427.986,445.785z M410.519,474.615
			c1.027,0,1.511-1.209,1.874-3.083l1.209-6.467c-2.539,2.659-4.292,5.017-4.292,7.917
			C409.31,474.132,409.914,474.615,410.519,474.615z"/>
	</g>
</g>
</svg>
