<?xml version="1.0" encoding="utf-8"?>
<!-- Generator: Adobe Illustrator 16.0.0, SVG Export Plug-In . SVG Version: 6.00 Build 0)  -->
<!DOCTYPE svg PUBLIC "-//W3C//DTD SVG 1.1//EN" "http://www.w3.org/Graphics/SVG/1.1/DTD/svg11.dtd">
<svg version="1.1" id="Layer_1" xmlns="http://www.w3.org/2000/svg" xmlns:xlink="http://www.w3.org/1999/xlink" x="0px" y="0px"
	 width="600px" height="600px" viewBox="0 0 600 600" enable-background="new 0 0 600 600" xml:space="preserve">
<g>
	<g>
		<g>
			
				<rect x="326.74" y="158.499" transform="matrix(0.8664 0.4994 -0.4994 0.8664 141.7599 -139.4738)" fill="#D36149" width="9.528" height="73.321"/>
			<g>
				<path fill="#D36149" d="M356.146,167.487c2.074-3.599,0.84-8.199-2.76-10.274c-3.599-2.076-8.199-0.84-10.273,2.758
					c-2.077,3.598-0.839,8.199,2.76,10.274C349.469,172.32,354.069,171.085,356.146,167.487z"/>
			</g>
		</g>
		<g>
			
				<rect x="231.832" y="190.395" transform="matrix(0.4996 0.8663 -0.8663 0.4996 303.4078 -134.9252)" fill="#D36149" width="73.319" height="9.529"/>
			<g>
				<circle fill="#D36149" cx="250.366" cy="163.729" r="7.522"/>
			</g>
		</g>
	</g>
	<g>
		<g>
			<path fill="#89D4E3" d="M324.778,290.725l130.802,45.167c3.296,8.322-32.002,33.55-58.75,21.03
				c-26.744-12.55-72.052-56.105-72.052-56.105V290.725z"/>
		</g>
		<g>
			<path fill="#89D4E3" d="M275.21,290.725l-130.803,45.167c-3.291,8.322,32.011,33.55,58.755,21.03
				c26.748-12.55,72.048-56.105,72.048-56.105V290.725z"/>
		</g>
		<g>
			<path fill="#89D4E3" d="M324.778,293.116l168.841-39.741c8.767,4.646,17.133,39.111-37.813,60.138
				c-31.345,11.986-131.027-8.594-131.027-8.594V293.116z"/>
		</g>
		<g>
			<path fill="#89D4E3" d="M275.21,293.116l-168.821-39.741c-8.778,4.646-17.145,39.111,37.802,60.138
				c31.345,11.986,131.02-8.594,131.02-8.594V293.116z"/>
		</g>
	</g>
	<g>
		<path fill="#FFFFFF" d="M326.943,330.017c-4.317-3.297-26.945-5.838-26.945-5.838s-22.628,2.541-26.938,5.838
			c-4.32,3.306-15.749,19.311-10.166,53.854c5.59,34.551,25.179,54.621,37.104,54.621c11.929,0,31.514-20.07,37.104-54.621
			C342.692,349.328,331.256,333.322,326.943,330.017z"/>
		<path fill="#231F20" d="M299.998,443.794c-19.608,0-37.723-30.546-42.339-59.076c-7.049-43.637,11.393-58.31,12.181-58.913
			c4.944-3.784,22.325-6.084,29.566-6.896l0.592-0.067l0.592,0.067c7.245,0.812,24.622,3.112,29.574,6.895
			c0.792,0.608,19.229,15.301,12.173,58.913C337.721,413.248,319.606,443.794,299.998,443.794z M299.998,329.515
			c-9.776,1.132-21.493,3.276-23.768,4.75c-3.65,2.796-13.096,17.841-8.102,48.76c5.326,32.935,23.579,50.165,31.869,50.165
			s26.543-17.229,31.869-50.167c5.002-30.901-4.447-45.96-8.149-48.798C321.495,332.789,309.778,330.646,299.998,329.515z"/>
	</g>
	<g>
		<path fill="#FFFFFF" d="M299.998,263.981c-8.472,0-36.016,2.389-36.016,29.618c0,27.231,9.513,41.446,36.016,41.446
			c26.499,0,36.012-14.215,36.012-41.446C336.01,266.37,308.47,263.981,299.998,263.981z"/>
		<path fill="#231F20" d="M299.998,340.347c-37.033,0-41.318-26.68-41.318-46.749c0-13.619,6.139-23.908,17.748-29.755
			c9.26-4.662,19.569-5.165,23.57-5.165c4.005,0,14.311,0.503,23.566,5.165c11.613,5.847,17.748,16.137,17.748,29.755
			C341.312,313.667,337.031,340.347,299.998,340.347z M299.998,269.283c-27.722,0-30.714,17.005-30.714,24.315
			c0,26.011,8.614,36.144,30.714,36.144s30.71-10.133,30.71-36.144C330.708,286.288,327.716,269.283,299.998,269.283z"/>
	</g>
	<g>
		<path fill="#231F20" d="M299.998,438.975c8.168,0,19.947-13.325,28.341-29.472h-56.693
			C280.047,425.65,291.826,438.975,299.998,438.975z"/>
		<path fill="#231F20" d="M261.416,365.098c0.118,6.055,0.575,13.182,1.479,18.758c0.279,1.713,0.587,3.444,0.922,5.463h72.359
			c0.339-2.019,0.643-3.75,0.926-5.463c0.907-5.577,1.356-12.703,1.479-18.758H261.416z"/>
		<path fill="#231F20" d="M326.943,329.75c-0.087-0.067-0.178-0.435-0.265-0.501c3-4.009,5.216-8.556,6.722-14.611H266.6
			c1.506,6.055,3.722,10.737,6.722,14.748c-0.087,0.065-0.174,0.08-0.261,0.147c-2.188,1.662-6.169,7.308-8.861,15.381h71.602
			C333.104,336.841,329.127,331.412,326.943,329.75z"/>
		<path fill="#231F20" d="M299.998,263.338c-7.734,0-31.403,2.858-35.429,23.042h70.85
			C331.401,266.197,307.736,263.338,299.998,263.338z"/>
	</g>
	<path fill="#231F20" d="M299.998,216.957c-20.851,0-35.661,18.716-35.661,35.559c0,16.837,10.916,25.165,35.661,25.165
		s35.665-8.328,35.665-25.165C335.663,235.672,320.832,216.957,299.998,216.957z"/>
	<g>
		<g>
			<path fill="#D36149" d="M277.409,229.798c4.14,0.29,1.337,12.04-0.193,17.306c-1.655,5.813-4.261,12.84-9.509,5.905
				C256.984,238.824,272.371,229.449,277.409,229.798z"/>
			<path fill="#D36149" d="M277.125,229.789c0.099,0,0.193,0.004,0.284,0.01c4.14,0.29,1.337,12.04-0.193,17.306
				c-1.167,4.092-2.803,8.787-5.499,8.787c-1.136,0-2.456-0.83-4.01-2.882C257.178,239.08,271.823,229.79,277.125,229.789
				 M277.125,224.097L277.125,224.097c-5.4,0.001-13.431,4.424-16.986,11.571c-1.881,3.775-3.985,11.495,3.027,20.773
				c2.582,3.414,5.46,5.143,8.551,5.143c7.293,0,9.78-8.727,10.975-12.92c4.597-15.85,1.825-19.817,0.785-21.312
				c-1.341-1.922-3.355-3.07-5.673-3.232C277.583,224.105,277.358,224.097,277.125,224.097L277.125,224.097z"/>
		</g>
		<g>
			<path fill="#D36149" d="M322.587,229.798c-4.14,0.29-1.337,12.04,0.189,17.306c1.655,5.813,4.265,12.84,9.508,5.905
				C343.012,238.824,327.621,229.449,322.587,229.798z"/>
			<path fill="#D36149" d="M322.866,229.789c5.303,0,19.948,9.292,9.418,23.221c-1.553,2.052-2.873,2.882-4.005,2.882
				c-2.7,0-4.336-4.695-5.503-8.787c-1.526-5.267-4.329-17.017-0.189-17.306C322.678,229.792,322.769,229.789,322.866,229.789
				 M322.866,224.097c-0.232,0-0.457,0.008-0.674,0.022c-2.317,0.163-4.332,1.31-5.673,3.23c-1.045,1.493-3.812,5.459,0.789,21.338
				c1.187,4.17,3.678,12.896,10.971,12.896c3.091,0,5.965-1.729,8.547-5.14c7.013-9.28,4.908-17.001,3.031-20.776
				C336.302,228.52,328.268,224.097,322.866,224.097L322.866,224.097z"/>
		</g>
	</g>
</g>
</svg>
