<?xml version="1.0" encoding="utf-8"?>
<!-- Generator: Adobe Illustrator 16.0.0, SVG Export Plug-In . SVG Version: 6.00 Build 0)  -->
<!DOCTYPE svg PUBLIC "-//W3C//DTD SVG 1.1//EN" "http://www.w3.org/Graphics/SVG/1.1/DTD/svg11.dtd">
<svg version="1.1" id="Layer_1" xmlns="http://www.w3.org/2000/svg" xmlns:xlink="http://www.w3.org/1999/xlink" x="0px" y="0px"
	 width="600px" height="600px" viewBox="0 0 600 600" enable-background="new 0 0 600 600" xml:space="preserve">
<g>
	<path fill="#D36149" d="M429.353,289.507c9.88,0,53.675-11.025,53.675-11.025s-290.833-4.322-318.378-4.322
		c-27.563,0-64.649,15.347-64.649,15.347C126.052,289.507,410.75,289.507,429.353,289.507z"/>
	<path fill="#FFFFFF" d="M409.023,230.607c2.464-6.356,1.295-12.792-2.595-14.303c-3.898-1.504-9.098,2.457-11.559,8.808
		l-46.661,120.325c-2.464,6.349-1.292,12.782,2.599,14.286c3.89,1.517,9.095-2.45,11.559-8.802L409.023,230.607z"/>
	<path fill="#FFFFFF" d="M318.597,230.607c2.468-6.356,1.299-12.792-2.591-14.303c-3.886-1.504-9.095,2.457-11.559,8.808
		l-46.661,120.325c-2.464,6.349-1.292,12.782,2.599,14.286c3.897,1.517,9.098-2.45,11.555-8.802L318.597,230.607z"/>
	<path fill="#FFFFFF" d="M185.344,376.817c-0.409,8.545,12.282,11.421,12.438-2.314c0.212-18.571-9.162-27.386-17.579-33.918
		c0,0,43.974-113.407,47.13-121.537c3.165-8.129-7.621-21.294-14.15-5.484c-6.548,15.807-46.434,119.739-46.434,119.739
		c-6.697-2.343-12.78-2.889-16.373-2.567c-12.457,1.091-21.845,10.755-21.845,22.474c0,12.412,10.1,22.508,22.512,22.508
		c9.333,0,16.406-4.615,20.52-13.305l2.826-6.814C180.069,359.099,185.761,367.741,185.344,376.817z M161.292,347.35
		c0,0-2.055,5.741-3.004,8.406c-0.96,2.654-4.289,4.776-7.244,4.776c-4.05,0-7.33-3.28-7.33-7.321c0-4.32,4.125-7.012,7.993-7.354
		C151.802,345.853,155.964,345.652,161.292,347.35z"/>
	<path fill="#D36149" d="M466.052,346.974c0-9.553,7.862-15.777,14.053-31.072c0.99-2.433,1.917-5.812,2.915-5.812
		c1.005,0,1.917,3.386,2.975,5.86C492.629,331.409,500,338.21,500,346.974c0,9.367-7.632,16.976-17.009,16.976
		C473.646,363.95,466.052,356.34,466.052,346.974z"/>
	<path fill="#231F20" d="M417.857,230.607c2.464-6.356,1.295-12.792-2.606-14.303c-3.883-1.504-9.087,2.457-11.555,8.808
		l-46.646,120.325c-2.464,6.349-1.292,12.782,2.595,14.286c3.886,1.517,9.087-2.45,11.555-8.802L417.857,230.607z"/>
	<path fill="#231F20" d="M327.442,230.607c2.457-6.356,1.292-12.792-2.599-14.303c-3.89-1.504-9.098,2.457-11.57,8.808
		l-46.65,120.325c-2.461,6.349-1.292,12.782,2.595,14.286c3.898,1.517,9.106-2.45,11.567-8.802L327.442,230.607z"/>
	<path fill="#231F20" d="M194.179,386.653c-0.395,8.542,12.281,11.423,12.445-2.323c0.212-18.562-9.162-27.368-17.586-33.905
		c0,0,43.988-113.411,47.142-121.534c3.146-8.134-7.628-21.298-14.154-5.495c-6.548,15.811-46.441,119.747-46.441,119.747
		c-6.697-2.349-12.777-2.893-16.369-2.571c-12.46,1.091-21.834,10.75-21.834,22.477c0,12.41,10.081,22.51,22.497,22.51
		c9.337,0,16.414-4.611,20.523-13.307l2.822-6.816C188.899,368.929,194.599,377.579,194.179,386.653z M170.137,357.191
		c0,0-2.066,5.739-3.015,8.395c-0.953,2.66-4.278,4.787-7.245,4.787c-4.036,0-7.319-3.285-7.319-7.324
		c0-4.318,4.11-7.01,7.985-7.353C160.64,355.685,164.806,355.497,170.137,357.191z"/>
	<g>
		<polygon fill="#FFFFFF" points="396.66,232.892 411.264,220.511 400.479,223.05 		"/>
		<polygon fill="#FFFFFF" points="393.343,241.465 407.947,229.083 397.159,231.629 		"/>
		<polygon fill="#FFFFFF" points="390.019,250.044 404.619,237.666 393.831,240.199 		"/>
		<polygon fill="#FFFFFF" points="386.698,258.631 401.302,246.239 390.517,248.774 		"/>
		<polygon fill="#FFFFFF" points="383.384,267.202 397.974,254.811 387.193,257.359 		"/>
		<polygon fill="#FFFFFF" points="380.056,275.769 394.646,263.396 383.861,265.931 		"/>
		<polygon fill="#FFFFFF" points="376.728,284.353 391.325,271.966 380.548,274.508 		"/>
		<polygon fill="#FFFFFF" points="373.415,292.93 388.019,280.552 377.216,283.091 		"/>
		<polygon fill="#FFFFFF" points="370.086,301.506 384.684,289.127 373.902,291.667 		"/>
		<polygon fill="#FFFFFF" points="366.773,310.09 381.363,297.703 370.571,300.242 		"/>
		<polygon fill="#FFFFFF" points="363.445,318.658 378.035,306.276 367.265,308.819 		"/>
		<polygon fill="#FFFFFF" points="360.117,327.243 374.718,314.852 363.937,317.395 		"/>
		<polygon fill="#FFFFFF" points="356.8,335.816 371.397,323.431 360.604,325.964 		"/>
		<polygon fill="#FFFFFF" points="353.472,344.392 368.073,332.006 357.292,334.547 		"/>
		<polygon fill="#FFFFFF" points="350.159,352.969 364.748,340.585 353.956,343.128 		"/>
		<polygon fill="#FFFFFF" points="346.827,361.548 361.431,349.159 350.643,351.705 		"/>
	</g>
	<g>
		<polygon fill="#FFFFFF" points="305.393,232.892 319.982,220.511 309.193,223.05 		"/>
		<polygon fill="#FFFFFF" points="302.061,241.465 316.661,229.083 305.88,231.629 		"/>
		<polygon fill="#FFFFFF" points="298.744,250.044 313.34,237.666 302.56,240.199 		"/>
		<polygon fill="#FFFFFF" points="295.419,258.631 310.02,246.239 299.239,248.774 		"/>
		<polygon fill="#FFFFFF" points="292.095,267.202 306.691,254.811 295.907,257.359 		"/>
		<polygon fill="#FFFFFF" points="288.778,275.769 303.375,263.396 292.583,265.931 		"/>
		<polygon fill="#FFFFFF" points="285.45,284.353 300.05,271.966 289.262,274.508 		"/>
		<polygon fill="#FFFFFF" points="282.122,292.93 296.729,280.552 285.945,283.091 		"/>
		<polygon fill="#FFFFFF" points="278.808,301.506 293.405,289.127 282.624,291.667 		"/>
		<polygon fill="#FFFFFF" points="275.484,310.09 290.081,297.703 279.292,300.242 		"/>
		<polygon fill="#FFFFFF" points="272.156,318.658 286.756,306.276 275.982,308.819 		"/>
		<polygon fill="#FFFFFF" points="268.846,327.243 283.439,314.852 272.654,317.395 		"/>
		<polygon fill="#FFFFFF" points="265.518,335.816 280.126,323.431 269.333,325.964 		"/>
		<polygon fill="#FFFFFF" points="262.201,344.392 276.798,332.006 266.013,334.547 		"/>
		<polygon fill="#FFFFFF" points="258.869,352.969 273.47,340.585 262.681,343.128 		"/>
		<polygon fill="#FFFFFF" points="255.548,361.548 270.146,349.159 259.368,351.705 		"/>
	</g>
	<g>
		<polygon fill="#FFFFFF" points="214.11,232.892 228.704,220.511 217.926,223.05 		"/>
		<polygon fill="#FFFFFF" points="210.79,241.465 225.39,229.083 214.602,231.629 		"/>
		<polygon fill="#FFFFFF" points="207.469,250.044 222.066,237.666 211.285,240.199 		"/>
		<polygon fill="#FFFFFF" points="204.137,258.631 218.741,246.239 207.96,248.774 		"/>
		<polygon fill="#FFFFFF" points="200.824,267.202 215.413,254.811 204.632,257.359 		"/>
		<polygon fill="#FFFFFF" points="197.503,275.769 212.089,263.396 201.304,265.931 		"/>
		<polygon fill="#FFFFFF" points="194.179,284.353 208.764,271.966 197.991,274.508 		"/>
		<polygon fill="#FFFFFF" points="190.858,292.93 205.455,280.552 194.659,283.091 		"/>
		<polygon fill="#FFFFFF" points="187.533,301.506 202.13,289.127 191.346,291.667 		"/>
		<polygon fill="#FFFFFF" points="184.205,310.09 198.802,297.703 188.014,300.242 		"/>
		<polygon fill="#FFFFFF" points="180.888,318.658 195.493,306.276 184.704,308.819 		"/>
		<polygon fill="#FFFFFF" points="177.564,327.243 192.161,314.852 181.376,317.395 		"/>
		<polygon fill="#FFFFFF" points="174.236,335.816 188.84,323.431 178.051,325.964 		"/>
		<polygon fill="#FFFFFF" points="175.174,340.785 185.52,332.006 174.734,334.547 172.635,339.971 		"/>
		<polygon fill="#FFFFFF" points="186.982,373.588 184.834,360.184 181.428,370.732 184.979,375.324 		"/>
		<polygon fill="#FFFFFF" points="190.184,377.545 189.287,363.962 184.913,374.161 188.025,379.092 		"/>
		<polygon fill="#FFFFFF" points="192.875,383.458 193.464,369.902 188.002,379.542 190.553,384.762 		"/>
		<polygon fill="#FFFFFF" points="192.793,390.859 197.548,378.148 189.376,385.633 190.184,391.383 		"/>
		<polygon fill="#FFFFFF" points="160.294,369.835 173.327,366.012 162.427,363.962 158.317,368.056 		"/>
		<polygon fill="#FFFFFF" points="134.19,369.467 144.543,360.688 133.762,363.229 131.658,368.653 		"/>
		<polygon fill="#FFFFFF" points="137.417,377.81 145.258,366.729 135.437,371.874 134.759,377.638 		"/>
		<polygon fill="#FFFFFF" points="143.113,384.24 146.457,371.081 139.137,379.408 140.582,385.039 		"/>
		<polygon fill="#FFFFFF" points="152.476,388.466 149.04,375.324 146.668,386.156 150.648,390.393 		"/>
		<polygon fill="#FFFFFF" points="161.172,388.292 153.25,377.277 154.922,388.231 160.16,390.759 		"/>
		<polygon fill="#FFFFFF" points="170.047,388.043 159.579,379.392 163.976,389.573 169.675,390.679 		"/>
		<polygon fill="#FFFFFF" points="178.71,383.643 165.826,379.392 173.622,387.276 179.339,386.238 		"/>
		<polygon fill="#FFFFFF" points="133.892,360.599 145.875,354.2 134.789,354.408 131.595,359.257 		"/>
		<polygon fill="#FFFFFF" points="136.081,351.53 149.568,349.967 139.182,346.095 134.428,349.453 		"/>
		<polygon fill="#FFFFFF" points="142.625,343.819 155.547,348.009 147.707,340.176 141.997,341.228 		"/>
		<polygon fill="#FFFFFF" points="149.654,339.316 161.411,346.095 155.373,336.807 149.568,336.658 		"/>
		<polygon fill="#FFFFFF" points="158.198,337.59 168.242,346.728 164.33,336.358 158.686,334.981 		"/>
		<polygon fill="#FFFFFF" points="161.15,369.915 174.82,358.324 173.744,358.008 164.962,360.067 		"/>
		<path fill="#FFFFFF" d="M178.215,344.088l3.983-3.503l-8.253,2.021C173.945,342.607,177.18,343.452,178.215,344.088z"/>
	</g>
</g>
</svg>
