<?xml version="1.0" encoding="utf-8"?>
<!-- Generator: Adobe Illustrator 16.0.0, SVG Export Plug-In . SVG Version: 6.00 Build 0)  -->
<!DOCTYPE svg PUBLIC "-//W3C//DTD SVG 1.1//EN" "http://www.w3.org/Graphics/SVG/1.1/DTD/svg11.dtd">
<svg version="1.1" id="Layer_1" xmlns="http://www.w3.org/2000/svg" xmlns:xlink="http://www.w3.org/1999/xlink" x="0px" y="0px"
	 width="600px" height="600px" viewBox="0 0 600 600" enable-background="new 0 0 600 600" xml:space="preserve">
<g>
	<path fill="#D36149" d="M158.719,441.562c26.466,26.465,69.235,26.329,95.696-0.132l71.725-71.726l-183.026,0.067
		C134.08,393.88,139.325,422.168,158.719,441.562z"/>
	<path fill="#D36149" d="M441.554,158.712c-26.464-26.463-69.505-26.605-95.97-0.14l-71.152,71.151l182.804,0.071
		C465.97,205.81,460.793,177.952,441.554,158.712z"/>
	<path fill="#89D4E3" d="M326.141,369.704l7.707-7.707l107.581-107.581c4.962-4.961,9.132-10.366,12.224-16.262
		c1.417-2.692,2.562-5.539,3.588-8.358l-182.808-0.074l-8.286,8.287L158.571,345.584c-4.964,4.964-8.857,10.642-11.951,16.539
		c-1.319,2.51-2.528,5.019-3.511,7.644L326.141,369.704z"/>
	<path fill="#FFFFFF" d="M218.604,327.516c2.035-2.035,2.04-5.333,0.008-7.364c-2.031-2.031-5.328-2.026-7.362,0.008
		c-2.032,2.032-2.034,5.325-0.002,7.356C213.279,329.548,216.573,329.548,218.604,327.516z"/>
	<path fill="#FFFFFF" d="M218.602,357.312c2.037-2.036,2.039-5.324,0.005-7.358c-2.032-2.031-5.321-2.03-7.357,0.006
		c-2.029,2.028-2.03,5.317,0.002,7.35C213.287,359.344,216.573,359.341,218.602,357.312z"/>
	<path fill="#FFFFFF" d="M248.55,357.31c2.026-2.026,2.031-5.325-0.002-7.358c-2.03-2.03-5.33-2.026-7.356,0
		c-2.034,2.034-2.031,5.328,0,7.358C243.223,359.342,246.517,359.344,248.55,357.31z"/>
	<path fill="#FFFFFF" d="M248.545,387.022c2.031-2.031,2.033-5.325-0.001-7.359c-2.029-2.03-5.325-2.029-7.356,0.001
		c-2.029,2.029-2.028,5.324,0.001,7.354C243.224,389.053,246.517,389.051,248.545,387.022z"/>
	<path fill="#FFFFFF" d="M278.541,387.022c2.037-2.037,2.038-5.332,0.008-7.36c-2.03-2.031-5.326-2.031-7.362,0.005
		c-2.024,2.024-2.027,5.323,0.003,7.354C273.219,389.05,276.518,389.047,278.541,387.022z"/>
	<path fill="#FFFFFF" d="M188.604,357.516c2.031-2.03,2.029-5.323-0.002-7.354c-2.032-2.032-5.322-2.032-7.349-0.005
		c-2.035,2.035-2.036,5.327-0.004,7.358C183.281,359.546,186.574,359.546,188.604,357.516z"/>
	<path fill="#FFFFFF" d="M188.605,387.31c2.032-2.031,2.036-5.321,0.002-7.355c-2.032-2.031-5.324-2.028-7.354,0.003
		c-2.032,2.032-2.034,5.322-0.001,7.353C183.285,389.345,186.572,389.342,188.605,387.31z"/>
	<circle fill="#FFFFFF" cx="214.87" cy="383.632" r="5.203"/>
	<path fill="#FFFFFF" d="M218.543,417.024c2.032-2.032,2.034-5.325,0-7.359c-2.029-2.03-5.325-2.03-7.357,0.002
		c-2.028,2.028-2.03,5.324,0,7.354C213.22,419.056,216.515,419.053,218.543,417.024z"/>
	<path fill="#FFFFFF" d="M248.542,417.023c2.037-2.037,2.03-5.326,0.001-7.354c-2.031-2.031-5.319-2.038-7.357,0
		c-2.029,2.029-2.026,5.321,0.006,7.353C243.219,419.049,246.513,419.053,248.542,417.023z"/>
	<path fill="#FFFFFF" d="M188.328,417.532c2.034-2.034,2.032-5.326,0-7.359c-2.031-2.03-5.325-2.033-7.359,0.001
		c-2.026,2.026-2.028,5.326,0.002,7.356C183.003,419.562,186.302,419.559,188.328,417.532z"/>
	<path fill="#FFFFFF" d="M378.831,272.023c-2.034,2.034-2.031,5.326,0,7.357c2.028,2.029,5.32,2.032,7.355-0.002
		c2.03-2.03,2.032-5.328,0.003-7.357C384.158,269.991,380.86,269.993,378.831,272.023z"/>
	<path fill="#FFFFFF" d="M378.833,242.222c-2.036,2.037-2.03,5.325,0.003,7.359c2.031,2.031,5.317,2.034,7.354-0.002
		c2.026-2.026,2.03-5.32,0-7.351C384.156,240.195,380.859,240.195,378.833,242.222z"/>
	<path fill="#FFFFFF" d="M348.891,242.226c-2.031,2.031-2.033,5.327,0.003,7.363c2.028,2.029,5.322,2.024,7.352-0.007
		c2.032-2.029,2.036-5.324,0.007-7.353C354.217,240.193,350.921,240.195,348.891,242.226z"/>
	<path fill="#FFFFFF" d="M348.89,212.519c-2.029,2.029-2.031,5.325,0,7.355c2.032,2.032,5.327,2.029,7.355,0.001
		c2.036-2.037,2.03-5.323-0.001-7.355C354.214,210.489,350.927,210.483,348.89,212.519z"/>
	<path fill="#FFFFFF" d="M318.896,212.514c-2.034,2.034-2.036,5.328-0.005,7.359s5.326,2.031,7.36-0.004
		c2.03-2.029,2.03-5.323-0.001-7.355C324.219,210.482,320.925,210.485,318.896,212.514z"/>
	<path fill="#FFFFFF" d="M408.832,242.022c-2.027,2.027-2.027,5.323,0.003,7.354c2.029,2.028,5.324,2.029,7.352,0
		c2.034-2.032,2.033-5.327,0.004-7.355C414.159,239.99,410.866,239.988,408.832,242.022z"/>
	<path fill="#FFFFFF" d="M408.83,212.225c-2.03,2.029-2.03,5.325,0.003,7.358c2.032,2.031,5.323,2.027,7.353-0.002
		c2.031-2.031,2.035-5.323,0.003-7.354C414.157,210.194,410.86,210.194,408.83,212.225z"/>
	<path fill="#FFFFFF" d="M378.894,212.223c-2.03,2.03-2.038,5.331-0.001,7.368c2.029,2.028,5.328,2.018,7.358-0.012
		c2.033-2.032,2.033-5.321,0.003-7.35C384.218,210.192,380.927,210.189,378.894,212.223z"/>
	<path fill="#FFFFFF" d="M378.896,182.514c-2.031,2.03-2.036,5.329-0.006,7.36c2.032,2.031,5.331,2.026,7.361-0.005
		c2.023-2.024,2.026-5.319-0.005-7.352C384.216,180.487,380.92,180.49,378.896,182.514z"/>
	<circle fill="#FFFFFF" cx="352.57" cy="186.195" r="5.201"/>
	<path fill="#FFFFFF" d="M409.108,182.009c-2.034,2.034-2.03,5.324,0.006,7.36c2.028,2.028,5.316,2.029,7.351-0.004
		c2.031-2.031,2.034-5.322,0.004-7.352C414.433,179.978,411.14,179.978,409.108,182.009z"/>
	<polygon fill="#B0B7BC" points="237.658,297.703 296.17,239.191 359.685,302.706 368.142,302.248 296.169,230.275 229.184,297.262 
			"/>
	<polygon opacity="0.63" fill="#FFFFFF" points="360.178,302.233 300.627,361.782 236.739,297.894 229.378,297.22 301.742,369.584 
		368.658,302.668 	"/>
</g>
</svg>
