<?xml version="1.0" encoding="utf-8"?>
<!-- Generator: Adobe Illustrator 16.0.0, SVG Export Plug-In . SVG Version: 6.00 Build 0)  -->
<!DOCTYPE svg PUBLIC "-//W3C//DTD SVG 1.1//EN" "http://www.w3.org/Graphics/SVG/1.1/DTD/svg11.dtd">
<svg version="1.1" id="Layer_1" xmlns="http://www.w3.org/2000/svg" xmlns:xlink="http://www.w3.org/1999/xlink" x="0px" y="0px"
	 width="600px" height="600px" viewBox="0 0 600 600" enable-background="new 0 0 600 600" xml:space="preserve">
<g>
	<path fill="#F05A28" d="M296.581,289.619c0.613,2.71-1.091,5.401-3.808,6.011l0,0c-2.71,0.613-5.396-1.087-6.011-3.804
		l-11.896-57.592c-0.617-2.709,1.091-5.4,3.807-6.01l0,0c2.71-0.61,5.398,1.09,6.011,3.799L296.581,289.619z"/>
	<path fill="#E7A614" d="M385.861,233.514c-8.87,18.712-15.846,18.59-37.926,18.59h-58.375c-22.02,0-22.862,0.188-31.764-18.446
		c-70.691-0.144-197.733,4.107-205.219,20.701c-3.485,7.714-3.389,76.636,0,84.831c3.386,8.195,147.535,11.267,247.91,11.267
		c98.622,0,237.322-5.116,244.842-11.267c7.529-6.144,4.775-75.823,0-83.5C540.564,248.012,452.477,236.704,385.861,233.514z"/>
	<g>
		<path fill="#FFD76F" d="M468.561,367.222c-24.42,0-44.287-19.867-44.287-44.286c0-24.426,19.867-44.297,44.287-44.297
			c24.424,0,44.294,19.872,44.294,44.297C512.854,347.355,492.984,367.222,468.561,367.222z"/>
		<path fill="#333333" d="M468.561,283.316c21.845,0,39.616,17.773,39.616,39.62c0,21.84-17.771,39.608-39.616,39.608
			c-21.841,0-39.609-17.768-39.609-39.608C428.951,301.09,446.72,283.316,468.561,283.316 M468.561,273.961
			c-27.045,0-48.965,21.924-48.965,48.975c0,27.036,21.92,48.963,48.965,48.963c27.047,0,48.972-21.927,48.972-48.963
			C517.532,295.885,495.607,273.961,468.561,273.961L468.561,273.961z"/>
	</g>
	<path fill="#F05A28" d="M480.987,322.929c0,6.864-5.562,12.428-12.427,12.428c-6.865,0-12.424-5.563-12.424-12.428
		c0-6.857,5.559-12.42,12.424-12.42C475.425,310.508,480.987,316.072,480.987,322.929z"/>
	<g>
		<path fill="#FFD76F" d="M136.566,367.222c-24.422,0-44.29-19.867-44.29-44.286c0-24.426,19.868-44.297,44.29-44.297
			s44.29,19.872,44.29,44.297C180.856,347.355,160.988,367.222,136.566,367.222z"/>
		<path fill="#333333" d="M136.566,283.316c21.842,0,39.612,17.773,39.612,39.62c0,21.84-17.771,39.608-39.612,39.608
			s-39.612-17.768-39.612-39.608C96.954,301.09,114.725,283.316,136.566,283.316 M136.566,273.961
			c-27.048,0-48.968,21.924-48.968,48.975c0,27.036,21.92,48.963,48.968,48.963c27.044,0,48.968-21.927,48.968-48.963
			C185.534,295.885,163.61,273.961,136.566,273.961L136.566,273.961z"/>
	</g>
	<path fill="#F05A28" d="M148.994,322.929c0,6.864-5.562,12.428-12.428,12.428c-6.864,0-12.427-5.563-12.427-12.428
		c0-6.857,5.562-12.42,12.427-12.42C143.432,310.508,148.994,316.072,148.994,322.929z"/>
	<g>
		<g>
			<path fill="#333333" d="M218.784,283.176h12.194c11.293,0,17.84,6.504,17.84,15.627v0.09c0,9.123-6.64,15.898-18.021,15.898
				h-12.014V283.176z M231.115,307.023c5.238,0,8.716-2.891,8.716-7.996v-0.09c0-5.059-3.478-7.994-8.716-7.994h-3.57v16.08H231.115
				z"/>
			<path fill="#333333" d="M256.045,283.176h25.429v7.452h-16.757v4.787h15.178v6.911h-15.178v5.014h16.984v7.452h-25.656V283.176z"
				/>
			<path fill="#333333" d="M290.238,283.176h14.952c4.83,0,8.173,1.264,10.298,3.432c1.852,1.805,2.798,4.246,2.798,7.361v0.091
				c0,4.833-2.572,8.04-6.502,9.711l7.541,11.021h-10.117l-6.369-9.575h-3.838v9.575h-8.763V283.176z M304.782,298.352
				c2.98,0,4.695-1.445,4.695-3.75v-0.089c0-2.483-1.805-3.75-4.739-3.75h-5.737v7.589H304.782z"/>
			<path fill="#333333" d="M326.777,283.176h16.217c3.974,0,6.775,0.992,8.627,2.844c1.265,1.266,2.03,2.937,2.03,5.105v0.09
				c0,3.658-2.078,5.826-4.876,7.046c3.837,1.264,6.275,3.432,6.275,7.723v0.091c0,5.418-4.424,8.716-11.969,8.716h-16.305V283.176z
				 M340.824,295.777c2.664,0,4.155-0.904,4.155-2.755v-0.091c0-1.715-1.354-2.709-3.975-2.709h-5.688v5.556H340.824z
				 M342.089,307.746c2.664,0,4.202-1.039,4.202-2.891v-0.09c0-1.717-1.357-2.847-4.292-2.847h-6.683v5.828H342.089z"/>
			<path fill="#333333" d="M370.905,302.957l-12.013-19.781h9.98l6.505,11.516l6.547-11.516h9.804l-12.015,19.646v11.969h-8.809
				V302.957z"/>
		</g>
	</g>
</g>
</svg>
