<?xml version="1.0" encoding="utf-8"?>
<!-- Generator: Adobe Illustrator 16.0.0, SVG Export Plug-In . SVG Version: 6.00 Build 0)  -->
<!DOCTYPE svg PUBLIC "-//W3C//DTD SVG 1.1//EN" "http://www.w3.org/Graphics/SVG/1.1/DTD/svg11.dtd">
<svg version="1.1" id="Layer_1" xmlns="http://www.w3.org/2000/svg" xmlns:xlink="http://www.w3.org/1999/xlink" x="0px" y="0px"
	 width="600px" height="600px" viewBox="0 0 600 600" enable-background="new 0 0 600 600" xml:space="preserve">
<g>
	<path fill="#BF7F31" d="M463.662,259.884c-5.452-1-11.438-1.509-17.784-1.509c-23.162,0-44.354,6.567-46.553,7.269l-63.404,15.23
		l-90.755,63.449l3.204,22.749l3.266,0.268c5.233,0.399,10.84,0.609,16.651,0.609c41.892,0,97.021-10.64,147.469-28.46
		c24.604-8.693,82.042-31.444,84.18-54.893C500.997,272.788,488.796,264.479,463.662,259.884z"/>
	<path fill="#BF7F31" d="M373.428,268.349c-0.103-0.521-11.111-51.097-65.546-51.375l-0.362-0.004
		c-58.288,0-73.737,69.739-77.079,91.122l-0.996,6.353l144.736-42.424L373.428,268.349z"/>
	<path fill="#FFD76F" d="M425.284,256.232c-79.472-3.06-317.572,92.051-319.523,92.981L100,351.959l4.904,4.072
		c1.326,1.106,33.09,26.999,82.268,26.999h0.005c35.898,0,71.415-13.829,105.559-41.091
		c88.052-70.289,127.689-71.701,155.424-74.157c27.728-2.441,44.265,2.314,44.265,2.314S481.186,258.375,425.284,256.232z"/>
	<polygon fill="#FFD76F" points="234.265,322.783 228.891,309.967 240.432,274.737 266.992,275.682 266.992,296.923 
		257.097,320.169 	"/>
	<g>
		<path fill="#F05A28" d="M251.531,275.198c-0.191-5.838,0.417-13.155,1.019-20.297c1.283-15.275,1.864-24.708-2.066-26.148
			c-0.379-0.139-0.787-0.208-1.215-0.208c-7.897,0-22.15,24.146-30.815,46.515c-7.842,20.23-17.431,53.085-13.121,59.388
			c0.552,0.795,1.322,1.217,2.225,1.217c0.203,0,0.424-0.023,0.656-0.068c5.232-1.061,19.556-15.198,29.493-25.558
			C238.044,302.908,241.938,283.3,251.531,275.198z"/>
		<path fill="#F05A28" d="M293.016,252.767c-0.459-0.811-1.102-1.021-1.563-1.067c-0.019,0-0.19-0.009-0.205-0.009
			c-3.986,0-20.672,14.353-31.224,23.643c0.366,0.079,3.714,0.348,2.237,3.88c-1.465,3.538-8.391,3.19-11.254,17.487
			c-2.867,14.301,0.49,14.497-3.76,16.227c-0.713,0.282-1.434,0.436-2.143,0.483c-0.569,5.017-1.401,15.74-2.19,20.837
			c-2.56,16.58-3.84,26.03-0.349,27.359c0.336,0.125,0.688,0.194,1.058,0.194c7.245,0,21.74-26.862,29.739-42.867
			C282.715,300.217,296.464,258.904,293.016,252.767z"/>
	</g>
</g>
</svg>
