<?xml version="1.0" encoding="utf-8"?>
<!-- Generator: Adobe Illustrator 16.0.0, SVG Export Plug-In . SVG Version: 6.00 Build 0)  -->
<!DOCTYPE svg PUBLIC "-//W3C//DTD SVG 1.1//EN" "http://www.w3.org/Graphics/SVG/1.1/DTD/svg11.dtd">
<svg version="1.1" id="Layer_1" xmlns="http://www.w3.org/2000/svg" xmlns:xlink="http://www.w3.org/1999/xlink" x="0px" y="0px"
	 width="600px" height="600px" viewBox="0 0 600 600" enable-background="new 0 0 600 600" xml:space="preserve">
<g>
	<path fill="#333333" d="M144.273,318.504c42.353,33.871,96.083,54.135,154.537,54.135c58.992,0,113.164-20.625,155.701-55.069
		L144.273,318.504z"/>
	<path fill="#333333" d="M270.44,129.561c0-16.331,13.231-29.561,29.551-29.561c16.316,0,29.545,13.23,29.545,29.561H270.44z"/>
	<path fill="#F05A28" d="M457.243,322.552c1.306-7.947,1.98-16.207,1.98-24.813c0-116.142-71.293-180.756-159.229-180.756
		c-87.948,0-159.242,59.235-159.242,180.756c0,6.939,0.447,18.314,1.306,24.813H457.243z"/>
	<path fill="#E7A614" d="M300.492,116.992v-0.01c-3.435-0.057-6.848-0.11-10.244,0.248c-61.542,6.632-115.174,81.061-115.174,181.04
		c0,6.761,0.415,17.707,1.231,24.282h124.187V120.856c69.408,16.249,120.16,78.138,120.16,176.882
		c0,8.606-0.672,16.867-1.996,24.813h38.587c1.306-7.947,1.98-16.207,1.98-24.813C459.224,181.82,388.205,117.23,300.492,116.992z"
		/>
	<g>
		<g>
			<path fill="#333333" d="M150.148,484.148h-25.015v-64.14h25.015c20.159,0,34.086,13.836,34.086,31.887v0.183
				C184.234,470.129,170.307,484.148,150.148,484.148z M169.482,452.078c0-11.362-7.789-19.333-19.334-19.333h-10.904v38.667h10.904
				c11.545,0,19.334-7.789,19.334-19.15V452.078z"/>
			<path fill="#333333" d="M202.282,484.148v-64.14h48.38v12.553h-34.361v13.011h30.237v12.553h-30.237v13.469h34.819v12.553
				H202.282z"/>
			<path fill="#333333" d="M310.86,484.148l-13.744-20.525h-11.087v20.525h-14.111v-64.14h29.321c15.119,0,24.19,7.972,24.19,21.166
				v0.184c0,10.354-5.589,16.859-13.744,19.883l15.668,22.907H310.86z M311.135,441.907c0-6.047-4.215-9.163-11.087-9.163h-14.02
				v18.417h14.294c6.872,0,10.812-3.666,10.812-9.071V441.907z"/>
			<path fill="#333333" d="M376.922,484.148h-30.513v-64.14h29.779c13.103,0,21.167,6.505,21.167,16.584v0.184
				c0,7.239-3.849,11.27-8.43,13.836c7.422,2.84,12.003,7.147,12.003,15.76v0.183C400.929,478.284,391.399,484.148,376.922,484.148z
				 M383.336,438.975c0-4.215-3.299-6.597-9.255-6.597h-13.927v13.561h13.011c6.23,0,10.171-2.016,10.171-6.78V438.975z
				 M386.909,464.631c0-4.307-3.207-6.964-10.446-6.964h-16.31v14.111h16.768c6.23,0,9.987-2.199,9.987-6.963V464.631z"/>
			<path fill="#333333" d="M450.218,458.584v25.564h-14.111v-25.29l-24.648-38.851h16.493l15.302,25.748l15.577-25.748h16.035
				L450.218,458.584z"/>
		</g>
	</g>
	<g>
		<polygon fill="#333333" points="137.108,267.683 176.589,267.683 176.589,231.799 139.802,231.799 		"/>
		<polygon fill="#333333" points="462.871,267.683 423.408,267.683 423.408,231.799 460.183,231.799 		"/>
	</g>
	<g id="XMLID_52_">
		<path fill="#FFD76F" stroke="#333333" stroke-width="8.877" stroke-miterlimit="10" d="M299.494,187.461
			c-52.739,0.481-96.119,10.124-110.008,16.57c-13.853,6.476-33.959,24.793-26.054,58.905c7.89,34.098,49.707,39.228,65.31,39.098
			c15.612-0.136,44.283-5.034,48.715-28.267c1.392-7.319,3.689-12.768,6.439-16.775c4.826-7.036,11.02-9.536,16.124-9.591
			c8.018-0.059,18.815,5.925,22.996,25.963c4.858,23.159,33.589,27.567,49.195,27.435c15.6-0.136,57.349-5.984,64.641-40.218
			c7.295-34.248-13.122-52.219-27.087-58.455C395.793,195.931,352.262,187.031,299.494,187.461z"/>
	</g>
</g>
</svg>
