<?xml version="1.0" encoding="utf-8"?>
<!-- Generator: Adobe Illustrator 16.0.0, SVG Export Plug-In . SVG Version: 6.00 Build 0)  -->
<!DOCTYPE svg PUBLIC "-//W3C//DTD SVG 1.1//EN" "http://www.w3.org/Graphics/SVG/1.1/DTD/svg11.dtd">
<svg version="1.1" id="Layer_1" xmlns="http://www.w3.org/2000/svg" xmlns:xlink="http://www.w3.org/1999/xlink" x="0px" y="0px"
	 width="600px" height="600px" viewBox="0 0 600 600" enable-background="new 0 0 600 600" xml:space="preserve">
<g>
	<path fill="#333333" d="M399.792,235.296c0,0-11.362-23.856-21.581-26.132c0,0-7.96,17.046,0,26.132
		c0,0-108.207,46.845-149.985,88.628c-62.687,62.681-19.528,49.793,3.196,65.696c22.724,15.907,88.074,15.358,88.074,15.358
		s-2.649-0.375,9.852-18.558c12.5-18.18,17.04-44.312,26.132-48.859c9.093-4.548,18.18-9.09,22.731-7.954
		c4.536,1.138,10.219,14.768,21.581,14.768c11.364,0,19.9-1.133,19.9-1.133s28.966,5.682,36.919,12.497
		c7.944,6.819,11.355,9.095,14.763,9.095c3.417,0,20.454-4.543,20.454-18.183c0,0,13.636-11.36,5.68-19.311
		c-7.946-7.958-31.812-31.824-38.634-36.366c-6.81-4.547-23.859-24.994-29.541-31.814
		C423.649,252.342,413.431,237.572,399.792,235.296z"/>
	<path fill="#808080" d="M410.211,274.498c0,0,7.568,0,9.091,0c1.51,0,7.382,3.6,4.737,4.739c-2.659,1.138-4.173,3.028-6.821,1.891
		C414.565,279.994,410.211,274.498,410.211,274.498z"/>
	<path fill="#808080" d="M487.069,341.336c0,0-7.97-3.978-5.133-7.387c2.845-3.409,7.956-7.955,9.092-5.113
		C492.163,331.678,493.326,339.061,487.069,341.336z"/>
	<path fill="#333333" d="M369.286,239.925c0,0-26.129-48.482-67.792-44.695c0,0,32.141,14.058,33.893,33.332
		c0,0-36.163-18.936-87.675-14.394c0,0,49.238,9.854,53.782,20.454c0,0-39.351,9.09-49.595,12.118
		c-10.244,3.034-35.253,3.034-45.094-5.3c0,0,15.152,28.026,51.512,20.451c0,0-56.816,26.838-74.234,1.3
		c0,0,1.916,17.636,16.483,21.423c0,0-14.218,14.533-58.532-16.664c0,0-1.129,18.941,17.805,24.996c0,0-35.603,3.733-59.839-12.145
		c0,0,48.152,50.78,91.657,38.47c0,0-28.028,13.688-55.299,14.892c0,0,49.99,20.517,89.381,6.695
		C265.135,327.039,369.286,239.925,369.286,239.925z"/>
	<path fill="#E7A614" d="M457.91,287.359c-2.859-2.301-22.135-20.531-34.243-35.167c-12.106-14.635-20.432-16.038-20.432-16.038
		c-15.291,22.277-26.386-0.265-26.386-0.265s-7.559-3.073-9.08,6.017c-1.51,9.086,10.441,87.7,10.441,87.7
		c2.647,10.925,21.688,20.282,30.468,18.353c8.779-1.938,47.933,7.778,47.933,7.778s-0.211-7.778,8.121-21.097
		c8.331-13.321,21.895-18.122,21.895-18.122S466.466,294.243,457.91,287.359z M433.669,281.477
		c-2.267,8.909-7.928,13.968-16.459,14.088c-8.531,0.125-18.686-11.464-16.865-17.576c1.866-6.267,6.203-13.729,17.113-12.408
		C428.376,266.9,435.947,272.571,433.669,281.477z"/>
	<path fill="#FFD76F" d="M416.936,301.368c-7.068,0-14.406-5.609-18.561-11.165c-3.502-4.703-4.927-9.403-3.884-12.883
		c3.269-11.024,10.144-16.848,19.854-16.848c1.042,0,2.131,0.064,3.276,0.199c9.214,1.12,16.213,4.551,19.71,9.661
		c2.399,3.499,3.06,7.726,1.907,12.22c-3.053,11.97-10.901,18.651-22.103,18.815H416.936z M414.345,263.797
		c-8.206,0-13.818,4.865-16.67,14.468c-0.714,2.4,0.579,6.208,3.37,9.951c3.654,4.891,9.979,9.825,15.891,9.825h0.144
		c9.709-0.142,16.256-5.779,18.939-16.313c0.914-3.592,0.432-6.794-1.428-9.521c-2.906-4.247-9.237-7.243-17.373-8.231
		C416.216,263.857,415.262,263.797,414.345,263.797z"/>
	<path fill="#FFD76F" d="M384.046,338.846c-2.138-2.019-12.246-79.346-13.007-87.699c-1.188-13.102,0.354-14.491,1.61-15.477
		c0.748-0.589,2.452-0.463,2.98-0.28c0,0-0.949,1.499-0.886,1.41c-0.057,0.076-1.499,1.92-0.393,14.047
		c1.474,16.197,11.348,86.531,12.735,90.159l-1.1-0.829L384.046,338.846z"/>
	<path fill="#FFD76F" d="M453.191,354.93l-3.229-0.785c0.16-0.67,4.044-16.497,11.91-27.185
		c8.011-10.872,20.504-14.646,21.058-14.807l2.052,2.552c-0.125,0.04-13.104,4.274-20.429,14.225
		C457.079,339.09,453.225,354.769,453.191,354.93z"/>
</g>
</svg>
