<?xml version="1.0" encoding="utf-8"?>
<!-- Generator: Adobe Illustrator 16.0.0, SVG Export Plug-In . SVG Version: 6.00 Build 0)  -->
<!DOCTYPE svg PUBLIC "-//W3C//DTD SVG 1.1//EN" "http://www.w3.org/Graphics/SVG/1.1/DTD/svg11.dtd">
<svg version="1.1" id="Layer_1" xmlns="http://www.w3.org/2000/svg" xmlns:xlink="http://www.w3.org/1999/xlink" x="0px" y="0px"
	 width="600px" height="600px" viewBox="0 0 600 600" enable-background="new 0 0 600 600" xml:space="preserve">
<g>
	<path d="M299.999,496.149C189.72,496.149,100,408.158,100,300c0-108.156,89.72-196.149,199.999-196.149
		C410.28,103.851,500,191.844,500,300C500,408.158,410.28,496.149,299.999,496.149z M299.999,136.25
		c-92.416,0-167.599,73.457-167.599,163.75s75.184,163.75,167.599,163.75c92.417,0,167.602-73.457,167.602-163.75
		S392.416,136.25,299.999,136.25z"/>
	<path d="M468.247,370.685c-1.357,0-2.734-0.24-4.08-0.747c-5.979-2.253-9-8.928-6.746-14.908
		c3.476-9.222,5.238-18.927,5.238-28.846c0-46.073-38.396-83.558-85.592-83.558c-26.832,0-51.604,11.955-67.967,32.797
		l-9.104,11.595l-9.101-11.595c-16.36-20.842-41.132-32.797-67.964-32.797c-47.195,0-85.592,37.484-85.592,83.558
		c0,9.066,1.478,17.98,4.394,26.5c2.068,6.047-1.156,12.624-7.203,14.694c-6.036,2.07-12.623-1.153-14.694-7.203
		c-3.741-10.935-5.639-22.371-5.639-33.991c0-58.833,48.778-106.7,108.734-106.7c29.335,0,56.751,11.313,77.066,31.432
		c20.317-20.119,47.734-31.432,77.069-31.432c59.956,0,108.734,47.866,108.734,106.7c0,12.717-2.264,25.168-6.726,37.009
		C477.329,367.828,472.924,370.685,468.247,370.685z"/>
	<path d="M299.999,120.05c-101.51,0-183.799,79.995-183.799,179.377c0,19.607,3.246,40.572,9.171,55.572h5.415
		c-3.252-9-5.016-18.967-5.016-29.538c0-52.536,43.506-94.769,97.163-94.769c31.4,0,59.306,14.784,77.066,37.409
		c17.763-22.625,45.671-37.134,77.069-37.134c53.657,0,97.163,42.071,97.163,94.612c0,11.574-2.115,23.42-5.982,32.42h5.58
		c6.432-18,9.972-37.752,9.972-58.224C483.8,200.387,401.511,120.05,299.999,120.05z"/>
	<g>
		<g>
			<path d="M428.763,329.525c0,27.408-22.227,49.638-49.643,49.638c-27.414,0-49.638-22.23-49.638-49.638
				c0-27.419,22.224-49.637,49.638-49.637C406.536,279.888,428.763,302.106,428.763,329.525z"/>
		</g>
		<g>
			<path d="M272.831,329.525c0,27.408-22.227,49.638-49.641,49.638s-49.637-22.23-49.637-49.638
				c0-27.419,22.224-49.637,49.637-49.637S272.831,302.106,272.831,329.525z"/>
		</g>
	</g>
	<g>
		<polygon points="157.771,172.39 112.6,128 221.366,128 		"/>
		<polygon points="442.329,172.39 487.499,128 378.732,128 		"/>
	</g>
</g>
</svg>
