<?xml version="1.0" encoding="utf-8"?>
<!-- Generator: Adobe Illustrator 16.0.0, SVG Export Plug-In . SVG Version: 6.00 Build 0)  -->
<!DOCTYPE svg PUBLIC "-//W3C//DTD SVG 1.1//EN" "http://www.w3.org/Graphics/SVG/1.1/DTD/svg11.dtd">
<svg version="1.1" id="Layer_1" xmlns="http://www.w3.org/2000/svg" xmlns:xlink="http://www.w3.org/1999/xlink" x="0px" y="0px"
	 width="600px" height="600px" viewBox="0 0 600 600" enable-background="new 0 0 600 600" xml:space="preserve">
<g>
	<path d="M390.548,205.566c-30.463,0-51.538,13.891-68.174,31.337l-22.419,22.048l-26.033-26.364
		c-16.738-16.669-39.224-27.022-64.388-27.022c-49.61,0-89.915,40.218-89.915,89.828c0,49.608,40.178,89.833,89.789,89.833
		c32.203,0,54.676-18.58,71.371-35.313l19.017-19.087l20.904,21.043c12.898,12.978,38.3,33.358,69.851,33.358
		c49.61,0,89.828-40.225,89.828-89.833C480.379,245.784,440.158,205.566,390.548,205.566z"/>
	<path fill="#FFFFFF" d="M424.233,295.394c0,18.38-14.896,33.284-33.281,33.284c-18.379,0-33.277-14.904-33.277-33.284
		c0-18.379,14.898-33.282,33.277-33.282C409.337,262.112,424.233,277.015,424.233,295.394z"/>
	<path fill="#FFFFFF" d="M242.327,295.394c0,18.38-14.901,33.284-33.28,33.284s-33.28-14.904-33.28-33.284
		c0-18.379,14.901-33.282,33.28-33.282S242.327,277.015,242.327,295.394z"/>
	<path d="M411.53,295.544c0-11.892-7.53-21.682-21.53-21.682v21.828L411.53,295.544z"/>
	<path d="M229.532,295.544c0-11.892-7.532-21.682-21.532-21.682v21.828L229.532,295.544z"/>
	<g>
		<path fill="#5DB65F" d="M100.366,339.464c-0.593-0.746-0.445-1.943,0.296-2.536l8.866-7.002c0.824-0.648,1.949-0.446,2.538,0.302
			l14.835,18.775l21.315-16.835l-14.833-18.781c-0.587-0.742-0.524-1.886,0.297-2.53l8.867-7.005c0.741-0.584,1.95-0.448,2.532,0.3
			l38.967,49.336c0.595,0.746,0.445,1.948-0.293,2.533l-8.868,7.01c-0.826,0.642-1.95,0.443-2.541-0.302l-15.48-19.607
			l-21.312,16.841l15.479,19.603c0.585,0.745,0.521,1.886-0.296,2.531l-8.873,7.006c-0.741,0.592-1.942,0.447-2.531-0.299
			L100.366,339.464z"/>
		<path fill="#5DB65F" d="M231.618,235.804c-0.584-0.745-0.517-1.89,0.3-2.531l8.869-7.009c0.746-0.59,1.943-0.445,2.536,0.296
			l31.427,39.795l17.737-14.004c0.818-0.645,1.947-0.442,2.537,0.298l6.417,8.123c0.589,0.75,0.526,1.889-0.302,2.537L273.12,285.44
			c-0.815,0.646-1.945,0.449-2.53-0.301L231.618,235.804z"/>
		<path fill="#5DB65F" d="M277.159,199.84c-0.585-0.746-0.521-1.886,0.3-2.541l8.869-6.999c0.738-0.587,1.943-0.447,2.527,0.299
			l31.439,39.798l17.734-14.01c0.827-0.646,1.947-0.448,2.536,0.3l6.414,8.117c0.594,0.748,0.522,1.889-0.293,2.541l-28.02,22.132
			c-0.827,0.649-1.949,0.45-2.539-0.301L277.159,199.84z"/>
		<path fill="#5DB65F" d="M322.702,163.869c-0.589-0.741-0.451-1.942,0.293-2.532l8.945-7.059c0.744-0.59,1.944-0.452,2.537,0.292
			l38.963,49.343c0.585,0.746,0.449,1.945-0.298,2.534l-8.943,7.06c-0.741,0.585-1.943,0.449-2.531-0.299L322.702,163.869z"/>
		<path fill="#5DB65F" d="M386.26,184.587l-1.381-8.949c-0.173-1.446,1.361-2.413,2.176-2.455c0.421-0.082,8.903-0.371,13.822-4.252
			c2.981-2.354,3.674-5.929,1.616-8.534c-2.475-3.128-6.968-3.458-13.622-1.466c-8.41,2.532-20.406,3.891-27.468-5.051
			c-5.831-7.381-5.978-19.357,5.502-28.428c7.75-6.12,16.831-6.878,20.362-7.004c1.31-0.189,2.217,1.274,2.334,2.029l0.729,8.742
			c0.131,1.234-0.682,2.963-1.768,2.97c-0.968,0.156-9.648,0.355-14.192,3.944c-2.677,2.118-3.28,5.499-1.692,7.513
			c2.176,2.756,6.066,3.078,13.832,0.813c7.64-2.288,20.472-5.034,28.475,5.102c6.064,7.675,5.551,20.665-5.407,29.316
			c-9.685,7.652-18.229,7.864-21.294,7.505C386.95,186.23,386.488,186.106,386.26,184.587z"/>
		<path fill="#5DB65F" d="M175.384,423.878c-0.459-0.733-0.2-1.782,0.399-2.254l1.188-0.939c0.376-0.292,1.282-0.527,1.857-0.26
			l42.718,18.548l0.149-0.121l-8.135-45.85c-0.136-0.625,0.304-1.45,0.676-1.742l1.197-0.944c0.589-0.473,1.677-0.479,2.274,0.131
			l47.979,43.433c0.917,0.849,0.771,2.047-0.12,2.758l-8.796,6.939c-0.671,0.536-1.812,0.469-2.358-0.069l-21.542-20.382
			l-0.146,0.116l6.545,34.037c0.133,0.622-0.247,1.529-0.612,1.825l-1.346,1.062c-0.447,0.351-1.338,0.449-1.913,0.173
			l-31.672-14.199l-0.146,0.12l14.912,25.621c0.393,0.657,0.271,1.721-0.472,2.308l-8.792,6.945
			c-0.897,0.711-2.098,0.568-2.714-0.516L175.384,423.878z"/>
		<path fill="#5DB65F" d="M275.744,425.449l-16.289-68.578c-0.126-0.625,0.096-1.406,0.622-1.819l0.748-0.585
			c0.523-0.415,1.34-0.456,1.908-0.183l62.946,31.725c1.215,0.621,1.379,2.06,0.263,2.946l-8.269,6.535
			c-1.348,1.057-2.292,1.076-4.084,0.197l-7.333-3.774l-20.271,16.014l2.025,8.08c0.332,1.184,0.216,2.734-1.272,3.907l-8.201,6.478
			C277.423,427.27,276.066,426.774,275.744,425.449z M293.781,385.314l-15.378-7.829l-0.077,0.057l4.128,16.717L293.781,385.314z"/>
		<path fill="#5DB65F" d="M332.203,372.506l-1.384-8.947c-0.167-1.44,1.368-2.412,2.183-2.452c0.416-0.082,8.905-0.369,13.824-4.256
			c2.976-2.348,3.668-5.926,1.608-8.532c-2.474-3.134-6.967-3.459-13.619-1.461c-8.41,2.528-20.404,3.886-27.462-5.059
			c-5.833-7.378-5.978-19.359,5.501-28.424c7.751-6.126,16.826-6.876,20.355-7c1.317-0.19,2.222,1.27,2.335,2.022l0.733,8.743
			c0.128,1.233-0.684,2.958-1.769,2.972c-0.97,0.157-9.643,0.35-14.195,3.944c-2.68,2.116-3.28,5.5-1.692,7.503
			c2.184,2.765,6.063,3.082,13.837,0.821c7.637-2.281,20.471-5.03,28.471,5.094c6.067,7.682,5.557,20.671-5.4,29.327
			c-9.69,7.646-18.233,7.86-21.306,7.505C332.893,374.144,332.434,374.028,332.203,372.506z"/>
		<path fill="#5DB65F" d="M414.535,235.252c-0.591-0.748-0.398-1.878,0.352-2.461l1.863-1.473l52.341,5.134l0.07-0.063
			L448.27,209.94c-0.589-0.748-0.526-1.893,0.298-2.542l8.938-7.06c0.743-0.589,1.948-0.449,2.535,0.295l39.614,50.157
			c0.588,0.752,0.391,1.874-0.354,2.466l-1.192,0.936c-0.226,0.181-0.998,0.435-1.269,0.389l-52.804-6.33l-0.077,0.057l21.963,27.8
			c0.584,0.738,0.52,1.886-0.305,2.538l-8.865,7.001c-0.741,0.588-1.94,0.439-2.532-0.301L414.535,235.252z"/>
	</g>
</g>
</svg>
