<?xml version="1.0" encoding="utf-8"?>
<!-- Generator: Adobe Illustrator 16.0.0, SVG Export Plug-In . SVG Version: 6.00 Build 0)  -->
<!DOCTYPE svg PUBLIC "-//W3C//DTD SVG 1.1//EN" "http://www.w3.org/Graphics/SVG/1.1/DTD/svg11.dtd">
<svg version="1.1" id="Layer_1" xmlns="http://www.w3.org/2000/svg" xmlns:xlink="http://www.w3.org/1999/xlink" x="0px" y="0px"
	 width="600px" height="600px" viewBox="0 0 600 600" enable-background="new 0 0 600 600" xml:space="preserve">
<g>
	<g>
		<path fill="#FFFFFF" d="M282.053,299.999c0,48.01-38.919,86.935-86.931,86.935c-48.012,0-86.935-38.925-86.935-86.935
			s38.923-86.933,86.935-86.933C243.134,213.066,282.053,251.989,282.053,299.999z"/>
		<path d="M195.122,395.121c-52.45,0-95.122-42.672-95.122-95.122c0-52.45,42.672-95.12,95.122-95.12
			c52.449,0,95.118,42.67,95.118,95.12C290.24,352.449,247.571,395.121,195.122,395.121z M195.122,221.253
			c-43.421,0-78.748,35.325-78.748,78.746c0,43.422,35.326,78.748,78.748,78.748c43.42,0,78.744-35.326,78.744-78.748
			C273.866,256.578,238.542,221.253,195.122,221.253z"/>
	</g>
	<g>
		<path fill="#FFFFFF" d="M491.812,299.999c0,48.01-38.923,86.935-86.935,86.935c-48.012,0-86.931-38.925-86.931-86.935
			s38.919-86.933,86.931-86.933C452.89,213.066,491.812,251.989,491.812,299.999z"/>
		<path d="M404.877,395.121c-52.448,0-95.118-42.672-95.118-95.122c0-52.45,42.669-95.12,95.118-95.12
			c52.451,0,95.123,42.67,95.123,95.12C500,352.449,457.328,395.121,404.877,395.121z M404.877,221.253
			c-43.419,0-78.743,35.325-78.743,78.746c0,43.422,35.324,78.748,78.743,78.748c43.422,0,78.748-35.326,78.748-78.748
			C483.625,256.578,448.299,221.253,404.877,221.253z"/>
	</g>
	<path d="M404.877,353.488c-29.495,0-53.491-23.996-53.491-53.489c0-29.494,23.997-53.489,53.491-53.489
		c29.495,0,53.492,23.995,53.492,53.489C458.369,329.493,434.373,353.488,404.877,353.488z M404.877,256.335
		c-24.077,0-43.666,19.587-43.666,43.664s19.588,43.664,43.666,43.664c24.078,0,43.666-19.587,43.666-43.664
		S428.955,256.335,404.877,256.335z"/>
	<path d="M436.715,299.999c0,17.583-14.257,31.831-31.837,31.831c-17.58,0-31.829-14.249-31.829-31.831
		c0-17.579,14.249-31.829,31.829-31.829C422.458,268.17,436.715,282.42,436.715,299.999z"/>
	<g>
		<g>
			<path d="M276.206,321.796c-21.646-26.91-54.892-41.357-89.641-38.52l-0.799-9.792c3.115-0.254,6.262-0.383,9.355-0.383
				c34.65,0,66.994,15.504,88.739,42.536L276.206,321.796z"/>
			<path d="M195.122,326.9c-34.647,0-66.993-15.503-88.743-42.535l7.655-6.159c19.875,24.702,49.431,38.869,81.088,38.869
				c2.818,0,5.696-0.117,8.557-0.348l0.791,9.793C201.348,326.772,198.203,326.9,195.122,326.9z"/>
		</g>
		<g>
			<path d="M177.244,294.227l-7.486-6.364c2.003-2.357,4.138-4.672,6.345-6.881c24.5-24.5,58.327-36.409,92.81-32.675l-1.057,9.768
				c-31.524-3.416-62.422,7.47-84.804,29.852C181.033,289.949,179.077,292.069,177.244,294.227z"/>
			<path d="M133.779,352.366c-4.135,0-8.293-0.224-12.463-0.675l1.059-9.768c31.512,3.418,62.43-7.463,84.817-29.852
				c2.022-2.026,3.977-4.146,5.807-6.3l7.486,6.363c-2,2.352-4.133,4.667-6.342,6.88
				C192.601,340.557,163.847,352.366,133.779,352.366z"/>
		</g>
		<g>
			<path d="M182.982,325.362c-2.375-2.022-4.689-4.155-6.877-6.343c-24.502-24.502-36.413-58.333-32.677-92.817l9.768,1.059
				c-3.414,31.51,7.468,62.423,29.856,84.811c2.002,2.002,4.122,3.956,6.298,5.809L182.982,325.362z"/>
			<path d="M246.812,373.801l-9.769-1.059c3.296-30.414-6.848-60.569-27.832-82.735c-0.659-0.695-1.334-1.391-2.02-2.076
				c-1.996-1.999-4.115-3.952-6.3-5.809l6.364-7.486c2.386,2.028,4.703,4.165,6.886,6.35c0.745,0.745,1.484,1.505,2.204,2.266
				C239.314,307.515,250.419,340.518,246.812,373.801z"/>
		</g>
		<g>
			<path d="M168.604,309.349c-0.25-3.059-0.377-6.204-0.377-9.35c0-34.652,15.501-66.995,42.529-88.736l6.159,7.655
				c-24.699,19.867-38.863,49.421-38.863,81.082c0,2.879,0.115,5.756,0.343,8.55L168.604,309.349z"/>
			<path d="M179.484,388.739l-6.159-7.654c24.7-19.871,38.867-49.425,38.867-81.086c0-2.858-0.116-5.735-0.345-8.551l9.792-0.799
				c0.251,3.081,0.379,6.225,0.379,9.35C222.017,334.65,206.514,366.995,179.484,388.739z"/>
		</g>
	</g>
	<path fill="#FFFFFF" d="M438.539,279.938c0,6.606-5.354,11.965-11.964,11.965c-6.609,0-11.965-5.358-11.965-11.965
		s5.356-11.962,11.965-11.962C433.185,267.976,438.539,273.332,438.539,279.938z"/>
	<polygon points="186.867,320 173,307.718 173,290.717 186.867,278 203.864,278 215,290.717 215,307.718 203.864,320 	"/>
</g>
</svg>
