<?xml version="1.0" encoding="utf-8"?>
<!-- Generator: Adobe Illustrator 16.0.0, SVG Export Plug-In . SVG Version: 6.00 Build 0)  -->
<!DOCTYPE svg PUBLIC "-//W3C//DTD SVG 1.1//EN" "http://www.w3.org/Graphics/SVG/1.1/DTD/svg11.dtd">
<svg version="1.1" id="Layer_1" xmlns="http://www.w3.org/2000/svg" xmlns:xlink="http://www.w3.org/1999/xlink" x="0px" y="0px"
	 width="600px" height="600px" viewBox="0 0 600 600" enable-background="new 0 0 600 600" xml:space="preserve">
<g>
	<path d="M301.987,458.676l-67.304-67.303l48.066-48.065L100,160.564l19.24-19.24l182.75,182.744l178.77-178.769l19.24,19.24
		L321.229,343.308l48.068,48.065L301.987,458.676z M273.164,391.373l28.824,28.825l28.83-28.825l-28.827-28.827L273.164,391.373z"/>
	<path d="M441.49,391.992c-29.682,0-53.83-24.147-53.83-53.83c0-29.683,24.148-53.83,53.83-53.83s53.83,24.147,53.83,53.83
		C495.319,367.845,471.172,391.992,441.49,391.992z M441.49,311.541c-14.679,0-26.622,11.942-26.622,26.622
		c0,14.679,11.942,26.621,26.622,26.621s26.621-11.942,26.621-26.621C468.111,323.483,456.169,311.541,441.49,311.541z"/>
	<path d="M158.51,391.992c-29.682,0-53.83-24.147-53.83-53.83c0-29.683,24.147-53.83,53.83-53.83s53.83,24.147,53.83,53.83
		C212.34,367.845,188.192,391.992,158.51,391.992z M158.51,311.541c-14.679,0-26.621,11.942-26.621,26.622
		c0,14.679,11.942,26.621,26.621,26.621s26.622-11.942,26.622-26.621C185.132,323.483,173.189,311.541,158.51,311.541z"/>
</g>
</svg>
