<?xml version="1.0" encoding="utf-8"?>
<!-- Generator: Adobe Illustrator 16.0.0, SVG Export Plug-In . SVG Version: 6.00 Build 0)  -->
<!DOCTYPE svg PUBLIC "-//W3C//DTD SVG 1.1//EN" "http://www.w3.org/Graphics/SVG/1.1/DTD/svg11.dtd">
<svg version="1.1" id="Layer_1" xmlns="http://www.w3.org/2000/svg" xmlns:xlink="http://www.w3.org/1999/xlink" x="0px" y="0px"
	 width="600px" height="600px" viewBox="0 0 600 600" enable-background="new 0 0 600 600" xml:space="preserve">
<g>
	<path fill="#303533" d="M321.847,418.014c-0.003-0.001-0.006-0.004-0.009-0.005c-37.544,6.893-77.763-4.138-106.739-33.109
		c-4.84-4.84-9.16-10.004-12.997-15.409c-0.875-0.291-1.791-0.409-2.698-0.321c-3.462,0.32-46.371,29.92-46.371,29.92l41.576-41.578
		c-0.064-0.118-0.134-0.232-0.198-0.35l20.691-20.689c0,0-11.679,9.318-22.835,16.544c-0.847-1.725-1.643-3.469-2.403-5.225
		c-0.162-0.204-0.325-0.407-0.514-0.595c-1.516-1.516-3.548-2.263-5.526-2.071c-2.299,0.213-37.502,28.852-60.914,48.085
		c9.134,17.379,20.997,33.688,35.592,48.282c28.655,28.656,63.913,46.771,100.919,54.376
		C291.826,463.808,331.202,422.203,321.847,418.014z"/>
	<polygon fill="#303533" points="223.107,289.397 223.099,289.405 223.097,289.408 	"/>
	<path fill="#303533" d="M441.487,158.512c-78.018-78.02-204.964-78.02-282.983,0c-62.755,62.755-75.019,157.162-36.817,232.303
		l101.391-101.394c-0.614,0.489-37.774,30.069-42.316,24.019l-0.007,0.039c-1.443-12.896-0.8-25.982,1.916-38.711
		c-0.333-0.671-0.765-1.303-1.319-1.859c-1.52-1.512-3.548-2.255-5.53-2.071c-3.462,0.325-52.146,35.693-52.146,35.693l91.428-91.42
		c46.808-46.808,122.979-46.812,169.786,0c4.205,4.204,8.025,8.648,11.475,13.283l-39.128,39.125c0,0,32.875-24.637,40.379-25.638
		c6.617-0.881,9.427,3.804,9.806,4.5c4.445,8.921,7.715,18.283,9.803,27.854l-85.29,85.29c0,0,77.628-64.32,81.091-64.645
		c1.981-0.184,4.01,0.559,5.53,2.071c0.623,0.625,1.09,1.348,1.433,2.113c0.237,30.625-11.14,61.318-34.126,84.835l0.021,0.004
		l-0.21,0.19c-0.262,0.267-0.518,0.537-0.783,0.802c-3.204,3.205-6.55,6.181-10.011,8.947L261.461,496.29
		c63.178,12.303,131.185-5.961,180.022-54.799C519.503,363.472,519.507,236.53,441.487,158.512z"/>
</g>
</svg>
