<?xml version="1.0" encoding="utf-8"?>
<!-- Generator: Adobe Illustrator 16.0.0, SVG Export Plug-In . SVG Version: 6.00 Build 0)  -->
<!DOCTYPE svg PUBLIC "-//W3C//DTD SVG 1.1//EN" "http://www.w3.org/Graphics/SVG/1.1/DTD/svg11.dtd">
<svg version="1.1" id="Layer_1" xmlns="http://www.w3.org/2000/svg" xmlns:xlink="http://www.w3.org/1999/xlink" x="0px" y="0px"
	 width="600px" height="600px" viewBox="0 0 600 600" enable-background="new 0 0 600 600" xml:space="preserve">
<path fill="#303533" d="M300,100c-110.281,0-200,89.719-200,200c0,110.281,89.719,200,200,200c110.281,0,200-89.719,200-200
	C500,189.719,410.281,100,300,100z M405,270.993c-4.978,4.978-10.655,8.823-16.713,11.557C389.405,288.197,390,294.029,390,300
	c0,49.625-40.375,90-90,90s-90-40.375-90-90c0-49.625,40.375-90,90-90c0.016,0,0.031,0,0.047,0
	c0.192,10.958,3.507,21.147,9.076,29.739c-2.68-17.234,2.607-35.466,15.885-48.74c22.086-22.085,57.898-22.085,79.984,0.008
	C427.086,213.086,427.086,248.906,405,270.993z"/>
</svg>
