<?xml version="1.0" encoding="utf-8"?>
<!-- Generator: Adobe Illustrator 16.0.0, SVG Export Plug-In . SVG Version: 6.00 Build 0)  -->
<!DOCTYPE svg PUBLIC "-//W3C//DTD SVG 1.1//EN" "http://www.w3.org/Graphics/SVG/1.1/DTD/svg11.dtd">
<svg version="1.1" id="Layer_1" xmlns="http://www.w3.org/2000/svg" xmlns:xlink="http://www.w3.org/1999/xlink" x="0px" y="0px"
	 width="600px" height="600px" viewBox="0 0 600 600" enable-background="new 0 0 600 600" xml:space="preserve">
<g>
	<g>
		<g>
			<g>
				<path d="M172.681,210.966l21.032-5.636c9.474-2.538,16.514-2.394,22.639,1.146c4.325,2.493,7.223,6.494,8.769,12.273
					c4.418,16.479-7.184,29.644-25.281,34.485l-12.595,3.377l-0.021,21.531l-14.589,3.909L172.681,210.966z M197.175,240.249
					c9.658-2.591,15.032-8.699,13.025-16.185c-0.583-2.179-1.849-3.871-3.652-4.909c-2.52-1.458-5.521-1.669-9.879-0.501
					l-9.477,2.54l0.035,21.717L197.175,240.249z"/>
				<path d="M237.012,193.73l49.544-13.276l-0.026,13.926l-35.053,9.383l0.029,14.515l30.791-8.252l-0.08,13.733l-30.786,8.247
					l-0.033,15.035l35.62-9.538l-0.029,13.915l-50.021,13.4L237.012,193.73z"/>
				<path d="M321.867,170.49l14.023-3.754l28.411,63.968l-14.974,4.012l-6.063-14.314l-28.042,7.51l-6.059,17.564l-15.723,4.21
					L321.867,170.49z M338.108,207.972l-8.897-21.069l-8.73,25.792L338.108,207.972z"/>
				<path d="M372.504,157.431l14.585-3.905l0.001,31.477l24.912-38.151l19.708-5.281l-24.872,36.413l25.965,34.372l-16.012,4.284
					l-19.172-26.843l-10.591,15.425l0.015,19.388l-14.585,3.91L372.504,157.431z"/>
			</g>
			<g>
				<path d="M172.681,335.421l21.032-5.638c9.474-2.537,16.514-2.395,22.639,1.146c4.325,2.493,7.223,6.486,8.769,12.271
					c4.418,16.482-7.184,29.641-25.281,34.488l-12.595,3.376l-0.021,21.532l-14.588,3.91L172.681,335.421z M197.175,364.696
					c9.658-2.586,15.032-8.692,13.025-16.178c-0.583-2.179-1.849-3.874-3.652-4.907c-2.52-1.464-5.521-1.675-9.879-0.506
					l-9.47,2.534l0.028,21.728L197.175,364.696z"/>
				<path d="M237.012,318.188l49.544-13.277l-0.026,13.914l-35.053,9.396l0.029,14.509l30.791-8.248l-0.08,13.729l-30.786,8.248
					l-0.033,15.033l35.62-9.536l-0.029,13.91l-50.021,13.401L237.012,318.188z"/>
				<path d="M321.873,294.945l14.017-3.761l28.411,63.97l-14.974,4.015l-6.063-14.314l-28.042,7.508l-6.059,17.568l-15.723,4.209
					L321.873,294.945z M338.108,332.428l-8.897-21.08l-8.724,25.795L338.108,332.428z"/>
				<path d="M372.504,281.891l14.587-3.912l0.007,31.475l24.908-38.149l19.706-5.28l-24.872,36.413l25.965,34.363l-16.012,4.293
					l-19.172-26.845l-10.591,15.42l0.015,19.393l-14.585,3.907L372.504,281.891z"/>
			</g>
		</g>
		<g>
			<path fill="#E65F54" d="M141.367,448.856c-1.74,0-3.449-0.565-4.862-1.643c-1.973-1.514-3.132-3.859-3.132-6.347V316.725
				c0-3.614,2.427-6.777,5.912-7.72l311.359-82.991V118.43l-301.281,80.275v50.266l-15.99,4.243v-60.63
				c0-3.617,2.427-6.777,5.912-7.72l317.272-84.588c2.402-0.648,4.967-0.143,6.945,1.375c1.977,1.515,3.127,3.859,3.127,6.344
				V232.14c0,3.61-2.418,6.775-5.906,7.721l-311.359,82.983v107.586l301.281-80.269v-50.271l15.985-4.666v61.058
				c0,3.609-2.418,6.771-5.906,7.715l-317.273,84.583C142.762,448.764,142.065,448.856,141.367,448.856z"/>
		</g>
	</g>
	<g>
		<g>
			<path d="M171.468,488.235c-3.008-11.304,3.973-23.802,15.938-26.988c6.793-1.802,12.122-0.132,16.204,3.776l-5.24,6.229
				c-2.86-2.385-5.749-3.678-10.015-2.55c-6.482,1.729-10.869,9.523-8.857,17.071c1.36,5.123,5.875,7.61,10.943,6.263
				c3.447-0.916,5.314-2.88,7.387-5.714l6.468,3.92c-2.564,4.045-6.059,7.424-11.987,9.002
				C182.625,501.824,173.991,497.714,171.468,488.235z"/>
			<path d="M218.324,475.493c-2.82-10.597,3.033-23.274,15.754-26.666c9.78-2.604,18.029,2.477,20.399,11.395
				c2.823,10.596-3.032,23.284-15.75,26.671C228.941,489.496,220.695,484.416,218.324,475.493z M246.503,462.895
				c-1.401-5.276-5.596-8.178-11.42-6.628c-7.45,1.983-10.415,10.427-8.783,16.563c1.403,5.268,5.596,8.172,11.423,6.621
				C245.173,477.465,248.137,469.026,246.503,462.895z"/>
			<path d="M271.942,439.402l27.017-7.189l-0.044,7.606l-19.206,5.116l-0.021,8.092l16.929-4.508l0.015,7.6l-16.935,4.506
				l-0.042,14.719l-7.804,2.076L271.942,439.402z"/>
			<path d="M315.667,427.767l27.014-7.187l-0.031,7.607l-19.208,5.109l-0.024,8.089l16.936-4.505l0.01,7.595l-16.928,4.506
				l-0.044,14.72l-7.808,2.081L315.667,427.767z"/>
			<path d="M359.402,416.129l26.507-7.06l-0.022,7.444l-18.755,4.985v7.772l16.472-4.393l-0.048,7.344l-16.477,4.388l-0.033,8.04
				l19.057-5.069l-0.022,7.438l-26.765,7.125L359.402,416.129z"/>
			<path d="M403.235,404.457l26.514-7.05l-0.033,7.441l-18.75,4.99l0.004,7.761l16.473-4.382l-0.055,7.339l-16.468,4.388
				l-0.038,8.042l19.056-5.074l-0.025,7.444l-26.762,7.121L403.235,404.457z"/>
		</g>
	</g>
</g>
</svg>
