<?xml version="1.0" encoding="utf-8"?>
<!-- Generator: Adobe Illustrator 16.0.0, SVG Export Plug-In . SVG Version: 6.00 Build 0)  -->
<!DOCTYPE svg PUBLIC "-//W3C//DTD SVG 1.1//EN" "http://www.w3.org/Graphics/SVG/1.1/DTD/svg11.dtd">
<svg version="1.1" id="Layer_1" xmlns="http://www.w3.org/2000/svg" xmlns:xlink="http://www.w3.org/1999/xlink" x="0px" y="0px"
	 width="600px" height="600px" viewBox="0 0 600 600" enable-background="new 0 0 600 600" xml:space="preserve">
<g>
	<g>
		<g>
			<g>
				<g>
					<polygon fill="#E65F54" points="299.995,178.607 282.671,204.108 317.327,204.108 					"/>
				</g>
			</g>
		</g>
		<g>
			<g>
				<g>
					<polygon fill="#E65F54" points="300.003,421.393 317.327,395.896 282.671,395.896 					"/>
				</g>
			</g>
		</g>
	</g>
	<g>
		<path d="M69.214,311.334h-5.957v53.415H50V236.783h19.214c7.496,0,17.101,3.837,17.101,20.169v34.21
			C86.314,307.49,76.71,311.334,69.214,311.334z M73.056,256.572c0-4.424-1.535-6.149-4.036-6.149h-5.763v48.231h5.763
			c2.501,0,4.036-1.923,4.036-6.152V256.572z"/>
		<path d="M103.415,364.75V236.783h30.936v13.256h-17.676v42.272h12.495v13.256h-12.495v45.931h17.676v13.252H103.415z"/>
		<path d="M173.364,364.75l-1.34-24.589h-10.766l-2.109,24.589H147.23l12.874-127.967h14.417l12.681,127.967H173.364z
			 M167.406,268.483l-4.99,57.842h8.642L167.406,268.483z"/>
		<path d="M227.556,364.75l-7.111-54.181l-4.415,21.133v33.048h-13.265V236.783h13.265v63.021l11.907-63.021h12.49l-11.336,54.953
			l11.721,73.014H227.556z"/>
		<path d="M307.647,309.221c-8.648,23.824-11.721,33.817-11.721,42.083h21.14v13.446h-34.396V361.3
			c0-13.457,2.117-22.678,14.794-59.19c6.536-18.448,9.224-28.247,9.224-45.158c0-5.763-2.113-8.261-5.767-8.261
			c-3.073,0-5.574,2.695-5.574,6.914v20.751h-11.337v-19.784c0-11.147,5.961-21.331,16.533-21.331
			c12.682,0,17.673,9.605,17.673,25.171C318.217,277.897,313.606,292.121,307.647,309.221z"/>
		<path d="M378.398,311.334h-5.953v53.415h-13.261V236.783h19.214c7.496,0,17.104,3.837,17.104,20.169v34.21
			C395.503,307.49,385.895,311.334,378.398,311.334z M382.243,256.572c0-4.424-1.537-6.149-4.039-6.149h-5.759v48.231h5.759
			c2.502,0,4.039-1.923,4.039-6.152V256.572z"/>
		<path d="M412.604,364.75V236.783h30.938v13.256h-17.683v42.272h12.499v13.256h-12.499v45.931h17.683v13.252H412.604z"/>
		<path d="M482.553,364.75l-1.345-24.589h-10.762l-2.112,24.589h-11.919l12.878-127.967h14.409l12.688,127.967H482.553z
			 M476.595,268.483l-4.994,57.842h8.648L476.595,268.483z"/>
		<path d="M536.741,364.75l-7.108-54.181l-4.419,21.133v33.048h-13.261V236.783h13.261v63.021l11.911-63.021h12.49l-11.337,54.953
			L550,364.75H536.741z"/>
	</g>
</g>
</svg>
