<?xml version="1.0" encoding="utf-8"?>
<!-- Generator: Adobe Illustrator 16.0.0, SVG Export Plug-In . SVG Version: 6.00 Build 0)  -->
<!DOCTYPE svg PUBLIC "-//W3C//DTD SVG 1.1//EN" "http://www.w3.org/Graphics/SVG/1.1/DTD/svg11.dtd">
<svg version="1.1" id="Layer_1" xmlns="http://www.w3.org/2000/svg" xmlns:xlink="http://www.w3.org/1999/xlink" x="0px" y="0px"
	 width="600px" height="600px" viewBox="0 0 600 600" enable-background="new 0 0 600 600" xml:space="preserve">
<g>
	<g>
		<path d="M332.473,365.614v20.681h-62.064v-53.162c0-2.889,0.244-5.298,0.727-7.227c0.475-1.916,1.322-3.735,2.523-5.414
			c1.197-1.678,3.324-4.05,6.373-7.094l23.338-22.371c1.76-1.766,3.16-3.29,4.205-4.568c1.045-1.287,1.768-2.36,2.174-3.244
			c0.387-0.889,0.635-1.81,0.713-2.772c0.084-0.958,0.125-2.251,0.125-3.845v-32c0-6.747-3.293-10.11-9.863-10.11h-1.451
			c-6.576,0-9.859,3.364-9.859,10.11v17.8h-23.09v-19.244c0-19.732,9.211-29.594,27.662-29.594h12.033
			c18.434,0,27.658,9.861,27.658,29.594v41.38c0,3.203-0.443,6.021-1.322,8.413c-0.879,2.413-3.164,5.381-6.852,8.908
			l-25.504,24.536c-3.209,3.053-5.051,5.141-5.539,6.258c-0.475,1.117-0.76,2.248-0.834,3.366c-0.082,1.133-0.129,2.641-0.129,4.573
			v25.026H332.473z"/>
	</g>
	<g>
		<g>
			<g>
				<polygon points="299.994,145.624 274.943,182.486 325.055,182.486 				"/>
			</g>
		</g>
		<g>
			<g>
				<polygon points="300.004,454.246 325.055,417.37 274.943,417.37 				"/>
			</g>
		</g>
	</g>
	<g>
		<g>
			<path d="M210.625,367.558v7.306h23.002v11.188h-60.076v-18.493c0-8.478,4.867-13.622,13.529-13.622h10.104
				C205.754,353.936,210.625,359.08,210.625,367.558z M187.26,364.755c-2.971,0-4.508,1.188-4.508,3.977v6.131h19.217v-6.131
				c0-2.789-1.533-3.977-4.508-3.977H187.26z"/>
			<path d="M233.627,338.947h-60.076v-28.693h9.656v17.508h14.879v-12.088h8.842v12.088h16.693v-17.508h10.006V338.947z"/>
			<path d="M233.627,273.542l-11.811,1.98v10.642l11.811,2.16v10.467l-60.076-12.083v-12.539l60.076-11.996V273.542z
				 M189.789,280.574l23.186,4.05v-7.667L189.789,280.574z"/>
			<path d="M233.627,225.531l-24.709,8.303l7.934,3.868h16.775v11.202h-60.076v-11.202h27.52l-27.52-12.079v-11.277l25.352,11.816
				l34.725-12.357V225.531z"/>
		</g>
		<g>
			<path d="M389.371,232.296v-7.299h-23.006v-11.192h60.082v18.491c0,8.489-4.873,13.628-13.529,13.628h-10.104
				C394.24,245.924,389.371,240.785,389.371,232.296z M412.738,235.1c2.969,0,4.512-1.174,4.512-3.979v-6.125h-19.221v6.125
				c0,2.804,1.533,3.979,4.508,3.979H412.738z"/>
			<path d="M366.365,260.906h60.082v28.689h-9.658v-17.492h-14.883v12.086h-8.842v-12.086h-16.688v17.492h-10.012V260.906z"/>
			<path d="M366.365,326.318l11.812-1.978v-10.649l-11.812-2.165v-10.456l60.082,12.077v12.542l-60.082,12.003V326.318z
				 M410.205,319.279l-23.182-4.055v7.674L410.205,319.279z"/>
			<path d="M366.365,374.322l24.721-8.298l-7.939-3.877h-16.781v-11.19h60.082v11.19h-27.52l27.52,12.088v11.271l-25.352-11.814
				l-34.73,12.359V374.322z"/>
		</g>
	</g>
	<path fill="#E65F54" d="M299.998,500l-185.459-89.753V183.963L299.998,100l185.463,83.963v226.283L299.998,500z M135.254,397.258
		l164.744,79.728l164.748-79.728V197.325l-164.748-74.585l-164.744,74.585V397.258z"/>
</g>
</svg>
