<?xml version="1.0" encoding="utf-8"?>
<!-- Generator: Adobe Illustrator 16.0.0, SVG Export Plug-In . SVG Version: 6.00 Build 0)  -->
<!DOCTYPE svg PUBLIC "-//W3C//DTD SVG 1.1//EN" "http://www.w3.org/Graphics/SVG/1.1/DTD/svg11.dtd">
<svg version="1.1" id="Layer_1" xmlns="http://www.w3.org/2000/svg" xmlns:xlink="http://www.w3.org/1999/xlink" x="0px" y="0px"
	 width="600px" height="600px" viewBox="0 0 600 600" enable-background="new 0 0 600 600" xml:space="preserve">
<g>
	<polygon points="316.352,301.884 381.142,239.715 445.935,301.884 	"/>
	<polygon fill="#FFFFFF" points="242.961,311.644 328.091,229.96 413.211,311.644 	"/>
	<polygon points="234.729,311.644 319.856,229.96 404.983,311.644 	"/>
	<polygon fill="#FFFFFF" points="228.445,311.644 285.692,256.708 342.938,311.644 	"/>
	<polygon fill="#FFFFFF" points="350.057,311.644 407.301,256.708 455.1,302.581 455.852,311.644 	"/>
	<polygon points="357.894,311.644 415.136,256.708 452.282,292.356 453.834,311.644 	"/>
	<polygon points="219.949,311.644 277.197,256.708 334.444,311.644 	"/>
	<path d="M300.01,500l-1.724-0.443c-1.616-0.417-40.017-10.504-78.985-36.254c-52.332-34.583-79.992-80.929-79.992-134.022V100
		h321.383v229.281c0,52.89-27.657,99.169-79.987,133.833c-38.962,25.81-77.355,36.014-78.971,36.438L300.01,500z M153.024,113.719
		v215.562c0,48.85,24.739,90.022,73.532,122.375c32.553,21.582,65.599,31.88,73.427,34.135
		c16.601-4.874,146.992-46.729,146.992-156.51V113.719H153.024z"/>
	<rect x="146.166" y="201.903" width="307.668" height="13.719"/>
	<g>
		<rect x="144.68" y="171.89" width="57.041" height="13.719"/>
		<rect x="398.279" y="171.89" width="57.046" height="13.719"/>
	</g>
	<rect x="244.266" y="208.761" width="13.717" height="102.882"/>
	<rect x="146.166" y="208.761" width="104.958" height="104.955"/>
	<g>
		<path fill="#FFFFFF" d="M232,262.022c0,21.056-11.203,38.124-32.259,38.124s-32.259-17.068-32.259-38.124
			c0-21.058,11.203-38.125,32.259-38.125S232,240.965,232,262.022z"/>
		<path d="M200.242,207.528c0,0,0.411,0.268,1.185,0.769c0.742,0.539,1.912,1.211,3.231,2.3c1.254,1.183,3.05,2.564,4.505,4.599
			c0.397,0.498,0.805,1.01,1.226,1.537c0.388,0.556,0.73,1.17,1.116,1.791c0.354,0.632,0.741,1.281,1.096,1.968
			c0.29,0.725,0.587,1.467,0.891,2.226c0.668,1.518,0.905,3.236,1.316,5.008c0.13,1.767,0.405,3.679,0.216,5.563
			c-0.055,1.932-0.429,3.806-0.78,5.759c-0.513,1.855-1.02,3.799-1.733,5.608c-1.384,3.679-3.146,7.212-5.061,10.554
			c-1.9,3.361-3.936,6.616-5.886,9.752c-1.91,3.162-3.852,6.24-5.394,9.285c-1.57,3.033-2.89,6.033-3.766,8.96
			c-0.777,2.933-1.312,5.808-1.257,8.604c-0.021,1.398,0.201,2.757,0.305,4.112c0.315,1.314,0.472,2.65,0.859,3.895
			c0.419,1.233,0.737,2.466,1.175,3.615c0.481,1.146,0.937,2.233,1.364,3.255c1.032,1.973,1.898,3.797,2.713,5.245
			c1.73,2.827,2.679,4.586,2.679,4.586s-1.633-1.029-4.419-3.088c-1.31-1.104-2.936-2.471-4.625-4.237
			c-0.805-0.94-1.659-1.941-2.562-2.995c-0.897-1.077-1.621-2.386-2.489-3.696c-0.857-1.319-1.438-2.887-2.193-4.45
			c-0.569-1.63-1.175-3.368-1.526-5.211c-0.153-0.936-0.31-1.882-0.467-2.839c-0.13-0.964-0.096-1.944-0.146-2.942
			c-0.139-2.008,0.16-4.005,0.404-6.042c0.618-4.055,1.973-7.961,3.553-11.708c1.625-3.741,3.586-7.208,5.587-10.559
			c1.994-3.361,4.077-6.501,6.009-9.568c1.95-3.062,3.758-5.994,5.209-8.855c1.503-2.846,2.666-5.611,3.279-8.268
			c0.445-1.335,0.493-2.628,0.713-3.923c-0.023-1.266,0.196-2.559-0.038-3.765c-0.053-0.623-0.107-1.23-0.158-1.827
			c-0.139-0.591-0.272-1.17-0.402-1.735c-0.127-0.572-0.215-1.154-0.366-1.702c-0.191-0.539-0.376-1.065-0.558-1.573
			c-0.658-2.109-1.597-3.758-2.235-5.304C201.158,209.288,200.242,207.528,200.242,207.528z"/>
	</g>
	<rect x="146.166" y="304.785" width="307.668" height="13.719"/>
	<rect x="293.142" y="311.644" width="13.717" height="181.271"/>
	<g>
		<g>
			<polygon points="224.246,322.392 168.098,351.229 224.246,380.067 280.393,351.229 			"/>
		</g>
		<rect x="242.81" y="348.081" transform="matrix(0.4568 0.8896 -0.8896 0.4568 474.288 -10.5102)" width="5.88" height="70"/>
		<rect x="242.81" y="364.072" transform="matrix(0.4568 0.8896 -0.8896 0.4568 488.513 -1.8234)" width="5.88" height="69.998"/>
		<rect x="242.81" y="380.064" transform="matrix(0.4568 0.8896 -0.8896 0.4568 502.74 6.8645)" width="5.88" height="70"/>
		<rect x="242.81" y="396.053" transform="matrix(0.4568 0.8896 -0.8896 0.4568 516.9471 15.5396)" width="5.879" height="69.998"/>
		<rect x="248.392" y="415.412" transform="matrix(0.4546 0.8907 -0.8907 0.4546 532.6332 18.352)" width="5.877" height="57.383"/>
		<rect x="256.352" y="436.334" transform="matrix(0.4592 0.8883 -0.8883 0.4592 545.4125 16.3327)" width="5.88" height="39.609"/>
		<rect x="264.191" y="457.086" transform="matrix(0.4576 0.8892 -0.8892 0.4576 561.0756 16.3573)" width="5.88" height="21.936"/>
		<rect x="272.323" y="351.229" width="7.837" height="132.129"/>
		<polygon points="224.268,453.554 224.268,378.439 168.098,351.229 168.098,412.421 		"/>
		<polygon fill="#FFFFFF" points="226.667,383.251 201.965,369.46 227.562,381.508 		"/>
		<polygon fill="#FFFFFF" points="226.667,400.517 201.965,386.729 227.562,398.774 		"/>
		<polygon fill="#FFFFFF" points="226.626,416.553 201.925,402.767 227.521,414.81 		"/>
		<polygon fill="#FFFFFF" points="226.667,432.445 201.965,418.657 227.562,430.703 		"/>
		<polygon fill="#FFFFFF" points="226.667,448.555 201.965,434.765 227.562,446.812 		"/>
	</g>
	<path d="M441.015,311.644c0,0,8.577,10.748,4.92,62.056l7.899-62.056H441.015z"/>
	<path d="M299.322,380.9c0,0,17.613-67.44,71.739-67.44h-71.739V380.9z"/>
	<g>
		<polygon points="426.296,297.965 305.437,490.289 302.41,488.464 416.228,291.89 		"/>
		
			<rect x="384.528" y="340.083" transform="matrix(0.2381 0.9712 -0.9712 0.2381 659.4677 -154.6248)" width="87.523" height="5.881"/>
		
			<rect x="363.543" y="374.699" transform="matrix(0.2381 0.9712 -0.9712 0.2381 677.1127 -107.8578)" width="87.517" height="5.881"/>
		<rect x="347.079" y="403.553" transform="matrix(0.238 0.9713 -0.9713 0.238 688.0878 -64.1091)" width="75.649" height="5.88"/>
		<rect x="332.16" y="430.43" transform="matrix(0.2381 0.9712 -0.9712 0.2381 696.7247 -21.4186)" width="59.709" height="5.881"/>
		<rect x="319.245" y="454.76" transform="matrix(0.2381 0.9712 -0.9712 0.2381 702.4535 19.9537)" width="38.527" height="5.881"/>
		
			<rect x="353.27" y="280.678" transform="matrix(0.2411 0.9705 -0.9705 0.2411 592.7394 -93.5878)" width="5.878" height="103.041"/>
		
			<rect x="339.778" y="321.042" transform="matrix(0.2378 0.9713 -0.9713 0.2378 615.5718 -54.8234)" width="5.878" height="87.52"/>
		<rect x="329.175" y="363.81" transform="matrix(0.2379 0.9713 -0.9713 0.2379 638.5757 -20.1267)" width="5.878" height="66.13"/>
		
			<rect x="318.684" y="406.656" transform="matrix(0.2379 0.9713 -0.9713 0.2379 661.7052 14.4832)" width="5.878" height="44.527"/>
		
			<rect x="308.189" y="449.506" transform="matrix(0.2379 0.9713 -0.9713 0.2379 684.8307 49.0977)" width="5.878" height="22.914"/>
	</g>
	<g>
		<text transform="matrix(1 0 0 1 163.5781 157.7344)" font-family="'Gotham-Ultra'" font-size="37.8778">PEAK 2 PEAK</text>
	</g>
	<g>
		<text transform="matrix(1 0 0 1 217.501 190.2676)" font-family="'Gotham-Ultra'" font-size="31.5728" letter-spacing="6">COFFEE</text>
	</g>
</g>
</svg>
