<?xml version="1.0" encoding="utf-8"?>
<!-- Generator: Adobe Illustrator 16.0.0, SVG Export Plug-In . SVG Version: 6.00 Build 0)  -->
<!DOCTYPE svg PUBLIC "-//W3C//DTD SVG 1.1//EN" "http://www.w3.org/Graphics/SVG/1.1/DTD/svg11.dtd">
<svg version="1.1" id="Layer_1" xmlns="http://www.w3.org/2000/svg" xmlns:xlink="http://www.w3.org/1999/xlink" x="0px" y="0px"
	 width="600px" height="600px" viewBox="0 0 600 600" enable-background="new 0 0 600 600" xml:space="preserve">
<g>
	<path d="M486.64,300c0-8.196,5.705-15.055,13.358-16.833c-0.153-1.901-0.344-3.79-0.549-5.676
		c-7.862-0.251-14.796-5.865-16.39-13.901c-1.604-8.054,2.675-15.919,9.86-19.146c-0.525-1.816-1.087-3.63-1.656-5.436
		c-7.769,1.312-15.691-2.846-18.822-10.434c-3.146-7.581-0.492-16.119,5.925-20.68c-0.875-1.7-1.78-3.374-2.704-5.03
		c-7.353,2.787-15.922,0.261-20.478-6.556c-4.548-6.815-3.609-15.679,1.762-21.41c-1.19-1.495-2.398-2.967-3.635-4.421
		c-6.672,4.145-15.544,3.337-21.337-2.453c-5.79-5.795-6.6-14.669-2.453-21.339c-1.459-1.231-2.931-2.442-4.421-3.633
		c-5.731,5.371-14.595,6.313-21.407,1.76c-6.82-4.554-9.343-13.12-6.554-20.48c-1.671-0.916-3.343-1.824-5.035-2.693
		c-4.559,6.414-13.099,9.065-20.688,5.922c-7.578-3.141-11.735-11.058-10.429-18.825c-1.801-0.58-3.615-1.13-5.441-1.653
		c-3.227,7.179-11.081,11.458-19.133,9.865c-8.043-1.602-13.661-8.538-13.909-16.393c-1.884-0.215-3.772-0.403-5.668-0.556
		c-1.78,7.653-8.642,13.363-16.838,13.363s-15.055-5.71-16.833-13.363c-1.904,0.153-3.788,0.344-5.671,0.556
		c-0.253,7.855-5.868,14.791-13.906,16.393c-8.059,1.594-15.911-2.686-19.138-9.865c-1.821,0.522-3.635,1.073-5.443,1.653
		c1.312,7.767-2.849,15.684-10.432,18.83c-7.583,3.138-16.118,0.486-20.685-5.927c-1.694,0.869-3.366,1.777-5.032,2.693
		c2.792,7.36,0.269,15.927-6.548,20.48c-6.82,4.553-15.679,3.611-21.412-1.76c-1.498,1.19-2.962,2.401-4.421,3.633
		c4.145,6.67,3.343,15.544-2.45,21.339c-5.793,5.79-14.664,6.597-21.334,2.453c-1.239,1.454-2.45,2.926-3.641,4.421
		c5.374,5.731,6.313,14.595,1.765,21.41c-4.561,6.817-13.125,9.342-20.48,6.556c-0.924,1.656-1.821,3.33-2.704,5.03
		c6.414,4.561,9.073,13.099,5.93,20.68c-3.136,7.588-11.058,11.746-18.828,10.434c-0.572,1.806-1.13,3.62-1.653,5.436
		c7.187,3.227,11.461,11.092,9.862,19.141c-1.599,8.041-8.533,13.655-16.396,13.906c-0.207,1.886-0.396,3.775-0.546,5.676
		c7.648,1.777,13.355,8.636,13.355,16.833s-5.708,15.052-13.358,16.833c0.153,1.901,0.342,3.788,0.548,5.668
		c7.863,0.256,14.796,5.873,16.396,13.912c1.599,8.051-2.675,15.906-9.862,19.138c0.522,1.821,1.081,3.635,1.653,5.438
		c7.77-1.309,15.692,2.848,18.828,10.432c3.143,7.585,0.483,16.124-5.93,20.695c0.882,1.685,1.78,3.358,2.704,5.024
		c7.355-2.792,15.917-0.269,20.48,6.551c4.556,6.815,3.609,15.679-1.765,21.412c1.19,1.488,2.401,2.96,3.641,4.419
		c6.67-4.145,15.541-3.343,21.334,2.453c5.793,5.793,6.595,14.665,2.45,21.334c1.459,1.234,2.923,2.442,4.421,3.632
		c5.733-5.366,14.597-6.308,21.412-1.757c6.817,4.554,9.34,13.123,6.548,20.48c1.666,0.918,3.337,1.821,5.032,2.693
		c4.567-6.406,13.102-9.071,20.68-5.925c7.588,3.144,11.744,11.063,10.432,18.83c1.813,0.577,3.627,1.121,5.448,1.653
		c3.227-7.187,11.079-11.464,19.138-9.87c8.039,1.606,13.653,8.538,13.906,16.4c1.884,0.205,3.767,0.396,5.671,0.554
		c1.777-7.656,8.636-13.363,16.833-13.363s15.058,5.708,16.838,13.363c1.896-0.158,3.785-0.349,5.668-0.554
		c0.248-7.862,5.865-14.794,13.909-16.4c8.057-1.594,15.906,2.683,19.133,9.87c1.826-0.533,3.64-1.076,5.441-1.653
		c-1.307-7.767,2.851-15.686,10.429-18.83c7.588-3.146,16.129-0.481,20.688,5.925c1.692-0.872,3.363-1.775,5.035-2.693
		c-2.789-7.358-0.266-15.927,6.551-20.48c6.815-4.551,15.679-3.614,21.41,1.757c1.49-1.19,2.962-2.398,4.421-3.632
		c-4.147-6.67-3.343-15.542,2.453-21.334c5.793-5.795,14.665-6.597,21.337-2.447c1.237-1.459,2.445-2.937,3.635-4.424
		c-5.371-5.733-6.311-14.597-1.762-21.409c4.556-6.823,13.125-9.345,20.478-6.554c0.923-1.666,1.829-3.34,2.704-5.024
		c-6.417-4.571-9.071-13.109-5.925-20.695c3.13-7.583,11.053-11.741,18.822-10.424c0.569-1.811,1.131-3.625,1.656-5.446
		c-7.19-3.226-11.464-11.086-9.86-19.138c1.594-8.039,8.528-13.655,16.39-13.906c0.205-1.886,0.396-3.772,0.549-5.674
		C492.35,315.052,486.64,308.196,486.64,300z M300,454.711c-85.446,0-154.718-69.266-154.718-154.711
		c0-85.446,69.272-154.718,154.718-154.718c85.445,0,154.718,69.272,154.718,154.718C454.718,385.445,385.445,454.711,300,454.711z"
		/>
	<path d="M300,443.644c-79.208,0-143.645-64.438-143.645-143.644c0-79.208,64.437-143.649,143.645-143.649
		S443.645,220.792,443.645,300C443.645,379.205,379.208,443.644,300,443.644z M300,165.812
		c-73.989,0-134.187,60.195-134.187,134.188c0,73.988,60.197,134.183,134.187,134.183S434.186,373.988,434.186,300
		C434.186,226.008,373.989,165.812,300,165.812z"/>
	<g>
		<g>
			<path d="M349.4,369.092h-24.359l-24.811-74.435l-24.807,74.435h-24.361l-36.425-118.596h31.414l19.127,73.299l24.125-73.299
				h21.622l24.359,73.299l19.122-73.299h31.186L349.4,369.092z"/>
		</g>
	</g>
</g>
</svg>
