<?xml version="1.0" encoding="utf-8"?>
<!-- Generator: Adobe Illustrator 16.0.0, SVG Export Plug-In . SVG Version: 6.00 Build 0)  -->
<!DOCTYPE svg PUBLIC "-//W3C//DTD SVG 1.1//EN" "http://www.w3.org/Graphics/SVG/1.1/DTD/svg11.dtd">
<svg version="1.1" id="Layer_1" xmlns="http://www.w3.org/2000/svg" xmlns:xlink="http://www.w3.org/1999/xlink" x="0px" y="0px"
	 width="600px" height="600px" viewBox="0 0 600 600" enable-background="new 0 0 600 600" xml:space="preserve">
<g>
	<g>
		<path fill="#009DDC" d="M460.392,260.387c0,88.585-71.808,160.395-160.392,160.395c-88.582,0-160.393-71.809-160.393-160.395
			C139.607,171.815,211.418,100,300,100C388.584,100,460.392,171.815,460.392,260.387z"/>
		<g>
			<path fill="#DEDFE0" d="M337.985,190.229l-13.379,8.964l-5.144,22.419l-7.929-6.295l-6.075,25.885l-6.624-9.518l-12.979,37.845
				l-7.408-7.473l-5.611,17.749l-4.35-5.727l-16.347,33.876l-6.895-7.369l-5.178,13.624l-12.254-21.96l-3.06,3.32l-4.349-3.312
				l-2.11,3.572l-15.959-12.248l-3.832-8.415c0,0-9.285-9.795-9.39-13.643c-0.104-3.846-3.22-8.473-0.119-20.345
				c3.113-11.886,13.711-19.008,19.195-21.39c5.481-2.374,18.584-6.209,24.982-10.236c6.395-4.02,35.881-24.854,38.254-24.854
				c2.082,0,33.296-5.572,33.296-5.572l-3.821,7.953L337.985,190.229z"/>
			<polygon fill="#808285" points="237.89,270.091 245,285.937 245,300.743 240.08,313.79 231.625,297.573 			"/>
			<path fill="#DEDFE0" d="M324.606,199.193c12.687,6.038,39.459,15.673,44.96,18.225c7.495,3.468,20.852,12.342,22.117,13.892
				c0.993,1.208,3.474,24.669,4.021,25.765c0.547,1.097-10.965,18.637-11.697,26.501c-0.723,7.856,3.475,18.277,2.924,20.659
				c-0.546,2.371-8.064,27.605-8.064,27.605L377.434,337h-15.111l2.863-6.618l5.668-5.532l3.046-23.296l-7.661-4.973l-2.036,11.41
				l-13.616,25.124l-1.434,8.098l-15.585-0.327l4.236-9.62c0,0,3.988-4.974,4.896-6.436c0.917-1.463,6.993-17.258,6.993-17.258
				l-2.212-14.123l0.357-9.373l-20.85,9.586l-4.019-5.316l-17.219,4.509L312.67,305h-6.952l4.361,5h-7.089l3.913,11.003
				l-6.062,0.782l-3.466,10.507L294.99,337h-15.159l4.771-4.981l3.077-12.476l-4.694-8.597l-2.862,3.891l0.087,5.292l-5.225,2.06
				l-1.974,10.935L269.434,342h-14.599l5.222-10.204l3.225-15.163l-3.383-14.007l-6.411-5.274l12.023-56.722L324.606,199.193z"/>
			<path fill="#F1F1F2" d="M322.114,211.908l2.753-13.278c0,0,42.81,15.362,66.797,32.658l2.842,17.856
				c0,0-17.193-14.812-23.522-19.096C364.653,225.774,322.114,211.908,322.114,211.908z"/>
			<polygon fill="#808285" points="256,299.965 269.285,275.131 273.239,279.751 278.254,263.294 285.263,268.938 298.934,233.37 
				305.459,241.203 310.525,216.922 319.771,221.154 324.867,200.623 330.74,201.57 322.114,231.729 313.815,225.696 
				307.707,252.798 300.343,244.135 287.337,279.587 280.604,272.527 274.647,289.938 269.479,284.137 264.305,301.495 			"/>
			<polygon fill="#808285" points="338.891,268.938 326.989,279.778 305.041,284.92 301.342,290.263 322.971,288.348 
				327.525,293.692 346.203,284.826 342.331,278.415 			"/>
			<path fill="#808285" d="M347.886,287.148l1.763,20.451c0,0-5.693,13.127-6.871,15.957c-1.174,2.811-5.153,5.82-5.153,5.82
				L335.149,337h13.288l2.148-6.698l11.763-22.786l4.76-9.217L347.886,287.148z"/>
			<path fill="#808285" d="M260.081,306.859l1.498-6.143l3.932-0.751c0,0,2.716,6.105,3.337,6.105c0.631,0,5.8-4.386,5.8-4.386
				l3.606,16.921l-4.075,3.6l-1.168,12.9l-4.475,7.625c0,0-14.097-0.152-13.626,0c0.467,0.159,5.146-9.004,5.146-9.004l2.75-13.761
				L260.081,306.859z"/>
			<path fill="#F1F1F2" d="M332.461,190.52L304.73,194h-23.497c0,0-26.225,18.582-44.374,23.756
				c-18.142,5.166-48.111,24.842-44.412,41.27l-4.791-7.625c0,0-3.131-25.913,27.362-34.509
				c30.492-8.597,56.409-32.354,56.409-32.354l33.296-5.486l-2.347,7.426l35.608,1.067L332.461,190.52z"/>
			<path d="M271.265,342h-19.852l5.996-11.385l2.995-13.999l-3.036-12.489l-3.828-3.718l3.66-4.14l5.228,5.228l3.727,15.983
				l-3.448,13.293L260.843,332h6.76l2.693-1.718l2.165-12.027l3.169-1.983l-4.207-12.462l5.506-1.641l6.181,4.23l7.525,14.132
				l-3.394,11.432l5.714,0.036l1.729-1.302l3.981-13.021l4.136,1.061L298.843,310h6.668l-4.36-12h6.551l-6.359-9.117l22.771-4.427
				l3.756,5.328l19.663-8.952l2.768,12.359l2.285,14.651l-0.271,0.717c-1.855,4.831-6.271,16.233-7.228,17.757
				c-0.874,1.399-3.925,1.323-4.854,2.482L337.829,332h8.974l1.096-3.678l13.617-23.07l2.736-14.1l12.645,9.284l-3.365,26.738
				l-5.816,3.346l-1.603,1.48h8.969l1.072-1.98c2.559-9.557,7.474-26.01,8.021-28.301c0.015-0.71-0.522-1.954-0.956-3.756
				c-1.05-4.399-2.492-9.924-2.011-15.142c0.521-5.574,5.4-14.326,8.953-20.889c1.047-1.924,2.204-3.948,2.65-4.96
				c-0.24-1.172-0.566-3.501-1.308-9.185c-0.635-4.879-1.682-12.82-2.221-14.932c-2.33-2.001-14.056-9.741-20.896-12.913
				c-1.997-0.923-7.249-2.934-13.327-5.275c-10.559-4.074-23.688-9.14-31.659-12.933l2.415-5.075
				c7.781,3.701,20.8,8.728,31.264,12.765c6.425,2.476,11.504,4.435,13.674,5.442c7.186,3.332,21.303,12.46,23.104,14.651
				c0.904,1.101,4.479,26.556,4.479,26.556s-1.442,5.443-3.234,8.782c-2.929,5.445-7.884,14.542-8.293,18.981
				c-0.401,4.291,0.915,9.793,1.874,13.8c0.911,3.807,1.336,5.711,0.991,7.222c-0.542,2.35-7.465,26.267-8.059,28.48L379.779,342
				h-21.243l4.119-12.074l5.505-5.79l2.732-21.027l-2.673-1.618l-1.335,7.507l-13.611,23.123L351.498,342H329.3l6.312-15
				c1.503-1,4.106-3.942,4.707-4.911c0.555-0.975,3.683-8.194,6.478-15.456l-2.134-13.336l0.194-4.906l-18.747,8.689l-4.289-5.628
				l-11.664,4.379L317.633,310h-7.355l4.359,1h-7.492l3.86,11.771l-7.984,1.314l-2.971,9.734l-3.026,8.18h-20.893l5.827-10.17
				l2.76-11.481l-1.738-2.943l0.08,4.578l-5.549,2.223l-1.772,9.588L271.265,342z"/>
			<polygon points="280.151,312.631 275.882,304.7 268.525,309.753 263.673,302.86 260.098,304.324 257.972,299.124 
				265.696,295.965 269.925,301.975 278.152,296.252 284.871,310 			"/>
			<polygon points="362.349,308.968 339.752,279.473 335.149,255.681 344.963,277.031 344.027,275.689 371.914,296.777 			"/>
			<path d="M240.553,320.845l-13.295-23.833l-2.174,2.353l-3.867-2.958l-2.12,3.581l-19.026-14.603l-3.932-8.622
				c-3.169-3.375-10.07-16.869-10.315-17.983c-0.793-3.559-1.992-8.939,0.457-18.31c4.089-15.614,19.095-22.516,20.796-23.259
				c1.878-0.818,4.498-1.744,7.533-2.832c5.807-2.08,13.035-4.666,17.065-7.202c1.959-1.232,6.244-4.148,11.201-7.527
				c22.679-15.451,26.543-17.729,28.518-17.758c1.924-0.1,21.145-3.445,32.839-5.525l5.401-0.969l-4.433,9.232l41.002,3.472
				l-19.108,12.808l-5.886,25.676l-7.955-6.312l-6.503,27.713l-7.062-10.153l-12.645,36.896l-7.318-7.389l-5.847,18.497
				l-4.855-6.406l-16.132,33.438l-6.617-7.071L240.553,320.845z M228.38,287.5l11.205,20.073l4.638-12.184l7.168,7.656
				l16.561-34.324l3.844,5.062l5.376-17.01l7.494,7.564l13.31-38.819l6.187,8.903l5.646-24.063l7.907,6.284l4.399-19.16l7.658-5.129
				l-33.169-2.811l3.212-6.687c-9.449,1.668-24.812,4.346-27.965,4.629c-2.719,1.071-17.137,10.896-25.811,16.808
				c-5.004,3.412-9.325,6.357-11.375,7.645c-4.554,2.86-12.104,5.563-18.164,7.733c-2.938,1.043-5.472,1.953-7.188,2.704
				c-5.229,2.261-14.822,8.924-17.59,19.511c-2.109,8.056-1.169,12.277-0.412,15.674c0.298,1.341,4.76,10.957,9.23,15.678
				l0.324,0.34l3.738,8.197l12.885,9.893l2.108-3.568l4.826,3.683L228.38,287.5z"/>
			<path d="M226.844,255.58c0,0,4.643-7.462,2.6-14.177c-2.045-6.717-17.824-9.675-17.824-9.675s6.677,4.844,7.953,9.386
				c1.514,5.372-1.021,8.521-1.021,8.521s-0.596,3.774,3.021,5.944C225.197,257.734,226.844,255.58,226.844,255.58z"/>
			<path d="M218.772,264.478l-3.754,10.512c0,0,5.245,0.916,6.175-1.886C222.805,268.276,218.772,264.478,218.772,264.478z"/>
			<path d="M236.859,252.94l19.433-9.533c0,0-0.261,7.763-4.357,9.295C243.898,255.703,236.859,252.94,236.859,252.94z"/>
			<polygon points="226.574,289.582 232.013,282.685 237.89,270.091 236.911,285.539 233.479,299.775 			"/>
			<path d="M390.655,226.868c11.342,8.001,29.59,27.231,23.198,40.839c-12.452,26.517-53.932-10.727-53.932-10.727l-10.1-3.962
				l4.405-2.028l-5.615-5.488l5.492,1.186l-0.715-7.999l3.941,6.813l1.678-3.465l1.311,6.682l2.866-4.057l0.517,10.196
				c0,0,30.415,26.826,42.302,13.871c9.651-10.515-12.727-30.394-12.727-30.394L390.655,226.868z"/>
		</g>
	</g>
	<g>
		<path d="M190.098,499.79h-5.836l-3.525-20.613l-3.734,20.613h-5.781l-6.205-35.019h6.467l3.156,23.136l3.889-23.136h5.049
			l3.574,23.136l3.367-23.136h6.047L190.098,499.79z"/>
		<path d="M214.916,499.79v-14.355h-7.309v14.355h-6.52v-35.019h6.52v14.827h7.309v-14.827h6.574v35.019H214.916z"/>
		<path d="M228.064,499.79v-35.019h16.721v5.624h-10.199v8.678h7.045v5.153h-7.045v9.729h10.199v5.835H228.064z"/>
		<path d="M266.607,500c-2.576,0-3.574-2.105-3.574-5.152v-6.576c0-1.629-0.842-2.996-2.682-2.996h-3.42v14.514h-6.52v-35.019
			h10.781c4.783,0,7.992,2.732,7.992,7.624v4.941c0,2.628-1.211,4.576-3.945,5.416c2.734,0.735,4.049,3.051,4.049,5.311v6.416
			c0,1.63,0.473,2.734,1.262,3.577V500H266.607z M262.822,472.657c0-1.579-0.684-2.524-2.314-2.524h-3.576v10.308h3.314
			c1.684,0,2.576-0.896,2.576-2.79V472.657z"/>
		<path d="M275.602,499.79v-35.019h16.721v5.624h-10.201v8.678h7.045v5.153h-7.045v9.729h10.201v5.835H275.602z"/>
		<path d="M321.086,499.79h-5.836l-3.521-20.613l-3.734,20.613h-5.785l-6.203-35.019h6.467l3.156,23.136l3.889-23.136h5.049
			l3.576,23.136l3.365-23.136h6.047L321.086,499.79z"/>
		<path d="M332.078,499.79v-35.019h6.521v35.019H332.078z"/>
		<path d="M356.582,470.555v29.235h-6.574v-29.235h-6.465v-5.784h19.453v5.784H356.582z"/>
		<path d="M381.717,499.79v-14.355h-7.309v14.355h-6.518v-35.019h6.518v14.827h7.309v-14.827h6.574v35.019H381.717z"/>
		<path d="M407.484,499.79l-1.158-6.888h-6.203l-1.262,6.888h-6.1l7.047-35.019h7.307l6.994,35.019H407.484z M403.381,474.234
			l-2.365,13.513h4.471L403.381,474.234z"/>
		<path d="M418.688,499.79v-35.019h6.518v29.234h9.781v5.785H418.688z"/>
	</g>
</g>
</svg>
