<?xml version="1.0" encoding="utf-8"?>
<!-- Generator: Adobe Illustrator 16.0.0, SVG Export Plug-In . SVG Version: 6.00 Build 0)  -->
<!DOCTYPE svg PUBLIC "-//W3C//DTD SVG 1.1//EN" "http://www.w3.org/Graphics/SVG/1.1/DTD/svg11.dtd">
<svg version="1.1" id="Layer_1" xmlns="http://www.w3.org/2000/svg" xmlns:xlink="http://www.w3.org/1999/xlink" x="0px" y="0px"
	 width="600px" height="600px" viewBox="0 0 600 600" enable-background="new 0 0 600 600" xml:space="preserve">
<g>
	<path d="M300.176,488.889h-2.557c-1.682,0-2.063,2.064-2.063,3.746v1.832c0,1.686,0.382,5.534,2.063,5.534h2.557
		c1.687,0,2.047-3.848,2.047-5.534v-1.832C302.223,490.953,301.862,488.889,300.176,488.889z"/>
	<path d="M298.889,466.583h-0.875c-1.682,0-2.458,0.845-2.458,2.531v9.444c0,1.68,1.063,2.441,2.745,2.441h0.875
		c1.687,0,3.047-0.761,3.047-2.441v-9.444C302.223,467.428,300.575,466.583,298.889,466.583z"/>
	<path d="M302.223,430.775c0-1.632-1.457-3.108-2.688-3.108h-0.833c-1.23,0-3.146,1.476-3.146,3.108v24.056
		c0,1.632,1.916,3.169,3.146,3.169h0.833c1.23,0,2.688-1.537,2.688-3.169V430.775z"/>
	<path d="M295.556,385.215v32.148c0,1.684,1.063,3.859,2.745,3.859h0.875c1.687,0,3.047-2.175,3.047-3.859v-32.148
		c0-0.61,0.831-0.771,0.521-0.771h-6.009C296.426,384.444,295.556,384.605,295.556,385.215z"/>
	<path d="M299.301,162.222h0.875c1.687,0,2.047-0.916,2.047-2.6v-20.684c0-1.682-1.36-3.383-3.047-3.383h-0.875
		c-1.682,0-2.745,1.701-2.745,3.383v20.684C295.556,161.307,297.619,162.222,299.301,162.222z"/>
	<path d="M301.832,119.177c0-1.271-1.029-2.302-2.299-2.302h-1.287c-1.27,0-2.301,1.03-2.301,2.302v7.41
		c0,1.271,1.031,2.302,2.301,2.302h1.287c1.27,0,2.299-1.03,2.299-2.302V119.177z"/>
	<path d="M301.76,102.243c0-1.238-1.004-2.243-2.242-2.243h-1.256c-1.238,0-2.244,1.005-2.244,2.243v4.889
		c0,1.238,1.006,2.243,2.244,2.243h1.256c1.238,0,2.242-1.005,2.242-2.243V102.243z"/>
	<path d="M107.234,295.556h-3.831c-1.685,0-3.403,1.868-3.403,3.153v0.665c0,1.286,1.719,2.958,3.403,2.958h3.831
		c1.683,0,3.877-1.673,3.877-2.958v-0.665C111.111,297.423,108.917,295.556,107.234,295.556z"/>
	<path d="M133.333,298.814c0-1.347-1.396-3.259-3.103-3.259h-9.445c-1.706,0-3.008,1.912-3.008,3.259v0.497
		c0,1.347,1.302,3.021,3.008,3.021h9.445c1.706,0,3.103-1.674,3.103-3.021V298.814z"/>
	<path d="M171.333,299.374v-0.665c0-1.286-1.567-3.153-3.249-3.153h-23.979c-1.68,0-3.105,1.868-3.105,3.153v0.665
		c0,1.286,1.426,2.958,3.105,2.958h23.979C169.766,302.333,171.333,300.66,171.333,299.374z"/>
	<path d="M217.777,298.019c0-1.721-2.324-2.463-4.262-2.463h-31.287c-1.936,0-4.451,1.742-4.451,3.463v0.146
		c0,1.723,2.516,3.058,4.451,3.058h31.287c1.938,0,4.262-2.335,4.262-4.058V298.019z"/>
	<path d="M425.124,302.333c1.684,0,3.543-1.673,3.543-2.958v-0.665c0-1.286-1.859-3.153-3.543-3.153h-49.82l4.039,6.777H425.124z"/>
	<path d="M460.929,295.556h-21.684c-1.68,0-3.689,1.868-3.689,3.153v0.665c0,1.286,2.01,2.958,3.689,2.958h21.684
		c1.687,0,3.516-2.436,3.516-3.721v-0.666C464.444,296.661,462.615,295.556,460.929,295.556z"/>
	<path d="M482,298.771c0-1.324-1.605-3.216-3.02-3.216h-2.689c-1.415,0-2.958,1.892-2.958,3.216v0.583
		c0,1.324,1.543,2.979,2.958,2.979h2.689c1.414,0,3.02-1.655,3.02-2.979V298.771z"/>
	<path d="M495.078,295.556h-2.25c-1.688,0-3.939,1.868-3.939,3.153v0.665c0,1.286,2.251,2.958,3.939,2.958h2.25
		c1.682,0,4.922-1.673,4.922-2.958v-0.665C500,297.423,496.76,295.556,495.078,295.556z"/>
	<path d="M164.766,433.485c-1.191-1.191-3.138-1.191-4.332,0l-1.291,1.293c-1.191,1.191-1.191,3.14,0,4.332l0.616,0.614
		c1.196,1.193,3.139,1.193,4.33,0l1.295-1.293c1.191-1.189,1.191-3.138,0-4.33L164.766,433.485z"/>
	<path d="M181.397,416.855c-1.193-1.191-3.14-1.191-4.331,0l-6.676,6.675c-1.189,1.187-1.189,3.138,0,4.327l0.616,0.621
		c1.193,1.191,3.141,1.191,4.334,0l6.673-6.677c1.191-1.191,1.191-3.14,0-4.332L181.397,416.855z"/>
	<path d="M209.117,390.371l-0.619-0.616c-1.191-1.196-3.138-1.196-4.325,0l-17.662,17.656c-1.189,1.191-1.189,3.138,0,4.327
		l0.62,0.623c1.188,1.187,3.136,1.187,4.327,0l17.659-17.661C210.309,393.511,210.309,391.561,209.117,390.371z"/>
	<path d="M213.661,385.03l0.62,0.401c1.189,1.188,3.137,1.517,4.328,0.328l1.645-1.315h-7.268
		C213.136,384.444,213.359,384.727,213.661,385.03z"/>
	<path d="M353.386,250.434l37.493-37.491c1.188-1.196,1.188-3.14-0.007-4.332l-0.611-0.619c-1.194-1.191-3.143-1.191-4.336,0
		l-37.485,37.489c-0.575,0.575-0.865,1.326-0.885,2.085l1.788,3.097C350.543,251.604,352.283,251.534,353.386,250.434z"/>
	<path d="M395.911,202.339l0.616,0.612c1.191,1.194,3.141,1.194,4.33,0l15.332-15.328c1.191-1.189,1.191-3.138,0-4.327l-0.616-0.619
		c-1.189-1.191-3.141-1.191-4.332,0l-15.33,15.328C394.72,199.197,394.72,201.146,395.911,202.339z"/>
	<path d="M421.854,177.635c1.191,1.189,3.138,1.189,4.325,0l2.808-2.809c1.191-1.191,1.191-3.138,0-4.332l-0.616-0.616
		c-1.191-1.191-3.138-1.191-4.329,0l-2.807,2.806c-1.188,1.191-1.188,3.145,0,4.329L421.854,177.635z"/>
	<path d="M434.418,165.069c1.191,1.191,3.141,1.191,4.328,0l1.593-1.591c1.188-1.189,1.188-3.136,0-4.332l-0.619-0.616
		c-1.191-1.191-3.14-1.191-4.333,0l-1.589,1.591c-1.191,1.189-1.191,3.138,0,4.332L434.418,165.069z"/>
	<path d="M160.434,164.774c1.194,1.193,3.141,1.193,4.332,0l0.618-0.619c1.191-1.191,1.191-3.14,0-4.33l-1.295-1.295
		c-1.191-1.191-3.134-1.191-4.33,0l-0.616,0.616c-1.191,1.196-1.191,3.143,0,4.332L160.434,164.774z"/>
	<path d="M177.066,181.408c1.191,1.188,3.138,1.188,4.331,0l0.616-0.621c1.191-1.191,1.191-3.14,0-4.332l-6.673-6.673
		c-1.193-1.194-3.141-1.194-4.334,0l-0.616,0.618c-1.189,1.189-1.189,3.136,0,4.325L177.066,181.408z"/>
	<path d="M204.171,208.507c1.188,1.189,3.136,1.189,4.327,0l0.619-0.616c1.191-1.191,1.191-3.143,0-4.332L191.458,185.9
		c-1.191-1.193-3.14-1.193-4.327,0l-0.62,0.617c-1.189,1.191-1.189,3.142,0,4.333L204.171,208.507z"/>
	<path d="M214.281,213.049l-0.62,0.623c-1.189,1.187-1.189,3.136,0,4.327l22.734,22.734c1.191,1.191,3.138,1.191,4.331,0
		l0.614-0.621c1.196-1.187,1.196-3.138,0-4.33l-22.731-22.734C217.418,211.86,215.471,211.86,214.281,213.049z"/>
	<path d="M251.078,245.521c-1.193-1.191-3.14-1.191-4.329,0l-0.618,0.618c-1.189,1.191-1.189,3.138,0,4.33l2.428,2.428l3.622-6.271
		L251.078,245.521z"/>
	<path d="M385.925,390.708c1.193,1.193,3.142,0.972,4.336-0.221l0.611-0.729c1.194-1.191,1.194-2.75,0-3.938l-1.758-1.374h-9.892
		L385.925,390.708z"/>
	<path d="M400.857,395.302c-1.189-1.191-3.139-1.191-4.33,0l-0.616,0.618c-1.191,1.191-1.191,3.141,0,4.325l15.33,15.336
		c1.191,1.191,3.143,1.191,4.332,0l0.616-0.619c1.191-1.189,1.191-3.14,0-4.329L400.857,395.302z"/>
	<path d="M426.179,420.625c-1.188-1.189-3.134-1.189-4.323,0l-0.621,0.619c-1.191,1.189-1.188,3.138,0,4.327l2.807,2.81
		c1.191,1.189,3.138,1.189,4.329,0l0.616-0.616c1.191-1.191,1.191-3.145,0-4.333L426.179,420.625z"/>
	<path d="M438.746,433.188c-1.188-1.189-3.137-1.189-4.328,0l-0.62,0.621c-1.191,1.189-1.191,3.138,0,4.327l1.589,1.589
		c1.193,1.193,3.142,1.193,4.333,0l0.619-0.614c1.188-1.191,1.188-3.14,0-4.332L438.746,433.188z"/>
	<path d="M358.871,432.748c-0.642-1.556-2.441-2.298-4.001-1.654l-0.801,0.332c-1.561,0.646-2.303,2.446-1.66,4.004l0.822,1.983
		c0.646,1.558,2.441,2.3,3.999,1.66l0.806-0.338c1.562-0.64,2.305-2.444,1.66-4L358.871,432.748z"/>
	<path d="M354.208,421.489l-2.368-5.716c-0.645-1.556-2.445-2.302-4.001-1.658l-0.804,0.334c-1.558,0.647-2.302,2.446-1.66,4.002
		l2.368,5.716c0.643,1.552,2.443,2.3,3.999,1.656l0.812-0.332C354.108,424.844,354.853,423.042,354.208,421.489z"/>
	<path d="M347.383,405.02l-5.712-13.802c-0.646-1.558-2.445-2.3-4.002-1.658l-0.807,0.334c-1.554,0.643-2.301,2.446-1.658,4
		l5.716,13.804c0.646,1.554,2.446,2.298,4,1.656l0.812-0.336C347.285,408.375,348.029,406.571,347.383,405.02z"/>
	<path d="M334.73,385.195l0.81-0.117c0.465-0.193,0.845-0.634,1.148-0.634h-5.705C331.765,386.667,333.342,385.772,334.73,385.195z"
		/>
	<path d="M266.66,210.124c-0.648-1.556-2.443-2.298-4-1.658l-0.809,0.338c-1.555,0.643-2.303,2.441-1.656,3.998l4.812,11.612
		l4.405-7.641L266.66,210.124z"/>
	<path d="M252.283,193.705l3.235,7.808c0.645,1.556,2.446,2.3,3.997,1.658l0.812-0.334c1.554-0.647,2.298-2.446,1.653-4.002
		l-3.233-7.808c-0.646-1.558-2.443-2.3-3.998-1.662l-0.809,0.341C252.383,190.343,251.639,192.144,252.283,193.705z"/>
	<path d="M244.972,176.053l2.635,6.35c0.645,1.558,2.441,2.305,3.995,1.658l0.812-0.334c1.554-0.645,2.301-2.443,1.653-4
		l-2.63-6.352c-0.643-1.554-2.443-2.3-3.997-1.658l-0.812,0.336C245.074,172.697,244.327,174.497,244.972,176.053z"/>
	<path d="M240.391,164.989c0.645,1.558,2.441,2.3,4,1.656l0.805-0.334c1.559-0.645,2.303-2.443,1.658-4.001l-0.605-1.463
		c-0.645-1.56-2.446-2.305-4.002-1.656l-0.808,0.336c-1.554,0.64-2.302,2.441-1.655,3.998L240.391,164.989z"/>
	<path d="M167.443,353.455c-0.646-1.554-2.445-2.301-3.999-1.656l-1.99,0.823c-1.554,0.642-2.301,2.443-1.658,4l0.339,0.81
		c0.64,1.554,2.441,2.3,3.997,1.656l1.99-0.825c1.554-0.645,2.298-2.443,1.655-4L167.443,353.455z"/>
	<path d="M180.419,344.766l-5.714,2.368c-1.554,0.645-2.305,2.443-1.66,3.998l0.336,0.809c0.645,1.558,2.443,2.3,4,1.656
		l5.716-2.365c1.559-0.645,2.305-2.443,1.66-4.002l-0.339-0.805C183.776,344.865,181.975,344.123,180.419,344.766z"/>
	<path d="M191.174,340.312c-1.558,0.645-2.303,2.441-1.655,4l0.332,0.81c0.645,1.554,2.443,2.298,4.004,1.656l0.661-0.273
		l5.751-9.957L191.174,340.312z"/>
	<path d="M388.743,266.046c1.557-0.642,2.301-2.441,1.656-3.997l-0.334-0.81c-0.643-1.554-2.444-2.298-4.002-1.658l-25.478,10.558
		l3.526,6.111L388.743,266.046z"/>
	<path d="M400.035,261.374l7.81-3.235c1.557-0.645,2.301-2.446,1.654-4l-0.332-0.808c-0.647-1.558-2.45-2.305-4-1.66l-7.812,3.238
		c-1.554,0.643-2.298,2.444-1.658,4l0.337,0.808C396.68,261.271,398.479,262.018,400.035,261.374z"/>
	<path d="M415.141,251.799c0.645,1.559,2.444,2.303,4,1.663l6.354-2.632c1.554-0.647,2.3-2.448,1.653-4.002l-0.334-0.81
		c-0.643-1.551-2.446-2.298-3.998-1.656l-6.352,2.632c-1.556,0.645-2.301,2.441-1.656,4L415.141,251.799z"/>
	<path d="M432.559,244.588c0.645,1.556,2.441,2.298,3.997,1.658l1.465-0.607c1.557-0.647,2.308-2.446,1.66-4l-0.336-0.81
		c-0.646-1.558-2.441-2.3-4-1.656l-1.465,0.605c-1.556,0.645-2.302,2.443-1.655,4L432.559,244.588z"/>
	<path d="M245.412,431.426l-0.807-0.332c-1.555-0.645-3.355,0.098-4,1.654l-0.822,1.992c-0.646,1.551,0.102,3.355,1.655,3.995
		l0.81,0.338c1.557,0.64,3.355-0.102,4.002-1.66l0.82-1.983C247.717,433.872,246.969,432.072,245.412,431.426z"/>
	<path d="M252.445,414.449l-0.807-0.334c-1.557-0.647-3.355,0.102-4,1.656l-2.367,5.718c-0.645,1.554,0.102,3.355,1.655,4.001
		l0.808,0.332c1.559,0.645,3.357-0.104,4.002-1.656l2.369-5.716C254.75,416.895,254.002,415.096,252.445,414.449z"/>
	<path d="M262.617,389.894l-0.808-0.334c-1.556-0.643-3.356,0.1-4.001,1.66l-5.719,13.8c-0.643,1.552,0.102,3.355,1.656,3.998
		l0.813,0.336c1.554,0.642,3.353-0.102,3.999-1.656l5.717-13.804C264.918,392.339,264.171,390.536,262.617,389.894z"/>
	<path d="M263.941,384.857l0.807,0.558c1.389,0.575,2.965,1.252,3.746-0.97h-5.701C263.095,384.444,263.475,384.666,263.941,384.857
		z"/>
	<path d="M339.284,212.802c0.642-1.556-0.101-3.355-1.658-3.998l-0.806-0.338c-1.556-0.64-3.354,0.102-3.999,1.658l-2.876,6.94
		l4.41,7.641L339.284,212.802z"/>
	<path d="M339.153,202.836l0.808,0.334c1.554,0.643,3.355-0.102,3.997-1.658l3.236-7.808c0.645-1.561-0.098-3.362-1.654-4
		l-0.81-0.341c-1.556-0.638-3.353,0.104-4.004,1.662l-3.233,7.808C336.852,200.391,337.598,202.189,339.153,202.836z"/>
	<path d="M347.066,183.724l0.809,0.336c1.557,0.646,3.355-0.1,4-1.658l2.635-6.35c0.643-1.556-0.104-3.355-1.66-4l-0.81-0.336
		c-1.554-0.643-3.353,0.104-3.997,1.658l-2.631,6.348C344.766,181.283,345.512,183.082,347.066,183.724z"/>
	<path d="M354.281,166.311l0.81,0.334c1.552,0.645,3.355-0.102,3.998-1.656l0.607-1.467c0.645-1.554-0.098-3.355-1.66-3.995
		l-0.806-0.336c-1.558-0.649-3.353,0.1-3.999,1.656l-0.607,1.463C351.979,163.867,352.726,165.666,354.281,166.311z"/>
	<path d="M164.132,239.173c-1.556-0.645-3.357,0.098-3.997,1.656l-0.339,0.81c-0.643,1.554,0.104,3.353,1.658,4l1.99,0.82
		c1.554,0.646,3.353-0.1,3.999-1.654l0.334-0.81c0.643-1.554-0.102-3.353-1.653-4L164.132,239.173z"/>
	<path d="M173.381,246.313l-0.336,0.812c-0.645,1.556,0.104,3.357,1.658,4.002l5.716,2.368c1.556,0.645,3.357-0.102,3.999-1.656
		l0.339-0.812c0.645-1.554-0.102-3.355-1.66-4l-5.716-2.365C175.824,244.015,174.025,244.759,173.381,246.313z"/>
	<path d="M191.174,257.947l13.803,5.716c1.556,0.647,3.353-0.1,3.997-1.656l0.339-0.81c0.64-1.556-0.104-3.355-1.658-4.001
		l-13.805-5.716c-1.556-0.645-3.354,0.102-3.999,1.658l-0.332,0.809C188.871,255.499,189.616,257.303,191.174,257.947z"/>
	<path d="M218.455,261.673c-1.559-0.647-3.357,0.1-4.004,1.658l-0.334,0.805c-0.645,1.554,0.1,3.355,1.655,4l19.362,8.017
		l3.524-6.109L218.455,261.673z"/>
	<path d="M405.167,346.586c1.55,0.642,3.353-0.102,4-1.656l0.332-0.808c0.646-1.556-0.098-3.357-1.654-4.001l-7.81-3.233
		c-0.341-0.144-0.692-0.207-1.04-0.219l5.584,9.674L405.167,346.586z"/>
	<path d="M422.816,353.896c1.552,0.646,3.355-0.1,3.998-1.656l0.334-0.81c0.646-1.552-0.1-3.355-1.653-4l-6.354-2.63
		c-1.556-0.645-3.355,0.102-3.997,1.654l-0.335,0.812c-0.645,1.556,0.101,3.355,1.656,4L422.816,353.896z"/>
	<path d="M435.348,359.086c1.556,0.645,3.353-0.102,3.997-1.656l0.336-0.81c0.645-1.556-0.104-3.357-1.66-4l-1.465-0.608
		c-1.556-0.64-3.353,0.1-3.997,1.656l-0.334,0.809c-0.646,1.554,0.1,3.355,1.655,4L435.348,359.086z"/>
	<path d="M335.35,460.224c-0.326-1.654-1.949-2.737-3.599-2.407l-0.861,0.169c-1.647,0.33-2.734,1.949-2.4,3.6l1.582,7.978
		c0.332,1.653,1.951,2.734,3.603,2.407l0.857-0.172c1.651-0.33,2.734-1.951,2.404-3.6L335.35,460.224z"/>
	<path d="M329.275,449.859l0.861-0.171c1.649-0.328,2.73-1.947,2.404-3.598l-1.007-5.052c-0.327-1.651-1.948-2.736-3.601-2.406
		l-0.859,0.169c-1.653,0.33-2.731,1.951-2.402,3.603l1.001,5.05C326.005,449.106,327.624,450.187,329.275,449.859z"/>
	<path d="M325.529,431.018l0.855-0.171c1.653-0.33,2.734-1.946,2.406-3.598l-2.932-14.733c-0.325-1.654-1.949-2.732-3.601-2.407
		l-0.853,0.174c-1.653,0.33-2.734,1.949-2.409,3.598l2.933,14.733C322.257,430.265,323.878,431.346,325.529,431.018z"/>
	<path d="M319.664,401.532l0.859-0.167c1.648-0.33,2.731-1.951,2.402-3.601l-1.06-5.336c-0.327-1.649-1.948-2.734-3.601-2.407
		l-0.856,0.172c-1.654,0.33-2.734,1.953-2.409,3.602l1.063,5.334C316.394,400.781,318.01,401.864,319.664,401.532z"/>
	<path d="M273.4,164.473l-0.859,0.174c-1.646,0.328-2.732,1.946-2.404,3.596l4.629,23.26c0.325,1.651,1.949,2.734,3.596,2.406
		l0.861-0.171c1.652-0.325,2.732-1.949,2.405-3.6l-4.627-23.255C276.673,165.228,275.05,164.147,273.4,164.473z"/>
	<path d="M269.694,145.844l-0.859,0.169c-1.647,0.328-2.732,1.949-2.402,3.598l0.813,4.098c0.33,1.649,1.946,2.732,3.601,2.406
		l0.859-0.173c1.651-0.323,2.734-1.947,2.404-3.598l-0.816-4.097C272.969,146.593,271.346,145.514,269.694,145.844z"/>
	<path d="M263.746,136.111c0.329,1.653,1.95,2.734,3.6,2.409l0.857-0.171c1.651-0.33,2.734-1.949,2.404-3.601l-1.202-6.052
		c-0.33-1.651-1.948-2.734-3.601-2.407l-0.854,0.171c-1.656,0.328-2.736,1.947-2.409,3.6L263.746,136.111z"/>
	<path d="M140.881,330.284c-0.327-1.651-1.946-2.736-3.598-2.407l-7.979,1.584c-1.647,0.332-2.73,1.949-2.405,3.603l0.174,0.857
		c0.326,1.651,1.947,2.732,3.599,2.407l7.975-1.588c1.651-0.328,2.734-1.947,2.405-3.601L140.881,330.284z"/>
	<path d="M157.832,330.922c1.651-0.328,2.734-1.953,2.402-3.598l-0.167-0.857c-0.328-1.653-1.949-2.734-3.601-2.406l-5.05,1.004
		c-1.653,0.33-2.736,1.947-2.406,3.603l0.169,0.855c0.33,1.649,1.946,2.734,3.603,2.409L157.832,330.922z"/>
	<path d="M171.623,328.182l14.729-2.932c1.652-0.328,2.737-1.949,2.405-3.6l-0.167-0.853c-0.33-1.654-1.949-2.739-3.601-2.407
		l-14.733,2.928c-1.651,0.328-2.732,1.946-2.406,3.6l0.171,0.857C168.349,327.424,169.972,328.509,171.623,328.182z"/>
	<path d="M205.076,314.393l-5.337,1.059c-1.651,0.332-2.734,1.949-2.402,3.601l0.165,0.859c0.332,1.647,1.951,2.732,3.603,2.407
		l5.337-1.063c1.648-0.328,2.731-1.949,2.404-3.598l-0.172-0.857C208.347,315.146,206.723,314.062,205.076,314.393z"/>
	<path d="M371.142,284.481l0.174,0.857c0.327,1.652,1.946,2.732,3.596,2.405l19.686-3.915c1.651-0.328,2.731-1.949,2.404-3.6
		l-0.169-0.857c-0.328-1.654-1.947-2.732-3.601-2.407l-19.686,3.915C371.898,281.209,370.816,282.83,371.142,284.481z"/>
	<path d="M404.957,277.754l0.173,0.857c0.328,1.651,1.949,2.734,3.601,2.406l23.26-4.626c1.646-0.33,2.732-1.949,2.402-3.6
		l-0.167-0.857c-0.328-1.654-1.953-2.734-3.604-2.404l-23.258,4.625C405.714,274.479,404.629,276.1,404.957,277.754z"/>
	<path d="M442.754,270.234l0.167,0.859c0.33,1.649,1.951,2.734,3.603,2.404l4.098-0.816c1.651-0.328,2.734-1.946,2.404-3.598
		l-0.172-0.857c-0.325-1.649-1.948-2.739-3.6-2.407l-4.096,0.814C443.507,266.964,442.426,268.583,442.754,270.234z"/>
	<path d="M460.519,267.591c0.33,1.656,1.955,2.732,3.601,2.409l6.053-1.205c1.655-0.33,2.734-1.951,2.406-3.598l-0.174-0.861
		c-0.325-1.649-1.944-2.732-3.596-2.404l-6.055,1.207c-1.651,0.325-2.732,1.944-2.406,3.596L460.519,267.591z"/>
	<path d="M210.165,433.974l-0.725-0.484c-1.404-0.938-3.312-0.558-4.247,0.842l-4.522,6.76c-0.934,1.399-0.552,3.312,0.849,4.249
		l0.725,0.486c1.399,0.936,3.312,0.556,4.249-0.846l4.516-6.76C211.946,436.821,211.564,434.911,210.165,433.974z"/>
	<path d="M221.028,417.708l-0.723-0.484c-1.397-0.936-3.312-0.558-4.247,0.844l-2.862,4.282c-0.935,1.4-0.556,3.31,0.847,4.245
		l0.727,0.486c1.402,0.936,3.312,0.558,4.25-0.844l2.857-4.284C222.812,420.558,222.433,418.646,221.028,417.708z"/>
	<path d="M237.188,393.529l-0.727-0.486c-1.4-0.935-3.312-0.553-4.25,0.844l-8.342,12.487c-0.936,1.402-0.553,3.312,0.847,4.25
		l0.725,0.486c1.402,0.938,3.312,0.556,4.247-0.844l8.347-12.493C238.969,396.378,238.59,394.464,237.188,393.529z"/>
	<path d="M241.417,386.072l0.728,0.26c1.399,0.935,3.309,0.888,4.244-0.514l1.142-1.374h-7.424
		C240.236,384.444,240.682,385.582,241.417,386.072z"/>
	<path d="M344.846,237.921l11.146-16.684c0.938-1.402,0.555-3.312-0.84-4.249l-0.731-0.486c-1.4-0.936-3.31-0.551-4.247,0.844
		l-10.762,16.113l3.333,5.777C343.57,239.112,344.347,238.667,344.846,237.921z"/>
	<path d="M359.027,209.611l0.728,0.486c1.399,0.939,3.31,0.556,4.245-0.844l13.175-19.716c0.935-1.399,0.553-3.312-0.843-4.249
		l-0.729-0.486c-1.404-0.936-3.312-0.558-4.247,0.846l-13.175,19.716C357.246,206.764,357.626,208.676,359.027,209.611z"/>
	<path d="M380.434,177.572l0.728,0.486c1.401,0.938,3.31,0.558,4.242-0.844l2.324-3.474c0.936-1.397,0.558-3.31-0.842-4.245
		l-0.729-0.488c-1.399-0.933-3.312-0.553-4.246,0.844l-2.32,3.475C378.652,174.727,379.034,176.636,380.434,177.572z"/>
	<path d="M390.403,162.654l0.728,0.488c1.397,0.931,3.31,0.555,4.244-0.844l3.43-5.135c0.938-1.396,0.555-3.312-0.845-4.245
		l-0.729-0.488c-1.399-0.936-3.307-0.554-4.244,0.846l-3.427,5.132C388.624,159.809,389.002,161.721,390.403,162.654z"/>
	<path d="M153.885,205.881l6.769,4.521c1.397,0.936,3.305,0.551,4.245-0.844l0.483-0.729c0.934-1.4,0.556-3.312-0.847-4.243
		l-6.76-4.525c-1.401-0.931-3.307-0.551-4.249,0.847l-0.486,0.727C152.105,203.036,152.484,204.946,153.885,205.881z"/>
	<path d="M181.159,220.419l0.483-0.725c0.939-1.397,0.561-3.312-0.842-4.245l-4.281-2.862c-1.4-0.933-3.312-0.556-4.247,0.844
		l-0.482,0.729c-0.939,1.4-0.558,3.312,0.843,4.247l4.283,2.86C178.312,222.198,180.224,221.825,181.159,220.419z"/>
	<path d="M205.341,236.578l0.483-0.727c0.936-1.399,0.559-3.31-0.844-4.245l-12.487-8.344c-1.401-0.938-3.31-0.558-4.249,0.844
		l-0.483,0.725c-0.938,1.4-0.556,3.31,0.844,4.25l12.491,8.344C202.491,238.357,204.401,237.978,205.341,236.578z"/>
	<path d="M213.598,245.781l4.523,3.021c1.399,0.935,3.312,0.558,4.249-0.844l0.483-0.729c0.938-1.397,0.556-3.309-0.846-4.249
		l-4.521-3.019c-1.397-0.936-3.312-0.553-4.247,0.844l-0.486,0.727C211.816,242.932,212.2,244.844,213.598,245.781z"/>
	<path d="M234.013,251.002c-1.402-0.933-3.31-0.553-4.247,0.844l-0.486,0.729c-0.933,1.399-0.553,3.309,0.845,4.247l11.666,7.793
		l3.51-6.07L234.013,251.002z"/>
	<path d="M429.015,381.3l-3.472-2.32c-0.721-0.482-1.58-0.165-2.37,0.013l2.893,5.451h-5.462c0.228,0,0.575,0.478,1.05,0.794
		l3.471,2.103c1.403,0.938,3.317,0.442,4.249-0.953l0.488-0.785C430.797,384.201,430.417,382.235,429.015,381.3z"/>
	<path d="M445.59,392.374l-5.13-3.424c-1.401-0.938-3.313-0.558-4.249,0.844l-0.481,0.729c-0.938,1.397-0.558,3.305,0.844,4.241
		l5.13,3.435c1.4,0.931,3.31,0.551,4.247-0.849l0.484-0.725C447.372,395.224,446.99,393.312,445.59,392.374z"/>
	<path d="M268.583,457.986l-0.855-0.169c-1.651-0.328-3.272,0.753-3.6,2.407l-1.587,7.975c-0.327,1.649,0.753,3.271,2.409,3.6
		l0.854,0.172c1.652,0.328,3.271-0.753,3.601-2.402l1.587-7.982C271.319,459.935,270.236,458.316,268.583,457.986z"/>
	<path d="M272.402,438.8l-0.855-0.169c-1.651-0.33-3.274,0.755-3.602,2.406l-1.005,5.052c-0.326,1.651,0.755,3.271,2.402,3.598
		l0.861,0.171c1.649,0.328,3.271-0.753,3.601-2.407l1.004-5.048C275.137,440.751,274.054,439.13,272.402,438.8z"/>
	<path d="M278.077,410.282l-0.859-0.174c-1.651-0.325-3.271,0.753-3.601,2.407l-2.932,14.733c-0.327,1.652,0.758,3.269,2.407,3.598
		l0.856,0.171c1.654,0.328,3.273-0.753,3.603-2.404l2.93-14.733C280.81,412.231,279.727,410.612,278.077,410.282z"/>
	<path d="M282.07,390.193l-0.853-0.172c-1.654-0.328-3.275,0.758-3.604,2.407l-1.062,5.336c-0.325,1.649,0.755,3.271,2.406,3.601
		l0.857,0.167c1.653,0.332,3.271-0.751,3.603-2.402l1.059-5.334C284.805,392.142,283.722,390.523,282.07,390.193z"/>
	<path d="M320.258,193.737l0.859,0.171c1.649,0.328,3.273-0.755,3.599-2.406l4.627-23.255c0.327-1.654-0.753-3.272-2.407-3.6
		l-0.854-0.174c-1.651-0.326-3.271,0.755-3.603,2.409l-4.627,23.255C317.523,191.788,318.606,193.412,320.258,193.737z"/>
	<path d="M327.773,155.942l0.859,0.173c1.653,0.326,3.271-0.757,3.598-2.406l0.816-4.098c0.33-1.649-0.753-3.27-2.404-3.598
		l-0.857-0.169c-1.653-0.33-3.271,0.751-3.601,2.407l-0.815,4.093C325.041,153.995,326.124,155.619,327.773,155.942z"/>
	<path d="M331.276,138.349l0.856,0.171c1.652,0.326,3.271-0.755,3.601-2.409l1.202-6.051c0.33-1.653-0.753-3.272-2.404-3.6
		l-0.857-0.171c-1.651-0.328-3.271,0.755-3.603,2.407l-1.2,6.052C328.542,136.4,329.625,138.019,331.276,138.349z"/>
	<path d="M129.306,268.795l7.978,1.584c1.651,0.33,3.271-0.753,3.598-2.402l0.17-0.859c0.329-1.651-0.754-3.271-2.405-3.598
		l-7.975-1.588c-1.651-0.326-3.272,0.755-3.599,2.404l-0.174,0.861C126.573,266.845,127.656,268.466,129.306,268.795z"/>
	<path d="M151.417,273.194l5.05,1.003c1.651,0.325,3.271-0.753,3.601-2.407l0.167-0.855c0.332-1.654-0.751-3.275-2.4-3.601
		l-5.052-1.007c-1.656-0.326-3.272,0.757-3.603,2.407l-0.169,0.857C148.681,271.246,149.764,272.862,151.417,273.194z"/>
	<path d="M170.256,276.942l14.733,2.932c1.651,0.323,3.271-0.759,3.601-2.409l0.167-0.855c0.332-1.654-0.753-3.275-2.405-3.601
		l-14.729-2.934c-1.651-0.326-3.271,0.757-3.603,2.409l-0.171,0.857C167.523,274.991,168.604,276.61,170.256,276.942z"/>
	<path d="M206.441,277.005l-5.335-1.063c-1.653-0.328-3.272,0.753-3.604,2.407l-0.165,0.857c-0.332,1.649,0.751,3.271,2.402,3.601
		l5.337,1.061c1.646,0.326,3.271-0.755,3.598-2.409l0.172-0.855C209.173,278.954,208.09,277.329,206.441,277.005z"/>
	<path d="M220.597,279.822c-1.649-0.33-3.271,0.753-3.598,2.406l-0.172,0.853c-0.327,1.651,0.755,3.272,2.404,3.6l8.812,1.754
		l3.693-6.4L220.597,279.822z"/>
	<path d="M393.231,321.293c1.653,0.328,3.272-0.755,3.601-2.405l0.169-0.861c0.327-1.649-0.753-3.268-2.404-3.598l-9.536-1.895
		l4.655,8.06L393.231,321.293z"/>
	<path d="M434.226,326.326l0.167-0.857c0.332-1.654-0.756-3.271-2.402-3.598l-23.26-4.629c-1.651-0.33-3.272,0.755-3.601,2.405
		l-0.173,0.857c-0.328,1.651,0.755,3.272,2.406,3.6l23.258,4.627C432.272,329.058,433.897,327.978,434.226,326.326z"/>
	<path d="M450.621,325.573l-4.098-0.813c-1.649-0.328-3.272,0.75-3.601,2.404l-0.169,0.857c-0.33,1.651,0.751,3.272,2.402,3.6
		l4.098,0.816c1.651,0.328,3.274-0.753,3.6-2.402l0.172-0.859C453.355,327.524,452.272,325.903,450.621,325.573z"/>
	<path d="M470.172,329.462l-6.053-1.2c-1.646-0.33-3.271,0.753-3.601,2.404l-0.171,0.855c-0.326,1.651,0.757,3.27,2.408,3.6
		l6.053,1.207c1.651,0.326,3.271-0.755,3.596-2.407l0.174-0.857C472.906,331.411,471.823,329.792,470.172,329.462z"/>
	<path d="M165.38,389.432l-0.486-0.731c-0.936-1.396-2.843-1.775-4.245-0.844l-6.764,4.518c-1.396,0.938-1.779,2.85-0.845,4.251
		l0.488,0.725c0.94,1.4,2.848,1.78,4.247,0.849l6.76-4.525C165.938,392.743,166.315,390.831,165.38,389.432z"/>
	<path d="M176.916,377.431c0,0-0.002-0.222-0.004-0.222l-4.279,2.752c-1.4,0.933-1.782,2.789-0.843,4.193l0.482,0.701
		c0.935,1.397,2.849,2.211,4.247,1.272l3.155-1.682h-6.554L176.916,377.431z"/>
	<path d="M377.628,242.877l-16.682,11.148c-1.397,0.934-1.782,2.843-0.845,4.243l0.486,0.727c0.936,1.4,2.848,1.78,4.245,0.847
		l16.687-11.15c1.401-0.936,1.779-2.845,0.844-4.245l-0.484-0.727C380.944,242.32,379.034,241.938,377.628,242.877z"/>
	<path d="M413.576,222.539c-0.936-1.402-2.843-1.782-4.242-0.844l-19.718,13.175c-1.404,0.933-1.782,2.845-0.847,4.247l0.484,0.727
		c0.941,1.396,2.849,1.779,4.246,0.842l19.716-13.172c1.402-0.94,1.784-2.847,0.849-4.251L413.576,222.539z"/>
	<path d="M421.291,218.433c0.942,1.4,2.852,1.78,4.252,0.849l3.47-2.322c1.404-0.938,1.784-2.845,0.849-4.249l-0.488-0.727
		c-0.932-1.399-2.846-1.779-4.249-0.844l-3.471,2.32c-1.399,0.936-1.777,2.848-0.844,4.247L421.291,218.433z"/>
	<path d="M435.729,207.736l0.481,0.727c0.936,1.4,2.848,1.784,4.249,0.847l5.13-3.429c1.4-0.935,1.782-2.845,0.845-4.247
		l-0.484-0.727c-0.938-1.397-2.847-1.777-4.249-0.847l-5.128,3.434C435.172,204.427,434.794,206.339,435.729,207.736z"/>
	<path d="M205.193,163.926c0.936,1.402,2.843,1.782,4.244,0.842l0.728-0.481c1.399-0.936,1.781-2.85,0.844-4.245l-4.518-6.764
		c-0.936-1.4-2.848-1.782-4.247-0.844l-0.728,0.486c-1.397,0.933-1.779,2.849-0.846,4.247L205.193,163.926z"/>
	<path d="M216.059,180.189c0.936,1.402,2.85,1.779,4.247,0.846l0.723-0.488c1.404-0.936,1.784-2.843,0.851-4.243l-2.859-4.284
		c-0.938-1.4-2.85-1.782-4.25-0.847l-0.727,0.488c-1.402,0.936-1.781,2.845-0.847,4.245L216.059,180.189z"/>
	<path d="M232.214,204.369c0.938,1.402,2.847,1.782,4.249,0.844l0.727-0.484c1.4-0.935,1.779-2.847,0.845-4.245l-8.347-12.487
		c-0.936-1.404-2.845-1.784-4.247-0.847l-0.725,0.486c-1.399,0.936-1.782,2.847-0.847,4.247L232.214,204.369z"/>
	<path d="M247.839,222.244l0.727-0.486c1.402-0.936,1.779-2.847,0.847-4.247l-3.023-4.521c-0.936-1.404-2.843-1.781-4.244-0.846
		l-0.728,0.484c-1.401,0.94-1.781,2.852-0.847,4.245l3.023,4.524C244.529,222.799,246.441,223.179,247.839,222.244z"/>
	<path d="M257.433,229.512c-0.938-1.397-2.847-1.777-4.245-0.842l-0.727,0.488c-1.402,0.933-1.784,2.84-0.849,4.245l4.401,6.584
		l3.901-6.758L257.433,229.512z"/>
	<path d="M364,389.008c-0.936-1.402-2.846-1.784-4.245-0.849l-0.728,0.486c-1.401,0.935-1.781,2.845-0.846,4.247l13.175,19.718
		c0.936,1.399,2.843,1.779,4.247,0.844l0.729-0.486c1.398-0.936,1.777-2.847,0.843-4.247L364,389.008z"/>
	<path d="M385.406,421.044c-0.936-1.397-2.844-1.78-4.245-0.844l-0.728,0.486c-1.399,0.934-1.781,2.848-0.844,4.245l2.32,3.477
		c0.935,1.397,2.847,1.779,4.246,0.844l0.729-0.486c1.399-0.935,1.777-2.847,0.842-4.247L385.406,421.044z"/>
	<path d="M395.375,435.961c-0.935-1.4-2.847-1.78-4.244-0.846l-0.728,0.49c-1.401,0.938-1.779,2.845-0.844,4.249l3.427,5.126
		c0.938,1.402,2.845,1.782,4.249,0.846l0.725-0.486c1.399-0.94,1.782-2.85,0.845-4.249L395.375,435.961z"/>
	<path d="M435.688,388.889H163.498l136.096-235.731L435.688,388.889z M182.743,377.778h233.7L299.594,175.38L182.743,377.778z"/>
	<path d="M299.789,280.615c20.688,0,40.321,9.291,53.481,25.086c-13.157,15.796-32.789,25.088-53.481,25.088
		c-20.691,0-40.323-9.292-53.48-25.088C259.469,289.906,279.102,280.615,299.789,280.615 M299.789,273.618
		c-25.691,0-48.433,12.661-62.315,32.083c13.883,19.427,36.624,32.085,62.315,32.085c25.695,0,48.434-12.659,62.316-32.085
		C348.223,286.278,325.484,273.618,299.789,273.618L299.789,273.618z"/>
	<path d="M299.789,354.405c-28.298,0-55.67-13.289-73.218-35.549l5.495-4.332c16.232,20.59,41.549,32.884,67.723,32.884
		c26.313,0,51.711-12.398,67.941-33.164l5.512,4.31C355.696,341.004,328.238,354.405,299.789,354.405z"/>
	<path d="M229.451,296.529l-5.694-4.069c17.474-24.449,45.822-39.044,75.837-39.044c30.018,0,58.368,14.596,75.836,39.045
		l-5.694,4.067c-16.157-22.614-42.379-36.116-70.142-36.116C271.834,260.412,245.612,273.914,229.451,296.529z"/>
	<path d="M300.007,281.828c8.134,0,16.147,1.181,23.864,3.513c2.227,4.042,3.395,8.574,3.395,13.24
		c0,15.151-12.326,27.478-27.477,27.478c-15.149,0-27.476-12.327-27.476-27.478c0-4.603,1.137-9.08,3.308-13.079
		C283.485,283.063,291.676,281.828,300.007,281.828 M300.007,274.831c-10.163,0-19.933,1.699-29.037,4.831
		c-3.571,5.43-5.653,11.934-5.653,18.919c0,19.041,15.433,34.475,34.473,34.475c19.039,0,34.476-15.434,34.476-34.475
		c0-7.068-2.132-13.641-5.781-19.112C319.54,276.465,309.965,274.831,300.007,274.831L300.007,274.831z"/>
	<circle cx="299.79" cy="299.13" r="20.931"/>
</g>
</svg>
