<?xml version="1.0" encoding="utf-8"?>
<!-- Generator: Adobe Illustrator 16.0.0, SVG Export Plug-In . SVG Version: 6.00 Build 0)  -->
<!DOCTYPE svg PUBLIC "-//W3C//DTD SVG 1.1//EN" "http://www.w3.org/Graphics/SVG/1.1/DTD/svg11.dtd">
<svg version="1.1" id="Layer_1" xmlns="http://www.w3.org/2000/svg" xmlns:xlink="http://www.w3.org/1999/xlink" x="0px" y="0px"
	 width="600px" height="600px" viewBox="0 0 600 600" enable-background="new 0 0 600 600" xml:space="preserve">
<g>
	<polygon points="393.526,252 407.892,154 369.333,154 357.034,252 	"/>
	<g>
		<polygon points="240.857,252 228.506,154 189.953,154 204.352,252 		"/>
		<polygon points="354.407,271 341.734,371.805 314.14,154 283.705,154 256.104,371.595 243.484,271 207.411,271 232.971,446 
			275.18,446 298.716,277.172 322.663,446 364.866,446 390.458,271 		"/>
	</g>
	<g>
		<polygon points="118.856,231 100,231 120.939,272.5 100,314 118.856,314 139.793,272.5 		"/>
		<polygon points="145.552,231 126.698,231 147.635,272.5 126.698,314 145.552,314 166.489,272.5 		"/>
	</g>
	<g>
		<polygon points="258.079,281 260.419,262 100.259,262 106.915,271.5 100.259,281 		"/>
		<polygon points="270.098,262 267.784,281 465,281 465,262 		"/>
	</g>
	<polygon points="445.334,240.951 458.329,273.307 445.334,305.665 500,273.307 	"/>
</g>
</svg>
