<?xml version="1.0" encoding="utf-8"?>
<!-- Generator: Adobe Illustrator 19.2.1, SVG Export Plug-In . SVG Version: 6.00 Build 0)  -->
<svg version="1.1" id="Layer_1" xmlns="http://www.w3.org/2000/svg" xmlns:xlink="http://www.w3.org/1999/xlink" x="0px" y="0px"
	 viewBox="0 0 1600 700" enable-background="new 0 0 1600 700" xml:space="preserve">
<g>
	<g>
		<path fill="#AD90F4" d="M1110,515.3c-9.9,0-14.3-16.7-18.9-34.4c-3.9-14.9-8.3-31.8-15.6-31.8c-7.3,0-11.7,16.9-15.6,31.8
			c-4.6,17.7-8.9,34.4-18.9,34.4c-9.9,0-14.3-16.7-18.9-34.4c-3.9-14.9-8.3-31.8-15.6-31.8v-3.4c9.9,0,14.3,16.7,18.9,34.4
			c3.9,14.9,8.3,31.8,15.6,31.8s11.7-16.9,15.6-31.8c4.6-17.7,8.9-34.4,18.9-34.4s14.3,16.7,18.9,34.4c3.9,14.9,8.3,31.8,15.6,31.8
			c7.3,0,11.7-16.9,15.6-31.8c4.6-17.7,8.9-34.4,18.9-34.4v3.4c-7.3,0-11.7,16.9-15.6,31.8C1124.3,498.7,1119.9,515.3,1110,515.3z"
			/>
		<circle fill="#84DD66" cx="1041.1" cy="513.6" r="6.9"/>
		<circle fill="#84DD66" cx="1075.6" cy="448.9" r="6.9"/>
		<circle fill="#84DD66" cx="1110" cy="513.6" r="6.9"/>
		<rect x="1040.1" y="411.7" width="2.1" height="88.2"/>
		<rect x="1040.1" y="527.4" width="2.1" height="22"/>
		<rect x="1074.5" y="411.7" width="2.1" height="23.4"/>
		<rect x="1074.5" y="462.6" width="2.1" height="86.8"/>
		<rect x="1005.6" y="411.7" width="2.1" height="137.8"/>
		<rect x="1109" y="411.7" width="2.1" height="88.2"/>
		<rect x="1109" y="527.4" width="2.1" height="22"/>
		<rect x="1143.4" y="411.7" width="2.1" height="137.8"/>
		<rect x="1022.9" y="535.7" width="2.1" height="13.8"/>
		<rect x="1057.3" y="535.7" width="2.1" height="13.8"/>
		<rect x="1091.7" y="535.7" width="2.1" height="13.8"/>
		<rect x="1126.2" y="535.7" width="2.1" height="13.8"/>
		<rect x="1022.9" y="411.7" width="2.1" height="13.8"/>
		<rect x="1057.3" y="411.7" width="2.1" height="13.8"/>
		<rect x="1091.7" y="411.7" width="2.1" height="13.8"/>
		<rect x="1126.2" y="411.7" width="2.1" height="13.8"/>
	</g>
	<g>
		<path fill="#84DD66" d="M248.9,150.6c-4.7,0-9.3,0.5-13.8,1.4c31.4,6.4,55.1,34.2,55.1,67.5c0,33.3-23.7,61.1-55.1,67.5
			c4.5,0.9,9.1,1.4,13.8,1.4c38,0,68.9-30.8,68.9-68.9C317.8,181.4,286.9,150.6,248.9,150.6z"/>
		<path d="M248.9,289.4c-21.3,0-41.2-9.5-54.5-26.2l1.6-1.3c13,16.1,32.3,25.4,52.9,25.4c9.2,0,18.2-1.8,26.6-5.4l0.8,1.9
			C267.6,287.5,258.4,289.4,248.9,289.4z"/>
		<path d="M285.2,279.2l-1.1-1.8c20.4-12.4,32.6-34.1,32.6-58c0-27.9-17.5-53.3-43.4-63.3l0.7-1.9c26.8,10.3,44.8,36.6,44.8,65.3
			C318.8,244,306.3,266.4,285.2,279.2z"/>
		<path d="M190,257.2c-7.2-11.3-11.1-24.3-11.1-37.8c0-38.6,31.4-69.9,69.9-69.9c5.2,0,10.4,0.6,15.4,1.7l-0.5,2
			c-4.9-1.1-9.9-1.6-14.9-1.6c-37.4,0-67.9,30.4-67.9,67.9c0,13,3.7,25.7,10.7,36.6L190,257.2z"/>
		<path d="M284.7,260.4v-2.1c7,0,12.7-5.7,12.7-12.7s-5.7-12.7-12.7-12.7s-12.7,5.7-12.7,12.7c0,1.9,0.4,3.8,1.3,5.6l-1.9,0.9
			c-1-2-1.5-4.2-1.5-6.5c0-8.2,6.6-14.8,14.8-14.8s14.8,6.6,14.8,14.8S292.9,260.4,284.7,260.4z"/>
		<path d="M211.7,197.1V195c4.6,0,8.3-3.7,8.3-8.3s-3.7-8.3-8.3-8.3v-2.1c5.7,0,10.3,4.6,10.3,10.3S217.4,197.1,211.7,197.1z"/>
		<path d="M236.5,265.9v-2.1c2.5,0,4.5-2,4.5-4.5s-2-4.5-4.5-4.5v-2.1c3.6,0,6.5,2.9,6.5,6.5S240.1,265.9,236.5,265.9z"/>
		<path d="M200,235.6v-2.1c2.8,0,5.2-2.3,5.2-5.2s-2.3-5.2-5.2-5.2c-2.8,0-5.2,2.3-5.2,5.2h-2.1c0-4,3.2-7.2,7.2-7.2
			c4,0,7.2,3.2,7.2,7.2S204,235.6,200,235.6z"/>
	</g>
	<g>
		
			<ellipse transform="matrix(3.004792e-02 -0.9995 0.9995 3.004792e-02 633.3711 962.0729)" fill="#AD90F4" cx="812.4" cy="154.7" rx="4.1" ry="4.1"/>
		
			<ellipse transform="matrix(3.004792e-02 -0.9995 0.9995 3.004792e-02 488.2897 1044.0314)" fill="#AD90F4" cx="782.1" cy="270.4" rx="4.1" ry="4.1"/>
		
			<ellipse transform="matrix(3.004792e-02 -0.9995 0.9995 3.004792e-02 525.6267 1088.0188)" fill="#84DD66" cx="823.4" cy="273.2" rx="4.1" ry="4.1"/>
		
			<ellipse transform="matrix(3.004792e-02 -0.9995 0.9995 3.004792e-02 567.3992 927.1547)" fill="#84DD66" cx="761.4" cy="171.2" rx="4.1" ry="4.1"/>
		
			<ellipse transform="matrix(3.004792e-02 -0.9995 0.9995 3.004792e-02 435.7632 1017.4576)" fill="#84DD66" cx="742.1" cy="284.2" rx="4.1" ry="4.1"/>
		
			<ellipse transform="matrix(3.004792e-02 -0.9995 0.9995 3.004792e-02 514.4649 927.7164)" fill="#AD90F4" cx="735.2" cy="198.8" rx="4.1" ry="4.1"/>
		<g>
			<g>
				<path d="M845.5,199.8h-53.7c-4.4,0-7.9-3.6-7.9-7.9c0-4.4,3.6-7.9,7.9-7.9c3.1,0,6,1.9,7.3,4.7l-1.9,0.8c-0.9-2.1-3-3.5-5.4-3.5
					c-3.2,0-5.9,2.6-5.9,5.9c0,3.2,2.6,5.9,5.9,5.9h53.7V199.8z"/>
				<path d="M868.9,213.6h-77.2c-12,0-21.7-9.7-21.7-21.7c0-12,9.7-21.7,21.7-21.7s21.7,9.7,21.7,21.7h-2.1
					c0-10.8-8.8-19.6-19.6-19.6s-19.6,8.8-19.6,19.6c0,10.8,8.8,19.6,19.6,19.6h77.2V213.6z"/>
				<path d="M753.2,254.9c-4.4,0-7.9-3.6-7.9-7.9c0-4.4,3.6-7.9,7.9-7.9h74.4v2.1h-74.4c-3.2,0-5.9,2.6-5.9,5.9
					c0,3.2,2.6,5.9,5.9,5.9c2.3,0,4.4-1.4,5.4-3.5l1.9,0.8C759.2,253.1,756.3,254.9,753.2,254.9z"/>
				<path d="M753.2,268.7c-12,0-21.7-9.7-21.7-21.7s9.7-21.7,21.7-21.7h33.1v2.1h-33.1c-10.8,0-19.6,8.8-19.6,19.6
					s8.8,19.6,19.6,19.6c10.8,0,19.6-8.8,19.6-19.6h2.1C774.9,259,765.1,268.7,753.2,268.7z"/>
			</g>
			<rect x="753.2" y="197.7" width="9.6" height="2.1"/>
			<rect x="740.8" y="211.5" width="31.7" height="2.1"/>
			<rect x="838.6" y="239.1" width="30.3" height="2.1"/>
			<rect x="856.5" y="197.7" width="12.4" height="2.1"/>
			<rect x="797.2" y="225.3" width="71.6" height="2.1"/>
			<path d="M805.5,268.7c-4.4,0-7.9-3.6-7.9-7.9c0-4.4,3.6-7.9,7.9-7.9h63.4v2.1h-63.4c-3.2,0-5.9,2.6-5.9,5.9
				c0,3.2,2.6,5.9,5.9,5.9c3.2,0,5.9-2.6,5.9-5.9h2.1C813.4,265.1,809.9,268.7,805.5,268.7z"/>
		</g>
	</g>
	<g>
		<path d="M1075.6,246.8c-30.3,0-57.7-17.9-69.8-45.7l-0.2-0.4l0.2-0.4c5.2-11.9,13.4-22.3,23.7-30.2l1.3,1.6
			c-9.9,7.6-17.9,17.6-22.9,29c11.9,26.8,38.4,44.1,67.8,44.1c15.7,0,30.8-4.9,43.5-14.1l1.2,1.7
			C1107.2,241.8,1091.7,246.8,1075.6,246.8z"/>
		<path d="M1125.8,227.8l-1.4-1.6c8-7.1,14.5-15.9,18.8-25.6c-11.9-26.8-38.4-44.1-67.8-44.1c-11.6,0-22.8,2.6-33.1,7.8l-0.9-1.8
			c10.6-5.3,22.1-8,34-8c30.3,0,57.7,17.9,69.8,45.7l0.2,0.4l-0.2,0.4C1141,211.2,1134.2,220.5,1125.8,227.8z"/>
		<circle fill="#84DD66" cx="1075.6" cy="200.7" r="30.3"/>
		<path d="M1136.5,201h-2.1c0-7-1-12.9-3.1-19l2-0.6C1135.4,187.7,1136.5,194,1136.5,201z"/>
		<path d="M1016.7,201h-2.1c0-7,1.1-13.3,3.2-19.6l2,0.7C1017.7,188.2,1016.7,194,1016.7,201z"/>
		<circle cx="1075.6" cy="200.7" r="11"/>
		<g>
			<rect x="1006.7" y="268.5" width="13.8" height="2.1"/>
			<rect x="1027.3" y="268.5" width="13.8" height="2.1"/>
			<rect x="1068.7" y="268.5" width="13.8" height="2.1"/>
			<rect x="1110" y="268.5" width="13.8" height="2.1"/>
			<rect x="1048" y="268.5" width="13.8" height="2.1"/>
			<rect x="1089.3" y="268.5" width="13.8" height="2.1"/>
			<rect x="1130.7" y="268.5" width="13.8" height="2.1"/>
		</g>
		<polygon points="1019.7,284.1 1005.2,269.5 1019.7,255 1021.2,256.5 1008.1,269.5 1021.2,282.6 		"/>
		<polygon points="1131.4,284.1 1129.9,282.6 1143,269.5 1129.9,256.5 1131.4,255 1145.9,269.5 		"/>
		<g>
			<g>
				<rect x="1074.5" y="217.2" width="2.1" height="9.6"/>
			</g>
			<g>
				<rect x="1062.9" y="219.5" transform="matrix(0.3685 -0.9296 0.9296 0.3685 469.2932 1131.8329)" width="9.6" height="2.1"/>
			</g>
			<g>
				<rect x="1056.1" y="215.2" transform="matrix(0.685 -0.7285 0.7285 0.685 176.6342 840.99)" width="9.6" height="2.1"/>
			</g>
			<g>
				<rect x="1051.4" y="208.7" transform="matrix(0.9051 -0.4252 0.4252 0.9051 11.0464 468.9638)" width="9.6" height="2.1"/>
			</g>
			<g>
				
					<rect x="1049.4" y="200.9" transform="matrix(0.9981 -6.143675e-02 6.143675e-02 0.9981 -10.417 65.1507)" width="9.6" height="2.1"/>
			</g>
			<g>
				<rect x="1054.2" y="189.2" transform="matrix(0.3105 -0.9506 0.9506 0.3105 543.1663 1136.8816)" width="2.1" height="9.6"/>
			</g>
		</g>
	</g>
	<g>
		<path d="M1324.2,178.2c-2.8-3-4.4-7-4.4-11.1c0-8.9,7.3-16.2,16.2-16.2v2.1c-7.8,0-14.1,6.3-14.1,14.1c0,3.6,1.4,7.1,3.8,9.7
			L1324.2,178.2z"/>
		<path d="M1321.8,202.9h-2.1c0-7.8-6.3-14.1-14.1-14.1s-14.1,6.3-14.1,14.1h-2.1c0-8.9,7.3-16.2,16.2-16.2S1321.8,194,1321.8,202.9
			z"/>
		<path d="M1300.1,242.5c-8.9,0-16.2-7.3-16.2-16.2c0-8.9,7.3-16.2,16.2-16.2v2.1c-7.8,0-14.1,6.3-14.1,14.1
			c0,7.8,6.3,14.1,14.1,14.1V242.5z"/>
		<path d="M1330.1,267.7h-2.1c0-7.8-6.3-14.1-14.1-14.1v-2.1C1322.8,251.5,1330.1,258.7,1330.1,267.7z"/>
		<path d="M1313.9,283.9c-8.9,0-16.2-7.3-16.2-16.2h2.1c0,7.8,6.3,14.1,14.1,14.1c4.8,0,9.2-2.4,11.8-6.4c0.5-0.8,1-1.7,1.3-2.6
			l1.9,0.8c-0.4,1-0.9,2-1.5,2.9C1324.5,281.1,1319.4,283.9,1313.9,283.9z"/>
		<path d="M1290.6,208.8c-0.7-1.9-1.1-3.9-1.1-5.9c0-7.7,5.5-14.4,13.1-15.9l0.4,2c-6.6,1.3-11.4,7.1-11.4,13.9c0,1.8,0.3,3.5,1,5.1
			L1290.6,208.8z"/>
		<path d="M1313.9,283.9c-8.9,0-16.2-7.3-16.2-16.2c0-0.6,0-1.2,0.1-1.7c-3.4-0.2-6.7-1.5-9.4-3.7c-1.9-1.5-3.4-3.5-4.4-5.7
			c-1-2.1-1.5-4.4-1.5-6.8c0-4.8,2.1-9.3,5.8-12.4c-2.8-3-4.4-7-4.4-11.1c0-6.4,3.8-12.1,9.6-14.8l0.8,1.9
			c-5.1,2.3-8.3,7.3-8.3,12.9c0,3.9,1.7,7.7,4.6,10.4l0.9,0.9l-1,0.7c-3.7,2.7-5.9,6.9-5.9,11.4c0,2.1,0.4,4,1.3,5.9
			c0.9,1.9,2.2,3.7,3.9,5c2.5,2.1,5.7,3.2,9,3.2l1.5,0l-0.2,1.2c-0.2,0.9-0.2,1.7-0.2,2.6c0,7.8,6.3,14.1,14.1,14.1
			c3.1,0,6-1,8.5-2.9l1.2,1.6C1320.8,282.7,1317.5,283.9,1313.9,283.9z"/>
		<path d="M1336,288.1c-3.2,0-6.2-1-8.8-2.7l1.1-1.8c2.3,1.5,5,2.4,7.7,2.4c7.8,0,14.1-6,14.1-14h2.1
			C1352.1,281,1344.9,288.1,1336,288.1z"/>
		<path d="M1299.4,182.4c-0.2-1-0.3-2-0.3-2.9c0-8.9,7.3-16.2,16.2-16.2c1.6,0,3.2,0.2,4.8,0.7c1.4-7.6,8.1-13.2,15.9-13.2
			c8.9,0,16.2,7.1,16.2,16.1h-2.1c0-8-6.3-14.1-14.1-14.1c-7.2,0-13.2,5.4-14,12.6l-0.1,1.4l-1.3-0.5c-1.7-0.7-3.4-1-5.2-1
			c-7.8,0-14.1,6.3-14.1,14.1c0,0.9,0.1,1.7,0.2,2.6L1299.4,182.4z"/>
		<path d="M1326.3,190.2v-2.1c5.5,0,10-4.5,10-10h2.1C1338.4,184.8,1333,190.2,1326.3,190.2z"/>
		<path d="M1378,178.2l-1.5-1.4c2.5-2.6,3.8-6.1,3.8-9.7c0-7.8-6.3-14.1-14.1-14.1v-2.1c8.9,0,16.2,7.3,16.2,16.2
			C1382.5,171.2,1380.9,175.2,1378,178.2z"/>
		<path d="M1412.8,202.9h-2.1c0-7.8-6.3-14.1-14.1-14.1s-14.1,6.3-14.1,14.1h-2.1c0-8.9,7.3-16.2,16.2-16.2S1412.8,194,1412.8,202.9
			z"/>
		<path d="M1402.1,242.5v-2.1c7.8,0,14.1-6.3,14.1-14.1c0-7.8-6.3-14.1-14.1-14.1v-2.1c8.9,0,16.2,7.3,16.2,16.2
			C1418.3,235.3,1411,242.5,1402.1,242.5z"/>
		<path d="M1374.2,267.7h-2.1c0-8.9,7.3-16.2,16.2-16.2v2.1C1380.5,253.5,1374.2,259.9,1374.2,267.7z"/>
		<path d="M1388.3,283.9c-5.5,0-10.6-2.8-13.6-7.4c-0.6-0.9-1.1-1.9-1.5-2.9l1.9-0.8c0.4,0.9,0.8,1.8,1.3,2.6c2.6,4,7,6.4,11.8,6.4
			c7.8,0,14.1-6.3,14.1-14.1h2.1C1404.5,276.6,1397.2,283.9,1388.3,283.9z"/>
		<path d="M1411.7,208.8l-1.9-0.8c0.6-1.6,1-3.4,1-5.1c0-6.8-4.8-12.6-11.4-13.9l0.4-2c7.6,1.5,13.1,8.1,13.1,15.9
			C1412.8,204.9,1412.4,206.9,1411.7,208.8z"/>
		<path d="M1388.3,283.9c-3.5,0-6.9-1.1-9.8-3.3l1.2-1.6c2.5,1.9,5.4,2.9,8.5,2.9c7.8,0,14.1-6.3,14.1-14.1c0-0.8-0.1-1.7-0.2-2.6
			l-0.2-1.2l1.4,0.1c0,0,0,0,0,0c3.3,0,6.5-1.2,9-3.3c1.6-1.4,3-3.1,3.9-5c0.9-1.9,1.3-3.9,1.3-5.9c0-4.5-2.2-8.8-5.9-11.4l-1-0.7
			l0.9-0.9c2.9-2.7,4.6-6.5,4.6-10.4c0-5.5-3.3-10.6-8.3-12.9l0.8-1.9c5.8,2.6,9.6,8.4,9.6,14.8c0,4.1-1.6,8.1-4.4,11.1
			c3.6,3.1,5.8,7.6,5.8,12.4c0,2.4-0.5,4.6-1.5,6.8c-1,2.2-2.5,4.2-4.4,5.7c-2.6,2.2-5.9,3.5-9.4,3.7c0.1,0.6,0.1,1.2,0.1,1.7
			C1404.5,276.6,1397.2,283.9,1388.3,283.9z"/>
		<path d="M1366.3,288.1c-8.9,0-16.2-7.1-16.2-16.1h2.1c0,8,6.3,14,14.1,14c2.7,0,5.4-0.8,7.7-2.3l1.1,1.8
			C1372.5,287.2,1369.4,288.1,1366.3,288.1z"/>
		<path d="M1402.9,182.4l-2-0.4c0.2-0.8,0.2-1.7,0.2-2.6c0-7.8-6.3-14.1-14.1-14.1c-1.8,0-3.5,0.3-5.2,1l-1.3,0.5l-0.1-1.4
			c-0.8-7.2-6.8-12.6-14-12.6c-7.8,0-14.1,6.1-14.1,14.1h-2.1c0-9,7.3-16.1,16.2-16.1c7.8,0,14.5,5.6,15.9,13.1
			c1.6-0.5,3.2-0.7,4.8-0.7c8.9,0,16.2,7.3,16.2,16.2C1403.1,180.5,1403,181.5,1402.9,182.4z"/>
		<path d="M1375.9,190.2c-6.6,0-12.1-5.4-12.1-12.1h2.1c0,5.5,4.5,10,10,10V190.2z"/>
		<g>
			<g>
				<path d="M1378.3,231.8h-2.1c0-6.6,5.4-12.1,12.1-12.1v2.1C1382.8,221.9,1378.3,226.3,1378.3,231.8z"/>
				<path d="M1366.3,243.9v-2.1c5.5,0,10-4.5,10-10h2.1C1378.3,238.5,1372.9,243.9,1366.3,243.9z"/>
			</g>
			<g>
				<path d="M1326,231.8h-2.1c0-5.5-4.5-10-10-10v-2.1C1320.6,219.8,1326,225.2,1326,231.8z"/>
				<path d="M1336,243.9c-6.6,0-12.1-5.4-12.1-12.1h2.1c0,5.5,4.5,10,10,10V243.9z"/>
			</g>
		</g>
		<rect x="1350.1" y="260.8" width="2.1" height="13.8"/>
		<rect x="1350.1" y="165.7" width="2.1" height="13.8"/>
		<polygon fill="#AD90F4" points="1351.1,258 1352.5,216.1 1358.5,220.4 1347.4,225.9 1339.6,229.8 1341.5,221.7 1351.1,180.9 
			1349.7,222.7 1343.8,218.5 1354.8,213 1362.6,209.1 1360.7,217.2 		"/>
	</g>
	<g>
		<g>
			<polygon fill="#AD90F4" points="253.9,507.2 239.2,465.1 234.9,477.1 180,477.1 180,473.7 232.5,473.7 239.3,454.7 254.3,498 
				265.7,473.7 317.8,473.7 317.8,477.1 267.9,477.1 			"/>
		</g>
		<path d="M248.9,531.1l-1.6-0.7c-0.6-0.2-13.7-6.2-27.1-17.5c-10.6-9-18.3-18.8-22.8-29.2l1.9-0.8c4.4,10.1,11.9,19.7,22.2,28.5
			c13.1,11.1,26,16.9,26.6,17.1l0.8,0.3l0.8-0.3c0.5-0.2,13.5-6,26.6-17.1c10.8-9.2,18.5-19.2,22.8-29.9l1.9,0.8
			c-4.4,11-12.3,21.4-23.4,30.7c-13.3,11.2-26.5,17.1-27.1,17.4L248.9,531.1z M304.6,468.3l-2.1-0.3c0.3-2.1,0.4-4.3,0.4-6.5
			c0-16.2-13.2-29.4-29.4-29.4c-9.6,0-18.2,4.4-23.8,12.2l-1.7-1.2c5.9-8.2,15.4-13,25.5-13c17.4,0,31.5,14.1,31.5,31.5
			C305,463.8,304.9,466.1,304.6,468.3z M193,466.9c-0.2-1.8-0.3-3.5-0.3-5.3c0-17.4,14.1-31.5,31.5-31.5c7.2,0,14.2,2.5,19.8,7
			l-1.3,1.6c-5.2-4.2-11.7-6.5-18.5-6.5c-16.2,0-29.4,13.2-29.4,29.4c0,1.7,0.1,3.4,0.3,5.1L193,466.9z"/>
		<path d="M295.4,462h-2.1c0-11-9.3-20.2-19.3-20.2v-2.1C286,439.7,295.4,450,295.4,462z"/>
		<path d="M248.4,520.3c-4.4-2.3-13.2-7.2-22-14.6c-4-3.4-7.6-7-10.6-10.6l1.6-1.3c3,3.6,6.5,7,10.4,10.4
			c8.6,7.3,17.2,12.1,21.6,14.4L248.4,520.3z"/>
	</g>
	<g>
		
			<ellipse transform="matrix(3.004792e-02 -0.9995 0.9995 3.004792e-02 192.0294 733.2201)" fill="#AD90F4" cx="473.8" cy="267.7" rx="4.1" ry="4.1"/>
		
			<ellipse transform="matrix(3.004792e-02 -0.9995 0.9995 3.004792e-02 220.5419 732.2914)" fill="#84DD66" cx="487.6" cy="252.5" rx="4.1" ry="4.1"/>
		
			<ellipse transform="matrix(3.004792e-02 -0.9995 0.9995 3.004792e-02 241.607 685.1105)" fill="#AD90F4" cx="473.8" cy="218.1" rx="4.1" ry="4.1"/>
		
			<ellipse transform="matrix(3.004792e-02 -0.9995 0.9995 3.004792e-02 270.0009 684.0558)" fill="#84DD66" cx="487.5" cy="202.9" rx="4.1" ry="4.1"/>
		
			<ellipse transform="matrix(3.004792e-02 -0.9995 0.9995 3.004792e-02 267.0797 705.8494)" fill="#AD90F4" cx="497.2" cy="215.3" rx="4.1" ry="4.1"/>
		
			<ellipse transform="matrix(3.004792e-02 -0.9995 0.9995 3.004792e-02 342.4471 747.6941)" fill="#84DD66" cx="556.5" cy="197.4" rx="4.1" ry="4.1"/>
		
			<ellipse transform="matrix(3.004792e-02 -0.9995 0.9995 3.004792e-02 344.712 777.5837)" fill="#AD90F4" cx="573" cy="211.2" rx="4.1" ry="4.1"/>
		
			<ellipse transform="matrix(3.004792e-02 -0.9995 0.9995 3.004792e-02 337.5816 800.5469)" fill="#84DD66" cx="581.3" cy="226.3" rx="4.1" ry="4.1"/>
		
			<ellipse transform="matrix(3.004792e-02 -0.9995 0.9995 3.004792e-02 320.5349 760.9355)" fill="#AD90F4" cx="552.3" cy="215.3" rx="4.1" ry="4.1"/>
		
			<ellipse transform="matrix(3.004792e-02 -0.9995 0.9995 3.004792e-02 290.0744 801.19)" fill="#84DD66" cx="557.9" cy="251.1" rx="4.1" ry="4.1"/>
		
			<ellipse transform="matrix(3.004792e-02 -0.9995 0.9995 3.004792e-02 289.5035 839.1795)" fill="#AD90F4" cx="577.1" cy="270.4" rx="4.1" ry="4.1"/>
		
			<ellipse transform="matrix(3.004792e-02 -0.9995 0.9995 3.004792e-02 212.8906 699.6068)" fill="#84DD66" cx="466.9" cy="240.1" rx="4.1" ry="4.1"/>
		<path d="M457.6,269h-2.1v-37.5c0-24.1,15.4-45.1,38.4-52.3c4.1-1.3,8.5-0.6,11.9,2c3.5,2.6,5.5,6.5,5.5,10.8v26h-2.1v-26
			c0-3.7-1.7-7-4.6-9.2c-2.9-2.2-6.6-2.8-10.1-1.7c-22.1,6.9-36.9,27.1-36.9,50.3V269z"/>
		<path d="M467.6,289.4c-1.9,0-3.8-0.5-5.6-1.4c-4.1-2.1-6.5-6.1-6.5-10.7h2.1c0,3.8,2,7.1,5.4,8.9c3.4,1.8,7.2,1.5,10.3-0.7
			l22.3-15.6c8.6-6,13.7-15.8,13.7-26.3v-9.1h2.1v9.1c0,11.1-5.4,21.6-14.6,28l-22.3,15.6C472.4,288.6,470,289.4,467.6,289.4z"/>
		<path d="M581.2,289.4c-2.4,0-4.8-0.7-6.9-2.2l-22.3-15.6c-9.1-6.4-14.6-16.8-14.6-28v-9.1h2.1v9.1c0,10.5,5.1,20.3,13.7,26.3
			l22.3,15.6c3.1,2.2,7,2.4,10.3,0.7c3.4-1.8,5.4-5.1,5.4-8.9v-45.8c0-23.2-14.8-43.4-36.9-50.3c-3.5-1.1-7.2-0.5-10.1,1.7
			c-3,2.2-4.6,5.5-4.6,9.2v26h-2.1v-26c0-4.3,2-8.3,5.5-10.8c3.5-2.6,7.8-3.3,11.9-2c23,7.2,38.4,28.2,38.4,52.3v45.8
			c0,4.6-2.4,8.6-6.5,10.7C585.1,288.9,583.1,289.4,581.2,289.4z"/>
		<rect x="519.6" y="150.6" width="2.1" height="52.4"/>
		<rect x="527.9" y="150.6" width="2.1" height="52.4"/>
		<path d="M493,231.5v-2.1c15,0,26.6-11.4,26.6-26.4h2.1C521.7,219,509,231.5,493,231.5z"/>
		<path d="M493,235.6v-2.1c13,0,24.4-8,28.8-20l1.9,0.7C519,227.1,507,235.6,493,235.6z"/>
		<path d="M474.8,254h-2.1c0-11,9.2-20.4,20.2-20.4v2.1C483,235.6,474.8,244,474.8,254z"/>
		<path d="M493,231.5c-6,0-10.6-4.5-10.6-10.5h2.1c0,5,3.5,8.4,8.5,8.4V231.5z"/>
		<path d="M556,231.5c-15,0-28.1-12.5-28.1-28.5h2.1c0,15,12,26.4,26,26.4V231.5z"/>
		<path d="M556,235.6c-18,0-32.2-14.6-32.2-32.6h2.1c0,17,14.2,30.6,30.2,30.6V235.6z"/>
		<path d="M576.8,254h-2.1c0-10-7.7-18.4-18.7-18.4v-2.1C568,233.6,576.8,243,576.8,254z"/>
		<path d="M556,231.5v-2.1c5,0,9.1-3.4,9.1-8.4h2.1C567.2,227,562,231.5,556,231.5z"/>
		<rect x="520.7" y="155" width="8.3" height="2.1"/>
		<rect x="520.7" y="164.7" width="8.3" height="2.1"/>
		<rect x="520.7" y="174.3" width="8.3" height="2.1"/>
		<rect x="520.7" y="184" width="8.3" height="2.1"/>
		<rect x="520.7" y="193.6" width="8.3" height="2.1"/>
	</g>
	<g>
		<rect x="771.3" y="438.7" transform="matrix(0.866 -0.5 0.5 0.866 -117.2928 445.3059)" width="2.1" height="5.7"/>
		<path fill="#AD90F4" d="M733.5,446.8c-4.1-12.4-1-25.9,8.1-35.3l1.5,1.4c-8.5,8.8-11.4,21.6-7.6,33.2L733.5,446.8z"/>
		<path fill="#AD90F4" d="M741.1,443.3c-3.1-10.9,0.6-22.4,9.4-29.5l1.3,1.6c-8.1,6.6-11.5,17.3-8.7,27.3L741.1,443.3z"/>
		<path d="M750.6,447.4l-0.5-0.9c-6-10.4-2.4-23.7,7.9-29.6s23.7-2.4,29.6,7.9l-1.8,1c-5.4-9.4-17.4-12.6-26.8-7.2
			c-4.5,2.6-7.8,6.9-9.1,11.9c-1.3,4.7-0.7,9.7,1.5,14L780,428l1,1.8L750.6,447.4z"/>
		<path d="M752.4,439.4c-1.1-4.6-0.1-9.4,2.5-13.3l1.7,1.2c-2.3,3.4-3.1,7.7-2.2,11.7L752.4,439.4z"/>
		<rect x="824.8" y="440.6" transform="matrix(0.5001 -0.866 0.866 0.5001 31.1488 937.3187)" width="5.3" height="2.1"/>
		<path fill="#AD90F4" d="M863.7,453.4l-1.8-1c7-12.1,5.6-27.4-3.6-38l1.6-1.3C869.6,424.2,871.1,440.5,863.7,453.4z"/>
		<path fill="#AD90F4" d="M858.6,444.8l-2-0.7c3.3-9.6,0.7-20.3-6.7-27.3l1.4-1.5C859.4,422.8,862.2,434.4,858.6,444.8z"/>
		<path d="M849.2,447.4l-37.6-21.7l0.5-0.9c1.9-3.3,4.6-6,7.8-7.9l1,1.8c-2.6,1.5-4.9,3.7-6.5,6.2l34,19.6c2.2-4.3,2.7-9.3,1.5-14
			c-1.4-5.1-4.6-9.3-9.1-11.9c-4-2.3-8.7-3.1-13.2-2.3l-0.4-2c5-0.9,10.2,0,14.6,2.6c10.4,6,13.9,19.3,7.9,29.6L849.2,447.4z"/>
		<path d="M847.4,439.4l-2-0.5c0.9-4,0.1-8.3-2.2-11.7l1.7-1.2C847.5,430,848.4,434.9,847.4,439.4z"/>
		<path d="M799.8,542.6c-1.4,0-2.8-0.1-4.2-0.2c-29.3-2.3-51.3-28.1-49-57.4c2.3-29.3,28.1-51.3,57.4-49c29.3,2.3,51.3,28.1,49,57.4
			c-0.5,6.1-2,12.1-4.5,17.6l-1.9-0.8c2.4-5.3,3.8-11,4.3-16.9c2.2-28.2-18.9-53-47.1-55.2c-28.2-2.2-53,18.9-55.2,47.1
			c-2.2,28.2,18.9,53,47.1,55.2c16.7,1.3,33.1-5.6,43.7-18.6l1.6,1.3C830.9,535.5,815.7,542.6,799.8,542.6z"/>
		<rect x="829.1" y="533.5" transform="matrix(0.866 -0.5 0.5 0.866 -159.6448 487.6362)" width="2.1" height="16.5"/>
		<rect x="761.2" y="540.7" transform="matrix(0.5001 -0.866 0.866 0.5001 -84.4396 937.1713)" width="16.5" height="2.1"/>
		<rect x="798.8" y="420.7" width="2.1" height="16.5"/>
		<path d="M799.8,421.8c-2.8,0-5.2-2.3-5.2-5.2s2.3-5.2,5.2-5.2s5.2,2.3,5.2,5.2S802.7,421.8,799.8,421.8z M799.8,413.5
			c-1.7,0-3.1,1.4-3.1,3.1s1.4,3.1,3.1,3.1s3.1-1.4,3.1-3.1S801.5,413.5,799.8,413.5z"/>
		<g>
			<g>
				<circle cx="799.8" cy="450.2" r="2.3"/>
				<circle cx="799.8" cy="528.2" r="2.3"/>
			</g>
			<g>
				<ellipse transform="matrix(0.866 -0.5 0.5 0.866 -123.1752 451.1719)" cx="780.3" cy="455.4" rx="2.3" ry="2.3"/>
				<ellipse transform="matrix(0.866 -0.5 0.5 0.866 -151.7366 479.7333)" cx="819.3" cy="523" rx="2.3" ry="2.3"/>
			</g>
			<g>
				<ellipse transform="matrix(0.5 -0.866 0.866 0.5 -23.77 898.2587)" cx="766" cy="469.7" rx="2.3" ry="2.3"/>
				<ellipse transform="matrix(0.5 -0.866 0.866 0.5 -23.77 976.2899)" cx="833.6" cy="508.7" rx="2.3" ry="2.3"/>
			</g>
			<g>
				<circle cx="760.8" cy="489.2" r="2.3"/>
				<circle cx="838.8" cy="489.2" r="2.3"/>
			</g>
			<g>
				<ellipse transform="matrix(0.866 -0.5 0.5 0.866 -151.7366 451.1719)" cx="766" cy="508.7" rx="2.3" ry="2.3"/>
				<ellipse transform="matrix(0.866 -0.5 0.5 0.866 -123.1752 479.7333)" cx="833.6" cy="469.7" rx="2.3" ry="2.3"/>
			</g>
			<g>
				<ellipse transform="matrix(0.5 -0.866 0.866 0.5 -62.7856 937.2743)" cx="780.3" cy="523" rx="2.3" ry="2.3"/>
				<ellipse transform="matrix(0.5 -0.866 0.866 0.5 15.2456 937.2743)" cx="819.3" cy="455.4" rx="2.3" ry="2.3"/>
			</g>
		</g>
		<g>
			<polygon points="781,501.6 780,499.8 798.8,489 798.8,459.3 800.9,459.3 800.9,490.2 			"/>
		</g>
		
			<rect x="789.4" y="474.1" transform="matrix(0.3161 -0.9487 0.9487 0.3161 99.4958 1088.3632)" fill="#AD90F4" width="30.5" height="2.1"/>
		<circle fill="#84DD66" cx="799.8" cy="489.2" r="6.5"/>
	</g>
	<g>
		<g>
			<rect x="1350.1" y="533.8" fill="#AD90F4" width="2.1" height="15.7"/>
			
				<rect x="1366.5" y="536.4" transform="matrix(0.9659 -0.2588 0.2588 0.9659 -93.6352 372.3123)" fill="#AD90F4" width="2.1" height="10.8"/>
			
				<rect x="1363.1" y="525.9" transform="matrix(0.9659 -0.2588 0.2588 0.9659 -90.5199 371.1158)" fill="#AD90F4" width="2.1" height="6.8"/>
			
				<rect x="1380.1" y="523.9" transform="matrix(0.866 -0.5 0.5 0.866 -81.2767 761.9305)" fill="#AD90F4" width="2.1" height="17.5"/>
			
				<rect x="1390.9" y="510.3" transform="matrix(0.7071 -0.7071 0.7071 0.7071 39.007 1136.9789)" fill="#AD90F4" width="2.1" height="22.2"/>
			
				<rect x="1405.5" y="507.7" transform="matrix(0.5 -0.866 0.866 0.5 259.3647 1474.3796)" fill="#AD90F4" width="2.1" height="9.7"/>
			
				<rect x="1387.4" y="490.9" transform="matrix(0.5 -0.866 0.866 0.5 259.3847 1453.5078)" fill="#AD90F4" width="2.1" height="22.4"/>
			
				<rect x="1400.9" y="478" transform="matrix(0.2588 -0.9659 0.9659 0.2588 561.7715 1720.4862)" fill="#AD90F4" width="2.1" height="32.5"/>
			<rect x="1397.7" y="479.5" fill="#AD90F4" width="22.3" height="2.1"/>
			<rect x="1383.3" y="479.5" fill="#AD90F4" width="8.7" height="2.1"/>
			
				<rect x="1378.4" y="466.9" transform="matrix(0.9659 -0.259 0.259 0.9659 -73.4669 378.0711)" fill="#AD90F4" width="40" height="2.1"/>
			
				<rect x="1403.1" y="447.1" transform="matrix(0.8661 -0.4999 0.4999 0.8661 -35.5848 763.4864)" fill="#AD90F4" width="8.2" height="2.1"/>
			
				<rect x="1384.1" y="456" transform="matrix(0.8661 -0.4999 0.4999 0.8661 -42.0732 756.9972)" fill="#AD90F4" width="15.6" height="2.1"/>
			
				<rect x="1380.3" y="438.9" transform="matrix(0.7071 -0.7071 0.7071 0.7071 96.5573 1112.9617)" fill="#AD90F4" width="22.9" height="2.1"/>
			
				<rect x="1371.8" y="427.8" transform="matrix(0.5001 -0.866 0.866 0.5001 318.9673 1410.2471)" fill="#AD90F4" width="18.4" height="2.1"/>
			
				<rect x="1364" y="416.7" transform="matrix(0.259 -0.9659 0.9659 0.259 610.174 1630.8607)" fill="#AD90F4" width="7.8" height="2.1"/>
			
				<rect x="1360.3" y="429.3" transform="matrix(0.259 -0.9659 0.9659 0.259 595.5817 1636.9043)" fill="#AD90F4" width="8.5" height="2.1"/>
			<rect x="1350.1" y="411.7" fill="#AD90F4" width="2.1" height="22.7"/>
			
				<rect x="1335" y="413.7" transform="matrix(0.9659 -0.2588 0.2588 0.9659 -64.2561 360.2665)" fill="#AD90F4" width="2.1" height="21"/>
			
				<rect x="1318.3" y="420.2" transform="matrix(0.866 -0.5 0.5 0.866 -36.0403 716.6807)" fill="#AD90F4" width="2.1" height="10.8"/>
			
				<rect x="1306.8" y="429.6" transform="matrix(0.7071 -0.7071 0.7071 0.7071 73.8615 1052.8329)" fill="#AD90F4" width="2.1" height="15.3"/>
			
				<rect x="1319.6" y="446.2" transform="matrix(0.7071 -0.7071 0.7071 0.7071 68.514 1065.6206)" fill="#AD90F4" width="2.1" height="7.7"/>
			
				<rect x="1302.8" y="439" transform="matrix(0.5 -0.866 0.866 0.5 259.3871 1355.7482)" fill="#AD90F4" width="2.1" height="28.5"/>
			
				<rect x="1294.6" y="454.3" transform="matrix(0.2588 -0.9659 0.9659 0.2588 510.4618 1596.6073)" fill="#AD90F4" width="2.1" height="22.8"/>
			
				<rect x="1316.6" y="465.5" transform="matrix(0.2588 -0.9659 0.9659 0.2588 521.1064 1622.3113)" fill="#AD90F4" width="2.1" height="12.3"/>
			<rect x="1282.2" y="479.5" fill="#AD90F4" width="6.9" height="2.1"/>
			<rect x="1294.9" y="479.5" fill="#AD90F4" width="22.5" height="2.1"/>
			
				<rect x="1283.9" y="492.1" transform="matrix(0.9659 -0.259 0.259 0.9659 -83.2252 354.5171)" fill="#AD90F4" width="40.4" height="2.1"/>
			
				<rect x="1289.4" y="506.2" transform="matrix(0.8661 -0.4999 0.4999 0.8661 -78.8432 720.2228)" fill="#AD90F4" width="30.9" height="2.1"/>
			
				<rect x="1300.9" y="524.7" transform="matrix(0.7071 -0.7071 0.7071 0.7071 10.7317 1077.4115)" fill="#AD90F4" width="9.9" height="2.1"/>
			
				<rect x="1311.9" y="511.9" transform="matrix(0.7071 -0.7071 0.7071 0.7071 23.5486 1082.7203)" fill="#AD90F4" width="13.6" height="2.1"/>
			
				<rect x="1312.1" y="531.2" transform="matrix(0.5001 -0.866 0.866 0.5001 199.5597 1410.24)" fill="#AD90F4" width="18.3" height="2.1"/>
			
				<rect x="1325.4" y="535.7" transform="matrix(0.259 -0.9659 0.9659 0.259 471.61 1688.2448)" fill="#AD90F4" width="21.4" height="2.1"/>
		</g>
		<path d="M1371.3,527.5h-40.4c-4.6,0-8.4-3.8-8.4-8.4V442c0-4.6,3.8-8.4,8.4-8.4h40.4c4.6,0,8.4,3.8,8.4,8.4h-2.1
			c0-3.5-2.8-6.3-6.3-6.3h-40.4c-3.5,0-6.3,2.8-6.3,6.3v77.2c0,3.5,2.8,6.3,6.3,6.3h40.4c3.5,0,6.3-2.8,6.3-6.3h2.1
			C1379.7,523.8,1375.9,527.5,1371.3,527.5z"/>
		<path d="M1371.3,527.5h-40.4c-4.6,0-8.4-3.8-8.4-8.4V442c0-4.6,3.8-8.4,8.4-8.4h40.4c4.6,0,8.4,3.8,8.4,8.4v69.8h-2.1V442
			c0-3.5-2.8-6.3-6.3-6.3h-40.4c-3.5,0-6.3,2.8-6.3,6.3v77.2c0,3.5,2.8,6.3,6.3,6.3h40.4c3.5,0,6.3-2.8,6.3-6.3h2.1
			C1379.7,523.8,1375.9,527.5,1371.3,527.5z"/>
		<path d="M1351.1,518.3c-3.6,0-6.5-2.9-6.5-6.5s2.9-6.5,6.5-6.5c3.6,0,6.5,2.9,6.5,6.5h-2.1c0-2.5-2-4.5-4.5-4.5
			c-2.5,0-4.5,2-4.5,4.5s2,4.5,4.5,4.5V518.3z"/>
		<g>
			<g>
				<rect x="1339.2" y="453.8" fill="#84DD66" width="23.9" height="2.1"/>
				<rect x="1339.2" y="459.3" fill="#84DD66" width="14.7" height="2.1"/>
			</g>
			<g>
				<rect x="1339.2" y="468.5" fill="#84DD66" width="16.5" height="2.1"/>
				<rect x="1339.2" y="474" fill="#84DD66" width="22" height="2.1"/>
			</g>
			<g>
				<rect x="1339.2" y="483.2" fill="#84DD66" width="22" height="2.1"/>
				<rect x="1339.2" y="488.7" fill="#84DD66" width="18.4" height="2.1"/>
			</g>
		</g>
		<polygon points="1370.5,500.9 1331.7,500.9 1331.7,460.6 1333.8,460.6 1333.8,498.8 1368.4,498.8 1368.4,445.8 1333.8,445.8 
			1333.8,453.7 1331.7,453.7 1331.7,443.7 1370.5,443.7 		"/>
	</g>
	<g>
		<g>
			<polygon fill="#84DD66" points="542.4,517.8 526.4,489.4 558.1,471.5 571.6,474.6 578.4,486.8 574.1,499.9 			"/>
			<ellipse transform="matrix(0.871 -0.4913 0.4913 0.871 -165.0363 341.3231)" cx="567.5" cy="484.9" rx="4.3" ry="4.3"/>
			<rect x="542.7" y="500.6" transform="matrix(0.8709 -0.4914 0.4914 0.8709 -175.2768 336.0688)" width="18.6" height="2.1"/>
			<rect x="539.3" y="494.5" transform="matrix(0.8709 -0.4914 0.4914 0.8709 -172.7294 333.5967)" width="18.6" height="2.1"/>
			<rect x="535.9" y="488.5" transform="matrix(0.8709 -0.4914 0.4914 0.8709 -170.1821 331.1245)" width="18.6" height="2.1"/>
		</g>
		<g>
			<path d="M534.2,541.2l-0.2-2.1c14.8-1.3,28.9-5.3,40.6-11.7c0.6-0.3,1.2-0.1,3.7,0.7c3.6,1.2,12.2,4,13.4,1.1
				c1.4-3.5-4.2-18.9-8-27.9l-0.1-0.2v-11.7h2.1v11.3c1.4,3.2,10.1,24,7.9,29.3c-1.9,4.7-10.7,1.8-16,0.1c-0.9-0.3-1.9-0.6-2.3-0.7
				C563.4,535.8,549.2,539.9,534.2,541.2z"/>
			<path d="M523.7,541.6c-19.3,0-38.2-4.6-53.1-13c-0.3,0-1.2,0-2-0.1c-4.7,0-12.7-0.1-13.8-4.3c-1.3-4.7,5.7-21.3,6.9-24v-33.5
				c-1.6-4.9-8.5-27.3-5.9-31.1c3-4.4,12.1-0.2,16.4,1.8c0.6,0.3,1.2,0.5,1.3,0.6c0,0-0.3-0.1-0.7,0.1l1,1.8
				c-0.5,0.3-0.8,0.2-2.5-0.6c-2.9-1.3-11.8-5.4-13.8-2.5c-1.4,2,2.1,16.5,6.2,29.4l0,0.3v34.1l-0.1,0.2c-3.1,7.2-7.7,19.8-6.9,22.9
				c0.8,2.7,8.5,2.8,11.8,2.8c2,0,2.5,0,2.9,0.3c14.7,8.3,33.2,12.8,52.2,12.8V541.6z"/>
			<path d="M585.7,475.7h-2.1v-9.3l0.1-0.2c3.9-8.7,9.7-23.8,8.4-27.1c-1-2.7-10.2-0.6-14.1,0.3c-3,0.7-3.8,0.9-4.5,0.6
				c-14.5-7.6-31.7-11.6-50-11.6c-7.6,0-15.2,0.7-22.4,2.1l-0.4-2c7.4-1.4,15.1-2.2,22.8-2.2c18.5,0,36,4.1,50.8,11.7
				c0.5,0,1.9-0.4,3.2-0.7c5.9-1.4,14.8-3.4,16.5,0.9c0.3,0.8,1.3,3.4-3.5,16.5c-2.1,5.7-4.4,10.9-4.9,12V475.7z"/>
		</g>
		<g>
			<path d="M526.7,528.4c-22.6,0-40.5-8.2-45.6-10.8l0.9-1.8c5.1,2.6,23.5,11.1,46.5,10.6l0,2.1
				C527.9,528.4,527.3,528.4,526.7,528.4z"/>
		</g>
		<g>
			<path d="M571,450.4c-5.1-2.6-23.5-11.1-46.5-10.6l0-2.1c23.5-0.5,42.3,8.1,47.5,10.8L571,450.4z"/>
		</g>
		<path d="M585.6,503.5l-1-1.8c5.3-3,7.1-9.7,4.2-15c-3-5.3-9.7-7.1-15-4.2l-5.8,3.3l-1-1.8l5.8-3.3c6.3-3.5,14.2-1.3,17.8,5
			C594.1,492,591.8,500,585.6,503.5z"/>
		<polygon fill="#AD90F4" points="485.9,432.4 502.4,420.5 490.5,437.1 502.4,453.6 485.9,441.7 469.3,453.6 481.2,437.1 
			469.3,420.5 		"/>
		<polygon fill="#AD90F4" points="498.3,469.6 506.5,463.7 500.6,471.9 506.5,480.2 498.3,474.3 490,480.2 495.9,471.9 490,463.7 		
			"/>
	</g>
</g>
</svg>
