<svg id="Layer_1" data-name="Layer 1" xmlns="http://www.w3.org/2000/svg" viewBox="0 0 1600 900"><defs><style>.cls-1{fill:#38a2db;}.cls-2{fill:#cdae2c;}.cls-3{fill:#321b11;}.cls-4{fill:#fff;}.cls-5{fill:#31a2db;}.cls-6{fill:#311b12;}.cls-7{fill:#2fa3dc;}.cls-8{fill:none;stroke:#fff;stroke-miterlimit:10;stroke-width:5.27px;}</style></defs><title>Artboard 14</title><polygon class="cls-1" points="733.36 343.03 800 139.49 866.64 343.03 887.54 343.03 809.44 104.48 790.56 104.48 712.46 343.03 733.36 343.03"/><rect class="cls-2" x="680.82" y="162.25" width="238.36" height="150.52"/><rect class="cls-3" x="696.69" y="303.72" width="206.63" height="13.24"/><path class="cls-4" d="M887.37,278.44l-3.16-.23c-.21,0-21.19-1.54-30.41-2.48l.67-6.58c7,.71,20.83,1.77,27.05,2.22.68-5.87,2.11-18.47,2.63-24.8l6.6.54c-.7,8.51-2.93,27.38-3,28.18Z"/><path class="cls-4" d="M880.94,275.62a75.18,75.18,0,0,1-12-15.9c-1.51-2.66-3-5.74-4.5-9-6-12.6-12.14-25.69-25.63-24.24-5.72.59-10.39,4.11-15.34,7.85-4.06,3.06-8.25,6.23-13.33,8-9.64,3.38-19.73,1.62-25.73-4.52-4.14-4.23-5.83-9.75-7.46-15.08-1.58-5.16-3.07-10-6.62-13-4-3.34-10.31-3.93-19.75-1.87-9.76,2.14-23.3,3.43-32.44-2.5A20.13,20.13,0,0,1,709.3,192l6.49-1.34a13.58,13.58,0,0,0,5.94,9.18c7.59,4.93,20.43,3.11,27.41,1.59,7.3-1.59,17.86-3,25.38,3.23,5.08,4.2,6.93,10.27,8.73,16.13,1.46,4.79,2.85,9.31,5.86,12.39,4.78,4.88,12.88,5,18.8,2.9,4.11-1.45,7.72-4.17,11.54-7.05,5.45-4.12,11.09-8.37,18.64-9.15,18.12-1.89,26,14.69,32.29,28,1.45,3.06,2.84,6,4.28,8.53a68.77,68.77,0,0,0,11,14.51Z"/><path class="cls-2" d="M222.22,227.48H202.36v-54.3a69.84,69.84,0,0,1,139.68,0H322.18a50,50,0,1,0-100,0Z"/><rect class="cls-1" x="181.57" y="206.79" width="181.25" height="137.39"/><rect class="cls-4" x="194.82" y="242.49" width="154.77" height="65.98"/><rect class="cls-3" x="225.5" y="260.08" width="6.62" height="17.02"/><rect class="cls-3" x="217.4" y="265.96" width="6.62" height="17.03" transform="translate(-108.49 399.69) rotate(-72.02)"/><rect class="cls-3" x="215.29" y="280.68" width="17.03" height="6.62" transform="matrix(0.59, -0.81, 0.81, 0.59, -137.5, 298)"/><rect class="cls-3" x="230.51" y="275.48" width="6.62" height="17.03" transform="translate(-122.3 191.78) rotate(-36.02)"/><rect class="cls-3" x="228.39" y="271.16" width="17.03" height="6.62" transform="translate(-73.14 86.51) rotate(-17.97)"/><rect class="cls-3" x="268.89" y="260.08" width="6.62" height="17.02"/><rect class="cls-3" x="260.79" y="265.96" width="6.62" height="17.03" transform="translate(-78.49 440.96) rotate(-72.02)"/><rect class="cls-3" x="258.68" y="280.68" width="17.03" height="6.62" transform="translate(-119.63 333.1) rotate(-53.98)"/><rect class="cls-3" x="273.89" y="275.48" width="6.62" height="17.03" transform="translate(-114 217.29) rotate(-36.02)"/><rect class="cls-3" x="271.78" y="271.16" width="17.03" height="6.62" transform="matrix(0.95, -0.31, 0.31, 0.95, -71.02, 99.9)"/><rect class="cls-3" x="312.28" y="260.08" width="6.62" height="17.02"/><rect class="cls-3" x="304.18" y="265.96" width="6.62" height="17.03" transform="translate(-48.49 482.23) rotate(-72.02)"/><rect class="cls-3" x="302.07" y="280.68" width="17.03" height="6.62" transform="matrix(0.59, -0.81, 0.81, 0.59, -101.75, 368.19)"/><rect class="cls-3" x="317.28" y="275.48" width="6.62" height="17.03" transform="translate(-105.71 242.8) rotate(-36.02)"/><rect class="cls-3" x="315.17" y="271.16" width="17.03" height="6.62" transform="translate(-68.9 113.29) rotate(-17.97)"/><rect class="cls-2" x="153.02" y="558.31" width="238.36" height="238.36" rx="15.18" ry="15.18"/><path class="cls-3" d="M372.31,558.31H172.09A19.07,19.07,0,0,0,153,577.38V608.8H391.38V577.38A19.07,19.07,0,0,0,372.31,558.31Z"/><circle class="cls-4" cx="185.3" cy="583.55" r="10.21"/><circle class="cls-5" cx="217.02" cy="583.55" r="10.21"/><circle class="cls-2" cx="248.75" cy="583.55" r="10.21"/><path class="cls-4" d="M296.8,715.58A5.08,5.08,0,0,1,294,717c-5,.63-3.57-3.32-5.15-6.26-.82-1.52-2.65-2.64-4.28-2.07-1.47.52-2.22,2.17-2.53,3.71-.41,2-.4,4.22-2.25,5.43-1.49,1-5.07,1-6-.78a6.53,6.53,0,0,1-.27-3,4.44,4.44,0,0,0-1.34-3.29,2.75,2.75,0,0,0-3.37-.28c-1.81,1.38-.7,4.48-2,6.34-1.77,2.52-5.25,1.63-6.52-.68-1-1.77-.13-5.81-2.93-6.11a2.51,2.51,0,0,0-2.27,1.34,9.84,9.84,0,0,0-.9,2.63,5,5,0,0,1-1.25,2.45c-5.71,5.26-8.77-6.34-9.09-10.12-.51-5.91.74-11.78.74-17.68V667.77h55.24v23c0,6.24,1.46,12.8,0,19A11.78,11.78,0,0,1,296.8,715.58Z"/><path class="cls-4" d="M272.2,628.24a43.07,43.07,0,0,0-43.07,43.07h0v13.92a12.54,12.54,0,0,0,12.54,12.54h61a12.54,12.54,0,0,0,12.54-12.54V671.31h0A43.07,43.07,0,0,0,272.2,628.24Z"/><path class="cls-3" d="M265.35,691.55a29.83,29.83,0,0,1,3.72-3.47c.84-.67,1.9-1.35,2.91-1a3.32,3.32,0,0,1,1.48,1.41c1.44,2.12,3.18,3.55,4.72,5.52a10.8,10.8,0,0,1,1.84,3.05c.43,1.26-.05,1.94-.05,3.09-.57,1.05-2,1.22-3.17,1.27l-10.49.41a6.26,6.26,0,0,1-3.47-.53c-2.39-1.42-.89-4.62.13-6.42A19.51,19.51,0,0,1,265.35,691.55Z"/><path class="cls-3" d="M265.18,663.54a14.47,14.47,0,0,1-.1,11.65c-2.23,4.71-7.15,7.42-11.76,9.84-3.65,1.91-8.35,3.74-11.57,1.18-2.16-1.72-2.66-4.77-2.74-7.53-.29-10.67,2.56-27.92,17.77-23.12A13.72,13.72,0,0,1,265.18,663.54Z"/><path class="cls-3" d="M275.35,663.54a14.47,14.47,0,0,0,.1,11.65c2.23,4.71,7.15,7.42,11.76,9.84,3.65,1.91,8.35,3.74,11.57,1.18,2.16-1.72,2.66-4.77,2.74-7.53.29-10.67-2.56-27.92-17.77-23.12A13.72,13.72,0,0,0,275.35,663.54Z"/><rect class="cls-4" x="200.95" y="739.97" width="142.49" height="6.63" transform="translate(-187.53 98.91) rotate(-15.39)"/><rect class="cls-4" x="268.89" y="672.04" width="6.63" height="142.49" transform="translate(-516.66 808.56) rotate(-74.62)"/><path class="cls-4" d="M330.59,723.24c2.74-2.06,5.13-4.54,7.75-6.74,2.17-1.82,4.77-3.53,7.6-3.33s5.5,3.25,4.3,5.82c-.46,1-1.41,1.78-1.51,2.87a3.06,3.06,0,0,0,2,2.74c1.08.52,2.3.72,3.35,1.3a5.18,5.18,0,0,1,.48,8.76c-2.34,1.66-5.61,1.11-8.19-.15s-4.86-3.12-7.56-4.08c-3.21-1.14-6.67-.86-10-.18-2,.41-7.72,3.08-9.38,1C317.39,728.62,328.88,724.52,330.59,723.24Z"/><path class="cls-4" d="M207.25,719.81c-1.29-1.87-2.09-4.07-3.57-5.8s-4-2.88-6-1.79c-1.63.89-2.27,2.9-2.53,4.74s-.36,3.81-1.42,5.34c-1.56,2.25-4.87,3-6,5.49-1,2.22.42,5,2.57,6.08a9.08,9.08,0,0,0,7.07.09,62.44,62.44,0,0,0,6.54-3.16,12.67,12.67,0,0,1,7-1.56c1.29.16,2.51.65,3.8.82a4.14,4.14,0,0,0,3.62-1c2.85-3-2.25-3.65-3.83-4.11A13.4,13.4,0,0,1,207.25,719.81Z"/><path class="cls-4" d="M205,769.62a10.07,10.07,0,0,1-3.46,3.95c-1.54.91-3.7,1.08-5-.16-1.47-1.42-1.12-3.84-.59-5.82s1.06-4.3-.21-5.91c-.79-1-2.07-1.42-3.11-2.14a5.8,5.8,0,0,1-2.51-4.48,5,5,0,0,1,2.45-4.43c2.38-1.3,5.31-.26,7.79.83,2.82,1.23,6,3.27,9,3.72a27.5,27.5,0,0,0,11.59-.86,9.06,9.06,0,0,1,3.13-.57,2.56,2.56,0,0,1,2.39,1.78,2.48,2.48,0,0,1-.83,2.21,7.31,7.31,0,0,1-2.11,1.25l-11.28,5.08c-2.15,1-4.64,2-6.14,3.95A16.76,16.76,0,0,0,205,769.62Z"/><path class="cls-4" d="M347.75,756.1a10,10,0,0,1,4.15.65,3.43,3.43,0,0,1,2.13,3.34c-.33,2.34-3.68,3.34-4,5.69-.3,2.55,3.16,4,3.75,6.49a4,4,0,0,1-2.57,4.33,6.68,6.68,0,0,1-5.31-.54,23.61,23.61,0,0,1-4.42-3.26,81.56,81.56,0,0,0-13.72-9.37c-2.51-1.36-5.09-2.54-7.71-3.68-.77-.34-2.31-.64-2.72-1.5-1.32-2.79,3.51-3,5-3.1,2-.19,3.77.43,5.72.62C334.56,756.39,341.27,756,347.75,756.1Z"/><path class="cls-5" d="M800,780.53a103,103,0,1,1,103-103A103.16,103.16,0,0,1,800,780.53Zm0-186.22a83.18,83.18,0,1,0,83.18,83.18A83.27,83.27,0,0,0,800,594.31Z"/><path class="cls-5" d="M800,780.53a103,103,0,1,1,103-103A103.16,103.16,0,0,1,800,780.53Zm0-186.22a83.18,83.18,0,1,0,83.18,83.18A83.27,83.27,0,0,0,800,594.31Z"/><path class="cls-2" d="M772.32,697.25c-12.93-15.45-27.38-34-12.32-50.93,6.9-7.77,15.13-9.75,25.66-6.35,9.38,3,12.75,15.67,13.72,15.46s8.95-14.14,17.68-15.94c12.4-2.55,25.47,3.55,28.39,16.51,2.43,10.78-2.3,22.35-8.7,30.88-6.72,9-37.58,41.38-37.58,41.38S778,704,772.32,697.25Z"/><rect class="cls-3" x="796.69" y="558.31" width="6.62" height="56.28"/><rect class="cls-3" x="796.69" y="740.39" width="6.62" height="56.28"/><rect class="cls-3" x="862.9" y="674.18" width="56.28" height="6.62"/><rect class="cls-3" x="680.82" y="674.18" width="56.28" height="6.62"/><circle class="cls-6" cx="800" cy="677.49" r="6.62"/><circle class="cls-2" cx="1327.8" cy="223.75" r="119.18"/><path class="cls-3" d="M1327.8,174.23c27.22,0,53.65,4.19,79,10.35a89.92,89.92,0,0,0-157.91,0C1274.16,178.42,1300.58,174.23,1327.8,174.23Z"/><path class="cls-4" d="M1250.39,184.24a332.65,332.65,0,0,1,154.83,0,139.85,139.85,0,0,0-154.83,0Z"/><circle class="cls-4" cx="1281.45" cy="256.86" r="27.59"/><circle class="cls-7" cx="1281.45" cy="256.86" r="15.99"/><circle class="cls-4" cx="1368.63" cy="256.86" r="27.59"/><circle class="cls-7" cx="1368.63" cy="256.86" r="15.99"/><rect class="cls-3" x="1208.62" y="578.17" width="238.36" height="157.14" rx="15.14" ry="15.14"/><rect class="cls-2" x="1208.62" y="598.92" width="238.36" height="157.14" rx="15.14" ry="15.14"/><rect class="cls-1" x="1208.62" y="619.66" width="238.36" height="157.14" rx="15.14" ry="15.14"/><rect class="cls-4" x="1235.21" y="643.8" width="80.91" height="80.91"/><rect class="cls-4" x="1235.21" y="643.8" width="80.91" height="80.91"/><path class="cls-3" d="M1308,724.71a4.46,4.46,0,0,0,.44-.58c1.4-2.38.3-5.4-.81-7.93-1.27-2.9-2.64-5.22-2.4-8.37.26-3.36.84-6.69.54-10.08-.34-3.83-2.11-6.06-3.76-9.31-1.73-3.41-.65-6.84.25-10.32,1.22-4.75-.44-10-2.45-14.35a26.92,26.92,0,0,0-48.45-.94,34.83,34.83,0,0,0-3.81,11.9c-.4,3.74,1.67,8.08.32,11.52-.6,1.54-1.95,2.67-2.67,4.15-1,2-.72,4.34-.22,6.5s1.25,4.29,1.2,6.5c-.06,2.77-2,4.13-3,6.43-1.27,2.72-.73,5.7-1,8.59a11.76,11.76,0,0,0,.82,6.29Z"/><path class="cls-4" d="M1256.93,674.71a18.5,18.5,0,1,0,37,0v-4.51h-37Z"/><path class="cls-2" d="M1251.11,724.71c0-14.46,10.68-26.19,23.86-26.19s23.86,11.72,23.86,26.19Z"/><line class="cls-8" x1="1344.81" y1="647.15" x2="1420.4" y2="647.15"/><line class="cls-8" x1="1344.81" y1="680.11" x2="1398.33" y2="680.11"/><line class="cls-8" x1="1344.81" y1="713.08" x2="1420.4" y2="713.08"/><line class="cls-8" x1="1344.81" y1="746.05" x2="1398.33" y2="746.05"/><line class="cls-8" x1="1235.21" y1="746.05" x2="1316.12" y2="746.05"/></svg>