<svg id="Layer_1" data-name="Layer 1" xmlns="http://www.w3.org/2000/svg" viewBox="0 0 1000 130"><defs><style>.cls-1{fill:#ef4136;}.cls-2{fill:#fff;}.cls-3{fill:#231f20;}</style></defs><title>Artboard 7</title><polygon class="cls-1" points="521.44 88.65 531.35 78.6 488.39 78.6 488.39 40.78 478.35 50.69 478.35 88.65 521.44 88.65"/><polygon class="cls-2" points="470.07 62.94 503.89 28.66 539.08 28.66 539.08 67.06 505.26 101.35 470.07 101.35 470.07 62.94"/><path class="cls-3" d="M505.68,102.36H469.06V62.53l34.41-34.88h36.62V67.48Zm-34.6-2h33.76l33.24-33.69v-37H504.31L471.08,63.36Z"/><polygon class="cls-3" points="539.17 28.66 539.17 67.06 505.35 101.35 505.26 61.45 539.17 28.66"/><polygon class="cls-3" points="505.68 98.81 470.07 98.81 470.07 96.79 504.84 96.79 538.37 62.81 539.8 64.23 505.68 98.81"/><polygon class="cls-3" points="505.68 94.83 470.07 94.83 470.07 92.81 504.84 92.81 538.37 58.83 539.8 60.24 505.68 94.83"/><polygon class="cls-3" points="505.68 90.84 470.07 90.84 470.07 88.82 504.84 88.82 538.37 54.84 539.8 56.26 505.68 90.84"/><polygon class="cls-3" points="505.68 86.85 470.07 86.85 470.07 84.83 504.84 84.83 538.37 50.85 539.8 52.27 505.68 86.85"/><polygon class="cls-3" points="505.68 82.86 470.07 82.86 470.07 80.84 504.84 80.84 538.37 46.86 539.8 48.28 505.68 82.86"/><polygon class="cls-3" points="505.68 78.88 470.07 78.88 470.07 76.86 504.84 76.86 538.37 42.88 539.8 44.29 505.68 78.88"/><polygon class="cls-3" points="505.68 74.89 470.07 74.89 470.07 72.87 504.84 72.87 538.37 38.89 539.8 40.31 505.68 74.89"/><polygon class="cls-3" points="505.68 70.9 470.07 70.9 470.07 68.88 504.84 68.88 538.37 34.9 539.8 36.32 505.68 70.9"/><polygon class="cls-3" points="505.68 66.91 470.07 66.91 470.07 64.89 504.84 64.89 538.37 30.91 539.8 32.33 505.68 66.91"/><polygon class="cls-2" points="505.26 62.94 470.07 62.94 503.89 28.66 539.08 28.66 505.26 62.94"/><path class="cls-3" d="M534.25,30.68,504.41,60.92H474.9l29.84-30.24h29.52m4.83-2H503.89L470.07,62.94h35.19l33.82-34.28Z"/><path class="cls-3" d="M499.95,53.62c-.33-1.2-2.54-1.72-4.94-1.16s-4.08,2-3.75,3.18,2.54,1.72,4.94,1.16S500.27,54.81,499.95,53.62Z"/><path class="cls-3" d="M514.51,37.16c-.19-.69-1.46-1-2.83-.66s-2.34,1.13-2.15,1.82,1.46,1,2.83.66S514.7,37.85,514.51,37.16Z"/><path class="cls-3" d="M512.76,37.38a2.29,2.29,0,0,1,.6.07,3,3,0,0,1-1.23.55,3.81,3.81,0,0,1-.85.1,2.31,2.31,0,0,1-.6-.07,3,3,0,0,1,1.23-.55,3.75,3.75,0,0,1,.85-.1m0-1a4.78,4.78,0,0,0-1.08.13c-1.38.32-2.34,1.13-2.15,1.82.14.5.84.79,1.75.79a4.84,4.84,0,0,0,1.08-.13c1.37-.32,2.34-1.13,2.15-1.82-.14-.5-.84-.79-1.75-.79Z"/><path class="cls-3" d="M511.41,40.26c-.19-.69-1.46-1-2.83-.67s-2.34,1.13-2.15,1.82,1.46,1,2.83.66S511.6,40.95,511.41,40.26Z"/><path class="cls-3" d="M509.66,40.48a2.3,2.3,0,0,1,.6.07,3,3,0,0,1-1.23.55,3.81,3.81,0,0,1-.85.1,2.31,2.31,0,0,1-.6-.07,3,3,0,0,1,1.23-.55,3.76,3.76,0,0,1,.85-.1m0-1a4.79,4.79,0,0,0-1.08.13c-1.38.32-2.34,1.13-2.15,1.82.14.5.85.79,1.75.79a4.84,4.84,0,0,0,1.08-.13c1.38-.32,2.34-1.13,2.15-1.82-.13-.5-.84-.79-1.75-.79Z"/><path class="cls-3" d="M482.3,58.36a.5.5,0,0,1-.36-.86L506,33.39a.5.5,0,1,1,.71.71L482.65,58.21A.5.5,0,0,1,482.3,58.36Z"/><path class="cls-3" d="M502.48,58.36a.5.5,0,0,1-.36-.86l24.11-24.11a.5.5,0,0,1,.71.71L502.83,58.21A.5.5,0,0,1,502.48,58.36Z"/><polygon class="cls-1" points="488.25 40.78 478.35 50.82 521.3 50.82 521.3 88.65 531.35 78.74 531.35 40.78 488.25 40.78"/><rect class="cls-3" x="504.25" y="61.45" width="2.02" height="39.9"/><rect class="cls-2" x="265.92" y="28.66" width="41.27" height="72.69"/><path class="cls-3" d="M309.21,103.37H263.9V26.64h45.31Zm-41.27-4h37.23V30.68H267.94Z"/><rect class="cls-1" x="82.85" y="39.68" width="10.18" height="2.02" transform="translate(-8.72 47.55) rotate(-28.89)"/><rect class="cls-1" x="81.49" y="44.99" width="14.97" height="2.02" transform="translate(-11.15 48.71) rotate(-28.89)"/><path class="cls-3" d="M87.86,104.45H49.12V94c0-5.37-2.26-5.73-6.37-6.38C38.22,86.86,32,85.87,32,75.22v-11a36.49,36.49,0,0,1,73,0v11c0,10.65-6.22,11.64-10.76,12.36-4.11.65-6.37,1-6.37,6.38Zm-34.7-4H83.83V94c0-8.82,5.65-9.72,9.77-10.37,4.43-.7,7.35-1.17,7.35-8.37v-11a32.46,32.46,0,1,0-64.91,0v11c0,7.2,2.92,7.67,7.35,8.37,4.12.66,9.77,1.55,9.77,10.37Z"/><rect class="cls-3" x="58.79" y="92.37" width="2.02" height="10.07"/><rect class="cls-3" x="67.51" y="92.37" width="2.02" height="10.07"/><rect class="cls-3" x="76.24" y="92.37" width="2.02" height="10.07"/><circle class="cls-3" cx="54.75" cy="67.38" r="10.67"/><circle class="cls-3" cx="82.23" cy="67.38" r="10.67"/><polygon class="cls-3" points="61.66 84.86 68.49 78.02 75.33 84.86 61.66 84.86"/><path class="cls-3" d="M929.64,109.14,891.27,87V43l38.36-22.16L968,43V87ZM895.31,84.66l34.33,19.82L964,84.66V45.35L929.63,25.52,895.31,45.34Z"/><polygon class="cls-3" points="929.63 67.5 892.28 45.93 894.3 42.43 929.63 62.84 964.97 42.43 966.99 45.93 929.63 67.5"/><rect class="cls-3" x="927.61" y="65.17" width="4.04" height="41.64"/><rect class="cls-3" x="903.19" y="86" width="21.3" height="1.01" transform="translate(93.57 498.5) rotate(-32.08)"/><rect class="cls-3" x="912.8" y="93.69" width="13.63" height="1.01" transform="translate(90.37 502.74) rotate(-32.08)"/><rect class="cls-3" x="913.9" y="64.23" width="10.87" height="1.01" transform="translate(105.97 498.1) rotate(-32.08)"/><rect class="cls-3" x="892.42" y="64.57" width="14.65" height="1.01" transform="translate(110.71 502.35) rotate(-33.13)"/><path class="cls-1" d="M939.21,85.46c2.07-1.19,3.74-.48,3.74,1.58a7.74,7.74,0,0,1-3.74,5.9c-2.07,1.2-3.74.49-3.74-1.58A7.76,7.76,0,0,1,939.21,85.46Z"/><path class="cls-1" d="M939.21,67.21c2.07-1.19,3.74-.49,3.74,1.58a7.76,7.76,0,0,1-3.74,5.91c-2.07,1.2-3.74.48-3.74-1.58A7.75,7.75,0,0,1,939.21,67.21Z"/><path class="cls-1" d="M961.2,58.26a7.77,7.77,0,0,1-3.74,5.91c-2.07,1.19-3.74.48-3.74-1.58a7.75,7.75,0,0,1,3.74-5.9C959.53,55.48,961.2,56.19,961.2,58.26Z"/><path class="cls-1" d="M961.2,76.51a7.76,7.76,0,0,1-3.74,5.9c-2.07,1.2-3.74.49-3.74-1.58a7.76,7.76,0,0,1,3.74-5.9C959.53,73.73,961.2,74.44,961.2,76.51Z"/><path class="cls-1" d="M952.08,72.65a7.76,7.76,0,0,1-3.74,5.91c-2.07,1.19-3.74.49-3.74-1.58a7.76,7.76,0,0,1,3.74-5.91C950.4,69.87,952.08,70.58,952.08,72.65Z"/><path class="cls-1" d="M906.07,72.65a7.77,7.77,0,0,0,3.74,5.91c2.07,1.19,3.74.49,3.74-1.58a7.76,7.76,0,0,0-3.74-5.91C907.74,69.87,906.07,70.58,906.07,72.65Z"/><ellipse class="cls-1" cx="929.63" cy="34.45" rx="4.95" ry="2.79"/><ellipse class="cls-1" cx="929.63" cy="43.95" rx="4.95" ry="2.79"/><ellipse class="cls-1" cx="929.63" cy="53.46" rx="4.95" ry="2.79"/><circle class="cls-2" cx="722.68" cy="65" r="36.34"/><path class="cls-3" d="M722.68,103.37A38.36,38.36,0,1,1,761,65,38.41,38.41,0,0,1,722.68,103.37Zm0-72.69A34.32,34.32,0,1,0,757,65,34.36,34.36,0,0,0,722.68,30.68Z"/><circle class="cls-1" cx="702.53" cy="73.64" r="5.15"/><circle class="cls-1" cx="742.82" cy="73.64" r="5.15"/><rect class="cls-3" x="711.59" y="81.41" width="22.18" height="2.02" transform="translate(-1.54 149.99) rotate(-11.84)"/><rect class="cls-3" x="697.68" y="55.88" width="21.32" height="4.04" transform="translate(9.01 184.56) rotate(-14.94)"/><path d="M703.75,58.69a5.16,5.16,0,0,0-.15,1.17,5.08,5.08,0,1,0,8.77-3.48Z"/><rect class="cls-3" x="735" y="47.24" width="4.04" height="21.32" transform="translate(490.83 755) rotate(-75.04)"/><path d="M741.6,58.69a5.16,5.16,0,0,1,.15,1.17A5.08,5.08,0,1,1,733,56.38Z"/><path class="cls-3" d="M709.34,48.78l-.4-2a15.34,15.34,0,0,0,12-18.08l2-.4a17.36,17.36,0,0,1-13.56,20.47Z"/><path class="cls-3" d="M704.62,45.32l-.4-2A17.28,17.28,0,0,0,718,28.29l2,.22A19.3,19.3,0,0,1,704.62,45.32Z"/><path class="cls-3" d="M702.57,41.82l-.4-2a17.34,17.34,0,0,0,12.58-10.37l1.87.77A19.36,19.36,0,0,1,702.57,41.82Z"/><path class="cls-3" d="M286.56,75.86A10.85,10.85,0,1,1,297.41,65,10.86,10.86,0,0,1,286.56,75.86Zm0-19.69A8.83,8.83,0,1,0,295.39,65,8.84,8.84,0,0,0,286.56,56.17Z"/><circle class="cls-3" cx="286.56" cy="84.95" r="3.79"/><rect class="cls-3" x="283.62" y="44.18" width="5.87" height="1.01"/><rect class="cls-3" x="283.62" y="40.89" width="5.87" height="1.01"/><rect class="cls-3" x="283.62" y="47.47" width="5.87" height="1.01"/><path class="cls-3" d="M302.2,96.57h-31.3V33.44h31.3Zm-29.28-2h27.26V35.46H272.93Z"/><rect class="cls-1" x="265.92" y="58.06" width="41.27" height="13.89"/><path class="cls-3" d="M308.2,73H264.91V57.05H308.2Zm-41.27-2h39.25V59.07H266.93Z"/></svg>