<?xml version="1.0" encoding="utf-8"?>
<!-- Generator: Adobe Illustrator 21.0.2, SVG Export Plug-In . SVG Version: 6.00 Build 0)  -->
<svg version="1.1" id="Layer_1" xmlns="http://www.w3.org/2000/svg" xmlns:xlink="http://www.w3.org/1999/xlink" x="0px" y="0px"
	 viewBox="0 0 1000 333.3" style="enable-background:new 0 0 1000 333.3;" xml:space="preserve">
<style type="text/css">
	.st0{fill:#231F20;}
</style>
<g>
	<g>
		<polygon class="st0" points="256.1,257.3 233.5,257.3 233.5,255 253.8,255 253.8,234.8 256.1,234.8 		"/>
		<polygon class="st0" points="77.3,98.8 75,98.8 75,76.2 97.9,76.2 97.9,78.4 77.3,78.4 		"/>
		<polygon class="st0" points="99.9,121.5 97.6,121.5 97.6,98.8 120.6,98.8 120.6,101.1 99.9,101.1 		"/>
		<polygon class="st0" points="256.3,99 254,99 254,78.3 233.6,78.3 233.6,76 256.3,76 		"/>
		<g>
			<path class="st0" d="M167.8,255.2c-3.9,0-7.4-2.1-9.2-5.5c-1.9,1.5-4.1,2.3-6.6,2.3c-4.3,0-8.1-2.5-9.7-6.4
				c-0.5,0.1-0.9,0.1-1.3,0.1c-5,0-9-4.1-9-9c0-0.2,0-0.4,0-0.5c-5.4-0.6-9.5-5.1-9.5-10.5c0-2.4,0.8-4.7,2.3-6.6
				c-3.3-1.9-5.5-5.4-5.5-9.2c0-3.2,1.5-6.3,4.1-8.3c-2.6-2.3-4.1-5.6-4.1-9.1c0-3.8,1.8-7.4,4.8-9.7c-1.1-1.9-1.7-4-1.7-6.1
				c0-5.9,4.1-10.8,9.8-11.9c-0.2-0.8-0.3-1.6-0.3-2.3c0-6.5,5.9-11.8,12.7-10.4c0.5-5.4,5-9.7,10.6-9.7c0.9,0,1.9,0.1,2.8,0.4
				c1.6-4,5.5-6.7,9.8-6.7c5.9,0,10.6,4.8,10.6,10.6v98C178.4,250.5,173.7,255.2,167.8,255.2z M159.4,245.8l0.6,1.7
				c1.2,3.3,4.3,5.5,7.8,5.5c4.6,0,8.3-3.7,8.3-8.3v-98c0-4.6-3.7-8.3-8.3-8.3c-3.7,0-7,2.5-8,6.2l-0.3,1.2l-1.2-0.5
				c-1-0.4-2.1-0.6-3.1-0.6c-4.6,0-8.4,3.7-8.4,8.3c0,0.3,0.1,0.4,0.1,0.5l0.1,1.7l-1.6-0.6c-1-0.4-1.9-0.5-2.8-0.5
				c-4.6,0-8.3,3.7-8.3,8.3c0,0.9,0.2,1.9,0.5,2.9l0.5,1.4l-1.5,0.1c-5.2,0.5-9.1,4.7-9.1,9.8c0,2.1,0.6,4.1,1.9,5.8l0.7,1l-1,0.6
				c-3,1.8-4.7,5-4.7,8.4c0,3.3,1.6,6.4,4.4,8.2l1.5,1l-1.6,0.9c-2.6,1.5-4.3,4.3-4.3,7.2c0,3.5,2.2,6.6,5.5,7.8l1.7,0.6l-1.4,1.3
				c-1.7,1.6-2.7,3.8-2.7,6.1c0,4.6,3.7,8.3,8.3,8.3h1.4l-0.1,1.3c-0.1,0.4-0.1,0.9-0.1,1.4c0,3.7,3,6.8,6.8,6.8
				c0.5,0,1.1-0.1,1.8-0.3l1-0.3l0.3,1c1.1,3.5,4.3,5.8,7.9,5.8c2.3,0,4.5-1,6.1-2.7L159.4,245.8z"/>
			<path class="st0" d="M155.2,163.6c-5.9,0-10.6-4.8-10.6-10.6h2.3c0,4.6,3.7,8.3,8.4,8.3V163.6z"/>
			<path class="st0" d="M165.8,171.9h-2.3c0-4.6-3.7-8.4-8.3-8.4v-2.3C161,161.3,165.8,166.1,165.8,171.9z"/>
			<path class="st0" d="M197.4,194.1h-2.3c0-5.9,4.8-10.6,10.6-10.6v2.3C201.1,185.7,197.4,189.4,197.4,194.1z"/>
			<path class="st0" d="M186.8,204.7v-2.3c4.6,0,8.3-3.7,8.3-8.4h2.3C197.4,199.9,192.6,204.7,186.8,204.7z"/>
			<path class="st0" d="M167.8,229.9c-5.9,0-10.6-4.8-10.6-10.6h2.3c0,4.6,3.7,8.3,8.3,8.3V229.9z"/>
			<path class="st0" d="M143.7,244.6h-2.3v-3.2c0-5.9,4.8-10.6,10.6-10.6v2.3c-4.6,0-8.4,3.7-8.4,8.3V244.6z"/>
			<path class="st0" d="M129.9,220.5h-3.2v-2.3h3.2c4.6,0,8.3-3.7,8.3-8.4h2.3C140.5,215.7,135.8,220.5,129.9,220.5z"/>
			<path class="st0" d="M136.2,185.4c-3.3-3.3-8.6-3.3-11.8,0l-1.6-1.6c4.1-4.1,10.9-4.1,15,0L136.2,185.4z"/>
			<path class="st0" d="M186.8,255.2c-5.9,0-10.6-4.8-10.6-10.6v-98c0-5.9,4.8-10.6,10.6-10.6c4.4,0,8.2,2.7,9.8,6.7
				c0.9-0.3,1.9-0.4,2.8-0.4c5.5,0,10.1,4.3,10.6,9.7c0.7-0.1,1.4-0.2,2.1-0.2c5.9,0,10.6,4.8,10.6,10.6c0,0.8-0.1,1.5-0.3,2.3
				c5.7,1.1,9.8,6,9.8,11.9c0,2.2-0.6,4.3-1.7,6.1c3,2.3,4.8,5.8,4.8,9.7c0,3.5-1.5,6.8-4.1,9.1c2.5,2,4.1,5.1,4.1,8.3
				c0,3.9-2.1,7.4-5.5,9.2c1.5,1.9,2.3,4.1,2.3,6.6c0,5.5-4.2,10-9.5,10.6c0,0.2,0,0.3,0,0.5c0,5-4.1,9-9,9c-0.4,0-0.9,0-1.3-0.1
				c-1.7,3.9-5.4,6.4-9.7,6.4c-2.4,0-4.7-0.8-6.6-2.3C194.2,253.1,190.6,255.2,186.8,255.2z M186.8,138.3c-4.6,0-8.3,3.7-8.3,8.3v98
				c0,4.6,3.7,8.3,8.3,8.3c3.5,0,6.6-2.2,7.8-5.5l0.6-1.7l1.3,1.4c1.6,1.7,3.8,2.7,6.1,2.7c3.6,0,6.8-2.3,7.9-5.8l0.3-1l1,0.3
				c0.7,0.2,1.2,0.3,1.8,0.3c3.7,0,6.8-3,6.8-6.8c0-0.5,0-0.9-0.1-1.4L220,234l1.6,0c4.5,0,8.3-3.7,8.3-8.4c0-2.3-1-4.5-2.7-6.1
				l-1.4-1.3l1.7-0.6c3.3-1.2,5.5-4.3,5.5-7.8c0-3-1.6-5.8-4.3-7.2l-1.6-0.9l1.5-1c2.7-1.9,4.4-4.9,4.4-8.2c0-3.4-1.8-6.6-4.7-8.4
				l-1-0.6l0.7-1c1.2-1.7,1.9-3.7,1.9-5.8c0-5.2-3.9-9.4-9.1-9.8l-1.5-0.1l0.5-1.4c0.4-1,0.5-1.9,0.5-2.9c0-4.6-3.7-8.3-8.4-8.3
				c-0.9,0-1.8,0.2-2.8,0.5l-1.6,0.6l0.1-1.7c0-0.1,0-0.2,0-0.3c0-4.8-3.7-8.5-8.3-8.5c-1,0-2.1,0.2-3.1,0.6l-1.2,0.5l-0.3-1.2
				C193.8,140.8,190.5,138.3,186.8,138.3z"/>
			<path class="st0" d="M199.4,163.6v-2.3c4.6,0,8.3-3.7,8.3-8.3h2.3C210,158.8,205.3,163.6,199.4,163.6z"/>
			<path class="st0" d="M191.1,171.9h-2.3c0-5.9,4.8-10.6,10.6-10.6v2.3C194.8,163.6,191.1,167.3,191.1,171.9z"/>
			<path class="st0" d="M159.5,194.1h-2.3c0-4.6-3.7-8.3-8.4-8.3v-2.3C154.7,183.4,159.5,188.2,159.5,194.1z"/>
			<path class="st0" d="M167.8,204.7c-5.9,0-10.6-4.8-10.6-10.6h2.3c0,4.6,3.7,8.4,8.3,8.4V204.7z"/>
			<path class="st0" d="M186.8,229.9v-2.3c4.6,0,8.3-3.7,8.3-8.3h2.3C197.4,225.2,192.6,229.9,186.8,229.9z"/>
			<path class="st0" d="M213.2,244.6h-2.3v-3.2c0-4.6-3.7-8.3-8.3-8.3v-2.3c5.9,0,10.6,4.8,10.6,10.6V244.6z"/>
			<path class="st0" d="M227.9,220.5h-3.2c-5.9,0-10.6-4.8-10.6-10.6h2.3c0,4.6,3.7,8.4,8.3,8.4h3.2V220.5z"/>
			<path class="st0" d="M230.2,185.4c-3.2-3.2-8.7-3.2-11.8,0l-1.6-1.6c2-2,4.7-3.1,7.5-3.1c2.8,0,5.5,1.1,7.5,3.1L230.2,185.4z"/>
		</g>
		<g>
			<rect x="75.1" y="121.3" class="st0" width="2.3" height="135.8"/>
			<rect x="86.5" y="191.5" class="st0" width="2.3" height="65.7"/>
			<rect x="97.8" y="148.5" class="st0" width="2.3" height="108.7"/>
		</g>
		<g>
			<path class="st0" d="M120.4,125.8c-2.5,0-4.5-2-4.5-4.5s2-4.5,4.5-4.5s4.5,2,4.5,4.5S122.9,125.8,120.4,125.8z M120.4,119.1
				c-1.2,0-2.3,1-2.3,2.3c0,1.2,1,2.3,2.3,2.3c1.2,0,2.3-1,2.3-2.3C122.7,120.1,121.7,119.1,120.4,119.1z"/>
		</g>
		<g>
			<path class="st0" d="M143.1,125.8c-2.5,0-4.5-2-4.5-4.5s2-4.5,4.5-4.5s4.5,2,4.5,4.5S145.6,125.8,143.1,125.8z M143.1,119.1
				c-1.2,0-2.3,1-2.3,2.3c0,1.2,1,2.3,2.3,2.3c1.2,0,2.3-1,2.3-2.3C145.3,120.1,144.3,119.1,143.1,119.1z"/>
		</g>
		<g>
			<path class="st0" d="M165.7,125.8c-2.5,0-4.5-2-4.5-4.5s2-4.5,4.5-4.5s4.5,2,4.5,4.5S168.2,125.8,165.7,125.8z M165.7,119.1
				c-1.2,0-2.3,1-2.3,2.3c0,1.2,1,2.3,2.3,2.3s2.3-1,2.3-2.3C168,120.1,166.9,119.1,165.7,119.1z"/>
		</g>
		<g>
			<rect x="253.8" y="162.2" class="st0" width="2.3" height="6.8"/>
			<rect x="253.8" y="175.8" class="st0" width="2.3" height="6.8"/>
			<rect x="253.8" y="148.6" class="st0" width="2.3" height="6.8"/>
			<rect x="253.8" y="205.2" class="st0" width="2.3" height="6.8"/>
			<rect x="253.8" y="218.8" class="st0" width="2.3" height="6.8"/>
			<rect x="253.8" y="191.6" class="st0" width="2.3" height="6.8"/>
			<rect x="253.8" y="135" class="st0" width="2.3" height="6.8"/>
			<rect x="253.8" y="121.5" class="st0" width="2.3" height="6.8"/>
			<rect x="253.8" y="107.9" class="st0" width="2.3" height="6.8"/>
		</g>
		<g>
			<rect x="163.3" y="76.2" class="st0" width="6.8" height="2.3"/>
			<rect x="149.7" y="76.2" class="st0" width="6.8" height="2.3"/>
			<rect x="176.9" y="76.2" class="st0" width="6.8" height="2.3"/>
			<rect x="120.3" y="76.2" class="st0" width="6.8" height="2.3"/>
			<rect x="106.7" y="76.2" class="st0" width="6.8" height="2.3"/>
			<rect x="133.9" y="76.2" class="st0" width="6.8" height="2.3"/>
			<rect x="190.5" y="76.2" class="st0" width="6.8" height="2.3"/>
			<rect x="204" y="76.2" class="st0" width="6.8" height="2.3"/>
			<rect x="217.6" y="76.2" class="st0" width="6.8" height="2.3"/>
		</g>
		<g>
			<rect x="231.3" y="98.7" class="st0" width="2.3" height="27.2"/>
			<rect x="231.3" y="132.6" class="st0" width="2.3" height="6.8"/>
		</g>
		<g>
			<rect x="222.3" y="98.7" class="st0" width="2.3" height="27.2"/>
			<rect x="222.3" y="132.6" class="st0" width="2.3" height="6.8"/>
		</g>
		<rect x="138.5" y="98.7" class="st0" width="65.7" height="2.3"/>
	</g>
	<g>
		<g>
			<path class="st0" d="M500,171.1c-2.5,0-4.5-2-4.5-4.5c0-2.5,2-4.5,4.5-4.5c2.5,0,4.5,2,4.5,4.5
				C504.6,169.1,502.5,171.1,500,171.1z M500,164.3c-1.2,0-2.3,1-2.3,2.3c0,1.2,1,2.3,2.3,2.3s2.3-1,2.3-2.3
				C502.3,165.3,501.3,164.3,500,164.3z"/>
		</g>
		<path class="st0" d="M500,236.8c-38.7,0-70.2-31.5-70.2-70.2c0-38.7,31.5-70.2,70.2-70.2c38.7,0,70.2,31.5,70.2,70.2
			C570.2,205.3,538.7,236.8,500,236.8z M500,98.7c-37.4,0-67.9,30.5-67.9,67.9s30.5,67.9,67.9,67.9S568,204,568,166.6
			S537.5,98.7,500,98.7z"/>
		<path class="st0" d="M500,230c-35,0-63.4-28.4-63.4-63.4s28.4-63.4,63.4-63.4s63.4,28.4,63.4,63.4S535,230,500,230z M500,105.5
			c-33.7,0-61.1,27.4-61.1,61.1s27.4,61.1,61.1,61.1s61.1-27.4,61.1-61.1S533.7,105.5,500,105.5z"/>
		<rect x="498.9" y="112.3" class="st0" width="2.3" height="52.1"/>
		<path class="st0" d="M500,211.9c-25,0-45.3-20.3-45.3-45.3c0-10.1,3.5-20.1,9.7-28l0.7-0.9l32.8,26l-1.4,1.8l-31-24.6
			c-5.5,7.4-8.6,16.5-8.6,25.7c0,23.7,19.3,43,43,43c23.7,0,43-19.3,43-43s-19.3-43-43-43l-0.1-2.3c25,0,45.3,20.3,45.3,45.3
			C545.3,191.6,525,211.9,500,211.9z"/>
		<g>
			<path class="st0" d="M428.7,106.5c-6.2,0-11.2-5-11.2-11.2c0-6.2,5-11.2,11.2-11.2s11.2,5,11.2,11.2
				C439.9,101.5,434.9,106.5,428.7,106.5z M428.7,86.4c-4.9,0-8.9,4-8.9,8.9s4,8.9,8.9,8.9s8.9-4,8.9-8.9S433.6,86.4,428.7,86.4z"/>
			<g>
				<rect x="427.6" y="76" class="st0" width="2.3" height="8.3"/>
				<rect x="427.6" y="106.2" class="st0" width="2.3" height="8.3"/>
			</g>
			<g>
				<rect x="439.7" y="94.2" class="st0" width="8.3" height="2.3"/>
				<rect x="409.5" y="94.2" class="st0" width="8.3" height="2.3"/>
			</g>
			<g>
				
					<rect x="435.2" y="83.5" transform="matrix(0.7071 -0.7071 0.7071 0.7071 68.8656 335.4819)" class="st0" width="8.3" height="2.3"/>
				
					<rect x="413.9" y="104.8" transform="matrix(0.7071 -0.7071 0.7071 0.7071 47.5226 326.6413)" class="st0" width="8.3" height="2.3"/>
			</g>
			<g>
				
					<rect x="438.3" y="101.8" transform="matrix(0.7071 -0.7071 0.7071 0.7071 53.7738 341.7332)" class="st0" width="2.3" height="8.3"/>
				
					<rect x="416.9" y="80.5" transform="matrix(0.7071 -0.7071 0.7071 0.7071 62.6144 320.3901)" class="st0" width="2.3" height="8.3"/>
			</g>
		</g>
		<path class="st0" d="M571.3,257.2c-4.9,0-9.6-1.9-13.2-5.3c-0.4-0.4-0.5-0.9-0.2-1.4c0.2-0.5,0.8-0.7,1.3-0.5
			c8.2,2.1,15.6-4.2,15.6-12s-7.4-14.2-15.6-12c-0.5,0.1-1-0.1-1.3-0.5c-0.2-0.5-0.2-1,0.2-1.4c3.6-3.4,8.3-5.3,13.2-5.3
			c10.6,0,19.2,8.6,19.2,19.2C590.6,248.5,582,257.2,571.3,257.2z M562.9,252.6c2.6,1.5,5.5,2.3,8.5,2.3c9.4,0,17-7.6,17-17
			c0-9.4-7.6-17-17-17c-3,0-5.9,0.8-8.5,2.3c7.8,0.3,14.1,6.8,14.1,14.7C577,245.8,570.7,252.3,562.9,252.6z"/>
		<rect x="409.5" y="254.9" class="st0" width="34" height="2.3"/>
		<rect x="409.5" y="218.7" class="st0" width="22.6" height="2.3"/>
		<rect x="409.5" y="227.7" class="st0" width="38.5" height="2.3"/>
		<rect x="409.5" y="236.8" class="st0" width="27.2" height="2.3"/>
		<rect x="409.5" y="245.8" class="st0" width="38.5" height="2.3"/>
		<g>
			<g>
				<path class="st0" d="M580,209.1l-2-1l0.5-1c0.5-1,1-2,1.5-3l0.5-1l2,1l-0.5,1c-0.5,1-1,2.1-1.5,3.1L580,209.1z"/>
				<path class="st0" d="M585.4,196.9l-2.1-0.7l0.4-1.1c0.8-2.3,1.5-4.6,2.1-7l0.3-1.1l2.2,0.6l-0.3,1.1c-0.6,2.4-1.3,4.8-2.1,7.1
					L585.4,196.9z M589.6,180.1l-2.2-0.3l0.2-1.1c0.3-2.4,0.6-4.8,0.7-7.2l0.1-1.1l2.3,0.1l-0.1,1.1c-0.1,2.5-0.4,5-0.7,7.4
					L589.6,180.1z M588.3,162.9l-0.1-1.1c-0.1-2.4-0.4-4.9-0.7-7.2l-0.2-1.1l2.2-0.3l0.2,1.1c0.3,2.4,0.6,4.9,0.7,7.4l0.1,1.1
					L588.3,162.9z M585.9,146.1l-0.3-1.1c-0.6-2.3-1.3-4.7-2.1-7l-0.4-1.1l2.1-0.7l0.4,1.1c0.8,2.3,1.5,4.7,2.1,7.1l0.3,1.1
					L585.9,146.1z"/>
				<path class="st0" d="M580.4,130.1l-0.5-1c-0.5-1-1-2-1.5-3l-0.5-1l2-1l0.5,1c0.5,1,1,2,1.5,3.1l0.5,1L580.4,130.1z"/>
			</g>
			<g>
				<path class="st0" d="M541.5,88.7l-1-0.5c-1-0.5-2-1-3-1.5l-1-0.5l1-2l1,0.5c1,0.5,2.1,1,3.1,1.5l1,0.5L541.5,88.7z"/>
				<path class="st0" d="M529.6,83.4l-1.1-0.4c-2.3-0.8-4.6-1.5-7-2.1l-1.1-0.3l0.6-2.2l1.1,0.3c2.4,0.6,4.8,1.3,7.1,2.1l1.1,0.4
					L529.6,83.4z M470.4,83.4l-0.7-2.1l1.1-0.4c2.3-0.8,4.7-1.5,7.1-2.1l1.1-0.3l0.6,2.2l-1.1,0.3c-2.3,0.6-4.7,1.3-7,2.1
					L470.4,83.4z M513.2,79.3l-1.1-0.2c-2.4-0.3-4.8-0.6-7.2-0.7l-1.1-0.1l0.1-2.3l1.1,0.1c2.5,0.1,5,0.4,7.4,0.7l1.1,0.2
					L513.2,79.3z M486.9,79.3l-0.3-2.2l1.1-0.2c2.4-0.3,4.9-0.6,7.4-0.7l1.1-0.1l0.1,2.3l-1.1,0.1c-2.4,0.1-4.8,0.4-7.2,0.7
					L486.9,79.3z"/>
				<path class="st0" d="M458.5,88.7l-1-2l1-0.5c1-0.5,2-1,3.1-1.5l1-0.5l1,2l-1,0.5c-1,0.5-2,1-3,1.5L458.5,88.7z"/>
			</g>
			<g>
				<path class="st0" d="M419.6,130.1l-2-1l0.5-1c0.5-1,1-2.1,1.5-3.1l0.5-1l2,1l-0.5,1c-0.5,1-1,2-1.5,3L419.6,130.1z"/>
				<path class="st0" d="M414.7,196.9l-0.4-1.1c-0.8-2.3-1.5-4.7-2.1-7.1l-0.3-1.1l2.2-0.6l0.3,1.1c0.6,2.3,1.3,4.7,2.1,7l0.4,1.1
					L414.7,196.9z M410.5,180.1l-0.2-1.1c-0.3-2.4-0.6-4.9-0.7-7.4l-0.1-1.1l2.3-0.1l0.1,1.1c0.1,2.4,0.4,4.8,0.7,7.2l0.2,1.1
					L410.5,180.1z M411.8,162.9l-2.3-0.1l0.1-1.1c0.1-2.5,0.4-5,0.7-7.4l0.2-1.1l2.2,0.3l-0.2,1.1c-0.3,2.4-0.6,4.8-0.7,7.2
					L411.8,162.9z M414.1,146.1l-2.2-0.6l0.3-1.1c0.6-2.4,1.3-4.8,2.1-7.1l0.4-1.1l2.1,0.7l-0.4,1.1c-0.8,2.3-1.5,4.6-2.1,7
					L414.1,146.1z"/>
				<path class="st0" d="M420.1,209.1l-0.5-1c-0.5-1-1-2-1.5-3.1l-0.5-1l2-1l0.5,1c0.5,1,1,2,1.5,3l0.5,1L420.1,209.1z"/>
			</g>
			<g>
				<path class="st0" d="M462.6,249l-1-0.5c-1-0.5-2.1-1-3.1-1.5l-1-0.5l1-2l1,0.5c1,0.5,2,1,3,1.5l1,0.5L462.6,249z"/>
				<path class="st0" d="M503.9,257.1l-0.1-2.3l1.1-0.1c2.4-0.1,4.8-0.4,7.2-0.7l1.1-0.2l0.3,2.2l-1.1,0.2c-2.4,0.3-4.9,0.6-7.4,0.7
					L503.9,257.1z M496.2,257.1l-1.1-0.1c-2.5-0.1-5-0.4-7.4-0.7l-1.1-0.2l0.3-2.2l1.1,0.2c2.4,0.3,4.8,0.6,7.2,0.7l1.1,0.1
					L496.2,257.1z M521,254.7l-0.6-2.2l1.1-0.3c2.3-0.6,4.7-1.3,7-2.1l1.1-0.4l0.7,2.1l-1.1,0.4c-2.3,0.8-4.7,1.5-7.1,2.1L521,254.7
					z M479,254.7l-1.1-0.3c-2.4-0.6-4.8-1.3-7.1-2.1l-1.1-0.4l0.7-2.1l1.1,0.4c2.3,0.8,4.6,1.5,7,2.1l1.1,0.3L479,254.7z"/>
				<path class="st0" d="M537.5,249l-1-2l1-0.5c1-0.5,2-1,3-1.5l1-0.5l1,2l-1,0.5c-1,0.5-2,1-3.1,1.5L537.5,249z"/>
			</g>
		</g>
		<rect x="552.1" y="94.2" class="st0" width="38.5" height="2.3"/>
		<rect x="570.2" y="76" class="st0" width="2.3" height="38.5"/>
		
			<rect x="570.2" y="81.3" transform="matrix(0.7071 -0.7071 0.7071 0.7071 99.9675 431.9115)" class="st0" width="2.3" height="27.9"/>
		
			<rect x="557.4" y="94.2" transform="matrix(0.7071 -0.7071 0.7071 0.7071 99.9675 431.9115)" class="st0" width="27.9" height="2.3"/>
		<path class="st0" d="M571.3,257.2c-10.6,0-19.2-8.6-19.2-19.2c0-10.6,8.6-19.2,19.2-19.2s19.2,8.6,19.2,19.2
			C590.6,248.5,582,257.2,571.3,257.2z M571.3,220.9c-9.4,0-17,7.6-17,17c0,9.4,7.6,17,17,17s17-7.6,17-17
			C588.3,228.5,580.7,220.9,571.3,220.9z"/>
		
			<rect x="492.3" y="188.1" transform="matrix(0.7071 -0.7071 0.7071 0.7071 19.2786 425.0118)" class="st0" width="60.8" height="2.3"/>
		
			<rect x="470.2" y="176.8" transform="matrix(0.7071 -0.7071 0.7071 0.7071 23.9673 413.6925)" class="st0" width="82.3" height="2.3"/>
		
			<rect x="496.7" y="148.5" transform="matrix(0.7071 -0.7071 0.7071 0.7071 45.6348 409.4061)" class="st0" width="40.7" height="2.3"/>
		
			<rect x="462.7" y="182.4" transform="matrix(0.7071 -0.7071 0.7071 0.7071 11.6769 395.3403)" class="st0" width="40.7" height="2.3"/>
		
			<rect x="496.8" y="133.8" transform="matrix(0.7071 -0.7071 0.7071 0.7071 53.7192 399.4934)" class="st0" width="24.7" height="2.3"/>
		
			<rect x="453.9" y="169.4" transform="matrix(0.7071 -0.7071 0.7071 0.7071 18.0634 384.7243)" class="st0" width="39.1" height="2.3"/>
		
			<rect x="452.1" y="155.3" transform="matrix(0.7071 -0.7071 0.7071 0.7071 25.5818 374.5771)" class="st0" width="25.6" height="2.3"/>
	</g>
	<g>
		<path class="st0" d="M902.4,82.8h-1.1c-3.2,0-4.8-1.3-6.3-2.5c-1.3-1.1-2.5-2-4.8-2c-2.4,0-3.5,0.9-4.9,2
			c-1.5,1.2-3.1,2.5-6.3,2.5c-3.2,0-4.8-1.3-6.3-2.5c-1.3-1.1-2.5-2-4.8-2c-2.4,0-3.5,0.9-4.8,2c-1.5,1.2-3.1,2.5-6.3,2.5
			c-3.2,0-4.8-1.3-6.3-2.5c-1.3-1.1-2.5-2-4.9-2s-3.5,0.9-4.9,2c-1.5,1.2-3.1,2.5-6.3,2.5c-3.2,0-4.8-1.3-6.3-2.5
			c-1.3-1.1-2.5-2-4.9-2s-3.5,0.9-4.9,2c-1.5,1.2-3.1,2.5-6.3,2.5c-3.2,0-4.8-1.3-6.3-2.5c-1.3-1.1-2.5-2-4.8-2
			c-2.4,0-3.5,0.9-4.9,2c-1.5,1.2-3.1,2.5-6.3,2.5c-3.2,0-4.8-1.3-6.3-2.5c-1.3-1.1-2.5-2-4.9-2c-2.4,0-3.5,0.9-4.9,2
			c-1.5,1.2-3.1,2.5-6.3,2.5h-1.1v-2.3h1.1c2.4,0,3.5-0.9,4.9-2c1.5-1.2,3.1-2.5,6.3-2.5s4.8,1.3,6.3,2.5c1.3,1.1,2.5,2,4.9,2
			s3.5-0.9,4.9-2c1.5-1.2,3.1-2.5,6.3-2.5c3.2,0,4.8,1.3,6.3,2.5c1.3,1.1,2.5,2,4.9,2s3.5-0.9,4.9-2c1.5-1.2,3.1-2.5,6.3-2.5
			c3.2,0,4.8,1.3,6.3,2.5c1.3,1.1,2.5,2,4.9,2c2.4,0,3.5-0.9,4.9-2c1.5-1.2,3.1-2.5,6.3-2.5s4.8,1.3,6.3,2.5c1.3,1.1,2.5,2,4.9,2
			c2.4,0,3.5-0.9,4.8-2c1.5-1.2,3.1-2.5,6.3-2.5c3.2,0,4.8,1.3,6.3,2.5c1.3,1.1,2.5,2,4.8,2c2.4,0,3.5-0.9,4.8-2
			c1.5-1.2,3.1-2.5,6.3-2.5c3.2,0,4.8,1.3,6.3,2.5c1.3,1.1,2.5,2,4.8,2h1.1V82.8z"/>
		<path class="st0" d="M890.1,257.2c-3.2,0-4.8-1.3-6.3-2.5c-1.3-1.1-2.5-2-4.9-2c-2.4,0-3.5,0.9-4.9,2c-1.5,1.2-3.1,2.5-6.3,2.5
			c-3.2,0-4.8-1.3-6.3-2.5c-1.3-1.1-2.5-2-4.9-2s-3.5,0.9-4.9,2c-1.5,1.2-3.1,2.5-6.3,2.5c-3.2,0-4.8-1.3-6.3-2.5
			c-1.3-1.1-2.5-2-4.9-2s-3.5,0.9-4.9,2c-1.5,1.2-3.1,2.5-6.3,2.5c-3.2,0-4.8-1.3-6.3-2.5c-1.3-1.1-2.5-2-4.9-2
			c-2.4,0-3.5,0.9-4.8,2c-1.5,1.2-3.1,2.5-6.3,2.5c-3.2,0-4.8-1.3-6.3-2.5c-1.3-1.1-2.5-2-4.8-2c-2.4,0-3.5,0.9-4.8,2
			c-1.5,1.2-3.1,2.5-6.3,2.5c-3.2,0-4.8-1.3-6.3-2.5c-1.3-1.1-2.5-2-4.8-2h-1.1v-2.3h1.1c3.2,0,4.8,1.3,6.3,2.5c1.3,1.1,2.5,2,4.8,2
			c2.4,0,3.5-0.9,4.9-2c1.5-1.2,3.1-2.5,6.3-2.5s4.8,1.3,6.3,2.5c1.3,1.1,2.5,2,4.8,2c2.4,0,3.5-0.9,4.8-2c1.5-1.2,3.1-2.5,6.3-2.5
			c3.2,0,4.8,1.3,6.3,2.5c1.3,1.1,2.5,2,4.9,2c2.4,0,3.5-0.9,4.9-2c1.5-1.2,3.1-2.5,6.3-2.5c3.2,0,4.8,1.3,6.3,2.5
			c1.3,1.1,2.5,2,4.9,2s3.5-0.9,4.9-2c1.5-1.2,3.1-2.5,6.3-2.5c3.2,0,4.8,1.3,6.3,2.5c1.3,1.1,2.5,2,4.8,2c2.4,0,3.5-0.9,4.9-2
			c1.5-1.2,3.1-2.5,6.3-2.5c3.2,0,4.8,1.3,6.3,2.5c1.3,1.1,2.5,2,4.9,2c2.4,0,3.5-0.9,4.9-2c1.5-1.2,3.1-2.5,6.3-2.5h1.1v2.3h-1.1
			c-2.4,0-3.5,0.9-4.9,2C894.9,255.8,893.3,257.2,890.1,257.2z"/>
		<rect x="922.7" y="98.7" class="st0" width="2.3" height="135.8"/>
		<path class="st0" d="M834.4,225.5c-32.5,0-58.9-26.4-58.9-58.9c0-32.5,26.4-58.9,58.9-58.9s58.9,26.4,58.9,58.9
			C893.3,199.1,866.9,225.5,834.4,225.5z M834.4,110c-31.2,0-56.6,25.4-56.6,56.6s25.4,56.6,56.6,56.6c31.2,0,56.6-25.4,56.6-56.6
			S865.7,110,834.4,110z"/>
		<path class="st0" d="M812.9,166.6c-6.9,0-12.5-5.6-12.5-12.5s5.6-12.5,12.5-12.5c6.9,0,12.5,5.6,12.5,12.5
			S819.8,166.6,812.9,166.6z M812.9,144c-5.6,0-10.2,4.6-10.2,10.2s4.6,10.2,10.2,10.2c5.6,0,10.2-4.6,10.2-10.2
			S818.6,144,812.9,144z"/>
		<path class="st0" d="M812.9,159.8c-3.1,0-5.7-2.5-5.7-5.7s2.5-5.7,5.7-5.7s5.7,2.5,5.7,5.7S816.1,159.8,812.9,159.8z M812.9,150.7
			c-1.9,0-3.4,1.5-3.4,3.4c0,1.9,1.5,3.4,3.4,3.4s3.4-1.5,3.4-3.4C816.3,152.3,814.8,150.7,812.9,150.7z"/>
		<path class="st0" d="M856,166.6c-6.9,0-12.5-5.6-12.5-12.5s5.6-12.5,12.5-12.5c6.9,0,12.5,5.6,12.5,12.5S862.8,166.6,856,166.6z
			 M856,144c-5.6,0-10.2,4.6-10.2,10.2s4.6,10.2,10.2,10.2c5.6,0,10.2-4.6,10.2-10.2S861.6,144,856,144z"/>
		<path class="st0" d="M856,159.8c-3.1,0-5.7-2.5-5.7-5.7s2.5-5.7,5.7-5.7c3.1,0,5.7,2.5,5.7,5.7S859.1,159.8,856,159.8z M856,150.7
			c-1.9,0-3.4,1.5-3.4,3.4c0,1.9,1.5,3.4,3.4,3.4c1.9,0,3.4-1.5,3.4-3.4C859.3,152.3,857.8,150.7,856,150.7z"/>
		<rect x="809.5" y="196" class="st0" width="49.8" height="2.3"/>
		<g>
			<polygon class="st0" points="780.1,112.3 759.7,112.3 759.7,110 777.8,110 777.8,91.9 780.1,91.9 			"/>
			
				<rect x="760.9" y="70.1" transform="matrix(0.7071 -0.7071 0.7071 0.7071 156.6094 566.3934)" class="st0" width="2.3" height="48"/>
		</g>
		<g>
			<polygon class="st0" points="891.1,241.4 888.9,241.4 888.9,221 909.2,221 909.2,223.3 891.1,223.3 			"/>
			
				<rect x="905.8" y="215.1" transform="matrix(0.7071 -0.7071 0.7071 0.7071 96.5756 711.328)" class="st0" width="2.3" height="47.9"/>
		</g>
		<g>
			<polygon class="st0" points="909.2,112.3 888.9,112.3 888.9,91.9 891.1,91.9 891.1,110 909.2,110 			"/>
			<rect x="883" y="93" transform="matrix(0.7071 -0.7071 0.7071 0.7071 199.0498 668.901)" class="st0" width="48" height="2.3"/>
		</g>
		<g>
			<polygon class="st0" points="780.1,241.4 777.8,241.4 777.8,223.3 759.7,223.3 759.7,221 780.1,221 			"/>
			<rect x="738" y="238" transform="matrix(0.7071 -0.7071 0.7071 0.7071 54.1156 608.8669)" class="st0" width="48" height="2.3"/>
		</g>
		<g>
			<path class="st0" d="M845.8,241.3c-2.5,0-4.5-2-4.5-4.5c0-2.5,2-4.5,4.5-4.5c2.5,0,4.5,2,4.5,4.5
				C850.3,239.3,848.3,241.3,845.8,241.3z M845.8,234.5c-1.2,0-2.3,1-2.3,2.3s1,2.3,2.3,2.3c1.2,0,2.3-1,2.3-2.3
				S847,234.5,845.8,234.5z"/>
		</g>
		<g>
			<path class="st0" d="M868.4,241.3c-2.5,0-4.5-2-4.5-4.5c0-2.5,2-4.5,4.5-4.5c2.5,0,4.5,2,4.5,4.5
				C872.9,239.3,870.9,241.3,868.4,241.3z M868.4,234.5c-1.2,0-2.3,1-2.3,2.3s1,2.3,2.3,2.3c1.2,0,2.3-1,2.3-2.3
				S869.7,234.5,868.4,234.5z"/>
		</g>
		<g>
			<path class="st0" d="M823.1,241.3c-2.5,0-4.5-2-4.5-4.5c0-2.5,2-4.5,4.5-4.5c2.5,0,4.5,2,4.5,4.5
				C827.7,239.3,825.6,241.3,823.1,241.3z M823.1,234.5c-1.2,0-2.3,1-2.3,2.3s1,2.3,2.3,2.3c1.2,0,2.3-1,2.3-2.3
				S824.4,234.5,823.1,234.5z"/>
		</g>
		<g>
			<path class="st0" d="M800.5,241.3c-2.5,0-4.5-2-4.5-4.5c0-2.5,2-4.5,4.5-4.5c2.5,0,4.5,2,4.5,4.5
				C805,239.3,803,241.3,800.5,241.3z M800.5,234.5c-1.2,0-2.3,1-2.3,2.3s1,2.3,2.3,2.3c1.2,0,2.3-1,2.3-2.3
				S801.7,234.5,800.5,234.5z"/>
		</g>
		<rect x="906.9" y="121.7" class="st0" width="2.3" height="90.2"/>
		<rect x="807.3" y="91.9" class="st0" width="13.6" height="2.3"/>
		<rect x="796" y="91.9" class="st0" width="4.5" height="2.3"/>
		<rect x="852.6" y="91.9" class="st0" width="20.4" height="2.3"/>
		<rect x="816.3" y="98.7" class="st0" width="24.9" height="2.3"/>
		<rect x="796" y="98.7" class="st0" width="13.6" height="2.3"/>
		<rect x="868.4" y="98.7" class="st0" width="4.5" height="2.3"/>
		<rect x="848" y="98.7" class="st0" width="13.6" height="2.3"/>
		<rect x="827.7" y="91.9" class="st0" width="18.1" height="2.3"/>
		<rect x="743.9" y="132.6" class="st0" width="29.4" height="2.3"/>
		<rect x="743.9" y="100.9" class="st0" width="11.3" height="2.3"/>
		<rect x="743.9" y="116.8" class="st0" width="11.3" height="2.3"/>
		<rect x="743.9" y="182.4" class="st0" width="18.1" height="2.3"/>
		<rect x="743.9" y="148.5" class="st0" width="20.4" height="2.3"/>
		<rect x="743.9" y="165.5" class="st0" width="18.1" height="2.3"/>
		<rect x="743.9" y="198.3" class="st0" width="29.4" height="2.3"/>
		<rect x="743.9" y="214.1" class="st0" width="11.3" height="2.3"/>
		<rect x="743.9" y="230" class="st0" width="11.3" height="2.3"/>
	</g>
</g>
</svg>
