<svg id="Layer_1" data-name="Layer 1" xmlns="http://www.w3.org/2000/svg" viewBox="0 0 164 210"><defs><style>.cls-1{fill:#bf64ff;}</style></defs><title>batterystorage-electrochemicalpv</title><path class="cls-1" d="M22.54,23.11v136h51v-136Zm25.5,34a8.5,8.5,0,1,1,8.5-8.5A8.5,8.5,0,0,1,48,57.11Z"/><path class="cls-1" d="M90.54,23.11v136h51v-136Zm25.5,34a8.5,8.5,0,1,1,8.5-8.5A8.5,8.5,0,0,1,116,57.11Z"/><rect x="73.54" y="108.11" width="17" height="17" transform="translate(-34.57 198.65) rotate(-90)"/><rect x="5.54" y="108.11" width="17" height="17" transform="translate(-102.57 130.65) rotate(-90)"/><rect x="141.54" y="108.11" width="17" height="17" transform="translate(33.43 266.65) rotate(-90)"/><rect x="22.54" y="6.11" width="17" height="17"/><rect x="90.54" y="6.11" width="17" height="17"/><rect x="22.54" y="142.11" width="51" height="17"/><rect x="90.54" y="142.11" width="51" height="17"/><path d="M7.09,186.48a2,2,0,0,1,1.36.41,1.38,1.38,0,0,1,.38,1,1.26,1.26,0,0,1-.18.68,1,1,0,0,1-.45.39,1.38,1.38,0,0,1,.74.36,1.3,1.3,0,0,1,.34,1,1.46,1.46,0,0,1-.42,1.08,2,2,0,0,1-1.41.46h-2v-5.33Zm-.42,2.17h.2a1.15,1.15,0,0,0,.62-.15.57.57,0,0,0,.22-.47.54.54,0,0,0-.21-.45,1,1,0,0,0-.64-.14H6.67Zm0,2.21H7a1.35,1.35,0,0,0,.91-.22.59.59,0,0,0,.18-.45.57.57,0,0,0-.17-.43,1.38,1.38,0,0,0-.88-.2H6.67Z"/><path d="M14.14,190.81h-2l-.41,1H10.44l2.15-5.33h1.13l2.1,5.33H14.54Zm-.34-.94-.66-1.79-.66,1.79Z"/><path d="M18.76,187.52v4.29H17.53v-4.29H16.37v-1h3.55v1Z"/><path d="M23.66,187.52v4.29H22.43v-4.29H21.27v-1h3.55v1Z"/><path d="M29.28,187.52H27.5v1h1.69v1H27.5v1.18h1.78v1h-3v-5.33h3Z"/><path d="M33,186.48a1.9,1.9,0,0,1,1.36.46,1.6,1.6,0,0,1,.46,1.19,1.46,1.46,0,0,1-.42,1.09,1.69,1.69,0,0,1-.74.41l1.64,2.18h-1.5l-1.44-2.1v2.1H31.08v-5.33Zm-.64,2.42h.28a1,1,0,0,0,.74-.23.72.72,0,0,0,.2-.52.65.65,0,0,0-.25-.54,1.2,1.2,0,0,0-.68-.17h-.29Z"/><path d="M37.9,189.33,36,186.48h1.46l1.07,1.65,1.07-1.65H41l-1.91,2.85v2.49H37.9Z"/><path d="M47.84,187.78a1.3,1.3,0,0,0-.9-.38.67.67,0,0,0-.52.18.48.48,0,0,0-.14.34.37.37,0,0,0,.12.3,2.13,2.13,0,0,0,.67.3l.4.15a2.14,2.14,0,0,1,.73.41,1.33,1.33,0,0,1,.39,1,1.91,1.91,0,0,1-.47,1.32,2.07,2.07,0,0,1-1.51.54,2.26,2.26,0,0,1-1.06-.22,3.39,3.39,0,0,1-.78-.58l.64-.88a3.36,3.36,0,0,0,.5.41,1.24,1.24,0,0,0,.67.19.85.85,0,0,0,.56-.18.55.55,0,0,0,.19-.43.47.47,0,0,0-.18-.38,2.59,2.59,0,0,0-.62-.3l-.44-.15a1.8,1.8,0,0,1-.74-.42A1.31,1.31,0,0,1,45,188a1.64,1.64,0,0,1,.46-1.2,1.72,1.72,0,0,1,1.32-.49,2.58,2.58,0,0,1,1.58.53Z"/><path d="M52.16,187.52v4.29H50.93v-4.29H49.77v-1h3.55v1Z"/><path d="M59.33,187.14a2.84,2.84,0,0,1,0,4,2.85,2.85,0,0,1-2.06.78,2.94,2.94,0,0,1-2.08-.78,2.72,2.72,0,0,1-.83-2,3,3,0,0,1,.82-2,3.15,3.15,0,0,1,4.15,0ZM56.1,188a1.63,1.63,0,0,0-.47,1.21,1.59,1.59,0,0,0,.49,1.2,1.57,1.57,0,0,0,1.14.44,1.62,1.62,0,0,0,1.18-.46,1.6,1.6,0,0,0,.46-1.19,1.68,1.68,0,0,0-.46-1.2,1.71,1.71,0,0,0-1.18-.46A1.63,1.63,0,0,0,56.1,188Z"/><path d="M63.76,186.48a1.91,1.91,0,0,1,1.36.46,1.6,1.6,0,0,1,.46,1.19,1.46,1.46,0,0,1-.42,1.09,1.69,1.69,0,0,1-.74.41l1.64,2.18h-1.5l-1.44-2.1v2.1H61.89v-5.33Zm-.64,2.42h.28a1,1,0,0,0,.74-.23.72.72,0,0,0,.2-.52.65.65,0,0,0-.25-.54,1.2,1.2,0,0,0-.68-.17h-.29Z"/><path d="M70.77,190.81h-2l-.41,1H67.06l2.15-5.33h1.13l2.1,5.33H71.17Zm-.34-.94-.66-1.79-.66,1.79Z"/><path d="M76.26,188.9H78.9V189a3.47,3.47,0,0,1-.82,2.25,2.45,2.45,0,0,1-1.9.73,2.51,2.51,0,0,1-2-.74,3,3,0,0,1,0-4.05,2.74,2.74,0,0,1,2.09-.78,2.69,2.69,0,0,1,1.5.4,2.94,2.94,0,0,1,.86,1l-1.11.6a1.61,1.61,0,0,0-.47-.58,1.34,1.34,0,0,0-.82-.26,1.44,1.44,0,0,0-1.1.43,1.83,1.83,0,0,0-.46,1.26,1.68,1.68,0,0,0,.45,1.22,1.4,1.4,0,0,0,1.08.42,1.37,1.37,0,0,0,.93-.29,1.24,1.24,0,0,0,.38-.63H76.26Z"/><path d="M83.64,187.52H81.86v1h1.69v1H81.86v1.18h1.78v1h-3v-5.33h3Z"/><path class="cls-1" d="M5.78,196.82h4.44v.84H6.66v2H9.72v.84H6.66V203h3.66v.84H5.78Z"/><path class="cls-1" d="M13.08,197.58H11.7v-.76h2.23v5.1c0,.81.35,1.22,1.06,1.22s1-.41,1.17-1.22l.76.15A1.87,1.87,0,0,1,15,203.89a1.79,1.79,0,0,1-1.9-2Z"/><path class="cls-1" d="M22.83,201.47H18.89a1.57,1.57,0,0,0,1.55,1.66,1.73,1.73,0,0,0,1.62-1l.67.35a2.42,2.42,0,0,1-2.29,1.41,2.27,2.27,0,0,1-1.75-.74,2.68,2.68,0,0,1-.66-1.86,2.75,2.75,0,0,1,.65-1.85,2.23,2.23,0,0,1,1.76-.75,2.24,2.24,0,0,1,1.76.7,2.48,2.48,0,0,1,.63,1.73ZM19,200.71h3a1.43,1.43,0,0,0-1.5-1.26A1.45,1.45,0,0,0,19,200.71Z"/><path class="cls-1" d="M28.9,202.5a2.15,2.15,0,0,1-2.13,1.39,2.18,2.18,0,0,1-1.76-.76,2.93,2.93,0,0,1,0-3.68,2.18,2.18,0,0,1,1.76-.76,2.15,2.15,0,0,1,2.13,1.39l-.73.3a1.41,1.41,0,0,0-1.4-.93c-1,0-1.55.76-1.55,1.84s.58,1.84,1.55,1.84a1.41,1.41,0,0,0,1.4-.93Z"/><path class="cls-1" d="M30.33,199.53v-.76h1.34v-1.51l.84-.53v2H35v.76H32.51v2.58q0,1,.87,1a1.69,1.69,0,0,0,1.24-.6l.31.71a2.12,2.12,0,0,1-1.55.65,1.54,1.54,0,0,1-1.71-1.75v-2.61Z"/><path class="cls-1" d="M40.62,200.37a.9.9,0,0,0-1-.92,1.47,1.47,0,0,0-1.21.67,3.06,3.06,0,0,0-.5,1.87v1.82h-.84v-5h.84v.93a2.08,2.08,0,0,1,1.86-1,1.56,1.56,0,0,1,1.66,1.68Z"/><path class="cls-1" d="M42.7,201.29a2.68,2.68,0,0,1,.68-1.84,2.51,2.51,0,0,1,3.6,0,2.83,2.83,0,0,1,0,3.68,2.51,2.51,0,0,1-3.6,0A2.68,2.68,0,0,1,42.7,201.29Zm.86,0a2,2,0,0,0,.44,1.3,1.56,1.56,0,0,0,2.36,0,2.14,2.14,0,0,0,0-2.6A1.56,1.56,0,0,0,44,200,2,2,0,0,0,43.56,201.29Z"/><path class="cls-1" d="M53.7,202.5a2.15,2.15,0,0,1-2.13,1.39,2.18,2.18,0,0,1-1.76-.76,2.93,2.93,0,0,1,0-3.68,2.18,2.18,0,0,1,1.76-.76,2.15,2.15,0,0,1,2.13,1.39l-.73.3a1.41,1.41,0,0,0-1.4-.93c-1,0-1.55.76-1.55,1.84s.58,1.84,1.55,1.84a1.41,1.41,0,0,0,1.4-.93Z"/><path class="cls-1" d="M59.76,203.81h-.84v-3.3c0-.71-.31-1.06-.93-1.06a1.39,1.39,0,0,0-1.12.61,2.58,2.58,0,0,0-.48,1.64v2.11h-.84v-7.08h.84v3a2.25,2.25,0,0,1,1.83-1c1,0,1.54.55,1.54,1.64Z"/><path class="cls-1" d="M66.23,201.47H62.3a1.57,1.57,0,0,0,1.55,1.66,1.73,1.73,0,0,0,1.62-1l.67.35a2.42,2.42,0,0,1-2.29,1.41,2.27,2.27,0,0,1-1.75-.74,2.68,2.68,0,0,1-.66-1.86,2.75,2.75,0,0,1,.65-1.85,2.5,2.5,0,0,1,3.52,0,2.48,2.48,0,0,1,.63,1.73Zm-3.88-.76h3a1.43,1.43,0,0,0-1.5-1.26A1.45,1.45,0,0,0,62.36,200.71Z"/><path class="cls-1" d="M72.75,203.81h-.84v-3.58c0-.55-.16-.77-.55-.77s-.89.65-.89,2v2.37h-.84v-3.58c0-.55-.16-.77-.55-.77s-.89.65-.89,2v2.37h-.84v-5h.84v.64a1.34,1.34,0,0,1,1.18-.72,1,1,0,0,1,1,.82,1.45,1.45,0,0,1,1.24-.82c.67,0,1.1.44,1.1,1.36Z"/><path class="cls-1" d="M74.37,199.51v-.74h2.38v4.3H78.6v.74H74.17v-.74h1.74v-3.56Zm1.9-2.78a.69.69,0,0,1,.69.7.67.67,0,0,1-.69.68.69.69,0,0,1,0-1.38Z"/><path class="cls-1" d="M84.7,202.5a2.15,2.15,0,0,1-2.13,1.39,2.18,2.18,0,0,1-1.76-.76,2.93,2.93,0,0,1,0-3.68,2.18,2.18,0,0,1,1.76-.76,2.15,2.15,0,0,1,2.13,1.39l-.73.3a1.41,1.41,0,0,0-1.4-.93c-1,0-1.55.76-1.55,1.84s.58,1.84,1.55,1.84a1.41,1.41,0,0,0,1.4-.93Z"/><path class="cls-1" d="M90.72,203.81H90l-.12-.71a2.19,2.19,0,0,1-1.78.79,1.45,1.45,0,0,1-1.56-1.53c0-1.09.85-1.65,2.28-1.65h1v-.22c0-.73-.48-1-1.16-1a1.22,1.22,0,0,0-1.19.86l-.74-.2a1.92,1.92,0,0,1,1.93-1.42,1.76,1.76,0,0,1,2,1.94Zm-2.45-.68a1.79,1.79,0,0,0,1.1-.38,1.37,1.37,0,0,0,.51-1.16v-.16h-1.1c-.85,0-1.34.36-1.34.93A.74.74,0,0,0,88.28,203.13Z"/><path class="cls-1" d="M93.69,197.58H92.3v-.76h2.23v5.1c0,.81.35,1.22,1.06,1.22s1-.41,1.17-1.22l.76.15a1.87,1.87,0,0,1-1.93,1.83,1.79,1.79,0,0,1-1.9-2Z"/><path class="cls-1" d="M110,201.76a2.53,2.53,0,0,1-2.51,2.13,2.68,2.68,0,0,1-2.08-.92,4.77,4.77,0,0,1,0-5.32,2.68,2.68,0,0,1,2.08-.92,2.53,2.53,0,0,1,2.51,2.13l-.83.25c-.32-1-.81-1.54-1.68-1.54-1.24,0-2,.89-2,2.74s.74,2.74,2,2.74c.87,0,1.36-.5,1.68-1.54Z"/><path class="cls-1" d="M115.83,201.47H111.9a1.57,1.57,0,0,0,1.55,1.66,1.73,1.73,0,0,0,1.62-1l.67.35a2.42,2.42,0,0,1-2.29,1.41,2.27,2.27,0,0,1-1.75-.74,2.68,2.68,0,0,1-.66-1.86,2.75,2.75,0,0,1,.65-1.85,2.5,2.5,0,0,1,3.52,0,2.48,2.48,0,0,1,.63,1.73Zm-3.88-.76h3a1.43,1.43,0,0,0-1.5-1.26A1.45,1.45,0,0,0,112,200.71Z"/><path class="cls-1" d="M118.49,197.58H117.1v-.76h2.23v5.1c0,.81.35,1.22,1.06,1.22s1-.41,1.17-1.22l.76.15a1.87,1.87,0,0,1-1.93,1.83,1.79,1.79,0,0,1-1.9-2Z"/><path class="cls-1" d="M124.69,197.58H123.3v-.76h2.23v5.1c0,.81.35,1.22,1.06,1.22s1-.41,1.17-1.22l.76.15a1.87,1.87,0,0,1-1.93,1.83,1.79,1.79,0,0,1-1.9-2Z"/><path class="cls-1" d="M133.8,199.78l-.66.47a1.35,1.35,0,0,0-1.21-.8c-.48,0-.87.22-.87.67s.37.62,1.17.78a4.48,4.48,0,0,1,1,.3,1.12,1.12,0,0,1,.78,1.07,1.44,1.44,0,0,1-.56,1.19,2.39,2.39,0,0,1-3.57-1l.8-.3a1.41,1.41,0,0,0,1.39,1c.61,0,1.07-.27,1.07-.78s-.38-.54-1.3-.74-1.63-.57-1.63-1.46a1.3,1.3,0,0,1,.5-1.06,1.86,1.86,0,0,1,1.22-.4A2,2,0,0,1,133.8,199.78Z"/></svg>