<svg xmlns="http://www.w3.org/2000/svg" viewBox="0 0 164 202"><defs><style>.cls-1{fill:#efefef;}.cls-2{fill:#bf64ff;}</style></defs><title>batterystorage-electrochemical</title><g id="bg"><rect class="cls-1" width="164" height="202"/></g><g id="Layer_1" data-name="Layer 1"><path class="cls-2" d="M34.43,35.49v108.8h40.8V35.49Zm20.4,27.2a6.8,6.8,0,1,1,6.8-6.8A6.8,6.8,0,0,1,54.83,62.69Z"/><path class="cls-2" d="M88.83,35.49v108.8h40.8V35.49Zm20.4,27.2a6.8,6.8,0,1,1,6.8-6.8A6.8,6.8,0,0,1,109.23,62.69Z"/><rect x="75.23" y="103.49" width="13.6" height="13.6" transform="translate(-28.25 192.32) rotate(-90)"/><rect x="20.83" y="103.49" width="13.6" height="13.6" transform="translate(-82.65 137.92) rotate(-90)"/><rect x="129.63" y="103.49" width="13.6" height="13.6" transform="translate(26.15 246.72) rotate(-90)"/><rect x="34.43" y="21.89" width="13.6" height="13.6"/><rect x="88.83" y="21.89" width="13.6" height="13.6"/><rect x="34.43" y="130.69" width="40.8" height="13.6"/><rect x="88.83" y="130.69" width="40.8" height="13.6"/><path d="M22.07,166.18a1.62,1.62,0,0,1,1.09.33,1.1,1.1,0,0,1,.31.81,1,1,0,0,1-.14.54.78.78,0,0,1-.36.31,1.11,1.11,0,0,1,.59.29,1,1,0,0,1,.28.76,1.17,1.17,0,0,1-.33.86,1.62,1.62,0,0,1-1.13.36H20.77v-4.27Zm-.33,1.73h.16a.92.92,0,0,0,.5-.12.45.45,0,0,0,.17-.38.44.44,0,0,0-.17-.36.82.82,0,0,0-.51-.11h-.15Zm0,1.77H22a1.08,1.08,0,0,0,.73-.17.47.47,0,0,0,.14-.36.46.46,0,0,0-.13-.35,1.1,1.1,0,0,0-.7-.16h-.27Z"/><path d="M27.72,169.64H26.1l-.33.81h-1l1.72-4.27h.9l1.68,4.27H28Zm-.27-.75-.52-1.43-.53,1.43Z"/><path d="M31.41,167v3.43h-1V167H29.5v-.83h2.84V167Z"/><path d="M35.33,167v3.43h-1V167h-.93v-.83h2.84V167Z"/><path d="M39.82,167H38.4v.83h1.36v.83H38.4v.95h1.43v.83H37.41v-4.27h2.41Z"/><path d="M42.76,166.18a1.52,1.52,0,0,1,1.09.37,1.28,1.28,0,0,1,.37,1,1.17,1.17,0,0,1-.33.87,1.35,1.35,0,0,1-.6.33l1.31,1.75H43.4l-1.15-1.68v1.68h-1v-4.27Zm-.51,1.94h.22a.81.81,0,0,0,.59-.19.57.57,0,0,0,.16-.42.52.52,0,0,0-.2-.43,1,1,0,0,0-.54-.13h-.23Z"/><path d="M46.72,168.46l-1.53-2.28h1.16l.86,1.32.86-1.32h1.16l-1.53,2.28v2h-1Z"/><path d="M54.67,167.23a1,1,0,0,0-.72-.31.53.53,0,0,0-.42.15.38.38,0,0,0-.11.27.3.3,0,0,0,.1.24,1.71,1.71,0,0,0,.54.24l.32.12a1.71,1.71,0,0,1,.58.33,1.06,1.06,0,0,1,.31.79,1.53,1.53,0,0,1-.38,1.06,1.65,1.65,0,0,1-1.21.44,1.81,1.81,0,0,1-.84-.18,2.71,2.71,0,0,1-.63-.47l.51-.7a2.69,2.69,0,0,0,.4.33,1,1,0,0,0,.54.15.68.68,0,0,0,.45-.15.44.44,0,0,0,.15-.35.37.37,0,0,0-.15-.31,2.07,2.07,0,0,0-.5-.24l-.35-.12a1.44,1.44,0,0,1-.59-.34,1,1,0,0,1-.26-.74,1.31,1.31,0,0,1,.37-1,1.37,1.37,0,0,1,1.06-.39,2.06,2.06,0,0,1,1.27.42Z"/><path d="M58.13,167v3.43h-1V167h-.93v-.83h2.84V167Z"/><path d="M63.87,166.71a2.27,2.27,0,0,1,0,3.21,2.28,2.28,0,0,1-1.65.63,2.35,2.35,0,0,1-1.66-.63,2.18,2.18,0,0,1-.66-1.59,2.38,2.38,0,0,1,.66-1.62,2.52,2.52,0,0,1,3.32,0Zm-2.59.65a1.3,1.3,0,0,0-.38,1,1.27,1.27,0,0,0,.39,1,1.26,1.26,0,0,0,.91.35,1.29,1.29,0,0,0,.95-.36,1.28,1.28,0,0,0,.37-1,1.35,1.35,0,0,0-.37-1,1.37,1.37,0,0,0-.94-.36A1.31,1.31,0,0,0,61.28,167.36Z"/><path d="M67.41,166.18a1.52,1.52,0,0,1,1.09.37,1.28,1.28,0,0,1,.37,1,1.17,1.17,0,0,1-.33.87,1.35,1.35,0,0,1-.6.33l1.31,1.75H68l-1.15-1.68v1.68h-1v-4.27Zm-.51,1.94h.22a.81.81,0,0,0,.59-.19.57.57,0,0,0,.16-.42.52.52,0,0,0-.2-.43,1,1,0,0,0-.54-.13H66.9Z"/><path d="M73,169.64H71.4l-.33.81h-1l1.72-4.27h.9l1.68,4.27h-1Zm-.27-.75-.52-1.43-.53,1.43Z"/><path d="M77.4,168.12h2.12v0a2.77,2.77,0,0,1-.66,1.8,2,2,0,0,1-1.52.58,2,2,0,0,1-1.56-.59,2.43,2.43,0,0,1,0-3.24,2.19,2.19,0,0,1,1.68-.62,2.15,2.15,0,0,1,1.2.32,2.36,2.36,0,0,1,.69.76l-.89.48a1.29,1.29,0,0,0-.38-.46,1.07,1.07,0,0,0-.65-.2,1.15,1.15,0,0,0-.88.35,1.46,1.46,0,0,0-.36,1,1.34,1.34,0,0,0,.36,1,1.12,1.12,0,0,0,.86.33,1.09,1.09,0,0,0,.74-.23,1,1,0,0,0,.31-.51h-1Z"/><path d="M83.31,167H81.89v.83h1.36v.83H81.89v.95h1.43v.83H80.9v-4.27h2.41Z"/><path class="cls-2" d="M21,174.45h3.55v.67H21.73v1.61h2.45v.67H21.73v2h2.93v.67H21Z"/><path class="cls-2" d="M26.87,175.06H25.76v-.61h1.78v4.08c0,.65.28,1,.85,1s.83-.33.94-1l.61.12a1.5,1.5,0,0,1-1.54,1.46,1.43,1.43,0,0,1-1.52-1.58Z"/><path class="cls-2" d="M34.67,178.18H31.52a1.25,1.25,0,0,0,1.24,1.33,1.39,1.39,0,0,0,1.3-.8l.54.28a1.93,1.93,0,0,1-1.83,1.13,1.81,1.81,0,0,1-1.4-.59,2.14,2.14,0,0,1-.53-1.49,2.2,2.2,0,0,1,.52-1.48,2,2,0,0,1,2.81,0,2,2,0,0,1,.5,1.38Zm-3.1-.61H34a1.14,1.14,0,0,0-1.2-1A1.16,1.16,0,0,0,31.56,177.57Z"/><path class="cls-2" d="M39.52,179a1.72,1.72,0,0,1-1.7,1.11,1.74,1.74,0,0,1-1.41-.61,2.34,2.34,0,0,1,0-2.94,1.74,1.74,0,0,1,1.41-.61,1.72,1.72,0,0,1,1.7,1.11l-.58.24a1.13,1.13,0,0,0-1.12-.74c-.77,0-1.24.61-1.24,1.47s.46,1.47,1.24,1.47a1.13,1.13,0,0,0,1.12-.74Z"/><path class="cls-2" d="M40.67,176.63V176h1.07v-1.21l.67-.42V176h2v.61h-2v2.06q0,.82.7.82a1.35,1.35,0,0,0,1-.48l.25.57a1.7,1.7,0,0,1-1.24.52,1.23,1.23,0,0,1-1.37-1.4v-2.09Z"/><path class="cls-2" d="M48.9,177.3a.72.72,0,0,0-.78-.74,1.17,1.17,0,0,0-1,.54,2.45,2.45,0,0,0-.4,1.5v1.46h-.67v-4h.67v.74a1.67,1.67,0,0,1,1.49-.81,1.25,1.25,0,0,1,1.33,1.34Z"/><path class="cls-2" d="M50.56,178a2.15,2.15,0,0,1,.54-1.47,2,2,0,0,1,2.88,0,2.26,2.26,0,0,1,0,2.94,2,2,0,0,1-2.88,0A2.15,2.15,0,0,1,50.56,178Zm.69,0a1.6,1.6,0,0,0,.35,1,1.25,1.25,0,0,0,1.89,0,1.71,1.71,0,0,0,0-2.08,1.25,1.25,0,0,0-1.89,0A1.6,1.6,0,0,0,51.24,178Z"/><path class="cls-2" d="M59.36,179a1.72,1.72,0,0,1-1.7,1.11,1.74,1.74,0,0,1-1.41-.61,2.34,2.34,0,0,1,0-2.94,1.74,1.74,0,0,1,1.41-.61,1.72,1.72,0,0,1,1.7,1.11l-.58.24a1.13,1.13,0,0,0-1.12-.74c-.77,0-1.24.61-1.24,1.47s.46,1.47,1.24,1.47a1.13,1.13,0,0,0,1.12-.74Z"/><path class="cls-2" d="M64.21,180.05h-.67v-2.64c0-.57-.25-.85-.74-.85a1.11,1.11,0,0,0-.9.49,2.07,2.07,0,0,0-.38,1.31v1.69h-.67v-5.66h.67v2.37A1.8,1.8,0,0,1,63,176c.82,0,1.23.44,1.23,1.31Z"/><path class="cls-2" d="M69.39,178.18H66.24a1.25,1.25,0,0,0,1.24,1.33,1.39,1.39,0,0,0,1.3-.8l.54.28a1.93,1.93,0,0,1-1.83,1.13,1.81,1.81,0,0,1-1.4-.59,2.14,2.14,0,0,1-.53-1.49,2.2,2.2,0,0,1,.52-1.48,2,2,0,0,1,2.81,0,2,2,0,0,1,.5,1.38Zm-3.1-.61h2.39a1.14,1.14,0,0,0-1.2-1A1.16,1.16,0,0,0,66.28,177.57Z"/><path class="cls-2" d="M74.6,180.05h-.67v-2.86c0-.44-.13-.62-.44-.62s-.71.52-.71,1.58v1.89h-.67v-2.86c0-.44-.13-.62-.44-.62s-.71.52-.71,1.58v1.89h-.67v-4H71v.51a1.08,1.08,0,0,1,.94-.58.8.8,0,0,1,.83.66,1.16,1.16,0,0,1,1-.66c.54,0,.88.35.88,1.09Z"/><path class="cls-2" d="M75.89,176.61V176h1.9v3.44h1.49v.59H75.73v-.59h1.39v-2.85Zm1.52-2.22a.55.55,0,0,1,.55.56.54.54,0,0,1-.55.54.55.55,0,0,1,0-1.1Z"/><path class="cls-2" d="M84.16,179a1.72,1.72,0,0,1-1.7,1.11,1.74,1.74,0,0,1-1.41-.61,2.34,2.34,0,0,1,0-2.94,1.74,1.74,0,0,1,1.41-.61,1.72,1.72,0,0,1,1.7,1.11l-.58.24a1.13,1.13,0,0,0-1.12-.74c-.78,0-1.24.61-1.24,1.47s.46,1.47,1.24,1.47a1.13,1.13,0,0,0,1.12-.74Z"/><path class="cls-2" d="M89,180.05h-.54l-.1-.57a1.75,1.75,0,0,1-1.42.63,1.16,1.16,0,0,1-1.25-1.22c0-.87.68-1.32,1.82-1.32h.82v-.18c0-.58-.38-.83-.93-.83a1,1,0,0,0-1,.69l-.59-.16A1.54,1.54,0,0,1,87.38,176a1.41,1.41,0,0,1,1.6,1.55Zm-2-.54a1.43,1.43,0,0,0,.88-.3,1.1,1.1,0,0,0,.41-.93v-.13h-.88c-.68,0-1.07.29-1.07.74A.59.59,0,0,0,87,179.51Z"/><path class="cls-2" d="M91.35,175.06H90.24v-.61H92v4.08c0,.65.28,1,.85,1s.83-.33.94-1l.61.12a1.5,1.5,0,0,1-1.54,1.46,1.43,1.43,0,0,1-1.52-1.58Z"/><path class="cls-2" d="M104.37,178.41a2,2,0,0,1-2,1.7,2.15,2.15,0,0,1-1.66-.74,3.82,3.82,0,0,1,0-4.25,2.15,2.15,0,0,1,1.66-.74,2,2,0,0,1,2,1.7l-.66.2c-.26-.83-.65-1.23-1.34-1.23-1,0-1.58.71-1.58,2.19s.59,2.19,1.58,2.19c.7,0,1.09-.4,1.34-1.23Z"/><path class="cls-2" d="M109.07,178.18h-3.15a1.25,1.25,0,0,0,1.24,1.33,1.39,1.39,0,0,0,1.3-.8l.54.28a1.93,1.93,0,0,1-1.83,1.13,1.81,1.81,0,0,1-1.4-.59,2.14,2.14,0,0,1-.53-1.49,2.2,2.2,0,0,1,.52-1.48,2,2,0,0,1,2.81,0,2,2,0,0,1,.5,1.38Zm-3.1-.61h2.39a1.14,1.14,0,0,0-1.2-1A1.16,1.16,0,0,0,106,177.57Z"/><path class="cls-2" d="M111.19,175.06h-1.11v-.61h1.78v4.08c0,.65.28,1,.85,1s.83-.33.94-1l.61.12a1.5,1.5,0,0,1-1.54,1.46,1.43,1.43,0,0,1-1.52-1.58Z"/><path class="cls-2" d="M116.15,175.06H115v-.61h1.78v4.08c0,.65.28,1,.85,1s.83-.33.94-1l.61.12a1.5,1.5,0,0,1-1.54,1.46,1.43,1.43,0,0,1-1.52-1.58Z"/><path class="cls-2" d="M123.44,176.83l-.53.38a1.08,1.08,0,0,0-1-.64c-.38,0-.7.18-.7.54s.3.5.94.62a3.59,3.59,0,0,1,.82.24.9.9,0,0,1,.62.86,1.15,1.15,0,0,1-.45,1,1.91,1.91,0,0,1-2.85-.82l.64-.24a1.13,1.13,0,0,0,1.11.8c.49,0,.86-.22.86-.62s-.3-.43-1-.59-1.3-.46-1.3-1.17a1,1,0,0,1,.4-.85,1.49,1.49,0,0,1,1-.32A1.57,1.57,0,0,1,123.44,176.83Z"/></g></svg>