<svg xmlns="http://www.w3.org/2000/svg" viewBox="0 0 164 202"><defs><style>.cls-1{fill:#efefef;}.cls-2{fill:#bf64ff;}</style></defs><title>biofuels-forestdebris</title><g id="bg"><rect class="cls-1" width="164" height="202"/></g><g id="Layer_1" data-name="Layer 1"><polygon class="cls-2" points="34.4 22.12 20.8 22.12 34.4 49.32 34.4 22.12"/><polygon class="cls-2" points="88.8 103.72 48 22.12 48 117.32 20.8 62.92 20.8 144.52 48 144.52 61.6 144.52 88.8 144.52 109.2 144.52 129.6 144.52 88.8 62.92 88.8 103.72"/><polygon class="cls-2" points="116 49.32 129.6 76.52 129.6 49.32 116 49.32"/><rect x="20.8" y="130.92" width="68" height="13.6"/><rect x="102.4" y="130.92" width="40.8" height="13.6"/><rect x="34.4" y="103.72" width="27.2" height="13.6"/><rect x="75.2" y="103.72" width="68" height="13.6"/><path d="M22.3,165.95a1.62,1.62,0,0,1,1.09.33,1.1,1.1,0,0,1,.31.81,1,1,0,0,1-.14.54.78.78,0,0,1-.36.31,1.11,1.11,0,0,1,.59.29,1,1,0,0,1,.28.76,1.17,1.17,0,0,1-.33.86,1.62,1.62,0,0,1-1.13.36H21v-4.27ZM22,167.68h.16a.92.92,0,0,0,.5-.12.45.45,0,0,0,.17-.38.44.44,0,0,0-.17-.36.82.82,0,0,0-.51-.11H22Zm0,1.77h.24a1.08,1.08,0,0,0,.73-.17.47.47,0,0,0,.14-.36.46.46,0,0,0-.13-.35,1.1,1.1,0,0,0-.7-.16H22Z"/><path d="M26.44,165.95v4.27h-1v-4.27Z"/><path d="M31.82,166.47a2.27,2.27,0,0,1,0,3.21,2.28,2.28,0,0,1-1.65.63,2.35,2.35,0,0,1-1.66-.63,2.18,2.18,0,0,1-.66-1.59,2.38,2.38,0,0,1,.66-1.62,2.52,2.52,0,0,1,3.32,0Zm-2.59.65a1.31,1.31,0,0,0-.38,1,1.27,1.27,0,0,0,.39,1,1.26,1.26,0,0,0,.91.35,1.29,1.29,0,0,0,.95-.36,1.28,1.28,0,0,0,.37-1,1.34,1.34,0,0,0-.37-1,1.37,1.37,0,0,0-.94-.36A1.31,1.31,0,0,0,29.23,167.13Z"/><path d="M36.23,166.78H34.85v.83h1.28v.83H34.85v1.78h-1v-4.27h2.37Z"/><path d="M41.2,168.48a1.81,1.81,0,0,1-.47,1.35,2.06,2.06,0,0,1-2.66,0,1.81,1.81,0,0,1-.47-1.35v-2.53h1v2.5a1,1,0,0,0,.22.72.9.9,0,0,0,1.19,0,1,1,0,0,0,.22-.72v-2.5h1Z"/><path d="M45.19,166.78H43.76v.83h1.36v.83H43.76v.95h1.43v.83H42.78v-4.27h2.41Z"/><path d="M47.62,165.95v3.43h1.32v.83H46.63v-4.27Z"/><path d="M52.34,167a1,1,0,0,0-.72-.31.53.53,0,0,0-.42.15.38.38,0,0,0-.11.27.3.3,0,0,0,.1.24,1.71,1.71,0,0,0,.54.24l.32.12a1.71,1.71,0,0,1,.58.33,1.06,1.06,0,0,1,.31.79,1.53,1.53,0,0,1-.38,1.06,1.65,1.65,0,0,1-1.21.44,1.81,1.81,0,0,1-.84-.18,2.71,2.71,0,0,1-.63-.47l.51-.7a2.65,2.65,0,0,0,.4.33,1,1,0,0,0,.54.15.68.68,0,0,0,.45-.15.44.44,0,0,0,.15-.35.38.38,0,0,0-.15-.31,2.06,2.06,0,0,0-.5-.24l-.35-.12a1.44,1.44,0,0,1-.59-.34,1,1,0,0,1-.26-.74,1.31,1.31,0,0,1,.37-1,1.37,1.37,0,0,1,1.06-.39,2.06,2.06,0,0,1,1.27.42Z"/><path class="cls-2" d="M21.26,174.22h3.49v.67H22v1.67h2.4v.67H22v2.58h-.7Z"/><path class="cls-2" d="M26,177.8a2.15,2.15,0,0,1,.54-1.47,2,2,0,0,1,2.88,0,2.26,2.26,0,0,1,0,2.94,2,2,0,0,1-2.88,0A2.15,2.15,0,0,1,26,177.8Zm.69,0a1.6,1.6,0,0,0,.35,1,1.25,1.25,0,0,0,1.89,0,1.71,1.71,0,0,0,0-2.08,1.25,1.25,0,0,0-1.89,0A1.6,1.6,0,0,0,26.68,177.8Z"/><path class="cls-2" d="M34.25,177.07a.72.72,0,0,0-.77-.74,1.17,1.17,0,0,0-1,.54,2.45,2.45,0,0,0-.4,1.5v1.46h-.67v-4h.67v.74a1.67,1.67,0,0,1,1.49-.81,1.25,1.25,0,0,1,1.33,1.34Z"/><path class="cls-2" d="M39.86,177.94H36.71a1.25,1.25,0,0,0,1.24,1.33,1.39,1.39,0,0,0,1.3-.8l.54.28a1.93,1.93,0,0,1-1.83,1.13,1.81,1.81,0,0,1-1.4-.59A2.14,2.14,0,0,1,36,177.8a2.2,2.2,0,0,1,.52-1.48,2,2,0,0,1,2.81,0,2,2,0,0,1,.5,1.38Zm-3.1-.61h2.39a1.14,1.14,0,0,0-1.2-1A1.16,1.16,0,0,0,36.76,177.34Z"/><path class="cls-2" d="M44.31,176.59l-.53.38a1.08,1.08,0,0,0-1-.64c-.38,0-.7.18-.7.54s.3.5.94.62a3.59,3.59,0,0,1,.82.24.9.9,0,0,1,.62.86,1.15,1.15,0,0,1-.45,1,1.91,1.91,0,0,1-2.85-.82l.64-.24a1.13,1.13,0,0,0,1.11.8c.49,0,.86-.22.86-.62s-.3-.43-1-.59-1.3-.46-1.3-1.17a1,1,0,0,1,.4-.85,1.49,1.49,0,0,1,1-.32A1.57,1.57,0,0,1,44.31,176.59Z"/><path class="cls-2" d="M45.86,176.39v-.61h1.07v-1.21l.67-.42v1.63h2v.61h-2v2.06q0,.82.7.82a1.35,1.35,0,0,0,1-.48l.25.57a1.7,1.7,0,0,1-1.24.52,1.23,1.23,0,0,1-1.37-1.4v-2.09Z"/><path class="cls-2" d="M55.88,174.22h1.42a2.37,2.37,0,0,1,1.81.71,3.54,3.54,0,0,1,0,4.17,2.37,2.37,0,0,1-1.81.71H55.88Zm.7.67v4.25h.64c1.17,0,1.81-.62,1.81-2.13s-.63-2.13-1.81-2.13Z"/><path class="cls-2" d="M64.66,177.94H61.51a1.25,1.25,0,0,0,1.24,1.33,1.39,1.39,0,0,0,1.3-.8l.54.28a1.93,1.93,0,0,1-1.83,1.13,1.81,1.81,0,0,1-1.4-.59,2.14,2.14,0,0,1-.53-1.49,2.2,2.2,0,0,1,.52-1.48,2,2,0,0,1,2.81,0,2,2,0,0,1,.5,1.38Zm-3.1-.61h2.39a1.14,1.14,0,0,0-1.2-1A1.16,1.16,0,0,0,61.56,177.34Z"/><path class="cls-2" d="M66.64,179.28v.54H66v-5.66h.67v2.14a1.54,1.54,0,0,1,1.23-.58,2.09,2.09,0,0,1,0,4.16A1.54,1.54,0,0,1,66.64,179.28ZM69,177.8a1.66,1.66,0,0,0-.33-1.06,1.19,1.19,0,0,0-1.79,0,1.89,1.89,0,0,0,0,2.13,1.19,1.19,0,0,0,1.79,0A1.66,1.66,0,0,0,69,177.8Z"/><path class="cls-2" d="M73.93,177.07a.72.72,0,0,0-.77-.74,1.17,1.17,0,0,0-1,.54,2.45,2.45,0,0,0-.4,1.5v1.46h-.67v-4h.67v.74a1.67,1.67,0,0,1,1.49-.81,1.25,1.25,0,0,1,1.33,1.34Z"/><path class="cls-2" d="M76.12,176.38v-.59H78v3.44h1.49v.59H76v-.59h1.39v-2.85Zm1.52-2.22a.55.55,0,0,1,.55.56.54.54,0,0,1-.55.54.55.55,0,0,1,0-1.1Z"/><path class="cls-2" d="M84,176.59l-.53.38a1.08,1.08,0,0,0-1-.64c-.38,0-.7.18-.7.54s.3.5.94.62a3.59,3.59,0,0,1,.82.24.9.9,0,0,1,.62.86,1.15,1.15,0,0,1-.45,1,1.91,1.91,0,0,1-2.85-.82l.64-.24a1.13,1.13,0,0,0,1.11.8c.49,0,.86-.22.86-.62s-.3-.43-1-.59-1.3-.46-1.3-1.17a1,1,0,0,1,.4-.85,1.49,1.49,0,0,1,1-.32A1.57,1.57,0,0,1,84,176.59Z"/></g></svg>