<svg id="Layer_1" data-name="Layer 1" xmlns="http://www.w3.org/2000/svg" viewBox="0 0 164 210"><defs><style>.cls-1{fill:#bf64ff;}</style></defs><title>biofuels-algaepv</title><circle class="cls-1" cx="124.5" cy="55.78" r="17"/><circle class="cls-1" cx="90.5" cy="38.78" r="17"/><circle class="cls-1" cx="90.5" cy="72.78" r="17"/><circle class="cls-1" cx="73.5" cy="123.78" r="17"/><circle class="cls-1" cx="39.5" cy="89.78" r="17"/><path class="cls-1" d="M124.5,72.78a17,17,0,0,0-17,17,17,17,0,1,0,17,17,17,17,0,0,0,0-34Z"/><path d="M82,21.78a59.5,59.5,0,1,1-59.5,59.5A59.57,59.57,0,0,1,82,21.78m0-17a76.5,76.5,0,1,0,76.5,76.5A76.5,76.5,0,0,0,82,4.78Z"/><path d="M7.72,185.77a2,2,0,0,1,1.36.41,1.38,1.38,0,0,1,.38,1,1.26,1.26,0,0,1-.18.68,1,1,0,0,1-.45.39,1.38,1.38,0,0,1,.74.36,1.3,1.3,0,0,1,.34,1,1.46,1.46,0,0,1-.42,1.08,2,2,0,0,1-1.41.46h-2v-5.33Zm-.42,2.17h.2a1.15,1.15,0,0,0,.62-.15.57.57,0,0,0,.22-.47.54.54,0,0,0-.21-.45,1,1,0,0,0-.64-.14H7.3Zm0,2.21h.3a1.35,1.35,0,0,0,.91-.22.59.59,0,0,0,.18-.45.57.57,0,0,0-.17-.43,1.38,1.38,0,0,0-.88-.2H7.3Z"/><path d="M12.89,185.77v5.33H11.66v-5.33Z"/><path d="M19.61,186.43a2.84,2.84,0,0,1,0,4,2.85,2.85,0,0,1-2.06.78,2.94,2.94,0,0,1-2.08-.78,2.72,2.72,0,0,1-.83-2,3,3,0,0,1,.82-2,2.86,2.86,0,0,1,2.09-.78A2.85,2.85,0,0,1,19.61,186.43Zm-3.24.82a1.63,1.63,0,0,0-.47,1.21,1.59,1.59,0,0,0,.49,1.2,1.57,1.57,0,0,0,1.14.44,1.61,1.61,0,0,0,1.18-.46,1.6,1.6,0,0,0,.46-1.19,1.68,1.68,0,0,0-.46-1.2,1.71,1.71,0,0,0-1.17-.46A1.63,1.63,0,0,0,16.37,187.24Z"/><path d="M25.12,186.81H23.4v1H25v1H23.4v2.22H22.16v-5.33h3Z"/><path d="M31.34,188.93a2.26,2.26,0,0,1-.59,1.69,2.13,2.13,0,0,1-1.66.61,2.13,2.13,0,0,1-1.66-.61,2.26,2.26,0,0,1-.59-1.69v-3.16h1.23v3.13a1.26,1.26,0,0,0,.28.9,1.13,1.13,0,0,0,1.49,0,1.26,1.26,0,0,0,.28-.9v-3.13h1.23Z"/><path d="M36.32,186.81H34.54v1h1.69v1H34.54v1.18h1.78v1h-3v-5.33h3Z"/><path d="M39.35,185.77v4.29H41v1H38.12v-5.33Z"/><path d="M45.26,187.08a1.3,1.3,0,0,0-.9-.38.67.67,0,0,0-.52.18.48.48,0,0,0-.14.34.37.37,0,0,0,.12.3,2.13,2.13,0,0,0,.67.3l.4.15a2.14,2.14,0,0,1,.73.41,1.33,1.33,0,0,1,.39,1,1.91,1.91,0,0,1-.47,1.32,2.07,2.07,0,0,1-1.51.54A2.26,2.26,0,0,1,43,191a3.39,3.39,0,0,1-.78-.58l.64-.88a3.36,3.36,0,0,0,.5.41,1.24,1.24,0,0,0,.67.19.85.85,0,0,0,.56-.18.55.55,0,0,0,.19-.43.47.47,0,0,0-.18-.38,2.59,2.59,0,0,0-.62-.3l-.44-.15a1.8,1.8,0,0,1-.74-.42,1.31,1.31,0,0,1-.32-.93,1.64,1.64,0,0,1,.46-1.2,1.72,1.72,0,0,1,1.32-.49,2.58,2.58,0,0,1,1.58.53Z"/><path class="cls-1" d="M8.18,196.11H9l2.49,7H10.6L10,201.24H7.23l-.63,1.87H5.69Zm.42,1.14L7.52,200.4H9.68Z"/><path class="cls-1" d="M13.71,196.87H12.32v-.76h2.23v5.1c0,.81.35,1.22,1.06,1.22s1-.41,1.17-1.22l.76.15a1.87,1.87,0,0,1-1.93,1.83,1.79,1.79,0,0,1-1.9-2Z"/><path class="cls-1" d="M19.82,198.45A1.83,1.83,0,0,1,21.1,198a2,2,0,0,1,1,.26l1-.54.38.69-.85.44a1.64,1.64,0,0,1,.21.84,1.61,1.61,0,0,1-.5,1.23,1.8,1.8,0,0,1-1.28.46,2,2,0,0,1-.93-.21c-.31.12-.46.29-.46.52s.24.42.71.42h1.31c1.08,0,1.69.48,1.69,1.39a1.44,1.44,0,0,1-.69,1.31,3.07,3.07,0,0,1-1.67.43c-1.47,0-2.33-.58-2.33-1.66a1.29,1.29,0,0,1,.52-1.08.92.92,0,0,1-.36-.77,1.06,1.06,0,0,1,.74-1,1.66,1.66,0,0,1-.31-1A1.61,1.61,0,0,1,19.82,198.45Zm.7,4.37a2.56,2.56,0,0,1-.52,0,.78.78,0,0,0-.43.76c0,.59.58.95,1.49.95s1.5-.35,1.5-.92-.28-.75-.85-.75Zm-.38-3.14a.94.94,0,0,0,.27.71,1,1,0,0,0,.69.26,1,1,0,0,0,.68-.25.91.91,0,0,0,.28-.72.89.89,0,0,0-.28-.71,1,1,0,0,0-.68-.26,1,1,0,0,0-.69.26A.93.93,0,0,0,20.14,199.68Z"/><path class="cls-1" d="M29.35,203.11h-.68l-.12-.71a2.19,2.19,0,0,1-1.78.79,1.45,1.45,0,0,1-1.56-1.53c0-1.09.85-1.65,2.28-1.65h1v-.22c0-.73-.48-1-1.16-1a1.22,1.22,0,0,0-1.19.86l-.74-.2A1.92,1.92,0,0,1,27.35,198a1.76,1.76,0,0,1,2,1.94Zm-2.45-.68A1.79,1.79,0,0,0,28,202a1.37,1.37,0,0,0,.51-1.16v-.16h-1.1c-.85,0-1.34.36-1.34.93A.74.74,0,0,0,26.9,202.43Z"/><path class="cls-1" d="M35.86,200.77H31.92a1.57,1.57,0,0,0,1.55,1.66,1.73,1.73,0,0,0,1.62-1l.67.35a2.42,2.42,0,0,1-2.29,1.41,2.27,2.27,0,0,1-1.75-.74,2.68,2.68,0,0,1-.66-1.86,2.75,2.75,0,0,1,.65-1.85,2.5,2.5,0,0,1,3.52,0,2.48,2.48,0,0,1,.63,1.73ZM32,200h3a1.43,1.43,0,0,0-1.5-1.26A1.45,1.45,0,0,0,32,200Z"/><path class="cls-1" d="M43.48,196.11h1.77a3,3,0,0,1,2.26.89,4.43,4.43,0,0,1,0,5.22,3,3,0,0,1-2.26.89H43.48Zm.88.84v5.32h.8c1.47,0,2.26-.78,2.26-2.66s-.79-2.66-2.26-2.66Z"/><path class="cls-1" d="M54.46,200.77H50.52a1.57,1.57,0,0,0,1.55,1.66,1.73,1.73,0,0,0,1.62-1l.67.35a2.42,2.42,0,0,1-2.29,1.41,2.27,2.27,0,0,1-1.75-.74,2.68,2.68,0,0,1-.66-1.86,2.75,2.75,0,0,1,.65-1.85,2.5,2.5,0,0,1,3.52,0,2.48,2.48,0,0,1,.63,1.73ZM50.58,200h3a1.43,1.43,0,0,0-1.5-1.26A1.45,1.45,0,0,0,50.58,200Z"/><path class="cls-1" d="M59.85,199.67a.9.9,0,0,0-1-.92,1.47,1.47,0,0,0-1.21.67,3.06,3.06,0,0,0-.5,1.87v1.82h-.84v-5h.84V199A2.08,2.08,0,0,1,59,198a1.56,1.56,0,0,1,1.66,1.68Z"/><path class="cls-1" d="M62.59,198.81v-.74H65v4.3h1.86v.74H62.39v-.74h1.74v-3.56Zm1.9-2.78a.69.69,0,0,1,.69.7.67.67,0,0,1-.69.68.69.69,0,0,1,0-1.38Z"/><path class="cls-1" d="M72.22,198.07h.91l-2.11,5h-.84l-2.11-5H69l1.62,4Z"/><path class="cls-1" d="M79.26,200.77H75.32a1.57,1.57,0,0,0,1.55,1.66,1.73,1.73,0,0,0,1.62-1l.67.35a2.42,2.42,0,0,1-2.29,1.41,2.27,2.27,0,0,1-1.75-.74,2.68,2.68,0,0,1-.66-1.86,2.75,2.75,0,0,1,.65-1.85,2.5,2.5,0,0,1,3.52,0,2.48,2.48,0,0,1,.63,1.73ZM75.38,200h3a1.43,1.43,0,0,0-1.5-1.26A1.45,1.45,0,0,0,75.38,200Z"/><path class="cls-1" d="M84.45,198.71V196h.84v7.08h-.84v-.67a1.92,1.92,0,0,1-1.54.75,2.62,2.62,0,0,1,0-5.2A1.93,1.93,0,0,1,84.45,198.71Zm-3,1.88a2.07,2.07,0,0,0,.41,1.33,1.48,1.48,0,0,0,2.24,0,2.36,2.36,0,0,0,0-2.66,1.48,1.48,0,0,0-2.24,0A2.07,2.07,0,0,0,81.46,200.59Z"/><path class="cls-1" d="M93.26,196.11h2.46c1.25,0,2,.65,2,1.8a1.55,1.55,0,0,1-.8,1.37A1.82,1.82,0,0,1,98.06,201a2,2,0,0,1-2.18,2.08H93.26Zm.88.84v2H95.7c.68,0,1.1-.35,1.1-1a1,1,0,0,0-1.1-1Zm0,2.85v2.47h1.61c.93,0,1.4-.41,1.4-1.24s-.47-1.23-1.4-1.23Z"/><path class="cls-1" d="M99.79,198.81v-.74h2.38v4.3H104v.74H99.59v-.74h1.74v-3.56Zm1.9-2.78a.69.69,0,0,1,.69.7.67.67,0,0,1-.69.68.69.69,0,0,1,0-1.38Z"/><path class="cls-1" d="M105.32,200.59a2.68,2.68,0,0,1,.68-1.84,2.51,2.51,0,0,1,3.6,0,2.83,2.83,0,0,1,0,3.68,2.51,2.51,0,0,1-3.6,0A2.68,2.68,0,0,1,105.32,200.59Zm.86,0a2,2,0,0,0,.44,1.3,1.56,1.56,0,0,0,2.36,0,2.14,2.14,0,0,0,0-2.6,1.56,1.56,0,0,0-2.36,0A2,2,0,0,0,106.18,200.59Z"/><path class="cls-1" d="M116.78,203.11h-.84v-3.58c0-.55-.16-.77-.55-.77s-.89.65-.89,2v2.37h-.84v-3.58c0-.55-.16-.77-.55-.77s-.89.65-.89,2v2.37h-.84v-5h.84v.64a1.34,1.34,0,0,1,1.18-.72,1,1,0,0,1,1,.82,1.45,1.45,0,0,1,1.24-.82c.67,0,1.1.44,1.1,1.36Z"/><path class="cls-1" d="M122.35,203.11h-.68l-.12-.71a2.19,2.19,0,0,1-1.78.79,1.45,1.45,0,0,1-1.56-1.53c0-1.09.85-1.65,2.28-1.65h1v-.22c0-.73-.48-1-1.16-1a1.22,1.22,0,0,0-1.19.86l-.74-.2a1.92,1.92,0,0,1,1.93-1.42,1.76,1.76,0,0,1,2,1.94Zm-2.45-.68A1.79,1.79,0,0,0,121,202a1.37,1.37,0,0,0,.51-1.16v-.16h-1.1c-.85,0-1.34.36-1.34.93A.74.74,0,0,0,119.9,202.43Z"/><path class="cls-1" d="M128.22,199.08l-.66.47a1.35,1.35,0,0,0-1.21-.8c-.48,0-.87.22-.87.67s.37.62,1.17.78a4.48,4.48,0,0,1,1,.3,1.12,1.12,0,0,1,.78,1.07,1.44,1.44,0,0,1-.56,1.19,2.39,2.39,0,0,1-3.57-1l.8-.3a1.41,1.41,0,0,0,1.39,1c.61,0,1.07-.27,1.07-.78s-.38-.54-1.3-.74-1.63-.57-1.63-1.46a1.3,1.3,0,0,1,.5-1.06,1.86,1.86,0,0,1,1.22-.4A2,2,0,0,1,128.22,199.08Z"/><path class="cls-1" d="M134.42,199.08l-.66.47a1.35,1.35,0,0,0-1.21-.8c-.48,0-.87.22-.87.67s.37.62,1.17.78a4.48,4.48,0,0,1,1,.3,1.12,1.12,0,0,1,.78,1.07,1.44,1.44,0,0,1-.56,1.19,2.39,2.39,0,0,1-3.57-1l.8-.3a1.41,1.41,0,0,0,1.39,1c.61,0,1.07-.27,1.07-.78s-.38-.54-1.3-.74-1.63-.57-1.63-1.46a1.3,1.3,0,0,1,.5-1.06,1.86,1.86,0,0,1,1.22-.4A2,2,0,0,1,134.42,199.08Z"/></svg>