<svg id="Layer_1" data-name="Layer 1" xmlns="http://www.w3.org/2000/svg" viewBox="0 0 164 210"><defs><style>.cls-1{fill:#bf64ff;}</style></defs><title>biofuels-forestdebrispv</title><polygon class="cls-1" points="22.5 6.4 5.5 6.4 22.5 40.4 22.5 6.4"/><polygon class="cls-1" points="90.5 108.4 39.5 6.4 39.5 125.4 5.5 57.4 5.5 159.4 39.5 159.4 56.5 159.4 90.5 159.4 116 159.4 141.5 159.4 90.5 57.4 90.5 108.4"/><polygon class="cls-1" points="124.5 40.4 141.5 74.4 141.5 40.4 124.5 40.4"/><rect x="5.5" y="142.4" width="85" height="17"/><rect x="107.5" y="142.4" width="51" height="17"/><rect x="22.5" y="108.4" width="34" height="17"/><rect x="73.5" y="108.4" width="85" height="17"/><path d="M7.38,186.19a2,2,0,0,1,1.36.41,1.38,1.38,0,0,1,.38,1,1.26,1.26,0,0,1-.18.68,1,1,0,0,1-.45.39,1.39,1.39,0,0,1,.74.36,1.3,1.3,0,0,1,.34,1,1.46,1.46,0,0,1-.42,1.08,2,2,0,0,1-1.41.46h-2v-5.33ZM7,188.35h.2a1.15,1.15,0,0,0,.62-.15.57.57,0,0,0,.22-.47.54.54,0,0,0-.21-.45,1,1,0,0,0-.64-.14H7Zm0,2.21h.3a1.35,1.35,0,0,0,.91-.22.59.59,0,0,0,.18-.45.57.57,0,0,0-.17-.43,1.38,1.38,0,0,0-.88-.2H7Z"/><path d="M12.56,186.19v5.33H11.32v-5.33Z"/><path d="M19.27,186.84a2.84,2.84,0,0,1,0,4,2.85,2.85,0,0,1-2.06.78,2.94,2.94,0,0,1-2.08-.78,2.72,2.72,0,0,1-.83-2,3,3,0,0,1,.82-2,2.86,2.86,0,0,1,2.09-.78A2.85,2.85,0,0,1,19.27,186.84Zm-3.24.82a1.63,1.63,0,0,0-.47,1.21,1.59,1.59,0,0,0,.49,1.2,1.57,1.57,0,0,0,1.14.44,1.61,1.61,0,0,0,1.18-.46,1.6,1.6,0,0,0,.46-1.19,1.68,1.68,0,0,0-.46-1.2,1.71,1.71,0,0,0-1.17-.46A1.63,1.63,0,0,0,16,187.66Z"/><path d="M24.79,187.23H23.06v1h1.6v1h-1.6v2.22H21.83v-5.33h3Z"/><path d="M31,189.34a2.26,2.26,0,0,1-.59,1.69,2.13,2.13,0,0,1-1.66.61,2.13,2.13,0,0,1-1.66-.61,2.26,2.26,0,0,1-.59-1.69v-3.16h1.23v3.13a1.26,1.26,0,0,0,.28.9,1.13,1.13,0,0,0,1.49,0,1.26,1.26,0,0,0,.28-.9v-3.13H31Z"/><path d="M36,187.23H34.2v1H35.9v1H34.2v1.18H36v1H33v-5.33h3Z"/><path d="M39,186.19v4.29h1.65v1H37.79v-5.33Z"/><path d="M44.92,187.49a1.3,1.3,0,0,0-.9-.38.67.67,0,0,0-.52.18.48.48,0,0,0-.14.34.37.37,0,0,0,.12.3,2.14,2.14,0,0,0,.67.3l.4.15a2.14,2.14,0,0,1,.73.41,1.33,1.33,0,0,1,.39,1,1.91,1.91,0,0,1-.47,1.32,2.07,2.07,0,0,1-1.51.54,2.26,2.26,0,0,1-1.05-.22,3.39,3.39,0,0,1-.78-.58l.64-.88a3.31,3.31,0,0,0,.5.41,1.24,1.24,0,0,0,.67.19.85.85,0,0,0,.56-.18.55.55,0,0,0,.19-.43.47.47,0,0,0-.18-.38,2.57,2.57,0,0,0-.62-.3l-.44-.15a1.8,1.8,0,0,1-.74-.42,1.31,1.31,0,0,1-.32-.93,1.64,1.64,0,0,1,.46-1.2,1.72,1.72,0,0,1,1.32-.49,2.58,2.58,0,0,1,1.58.53Z"/><path class="cls-1" d="M6.07,196.52h4.37v.84H7v2.09h3v.84H7v3.23H6.07Z"/><path class="cls-1" d="M12,201a2.68,2.68,0,0,1,.68-1.84,2.28,2.28,0,0,1,1.8-.76,2.28,2.28,0,0,1,1.8.76,2.83,2.83,0,0,1,0,3.68,2.28,2.28,0,0,1-1.8.76,2.28,2.28,0,0,1-1.8-.76A2.68,2.68,0,0,1,12,201Zm.86,0a2,2,0,0,0,.44,1.3,1.56,1.56,0,0,0,2.36,0,2.14,2.14,0,0,0,0-2.6,1.56,1.56,0,0,0-2.36,0A2,2,0,0,0,12.84,201Z"/><path class="cls-1" d="M22.31,200.08a.9.9,0,0,0-1-.92,1.47,1.47,0,0,0-1.21.67,3.06,3.06,0,0,0-.5,1.87v1.82h-.84v-5h.84v.93a2.08,2.08,0,0,1,1.86-1,1.56,1.56,0,0,1,1.66,1.68Z"/><path class="cls-1" d="M29.32,201.18H25.38a1.57,1.57,0,0,0,1.55,1.66,1.73,1.73,0,0,0,1.62-1l.67.35a2.42,2.42,0,0,1-2.29,1.41,2.27,2.27,0,0,1-1.75-.74,2.68,2.68,0,0,1-.66-1.86,2.75,2.75,0,0,1,.65-1.85,2.5,2.5,0,0,1,3.52,0,2.48,2.48,0,0,1,.63,1.73Zm-3.88-.76h3a1.43,1.43,0,0,0-1.5-1.26A1.45,1.45,0,0,0,25.44,200.42Z"/><path class="cls-1" d="M34.88,199.49l-.66.47a1.35,1.35,0,0,0-1.21-.8c-.48,0-.87.22-.87.67s.37.62,1.17.78a4.48,4.48,0,0,1,1,.3,1.12,1.12,0,0,1,.78,1.07,1.44,1.44,0,0,1-.56,1.19,2.39,2.39,0,0,1-3.57-1l.8-.3a1.41,1.41,0,0,0,1.39,1c.61,0,1.07-.27,1.07-.78s-.38-.54-1.3-.74-1.63-.57-1.63-1.46a1.3,1.3,0,0,1,.5-1.06,1.86,1.86,0,0,1,1.22-.4A2,2,0,0,1,34.88,199.49Z"/><path class="cls-1" d="M36.82,199.24v-.76h1.34V197l.84-.53v2h2.46v.76H39v2.58q0,1,.87,1a1.69,1.69,0,0,0,1.24-.6l.31.71a2.12,2.12,0,0,1-1.55.65,1.54,1.54,0,0,1-1.71-1.75v-2.61Z"/><path class="cls-1" d="M49.35,196.52h1.77a3,3,0,0,1,2.26.89,4.43,4.43,0,0,1,0,5.22,3,3,0,0,1-2.26.89H49.35Zm.88.84v5.32H51c1.47,0,2.26-.78,2.26-2.66s-.79-2.66-2.26-2.66Z"/><path class="cls-1" d="M60.32,201.18H56.39a1.57,1.57,0,0,0,1.55,1.66,1.73,1.73,0,0,0,1.62-1l.67.35a2.42,2.42,0,0,1-2.29,1.41,2.27,2.27,0,0,1-1.75-.74,2.68,2.68,0,0,1-.66-1.86,2.75,2.75,0,0,1,.65-1.85,2.5,2.5,0,0,1,3.52,0,2.48,2.48,0,0,1,.63,1.73Zm-3.88-.76h3a1.43,1.43,0,0,0-1.5-1.26A1.45,1.45,0,0,0,56.44,200.42Z"/><path class="cls-1" d="M62.81,202.85v.67H62v-7.08h.84v2.68a1.93,1.93,0,0,1,1.54-.72,2.62,2.62,0,0,1,0,5.2A1.92,1.92,0,0,1,62.81,202.85Zm3-1.85a2.07,2.07,0,0,0-.41-1.33,1.48,1.48,0,0,0-2.24,0,2.36,2.36,0,0,0,0,2.66,1.48,1.48,0,0,0,2.24,0A2.07,2.07,0,0,0,65.79,201Z"/><path class="cls-1" d="M71.91,200.08a.9.9,0,0,0-1-.92,1.47,1.47,0,0,0-1.21.67,3.06,3.06,0,0,0-.5,1.87v1.82H68.4v-5h.84v.93a2.08,2.08,0,0,1,1.86-1,1.56,1.56,0,0,1,1.66,1.68Z"/><path class="cls-1" d="M74.66,199.22v-.74H77v4.3h1.86v.74H74.46v-.74h1.74v-3.56Zm1.9-2.78a.69.69,0,0,1,.69.7.67.67,0,0,1-.69.68.69.69,0,0,1,0-1.38Z"/><path class="cls-1" d="M84.48,199.49l-.66.47a1.35,1.35,0,0,0-1.21-.8c-.48,0-.87.22-.87.67s.37.62,1.17.78a4.48,4.48,0,0,1,1,.3,1.12,1.12,0,0,1,.78,1.07,1.44,1.44,0,0,1-.56,1.19,2.39,2.39,0,0,1-3.57-1l.8-.3a1.41,1.41,0,0,0,1.39,1c.61,0,1.07-.27,1.07-.78s-.38-.54-1.3-.74-1.63-.57-1.63-1.46a1.3,1.3,0,0,1,.5-1.06,1.86,1.86,0,0,1,1.22-.4A2,2,0,0,1,84.48,199.49Z"/></svg>