<svg xmlns="http://www.w3.org/2000/svg" viewBox="0 0 164 202"><defs><style>.cls-1{fill:#efefef;}.cls-2{fill:#bf64ff;}</style></defs><title>biofuels-algae</title><g id="bg"><rect class="cls-1" width="164" height="202"/></g><g id="Layer_1" data-name="Layer 1"><circle class="cls-2" cx="116" cy="61.62" r="13.6"/><circle class="cls-2" cx="88.8" cy="48.02" r="13.6"/><circle class="cls-2" cx="88.8" cy="75.22" r="13.6"/><circle class="cls-2" cx="75.2" cy="116.02" r="13.6"/><circle class="cls-2" cx="48" cy="88.82" r="13.6"/><path class="cls-2" d="M116,75.22a13.6,13.6,0,0,0-13.6,13.6,13.6,13.6,0,1,0,13.6,13.6,13.6,13.6,0,1,0,0-27.2Z"/><path d="M82,37.82A44.2,44.2,0,1,1,37.8,82,44.25,44.25,0,0,1,82,37.82m0-17A61.2,61.2,0,1,0,143.2,82,61.2,61.2,0,0,0,82,20.82Z"/><path d="M22.57,165.62a1.62,1.62,0,0,1,1.09.33,1.1,1.1,0,0,1,.31.81,1,1,0,0,1-.14.54.78.78,0,0,1-.36.31,1.11,1.11,0,0,1,.59.29,1,1,0,0,1,.28.76,1.17,1.17,0,0,1-.33.86,1.62,1.62,0,0,1-1.13.36H21.27v-4.27Zm-.33,1.73h.16a.92.92,0,0,0,.5-.12.45.45,0,0,0,.17-.38.44.44,0,0,0-.17-.36.82.82,0,0,0-.51-.11h-.15Zm0,1.77h.24a1.08,1.08,0,0,0,.73-.17.47.47,0,0,0,.14-.36.46.46,0,0,0-.13-.35,1.1,1.1,0,0,0-.7-.16h-.27Z"/><path d="M26.71,165.62v4.27h-1v-4.27Z"/><path d="M32.09,166.14a2.27,2.27,0,0,1,0,3.21,2.28,2.28,0,0,1-1.65.63,2.35,2.35,0,0,1-1.66-.63,2.18,2.18,0,0,1-.66-1.59,2.38,2.38,0,0,1,.66-1.62,2.52,2.52,0,0,1,3.32,0Zm-2.59.65a1.3,1.3,0,0,0-.38,1,1.27,1.27,0,0,0,.39,1,1.26,1.26,0,0,0,.91.35,1.29,1.29,0,0,0,.95-.36,1.28,1.28,0,0,0,.37-1,1.34,1.34,0,0,0-.37-1,1.37,1.37,0,0,0-.94-.36A1.31,1.31,0,0,0,29.5,166.8Z"/><path d="M36.5,166.45H35.12v.82H36.4v.83H35.12v1.78h-1v-4.27H36.5Z"/><path d="M41.47,168.14a1.81,1.81,0,0,1-.47,1.35,2.06,2.06,0,0,1-2.66,0,1.81,1.81,0,0,1-.47-1.35v-2.53h1v2.5a1,1,0,0,0,.22.72.9.9,0,0,0,1.19,0,1,1,0,0,0,.22-.72v-2.5h1Z"/><path d="M45.46,166.45H44v.82h1.36v.83H44v.95h1.43v.83H43v-4.27h2.41Z"/><path d="M47.88,165.62v3.43h1.32v.83H46.9v-4.27Z"/><path d="M52.61,166.66a1,1,0,0,0-.72-.31.53.53,0,0,0-.42.15.38.38,0,0,0-.11.27.3.3,0,0,0,.1.24,1.71,1.71,0,0,0,.54.24l.32.12a1.71,1.71,0,0,1,.58.33,1.06,1.06,0,0,1,.31.79,1.53,1.53,0,0,1-.38,1.06,1.65,1.65,0,0,1-1.21.44,1.81,1.81,0,0,1-.84-.18,2.71,2.71,0,0,1-.63-.47l.51-.7a2.69,2.69,0,0,0,.4.33,1,1,0,0,0,.54.15A.68.68,0,0,0,52,169a.44.44,0,0,0,.15-.35.37.37,0,0,0-.15-.31,2.07,2.07,0,0,0-.5-.24L51.2,168a1.44,1.44,0,0,1-.59-.34,1,1,0,0,1-.26-.74,1.31,1.31,0,0,1,.37-1,1.37,1.37,0,0,1,1.06-.39,2.06,2.06,0,0,1,1.27.42Z"/><path class="cls-2" d="M22.94,173.89h.67l2,5.6h-.73l-.5-1.5H22.18l-.5,1.5H21Zm.34.91-.86,2.52h1.73Z"/><path class="cls-2" d="M27.37,174.5H26.26v-.61H28V178c0,.65.28,1,.85,1s.83-.33.94-1l.61.12a1.5,1.5,0,0,1-1.54,1.46A1.43,1.43,0,0,1,27.37,178Z"/><path class="cls-2" d="M32.26,175.76a1.46,1.46,0,0,1,1-.37,1.58,1.58,0,0,1,.79.21l.84-.43.3.55-.68.35a1.31,1.31,0,0,1,.17.67,1.29,1.29,0,0,1-.4,1,1.44,1.44,0,0,1-1,.37,1.6,1.6,0,0,1-.74-.17c-.25.1-.37.23-.37.42s.19.34.57.34h1c.86,0,1.35.38,1.35,1.11a1.15,1.15,0,0,1-.55,1,2.46,2.46,0,0,1-1.34.34c-1.17,0-1.86-.46-1.86-1.33a1,1,0,0,1,.42-.86.74.74,0,0,1-.29-.62.85.85,0,0,1,.59-.81,1.33,1.33,0,0,1-.25-.82A1.29,1.29,0,0,1,32.26,175.76Zm.56,3.49a2.05,2.05,0,0,1-.42,0,.62.62,0,0,0-.34.61c0,.47.46.76,1.19.76s1.2-.28,1.2-.74-.22-.6-.68-.6Zm-.3-2.51a.75.75,0,0,0,.22.57.8.8,0,0,0,.55.21.76.76,0,0,0,.54-.2.73.73,0,0,0,.22-.58.71.71,0,0,0-.22-.57.77.77,0,0,0-.54-.21.8.8,0,0,0-.55.21A.75.75,0,0,0,32.51,176.74Z"/><path class="cls-2" d="M39.88,179.48h-.54l-.1-.57a1.75,1.75,0,0,1-1.42.63,1.16,1.16,0,0,1-1.25-1.22c0-.87.68-1.32,1.82-1.32h.82v-.18c0-.58-.38-.83-.93-.83a1,1,0,0,0-1,.69l-.59-.16a1.54,1.54,0,0,1,1.54-1.14,1.41,1.41,0,0,1,1.6,1.55Zm-2-.54a1.43,1.43,0,0,0,.88-.3,1.1,1.1,0,0,0,.41-.93v-.13h-.88c-.68,0-1.07.29-1.07.74A.59.59,0,0,0,37.92,178.94Z"/><path class="cls-2" d="M45.09,177.61H41.94a1.25,1.25,0,0,0,1.24,1.33,1.39,1.39,0,0,0,1.3-.8l.54.28a1.93,1.93,0,0,1-1.83,1.13,1.81,1.81,0,0,1-1.4-.59,2.14,2.14,0,0,1-.53-1.49,2.2,2.2,0,0,1,.52-1.48,2,2,0,0,1,2.81,0,2,2,0,0,1,.5,1.38ZM42,177h2.39a1.14,1.14,0,0,0-1.2-1A1.16,1.16,0,0,0,42,177Z"/><path class="cls-2" d="M51.18,173.89H52.6a2.37,2.37,0,0,1,1.81.71,3.54,3.54,0,0,1,0,4.17,2.37,2.37,0,0,1-1.81.71H51.18Zm.7.67v4.25h.64c1.17,0,1.81-.62,1.81-2.13s-.63-2.13-1.81-2.13Z"/><path class="cls-2" d="M60,177.61H56.82a1.25,1.25,0,0,0,1.24,1.33,1.39,1.39,0,0,0,1.3-.8l.54.28a1.93,1.93,0,0,1-1.83,1.13,1.81,1.81,0,0,1-1.4-.59,2.14,2.14,0,0,1-.53-1.49,2.2,2.2,0,0,1,.52-1.48,2,2,0,0,1,2.81,0,2,2,0,0,1,.5,1.38Zm-3.1-.61h2.39a1.14,1.14,0,0,0-1.2-1A1.16,1.16,0,0,0,56.86,177Z"/><path class="cls-2" d="M64.28,176.73a.72.72,0,0,0-.78-.74,1.17,1.17,0,0,0-1,.54,2.45,2.45,0,0,0-.4,1.5v1.46h-.67v-4h.67v.74a1.67,1.67,0,0,1,1.49-.81A1.25,1.25,0,0,1,65,176.73Z"/><path class="cls-2" d="M66.47,176v-.59h1.9v3.44h1.49v.59H66.31v-.59H67.7V176ZM68,173.82a.55.55,0,0,1,.55.56.54.54,0,0,1-.55.54.55.55,0,0,1,0-1.1Z"/><path class="cls-2" d="M74.18,175.46h.73l-1.69,4h-.67l-1.69-4h.73l1.3,3.23Z"/><path class="cls-2" d="M79.81,177.61H76.66a1.25,1.25,0,0,0,1.24,1.33,1.39,1.39,0,0,0,1.3-.8l.54.28a1.93,1.93,0,0,1-1.83,1.13,1.81,1.81,0,0,1-1.4-.59,2.14,2.14,0,0,1-.53-1.49,2.2,2.2,0,0,1,.52-1.48,2,2,0,0,1,2.81,0,2,2,0,0,1,.5,1.38ZM76.7,177H79.1a1.14,1.14,0,0,0-1.2-1A1.16,1.16,0,0,0,76.7,177Z"/><path class="cls-2" d="M84,176v-2.14h.67v5.66H84v-.54a1.54,1.54,0,0,1-1.23.6,2.09,2.09,0,0,1,0-4.16A1.54,1.54,0,0,1,84,176Zm-2.39,1.5a1.66,1.66,0,0,0,.33,1.06,1.19,1.19,0,0,0,1.79,0,1.89,1.89,0,0,0,0-2.13,1.19,1.19,0,0,0-1.79,0A1.66,1.66,0,0,0,81.57,177.47Z"/><path class="cls-2" d="M91,173.89h2c1,0,1.59.52,1.59,1.44a1.24,1.24,0,0,1-.64,1.1,1.45,1.45,0,0,1,.92,1.4,1.57,1.57,0,0,1-1.74,1.66H91Zm.7.67v1.61H93c.54,0,.88-.28.88-.8a.77.77,0,0,0-.88-.81Zm0,2.28v2H93c.74,0,1.12-.33,1.12-1s-.38-1-1.12-1Z"/><path class="cls-2" d="M96.23,176v-.59h1.9v3.44h1.49v.59H96.07v-.59h1.39V176Zm1.52-2.22a.55.55,0,0,1,.55.56.54.54,0,0,1-.55.54.55.55,0,0,1,0-1.1Z"/><path class="cls-2" d="M100.66,177.47a2.15,2.15,0,0,1,.54-1.47,2,2,0,0,1,2.88,0,2.26,2.26,0,0,1,0,2.94,2,2,0,0,1-2.88,0A2.15,2.15,0,0,1,100.66,177.47Zm.69,0a1.6,1.6,0,0,0,.35,1,1.25,1.25,0,0,0,1.89,0,1.71,1.71,0,0,0,0-2.08,1.25,1.25,0,0,0-1.89,0A1.6,1.6,0,0,0,101.35,177.47Z"/><path class="cls-2" d="M109.82,179.48h-.67v-2.86c0-.44-.13-.62-.44-.62s-.71.52-.71,1.58v1.89h-.67v-2.86c0-.44-.13-.62-.44-.62s-.71.52-.71,1.58v1.89h-.67v-4h.67V176a1.08,1.08,0,0,1,.94-.58.8.8,0,0,1,.83.66,1.16,1.16,0,0,1,1-.66c.54,0,.88.35.88,1.09Z"/><path class="cls-2" d="M114.28,179.48h-.54l-.1-.57a1.75,1.75,0,0,1-1.42.63,1.16,1.16,0,0,1-1.25-1.22c0-.87.68-1.32,1.82-1.32h.82v-.18c0-.58-.38-.83-.93-.83a1,1,0,0,0-1,.69l-.59-.16a1.54,1.54,0,0,1,1.54-1.14,1.41,1.41,0,0,1,1.6,1.55Zm-2-.54a1.43,1.43,0,0,0,.88-.3,1.1,1.1,0,0,0,.41-.93v-.13h-.88c-.68,0-1.07.29-1.07.74A.59.59,0,0,0,112.32,178.94Z"/><path class="cls-2" d="M119,176.26l-.53.38a1.08,1.08,0,0,0-1-.64c-.38,0-.7.18-.7.54s.3.5.94.62a3.59,3.59,0,0,1,.82.24.9.9,0,0,1,.62.86,1.15,1.15,0,0,1-.45,1,1.91,1.91,0,0,1-2.85-.82l.64-.24a1.13,1.13,0,0,0,1.11.8c.49,0,.86-.22.86-.62s-.3-.43-1-.59-1.3-.46-1.3-1.17a1,1,0,0,1,.4-.85,1.49,1.49,0,0,1,1-.32A1.57,1.57,0,0,1,119,176.26Z"/><path class="cls-2" d="M123.94,176.26l-.53.38a1.08,1.08,0,0,0-1-.64c-.38,0-.7.18-.7.54s.3.5.94.62a3.59,3.59,0,0,1,.82.24.9.9,0,0,1,.62.86,1.15,1.15,0,0,1-.45,1,1.91,1.91,0,0,1-2.85-.82l.64-.24a1.13,1.13,0,0,0,1.11.8c.49,0,.86-.22.86-.62s-.3-.43-1-.59-1.3-.46-1.3-1.17a1,1,0,0,1,.4-.85,1.49,1.49,0,0,1,1-.32A1.57,1.57,0,0,1,123.94,176.26Z"/></g></svg>