<svg xmlns="http://www.w3.org/2000/svg" viewBox="0 0 164 202"><defs><style>.cls-1{fill:#efefef;}.cls-2{fill:#be64ff;}</style></defs><title>fuels-landfillgas</title><g id="bg"><rect class="cls-1" width="164" height="202"/></g><g id="Layer_1" data-name="Layer 1"><path d="M23.18,167H21.79v.83h1.29v.84H21.79v1.79h-1v-4.29h2.38Z"/><path d="M28.18,168.7a1.82,1.82,0,0,1-.48,1.36,1.72,1.72,0,0,1-1.34.49,1.71,1.71,0,0,1-1.34-.49,1.82,1.82,0,0,1-.48-1.36v-2.54h1v2.52a1,1,0,0,0,.23.72.91.91,0,0,0,1.2,0,1,1,0,0,0,.23-.72v-2.52h1Z"/><path d="M32.19,167H30.75v.83h1.37v.84H30.75v1h1.44v.84H29.76v-4.29h2.43Z"/><path d="M34.63,166.15v3.46H36v.84H33.63v-4.29Z"/><path d="M39.38,167.2a1,1,0,0,0-.72-.31.54.54,0,0,0-.42.15.38.38,0,0,0-.11.27.3.3,0,0,0,.1.24,1.73,1.73,0,0,0,.54.24l.32.12a1.72,1.72,0,0,1,.59.33,1.07,1.07,0,0,1,.32.8,1.54,1.54,0,0,1-.38,1.06,1.66,1.66,0,0,1-1.22.44,1.82,1.82,0,0,1-.85-.18,2.73,2.73,0,0,1-.63-.47l.52-.71a2.62,2.62,0,0,0,.4.33,1,1,0,0,0,.54.15.68.68,0,0,0,.45-.15.44.44,0,0,0,.15-.35.38.38,0,0,0-.15-.31,2.09,2.09,0,0,0-.5-.24L38,168.5a1.43,1.43,0,0,1-.6-.34,1.05,1.05,0,0,1-.26-.75,1.32,1.32,0,0,1,.37-1,1.38,1.38,0,0,1,1.06-.39,2.08,2.08,0,0,1,1.28.42Z"/><path class="cls-2" d="M25,180.1H21.4v-5.63h.71v5H25Z"/><path class="cls-2" d="M29.54,180.1H29l-.1-.57a1.76,1.76,0,0,1-1.43.64,1.16,1.16,0,0,1-1.25-1.23c0-.88.68-1.33,1.83-1.33h.82v-.18c0-.59-.39-.84-.93-.84a1,1,0,0,0-1,.69l-.59-.16A1.55,1.55,0,0,1,27.93,176a1.42,1.42,0,0,1,1.61,1.56Zm-2-.55a1.44,1.44,0,0,0,.88-.31,1.1,1.1,0,0,0,.41-.93v-.13H28c-.68,0-1.08.29-1.08.75A.6.6,0,0,0,27.57,179.55Z"/><path class="cls-2" d="M34.5,180.1h-.68v-2.68c0-.55-.25-.83-.75-.83a1,1,0,0,0-.84.51,2.35,2.35,0,0,0-.35,1.36v1.63h-.67V176h.67v.75a1.66,1.66,0,0,1,1.38-.81,1.14,1.14,0,0,1,1.24,1.29Z"/><path class="cls-2" d="M38.95,176.56V174.4h.68v5.69h-.68v-.54a1.54,1.54,0,0,1-1.24.6,2.11,2.11,0,0,1,0-4.18A1.55,1.55,0,0,1,38.95,176.56Zm-2.4,1.51a1.67,1.67,0,0,0,.33,1.07,1.19,1.19,0,0,0,1.8,0,1.9,1.9,0,0,0,0-2.14,1.19,1.19,0,0,0-1.8,0A1.67,1.67,0,0,0,36.54,178.07Z"/><path class="cls-2" d="M40.65,176.66V176h.74v-.21a1.36,1.36,0,0,1,1.49-1.43,1.9,1.9,0,0,1,1.42.61l-.47.44a1.25,1.25,0,0,0-1-.44.71.71,0,0,0-.8.76V176h2.39v4.05h-.68v-3.44H42.07v3.44h-.68v-3.44Z"/><path class="cls-2" d="M46.88,175.08H45.76v-.61h1.79v4.1c0,.65.28,1,.85,1s.84-.33.94-1l.61.12a1.51,1.51,0,0,1-1.55,1.47,1.44,1.44,0,0,1-1.53-1.59Z"/><path class="cls-2" d="M51.86,175.08H50.74v-.61h1.79v4.1c0,.65.28,1,.85,1s.84-.33.94-1l.61.12a1.5,1.5,0,0,1-1.55,1.47,1.44,1.44,0,0,1-1.53-1.59Z"/><path class="cls-2" d="M64.3,180.1l0-.76a1.49,1.49,0,0,1-1.42.82,2.08,2.08,0,0,1-1.62-.74,3.84,3.84,0,0,1,0-4.28,2.15,2.15,0,0,1,1.67-.74,2,2,0,0,1,2,1.71l-.67.2c-.26-.84-.65-1.24-1.35-1.24-1,0-1.59.72-1.59,2.2s.59,2.2,1.59,2.2c.76,0,1.19-.51,1.26-1.55H62.89v-.68h2v2.84Z"/><path class="cls-2" d="M69.42,180.1h-.55l-.1-.57a1.76,1.76,0,0,1-1.43.64,1.16,1.16,0,0,1-1.25-1.23c0-.88.68-1.33,1.83-1.33h.82v-.18c0-.59-.39-.84-.93-.84a1,1,0,0,0-1,.69l-.59-.16A1.55,1.55,0,0,1,67.82,176a1.42,1.42,0,0,1,1.61,1.56Zm-2-.55a1.44,1.44,0,0,0,.88-.31,1.1,1.1,0,0,0,.41-.93v-.13h-.88c-.68,0-1.08.29-1.08.75A.6.6,0,0,0,67.45,179.55Z"/><path class="cls-2" d="M74.14,176.86l-.53.38a1.08,1.08,0,0,0-1-.64c-.39,0-.7.18-.7.54s.3.5.94.63a3.61,3.61,0,0,1,.83.24.9.9,0,0,1,.63.86,1.16,1.16,0,0,1-.45,1A1.92,1.92,0,0,1,71,179l.64-.24a1.13,1.13,0,0,0,1.12.8c.49,0,.86-.22.86-.63s-.31-.43-1-.6-1.31-.46-1.31-1.17a1,1,0,0,1,.4-.85,1.5,1.5,0,0,1,1-.32A1.58,1.58,0,0,1,74.14,176.86Z"/><polygon class="cls-2" points="48 35.49 61.6 21.89 61.6 130.69 48 130.69 48 35.49"/><rect class="cls-2" x="75.2" y="21.89" width="13.6" height="108.8"/><rect class="cls-2" x="102.4" y="21.89" width="13.6" height="108.8"/><polygon class="cls-2" points="143.2 35.49 48 35.49 61.6 21.89 143.2 21.89 143.2 35.49"/><polygon points="61.6 89.89 48 76.29 48 89.89 48 103.49 61.6 89.89"/><polygon points="48 103.49 34.4 103.49 48 117.09 48 103.49"/><polygon points="61.6 103.49 48 103.49 61.6 117.09 75.2 103.49 61.6 103.49"/><polygon points="48 130.69 61.6 117.09 48 117.09 48 130.69"/><polygon points="75.2 89.89 61.6 89.89 61.6 103.49 75.2 89.89"/><polygon points="102.4 89.89 88.8 89.89 102.4 103.49 102.4 89.89"/><polygon points="88.8 117.09 102.4 103.49 88.8 103.49 88.8 117.09"/><polygon points="88.8 103.49 75.2 89.89 75.2 103.49 88.8 103.49"/><polygon points="75.2 103.49 75.2 117.09 88.8 117.09 75.2 103.49"/><polygon points="102.4 117.09 116 117.09 102.4 103.49 102.4 117.09"/><polygon points="116 103.49 116 89.89 102.4 89.89 116 103.49"/><path d="M116,62.69H48L20.8,89.89v54.4H143.2V89.89Zm13.6,40.8v13.6L116,130.69v-13.6l-13.6,13.6H88.8l-13.6-13.6v13.6l-13.6-13.6v13.6H48l-13.6-13.6v-13.6L48,89.89H34.4L48,76.29H61.6v13.6l13.6-13.6,13.6,13.6h0l13.6-13.6v13.6L116,76.29l13.6,13.6H116Z"/><polygon points="116 117.09 129.6 103.49 116 103.49 116 117.09"/><polygon points="88.8 117.09 88.8 130.69 102.4 117.09 88.8 117.09"/></g></svg>