<svg xmlns="http://www.w3.org/2000/svg" viewBox="0 0 164 202"><defs><style>.cls-1{fill:#efefef;}.cls-2{fill:#bf64ff;}.cls-3{fill:#be64ff;}</style></defs><title>fuels-h2gas</title><g id="bg"><rect class="cls-1" width="164" height="202"/></g><g id="Layer_1" data-name="Layer 1"><path class="cls-2" d="M102.43,20.93a40.8,40.8,0,0,0-40.8,40.8,40.8,40.8,0,1,0,40.8,40.8,40.8,40.8,0,1,0,0-81.6Zm-40.8,95.2a13.6,13.6,0,1,1,13.6-13.6A13.6,13.6,0,0,1,61.63,116.13Zm40.8-40.8A13.6,13.6,0,1,1,116,61.73,13.6,13.6,0,0,1,102.43,75.33Z"/><circle cx="41.23" cy="82.13" r="6.8"/><circle cx="122.83" cy="82.13" r="6.8"/><path d="M23.39,166.16H22V167h1.28v.84H22v1.8H21v-4.33h2.37Z"/><path d="M28.35,167.88a1.85,1.85,0,0,1-.47,1.37,2,2,0,0,1-2.66,0,1.85,1.85,0,0,1-.47-1.37v-2.56h1v2.54a1,1,0,0,0,.22.73.89.89,0,0,0,1.19,0,1,1,0,0,0,.22-.73v-2.54h1Z"/><path d="M32.33,166.16H30.91V167h1.36v.84H30.91v1h1.43v.84H29.92v-4.33h2.41Z"/><path d="M34.76,165.31v3.48h1.32v.84H33.77v-4.33Z"/><path class="cls-3" d="M24.26,173.68H25v5.67h-.7v-2.67H21.8v2.67h-.7v-5.67h.7V176h2.46Z"/><path class="cls-3" d="M29.37,175.27h.73L27.71,181H27l.78-1.93-1.74-3.81h.75l1.35,3Z"/><path class="cls-3" d="M34.09,175.79v-2.17h.67v5.74h-.67v-.54a1.52,1.52,0,0,1-1.23.61c-1.16,0-1.84-.83-1.84-2.11s.69-2.11,1.84-2.11A1.53,1.53,0,0,1,34.09,175.79Zm-2.39,1.52a1.69,1.69,0,0,0,.33,1.08,1.17,1.17,0,0,0,1.79,0,1.94,1.94,0,0,0,0-2.16,1.17,1.17,0,0,0-1.79,0A1.69,1.69,0,0,0,31.71,177.31Z"/><path class="cls-3" d="M39.2,176.57a.73.73,0,0,0-.77-.75,1.17,1.17,0,0,0-1,.54,2.51,2.51,0,0,0-.4,1.52v1.47h-.67v-4.08h.67V176a1.66,1.66,0,0,1,1.48-.82,1.26,1.26,0,0,1,1.32,1.36Z"/><path class="cls-3" d="M40.86,177.31a2.2,2.2,0,0,1,.54-1.49,2,2,0,0,1,2.87,0,2.32,2.32,0,0,1,0,3,2,2,0,0,1-2.87,0A2.2,2.2,0,0,1,40.86,177.31Zm.69,0a1.64,1.64,0,0,0,.35,1.05,1.23,1.23,0,0,0,1.88,0,1.76,1.76,0,0,0,0-2.11,1.23,1.23,0,0,0-1.88,0A1.64,1.64,0,0,0,41.54,177.31Z"/><path class="cls-3" d="M46.85,175.58a1.45,1.45,0,0,1,1-.37,1.56,1.56,0,0,1,.79.21l.84-.44.3.56-.68.36a1.35,1.35,0,0,1,.17.68,1.31,1.31,0,0,1-.4,1,1.42,1.42,0,0,1-1,.37,1.57,1.57,0,0,1-.74-.17c-.25.1-.37.23-.37.42s.19.34.57.34h1c.86,0,1.35.39,1.35,1.13a1.17,1.17,0,0,1-.55,1.06,2.42,2.42,0,0,1-1.33.35c-1.17,0-1.86-.47-1.86-1.35a1.05,1.05,0,0,1,.42-.87.75.75,0,0,1-.29-.62.86.86,0,0,1,.59-.82,1.35,1.35,0,0,1-.25-.83A1.32,1.32,0,0,1,46.85,175.58Zm.56,3.54a2,2,0,0,1-.42,0,.63.63,0,0,0-.34.62c0,.48.46.77,1.19.77s1.2-.28,1.2-.75-.22-.61-.68-.61Zm-.3-2.54a.77.77,0,0,0,.22.58.79.79,0,0,0,.55.21.75.75,0,0,0,.54-.2.75.75,0,0,0,.22-.58.73.73,0,0,0-.22-.58.76.76,0,0,0-.54-.21.79.79,0,0,0-.55.21A.76.76,0,0,0,47.1,176.58Z"/><path class="cls-3" d="M54.7,177.46H51.56a1.26,1.26,0,0,0,1.24,1.35,1.38,1.38,0,0,0,1.29-.81l.54.28a1.93,1.93,0,0,1-1.83,1.14,1.8,1.8,0,0,1-1.4-.6,2.19,2.19,0,0,1-.53-1.51,2.25,2.25,0,0,1,.52-1.5,2,2,0,0,1,2.81,0,2,2,0,0,1,.5,1.4Zm-3.1-.62H54a1.14,1.14,0,0,0-1.2-1A1.16,1.16,0,0,0,51.61,176.84Z"/><path class="cls-3" d="M59.38,179.36h-.67v-2.7c0-.56-.25-.83-.74-.83a1,1,0,0,0-.84.52,2.39,2.39,0,0,0-.34,1.37v1.65h-.67v-4.08h.67V176a1.64,1.64,0,0,1,1.36-.82,1.14,1.14,0,0,1,1.23,1.3Z"/><path class="cls-3" d="M69.17,179.36l0-.76a1.48,1.48,0,0,1-1.4.83,2.05,2.05,0,0,1-1.61-.75,3.92,3.92,0,0,1,0-4.31,2.13,2.13,0,0,1,1.66-.75,2,2,0,0,1,2,1.73l-.66.2c-.25-.84-.65-1.25-1.34-1.25-1,0-1.58.72-1.58,2.22s.59,2.22,1.58,2.22c.76,0,1.18-.52,1.25-1.56H67.78v-.68h2v2.86Z"/><path class="cls-3" d="M74.26,179.36h-.54l-.1-.58a1.74,1.74,0,0,1-1.42.64A1.16,1.16,0,0,1,71,178.18c0-.88.68-1.34,1.82-1.34h.81v-.18c0-.59-.38-.84-.93-.84a1,1,0,0,0-1,.7l-.59-.16a1.54,1.54,0,0,1,1.54-1.15,1.42,1.42,0,0,1,1.6,1.57Zm-2-.55a1.42,1.42,0,0,0,.88-.31,1.12,1.12,0,0,0,.41-.94v-.13h-.88c-.68,0-1.07.29-1.07.75A.6.6,0,0,0,72.3,178.81Z"/><path class="cls-3" d="M78.95,176.09l-.53.38a1.07,1.07,0,0,0-1-.65c-.38,0-.69.18-.69.54s.3.5.93.63a3.54,3.54,0,0,1,.82.24.91.91,0,0,1,.62.87,1.17,1.17,0,0,1-.45,1,1.71,1.71,0,0,1-1.1.35,1.74,1.74,0,0,1-1.75-1.18l.64-.24a1.13,1.13,0,0,0,1.11.81c.49,0,.85-.22.85-.63s-.3-.44-1-.6-1.3-.46-1.3-1.18a1.06,1.06,0,0,1,.4-.86,1.48,1.48,0,0,1,1-.32A1.56,1.56,0,0,1,78.95,176.09Z"/></g></svg>