<svg xmlns="http://www.w3.org/2000/svg" viewBox="0 0 164 202"><defs><style>.cls-1{fill:#efefef;}.cls-2{fill:#bf64ff;}.cls-3{fill:#be64ff;}</style></defs><title>fuels-h2gas</title><g id="bg"><rect class="cls-1" width="164" height="202"/></g><g id="Layer_1" data-name="Layer 1"><path class="cls-2" d="M102.43,20.93a40.8,40.8,0,0,0-40.8,40.8,40.8,40.8,0,1,0,40.8,40.8,40.8,40.8,0,1,0,0-81.6Zm-40.8,95.2a13.6,13.6,0,1,1,13.6-13.6A13.6,13.6,0,0,1,61.63,116.13Zm40.8-40.8A13.6,13.6,0,1,1,116,61.73,13.6,13.6,0,0,1,102.43,75.33Z"/><circle cx="41.23" cy="82.13" r="6.8"/><circle cx="122.83" cy="82.13" r="6.8"/><path d="M23.41,166.25H22v.83H23.3v.84H22v1.79H21v-4.29h2.38Z"/><path d="M28.41,168a1.82,1.82,0,0,1-.48,1.36,1.72,1.72,0,0,1-1.34.49,1.71,1.71,0,0,1-1.34-.49,1.82,1.82,0,0,1-.48-1.36v-2.54h1v2.52a1,1,0,0,0,.23.72.91.91,0,0,0,1.2,0,1,1,0,0,0,.23-.72v-2.52h1Z"/><path d="M32.41,166.25H31v.83h1.37v.84H31v1h1.44v.84H30v-4.29h2.43Z"/><path d="M34.85,165.41v3.46h1.33v.84H33.86v-4.29Z"/><path d="M39.6,166.46a1,1,0,0,0-.72-.31.54.54,0,0,0-.42.15.38.38,0,0,0-.11.27.3.3,0,0,0,.1.24,1.73,1.73,0,0,0,.54.24l.32.12a1.72,1.72,0,0,1,.59.33,1.07,1.07,0,0,1,.32.8,1.54,1.54,0,0,1-.38,1.06,1.66,1.66,0,0,1-1.22.44,1.82,1.82,0,0,1-.85-.18,2.73,2.73,0,0,1-.63-.47l.52-.71a2.62,2.62,0,0,0,.4.33,1,1,0,0,0,.54.15.68.68,0,0,0,.45-.15.44.44,0,0,0,.15-.35.38.38,0,0,0-.15-.31,2.09,2.09,0,0,0-.5-.24l-.35-.12a1.43,1.43,0,0,1-.6-.34,1.05,1.05,0,0,1-.26-.75,1.32,1.32,0,0,1,.37-1,1.38,1.38,0,0,1,1.06-.39,2.08,2.08,0,0,1,1.28.42Z"/><path class="cls-3" d="M24.29,173.73H25v5.63h-.71V176.7H21.81v2.65H21.1v-5.63h.71V176h2.48Z"/><path class="cls-3" d="M29.43,175.3h.73L27.76,181h-.67l.79-1.91-1.75-3.78h.76l1.36,3Z"/><path class="cls-3" d="M34.18,175.82v-2.16h.68v5.69h-.68v-.54a1.55,1.55,0,0,1-1.24.6,2.11,2.11,0,0,1,0-4.18A1.55,1.55,0,0,1,34.18,175.82Zm-2.4,1.51a1.67,1.67,0,0,0,.33,1.07,1.19,1.19,0,0,0,1.8,0,1.9,1.9,0,0,0,0-2.14,1.19,1.19,0,0,0-1.8,0A1.66,1.66,0,0,0,31.78,177.33Z"/><path class="cls-3" d="M39.33,176.59a.73.73,0,0,0-.78-.74,1.18,1.18,0,0,0-1,.54,2.46,2.46,0,0,0-.4,1.5v1.46H36.5V175.3h.67v.75a1.68,1.68,0,0,1,1.5-.81A1.26,1.26,0,0,1,40,176.59Z"/><path class="cls-3" d="M41,177.33a2.16,2.16,0,0,1,.55-1.48,2,2,0,0,1,2.89,0,2.27,2.27,0,0,1,0,3,2,2,0,0,1-2.89,0A2.16,2.16,0,0,1,41,177.33Zm.69,0a1.61,1.61,0,0,0,.35,1,1.25,1.25,0,0,0,1.9,0,1.72,1.72,0,0,0,0-2.09,1.25,1.25,0,0,0-1.9,0A1.61,1.61,0,0,0,41.69,177.33Z"/><path class="cls-3" d="M47,175.61a1.47,1.47,0,0,1,1-.37,1.59,1.59,0,0,1,.8.21l.84-.43.3.55-.68.35a1.32,1.32,0,0,1,.17.68,1.3,1.3,0,0,1-.4,1,1.45,1.45,0,0,1-1,.37,1.61,1.61,0,0,1-.75-.17c-.25.1-.37.23-.37.42s.19.34.57.34h1.05c.87,0,1.36.39,1.36,1.12a1.16,1.16,0,0,1-.55,1.05,2.47,2.47,0,0,1-1.34.35c-1.18,0-1.87-.47-1.87-1.33a1,1,0,0,1,.42-.87.74.74,0,0,1-.29-.62.85.85,0,0,1,.59-.81,1.34,1.34,0,0,1-.25-.83A1.29,1.29,0,0,1,47,175.61Zm.56,3.51a2.07,2.07,0,0,1-.42,0,.63.63,0,0,0-.35.61c0,.47.47.76,1.2.76s1.21-.28,1.21-.74-.23-.6-.68-.6Zm-.31-2.52a.75.75,0,0,0,.22.57.8.8,0,0,0,.55.21.77.77,0,0,0,.55-.2.74.74,0,0,0,.22-.58.72.72,0,0,0-.22-.57.77.77,0,0,0-.55-.21.8.8,0,0,0-.55.21A.75.75,0,0,0,47.28,176.6Z"/><path class="cls-3" d="M54.94,177.47H51.77A1.26,1.26,0,0,0,53,178.81a1.39,1.39,0,0,0,1.3-.8l.54.28A1.94,1.94,0,0,1,53,179.42a1.82,1.82,0,0,1-1.41-.6,2.15,2.15,0,0,1-.53-1.5,2.21,2.21,0,0,1,.52-1.49,2,2,0,0,1,2.83,0,2,2,0,0,1,.51,1.39Zm-3.12-.61h2.4a1.15,1.15,0,0,0-1.21-1A1.17,1.17,0,0,0,51.82,176.86Z"/><path class="cls-3" d="M59.65,179.36H59v-2.68c0-.55-.25-.83-.75-.83a1,1,0,0,0-.84.51,2.35,2.35,0,0,0-.35,1.36v1.63h-.68V175.3H57v.75a1.66,1.66,0,0,1,1.38-.81,1.14,1.14,0,0,1,1.24,1.29Z"/><path class="cls-3" d="M69.51,179.36l0-.76a1.49,1.49,0,0,1-1.42.82,2.08,2.08,0,0,1-1.62-.74,3.84,3.84,0,0,1,0-4.28,2.16,2.16,0,0,1,1.67-.74,2,2,0,0,1,2,1.71l-.67.2c-.26-.84-.65-1.24-1.35-1.24-1,0-1.59.72-1.59,2.2s.6,2.2,1.59,2.2c.76,0,1.19-.51,1.26-1.55H68.1v-.68h2v2.84Z"/><path class="cls-3" d="M74.63,179.36h-.55l-.1-.57a1.77,1.77,0,0,1-1.43.64,1.16,1.16,0,0,1-1.25-1.23c0-.88.68-1.33,1.83-1.33H74v-.18c0-.59-.39-.84-.93-.84a1,1,0,0,0-1,.69l-.6-.16A1.55,1.55,0,0,1,73,175.24a1.42,1.42,0,0,1,1.61,1.56Zm-2-.55a1.44,1.44,0,0,0,.88-.31,1.1,1.1,0,0,0,.41-.93v-.13h-.88c-.68,0-1.08.29-1.08.75A.6.6,0,0,0,72.66,178.81Z"/><path class="cls-3" d="M79.35,176.12l-.53.38a1.08,1.08,0,0,0-1-.64c-.39,0-.7.18-.7.54s.3.5.94.63a3.59,3.59,0,0,1,.83.24.91.91,0,0,1,.63.86,1.16,1.16,0,0,1-.45,1,1.92,1.92,0,0,1-2.87-.83l.64-.24a1.13,1.13,0,0,0,1.12.8c.49,0,.86-.22.86-.63s-.31-.43-1-.6-1.31-.46-1.31-1.17a1,1,0,0,1,.4-.85,1.5,1.5,0,0,1,1-.32A1.57,1.57,0,0,1,79.35,176.12Z"/></g></svg>