<svg id="Layer_1" data-name="Layer 1" xmlns="http://www.w3.org/2000/svg" viewBox="0 0 164 210"><defs><style>.cls-1{fill:#be64ff;}</style></defs><title>geothermal-egsgrid</title><path d="M11.15,189.06h2.65v.06a3.47,3.47,0,0,1-.82,2.25,2.45,2.45,0,0,1-1.9.73,2.51,2.51,0,0,1-2-.74,3,3,0,0,1,0-4.05,2.74,2.74,0,0,1,2.09-.78,2.69,2.69,0,0,1,1.5.4,2.94,2.94,0,0,1,.86,1l-1.11.6a1.61,1.61,0,0,0-.47-.58,1.33,1.33,0,0,0-.82-.26,1.44,1.44,0,0,0-1.1.43,1.83,1.83,0,0,0-.46,1.26,1.68,1.68,0,0,0,.45,1.22,1.4,1.4,0,0,0,1.08.42,1.37,1.37,0,0,0,.93-.29,1.24,1.24,0,0,0,.38-.63H11.15Z"/><path d="M18.53,187.68H16.75v1h1.69v1H16.75v1.18h1.78v1h-3v-5.33h3Z"/><path d="M25.06,187.29a2.84,2.84,0,0,1,0,4,2.85,2.85,0,0,1-2.06.78,2.94,2.94,0,0,1-2.08-.78,2.72,2.72,0,0,1-.83-2,3,3,0,0,1,.82-2,3.15,3.15,0,0,1,4.15,0Zm-3.24.82a1.63,1.63,0,0,0-.47,1.21,1.59,1.59,0,0,0,.49,1.2A1.57,1.57,0,0,0,23,191a1.61,1.61,0,0,0,1.18-.46,1.6,1.6,0,0,0,.46-1.19,1.68,1.68,0,0,0-.46-1.2,1.71,1.71,0,0,0-1.17-.46A1.63,1.63,0,0,0,21.82,188.11Z"/><path d="M29.32,187.68V192H28.09v-4.29H26.93v-1h3.55v1Z"/><path d="M33.16,188.67h2.13v-2h1.23V192H35.29v-2.26H33.16V192H31.93v-5.33h1.23Z"/><path d="M41.51,187.68H39.72v1h1.69v1H39.72v1.18h1.78v1h-3v-5.33h3Z"/><path d="M45.18,186.64a1.91,1.91,0,0,1,1.36.46,1.6,1.6,0,0,1,.46,1.19,1.46,1.46,0,0,1-.42,1.09,1.68,1.68,0,0,1-.74.41L47.48,192H46l-1.44-2.1V192H43.31v-5.33Zm-.64,2.42h.28a1,1,0,0,0,.74-.23.72.72,0,0,0,.2-.52.64.64,0,0,0-.25-.54,1.2,1.2,0,0,0-.68-.17h-.29Z"/><path d="M48.71,192l.86-5.33h1l1.33,3.19,1.33-3.19h1l.86,5.33H53.9l-.42-3.18L52.14,192h-.43l-1.33-3.18L49.95,192Z"/><path d="M60,191H58l-.41,1H56.28l2.15-5.33h1.13l2.1,5.33H60.39Zm-.34-.94L59,188.23,58.33,190Z"/><path d="M64.3,186.64v4.29H66v1H63.07v-5.33Z"/><path class="cls-1" d="M12.59,198.78a1.51,1.51,0,0,0-1.42-1c-.77,0-1.26.4-1.26,1.08a.8.8,0,0,0,.38.74,5.34,5.34,0,0,0,1.24.45,4.41,4.41,0,0,1,1.15.41,1.45,1.45,0,0,1,.84,1.41,2.07,2.07,0,0,1-2.32,2.23A2.47,2.47,0,0,1,8.59,202l.82-.32a1.77,1.77,0,0,0,1.79,1.56c.88,0,1.44-.44,1.44-1.27a.9.9,0,0,0-.25-.64,1,1,0,0,0-.34-.19,5.24,5.24,0,0,0-1-.31,4.54,4.54,0,0,1-1.13-.39A1.62,1.62,0,0,1,9,198.84a1.85,1.85,0,0,1,.57-1.4,2.14,2.14,0,0,1,1.57-.55,2.24,2.24,0,0,1,2.19,1.5Z"/><path class="cls-1" d="M14.86,199.69v-.76H16.2v-1.51l.84-.53v2H19.5v.76H17v2.58q0,1,.87,1a1.69,1.69,0,0,0,1.24-.6l.31.71a2.12,2.12,0,0,1-1.55.65,1.54,1.54,0,0,1-1.71-1.75v-2.61Z"/><path class="cls-1" d="M26,201.63H22a1.57,1.57,0,0,0,1.55,1.66,1.73,1.73,0,0,0,1.62-1l.67.35a2.42,2.42,0,0,1-2.29,1.41,2.27,2.27,0,0,1-1.75-.74,2.68,2.68,0,0,1-.66-1.86,2.75,2.75,0,0,1,.65-1.85,2.5,2.5,0,0,1,3.52,0,2.48,2.48,0,0,1,.63,1.73Zm-3.88-.76h3a1.43,1.43,0,0,0-1.5-1.26A1.45,1.45,0,0,0,22.08,200.87Z"/><path class="cls-1" d="M31.85,204h-.68l-.12-.71a2.19,2.19,0,0,1-1.78.79,1.45,1.45,0,0,1-1.56-1.53c0-1.09.85-1.65,2.28-1.65h1v-.22c0-.73-.48-1-1.16-1a1.22,1.22,0,0,0-1.19.86l-.74-.2a1.92,1.92,0,0,1,1.93-1.42,1.76,1.76,0,0,1,2,1.94Zm-2.45-.68a1.79,1.79,0,0,0,1.1-.38,1.37,1.37,0,0,0,.51-1.16v-.16h-1.1c-.85,0-1.34.36-1.34.93A.74.74,0,0,0,29.4,203.29Z"/><path class="cls-1" d="M38.68,204h-.84v-3.58c0-.55-.16-.77-.55-.77s-.89.65-.89,2V204h-.84v-3.58c0-.55-.16-.77-.55-.77s-.89.65-.89,2V204h-.84v-5h.84v.64a1.34,1.34,0,0,1,1.18-.72,1,1,0,0,1,1,.82,1.45,1.45,0,0,1,1.24-.82c.67,0,1.1.44,1.1,1.36Z"/><path class="cls-1" d="M47.07,201v3h-.88v-7h2.65a2,2,0,1,1,0,4Zm1.75-.84a1.16,1.16,0,1,0,0-2.32H47.07v2.32Z"/><path class="cls-1" d="M52,201.45a2.68,2.68,0,0,1,.68-1.84,2.51,2.51,0,0,1,3.6,0,2.83,2.83,0,0,1,0,3.68,2.51,2.51,0,0,1-3.6,0A2.68,2.68,0,0,1,52,201.45Zm.86,0a2,2,0,0,0,.44,1.3,1.56,1.56,0,0,0,2.36,0,2.14,2.14,0,0,0,0-2.6,1.56,1.56,0,0,0-2.36,0A2,2,0,0,0,52.88,201.45Z"/><path class="cls-1" d="M62.67,198.93h.86l-1.1,5h-.76l-1-3.54-1,3.54H59l-1.1-5h.86l.69,3.73.86-3.23h.84l.86,3.23Z"/><path class="cls-1" d="M69.36,201.63H65.42A1.57,1.57,0,0,0,67,203.29a1.73,1.73,0,0,0,1.62-1l.67.35A2.42,2.42,0,0,1,67,204.05a2.27,2.27,0,0,1-1.75-.74,2.68,2.68,0,0,1-.66-1.86,2.75,2.75,0,0,1,.65-1.85,2.5,2.5,0,0,1,3.52,0,2.48,2.48,0,0,1,.63,1.73Zm-3.88-.76h3a1.43,1.43,0,0,0-1.5-1.26A1.45,1.45,0,0,0,65.48,200.87Z"/><path class="cls-1" d="M74.75,200.53a.9.9,0,0,0-1-.92,1.47,1.47,0,0,0-1.21.67,3.06,3.06,0,0,0-.5,1.87V204h-.84v-5h.84v.93a2.08,2.08,0,0,1,1.86-1,1.56,1.56,0,0,1,1.66,1.68Z"/><path class="cls-1" d="M84.27,201v3h-.88v-7H86a2,2,0,1,1,0,4Zm1.75-.84a1.16,1.16,0,1,0,0-2.32H84.27v2.32Z"/><path class="cls-1" d="M90.61,197.73H89.22V197h2.23v5.1c0,.81.35,1.22,1.06,1.22s1-.41,1.17-1.22l.76.15a1.87,1.87,0,0,1-1.93,1.83,1.79,1.79,0,0,1-1.9-2Z"/><path class="cls-1" d="M100,204h-.68l-.12-.71a2.19,2.19,0,0,1-1.78.79,1.45,1.45,0,0,1-1.56-1.53c0-1.09.85-1.65,2.28-1.65h1v-.22c0-.73-.48-1-1.16-1a1.22,1.22,0,0,0-1.19.86l-.74-.2A1.92,1.92,0,0,1,98,198.85a1.76,1.76,0,0,1,2,1.94Zm-2.45-.68a1.79,1.79,0,0,0,1.1-.38,1.37,1.37,0,0,0,.51-1.16v-.16h-1.1c-.85,0-1.34.36-1.34.93A.74.74,0,0,0,97.6,203.29Z"/><path class="cls-1" d="M106.22,204h-.84v-3.33c0-.69-.31-1-.93-1a1.25,1.25,0,0,0-1,.64,2.92,2.92,0,0,0-.43,1.69v2h-.84v-5H103v.93a2.06,2.06,0,0,1,1.71-1,1.42,1.42,0,0,1,1.54,1.61Z"/><path class="cls-1" d="M107.86,199.69v-.76h1.34v-1.51l.84-.53v2h2.46v.76H110v2.58q0,1,.87,1a1.69,1.69,0,0,0,1.24-.6l.31.71a2.12,2.12,0,0,1-1.55.65,1.54,1.54,0,0,1-1.71-1.75v-2.61Z"/><rect class="cls-1" x="107.5" y="56.42" width="17" height="102"/><polygon class="cls-1" points="107.5 158.42 73.5 158.42 90.5 141.42 107.5 141.42 107.5 158.42"/><polygon class="cls-1" points="56.5 141.42 39.5 158.42 39.5 141.42 56.5 124.42 56.5 141.42"/><polygon class="cls-1" points="56.5 107.42 39.5 124.42 39.5 107.42 56.5 90.42 56.5 107.42"/><polygon class="cls-1" points="39.5 90.42 39.5 73.42 56.5 73.42 39.5 90.42"/><rect class="cls-1" x="5.5" y="141.42" width="153" height="17"/><circle class="cls-1" cx="48" cy="13.92" r="8.5"/><circle class="cls-1" cx="48" cy="30.92" r="8.5"/><circle class="cls-1" cx="48" cy="47.92" r="8.5"/><circle class="cls-1" cx="65" cy="13.92" r="8.5"/><circle class="cls-1" cx="65" cy="30.92" r="8.5"/><circle class="cls-1" cx="65" cy="47.92" r="8.5"/><polygon points="124.5 56.42 124.5 39.42 73.5 39.42 73.5 56.42 56.5 39.42 56.5 56.42 39.5 39.42 39.5 56.42 5.5 56.42 5.5 73.42 158.5 73.42 158.5 56.42 124.5 56.42"/></svg>