<svg xmlns="http://www.w3.org/2000/svg" viewBox="0 0 164 202"><defs><style>.cls-1{fill:#efefef;}.cls-2{fill:#be64ff;}</style></defs><title>geothermal-egs</title><g id="bg"><rect class="cls-1" width="164" height="202"/></g><g id="Layer_1" data-name="Layer 1"><path d="M25.32,168.2h2.12v0a2.78,2.78,0,0,1-.66,1.8,2,2,0,0,1-1.52.58,2,2,0,0,1-1.56-.59,2.43,2.43,0,0,1,0-3.24,2.19,2.19,0,0,1,1.68-.62,2.15,2.15,0,0,1,1.2.32,2.36,2.36,0,0,1,.69.76l-.89.48a1.29,1.29,0,0,0-.38-.46,1.07,1.07,0,0,0-.65-.2,1.15,1.15,0,0,0-.88.35,1.46,1.46,0,0,0-.36,1,1.34,1.34,0,0,0,.36,1,1.12,1.12,0,0,0,.86.33,1.1,1.1,0,0,0,.74-.23,1,1,0,0,0,.31-.51h-1Z"/><path d="M31.23,167.09H29.8v.82h1.36v.83H29.8v.95h1.43v.83H28.81v-4.27h2.41Z"/><path d="M36.45,166.78a2.27,2.27,0,0,1,0,3.21,2.28,2.28,0,0,1-1.65.63,2.35,2.35,0,0,1-1.66-.63,2.18,2.18,0,0,1-.66-1.59,2.38,2.38,0,0,1,.66-1.62,2.52,2.52,0,0,1,3.32,0Zm-2.59.65a1.31,1.31,0,0,0-.38,1,1.27,1.27,0,0,0,.39,1,1.26,1.26,0,0,0,.91.35,1.29,1.29,0,0,0,.95-.36,1.28,1.28,0,0,0,.37-1,1.34,1.34,0,0,0-.37-1,1.37,1.37,0,0,0-.94-.36A1.31,1.31,0,0,0,33.86,167.43Z"/><path d="M39.86,167.09v3.43h-1v-3.43h-.93v-.83h2.84v.83Z"/><path d="M42.93,167.88h1.7v-1.62h1v4.27h-1v-1.81h-1.7v1.81h-1v-4.27h1Z"/><path d="M49.6,167.09H48.18v.82h1.36v.83H48.18v.95H49.6v.83H47.19v-4.27H49.6Z"/><path d="M52.54,166.26a1.52,1.52,0,0,1,1.09.37,1.28,1.28,0,0,1,.37,1,1.17,1.17,0,0,1-.33.87,1.35,1.35,0,0,1-.6.33l1.31,1.75h-1.2L52,168.84v1.68H51v-4.27ZM52,168.2h.22a.81.81,0,0,0,.59-.19.58.58,0,0,0,.16-.42.52.52,0,0,0-.2-.43,1,1,0,0,0-.54-.13H52Z"/><path d="M55.37,170.52l.68-4.27h.82l1.06,2.55L59,166.26h.82l.68,4.27h-1L59.18,168l-1.07,2.55h-.35L56.7,168l-.34,2.55Z"/><path d="M64.39,169.72H62.78l-.33.81h-1l1.72-4.27H64l1.68,4.27h-1Zm-.27-.76-.52-1.43L63.06,169Z"/><path d="M67.84,166.26v3.43h1.32v.83H66.85v-4.27Z"/><path class="cls-2" d="M26.47,176a1.21,1.21,0,0,0-1.14-.84c-.62,0-1,.32-1,.86a.64.64,0,0,0,.3.59,4.27,4.27,0,0,0,1,.36,3.53,3.53,0,0,1,.92.33,1.16,1.16,0,0,1,.67,1.13,1.66,1.66,0,0,1-1.85,1.78,2,2,0,0,1-2.09-1.66l.66-.26a1.42,1.42,0,0,0,1.43,1.25c.7,0,1.15-.35,1.15-1a.72.72,0,0,0-.2-.51.76.76,0,0,0-.27-.15,4.19,4.19,0,0,0-.8-.25,3.63,3.63,0,0,1-.9-.31,1.3,1.3,0,0,1-.71-1.26,1.48,1.48,0,0,1,.46-1.12,1.72,1.72,0,0,1,1.25-.44,1.79,1.79,0,0,1,1.75,1.2Z"/><path class="cls-2" d="M28.29,176.7v-.61h1.07v-1.21l.67-.42v1.63h2v.61H30v2.06q0,.82.7.82a1.35,1.35,0,0,0,1-.48l.25.57a1.7,1.7,0,0,1-1.24.52,1.23,1.23,0,0,1-1.37-1.4V176.7Z"/><path class="cls-2" d="M37.16,178.25H34a1.25,1.25,0,0,0,1.24,1.33,1.39,1.39,0,0,0,1.3-.8l.54.28a1.93,1.93,0,0,1-1.83,1.13,1.81,1.81,0,0,1-1.4-.59,2.14,2.14,0,0,1-.53-1.49,2.2,2.2,0,0,1,.52-1.48,2,2,0,0,1,2.81,0,2,2,0,0,1,.5,1.38Zm-3.1-.61h2.39a1.14,1.14,0,0,0-1.2-1A1.16,1.16,0,0,0,34.06,177.65Z"/><path class="cls-2" d="M41.88,180.12h-.54l-.1-.57a1.75,1.75,0,0,1-1.42.63A1.16,1.16,0,0,1,38.57,179c0-.87.68-1.32,1.82-1.32h.82v-.18c0-.58-.38-.83-.93-.83a1,1,0,0,0-1,.69l-.59-.16A1.54,1.54,0,0,1,40.28,176a1.41,1.41,0,0,1,1.6,1.55Zm-2-.54a1.43,1.43,0,0,0,.88-.3,1.1,1.1,0,0,0,.41-.93v-.13h-.88c-.68,0-1.07.29-1.07.74A.59.59,0,0,0,39.92,179.58Z"/><path class="cls-2" d="M47.34,180.12h-.67v-2.86c0-.44-.13-.62-.44-.62s-.71.52-.71,1.58v1.89h-.67v-2.86c0-.44-.13-.62-.44-.62s-.71.52-.71,1.58v1.89H43v-4h.67v.51a1.08,1.08,0,0,1,.94-.58.8.8,0,0,1,.83.66,1.16,1.16,0,0,1,1-.66c.54,0,.88.35.88,1.09Z"/><path class="cls-2" d="M54.05,177.73v2.4h-.7v-5.6h2.12a1.6,1.6,0,1,1,0,3.2Zm1.4-.67a.93.93,0,1,0,0-1.86h-1.4v1.86Z"/><path class="cls-2" d="M58,178.11a2.15,2.15,0,0,1,.54-1.47,2,2,0,0,1,2.88,0,2.26,2.26,0,0,1,0,2.94,2,2,0,0,1-2.88,0A2.15,2.15,0,0,1,58,178.11Zm.69,0a1.6,1.6,0,0,0,.35,1,1.25,1.25,0,0,0,1.89,0,1.71,1.71,0,0,0,0-2.08,1.25,1.25,0,0,0-1.89,0A1.6,1.6,0,0,0,58.7,178.11Z"/><path class="cls-2" d="M66.53,176.09h.69l-.88,4h-.61L65,177.29l-.78,2.83h-.61l-.88-4h.69l.55,3,.69-2.58h.67l.69,2.58Z"/><path class="cls-2" d="M71.89,178.25H68.74A1.25,1.25,0,0,0,70,179.58a1.39,1.39,0,0,0,1.3-.8l.54.28A1.93,1.93,0,0,1,70,180.19a1.81,1.81,0,0,1-1.4-.59,2.14,2.14,0,0,1-.53-1.49,2.2,2.2,0,0,1,.52-1.48,2,2,0,0,1,2.81,0,2,2,0,0,1,.5,1.38Zm-3.1-.61h2.39a1.14,1.14,0,0,0-1.2-1A1.16,1.16,0,0,0,68.78,177.65Z"/><path class="cls-2" d="M76.2,177.37a.72.72,0,0,0-.77-.74,1.17,1.17,0,0,0-1,.54,2.45,2.45,0,0,0-.4,1.5v1.46h-.67v-4h.67v.74a1.67,1.67,0,0,1,1.49-.81,1.25,1.25,0,0,1,1.33,1.34Z"/><path class="cls-2" d="M83.82,177.73v2.4h-.7v-5.6h2.12a1.6,1.6,0,1,1,0,3.2Zm1.4-.67a.93.93,0,1,0,0-1.86h-1.4v1.86Z"/><path class="cls-2" d="M88.89,175.14H87.78v-.61h1.78v4.08c0,.65.28,1,.85,1s.83-.33.94-1l.61.12a1.5,1.5,0,0,1-1.54,1.46,1.43,1.43,0,0,1-1.52-1.58Z"/><path class="cls-2" d="M96.44,180.12h-.54l-.1-.57a1.75,1.75,0,0,1-1.42.63A1.16,1.16,0,0,1,93.13,179c0-.87.68-1.32,1.82-1.32h.82v-.18c0-.58-.38-.83-.93-.83a1,1,0,0,0-1,.69l-.59-.16A1.54,1.54,0,0,1,94.84,176a1.41,1.41,0,0,1,1.6,1.55Zm-2-.54a1.43,1.43,0,0,0,.88-.3,1.1,1.1,0,0,0,.41-.93v-.13h-.88c-.68,0-1.07.29-1.07.74A.59.59,0,0,0,94.48,179.58Z"/><path class="cls-2" d="M101.37,180.12h-.67v-2.66c0-.55-.25-.82-.74-.82a1,1,0,0,0-.84.51,2.33,2.33,0,0,0-.34,1.35v1.62H98.1v-4h.67v.74a1.65,1.65,0,0,1,1.37-.81,1.14,1.14,0,0,1,1.23,1.29Z"/><path class="cls-2" d="M102.69,176.7v-.61h1.07v-1.21l.67-.42v1.63h2v.61h-2v2.06q0,.82.7.82a1.35,1.35,0,0,0,1-.48l.25.57a1.7,1.7,0,0,1-1.24.52,1.23,1.23,0,0,1-1.37-1.4V176.7Z"/><rect class="cls-2" x="102.4" y="62.08" width="13.6" height="81.6"/><polygon class="cls-2" points="102.4 143.68 75.2 143.68 88.8 130.08 102.4 130.08 102.4 143.68"/><polygon class="cls-2" points="61.6 130.08 48 143.68 48 130.08 61.6 116.48 61.6 130.08"/><polygon class="cls-2" points="61.6 102.88 48 116.48 48 102.88 61.6 89.28 61.6 102.88"/><polygon class="cls-2" points="48 89.28 48 75.68 61.6 75.68 48 89.28"/><rect class="cls-2" x="20.8" y="130.08" width="122.4" height="13.6"/><circle class="cls-2" cx="54.8" cy="28.08" r="6.8"/><circle class="cls-2" cx="54.8" cy="41.68" r="6.8"/><circle class="cls-2" cx="54.8" cy="55.28" r="6.8"/><circle class="cls-2" cx="68.4" cy="28.08" r="6.8"/><circle class="cls-2" cx="68.4" cy="41.68" r="6.8"/><circle class="cls-2" cx="68.4" cy="55.28" r="6.8"/><polygon points="116 62.08 116 48.48 75.2 48.48 75.2 62.08 61.6 48.48 61.6 62.08 48 48.48 48 62.08 20.8 62.08 20.8 75.68 143.2 75.68 143.2 62.08 116 62.08"/></g></svg>