<svg id="Layer_1" data-name="Layer 1" xmlns="http://www.w3.org/2000/svg" viewBox="0 0 164 210"><defs><style>.cls-1{fill:#bf64ff;}</style></defs><title>geothermal-egspv</title><path d="M8.65,188.94h2.65V189a3.47,3.47,0,0,1-.82,2.25,2.45,2.45,0,0,1-1.9.73,2.51,2.51,0,0,1-2-.74,3,3,0,0,1,0-4.05,2.74,2.74,0,0,1,2.09-.78,2.69,2.69,0,0,1,1.5.4,2.94,2.94,0,0,1,.86,1l-1.11.6a1.61,1.61,0,0,0-.47-.58,1.33,1.33,0,0,0-.82-.26,1.44,1.44,0,0,0-1.1.43,1.83,1.83,0,0,0-.46,1.26,1.68,1.68,0,0,0,.45,1.22,1.4,1.4,0,0,0,1.08.42,1.37,1.37,0,0,0,.93-.29,1.24,1.24,0,0,0,.38-.63H8.65Z"/><path d="M16,187.56H14.25v1h1.69v1H14.25v1.18H16v1H13v-5.33h3Z"/><path d="M22.56,187.17a2.84,2.84,0,0,1,0,4,2.85,2.85,0,0,1-2.06.78,2.94,2.94,0,0,1-2.08-.78,2.72,2.72,0,0,1-.83-2,3,3,0,0,1,.82-2,2.86,2.86,0,0,1,2.09-.78A2.85,2.85,0,0,1,22.56,187.17Zm-3.24.82a1.63,1.63,0,0,0-.47,1.21,1.59,1.59,0,0,0,.49,1.2,1.57,1.57,0,0,0,1.14.44,1.61,1.61,0,0,0,1.18-.46,1.6,1.6,0,0,0,.46-1.19,1.68,1.68,0,0,0-.46-1.2,1.71,1.71,0,0,0-1.17-.46A1.63,1.63,0,0,0,19.32,188Z"/><path d="M26.82,187.56v4.29H25.59v-4.29H24.43v-1H28v1Z"/><path d="M30.66,188.55h2.13v-2H34v5.33H32.79v-2.26H30.66v2.26H29.43v-5.33h1.23Z"/><path d="M39,187.56H37.22v1h1.69v1H37.22v1.18H39v1H36v-5.33h3Z"/><path d="M42.68,186.52A1.91,1.91,0,0,1,44,187a1.6,1.6,0,0,1,.46,1.19,1.46,1.46,0,0,1-.42,1.09,1.68,1.68,0,0,1-.74.41L45,191.85h-1.5L42,189.75v2.1H40.81v-5.33ZM42,188.94h.28a1,1,0,0,0,.74-.23.72.72,0,0,0,.2-.52.64.64,0,0,0-.25-.54,1.2,1.2,0,0,0-.68-.17H42Z"/><path d="M46.21,191.85l.86-5.33h1l1.33,3.19,1.33-3.19h1l.86,5.33H51.4L51,188.67l-1.33,3.18H49.2l-1.33-3.18-.42,3.18Z"/><path d="M57.49,190.84h-2l-.41,1H53.78l2.15-5.33h1.13l2.1,5.33H57.89Zm-.34-.94-.66-1.79-.66,1.79Z"/><path d="M61.8,186.52v4.29h1.65v1H60.57v-5.33Z"/><path class="cls-1" d="M6.41,196.85h4.44v.84H7.29v2h3.06v.84H7.29V203h3.66v.84H6.41Z"/><path class="cls-1" d="M16.91,203.85h-.84v-3.33c0-.69-.31-1-.93-1a1.25,1.25,0,0,0-1,.64,2.92,2.92,0,0,0-.43,1.69v2h-.84v-5h.84v.93a2.06,2.06,0,0,1,1.71-1,1.42,1.42,0,0,1,1.54,1.61Z"/><path class="cls-1" d="M23.19,203.85h-.84v-3.3c0-.71-.31-1.06-.93-1.06a1.39,1.39,0,0,0-1.12.61,2.58,2.58,0,0,0-.48,1.64v2.11H19v-7.08h.84v3a2.25,2.25,0,0,1,1.83-1c1,0,1.54.55,1.54,1.64Z"/><path class="cls-1" d="M29.35,203.85h-.68l-.12-.71a2.19,2.19,0,0,1-1.78.79,1.45,1.45,0,0,1-1.56-1.53c0-1.09.85-1.65,2.28-1.65h1v-.22c0-.73-.48-1-1.16-1a1.22,1.22,0,0,0-1.19.86l-.74-.2a1.92,1.92,0,0,1,1.93-1.42,1.76,1.76,0,0,1,2,1.94Zm-2.45-.68a1.79,1.79,0,0,0,1.1-.38,1.37,1.37,0,0,0,.51-1.16v-.16h-1.1c-.85,0-1.34.36-1.34.93A.74.74,0,0,0,26.9,203.17Z"/><path class="cls-1" d="M35.52,203.85h-.84v-3.33c0-.69-.31-1-.93-1a1.25,1.25,0,0,0-1,.64,2.92,2.92,0,0,0-.43,1.69v2h-.84v-5h.84v.93a2.06,2.06,0,0,1,1.71-1,1.42,1.42,0,0,1,1.54,1.61Z"/><path class="cls-1" d="M41.93,202.54a2.15,2.15,0,0,1-2.13,1.39,2.18,2.18,0,0,1-1.76-.76,2.93,2.93,0,0,1,0-3.68,2.18,2.18,0,0,1,1.76-.76,2.15,2.15,0,0,1,2.13,1.39l-.73.3a1.41,1.41,0,0,0-1.4-.93c-1,0-1.55.76-1.55,1.84s.58,1.84,1.55,1.84a1.41,1.41,0,0,0,1.4-.93Z"/><path class="cls-1" d="M48.26,201.51H44.32a1.57,1.57,0,0,0,1.55,1.66,1.73,1.73,0,0,0,1.62-1l.67.35a2.42,2.42,0,0,1-2.29,1.41,2.27,2.27,0,0,1-1.75-.74,2.68,2.68,0,0,1-.66-1.86,2.75,2.75,0,0,1,.65-1.85,2.5,2.5,0,0,1,3.52,0,2.48,2.48,0,0,1,.63,1.73Zm-3.88-.76h3a1.43,1.43,0,0,0-1.5-1.26A1.45,1.45,0,0,0,44.38,200.75Z"/><path class="cls-1" d="M53.45,199.45v-2.68h.84v7.08h-.84v-.67a1.92,1.92,0,0,1-1.54.75,2.62,2.62,0,0,1,0-5.2A1.93,1.93,0,0,1,53.45,199.45Zm-3,1.88a2.07,2.07,0,0,0,.41,1.33,1.48,1.48,0,0,0,2.24,0,2.36,2.36,0,0,0,0-2.66,1.48,1.48,0,0,0-2.24,0A2.07,2.07,0,0,0,50.46,201.33Z"/><path class="cls-1" d="M66.38,203.85l0-.94a1.85,1.85,0,0,1-1.76,1,2.59,2.59,0,0,1-2-.92,4.77,4.77,0,0,1,0-5.32,2.68,2.68,0,0,1,2.08-.92,2.5,2.5,0,0,1,2.51,2.13l-.83.25c-.32-1-.81-1.54-1.68-1.54-1.24,0-2,.89-2,2.74s.74,2.74,2,2.74c.95,0,1.48-.64,1.57-1.93H64.63v-.84h2.48v3.53Z"/><path class="cls-1" d="M73.06,201.51H69.12a1.57,1.57,0,0,0,1.55,1.66,1.73,1.73,0,0,0,1.62-1l.67.35a2.42,2.42,0,0,1-2.29,1.41,2.27,2.27,0,0,1-1.75-.74,2.68,2.68,0,0,1-.66-1.86,2.75,2.75,0,0,1,.65-1.85,2.5,2.5,0,0,1,3.52,0,2.48,2.48,0,0,1,.63,1.73Zm-3.88-.76h3a1.43,1.43,0,0,0-1.5-1.26A1.45,1.45,0,0,0,69.18,200.75Z"/><path class="cls-1" d="M74.32,201.33a2.68,2.68,0,0,1,.68-1.84,2.51,2.51,0,0,1,3.6,0,2.83,2.83,0,0,1,0,3.68,2.51,2.51,0,0,1-3.6,0A2.68,2.68,0,0,1,74.32,201.33Zm.86,0a2,2,0,0,0,.44,1.3,1.56,1.56,0,0,0,2.36,0,2.14,2.14,0,0,0,0-2.6,1.56,1.56,0,0,0-2.36,0A2,2,0,0,0,75.18,201.33Z"/><path class="cls-1" d="M80.56,199.57v-.76H81.9V197.3l.84-.53v2H85.2v.76H82.74v2.58q0,1,.87,1a1.69,1.69,0,0,0,1.24-.6l.31.71a2.12,2.12,0,0,1-1.55.65,1.54,1.54,0,0,1-1.71-1.75v-2.61Z"/><path class="cls-1" d="M91.39,203.85h-.84v-3.3c0-.71-.31-1.06-.93-1.06a1.39,1.39,0,0,0-1.12.61,2.58,2.58,0,0,0-.48,1.64v2.11h-.84v-7.08H88v3a2.25,2.25,0,0,1,1.83-1c1,0,1.54.55,1.54,1.64Z"/><path class="cls-1" d="M97.86,201.51H93.92a1.57,1.57,0,0,0,1.55,1.66,1.73,1.73,0,0,0,1.62-1l.67.35a2.42,2.42,0,0,1-2.29,1.41,2.27,2.27,0,0,1-1.75-.74,2.68,2.68,0,0,1-.66-1.86,2.75,2.75,0,0,1,.65-1.85,2.5,2.5,0,0,1,3.52,0,2.48,2.48,0,0,1,.63,1.73ZM94,200.75h3a1.43,1.43,0,0,0-1.5-1.26A1.45,1.45,0,0,0,94,200.75Z"/><path class="cls-1" d="M103.25,200.41a.9.9,0,0,0-1-.92,1.47,1.47,0,0,0-1.21.67,3.06,3.06,0,0,0-.5,1.87v1.82h-.84v-5h.84v.93a2.08,2.08,0,0,1,1.86-1,1.56,1.56,0,0,1,1.66,1.68Z"/><path class="cls-1" d="M110.58,203.85h-.84v-3.58c0-.55-.16-.77-.55-.77s-.89.65-.89,2v2.37h-.84v-3.58c0-.55-.16-.77-.55-.77s-.89.65-.89,2v2.37h-.84v-5H106v.64a1.34,1.34,0,0,1,1.18-.72,1,1,0,0,1,1,.82,1.45,1.45,0,0,1,1.24-.82c.67,0,1.1.44,1.1,1.36Z"/><path class="cls-1" d="M116.15,203.85h-.68l-.12-.71a2.19,2.19,0,0,1-1.78.79A1.45,1.45,0,0,1,112,202.4c0-1.09.85-1.65,2.28-1.65h1v-.22c0-.73-.48-1-1.16-1a1.22,1.22,0,0,0-1.19.86l-.74-.2a1.92,1.92,0,0,1,1.93-1.42,1.76,1.76,0,0,1,2,1.94Zm-2.45-.68a1.79,1.79,0,0,0,1.1-.38,1.37,1.37,0,0,0,.51-1.16v-.16h-1.1c-.85,0-1.34.36-1.34.93A.74.74,0,0,0,113.7,203.17Z"/><path class="cls-1" d="M119.11,197.61h-1.39v-.76h2.23V202c0,.81.35,1.22,1.06,1.22s1-.41,1.17-1.22l.76.15a1.87,1.87,0,0,1-1.93,1.83,1.79,1.79,0,0,1-1.9-2Z"/><polygon class="cls-1" points="56.5 57.07 39.5 74.07 39.5 91.07 56.5 74.07 56.5 57.07"/><polygon class="cls-1" points="39.5 6.07 39.5 23.07 56.5 6.07 39.5 6.07"/><polygon class="cls-1" points="124.5 91.07 124.5 23.07 124.5 6.07 107.5 6.07 90.5 6.07 73.5 6.07 56.5 23.07 39.5 40.07 39.5 57.07 56.5 40.07 73.5 23.07 107.5 23.07 107.5 125.07 90.5 125.07 73.5 142.07 56.5 142.07 73.5 125.07 56.5 125.07 39.5 142.07 39.5 125.07 56.5 108.07 56.5 91.07 39.5 108.07 39.5 91.07 5.5 91.07 5.5 142.07 5.5 159.07 39.5 159.07 124.5 159.07 141.5 159.07 158.5 159.07 158.5 91.07 124.5 91.07"/><rect class="cls-1" x="73.5" y="91.07" width="17" height="34"/><polygon points="5.5 23.07 5.5 40.07 22.5 40.07 22.5 125.07 39.5 125.07 39.5 40.07 39.5 23.07 22.5 23.07 5.5 23.07"/><polygon points="158.5 23.07 147.17 23.07 141.5 23.07 124.5 23.07 124.5 40.07 124.5 125.07 141.5 125.07 141.5 40.07 158.5 40.07 158.5 23.07"/><polygon points="73.5 23.07 56.5 23.07 56.5 40.07 56.5 125.07 73.5 125.07 73.5 40.07 90.5 40.07 90.5 125.07 107.5 125.07 107.5 40.07 107.5 23.07 90.5 23.07 73.5 23.07"/></svg>