<svg xmlns="http://www.w3.org/2000/svg" viewBox="0 0 100 100"><defs><style>.cls-1{fill:#bf64ff;}.cls-2{opacity:0.6;}.cls-3{fill:#ccc;}</style></defs><title>Artboard 1grid</title><g id="Layer_1" data-name="Layer 1"><circle class="cls-1" cx="40" cy="40" r="35"/><polygon points="75 5 75 15 65 15 75 5"/><polygon points="65 15 65 25 55 25 65 15"/><polygon points="55 25 55 35 45 35 55 25"/><polygon points="45 35 45 45 35 45 45 35"/><polygon points="35 45 35 55 25 55 35 45"/><polygon points="25 55 25 65 15 65 25 55"/><polygon points="15 65 15 75 5 75 15 65"/><polygon points="75 25 25 75 15 75 75 15 75 25"/><polygon points="45 95 55 95 55 55 45 45 45 95"/><polygon points="95 35 95 45 85 45 95 35"/><polygon points="85 45 85 55 75 55 85 45"/><polygon points="75 55 75 65 65 65 75 55"/><polygon points="95 55 85 65 75 65 95 45 95 55"/><polygon points="95 85 95 95 85 95 95 85"/><polygon points="85 85 85 95 75 95 85 85"/><polygon points="95 75 95 85 85 85 95 75"/></g><g id="Layer_3" data-name="Layer 3"><g class="cls-2"><rect class="cls-3" x="4.88" y="-5" width="0.25" height="110"/><rect class="cls-3" x="14.88" y="-5" width="0.25" height="110"/><rect class="cls-3" x="24.88" y="-5" width="0.25" height="110"/><rect class="cls-3" x="34.88" y="-5" width="0.25" height="110"/><rect class="cls-3" x="44.88" y="-5" width="0.25" height="110"/><rect class="cls-3" x="54.88" y="-5" width="0.25" height="110"/><rect class="cls-3" x="64.88" y="-5" width="0.25" height="110"/><rect class="cls-3" x="74.88" y="-5" width="0.25" height="110"/><rect class="cls-3" x="84.88" y="-5" width="0.25" height="110"/><rect class="cls-3" x="94.88" y="-5" width="0.25" height="110"/><rect class="cls-3" x="-5" y="4.88" width="110" height="0.25"/><rect class="cls-3" x="-5" y="14.88" width="110" height="0.25"/><rect class="cls-3" x="-5" y="24.88" width="110" height="0.25"/><rect class="cls-3" x="-5" y="34.88" width="110" height="0.25"/><rect class="cls-3" x="-5" y="44.88" width="110" height="0.25"/><rect class="cls-3" x="-5" y="54.88" width="110" height="0.25"/><rect class="cls-3" x="-5" y="64.88" width="110" height="0.25"/><rect class="cls-3" x="-5" y="74.88" width="110" height="0.25"/><rect class="cls-3" x="-5" y="84.88" width="110" height="0.25"/><rect class="cls-3" x="-5" y="94.88" width="110" height="0.25"/></g></g></svg>