<svg xmlns="http://www.w3.org/2000/svg" viewBox="0 0 100 100"><defs><style>.cls-1{fill:#bf64ff;}.cls-2{opacity:0.6;}.cls-3{fill:#ccc;}</style></defs><title>Artboard 3grid</title><g id="Layer_1" data-name="Layer 1"><rect class="cls-1" x="5" y="25" width="90" height="20"/><rect class="cls-1" x="15" y="55" width="80" height="20"/><rect class="cls-1" x="5" y="85" width="90" height="10"/><rect class="cls-1" x="25" y="5" width="70" height="10"/><polygon points="55 45 55 5 65 35 55 45"/><polygon points="65 65 55 95 55 55 65 65"/><polygon points="35 55 65 55 65 45 45 45 35 55"/><rect x="35" y="55" width="10" height="40"/></g><g id="Layer_3" data-name="Layer 3"><g class="cls-2"><rect class="cls-3" x="4.88" y="-5" width="0.25" height="110"/><rect class="cls-3" x="14.88" y="-5" width="0.25" height="110"/><rect class="cls-3" x="24.88" y="-5" width="0.25" height="110"/><rect class="cls-3" x="34.88" y="-5" width="0.25" height="110"/><rect class="cls-3" x="44.88" y="-5" width="0.25" height="110"/><rect class="cls-3" x="54.88" y="-5" width="0.25" height="110"/><rect class="cls-3" x="64.88" y="-5" width="0.25" height="110"/><rect class="cls-3" x="74.88" y="-5" width="0.25" height="110"/><rect class="cls-3" x="84.88" y="-5" width="0.25" height="110"/><rect class="cls-3" x="94.88" y="-5" width="0.25" height="110"/><rect class="cls-3" x="-5" y="4.88" width="110" height="0.25"/><rect class="cls-3" x="-5" y="14.88" width="110" height="0.25"/><rect class="cls-3" x="-5" y="24.88" width="110" height="0.25"/><rect class="cls-3" x="-5" y="34.88" width="110" height="0.25"/><rect class="cls-3" x="-5" y="44.88" width="110" height="0.25"/><rect class="cls-3" x="-5" y="54.88" width="110" height="0.25"/><rect class="cls-3" x="-5" y="64.88" width="110" height="0.25"/><rect class="cls-3" x="-5" y="74.88" width="110" height="0.25"/><rect class="cls-3" x="-5" y="84.88" width="110" height="0.25"/><rect class="cls-3" x="-5" y="94.88" width="110" height="0.25"/></g></g></svg>