<svg xmlns="http://www.w3.org/2000/svg" viewBox="0 0 100 100"><defs><style>.cls-1{fill:#bf64ff;}.cls-2{opacity:0.6;}.cls-3{fill:#ccc;}</style></defs><title>Artboard 8grid</title><g id="Layer_1" data-name="Layer 1"><polygon class="cls-1" points="5 5 15 5 15 25 5 5"/><polygon class="cls-1" points="35 95 5 95 5 35 35 95"/><polygon class="cls-1" points="85 95 55 95 55 35 85 95"/><polygon class="cls-1" points="70 95 25 95 25 5 70 95"/><polygon class="cls-1" points="75 25 85 25 85 45 75 25"/><rect x="5" y="85" width="50" height="10"/><rect x="65" y="85" width="30" height="10"/><rect x="15" y="65" width="20" height="10"/><rect x="45" y="65" width="50" height="10"/></g><g id="Layer_3" data-name="Layer 3"><g class="cls-2"><rect class="cls-3" x="4.88" y="-5" width="0.25" height="110"/><rect class="cls-3" x="14.88" y="-5" width="0.25" height="110"/><rect class="cls-3" x="24.88" y="-5" width="0.25" height="110"/><rect class="cls-3" x="34.88" y="-5" width="0.25" height="110"/><rect class="cls-3" x="44.88" y="-5" width="0.25" height="110"/><rect class="cls-3" x="54.88" y="-5" width="0.25" height="110"/><rect class="cls-3" x="64.88" y="-5" width="0.25" height="110"/><rect class="cls-3" x="74.88" y="-5" width="0.25" height="110"/><rect class="cls-3" x="84.88" y="-5" width="0.25" height="110"/><rect class="cls-3" x="94.88" y="-5" width="0.25" height="110"/><rect class="cls-3" x="-5" y="4.88" width="110" height="0.25"/><rect class="cls-3" x="-5" y="14.88" width="110" height="0.25"/><rect class="cls-3" x="-5" y="24.88" width="110" height="0.25"/><rect class="cls-3" x="-5" y="34.88" width="110" height="0.25"/><rect class="cls-3" x="-5" y="44.88" width="110" height="0.25"/><rect class="cls-3" x="-5" y="54.88" width="110" height="0.25"/><rect class="cls-3" x="-5" y="64.88" width="110" height="0.25"/><rect class="cls-3" x="-5" y="74.88" width="110" height="0.25"/><rect class="cls-3" x="-5" y="84.88" width="110" height="0.25"/><rect class="cls-3" x="-5" y="94.88" width="110" height="0.25"/></g></g></svg>