<svg xmlns="http://www.w3.org/2000/svg" viewBox="0 0 812 1000"><defs><style>.cls-1{fill:#efefef;}.cls-2{fill:#bf64ff;}</style></defs><title>instagram</title><g id="bg"><rect class="cls-1" x="0.06" y="0.97" width="811.88" height="1000"/></g><g id="Layer_1" data-name="Layer 1"><path class="cls-2" d="M103,106.6V577.88h1.91c15.53-140.41,127-251.85,267.4-267.38v402h67.33v-402c140.41,15.53,251.87,127,267.4,267.38H709V106.6Z"/><path d="M406,306.33c-156.72,0-285.63,119-301.35,271.55H172.5C183.93,492.16,241.43,421,319.28,390.18l53.05,53.05V376.06a237.12,237.12,0,0,1,67.33,0v67.17l53.05-53.05c77.85,30.85,135.35,102,146.78,187.71h67.85C691.63,425.32,562.72,306.33,406,306.33Z"/><path d="M108.22,818.62l4.49,14,4.5-14h3.36l4.49,14,4.5-14h5.07l-7.19,21.12h-4.12l-4.43-12.82-4.43,12.82h-4.12l-7.19-21.12Z"/><path d="M151.34,835.75h-8l-1.62,4h-5.07l8.52-21.12h4.46L158,839.74h-5.07ZM150,832l-2.6-7.09L144.78,832Z"/><path d="M169.62,822.74v17h-4.88v-17h-4.59v-4.12h14.06v4.12Z"/><path d="M191.89,822.74h-7.06v4.08h6.71v4.12h-6.71v4.69h7.06v4.12H180V818.62h11.94Z"/><path d="M206.44,818.62a7.55,7.55,0,0,1,5.38,1.84,6.36,6.36,0,0,1,1.84,4.72,5.77,5.77,0,0,1-1.64,4.3,6.67,6.67,0,0,1-2.95,1.62l6.49,8.64h-6l-5.7-8.33v8.33H199V818.62Zm-2.53,9.6H205a4,4,0,0,0,2.91-.92,2.85,2.85,0,0,0,.79-2.06,2.55,2.55,0,0,0-1-2.15,4.76,4.76,0,0,0-2.69-.67H203.9Z"/><path class="cls-2" d="M121.4,859.56h3.48v27.71H121.4V874.2H109.21v13.06h-3.48V859.56h3.48v11.32H121.4Z"/><path class="cls-2" d="M146.74,867.32h3.6l-11.83,28h-3.33l3.88-9.42-8.63-18.6h3.72l6.69,14.61Z"/><path class="cls-2" d="M170.15,869.85V859.24h3.32v28h-3.32v-2.65a7.62,7.62,0,0,1-6.1,3c-5.74,0-9.15-4.08-9.15-10.29S158.32,867,164.06,867A7.65,7.65,0,0,1,170.15,869.85Zm-11.83,7.44a8.2,8.2,0,0,0,1.62,5.26,5.88,5.88,0,0,0,8.87,0,9.36,9.36,0,0,0,0-10.53,5.88,5.88,0,0,0-8.87,0A8.2,8.2,0,0,0,158.32,877.29Z"/><path class="cls-2" d="M195.5,873.65c-.27-2.42-1.58-3.64-3.84-3.64a5.8,5.8,0,0,0-4.79,2.65c-1.3,1.74-2,4.2-2,7.4v7.2h-3.33V867.32h3.33V871a8.24,8.24,0,0,1,7.36-4c4,0,6.37,2.37,6.57,6.65Z"/><path class="cls-2" d="M203.71,877.29A10.63,10.63,0,0,1,206.4,870a9.94,9.94,0,0,1,14.25,0,11.2,11.2,0,0,1,0,14.57,9.94,9.94,0,0,1-14.25,0A10.63,10.63,0,0,1,203.71,877.29Zm3.4,0a7.93,7.93,0,0,0,1.74,5.15,6.17,6.17,0,0,0,9.34,0,8.46,8.46,0,0,0,0-10.29,6.17,6.17,0,0,0-9.34,0A7.93,7.93,0,0,0,207.11,877.29Z"/><path class="cls-2" d="M247.81,878H232.22c.2,4,2.61,6.57,6.13,6.57a6.86,6.86,0,0,0,6.41-4l2.65,1.39a9.57,9.57,0,0,1-9.07,5.58,9,9,0,0,1-6.93-2.93,10.61,10.61,0,0,1-2.61-7.36,10.88,10.88,0,0,1,2.57-7.32,9.9,9.9,0,0,1,13.93-.2,9.8,9.8,0,0,1,2.49,6.85Zm-15.36-3h11.83a5.65,5.65,0,0,0-5.94-5C235.23,870,233.13,871.87,232.45,875Z"/><path class="cls-2" d="M258.32,862.57h-5.5v-3h8.83v20.19c0,3.21,1.38,4.83,4.2,4.83,2.57,0,4.12-1.62,4.63-4.83l3,.59c-.67,4.75-3.48,7.24-7.64,7.24-4.63,0-7.52-2.89-7.52-7.84Z"/><path class="cls-2" d="M296.92,878H281.33c.2,4,2.61,6.57,6.13,6.57a6.86,6.86,0,0,0,6.41-4l2.65,1.39a9.57,9.57,0,0,1-9.07,5.58,9,9,0,0,1-6.93-2.93,10.61,10.61,0,0,1-2.61-7.36A10.88,10.88,0,0,1,280.5,870a9.9,9.9,0,0,1,13.93-.2,9.8,9.8,0,0,1,2.49,6.85Zm-15.36-3H293.4a5.65,5.65,0,0,0-5.94-5C284.34,870,282.24,871.87,281.57,875Z"/><path class="cls-2" d="M321,882.08a8.53,8.53,0,0,1-8.43,5.5,8.63,8.63,0,0,1-7-3,11.6,11.6,0,0,1,0-14.57,8.63,8.63,0,0,1,7-3,8.53,8.53,0,0,1,8.43,5.5l-2.89,1.19a5.6,5.6,0,0,0-5.54-3.68c-3.84,0-6.13,3-6.13,7.28s2.3,7.28,6.13,7.28a5.6,5.6,0,0,0,5.54-3.68Z"/><path class="cls-2" d="M326.64,870.32v-3h5.31v-6l3.33-2.1v8.08H345v3h-9.73v10.21q0,4,3.44,4a6.68,6.68,0,0,0,4.91-2.37l1.23,2.81a8.4,8.4,0,0,1-6.13,2.57c-4.39,0-6.77-2.34-6.77-6.93V870.32Z"/><path class="cls-2" d="M367.38,873.65c-.27-2.42-1.58-3.64-3.84-3.64a5.8,5.8,0,0,0-4.79,2.65c-1.31,1.74-2,4.2-2,7.4v7.2h-3.33V867.32h3.33V871a8.24,8.24,0,0,1,7.36-4c4,0,6.37,2.37,6.57,6.65Z"/><path class="cls-2" d="M378.24,870.24v-2.93h9.42v17H395v2.93H377.45v-2.93h6.88V870.24Zm7.52-11A2.72,2.72,0,0,1,388.5,862a2.65,2.65,0,0,1-2.73,2.69,2.73,2.73,0,0,1,0-5.46Z"/><path class="cls-2" d="M419.19,882.08a8.53,8.53,0,0,1-8.43,5.5,8.63,8.63,0,0,1-7-3,11.6,11.6,0,0,1,0-14.57,8.63,8.63,0,0,1,7-3,8.53,8.53,0,0,1,8.43,5.5l-2.89,1.19a5.6,5.6,0,0,0-5.54-3.68c-3.84,0-6.13,3-6.13,7.28s2.3,7.28,6.13,7.28a5.6,5.6,0,0,0,5.54-3.68Z"/><path class="cls-2" d="M449.89,859.56h7a11.74,11.74,0,0,1,8.95,3.52c2.25,2.33,3.36,5.78,3.36,10.33s-1.11,8-3.36,10.33a11.74,11.74,0,0,1-8.95,3.52h-7Zm3.48,3.32v21.06h3.17c5.82,0,8.95-3.09,8.95-10.53s-3.13-10.53-8.95-10.53Z"/><path class="cls-2" d="M492.14,887.26h-2.69l-.48-2.81c-1.26,1.86-4.08,3.13-7,3.13-3.52,0-6.18-2.14-6.18-6.06,0-4.31,3.36-6.53,9-6.53h4v-.87c0-2.89-1.9-4.12-4.59-4.12a4.84,4.84,0,0,0-4.71,3.4l-2.93-.79a7.61,7.61,0,0,1,7.64-5.62c4.91,0,7.92,2.42,7.92,7.68Zm-9.7-2.69a7.07,7.07,0,0,0,4.35-1.5,5.43,5.43,0,0,0,2-4.59v-.63h-4.35c-3.36,0-5.31,1.43-5.31,3.68C479.16,883.43,480.42,884.57,482.44,884.57Z"/><path class="cls-2" d="M519.19,887.26h-3.33V873.09c0-2.18-.63-3-2.18-3-2.06,0-3.52,2.57-3.52,7.84v9.38h-3.32V873.09c0-2.18-.63-3-2.18-3-2.06,0-3.52,2.57-3.52,7.84v9.38h-3.33V867.32h3.33v2.53a5.32,5.32,0,0,1,4.67-2.85,3.94,3.94,0,0,1,4.12,3.24,5.73,5.73,0,0,1,4.91-3.24c2.65,0,4.35,1.74,4.35,5.38Z"/></g></svg>