<svg xmlns="http://www.w3.org/2000/svg" viewBox="0 0 164 202"><defs><style>.cls-1{fill:#efefef;}.cls-2{fill:#bf64ff;}</style></defs><title>solar-passive</title><g id="bg"><rect class="cls-1" width="164" height="202"/></g><g id="Layer_1" data-name="Layer 1"><circle class="cls-2" cx="68.4" cy="69.46" r="47.6"/><polygon points="75.2 76.25 75.2 62.66 61.6 76.25 75.2 76.25"/><polygon points="61.6 89.86 61.6 76.25 48 89.86 61.6 89.86"/><polygon points="48 103.45 48 89.86 34.4 103.45 48 103.45"/><polygon points="34.4 117.06 34.4 103.45 20.8 117.06 34.4 117.06"/><polygon points="129.6 21.86 116 21.86 102.4 35.45 102.4 35.45 88.8 49.05 88.8 49.05 75.2 62.66 88.8 62.66 88.8 49.05 102.4 49.05 102.4 35.45 116 35.45 129.6 35.45 129.6 130.66 34.4 130.66 34.4 117.06 20.8 117.06 20.8 130.66 20.8 144.25 34.4 144.25 129.6 144.25 143.2 144.25 143.2 130.66 143.2 35.45 143.2 21.86 129.6 21.86"/><path d="M23.87,167.26a1,1,0,0,0-.72-.31.53.53,0,0,0-.42.15.38.38,0,0,0-.11.27.3.3,0,0,0,.1.24,1.71,1.71,0,0,0,.54.24l.32.12a1.71,1.71,0,0,1,.58.33,1.06,1.06,0,0,1,.31.79,1.53,1.53,0,0,1-.38,1.06,1.65,1.65,0,0,1-1.21.44,1.81,1.81,0,0,1-.84-.18,2.71,2.71,0,0,1-.63-.47l.51-.7a2.65,2.65,0,0,0,.4.33,1,1,0,0,0,.54.15.68.68,0,0,0,.45-.15.44.44,0,0,0,.15-.35.38.38,0,0,0-.15-.31,2.06,2.06,0,0,0-.5-.24l-.35-.12a1.44,1.44,0,0,1-.59-.34,1,1,0,0,1-.26-.74,1.31,1.31,0,0,1,.37-1,1.37,1.37,0,0,1,1.06-.39,2.06,2.06,0,0,1,1.27.42Z"/><path d="M29.61,166.74a2.27,2.27,0,0,1,0,3.21,2.28,2.28,0,0,1-1.65.63,2.35,2.35,0,0,1-1.66-.63,2.18,2.18,0,0,1-.66-1.59,2.38,2.38,0,0,1,.66-1.62,2.52,2.52,0,0,1,3.32,0Zm-2.59.65a1.31,1.31,0,0,0-.38,1,1.27,1.27,0,0,0,.39,1,1.26,1.26,0,0,0,.91.35,1.29,1.29,0,0,0,.95-.36,1.28,1.28,0,0,0,.37-1,1.34,1.34,0,0,0-.37-1,1.37,1.37,0,0,0-.94-.36A1.31,1.31,0,0,0,27,167.39Z"/><path d="M32.64,166.21v3.43H34v.83H31.65v-4.27Z"/><path d="M37.86,169.67H36.25l-.33.81h-1l1.72-4.27h.9l1.68,4.27h-1Zm-.27-.76-.52-1.43-.53,1.43Z"/><path d="M41.83,166.21a1.52,1.52,0,0,1,1.09.37,1.28,1.28,0,0,1,.37,1,1.17,1.17,0,0,1-.33.87,1.35,1.35,0,0,1-.6.33l1.31,1.75h-1.2l-1.15-1.68v1.68h-1v-4.27Zm-.51,1.94h.22a.81.81,0,0,0,.59-.19.58.58,0,0,0,.16-.42.52.52,0,0,0-.2-.43,1,1,0,0,0-.54-.13h-.23Z"/><path class="cls-2" d="M22.69,177.68v2.4H22v-5.6h2.12a1.6,1.6,0,1,1,0,3.2Zm1.4-.67a.93.93,0,1,0,0-1.86h-1.4V177Z"/><path class="cls-2" d="M30.36,180.08h-.54l-.1-.57a1.75,1.75,0,0,1-1.42.63A1.16,1.16,0,0,1,27,178.92c0-.87.68-1.32,1.82-1.32h.82v-.18c0-.58-.38-.83-.93-.83a1,1,0,0,0-1,.69l-.59-.16A1.54,1.54,0,0,1,28.76,176a1.41,1.41,0,0,1,1.6,1.55Zm-2-.54a1.43,1.43,0,0,0,.88-.3,1.1,1.1,0,0,0,.41-.93v-.13h-.88c-.68,0-1.07.29-1.07.74A.59.59,0,0,0,28.4,179.54Z"/><path class="cls-2" d="M35.05,176.86l-.53.38a1.08,1.08,0,0,0-1-.64c-.38,0-.7.18-.7.54s.3.5.94.62a3.59,3.59,0,0,1,.82.24.9.9,0,0,1,.62.86,1.15,1.15,0,0,1-.45,1,1.91,1.91,0,0,1-2.85-.82l.64-.24a1.13,1.13,0,0,0,1.11.8c.49,0,.86-.22.86-.62s-.3-.43-1-.59-1.3-.46-1.3-1.17a1,1,0,0,1,.4-.85,1.49,1.49,0,0,1,1-.32A1.57,1.57,0,0,1,35.05,176.86Z"/><path class="cls-2" d="M40,176.86l-.53.38a1.08,1.08,0,0,0-1-.64c-.38,0-.7.18-.7.54s.3.5.94.62a3.59,3.59,0,0,1,.82.24.9.9,0,0,1,.62.86,1.15,1.15,0,0,1-.45,1A1.91,1.91,0,0,1,36.9,179l.64-.24a1.13,1.13,0,0,0,1.11.8c.49,0,.86-.22.86-.62s-.3-.43-1-.59-1.3-.46-1.3-1.17a1,1,0,0,1,.4-.85,1.49,1.49,0,0,1,1-.32A1.57,1.57,0,0,1,40,176.86Z"/><path class="cls-2" d="M42.07,176.64v-.59H44v3.44h1.49v.59H41.91v-.59H43.3v-2.85Zm1.52-2.22a.55.55,0,0,1,.55.56.54.54,0,0,1-.55.54.55.55,0,0,1,0-1.1Z"/><path class="cls-2" d="M49.77,176.05h.73l-1.69,4h-.67l-1.69-4h.73l1.3,3.23Z"/><path class="cls-2" d="M55.4,178.21H52.25a1.25,1.25,0,0,0,1.24,1.33,1.39,1.39,0,0,0,1.3-.8l.54.28a1.93,1.93,0,0,1-1.83,1.13,1.81,1.81,0,0,1-1.4-.59,2.14,2.14,0,0,1-.53-1.49,2.2,2.2,0,0,1,.52-1.48,2,2,0,0,1,2.81,0,2,2,0,0,1,.5,1.38Zm-3.1-.61h2.39a1.14,1.14,0,0,0-1.2-1A1.16,1.16,0,0,0,52.3,177.6Z"/></g></svg>