<svg xmlns="http://www.w3.org/2000/svg" viewBox="0 0 810 810"><defs><style>.cls-1{fill:#bf64ff;}</style></defs><title>Artboard 102pv</title><g id="for_web" data-name="for web"><circle class="cls-1" cx="316.11" cy="316.11" r="311.11"/><path d="M627.22,182.78V93.89h0l-88.89,88.89V93.89h88.89V5L538.33,93.89h0l-88.89,88.89h0l-88.89,88.89h0l-88.89,88.89h0l-88.89,88.89h0L93.89,538.33h0L5,627.22H93.89V538.33h88.89V449.44h88.89l-88.89,88.89L93.89,627.22h88.89L360.56,449.44V805h88.89V449.44L405,405Zm-88.89,0-88.89,88.89V182.78ZM271.67,449.44V360.56h88.89V271.67h88.89l-88.89,88.89Z"/><polygon points="627.22 538.33 627.22 449.44 716.11 449.44 627.22 538.33 627.22 538.33 716.11 538.33 805 449.44 805 360.56 805 360.56 716.11 449.44 716.11 360.56 805 360.56 805 271.67 716.11 360.56 716.11 360.56 627.22 449.44 627.22 449.44 538.33 538.33 627.22 538.33"/><polygon points="627.22 805 716.11 805 716.11 805 716.11 716.11 627.22 805"/><polygon points="716.11 716.11 805 716.11 716.11 805 805 805 805 716.11 805 716.11 805 627.22 716.11 716.11"/></g></svg>