<svg id="Layer_1" data-name="Layer 1" xmlns="http://www.w3.org/2000/svg" viewBox="0 0 164 210"><defs><style>.cls-1{fill:#bf64ff;}</style></defs><title>solar-passivepv</title><circle class="cls-1" cx="65" cy="65.57" r="59.5"/><polygon points="73.5 74.07 73.5 57.07 56.5 74.07 73.5 74.07"/><polygon points="56.5 91.07 56.5 74.07 39.5 91.07 56.5 91.07"/><polygon points="39.5 108.07 39.5 91.07 22.5 108.07 39.5 108.07"/><polygon points="22.5 125.07 22.5 108.07 5.5 125.07 22.5 125.07"/><polygon points="141.5 6.07 124.5 6.07 107.5 23.07 107.5 23.07 90.5 40.07 90.5 40.07 73.5 57.07 90.5 57.07 90.5 40.07 107.5 40.07 107.5 23.07 124.5 23.07 141.5 23.07 141.5 142.07 22.5 142.07 22.5 125.07 5.5 125.07 5.5 142.07 5.5 159.07 22.5 159.07 141.5 159.07 158.5 159.07 158.5 142.07 158.5 23.07 158.5 6.07 141.5 6.07"/><path d="M9.33,187.82a1.3,1.3,0,0,0-.9-.38.67.67,0,0,0-.52.18.48.48,0,0,0-.14.34.37.37,0,0,0,.12.3,2.14,2.14,0,0,0,.67.3l.4.15a2.14,2.14,0,0,1,.73.41,1.33,1.33,0,0,1,.39,1,1.91,1.91,0,0,1-.47,1.32,2.07,2.07,0,0,1-1.51.54,2.26,2.26,0,0,1-1.06-.22,3.39,3.39,0,0,1-.78-.58l.64-.88a3.31,3.31,0,0,0,.5.41,1.24,1.24,0,0,0,.67.19.85.85,0,0,0,.56-.18.55.55,0,0,0,.19-.43.47.47,0,0,0-.18-.38,2.57,2.57,0,0,0-.62-.3l-.44-.15a1.8,1.8,0,0,1-.74-.42,1.31,1.31,0,0,1-.32-.93,1.64,1.64,0,0,1,.46-1.2,1.72,1.72,0,0,1,1.32-.49,2.58,2.58,0,0,1,1.58.53Z"/><path d="M16.51,187.17a2.84,2.84,0,0,1,0,4,2.85,2.85,0,0,1-2.06.78,2.94,2.94,0,0,1-2.08-.78,2.72,2.72,0,0,1-.83-2,3,3,0,0,1,.82-2,2.86,2.86,0,0,1,2.09-.78A2.85,2.85,0,0,1,16.51,187.17Zm-3.24.82a1.63,1.63,0,0,0-.47,1.21,1.59,1.59,0,0,0,.49,1.2,1.57,1.57,0,0,0,1.14.44,1.61,1.61,0,0,0,1.18-.46,1.6,1.6,0,0,0,.46-1.19,1.68,1.68,0,0,0-.46-1.2,1.71,1.71,0,0,0-1.17-.46A1.63,1.63,0,0,0,13.27,188Z"/><path d="M20.29,186.52v4.29h1.65v1H19.06v-5.33Z"/><path d="M26.83,190.84h-2l-.41,1H23.13l2.15-5.33h1.13l2.1,5.33H27.23Zm-.34-.94-.66-1.79-.66,1.79Z"/><path d="M31.78,186.52a1.91,1.91,0,0,1,1.36.46,1.6,1.6,0,0,1,.46,1.19,1.46,1.46,0,0,1-.42,1.09,1.68,1.68,0,0,1-.74.41l1.64,2.18h-1.5l-1.44-2.1v2.1H29.91v-5.33Zm-.64,2.42h.28a1,1,0,0,0,.74-.23.72.72,0,0,0,.2-.52.64.64,0,0,0-.25-.54,1.2,1.2,0,0,0-.68-.17h-.29Z"/><path class="cls-1" d="M7.87,200.85v3H7v-7H9.64a2,2,0,1,1,0,4ZM9.62,200a1.16,1.16,0,1,0,0-2.32H7.87V200Z"/><path class="cls-1" d="M17.45,203.85h-.68l-.12-.71a2.19,2.19,0,0,1-1.78.79,1.45,1.45,0,0,1-1.56-1.53c0-1.09.85-1.65,2.28-1.65h1v-.22c0-.73-.48-1-1.16-1a1.22,1.22,0,0,0-1.19.86l-.74-.2a1.92,1.92,0,0,1,1.93-1.42,1.76,1.76,0,0,1,2,1.94ZM15,203.17a1.79,1.79,0,0,0,1.1-.38,1.37,1.37,0,0,0,.51-1.16v-.16h-1.1c-.85,0-1.34.36-1.34.93A.74.74,0,0,0,15,203.17Z"/><path class="cls-1" d="M23.32,199.82l-.66.47a1.35,1.35,0,0,0-1.21-.8c-.48,0-.87.22-.87.67s.37.62,1.17.78a4.48,4.48,0,0,1,1,.3,1.12,1.12,0,0,1,.78,1.07A1.44,1.44,0,0,1,23,203.5a2.39,2.39,0,0,1-3.57-1l.8-.3a1.41,1.41,0,0,0,1.39,1c.61,0,1.07-.27,1.07-.78s-.38-.54-1.3-.74-1.63-.57-1.63-1.46a1.3,1.3,0,0,1,.5-1.06,1.86,1.86,0,0,1,1.22-.4A2,2,0,0,1,23.32,199.82Z"/><path class="cls-1" d="M29.52,199.82l-.66.47a1.35,1.35,0,0,0-1.21-.8c-.48,0-.87.22-.87.67s.37.62,1.17.78a4.48,4.48,0,0,1,1,.3,1.12,1.12,0,0,1,.78,1.07,1.44,1.44,0,0,1-.56,1.19,2.39,2.39,0,0,1-3.57-1l.8-.3a1.41,1.41,0,0,0,1.39,1c.61,0,1.07-.27,1.07-.78s-.38-.54-1.3-.74S26,201.08,26,200.19a1.3,1.3,0,0,1,.5-1.06,1.86,1.86,0,0,1,1.22-.4A2,2,0,0,1,29.52,199.82Z"/><path class="cls-1" d="M32.09,199.55v-.74h2.38v4.3h1.86v.74H31.89v-.74h1.74v-3.56Zm1.9-2.78a.69.69,0,0,1,.69.7.67.67,0,0,1-.69.68.69.69,0,0,1,0-1.38Z"/><path class="cls-1" d="M41.72,198.81h.91l-2.11,5h-.84l-2.11-5h.91l1.62,4Z"/><path class="cls-1" d="M48.76,201.51H44.82a1.57,1.57,0,0,0,1.55,1.66,1.73,1.73,0,0,0,1.62-1l.67.35a2.42,2.42,0,0,1-2.29,1.41,2.27,2.27,0,0,1-1.75-.74,2.68,2.68,0,0,1-.66-1.86,2.75,2.75,0,0,1,.65-1.85,2.5,2.5,0,0,1,3.52,0,2.48,2.48,0,0,1,.63,1.73Zm-3.88-.76h3a1.43,1.43,0,0,0-1.5-1.26A1.45,1.45,0,0,0,44.88,200.75Z"/></svg>