<svg xmlns="http://www.w3.org/2000/svg" viewBox="0 0 164 202"><defs><style>.cls-1{fill:#efefef;}.cls-2{fill:#bf64ff;}</style></defs><title>solar-pv</title><g id="bg"><rect class="cls-1" width="164" height="202"/></g><g id="Layer_1" data-name="Layer 1"><circle class="cls-2" cx="68.4" cy="69.46" r="47.6"/><polygon points="116 21.86 102.4 35.45 116 35.45 116 21.86"/><polygon points="102.4 35.45 88.8 49.05 102.4 49.05 102.4 35.45"/><polygon points="88.8 49.05 75.2 62.66 88.8 62.66 88.8 49.05"/><polygon points="61.6 76.25 75.2 76.25 75.2 62.66 61.6 76.25 61.6 76.25 48 89.86 61.6 89.86 61.6 76.25"/><polygon points="34.4 103.45 48 103.45 48 89.86 34.4 103.45"/><polygon points="34.4 117.06 34.4 103.45 20.8 117.06 34.4 117.06"/><polygon points="116 49.05 116 35.45 61.6 89.86 48 103.45 34.4 117.06 48 117.06 75.2 89.86 75.2 144.25 88.8 144.25 88.8 89.86 82 83.06 116 49.05"/><path d="M129.6,76.26h0L116,89.86h13.6L116,103.46h13.6l13.6-13.6V76.26h0V62.66Zm0,13.6V76.26h13.6Z"/><polygon points="116 103.45 116 89.86 102.4 103.45 116 103.45"/><polygon points="116 144.25 129.6 144.25 129.6 144.25 129.6 130.66 116 144.25"/><polygon points="143.2 130.66 129.6 144.25 143.2 144.25 143.2 130.66 143.2 130.66 143.2 117.06 129.6 130.66 143.2 130.66"/><path d="M23.47,167.26a1,1,0,0,0-.72-.31.53.53,0,0,0-.42.15.38.38,0,0,0-.11.27.3.3,0,0,0,.1.24,1.71,1.71,0,0,0,.54.24l.32.12a1.71,1.71,0,0,1,.58.33,1.06,1.06,0,0,1,.31.79,1.53,1.53,0,0,1-.38,1.06,1.65,1.65,0,0,1-1.21.44,1.81,1.81,0,0,1-.84-.18,2.71,2.71,0,0,1-.63-.47l.51-.7a2.65,2.65,0,0,0,.4.33,1,1,0,0,0,.54.15.68.68,0,0,0,.45-.15.44.44,0,0,0,.15-.35.38.38,0,0,0-.15-.31,2.06,2.06,0,0,0-.5-.24l-.35-.12a1.44,1.44,0,0,1-.59-.34,1,1,0,0,1-.26-.74,1.31,1.31,0,0,1,.37-1,1.37,1.37,0,0,1,1.06-.39,2.06,2.06,0,0,1,1.27.42Z"/><path d="M29.21,166.74a2.27,2.27,0,0,1,0,3.21,2.28,2.28,0,0,1-1.65.63,2.35,2.35,0,0,1-1.66-.63,2.18,2.18,0,0,1-.66-1.59,2.38,2.38,0,0,1,.66-1.62,2.52,2.52,0,0,1,3.32,0Zm-2.59.65a1.31,1.31,0,0,0-.38,1,1.27,1.27,0,0,0,.39,1,1.26,1.26,0,0,0,.91.35,1.29,1.29,0,0,0,.95-.36,1.28,1.28,0,0,0,.37-1,1.34,1.34,0,0,0-.37-1,1.37,1.37,0,0,0-.94-.36A1.31,1.31,0,0,0,26.62,167.39Z"/><path d="M32.24,166.21v3.43h1.32v.83H31.25v-4.27Z"/><path d="M37.47,169.67H35.85l-.33.81h-1l1.72-4.27h.9l1.68,4.27h-1Zm-.27-.76-.52-1.43-.53,1.43Z"/><path d="M41.43,166.21a1.52,1.52,0,0,1,1.09.37,1.28,1.28,0,0,1,.37,1,1.17,1.17,0,0,1-.33.87,1.35,1.35,0,0,1-.6.33l1.31,1.75h-1.2l-1.15-1.68v1.68h-1v-4.27Zm-.51,1.94h.22a.81.81,0,0,0,.59-.19.58.58,0,0,0,.16-.42.52.52,0,0,0-.2-.43,1,1,0,0,0-.54-.13h-.23Z"/><path class="cls-2" d="M22.3,177.68v2.4h-.7v-5.6h2.12a1.6,1.6,0,1,1,0,3.2Zm1.4-.67a.93.93,0,1,0,0-1.86H22.3V177Z"/><path class="cls-2" d="M30,180.08h-.67v-2.64c0-.57-.25-.85-.74-.85a1.11,1.11,0,0,0-.9.49,2.07,2.07,0,0,0-.38,1.31v1.69h-.67v-5.66h.67v2.37a1.8,1.8,0,0,1,1.46-.81c.82,0,1.23.44,1.23,1.31Z"/><path class="cls-2" d="M31.22,178.07a2.15,2.15,0,0,1,.54-1.47,2,2,0,0,1,2.88,0,2.26,2.26,0,0,1,0,2.94,2,2,0,0,1-2.88,0A2.15,2.15,0,0,1,31.22,178.07Zm.69,0a1.6,1.6,0,0,0,.35,1,1.25,1.25,0,0,0,1.89,0,1.71,1.71,0,0,0,0-2.08,1.25,1.25,0,0,0-1.89,0A1.6,1.6,0,0,0,31.9,178.07Z"/><path class="cls-2" d="M36.21,176.66v-.61h1.07v-1.21l.67-.42v1.63h2v.61H38v2.06q0,.82.7.82a1.35,1.35,0,0,0,1-.48l.25.57a1.7,1.7,0,0,1-1.24.52,1.23,1.23,0,0,1-1.37-1.4v-2.09Z"/><path class="cls-2" d="M41.14,178.07a2.15,2.15,0,0,1,.54-1.47,2,2,0,0,1,2.88,0,2.26,2.26,0,0,1,0,2.94,2,2,0,0,1-2.88,0A2.15,2.15,0,0,1,41.14,178.07Zm.69,0a1.6,1.6,0,0,0,.35,1,1.25,1.25,0,0,0,1.89,0,1.71,1.71,0,0,0,0-2.08,1.25,1.25,0,0,0-1.89,0A1.6,1.6,0,0,0,41.82,178.07Z"/><path class="cls-2" d="M49.38,176.05h.73l-1.69,4h-.67l-1.69-4h.73l1.3,3.23Z"/><path class="cls-2" d="M51.06,178.07a2.15,2.15,0,0,1,.54-1.47,2,2,0,0,1,2.88,0,2.26,2.26,0,0,1,0,2.94,2,2,0,0,1-2.88,0A2.15,2.15,0,0,1,51.06,178.07Zm.69,0a1.6,1.6,0,0,0,.35,1,1.25,1.25,0,0,0,1.89,0A1.71,1.71,0,0,0,54,177a1.25,1.25,0,0,0-1.89,0A1.6,1.6,0,0,0,51.74,178.07Z"/><path class="cls-2" d="M57.13,175.09H56v-.61H57.8v4.08c0,.65.28,1,.85,1s.83-.33.94-1l.61.12a1.5,1.5,0,0,1-1.54,1.46,1.43,1.43,0,0,1-1.52-1.58Z"/><path class="cls-2" d="M61,176.66v-.61h1.07v-1.21l.67-.42v1.63h2v.61h-2v2.06q0,.82.7.82a1.35,1.35,0,0,0,1-.48l.25.57a1.7,1.7,0,0,1-1.24.52,1.23,1.23,0,0,1-1.37-1.4v-2.09Z"/><path class="cls-2" d="M69.64,180.08H69.1l-.1-.57a1.75,1.75,0,0,1-1.42.63,1.16,1.16,0,0,1-1.25-1.22c0-.87.68-1.32,1.82-1.32H69v-.18c0-.58-.38-.83-.93-.83a1,1,0,0,0-1,.69l-.59-.16A1.54,1.54,0,0,1,68,176a1.41,1.41,0,0,1,1.6,1.55Zm-2-.54a1.43,1.43,0,0,0,.88-.3,1.1,1.1,0,0,0,.41-.93v-.13h-.88c-.68,0-1.07.29-1.07.74A.59.59,0,0,0,67.68,179.54Z"/><path class="cls-2" d="M71.43,176.64v-.59h1.9v3.44h1.49v.59H71.27v-.59h1.39v-2.85ZM73,174.42a.55.55,0,0,1,.55.56.54.54,0,0,1-.55.54.55.55,0,0,1,0-1.1Z"/><path class="cls-2" d="M79.7,179a1.72,1.72,0,0,1-1.7,1.11,1.74,1.74,0,0,1-1.41-.61,2.34,2.34,0,0,1,0-2.94A1.74,1.74,0,0,1,78,176a1.72,1.72,0,0,1,1.7,1.11l-.58.24a1.13,1.13,0,0,0-1.12-.74c-.78,0-1.24.61-1.24,1.47s.46,1.47,1.24,1.47a1.13,1.13,0,0,0,1.12-.74Z"/></g></svg>