<svg id="Layer_1" data-name="Layer 1" xmlns="http://www.w3.org/2000/svg" viewBox="0 0 164 210"><defs><style>.cls-1{fill:#bf64ff;}</style></defs><title>solar-pvpv</title><circle class="cls-1" cx="65" cy="65.57" r="59.5"/><polygon points="124.5 6.07 107.5 23.07 124.5 23.07 124.5 6.07"/><polygon points="107.5 23.07 90.5 40.07 107.5 40.07 107.5 23.07"/><polygon points="90.5 40.07 73.5 57.07 90.5 57.07 90.5 40.07"/><polygon points="56.5 74.07 73.5 74.07 73.5 57.07 56.5 74.07 56.5 74.07 39.5 91.07 56.5 91.07 56.5 74.07"/><polygon points="22.5 108.07 39.5 108.07 39.5 91.07 22.5 108.07"/><polygon points="22.5 125.07 22.5 108.07 5.5 125.07 22.5 125.07"/><polygon points="124.5 40.07 124.5 23.07 56.5 91.07 39.5 108.07 22.5 125.07 39.5 125.07 73.5 91.07 73.5 159.07 90.5 159.07 90.5 91.07 82 82.57 124.5 40.07"/><path d="M141.5,74.07h0l-17,17h17l-17,17h17l17-17v-17h0v-17Zm0,17v-17h17Z"/><polygon points="124.5 108.07 124.5 91.07 107.5 108.07 124.5 108.07"/><polygon points="124.5 159.07 141.5 159.07 141.5 159.07 141.5 142.07 124.5 159.07"/><polygon points="158.5 142.07 141.5 159.07 158.5 159.07 158.5 142.07 158.5 142.07 158.5 125.07 141.5 142.07 158.5 142.07"/><path d="M8.83,187.82a1.3,1.3,0,0,0-.9-.38.67.67,0,0,0-.52.18.48.48,0,0,0-.14.34.37.37,0,0,0,.12.3,2.14,2.14,0,0,0,.67.3l.4.15a2.14,2.14,0,0,1,.73.41,1.33,1.33,0,0,1,.39,1,1.91,1.91,0,0,1-.47,1.32,2.07,2.07,0,0,1-1.51.54,2.26,2.26,0,0,1-1.06-.22,3.39,3.39,0,0,1-.78-.58l.64-.88a3.31,3.31,0,0,0,.5.41,1.24,1.24,0,0,0,.67.19.85.85,0,0,0,.56-.18.55.55,0,0,0,.19-.43.47.47,0,0,0-.18-.38,2.57,2.57,0,0,0-.62-.3l-.44-.15a1.8,1.8,0,0,1-.74-.42,1.31,1.31,0,0,1-.32-.93,1.64,1.64,0,0,1,.46-1.2,1.72,1.72,0,0,1,1.32-.49,2.58,2.58,0,0,1,1.58.53Z"/><path d="M16,187.17a2.84,2.84,0,0,1,0,4,2.85,2.85,0,0,1-2.06.78,2.94,2.94,0,0,1-2.08-.78,2.72,2.72,0,0,1-.83-2,3,3,0,0,1,.82-2,2.86,2.86,0,0,1,2.09-.78A2.85,2.85,0,0,1,16,187.17Zm-3.24.82a1.63,1.63,0,0,0-.47,1.21,1.59,1.59,0,0,0,.49,1.2,1.57,1.57,0,0,0,1.14.44,1.61,1.61,0,0,0,1.18-.46,1.6,1.6,0,0,0,.46-1.19,1.68,1.68,0,0,0-.46-1.2,1.71,1.71,0,0,0-1.17-.46A1.63,1.63,0,0,0,12.77,188Z"/><path d="M19.8,186.52v4.29h1.65v1H18.56v-5.33Z"/><path d="M26.33,190.84h-2l-.41,1H22.63l2.15-5.33h1.13l2.1,5.33H26.73ZM26,189.9l-.66-1.79-.66,1.79Z"/><path d="M31.28,186.52a1.91,1.91,0,0,1,1.36.46,1.6,1.6,0,0,1,.46,1.19,1.46,1.46,0,0,1-.42,1.09,1.68,1.68,0,0,1-.74.41l1.64,2.18h-1.5l-1.44-2.1v2.1H29.41v-5.33Zm-.64,2.42h.28a1,1,0,0,0,.74-.23.72.72,0,0,0,.2-.52.64.64,0,0,0-.25-.54,1.2,1.2,0,0,0-.68-.17h-.29Z"/><path class="cls-1" d="M7.37,200.85v3H6.49v-7H9.14a2,2,0,1,1,0,4ZM9.12,200a1.16,1.16,0,1,0,0-2.32H7.37V200Z"/><path class="cls-1" d="M17,203.85h-.84v-3.3c0-.71-.31-1.06-.93-1.06a1.39,1.39,0,0,0-1.12.61,2.58,2.58,0,0,0-.48,1.64v2.11h-.84v-7.08h.84v3a2.25,2.25,0,0,1,1.83-1c1,0,1.54.55,1.54,1.64Z"/><path class="cls-1" d="M18.52,201.33a2.68,2.68,0,0,1,.68-1.84,2.51,2.51,0,0,1,3.6,0,2.83,2.83,0,0,1,0,3.68,2.51,2.51,0,0,1-3.6,0A2.68,2.68,0,0,1,18.52,201.33Zm.86,0a2,2,0,0,0,.44,1.3,1.56,1.56,0,0,0,2.36,0,2.14,2.14,0,0,0,0-2.6,1.56,1.56,0,0,0-2.36,0A2,2,0,0,0,19.38,201.33Z"/><path class="cls-1" d="M24.76,199.57v-.76H26.1V197.3l.84-.53v2H29.4v.76H26.94v2.58q0,1,.87,1a1.69,1.69,0,0,0,1.24-.6l.31.71a2.12,2.12,0,0,1-1.55.65,1.54,1.54,0,0,1-1.71-1.75v-2.61Z"/><path class="cls-1" d="M30.92,201.33a2.68,2.68,0,0,1,.68-1.84,2.51,2.51,0,0,1,3.6,0,2.83,2.83,0,0,1,0,3.68,2.51,2.51,0,0,1-3.6,0A2.68,2.68,0,0,1,30.92,201.33Zm.86,0a2,2,0,0,0,.44,1.3,1.56,1.56,0,0,0,2.36,0,2.14,2.14,0,0,0,0-2.6,1.56,1.56,0,0,0-2.36,0A2,2,0,0,0,31.78,201.33Z"/><path class="cls-1" d="M41.22,198.81h.91l-2.11,5h-.84l-2.11-5H38l1.62,4Z"/><path class="cls-1" d="M43.32,201.33a2.68,2.68,0,0,1,.68-1.84,2.51,2.51,0,0,1,3.6,0,2.83,2.83,0,0,1,0,3.68,2.51,2.51,0,0,1-3.6,0A2.68,2.68,0,0,1,43.32,201.33Zm.86,0a2,2,0,0,0,.44,1.3,1.56,1.56,0,0,0,2.36,0,2.14,2.14,0,0,0,0-2.6,1.56,1.56,0,0,0-2.36,0A2,2,0,0,0,44.18,201.33Z"/><path class="cls-1" d="M50.91,197.61H49.52v-.76h2.23V202c0,.81.35,1.22,1.06,1.22s1-.41,1.17-1.22l.76.15a1.87,1.87,0,0,1-1.93,1.83,1.79,1.79,0,0,1-1.9-2Z"/><path class="cls-1" d="M55.76,199.57v-.76H57.1V197.3l.84-.53v2H60.4v.76H57.94v2.58q0,1,.87,1a1.69,1.69,0,0,0,1.24-.6l.31.71a2.12,2.12,0,0,1-1.55.65,1.54,1.54,0,0,1-1.71-1.75v-2.61Z"/><path class="cls-1" d="M66.55,203.85h-.68l-.12-.71a2.19,2.19,0,0,1-1.78.79,1.45,1.45,0,0,1-1.56-1.53c0-1.09.85-1.65,2.28-1.65h1v-.22c0-.73-.48-1-1.16-1a1.22,1.22,0,0,0-1.19.86l-.74-.2a1.92,1.92,0,0,1,1.93-1.42,1.76,1.76,0,0,1,2,1.94Zm-2.45-.68a1.79,1.79,0,0,0,1.1-.38,1.37,1.37,0,0,0,.51-1.16v-.16h-1.1c-.85,0-1.34.36-1.34.93A.74.74,0,0,0,64.1,203.17Z"/><path class="cls-1" d="M68.79,199.55v-.74h2.38v4.3H73v.74H68.59v-.74h1.74v-3.56Zm1.9-2.78a.69.69,0,0,1,.69.7.67.67,0,0,1-.69.68.69.69,0,0,1,0-1.38Z"/><path class="cls-1" d="M79.13,202.54A2.15,2.15,0,0,1,77,203.93a2.18,2.18,0,0,1-1.76-.76,2.93,2.93,0,0,1,0-3.68,2.18,2.18,0,0,1,1.76-.76,2.15,2.15,0,0,1,2.13,1.39l-.73.3a1.41,1.41,0,0,0-1.4-.93c-1,0-1.55.76-1.55,1.84s.58,1.84,1.55,1.84a1.41,1.41,0,0,0,1.4-.93Z"/></svg>