<svg id="Layer_1" data-name="Layer 1" xmlns="http://www.w3.org/2000/svg" viewBox="0 0 164 210"><defs><style>.cls-1{fill:#bf64ff;}</style></defs><title>syntheticfuels-h2gaspv</title><path d="M8.53,186.94a1.3,1.3,0,0,0-.9-.38.67.67,0,0,0-.52.18.48.48,0,0,0-.14.34.37.37,0,0,0,.12.3,2.14,2.14,0,0,0,.67.3l.4.15a2.14,2.14,0,0,1,.73.41,1.33,1.33,0,0,1,.39,1,1.91,1.91,0,0,1-.47,1.32,2.07,2.07,0,0,1-1.51.54,2.26,2.26,0,0,1-1.06-.22,3.39,3.39,0,0,1-.78-.58l.64-.88a3.31,3.31,0,0,0,.5.41,1.24,1.24,0,0,0,.67.19.85.85,0,0,0,.56-.18.55.55,0,0,0,.19-.43.47.47,0,0,0-.18-.38,2.57,2.57,0,0,0-.62-.3l-.44-.15a1.8,1.8,0,0,1-.74-.42,1.31,1.31,0,0,1-.32-.93,1.64,1.64,0,0,1,.46-1.2,1.72,1.72,0,0,1,1.32-.49,2.58,2.58,0,0,1,1.58.53Z"/><path d="M12.06,188.49l-1.91-2.85H11.6l1.07,1.66,1.07-1.66H15.2l-1.91,2.85V191H12.06Z"/><path d="M16.59,191v-5.33h1.07l2.89,3.44v-3.44h1.23V191H20.71l-2.89-3.45V191Z"/><path d="M25.63,186.68V191H24.4v-4.29H23.24v-1h3.55v1Z"/><path d="M29.47,187.67h2.13v-2h1.23V191H31.59v-2.26H29.47V191H28.24v-5.33h1.23Z"/><path d="M37.81,186.68H36v1h1.69v1H36v1.18h1.78v1h-3v-5.33h3Z"/><path d="M41.48,186.68V191H40.25v-4.29H39.09v-1h3.55v1Z"/><path d="M45.35,185.64V191H44.11v-5.33Z"/><path d="M51.19,190.81a2.48,2.48,0,0,1-1.17.29,2.86,2.86,0,0,1-2.1-.78,2.86,2.86,0,0,1,0-4,2.83,2.83,0,0,1,2-.77,3.18,3.18,0,0,1,1.28.3v1.42a1.69,1.69,0,0,0-1.25-.57,1.5,1.5,0,0,0-1.09.42,1.71,1.71,0,0,0-.5,1.23A1.56,1.56,0,0,0,50,189.94a1.68,1.68,0,0,0,1.22-.55Z"/><path d="M58.6,186.68H56.88v1h1.6v1h-1.6V191H55.64v-5.33h3Z"/><path d="M64.82,188.8a2.26,2.26,0,0,1-.59,1.69,2.58,2.58,0,0,1-3.33,0,2.26,2.26,0,0,1-.59-1.69v-3.16h1.23v3.13a1.26,1.26,0,0,0,.28.9,1.13,1.13,0,0,0,1.49,0,1.26,1.26,0,0,0,.28-.9v-3.13h1.23Z"/><path d="M69.8,186.68H68v1h1.69v1H68v1.18H69.8v1h-3v-5.33h3Z"/><path d="M72.84,185.64v4.29h1.65v1H71.6v-5.33Z"/><path d="M78.74,186.94a1.3,1.3,0,0,0-.9-.38.67.67,0,0,0-.52.18.48.48,0,0,0-.14.34.37.37,0,0,0,.12.3,2.14,2.14,0,0,0,.67.3l.4.15a2.14,2.14,0,0,1,.73.41,1.33,1.33,0,0,1,.39,1,1.91,1.91,0,0,1-.47,1.32,2.07,2.07,0,0,1-1.51.54,2.26,2.26,0,0,1-1.06-.22,3.39,3.39,0,0,1-.78-.58l.64-.88a3.31,3.31,0,0,0,.5.41,1.24,1.24,0,0,0,.67.19.85.85,0,0,0,.56-.18.55.55,0,0,0,.19-.43.47.47,0,0,0-.18-.38,2.57,2.57,0,0,0-.62-.3l-.44-.15a1.8,1.8,0,0,1-.74-.42,1.31,1.31,0,0,1-.32-.93,1.64,1.64,0,0,1,.46-1.2,1.72,1.72,0,0,1,1.32-.49,2.58,2.58,0,0,1,1.58.53Z"/><path class="cls-1" d="M9.83,196h.88v7H9.83v-3.3H6.76V203H5.88v-7h.88v2.86H9.83Z"/><path class="cls-1" d="M16.23,197.94h.91l-3,7.08h-.84l1-2.38-2.18-4.7h.94l1.69,3.69Z"/><path class="cls-1" d="M22.14,198.58V195.9H23V203h-.84v-.67a1.92,1.92,0,0,1-1.54.75,2.62,2.62,0,0,1,0-5.2A1.93,1.93,0,0,1,22.14,198.58Zm-3,1.88a2.07,2.07,0,0,0,.41,1.33,1.48,1.48,0,0,0,2.24,0,2.36,2.36,0,0,0,0-2.66,1.48,1.48,0,0,0-2.24,0A2.07,2.07,0,0,0,19.16,200.46Z"/><path class="cls-1" d="M28.54,199.54a.9.9,0,0,0-1-.92,1.47,1.47,0,0,0-1.21.67,3.06,3.06,0,0,0-.5,1.87V203H25v-5h.84v.93a2.08,2.08,0,0,1,1.86-1,1.56,1.56,0,0,1,1.66,1.68Z"/><path class="cls-1" d="M30.62,200.46a2.68,2.68,0,0,1,.68-1.84,2.51,2.51,0,0,1,3.6,0,2.83,2.83,0,0,1,0,3.68,2.51,2.51,0,0,1-3.6,0A2.68,2.68,0,0,1,30.62,200.46Zm.86,0a2,2,0,0,0,.44,1.3,1.56,1.56,0,0,0,2.36,0,2.14,2.14,0,0,0,0-2.6,1.56,1.56,0,0,0-2.36,0A2,2,0,0,0,31.48,200.46Z"/><path class="cls-1" d="M38.12,198.32a1.83,1.83,0,0,1,1.28-.46,2,2,0,0,1,1,.26l1-.54.38.69-.85.44a1.64,1.64,0,0,1,.21.84,1.61,1.61,0,0,1-.5,1.23,1.8,1.8,0,0,1-1.28.46,2,2,0,0,1-.93-.21c-.31.12-.46.29-.46.52s.24.42.71.42H40c1.08,0,1.69.48,1.69,1.39a1.44,1.44,0,0,1-.69,1.31,3.07,3.07,0,0,1-1.67.43c-1.47,0-2.33-.58-2.33-1.66a1.29,1.29,0,0,1,.52-1.08.92.92,0,0,1-.36-.77,1.06,1.06,0,0,1,.74-1,1.66,1.66,0,0,1-.31-1A1.61,1.61,0,0,1,38.12,198.32Zm.7,4.37a2.57,2.57,0,0,1-.52,0,.78.78,0,0,0-.43.76c0,.59.58.95,1.49.95s1.5-.35,1.5-.92-.28-.75-.85-.75Zm-.38-3.14a.93.93,0,0,0,.27.71,1,1,0,0,0,.69.26,1,1,0,0,0,.68-.25.91.91,0,0,0,.28-.72.89.89,0,0,0-.28-.71,1,1,0,0,0-.68-.26,1,1,0,0,0-.69.26A.93.93,0,0,0,38.44,199.55Z"/><path class="cls-1" d="M48,200.64H44a1.57,1.57,0,0,0,1.55,1.66,1.73,1.73,0,0,0,1.62-1l.67.35a2.42,2.42,0,0,1-2.29,1.41,2.27,2.27,0,0,1-1.75-.74,2.68,2.68,0,0,1-.66-1.86,2.75,2.75,0,0,1,.65-1.85,2.5,2.5,0,0,1,3.52,0,2.48,2.48,0,0,1,.63,1.73Zm-3.88-.76h3a1.43,1.43,0,0,0-1.5-1.26A1.45,1.45,0,0,0,44.08,199.88Z"/><path class="cls-1" d="M53.81,203H53v-3.33c0-.69-.31-1-.93-1a1.25,1.25,0,0,0-1,.64,2.92,2.92,0,0,0-.43,1.69v2h-.84v-5h.84v.93a2.06,2.06,0,0,1,1.71-1,1.42,1.42,0,0,1,1.54,1.61Z"/><path class="cls-1" d="M66.08,203l0-.94a1.85,1.85,0,0,1-1.76,1,2.59,2.59,0,0,1-2-.92,4.77,4.77,0,0,1,0-5.32,2.68,2.68,0,0,1,2.08-.92A2.5,2.5,0,0,1,66.84,198l-.83.25c-.32-1-.81-1.54-1.68-1.54-1.24,0-2,.89-2,2.74s.74,2.74,2,2.74c.95,0,1.48-.64,1.57-1.93H64.33v-.84h2.48V203Z"/><path class="cls-1" d="M72.45,203h-.68l-.12-.71a2.19,2.19,0,0,1-1.78.79,1.45,1.45,0,0,1-1.56-1.53c0-1.09.85-1.65,2.28-1.65h1v-.22c0-.73-.48-1-1.16-1a1.22,1.22,0,0,0-1.19.86l-.74-.2a1.92,1.92,0,0,1,1.93-1.42,1.76,1.76,0,0,1,2,1.94ZM70,202.29a1.79,1.79,0,0,0,1.1-.38,1.37,1.37,0,0,0,.51-1.16v-.16h-1.1c-.85,0-1.34.36-1.34.93A.74.74,0,0,0,70,202.29Z"/><path class="cls-1" d="M78.32,198.95l-.66.47a1.35,1.35,0,0,0-1.21-.8c-.48,0-.87.22-.87.67s.37.62,1.17.78a4.48,4.48,0,0,1,1,.3,1.12,1.12,0,0,1,.78,1.07,1.44,1.44,0,0,1-.56,1.19,2.39,2.39,0,0,1-3.57-1l.8-.3a1.41,1.41,0,0,0,1.39,1c.61,0,1.07-.27,1.07-.78s-.38-.54-1.3-.74-1.63-.57-1.63-1.46a1.3,1.3,0,0,1,.5-1.06,1.86,1.86,0,0,1,1.22-.4A2,2,0,0,1,78.32,198.95Z"/><path class="cls-1" d="M107.53,4.91a51,51,0,0,0-51,51,51,51,0,1,0,51,51,51,51,0,0,0,0-102Zm-51,119a17,17,0,1,1,17-17A17,17,0,0,1,56.53,123.91Zm51-51a17,17,0,1,1,17-17A17,17,0,0,1,107.53,72.91Z"/><circle cx="31.03" cy="81.41" r="8.5"/><circle cx="133.03" cy="81.41" r="8.5"/></svg>