<svg xmlns="http://www.w3.org/2000/svg" viewBox="0 0 164 202"><defs><style>.cls-1{fill:#efefef;}.cls-2{fill:#bf64ff;}</style></defs><title>syntheticfuels-h2gas</title><g id="bg"><rect class="cls-1" width="164" height="202"/></g><g id="Layer_1" data-name="Layer 1"><path d="M23.22,166.56a1,1,0,0,0-.72-.31.53.53,0,0,0-.42.15.38.38,0,0,0-.11.27.3.3,0,0,0,.1.24,1.71,1.71,0,0,0,.54.24l.32.12a1.71,1.71,0,0,1,.58.33,1.06,1.06,0,0,1,.31.79,1.53,1.53,0,0,1-.38,1.06,1.65,1.65,0,0,1-1.21.44,1.81,1.81,0,0,1-.84-.18,2.71,2.71,0,0,1-.63-.47l.51-.7a2.65,2.65,0,0,0,.4.33,1,1,0,0,0,.54.15.68.68,0,0,0,.45-.15.44.44,0,0,0,.15-.35.38.38,0,0,0-.15-.31,2.06,2.06,0,0,0-.5-.24l-.35-.12a1.44,1.44,0,0,1-.59-.34,1,1,0,0,1-.26-.74,1.31,1.31,0,0,1,.37-1,1.37,1.37,0,0,1,1.06-.39,2.06,2.06,0,0,1,1.27.42Z"/><path d="M26,167.79l-1.53-2.28h1.16l.86,1.32.86-1.32h1.16L27,167.79v2H26Z"/><path d="M29.67,169.78v-4.27h.86l2.32,2.75v-2.75h1v4.27H33L30.66,167v2.76Z"/><path d="M36.9,166.34v3.43h-1v-3.43H35v-.83h2.84v.83Z"/><path d="M40,167.14h1.7v-1.62h1v4.27h-1V168H40v1.81H39v-4.27h1Z"/><path d="M46.65,166.34H45.22v.82h1.36V168H45.22v.95h1.43v.83H44.24v-4.27h2.41Z"/><path d="M49.59,166.34v3.43h-1v-3.43h-.93v-.83h2.84v.83Z"/><path d="M52.68,165.51v4.27h-1v-4.27Z"/><path d="M57.36,169.65a2,2,0,0,1-.94.23,2.29,2.29,0,0,1-1.68-.62,2.29,2.29,0,0,1,0-3.22,2.27,2.27,0,0,1,1.59-.61,2.54,2.54,0,0,1,1,.24v1.14a1.35,1.35,0,0,0-1-.45,1.2,1.2,0,0,0-.87.33,1.37,1.37,0,0,0-.4,1,1.25,1.25,0,0,0,1.29,1.3,1.35,1.35,0,0,0,1-.44Z"/><path d="M63.28,166.34H61.9v.82h1.28V168H61.9v1.78h-1v-4.27h2.37Z"/><path d="M68.25,168a1.81,1.81,0,0,1-.47,1.35,2.06,2.06,0,0,1-2.66,0,1.81,1.81,0,0,1-.47-1.35v-2.53h1V168a1,1,0,0,0,.22.72.9.9,0,0,0,1.19,0,1,1,0,0,0,.22-.72v-2.5h1Z"/><path d="M72.24,166.34H70.82v.82h1.36V168H70.82v.95h1.43v.83H69.83v-4.27h2.41Z"/><path d="M74.67,165.51v3.43H76v.83H73.68v-4.27Z"/><path d="M79.39,166.56a1,1,0,0,0-.72-.31.53.53,0,0,0-.42.15.38.38,0,0,0-.11.27.3.3,0,0,0,.1.24,1.71,1.71,0,0,0,.54.24l.32.12a1.71,1.71,0,0,1,.58.33,1.06,1.06,0,0,1,.31.79,1.53,1.53,0,0,1-.38,1.06,1.65,1.65,0,0,1-1.21.44,1.81,1.81,0,0,1-.84-.18,2.71,2.71,0,0,1-.63-.47l.51-.7a2.65,2.65,0,0,0,.4.33,1,1,0,0,0,.54.15.68.68,0,0,0,.45-.15.44.44,0,0,0,.15-.35.38.38,0,0,0-.15-.31,2.06,2.06,0,0,0-.5-.24l-.35-.12a1.44,1.44,0,0,1-.59-.34,1,1,0,0,1-.26-.74,1.31,1.31,0,0,1,.37-1,1.37,1.37,0,0,1,1.06-.39,2.06,2.06,0,0,1,1.27.42Z"/><path class="cls-2" d="M24.27,173.78H25v5.6h-.7v-2.64H21.81v2.64h-.7v-5.6h.7v2.29h2.46Z"/><path class="cls-2" d="M29.39,175.35h.73L27.72,181h-.67l.78-1.9-1.74-3.76h.75l1.35,3Z"/><path class="cls-2" d="M34.12,175.86v-2.14h.67v5.66h-.67v-.54a1.54,1.54,0,0,1-1.23.6,2.09,2.09,0,0,1,0-4.16A1.54,1.54,0,0,1,34.12,175.86Zm-2.39,1.5a1.66,1.66,0,0,0,.33,1.06,1.19,1.19,0,0,0,1.79,0,1.89,1.89,0,0,0,0-2.13,1.19,1.19,0,0,0-1.79,0A1.66,1.66,0,0,0,31.73,177.36Z"/><path class="cls-2" d="M39.24,176.63a.72.72,0,0,0-.77-.74,1.17,1.17,0,0,0-1,.54,2.45,2.45,0,0,0-.4,1.5v1.46h-.67v-4h.67v.74a1.67,1.67,0,0,1,1.49-.81,1.25,1.25,0,0,1,1.33,1.34Z"/><path class="cls-2" d="M40.89,177.36a2.15,2.15,0,0,1,.54-1.47,2,2,0,0,1,2.88,0,2.26,2.26,0,0,1,0,2.94,2,2,0,0,1-2.88,0A2.15,2.15,0,0,1,40.89,177.36Zm.69,0a1.6,1.6,0,0,0,.35,1,1.25,1.25,0,0,0,1.89,0,1.71,1.71,0,0,0,0-2.08,1.25,1.25,0,0,0-1.89,0A1.6,1.6,0,0,0,41.58,177.36Z"/><path class="cls-2" d="M46.89,175.65a1.46,1.46,0,0,1,1-.37,1.58,1.58,0,0,1,.79.21l.84-.43.3.55-.68.35a1.31,1.31,0,0,1,.17.67,1.29,1.29,0,0,1-.4,1,1.44,1.44,0,0,1-1,.37,1.6,1.6,0,0,1-.74-.17c-.25.1-.37.23-.37.42s.19.34.57.34h1c.86,0,1.35.38,1.35,1.11a1.15,1.15,0,0,1-.55,1,2.46,2.46,0,0,1-1.34.34c-1.18,0-1.86-.46-1.86-1.33a1,1,0,0,1,.42-.86.74.74,0,0,1-.29-.62.85.85,0,0,1,.59-.81,1.33,1.33,0,0,1-.25-.82A1.29,1.29,0,0,1,46.89,175.65Zm.56,3.49a2.06,2.06,0,0,1-.42,0,.62.62,0,0,0-.34.61c0,.47.46.76,1.19.76s1.2-.28,1.2-.74-.22-.6-.68-.6Zm-.3-2.51a.75.75,0,0,0,.22.57.8.8,0,0,0,.55.21.76.76,0,0,0,.54-.2.73.73,0,0,0,.22-.58.71.71,0,0,0-.22-.57.77.77,0,0,0-.54-.21.8.8,0,0,0-.55.21A.75.75,0,0,0,47.15,176.64Z"/><path class="cls-2" d="M54.76,177.51H51.61a1.25,1.25,0,0,0,1.24,1.33,1.39,1.39,0,0,0,1.3-.8l.54.28a1.93,1.93,0,0,1-1.83,1.13,1.81,1.81,0,0,1-1.4-.59,2.14,2.14,0,0,1-.53-1.49,2.2,2.2,0,0,1,.52-1.48,2,2,0,0,1,2.81,0,2,2,0,0,1,.5,1.38Zm-3.1-.61h2.39a1.14,1.14,0,0,0-1.2-1A1.16,1.16,0,0,0,51.66,176.9Z"/><path class="cls-2" d="M59.45,179.38h-.67v-2.66c0-.55-.25-.82-.74-.82a1,1,0,0,0-.84.51,2.33,2.33,0,0,0-.34,1.35v1.62h-.67v-4h.67v.74a1.65,1.65,0,0,1,1.37-.81,1.14,1.14,0,0,1,1.23,1.29Z"/><path class="cls-2" d="M69.26,179.38l0-.75a1.48,1.48,0,0,1-1.41.82,2.07,2.07,0,0,1-1.62-.74,3.82,3.82,0,0,1,0-4.25,2.14,2.14,0,0,1,1.66-.74,2,2,0,0,1,2,1.7l-.66.2c-.26-.83-.65-1.23-1.34-1.23-1,0-1.58.71-1.58,2.19s.59,2.19,1.58,2.19c.76,0,1.18-.51,1.26-1.54H67.86v-.67h2v2.82Z"/><path class="cls-2" d="M74.36,179.38h-.54l-.1-.57a1.75,1.75,0,0,1-1.42.63A1.16,1.16,0,0,1,71,178.22c0-.87.68-1.32,1.82-1.32h.82v-.18c0-.58-.38-.83-.93-.83a1,1,0,0,0-1,.69l-.59-.16a1.54,1.54,0,0,1,1.54-1.14,1.41,1.41,0,0,1,1.6,1.55Zm-2-.54a1.43,1.43,0,0,0,.88-.3,1.1,1.1,0,0,0,.41-.93v-.13h-.88c-.68,0-1.07.29-1.07.74A.59.59,0,0,0,72.4,178.84Z"/><path class="cls-2" d="M79.05,176.16l-.53.38a1.08,1.08,0,0,0-1-.64c-.38,0-.7.18-.7.54s.3.5.94.62a3.59,3.59,0,0,1,.82.24.9.9,0,0,1,.62.86,1.15,1.15,0,0,1-.45,1,1.91,1.91,0,0,1-2.85-.82l.64-.24a1.13,1.13,0,0,0,1.11.8c.49,0,.86-.22.86-.62s-.3-.43-1-.59-1.3-.46-1.3-1.17a1,1,0,0,1,.4-.85,1.49,1.49,0,0,1,1-.32A1.57,1.57,0,0,1,79.05,176.16Z"/><path class="cls-2" d="M102.43,20.93a40.8,40.8,0,0,0-40.8,40.8,40.8,40.8,0,1,0,40.8,40.8,40.8,40.8,0,1,0,0-81.6Zm-40.8,95.2a13.6,13.6,0,1,1,13.6-13.6A13.6,13.6,0,0,1,61.63,116.13Zm40.8-40.8A13.6,13.6,0,1,1,116,61.73,13.6,13.6,0,0,1,102.43,75.33Z"/><circle cx="41.23" cy="82.13" r="6.8"/><circle cx="122.83" cy="82.13" r="6.8"/></g></svg>