<svg xmlns="http://www.w3.org/2000/svg" viewBox="0 0 164 202"><defs><style>.cls-1{fill:#efefef;}.cls-2{fill:#be64ff;}</style></defs><title>water-vertturbine</title><g id="bg"><rect class="cls-1" width="164" height="202"/></g><g id="Layer_1" data-name="Layer 1"><path class="cls-2" d="M20.8,35.49a13.6,13.6,0,0,0,27.2,0,13.6,13.6,0,0,0,27.2,0,13.6,13.6,0,0,0,27.2,0,13.6,13.6,0,1,0,27.2,0,13.6,13.6,0,0,0,13.6,13.6v95.2H20.8Z"/><rect x="75.2" y="21.89" width="13.6" height="81.6"/><rect x="48" y="89.89" width="68" height="13.6"/><polygon points="48 130.69 61.6 117.09 61.6 76.29 48 62.69 48 130.69"/><polygon points="102.4 117.09 116 130.69 116 62.69 102.4 76.29 102.4 117.09"/><path d="M48,35.49h68a0,0,0,0,1,0,0v3.6a10,10,0,0,1-10,10H58a10,10,0,0,1-10-10v-3.6A0,0,0,0,1,48,35.49Z"/><path d="M21.83,166.1l.91,2.85.91-2.85h.68l.91,2.85.91-2.85h1l-1.46,4.29H24.9l-.9-2.61-.9,2.61h-.84L20.8,166.1Z"/><path d="M30.59,169.59H29l-.33.81h-1l1.73-4.29h.91l1.69,4.29h-1Zm-.27-.76-.53-1.44-.53,1.44Z"/><path d="M34.3,166.94v3.46h-1v-3.46h-.93v-.84h2.86v.84Z"/><path d="M38.82,166.94H37.39v.83h1.36v.84H37.39v1h1.44v.84H36.4V166.1h2.43Z"/><path d="M41.77,166.1a1.53,1.53,0,0,1,1.09.37,1.29,1.29,0,0,1,.37,1,1.17,1.17,0,0,1-.33.88,1.36,1.36,0,0,1-.6.33l1.32,1.76H42.42l-1.16-1.69v1.69h-1V166.1Zm-.52,2h.23a.81.81,0,0,0,.59-.19.58.58,0,0,0,.16-.42A.52.52,0,0,0,42,167a1,1,0,0,0-.55-.14h-.23Z"/><path class="cls-2" d="M21.16,175.1v-.68h4.21v.68H23.62v5h-.71v-5Z"/><path class="cls-2" d="M26.8,176.59V176h1.91v3.46h1.5v.6H26.64v-.6H28v-2.86Zm1.53-2.24a.55.55,0,0,1,.55.56.54.54,0,0,1-.55.55.55.55,0,1,1,0-1.11Z"/><path class="cls-2" d="M34.4,176.51v-2.16h.68V180H34.4v-.54a1.55,1.55,0,0,1-1.24.6,2.11,2.11,0,0,1,0-4.18A1.55,1.55,0,0,1,34.4,176.51ZM32,178a1.67,1.67,0,0,0,.33,1.07,1.19,1.19,0,0,0,1.8,0,1.9,1.9,0,0,0,0-2.14,1.19,1.19,0,0,0-1.8,0A1.67,1.67,0,0,0,32,178Z"/><path class="cls-2" d="M40,180h-.55l-.1-.57a1.77,1.77,0,0,1-1.43.64,1.16,1.16,0,0,1-1.25-1.23c0-.88.68-1.33,1.83-1.33h.82v-.18c0-.59-.39-.84-.93-.84a1,1,0,0,0-1,.69l-.6-.16a1.55,1.55,0,0,1,1.55-1.14A1.42,1.42,0,0,1,40,177.49Zm-2-.55a1.44,1.44,0,0,0,.88-.31,1.1,1.1,0,0,0,.41-.93v-.13h-.88c-.68,0-1.08.29-1.08.75A.6.6,0,0,0,38,179.5Z"/><path class="cls-2" d="M42.33,175H41.22v-.61H43v4.1c0,.65.28,1,.85,1s.84-.33.94-1l.61.12a1.5,1.5,0,0,1-1.55,1.47,1.44,1.44,0,0,1-1.53-1.59Z"/><path class="cls-2" d="M54.76,174.42h.73l-2,5.63h-.68l-2-5.63h.73L53.18,179Z"/><path class="cls-2" d="M60.15,178.17H57a1.26,1.26,0,0,0,1.25,1.33,1.39,1.39,0,0,0,1.3-.8l.54.28a1.94,1.94,0,0,1-1.84,1.13,1.82,1.82,0,0,1-1.41-.6,2.15,2.15,0,0,1-.53-1.5,2.21,2.21,0,0,1,.52-1.49,2,2,0,0,1,2.83,0,2,2,0,0,1,.51,1.39ZM57,177.56h2.4a1.15,1.15,0,0,0-1.21-1A1.17,1.17,0,0,0,57,177.56Z"/><path class="cls-2" d="M64.48,177.28a.73.73,0,0,0-.78-.74,1.18,1.18,0,0,0-1,.54,2.46,2.46,0,0,0-.4,1.5V180h-.68V176h.68v.75a1.68,1.68,0,0,1,1.5-.81,1.26,1.26,0,0,1,1.33,1.35Z"/><path class="cls-2" d="M66.18,176.61V176h1.08v-1.21l.68-.43V176h2v.61h-2v2.07q0,.82.7.82a1.36,1.36,0,0,0,1-.48l.25.57a1.71,1.71,0,0,1-1.25.52,1.24,1.24,0,0,1-1.37-1.41v-2.1Z"/><path class="cls-2" d="M77.77,174.42h.68l2,5.63h-.73l-.51-1.5H77L76.5,180h-.73Zm.34.92-.87,2.53H79Z"/><path class="cls-2" d="M84,176h.8l-1.32,1.91L84.94,180h-.76l-1.08-1.59L82,180h-.76l1.47-2.15L81.41,176h.8l.89,1.34Z"/><path class="cls-2" d="M86.63,176.59V176h1.91v3.46H90v.6H86.47v-.6h1.4v-2.86Zm1.53-2.24a.55.55,0,0,1,.55.56.54.54,0,0,1-.55.55.55.55,0,1,1,0-1.11Z"/><path class="cls-2" d="M94.53,176.81l-.53.38a1.08,1.08,0,0,0-1-.64c-.39,0-.7.18-.7.54s.3.5.94.63a3.6,3.6,0,0,1,.83.24.9.9,0,0,1,.63.86,1.16,1.16,0,0,1-.45,1,1.92,1.92,0,0,1-2.87-.83l.64-.24a1.13,1.13,0,0,0,1.12.8c.49,0,.86-.22.86-.63s-.31-.43-1-.6-1.31-.46-1.31-1.17a1,1,0,0,1,.4-.85,1.5,1.5,0,0,1,1-.32A1.58,1.58,0,0,1,94.53,176.81Z"/><path class="cls-2" d="M100.93,175.1v-.68h4.21v.68h-1.75v5h-.71v-5Z"/><path class="cls-2" d="M106.36,176H107v2.68c0,.55.25.83.75.83a1,1,0,0,0,.84-.51,2.39,2.39,0,0,0,.35-1.37V176h.68V180H109v-.75a1.66,1.66,0,0,1-1.38.81,1.14,1.14,0,0,1-1.24-1.29Z"/><path class="cls-2" d="M114.34,177.28a.73.73,0,0,0-.78-.74,1.18,1.18,0,0,0-1,.54,2.46,2.46,0,0,0-.4,1.5V180h-.68V176h.68v.75a1.68,1.68,0,0,1,1.5-.81,1.26,1.26,0,0,1,1.33,1.35Z"/><path class="cls-2" d="M117,179.51V180h-.68v-5.69H117v2.16a1.55,1.55,0,0,1,1.24-.58,2.11,2.11,0,0,1,0,4.18A1.55,1.55,0,0,1,117,179.51Zm2.4-1.49a1.66,1.66,0,0,0-.33-1.07,1.19,1.19,0,0,0-1.8,0,1.9,1.9,0,0,0,0,2.14,1.19,1.19,0,0,0,1.8,0A1.66,1.66,0,0,0,119.39,178Z"/><path class="cls-2" d="M121.53,176.59V176h1.91v3.46h1.5v.6h-3.57v-.6h1.4v-2.86Zm1.53-2.24a.55.55,0,0,1,.55.56.54.54,0,0,1-.55.55.55.55,0,1,1,0-1.11Z"/><path class="cls-2" d="M129.67,180H129v-2.68c0-.55-.25-.83-.75-.83a1,1,0,0,0-.84.51,2.34,2.34,0,0,0-.35,1.36V180h-.68V176h.68v.75a1.66,1.66,0,0,1,1.38-.81,1.14,1.14,0,0,1,1.24,1.29Z"/><path class="cls-2" d="M134.93,178.17h-3.17A1.26,1.26,0,0,0,133,179.5a1.39,1.39,0,0,0,1.3-.8l.54.28a1.94,1.94,0,0,1-1.84,1.13,1.82,1.82,0,0,1-1.41-.6,2.15,2.15,0,0,1-.53-1.5,2.21,2.21,0,0,1,.52-1.49,2,2,0,0,1,2.83,0,2,2,0,0,1,.51,1.39Zm-3.12-.61h2.4a1.15,1.15,0,0,0-1.21-1A1.17,1.17,0,0,0,131.81,177.56Z"/></g></svg>