<svg xmlns="http://www.w3.org/2000/svg" viewBox="0 0 164 202"><defs><style>.cls-1{fill:#efefef;}.cls-2{fill:#bf64ff;}</style></defs><title>water-horizturbine</title><g id="bg"><rect class="cls-1" width="164" height="202"/></g><g id="Layer_1" data-name="Layer 1"><path class="cls-2" d="M21.05,22.12a13.6,13.6,0,1,0,27.2,0,13.6,13.6,0,1,0,27.2,0,13.6,13.6,0,1,0,27.2,0,13.6,13.6,0,0,0,27.2,0,13.6,13.6,0,0,0,13.6,13.6v95.2H21.05Z"/><path d="M102.37,76.52H75.45V49.32H61.85v95.2h13.6V90.12h26.92a.28.28,0,0,0,.28-.28v-13A.28.28,0,0,0,102.37,76.52Z"/><polygon points="89.05 49.32 89.05 76.52 102.65 62.92 89.05 49.32"/><polygon points="102.65 103.72 89.05 90.12 89.05 117.32 102.65 103.72"/><path d="M21.57,165.95l.91,2.83.91-2.83h.68l.91,2.83.91-2.83h1l-1.45,4.27h-.83l-.9-2.59-.9,2.59H22l-1.45-4.27Z"/><path d="M30.28,169.41H28.67l-.33.81h-1L29,165.95h.9l1.68,4.27h-1Zm-.27-.76-.52-1.43L29,168.65Z"/><path d="M34,166.78v3.43H33v-3.43h-.93v-.83H34.9v.83Z"/><path d="M38.47,166.78H37v.82H38.4v.83H37v.95h1.43v.83H36.06v-4.27h2.41Z"/><path d="M41.41,165.95a1.52,1.52,0,0,1,1.09.37,1.28,1.28,0,0,1,.37,1,1.17,1.17,0,0,1-.33.87,1.35,1.35,0,0,1-.6.33l1.31,1.75H42l-1.15-1.68v1.68h-1v-4.27Zm-.51,1.94h.22a.81.81,0,0,0,.59-.19.58.58,0,0,0,.16-.42.52.52,0,0,0-.2-.43,1,1,0,0,0-.54-.13H40.9Z"/><path class="cls-2" d="M20.9,174.89v-.67h4.19v.67H23.35v4.93h-.7v-4.93Z"/><path class="cls-2" d="M26.51,176.38v-.59h1.9v3.44H29.9v.59H26.35v-.59h1.39v-2.85ZM28,174.15a.55.55,0,0,1,.55.56.54.54,0,0,1-.55.54.55.55,0,0,1,0-1.1Z"/><path class="cls-2" d="M34.08,176.3v-2.14h.67v5.66h-.67v-.54a1.54,1.54,0,0,1-1.23.6,2.09,2.09,0,0,1,0-4.16A1.54,1.54,0,0,1,34.08,176.3Zm-2.39,1.5a1.66,1.66,0,0,0,.33,1.06,1.19,1.19,0,0,0,1.79,0,1.89,1.89,0,0,0,0-2.13,1.19,1.19,0,0,0-1.79,0A1.66,1.66,0,0,0,31.69,177.8Z"/><path class="cls-2" d="M39.6,179.82h-.54l-.1-.57a1.75,1.75,0,0,1-1.42.63,1.16,1.16,0,0,1-1.25-1.22c0-.87.68-1.32,1.82-1.32h.82v-.18c0-.58-.38-.83-.93-.83a1,1,0,0,0-1,.69l-.59-.16A1.54,1.54,0,0,1,38,175.72a1.41,1.41,0,0,1,1.6,1.55Zm-2-.54a1.43,1.43,0,0,0,.88-.3,1.1,1.1,0,0,0,.41-.93v-.13H38c-.68,0-1.07.29-1.07.74A.59.59,0,0,0,37.64,179.27Z"/><path class="cls-2" d="M42,174.83H40.86v-.61h1.78v4.08c0,.65.28,1,.85,1s.83-.33.94-1l.61.12a1.5,1.5,0,0,1-1.54,1.46A1.43,1.43,0,0,1,42,178.3Z"/><path class="cls-2" d="M54,174.22h.7v5.6H54v-2.64H51.53v2.64h-.7v-5.6h.7v2.29H54Z"/><path class="cls-2" d="M55.74,177.8a2.15,2.15,0,0,1,.54-1.47,2,2,0,0,1,2.88,0,2.26,2.26,0,0,1,0,2.94,2,2,0,0,1-2.88,0A2.15,2.15,0,0,1,55.74,177.8Zm.69,0a1.6,1.6,0,0,0,.35,1,1.25,1.25,0,0,0,1.89,0,1.71,1.71,0,0,0,0-2.08,1.25,1.25,0,0,0-1.89,0A1.6,1.6,0,0,0,56.43,177.8Z"/><path class="cls-2" d="M64,177.07a.72.72,0,0,0-.77-.74,1.17,1.17,0,0,0-1,.54,2.45,2.45,0,0,0-.4,1.5v1.46h-.67v-4h.67v.74a1.67,1.67,0,0,1,1.49-.81,1.25,1.25,0,0,1,1.33,1.34Z"/><path class="cls-2" d="M66.19,176.38v-.59h1.9v3.44h1.49v.59H66v-.59h1.39v-2.85Zm1.52-2.22a.55.55,0,0,1,.55.56.54.54,0,0,1-.55.54.55.55,0,0,1,0-1.1Z"/><path class="cls-2" d="M71.11,176.39v-.61h3v.29L72,179.21h2.23v.61H71v-.29l2.11-3.13Z"/><path class="cls-2" d="M82.19,174.22h.67l2,5.6h-.73l-.5-1.5H81.43l-.5,1.5h-.73Zm.34.91-.86,2.52h1.73Z"/><path class="cls-2" d="M88.37,175.79h.79l-1.31,1.89,1.46,2.13h-.76l-1.07-1.58-1.07,1.58h-.76l1.46-2.13-1.31-1.89h.79l.89,1.34Z"/><path class="cls-2" d="M91,176.38v-.59h1.9v3.44h1.49v.59H90.83v-.59h1.39v-2.85Zm1.52-2.22a.55.55,0,0,1,.55.56.54.54,0,0,1-.55.54.55.55,0,0,1,0-1.1Z"/><path class="cls-2" d="M98.86,176.59l-.53.38a1.08,1.08,0,0,0-1-.64c-.38,0-.7.18-.7.54s.3.5.94.62a3.59,3.59,0,0,1,.82.24.9.9,0,0,1,.62.86,1.15,1.15,0,0,1-.45,1,1.91,1.91,0,0,1-2.85-.82l.64-.24a1.13,1.13,0,0,0,1.11.8c.49,0,.86-.22.86-.62s-.3-.43-1-.59-1.3-.46-1.3-1.17a1,1,0,0,1,.4-.85,1.49,1.49,0,0,1,1-.32A1.57,1.57,0,0,1,98.86,176.59Z"/><path class="cls-2" d="M105.23,174.89v-.67h4.19v.67h-1.74v4.93H107v-4.93Z"/><path class="cls-2" d="M110.63,175.79h.67v2.66c0,.55.25.82.74.82a1,1,0,0,0,.84-.5,2.38,2.38,0,0,0,.34-1.36v-1.62h.67v4h-.67v-.74a1.65,1.65,0,0,1-1.37.81,1.14,1.14,0,0,1-1.23-1.29Z"/><path class="cls-2" d="M118.56,177.07a.72.72,0,0,0-.77-.74,1.17,1.17,0,0,0-1,.54,2.45,2.45,0,0,0-.4,1.5v1.46h-.67v-4h.67v.74a1.67,1.67,0,0,1,1.49-.81,1.25,1.25,0,0,1,1.33,1.34Z"/><path class="cls-2" d="M121.19,179.28v.54h-.67v-5.66h.67v2.14a1.54,1.54,0,0,1,1.23-.58,2.09,2.09,0,0,1,0,4.16A1.54,1.54,0,0,1,121.19,179.28Zm2.39-1.48a1.66,1.66,0,0,0-.33-1.06,1.19,1.19,0,0,0-1.79,0,1.89,1.89,0,0,0,0,2.13,1.19,1.19,0,0,0,1.79,0A1.66,1.66,0,0,0,123.59,177.8Z"/><path class="cls-2" d="M125.72,176.38v-.59h1.9v3.44h1.49v.59h-3.55v-.59h1.39v-2.85Zm1.52-2.22a.55.55,0,0,1,.55.56.54.54,0,0,1-.55.54.55.55,0,0,1,0-1.1Z"/><path class="cls-2" d="M133.82,179.82h-.67v-2.66c0-.55-.25-.82-.74-.82a1,1,0,0,0-.84.51,2.33,2.33,0,0,0-.34,1.35v1.62h-.67v-4h.67v.74a1.65,1.65,0,0,1,1.37-.81,1.14,1.14,0,0,1,1.23,1.29Z"/><path class="cls-2" d="M139,177.94H135.9a1.25,1.25,0,0,0,1.24,1.33,1.39,1.39,0,0,0,1.3-.8l.54.28a1.93,1.93,0,0,1-1.83,1.13,1.81,1.81,0,0,1-1.4-.59,2.14,2.14,0,0,1-.53-1.49,2.2,2.2,0,0,1,.52-1.48,2,2,0,0,1,2.81,0,2,2,0,0,1,.5,1.38Zm-3.1-.61h2.39a1.14,1.14,0,0,0-1.2-1A1.16,1.16,0,0,0,135.95,177.34Z"/></g></svg>