<svg id="Layer_1" data-name="Layer 1" xmlns="http://www.w3.org/2000/svg" viewBox="0 0 164 210"><defs><style>.cls-1{fill:#bf64ff;}</style></defs><title>water-wpapv</title><path class="cls-1" d="M158.65,40.4v102H5.65V6.4h10a58,58,0,0,1,41,17l17,17a58,58,0,0,0,41,17h2.92a58,58,0,0,0,41-17h0"/><path d="M73.65,40.4h0v51h17v-51a17,17,0,0,0,17-17h-17V6.4h-17v17h-17A17,17,0,0,0,73.65,40.4Z"/><polygon points="73.65 125.4 90.65 108.4 90.65 91.4 73.65 108.4 73.65 125.4"/><polygon points="90.65 125.4 73.65 142.4 56.65 142.4 56.65 159.4 107.65 159.4 107.65 142.4 90.65 142.4 90.65 125.4"/><path d="M6.63,186.19l1.13,3.53,1.14-3.53h.85l1.13,3.53L12,186.19H13.3l-1.81,5.33h-1l-1.12-3.24L8.2,191.52h-1l-1.81-5.33Z"/><path d="M17.51,190.51h-2l-.41,1H13.81L16,186.19h1.13l2.1,5.33H17.91Zm-.34-.94-.66-1.79-.66,1.79Z"/><path d="M22.13,187.23v4.29H20.9v-4.29H19.74v-1h3.55v1Z"/><path d="M27.75,187.23H26v1h1.69v1H26v1.18h1.78v1h-3v-5.33h3Z"/><path d="M31.43,186.19a1.91,1.91,0,0,1,1.36.46,1.6,1.6,0,0,1,.46,1.19,1.46,1.46,0,0,1-.42,1.09,1.68,1.68,0,0,1-.74.41l1.64,2.18h-1.5l-1.44-2.1v2.1H29.56v-5.33Zm-.64,2.42h.28a1,1,0,0,0,.74-.23.72.72,0,0,0,.2-.52.64.64,0,0,0-.25-.54,1.2,1.2,0,0,0-.68-.17h-.29Z"/><path class="cls-1" d="M10.29,196.52h.91l-.67,7H9.44l-1-4.11-1,4.11H6.3l-.67-7h.91l.42,5.7L8,198h.8l1.06,4.27Z"/><path class="cls-1" d="M16.76,203.52h-.68l-.12-.71a2.19,2.19,0,0,1-1.78.79,1.45,1.45,0,0,1-1.56-1.53c0-1.09.85-1.65,2.28-1.65h1v-.22c0-.73-.48-1-1.16-1a1.22,1.22,0,0,0-1.19.86l-.74-.2a1.92,1.92,0,0,1,1.93-1.42,1.76,1.76,0,0,1,2,1.94Zm-2.45-.68a1.79,1.79,0,0,0,1.1-.38,1.37,1.37,0,0,0,.51-1.16v-.16h-1.1c-.85,0-1.34.36-1.34.93A.74.74,0,0,0,14.32,202.84Z"/><path class="cls-1" d="M22.43,198.48h.91l-2.11,5H20.4l-2.11-5h.91l1.62,4Z"/><path class="cls-1" d="M29.47,201.18H25.54a1.57,1.57,0,0,0,1.55,1.66,1.73,1.73,0,0,0,1.62-1l.67.35a2.42,2.42,0,0,1-2.29,1.41,2.27,2.27,0,0,1-1.75-.74,2.68,2.68,0,0,1-.66-1.86,2.75,2.75,0,0,1,.65-1.85,2.5,2.5,0,0,1,3.52,0,2.48,2.48,0,0,1,.63,1.73Zm-3.88-.76h3a1.43,1.43,0,0,0-1.5-1.26A1.45,1.45,0,0,0,25.6,200.42Z"/><path class="cls-1" d="M38.19,200.52v3h-.88v-7H40a2,2,0,1,1,0,4Zm1.75-.84a1.16,1.16,0,1,0,0-2.32H38.19v2.32Z"/><path class="cls-1" d="M43.14,201a2.68,2.68,0,0,1,.68-1.84,2.51,2.51,0,0,1,3.6,0,2.83,2.83,0,0,1,0,3.68,2.51,2.51,0,0,1-3.6,0A2.68,2.68,0,0,1,43.14,201Zm.86,0a2,2,0,0,0,.44,1.3,1.56,1.56,0,0,0,2.36,0,2.14,2.14,0,0,0,0-2.6,1.56,1.56,0,0,0-2.36,0A2,2,0,0,0,44,201Z"/><path class="cls-1" d="M50,199.22v-.74h2.38v4.3h1.86v.74H49.81v-.74h1.74v-3.56Zm1.9-2.78a.69.69,0,0,1,.69.7.67.67,0,0,1-.69.68.69.69,0,0,1,0-1.38Z"/><path class="cls-1" d="M60.13,203.52H59.3v-3.33c0-.69-.31-1-.93-1a1.25,1.25,0,0,0-1,.64,2.92,2.92,0,0,0-.43,1.69v2H56v-5h.84v.93a2.06,2.06,0,0,1,1.71-1A1.42,1.42,0,0,1,60.13,200Z"/><path class="cls-1" d="M61.78,199.24v-.76h1.34V197l.84-.53v2h2.46v.76H64v2.58q0,1,.87,1a1.69,1.69,0,0,0,1.24-.6l.31.71a2.12,2.12,0,0,1-1.55.65,1.54,1.54,0,0,1-1.71-1.75v-2.61Z"/><path class="cls-1" d="M76.2,196.52H77l2.49,7h-.91L78,201.65H75.25l-.63,1.87h-.91Zm.42,1.14-1.08,3.15H77.7Z"/><path class="cls-1" d="M81.56,202.85v.67h-.84v-7.08h.84v2.68a1.93,1.93,0,0,1,1.54-.72,2.62,2.62,0,0,1,0,5.2A1.92,1.92,0,0,1,81.56,202.85Zm3-1.85a2.07,2.07,0,0,0-.41-1.33,1.48,1.48,0,0,0-2.24,0,2.36,2.36,0,0,0,0,2.66,1.48,1.48,0,0,0,2.24,0A2.07,2.07,0,0,0,84.55,201Z"/><path class="cls-1" d="M90.84,199.49l-.66.47a1.35,1.35,0,0,0-1.21-.8c-.48,0-.87.22-.87.67s.37.62,1.17.78a4.48,4.48,0,0,1,1,.3,1.12,1.12,0,0,1,.78,1.07,1.44,1.44,0,0,1-.56,1.19,2.39,2.39,0,0,1-3.57-1l.8-.3a1.41,1.41,0,0,0,1.39,1c.61,0,1.07-.27,1.07-.78s-.38-.54-1.3-.74-1.63-.57-1.63-1.46a1.3,1.3,0,0,1,.5-1.06,1.86,1.86,0,0,1,1.22-.4A2,2,0,0,1,90.84,199.49Z"/><path class="cls-1" d="M92.74,201a2.68,2.68,0,0,1,.68-1.84,2.51,2.51,0,0,1,3.6,0,2.83,2.83,0,0,1,0,3.68,2.51,2.51,0,0,1-3.6,0A2.68,2.68,0,0,1,92.74,201Zm.86,0a2,2,0,0,0,.44,1.3,1.56,1.56,0,0,0,2.36,0,2.14,2.14,0,0,0,0-2.6,1.56,1.56,0,0,0-2.36,0A2,2,0,0,0,93.6,201Z"/><path class="cls-1" d="M103.07,200.08a.9.9,0,0,0-1-.92,1.47,1.47,0,0,0-1.21.67,3.06,3.06,0,0,0-.5,1.87v1.82h-.84v-5h.84v.93a2.08,2.08,0,0,1,1.86-1,1.56,1.56,0,0,1,1.66,1.68Z"/><path class="cls-1" d="M106.36,202.85v.67h-.84v-7.08h.84v2.68a1.93,1.93,0,0,1,1.54-.72,2.62,2.62,0,0,1,0,5.2A1.92,1.92,0,0,1,106.36,202.85Zm3-1.85a2.07,2.07,0,0,0-.41-1.33,1.48,1.48,0,0,0-2.24,0,2.36,2.36,0,0,0,0,2.66,1.48,1.48,0,0,0,2.24,0A2.07,2.07,0,0,0,109.35,201Z"/><path class="cls-1" d="M116.28,201.18h-3.94a1.57,1.57,0,0,0,1.55,1.66,1.73,1.73,0,0,0,1.62-1l.67.35a2.42,2.42,0,0,1-2.29,1.41,2.27,2.27,0,0,1-1.75-.74,2.68,2.68,0,0,1-.66-1.86,2.75,2.75,0,0,1,.65-1.85,2.5,2.5,0,0,1,3.52,0,2.48,2.48,0,0,1,.63,1.73Zm-3.88-.76h3a1.43,1.43,0,0,0-1.5-1.26A1.45,1.45,0,0,0,112.4,200.42Z"/><path class="cls-1" d="M121.67,200.08a.9.9,0,0,0-1-.92,1.47,1.47,0,0,0-1.21.67,3.06,3.06,0,0,0-.5,1.87v1.82h-.84v-5H119v.93a2.08,2.08,0,0,1,1.86-1,1.56,1.56,0,0,1,1.66,1.68Z"/></svg>