<svg xmlns="http://www.w3.org/2000/svg" viewBox="0 0 164 202"><defs><style>.cls-1{fill:#efefef;}.cls-2{fill:#bf64ff;}</style></defs><title>water-wpa</title><g id="bg"><rect class="cls-1" width="164" height="202"/></g><g id="Layer_1" data-name="Layer 1"><path class="cls-2" d="M143.32,49.32v81.6H20.92V22.12h8a46.43,46.43,0,0,1,32.83,13.6l13.6,13.6a46.43,46.43,0,0,0,32.83,13.6h2.33a46.43,46.43,0,0,0,32.83-13.6h0"/><path d="M75.32,49.32h0v40.8h13.6V49.32a13.6,13.6,0,0,0,13.6-13.6H88.92V22.12H75.32v13.6H61.72A13.6,13.6,0,0,0,75.32,49.32Z"/><polygon points="75.32 117.32 88.92 103.72 88.92 90.12 75.32 103.72 75.32 117.32"/><polygon points="88.92 117.32 75.32 130.92 61.72 130.92 61.72 144.52 102.52 144.52 102.52 130.92 88.92 130.92 88.92 117.32"/><path d="M21.7,165.95l.91,2.83.91-2.83h.68l.91,2.83.91-2.83h1l-1.45,4.27h-.83l-.9-2.59-.9,2.59h-.83l-1.45-4.27Z"/><path d="M30.41,169.41H28.8l-.33.81h-1l1.72-4.27h.9l1.68,4.27h-1Zm-.27-.76-.52-1.43-.53,1.43Z"/><path d="M34.1,166.78v3.43h-1v-3.43h-.93v-.83H35v.83Z"/><path d="M38.6,166.78H37.18v.82h1.36v.83H37.18v.95H38.6v.83H36.19v-4.27H38.6Z"/><path d="M41.54,165.95a1.52,1.52,0,0,1,1.09.37,1.28,1.28,0,0,1,.37,1,1.17,1.17,0,0,1-.33.87,1.35,1.35,0,0,1-.6.33l1.31,1.75h-1.2L41,168.53v1.68H40v-4.27ZM41,167.89h.22a.81.81,0,0,0,.59-.19.58.58,0,0,0,.16-.42.52.52,0,0,0-.2-.43,1,1,0,0,0-.54-.13H41Z"/><path class="cls-2" d="M24.64,174.22h.73l-.54,5.6H24l-.82-3.29-.82,3.29h-.87l-.54-5.6h.73l.34,4.56.85-3.41h.64l.85,3.41Z"/><path class="cls-2" d="M29.81,179.82h-.54l-.1-.57a1.75,1.75,0,0,1-1.42.63,1.16,1.16,0,0,1-1.25-1.22c0-.87.68-1.32,1.82-1.32h.82v-.18c0-.58-.38-.83-.93-.83a1,1,0,0,0-1,.69l-.59-.16a1.54,1.54,0,0,1,1.54-1.14,1.41,1.41,0,0,1,1.6,1.55Zm-2-.54a1.43,1.43,0,0,0,.88-.3,1.1,1.1,0,0,0,.41-.93v-.13h-.88c-.68,0-1.07.29-1.07.74A.59.59,0,0,0,27.85,179.27Z"/><path class="cls-2" d="M34.35,175.79h.73l-1.69,4h-.67l-1.69-4h.73l1.3,3.23Z"/><path class="cls-2" d="M40,177.94H36.83a1.25,1.25,0,0,0,1.24,1.33,1.39,1.39,0,0,0,1.3-.8l.54.28a1.93,1.93,0,0,1-1.83,1.13,1.81,1.81,0,0,1-1.4-.59,2.14,2.14,0,0,1-.53-1.49,2.2,2.2,0,0,1,.52-1.48,2,2,0,0,1,2.81,0,2,2,0,0,1,.5,1.38Zm-3.1-.61h2.39a1.14,1.14,0,0,0-1.2-1A1.16,1.16,0,0,0,36.88,177.34Z"/><path class="cls-2" d="M46.95,177.42v2.4h-.7v-5.6h2.12a1.6,1.6,0,1,1,0,3.2Zm1.4-.67a.93.93,0,1,0,0-1.86h-1.4v1.86Z"/><path class="cls-2" d="M50.91,177.8a2.15,2.15,0,0,1,.54-1.47,2,2,0,0,1,2.88,0,2.26,2.26,0,0,1,0,2.94,2,2,0,0,1-2.88,0A2.15,2.15,0,0,1,50.91,177.8Zm.69,0a1.6,1.6,0,0,0,.35,1,1.25,1.25,0,0,0,1.89,0,1.71,1.71,0,0,0,0-2.08,1.25,1.25,0,0,0-1.89,0A1.6,1.6,0,0,0,51.6,177.8Z"/><path class="cls-2" d="M56.41,176.38v-.59h1.9v3.44H59.8v.59H56.25v-.59h1.39v-2.85Zm1.52-2.22a.55.55,0,0,1,.55.56.54.54,0,0,1-.55.54.55.55,0,0,1,0-1.1Z"/><path class="cls-2" d="M64.51,179.82h-.67v-2.66c0-.55-.25-.82-.74-.82a1,1,0,0,0-.84.51,2.33,2.33,0,0,0-.34,1.35v1.62h-.67v-4h.67v.74a1.65,1.65,0,0,1,1.37-.81A1.14,1.14,0,0,1,64.51,177Z"/><path class="cls-2" d="M65.82,176.39v-.61h1.07v-1.21l.67-.42v1.63h2v.61h-2v2.06q0,.82.7.82a1.35,1.35,0,0,0,1-.48l.25.57a1.7,1.7,0,0,1-1.24.52,1.23,1.23,0,0,1-1.37-1.4v-2.09Z"/><path class="cls-2" d="M77.36,174.22H78l2,5.6h-.73l-.5-1.5H76.6l-.5,1.5h-.73Zm.34.91-.86,2.52h1.73Z"/><path class="cls-2" d="M81.65,179.28v.54H81v-5.66h.67v2.14a1.54,1.54,0,0,1,1.23-.58,2.09,2.09,0,0,1,0,4.16A1.54,1.54,0,0,1,81.65,179.28ZM84,177.8a1.66,1.66,0,0,0-.33-1.06,1.19,1.19,0,0,0-1.79,0,1.89,1.89,0,0,0,0,2.13,1.19,1.19,0,0,0,1.79,0A1.66,1.66,0,0,0,84,177.8Z"/><path class="cls-2" d="M89.07,176.59l-.53.38a1.08,1.08,0,0,0-1-.64c-.38,0-.7.18-.7.54s.3.5.94.62a3.59,3.59,0,0,1,.82.24.9.9,0,0,1,.62.86,1.15,1.15,0,0,1-.45,1,1.91,1.91,0,0,1-2.85-.82l.64-.24a1.13,1.13,0,0,0,1.11.8c.49,0,.86-.22.86-.62s-.3-.43-1-.59-1.3-.46-1.3-1.17a1,1,0,0,1,.4-.85,1.49,1.49,0,0,1,1-.32A1.57,1.57,0,0,1,89.07,176.59Z"/><path class="cls-2" d="M90.59,177.8a2.15,2.15,0,0,1,.54-1.47,2,2,0,0,1,2.88,0,2.26,2.26,0,0,1,0,2.94,2,2,0,0,1-2.88,0A2.15,2.15,0,0,1,90.59,177.8Zm.69,0a1.6,1.6,0,0,0,.35,1,1.25,1.25,0,0,0,1.89,0,1.71,1.71,0,0,0,0-2.08,1.25,1.25,0,0,0-1.89,0A1.6,1.6,0,0,0,91.28,177.8Z"/><path class="cls-2" d="M98.85,177.07a.72.72,0,0,0-.77-.74,1.17,1.17,0,0,0-1,.54,2.45,2.45,0,0,0-.4,1.5v1.46H96v-4h.67v.74a1.67,1.67,0,0,1,1.49-.81,1.25,1.25,0,0,1,1.33,1.34Z"/><path class="cls-2" d="M101.49,179.28v.54h-.67v-5.66h.67v2.14a1.54,1.54,0,0,1,1.23-.58,2.09,2.09,0,0,1,0,4.16A1.54,1.54,0,0,1,101.49,179.28Zm2.39-1.48a1.66,1.66,0,0,0-.33-1.06,1.19,1.19,0,0,0-1.79,0,1.89,1.89,0,0,0,0,2.13,1.19,1.19,0,0,0,1.79,0A1.66,1.66,0,0,0,103.88,177.8Z"/><path class="cls-2" d="M109.42,177.94h-3.15a1.25,1.25,0,0,0,1.24,1.33,1.39,1.39,0,0,0,1.3-.8l.54.28a1.93,1.93,0,0,1-1.83,1.13,1.81,1.81,0,0,1-1.4-.59,2.14,2.14,0,0,1-.53-1.49,2.2,2.2,0,0,1,.52-1.48,2,2,0,0,1,2.81,0,2,2,0,0,1,.5,1.38Zm-3.1-.61h2.39a1.14,1.14,0,0,0-1.2-1A1.16,1.16,0,0,0,106.32,177.34Z"/><path class="cls-2" d="M113.73,177.07a.72.72,0,0,0-.78-.74,1.17,1.17,0,0,0-1,.54,2.45,2.45,0,0,0-.4,1.5v1.46h-.67v-4h.67v.74a1.67,1.67,0,0,1,1.49-.81,1.25,1.25,0,0,1,1.33,1.34Z"/></g></svg>