<svg xmlns="http://www.w3.org/2000/svg" viewBox="0 0 164 202"><defs><style>.cls-1{fill:#efefef;}.cls-2{fill:#bf64ff;}</style></defs><title>water-dam</title><g id="bg"><rect class="cls-1" width="164" height="202"/></g><g id="Layer_1" data-name="Layer 1"><path class="cls-2" d="M20.8,21.34v95.2h.38a61.21,61.21,0,0,1,54-54v81.21H88.8V62.53a61.21,61.21,0,0,1,54,54h.38V21.34Z"/><path d="M82,61.68a61.21,61.21,0,0,0-60.87,54.85H34.83A47.65,47.65,0,0,1,64.48,78.62L75.2,89.34V75.77a47.9,47.9,0,0,1,13.6,0V89.34L99.52,78.62a47.65,47.65,0,0,1,29.65,37.92h13.71A61.21,61.21,0,0,0,82,61.68Z"/><path d="M21.85,165.17l.91,2.83.91-2.83h.68l.91,2.83.91-2.83h1l-1.45,4.27H24.9l-.9-2.59-.9,2.59h-.83l-1.45-4.27Z"/><path d="M30.56,168.63H28.95l-.33.81h-1l1.72-4.27h.9l1.68,4.27h-1Zm-.27-.76-.52-1.43-.53,1.43Z"/><path d="M34.25,166v3.43h-1V166h-.93v-.83h2.84V166Z"/><path d="M38.75,166H37.32v.83h1.36v.83H37.32v.95h1.43v.83H36.34v-4.27h2.41Z"/><path d="M41.69,165.17a1.52,1.52,0,0,1,1.09.37,1.28,1.28,0,0,1,.37,1,1.17,1.17,0,0,1-.33.87,1.35,1.35,0,0,1-.6.33l1.31,1.75h-1.2l-1.15-1.68v1.68h-1v-4.27Zm-.51,1.94h.22a.81.81,0,0,0,.59-.19.58.58,0,0,0,.16-.42.52.52,0,0,0-.2-.43,1,1,0,0,0-.54-.13h-.23Z"/><path class="cls-2" d="M24.51,173.43h.7V179h-.7v-2.64H22V179h-.7v-5.6H22v2.29h2.46Z"/><path class="cls-2" d="M29.63,175h.73L28,180.66H27.3l.78-1.9L26.34,175h.75l1.35,3Z"/><path class="cls-2" d="M34.36,175.51v-2.14H35V179h-.67v-.54a1.54,1.54,0,0,1-1.23.6,2.09,2.09,0,0,1,0-4.16A1.54,1.54,0,0,1,34.36,175.51ZM32,177a1.66,1.66,0,0,0,.33,1.06,1.19,1.19,0,0,0,1.79,0,1.89,1.89,0,0,0,0-2.13,1.19,1.19,0,0,0-1.79,0A1.66,1.66,0,0,0,32,177Z"/><path class="cls-2" d="M39.48,176.28a.72.72,0,0,0-.77-.74,1.17,1.17,0,0,0-1,.54,2.45,2.45,0,0,0-.4,1.5V179h-.67v-4h.67v.74a1.67,1.67,0,0,1,1.49-.81,1.25,1.25,0,0,1,1.33,1.34Z"/><path class="cls-2" d="M41.14,177a2.15,2.15,0,0,1,.54-1.47,2,2,0,0,1,2.88,0,2.26,2.26,0,0,1,0,2.94,2,2,0,0,1-2.88,0A2.15,2.15,0,0,1,41.14,177Zm.69,0a1.6,1.6,0,0,0,.35,1,1.25,1.25,0,0,0,1.89,0,1.71,1.71,0,0,0,0-2.08,1.25,1.25,0,0,0-1.89,0A1.6,1.6,0,0,0,41.82,177Z"/><path class="cls-2" d="M50,177.16H46.9a1.25,1.25,0,0,0,1.24,1.33,1.39,1.39,0,0,0,1.3-.8L50,178a1.93,1.93,0,0,1-1.83,1.13,1.81,1.81,0,0,1-1.4-.59,2.14,2.14,0,0,1-.53-1.49,2.2,2.2,0,0,1,.52-1.48,2,2,0,0,1,2.81,0,2,2,0,0,1,.5,1.38Zm-3.1-.61h2.39a1.14,1.14,0,0,0-1.2-1A1.16,1.16,0,0,0,46.94,176.55Z"/><path class="cls-2" d="M52.17,174H51.06v-.61h1.78v4.08c0,.65.28,1,.85,1s.83-.33.94-1l.61.12a1.5,1.5,0,0,1-1.54,1.46,1.43,1.43,0,0,1-1.52-1.58Z"/><path class="cls-2" d="M60,177.16H56.82a1.25,1.25,0,0,0,1.24,1.33,1.39,1.39,0,0,0,1.3-.8l.54.28a1.93,1.93,0,0,1-1.83,1.13,1.81,1.81,0,0,1-1.4-.59,2.14,2.14,0,0,1-.53-1.49,2.2,2.2,0,0,1,.52-1.48,2,2,0,0,1,2.81,0,2,2,0,0,1,.5,1.38Zm-3.1-.61h2.39a1.14,1.14,0,0,0-1.2-1A1.16,1.16,0,0,0,56.86,176.55Z"/><path class="cls-2" d="M64.82,178a1.72,1.72,0,0,1-1.7,1.11,1.74,1.74,0,0,1-1.41-.61,2.34,2.34,0,0,1,0-2.94,1.74,1.74,0,0,1,1.41-.61,1.72,1.72,0,0,1,1.7,1.11l-.58.24a1.13,1.13,0,0,0-1.12-.74c-.77,0-1.24.61-1.24,1.47s.46,1.47,1.24,1.47a1.13,1.13,0,0,0,1.12-.74Z"/><path class="cls-2" d="M66,175.61V175H67v-1.21l.67-.42V175h2v.61h-2v2.06q0,.82.7.82a1.35,1.35,0,0,0,1-.48l.25.57a1.7,1.7,0,0,1-1.24.52A1.23,1.23,0,0,1,67,177.7v-2.09Z"/><path class="cls-2" d="M74.2,176.28a.72.72,0,0,0-.78-.74,1.17,1.17,0,0,0-1,.54,2.45,2.45,0,0,0-.4,1.5V179h-.67v-4h.67v.74a1.67,1.67,0,0,1,1.49-.81,1.25,1.25,0,0,1,1.33,1.34Z"/><path class="cls-2" d="M76.39,175.59V175h1.9v3.44h1.49V179H76.23v-.59h1.39v-2.85Zm1.52-2.22a.55.55,0,0,1,.55.56.54.54,0,0,1-.55.54.55.55,0,0,1,0-1.1Z"/><path class="cls-2" d="M84.66,178A1.72,1.72,0,0,1,83,179.1a1.74,1.74,0,0,1-1.41-.61,2.34,2.34,0,0,1,0-2.94,1.74,1.74,0,0,1,1.41-.61,1.72,1.72,0,0,1,1.7,1.11l-.58.24a1.13,1.13,0,0,0-1.12-.74c-.78,0-1.24.61-1.24,1.47s.46,1.47,1.24,1.47a1.13,1.13,0,0,0,1.12-.74Z"/><path class="cls-2" d="M90.87,173.43h1.42a2.37,2.37,0,0,1,1.81.71,3.54,3.54,0,0,1,0,4.17,2.37,2.37,0,0,1-1.81.71H90.87Zm.7.67v4.25h.64c1.17,0,1.81-.62,1.81-2.13s-.63-2.13-1.81-2.13Z"/><path class="cls-2" d="M99.4,179h-.54l-.1-.57a1.75,1.75,0,0,1-1.42.63,1.16,1.16,0,0,1-1.25-1.22c0-.87.68-1.32,1.82-1.32h.82v-.18c0-.58-.38-.83-.93-.83a1,1,0,0,0-1,.69l-.59-.16a1.54,1.54,0,0,1,1.54-1.14,1.41,1.41,0,0,1,1.6,1.55Zm-2-.54a1.43,1.43,0,0,0,.88-.3,1.1,1.1,0,0,0,.41-.93v-.13h-.88c-.68,0-1.07.29-1.07.74A.59.59,0,0,0,97.44,178.49Z"/><path class="cls-2" d="M104.86,179h-.67v-2.86c0-.44-.13-.62-.44-.62s-.71.52-.71,1.58V179h-.67v-2.86c0-.44-.13-.62-.44-.62s-.71.52-.71,1.58V179h-.67v-4h.67v.51a1.08,1.08,0,0,1,.94-.58.8.8,0,0,1,.83.66,1.16,1.16,0,0,1,1-.66c.54,0,.88.35.88,1.09Z"/></g></svg>