<svg id="Layer_1" data-name="Layer 1" xmlns="http://www.w3.org/2000/svg" viewBox="0 0 164 210"><defs><style>.cls-1{fill:#bf64ff;}</style></defs><title>water-dampv</title><path class="cls-1" d="M5.5,5.42v119H6A76.51,76.51,0,0,1,73.5,56.91V158.42h17V56.91A76.51,76.51,0,0,1,158,124.42h.48V5.42Z"/><path d="M82,55.85A76.51,76.51,0,0,0,5.91,124.42H23A59.56,59.56,0,0,1,60.1,77l13.4,13.4v-17a59.87,59.87,0,0,1,17,0v17L103.9,77A59.56,59.56,0,0,1,141,124.42h17.13A76.51,76.51,0,0,0,82,55.85Z"/><path d="M6.81,185.21l1.13,3.53,1.14-3.53h.85l1.13,3.53,1.14-3.53h1.28l-1.81,5.33h-1L9.51,187.3l-1.12,3.24h-1l-1.81-5.33Z"/><path d="M17.7,189.53h-2l-.41,1H14l2.15-5.33h1.13l2.1,5.33H18.1Zm-.34-.94-.66-1.79L16,188.59Z"/><path d="M22.31,186.25v4.29H21.08v-4.29H19.92v-1h3.55v1Z"/><path d="M27.94,186.25H26.16v1h1.69v1H26.16v1.18h1.78v1h-3v-5.33h3Z"/><path d="M31.61,185.21a1.91,1.91,0,0,1,1.36.46,1.6,1.6,0,0,1,.46,1.19,1.46,1.46,0,0,1-.42,1.09,1.68,1.68,0,0,1-.74.41l1.64,2.18h-1.5L31,188.44v2.1H29.74v-5.33ZM31,187.63h.28a1,1,0,0,0,.74-.23.72.72,0,0,0,.2-.52.64.64,0,0,0-.25-.54,1.2,1.2,0,0,0-.68-.17H31Z"/><path class="cls-1" d="M10.14,195.54H11v7h-.88v-3.3H7.06v3.3H6.18v-7h.88v2.86h3.08Z"/><path class="cls-1" d="M16.54,197.5h.91l-3,7.08h-.84l1-2.38-2.18-4.7h.94L15,201.19Z"/><path class="cls-1" d="M22.45,198.14v-2.68h.84v7.08h-.84v-.67a1.92,1.92,0,0,1-1.54.75,2.62,2.62,0,0,1,0-5.2A1.93,1.93,0,0,1,22.45,198.14Zm-3,1.88a2.07,2.07,0,0,0,.41,1.33,1.48,1.48,0,0,0,2.24,0,2.36,2.36,0,0,0,0-2.66,1.48,1.48,0,0,0-2.24,0A2.07,2.07,0,0,0,19.46,200Z"/><path class="cls-1" d="M28.85,199.1a.9.9,0,0,0-1-.92,1.47,1.47,0,0,0-1.21.67,3.06,3.06,0,0,0-.5,1.87v1.82h-.84v-5h.84v.93a2.08,2.08,0,0,1,1.86-1,1.56,1.56,0,0,1,1.66,1.68Z"/><path class="cls-1" d="M30.92,200a2.68,2.68,0,0,1,.68-1.84,2.51,2.51,0,0,1,3.6,0,2.83,2.83,0,0,1,0,3.68,2.51,2.51,0,0,1-3.6,0A2.68,2.68,0,0,1,30.92,200Zm.86,0a2,2,0,0,0,.44,1.3,1.56,1.56,0,0,0,2.36,0,2.14,2.14,0,0,0,0-2.6,1.56,1.56,0,0,0-2.36,0A2,2,0,0,0,31.78,200Z"/><path class="cls-1" d="M42.06,200.2H38.12a1.57,1.57,0,0,0,1.55,1.66,1.73,1.73,0,0,0,1.62-1l.67.35a2.42,2.42,0,0,1-2.29,1.41,2.27,2.27,0,0,1-1.75-.74,2.68,2.68,0,0,1-.66-1.86,2.75,2.75,0,0,1,.65-1.85,2.5,2.5,0,0,1,3.52,0,2.48,2.48,0,0,1,.63,1.73Zm-3.88-.76h3a1.43,1.43,0,0,0-1.5-1.26A1.45,1.45,0,0,0,38.18,199.44Z"/><path class="cls-1" d="M44.71,196.3H43.32v-.76h2.23v5.1c0,.81.35,1.22,1.06,1.22s1-.41,1.17-1.22l.76.15a1.87,1.87,0,0,1-1.93,1.83,1.79,1.79,0,0,1-1.9-2Z"/><path class="cls-1" d="M54.46,200.2H50.52a1.57,1.57,0,0,0,1.55,1.66,1.73,1.73,0,0,0,1.62-1l.67.35a2.42,2.42,0,0,1-2.29,1.41,2.27,2.27,0,0,1-1.75-.74,2.68,2.68,0,0,1-.66-1.86,2.75,2.75,0,0,1,.65-1.85,2.5,2.5,0,0,1,3.52,0,2.48,2.48,0,0,1,.63,1.73Zm-3.88-.76h3a1.43,1.43,0,0,0-1.5-1.26A1.45,1.45,0,0,0,50.58,199.44Z"/><path class="cls-1" d="M60.53,201.23a2.15,2.15,0,0,1-2.13,1.39,2.18,2.18,0,0,1-1.76-.76,2.93,2.93,0,0,1,0-3.68,2.18,2.18,0,0,1,1.76-.76,2.15,2.15,0,0,1,2.13,1.39l-.73.3a1.41,1.41,0,0,0-1.4-.93c-1,0-1.55.76-1.55,1.84s.58,1.84,1.55,1.84a1.41,1.41,0,0,0,1.4-.93Z"/><path class="cls-1" d="M62,198.26v-.76H63.3V196l.84-.53v2H66.6v.76H64.14v2.58q0,1,.87,1a1.69,1.69,0,0,0,1.24-.6l.31.71a2.12,2.12,0,0,1-1.55.65,1.54,1.54,0,0,1-1.71-1.75v-2.61Z"/><path class="cls-1" d="M72.25,199.1a.9.9,0,0,0-1-.92,1.47,1.47,0,0,0-1.21.67,3.06,3.06,0,0,0-.5,1.87v1.82h-.84v-5h.84v.93a2.08,2.08,0,0,1,1.86-1,1.56,1.56,0,0,1,1.66,1.68Z"/><path class="cls-1" d="M75,198.24v-.74h2.38v4.3h1.86v.74H74.79v-.74h1.74v-3.56Zm1.9-2.78a.69.69,0,0,1,.69.7.67.67,0,0,1-.69.68.69.69,0,0,1,0-1.38Z"/><path class="cls-1" d="M85.33,201.23a2.15,2.15,0,0,1-2.13,1.39,2.18,2.18,0,0,1-1.76-.76,2.93,2.93,0,0,1,0-3.68,2.18,2.18,0,0,1,1.76-.76,2.15,2.15,0,0,1,2.13,1.39l-.73.3a1.41,1.41,0,0,0-1.4-.93c-1,0-1.55.76-1.55,1.84s.58,1.84,1.55,1.84a1.41,1.41,0,0,0,1.4-.93Z"/><path class="cls-1" d="M93.08,195.54h1.77a3,3,0,0,1,2.26.89,4.43,4.43,0,0,1,0,5.22,3,3,0,0,1-2.26.89H93.08Zm.88.84v5.32h.8c1.47,0,2.26-.78,2.26-2.66s-.79-2.66-2.26-2.66Z"/><path class="cls-1" d="M103.75,202.54h-.68l-.12-.71a2.19,2.19,0,0,1-1.78.79,1.45,1.45,0,0,1-1.56-1.53c0-1.09.85-1.65,2.28-1.65h1v-.22c0-.73-.48-1-1.16-1a1.22,1.22,0,0,0-1.19.86l-.74-.2a1.92,1.92,0,0,1,1.93-1.42,1.76,1.76,0,0,1,2,1.94Zm-2.45-.68a1.79,1.79,0,0,0,1.1-.38,1.37,1.37,0,0,0,.51-1.16v-.16h-1.1c-.85,0-1.34.36-1.34.93A.74.74,0,0,0,101.3,201.86Z"/><path class="cls-1" d="M110.58,202.54h-.84V199c0-.55-.16-.77-.55-.77s-.89.65-.89,2v2.37h-.84V199c0-.55-.16-.77-.55-.77s-.89.65-.89,2v2.37h-.84v-5H106v.64a1.34,1.34,0,0,1,1.18-.72,1,1,0,0,1,1,.82,1.45,1.45,0,0,1,1.24-.82c.67,0,1.1.44,1.1,1.36Z"/></svg>