<svg id="Layer_1" data-name="Layer 1" xmlns="http://www.w3.org/2000/svg" viewBox="0 0 164 210"><defs><style>.cls-1{fill:#bf64ff;}</style></defs><title>water-horizturbinepv</title><path class="cls-1" d="M5.82,6.4a17,17,0,1,0,34,0,17,17,0,0,0,34,0,17,17,0,1,0,34,0,17,17,0,1,0,34,0,17,17,0,0,0,17,17v119H5.82Z"/><path d="M107.46,74.4H73.82v-34h-17v119h17v-68h33.64a.36.36,0,0,0,.36-.36V74.76A.36.36,0,0,0,107.46,74.4Z"/><polygon points="90.82 40.4 90.82 74.4 107.82 57.4 90.82 40.4"/><polygon points="107.82 108.4 90.82 91.4 90.82 125.4 107.82 108.4"/><path d="M6.46,186.19l1.13,3.53,1.14-3.53h.85l1.13,3.53,1.14-3.53h1.28l-1.81,5.33h-1l-1.12-3.24L8,191.52H7l-1.81-5.33Z"/><path d="M17.35,190.51h-2l-.41,1H13.65l2.15-5.33h1.13l2.1,5.33H17.75Zm-.34-.94-.66-1.79-.66,1.79Z"/><path d="M22,187.23v4.29H20.73v-4.29H19.57v-1h3.55v1Z"/><path d="M27.59,187.23H25.81v1H27.5v1H25.81v1.18h1.78v1h-3v-5.33h3Z"/><path d="M31.26,186.19a1.91,1.91,0,0,1,1.36.46,1.6,1.6,0,0,1,.46,1.19,1.46,1.46,0,0,1-.42,1.09,1.68,1.68,0,0,1-.74.41l1.64,2.18h-1.5l-1.44-2.1v2.1H29.39v-5.33Zm-.64,2.42h.28a1,1,0,0,0,.74-.23.72.72,0,0,0,.2-.52.64.64,0,0,0-.25-.54,1.2,1.2,0,0,0-.68-.17h-.29Z"/><path class="cls-1" d="M5.63,197.36v-.84h5.24v.84H8.69v6.16H7.81v-6.16Z"/><path class="cls-1" d="M12.64,199.22v-.74H15v4.3h1.86v.74H12.44v-.74h1.74v-3.56Zm1.9-2.78a.69.69,0,0,1,.69.7.67.67,0,0,1-.69.68.69.69,0,0,1,0-1.38Z"/><path class="cls-1" d="M22.1,199.12v-2.68h.84v7.08H22.1v-.67a1.92,1.92,0,0,1-1.54.75,2.62,2.62,0,0,1,0-5.2A1.93,1.93,0,0,1,22.1,199.12Zm-3,1.88a2.07,2.07,0,0,0,.41,1.33,1.48,1.48,0,0,0,2.24,0,2.36,2.36,0,0,0,0-2.66,1.48,1.48,0,0,0-2.24,0A2.07,2.07,0,0,0,19.11,201Z"/><path class="cls-1" d="M29,203.52h-.68l-.12-.71a2.19,2.19,0,0,1-1.78.79,1.45,1.45,0,0,1-1.56-1.53c0-1.09.85-1.65,2.28-1.65h1v-.22c0-.73-.48-1-1.16-1a1.22,1.22,0,0,0-1.19.86l-.74-.2A1.92,1.92,0,0,1,27,198.4a1.76,1.76,0,0,1,2,1.94Zm-2.45-.68a1.79,1.79,0,0,0,1.1-.38,1.37,1.37,0,0,0,.51-1.16v-.16h-1.1c-.85,0-1.34.36-1.34.93A.74.74,0,0,0,26.55,202.84Z"/><path class="cls-1" d="M32,197.28H30.57v-.76H32.8v5.1c0,.81.35,1.22,1.06,1.22s1-.41,1.17-1.22l.76.15a1.87,1.87,0,0,1-1.93,1.83,1.79,1.79,0,0,1-1.9-2Z"/><path class="cls-1" d="M47,196.52h.88v7H47v-3.3H43.91v3.3H43v-7h.88v2.86H47Z"/><path class="cls-1" d="M49.17,201a2.68,2.68,0,0,1,.68-1.84,2.51,2.51,0,0,1,3.6,0,2.83,2.83,0,0,1,0,3.68,2.51,2.51,0,0,1-3.6,0A2.68,2.68,0,0,1,49.17,201Zm.86,0a2,2,0,0,0,.44,1.3,1.56,1.56,0,0,0,2.36,0,2.14,2.14,0,0,0,0-2.6,1.56,1.56,0,0,0-2.36,0A2,2,0,0,0,50,201Z"/><path class="cls-1" d="M59.5,200.08a.9.9,0,0,0-1-.92,1.47,1.47,0,0,0-1.21.67,3.06,3.06,0,0,0-.5,1.87v1.82H56v-5h.84v.93a2.08,2.08,0,0,1,1.86-1,1.56,1.56,0,0,1,1.66,1.68Z"/><path class="cls-1" d="M62.24,199.22v-.74h2.38v4.3h1.86v.74H62v-.74h1.74v-3.56Zm1.9-2.78a.69.69,0,0,1,.69.7.67.67,0,0,1-.69.68.69.69,0,0,1,0-1.38Z"/><path class="cls-1" d="M68.38,199.24v-.76h3.78v.36l-2.67,3.92h2.79v.76h-4v-.36l2.64-3.92Z"/><path class="cls-1" d="M82.23,196.52h.84l2.49,7h-.91L84,201.65H81.28l-.63,1.87h-.91Zm.42,1.14-1.08,3.15h2.16Z"/><path class="cls-1" d="M90,198.48h1l-1.64,2.37,1.83,2.67h-.95l-1.34-2-1.34,2h-.95l1.83-2.67-1.64-2.37h1l1.11,1.67Z"/><path class="cls-1" d="M93.24,199.22v-.74h2.38v4.3h1.86v.74H93v-.74h1.74v-3.56Zm1.9-2.78a.69.69,0,0,1,.69.7.67.67,0,0,1-.69.68.69.69,0,0,1,0-1.38Z"/><path class="cls-1" d="M103.07,199.49l-.66.47a1.35,1.35,0,0,0-1.21-.8c-.48,0-.87.22-.87.67s.37.62,1.17.78a4.48,4.48,0,0,1,1,.3,1.12,1.12,0,0,1,.78,1.07,1.44,1.44,0,0,1-.56,1.19,2.39,2.39,0,0,1-3.57-1l.8-.3a1.41,1.41,0,0,0,1.39,1c.61,0,1.07-.27,1.07-.78s-.38-.54-1.3-.74-1.63-.57-1.63-1.46a1.3,1.3,0,0,1,.5-1.06,1.86,1.86,0,0,1,1.22-.4A2,2,0,0,1,103.07,199.49Z"/><path class="cls-1" d="M111,197.36v-.84h5.24v.84h-2.18v6.16h-.88v-6.16Z"/><path class="cls-1" d="M117.78,198.48h.84v3.33c0,.69.31,1,.93,1a1.26,1.26,0,0,0,1-.63,3,3,0,0,0,.43-1.7v-2h.84v5H121v-.93a2.06,2.06,0,0,1-1.71,1,1.42,1.42,0,0,1-1.54-1.61Z"/><path class="cls-1" d="M127.7,200.08a.9.9,0,0,0-1-.92,1.47,1.47,0,0,0-1.21.67,3.06,3.06,0,0,0-.5,1.87v1.82h-.84v-5H125v.93a2.08,2.08,0,0,1,1.86-1,1.56,1.56,0,0,1,1.66,1.68Z"/><path class="cls-1" d="M131,202.85v.67h-.84v-7.08H131v2.68a1.93,1.93,0,0,1,1.54-.72,2.62,2.62,0,0,1,0,5.2A1.92,1.92,0,0,1,131,202.85Zm3-1.85a2.07,2.07,0,0,0-.41-1.33,1.48,1.48,0,0,0-2.24,0,2.36,2.36,0,0,0,0,2.66,1.48,1.48,0,0,0,2.24,0A2.07,2.07,0,0,0,134,201Z"/><path class="cls-1" d="M136.64,199.22v-.74H139v4.3h1.86v.74h-4.44v-.74h1.74v-3.56Zm1.9-2.78a.69.69,0,0,1,.69.7.67.67,0,0,1-.69.68.69.69,0,0,1,0-1.38Z"/><path class="cls-1" d="M146.77,203.52h-.84v-3.33c0-.69-.31-1-.93-1a1.25,1.25,0,0,0-1,.64,2.92,2.92,0,0,0-.43,1.69v2h-.84v-5h.84v.93a2.06,2.06,0,0,1,1.71-1,1.42,1.42,0,0,1,1.54,1.61Z"/><path class="cls-1" d="M153.31,201.18h-3.94a1.57,1.57,0,0,0,1.55,1.66,1.73,1.73,0,0,0,1.62-1l.67.35a2.42,2.42,0,0,1-2.29,1.41,2.27,2.27,0,0,1-1.75-.74,2.68,2.68,0,0,1-.66-1.86,2.75,2.75,0,0,1,.65-1.85,2.5,2.5,0,0,1,3.52,0,2.48,2.48,0,0,1,.63,1.73Zm-3.88-.76h3a1.43,1.43,0,0,0-1.5-1.26A1.45,1.45,0,0,0,149.43,200.42Z"/></svg>