<svg xmlns="http://www.w3.org/2000/svg" viewBox="0 0 164 202"><defs><style>.cls-1{fill:#efefef;}.cls-2{fill:#be64ff;}</style></defs><title>wind-vertturbine</title><g id="bg"><rect class="cls-1" width="164" height="202"/></g><g id="Layer_1" data-name="Layer 1"><path d="M21.83,166.1l.91,2.85.91-2.85h.68l.91,2.85.91-2.85h1l-1.46,4.29H24.9l-.9-2.61-.9,2.61h-.84L20.8,166.1Z"/><path d="M29.34,166.1v4.29h-1V166.1Z"/><path d="M30.95,170.4V166.1h.86l2.33,2.77V166.1h1v4.29h-.86l-2.33-2.78v2.78Z"/><path d="M38.07,166.1a2.26,2.26,0,0,1,1.69.59,2.24,2.24,0,0,1,0,3.06,2.31,2.31,0,0,1-1.69.64H36.71V166.1Zm-.37,3.46H38a1.55,1.55,0,0,0,1-.29,1.34,1.34,0,0,0,.42-1,1.27,1.27,0,0,0-.35-.93,1.42,1.42,0,0,0-1-.37H37.7Z"/><path class="cls-2" d="M24.84,174.42h.73l-2,5.63h-.68l-2-5.63h.73L23.27,179Z"/><path class="cls-2" d="M30.23,178.17H27.06a1.26,1.26,0,0,0,1.25,1.33,1.39,1.39,0,0,0,1.3-.8l.54.28a1.94,1.94,0,0,1-1.84,1.13,1.82,1.82,0,0,1-1.41-.6,2.15,2.15,0,0,1-.53-1.5,2.21,2.21,0,0,1,.52-1.49,2,2,0,0,1,2.83,0,2,2,0,0,1,.51,1.39Zm-3.12-.61h2.4a1.15,1.15,0,0,0-1.21-1A1.17,1.17,0,0,0,27.11,177.56Z"/><path class="cls-2" d="M34.57,177.28a.73.73,0,0,0-.78-.74,1.18,1.18,0,0,0-1,.54,2.46,2.46,0,0,0-.4,1.5V180h-.68V176h.68v.75a1.68,1.68,0,0,1,1.5-.81,1.26,1.26,0,0,1,1.33,1.35Z"/><path class="cls-2" d="M36.26,176.61V176h1.08v-1.21l.68-.43V176h2v.61H38v2.07q0,.82.7.82a1.36,1.36,0,0,0,1-.48l.25.57a1.71,1.71,0,0,1-1.25.52,1.24,1.24,0,0,1-1.37-1.41v-2.1Z"/><path class="cls-2" d="M41.75,176.59V176h1.91v3.46h1.5v.6H41.59v-.6H43v-2.86Zm1.53-2.24a.55.55,0,0,1,.55.56.54.54,0,0,1-.55.55.55.55,0,1,1,0-1.11Z"/><path class="cls-2" d="M50.07,179a1.73,1.73,0,0,1-1.71,1.12,1.75,1.75,0,0,1-1.42-.61,2.36,2.36,0,0,1,0-3,1.75,1.75,0,0,1,1.42-.61,1.73,1.73,0,0,1,1.71,1.12l-.59.24a1.14,1.14,0,0,0-1.13-.75c-.78,0-1.25.61-1.25,1.48s.47,1.48,1.25,1.48a1.14,1.14,0,0,0,1.13-.75Z"/><path class="cls-2" d="M54.91,180h-.55l-.1-.57a1.77,1.77,0,0,1-1.43.64,1.16,1.16,0,0,1-1.25-1.23c0-.88.68-1.33,1.83-1.33h.82v-.18c0-.59-.39-.84-.93-.84a1,1,0,0,0-1,.69l-.6-.16a1.55,1.55,0,0,1,1.55-1.14,1.42,1.42,0,0,1,1.61,1.56Zm-2-.55a1.44,1.44,0,0,0,.88-.31,1.1,1.1,0,0,0,.41-.93v-.13h-.88c-.68,0-1.08.29-1.08.75A.6.6,0,0,0,52.94,179.5Z"/><path class="cls-2" d="M57.29,175H56.17v-.61H58v4.1c0,.65.28,1,.85,1s.84-.33.94-1l.61.12a1.5,1.5,0,0,1-1.55,1.47,1.44,1.44,0,0,1-1.53-1.59Z"/><path class="cls-2" d="M67.8,174.42h.68l2,5.63h-.73l-.51-1.5H67l-.51,1.5H65.8Zm.34.92-.87,2.53H69Z"/><path class="cls-2" d="M74,176h.8L73.5,177.9,75,180H74.2l-1.08-1.59L72,180h-.76l1.47-2.15L71.44,176h.8l.89,1.34Z"/><path class="cls-2" d="M76.66,176.59V176h1.91v3.46h1.5v.6H76.49v-.6h1.4v-2.86Zm1.53-2.24a.55.55,0,0,1,.55.56.54.54,0,0,1-.55.55.55.55,0,1,1,0-1.11Z"/><path class="cls-2" d="M84.56,176.81l-.53.38a1.08,1.08,0,0,0-1-.64c-.39,0-.7.18-.7.54s.3.5.94.63a3.6,3.6,0,0,1,.83.24.9.9,0,0,1,.63.86,1.16,1.16,0,0,1-.45,1,1.92,1.92,0,0,1-2.87-.83l.64-.24a1.13,1.13,0,0,0,1.12.8c.49,0,.86-.22.86-.63s-.31-.43-1-.6-1.31-.46-1.31-1.17a1,1,0,0,1,.4-.85,1.5,1.5,0,0,1,1-.32A1.58,1.58,0,0,1,84.56,176.81Z"/><path class="cls-2" d="M91,175.1v-.68h4.21v.68H93.42v5h-.71v-5Z"/><path class="cls-2" d="M96.39,176h.68v2.68c0,.55.25.83.75.83a1,1,0,0,0,.84-.51,2.39,2.39,0,0,0,.35-1.37V176h.68V180H99v-.75a1.66,1.66,0,0,1-1.38.81,1.14,1.14,0,0,1-1.24-1.29Z"/><path class="cls-2" d="M104.37,177.28a.73.73,0,0,0-.78-.74,1.18,1.18,0,0,0-1,.54,2.46,2.46,0,0,0-.4,1.5V180h-.68V176h.68v.75a1.68,1.68,0,0,1,1.5-.81,1.26,1.26,0,0,1,1.33,1.35Z"/><path class="cls-2" d="M107,179.51V180h-.68v-5.69H107v2.16a1.55,1.55,0,0,1,1.24-.58,2.11,2.11,0,0,1,0,4.18A1.55,1.55,0,0,1,107,179.51Zm2.4-1.49a1.66,1.66,0,0,0-.33-1.07,1.19,1.19,0,0,0-1.8,0,1.9,1.9,0,0,0,0,2.14,1.19,1.19,0,0,0,1.8,0A1.66,1.66,0,0,0,109.42,178Z"/><path class="cls-2" d="M111.56,176.59V176h1.91v3.46H115v.6H111.4v-.6h1.4v-2.86Zm1.53-2.24a.55.55,0,0,1,.55.56.54.54,0,0,1-.55.55.55.55,0,1,1,0-1.11Z"/><path class="cls-2" d="M119.7,180H119v-2.68c0-.55-.25-.83-.75-.83a1,1,0,0,0-.84.51,2.34,2.34,0,0,0-.35,1.36V180h-.68V176h.68v.75a1.66,1.66,0,0,1,1.38-.81,1.14,1.14,0,0,1,1.24,1.29Z"/><path class="cls-2" d="M125,178.17h-3.17A1.26,1.26,0,0,0,123,179.5a1.39,1.39,0,0,0,1.3-.8l.54.28a1.94,1.94,0,0,1-1.84,1.13,1.82,1.82,0,0,1-1.41-.6,2.15,2.15,0,0,1-.53-1.5,2.21,2.21,0,0,1,.52-1.49,2,2,0,0,1,2.83,0,2,2,0,0,1,.51,1.39Zm-3.12-.61h2.4a1.15,1.15,0,0,0-1.21-1A1.17,1.17,0,0,0,121.84,177.56Z"/><rect class="cls-2" x="61.6" y="49.09" width="81.6" height="27.2"/><rect class="cls-2" x="20.8" y="89.89" width="122.4" height="27.2"/><rect class="cls-2" x="48" y="130.69" width="95.2" height="13.6"/><rect class="cls-2" x="20.8" y="21.89" width="122.4" height="13.6"/><rect x="75.2" y="21.89" width="13.6" height="122.4"/><path d="M48,76.29A40.8,40.8,0,0,1,82,36.06a40.8,40.8,0,1,0,0,80.45A40.8,40.8,0,0,1,48,76.29Z"/><path d="M116,76.29a40.8,40.8,0,0,1-34,40.23,40.8,40.8,0,1,0,0-80.45A40.8,40.8,0,0,1,116,76.29Z"/></g></svg>