<svg id="Layer_1" data-name="Layer 1" xmlns="http://www.w3.org/2000/svg" viewBox="0 0 164 210"><defs><style>.cls-1{fill:#bf64ff;}</style></defs><title>wind-horizturbinepv</title><rect class="cls-1" x="5.5" y="40.07" width="153" height="34"/><rect class="cls-1" x="22.5" y="91.07" width="136" height="34"/><rect class="cls-1" x="5.5" y="142.07" width="153" height="17"/><rect class="cls-1" x="39.5" y="6.07" width="119" height="17"/><polygon points="90.5 6.07 90.5 74.07 107.5 57.07 90.5 6.07"/><polygon points="107.5 108.07 90.5 91.07 90.5 159.07 107.5 108.07"/><polygon points="73.5 74.07 56.5 91.07 56.5 159.07 73.5 159.07 73.5 91.07 90.5 91.07 107.5 91.07 107.5 74.07 90.5 74.07 73.5 74.07"/><path d="M6.81,186.52l1.13,3.53,1.14-3.53h.85l1.13,3.53,1.14-3.53h1.28l-1.81,5.33h-1l-1.12-3.24-1.12,3.24h-1l-1.81-5.33Z"/><path d="M16.15,186.52v5.33H14.92v-5.33Z"/><path d="M18.15,191.85v-5.33h1.07L22.11,190v-3.44h1.23v5.33H22.27l-2.89-3.45v3.45Z"/><path d="M27,186.52a2.81,2.81,0,0,1,2.1.74,2.79,2.79,0,0,1,0,3.8,2.88,2.88,0,0,1-2.1.8H25.32v-5.33Zm-.46,4.29h.33a1.92,1.92,0,0,0,1.22-.36,1.66,1.66,0,0,0,.52-1.29,1.58,1.58,0,0,0-.44-1.15,1.76,1.76,0,0,0-1.3-.46h-.33Z"/><path class="cls-1" d="M10.14,196.85H11v7h-.88v-3.3H7.06v3.3H6.18v-7h.88v2.86h3.08Z"/><path class="cls-1" d="M12.32,201.33a2.68,2.68,0,0,1,.68-1.84,2.28,2.28,0,0,1,1.8-.76,2.28,2.28,0,0,1,1.8.76,2.83,2.83,0,0,1,0,3.68,2.28,2.28,0,0,1-1.8.76,2.28,2.28,0,0,1-1.8-.76A2.68,2.68,0,0,1,12.32,201.33Zm.86,0a2,2,0,0,0,.44,1.3,1.56,1.56,0,0,0,2.36,0,2.14,2.14,0,0,0,0-2.6,1.56,1.56,0,0,0-2.36,0A2,2,0,0,0,13.18,201.33Z"/><path class="cls-1" d="M22.65,200.41a.9.9,0,0,0-1-.92,1.47,1.47,0,0,0-1.21.67A3.06,3.06,0,0,0,20,202v1.82h-.84v-5H20v.93a2.08,2.08,0,0,1,1.86-1,1.56,1.56,0,0,1,1.66,1.68Z"/><path class="cls-1" d="M25.39,199.55v-.74h2.38v4.3h1.86v.74H25.19v-.74h1.74v-3.56Zm1.9-2.78a.69.69,0,0,1,.69.7.67.67,0,0,1-.69.68.69.69,0,0,1,0-1.38Z"/><path class="cls-1" d="M31.53,199.57v-.76h3.78v.36l-2.67,3.92h2.79v.76h-4v-.36L34,199.57Z"/><path class="cls-1" d="M37.12,201.33a2.68,2.68,0,0,1,.68-1.84,2.51,2.51,0,0,1,3.6,0,2.83,2.83,0,0,1,0,3.68,2.51,2.51,0,0,1-3.6,0A2.68,2.68,0,0,1,37.12,201.33Zm.86,0a2,2,0,0,0,.44,1.3,1.56,1.56,0,0,0,2.36,0,2.14,2.14,0,0,0,0-2.6,1.56,1.56,0,0,0-2.36,0A2,2,0,0,0,38,201.33Z"/><path class="cls-1" d="M47.92,203.85h-.84v-3.33c0-.69-.31-1-.93-1a1.25,1.25,0,0,0-1,.64,2.92,2.92,0,0,0-.43,1.69v2h-.84v-5h.84v.93a2.06,2.06,0,0,1,1.71-1,1.42,1.42,0,0,1,1.54,1.61Z"/><path class="cls-1" d="M49.56,199.57v-.76H50.9V197.3l.84-.53v2H54.2v.76H51.74v2.58q0,1,.87,1a1.69,1.69,0,0,0,1.24-.6l.31.71a2.12,2.12,0,0,1-1.55.65,1.54,1.54,0,0,1-1.71-1.75v-2.61Z"/><path class="cls-1" d="M60.35,203.85h-.68l-.12-.71a2.19,2.19,0,0,1-1.78.79,1.45,1.45,0,0,1-1.56-1.53c0-1.09.85-1.65,2.28-1.65h1v-.22c0-.73-.48-1-1.16-1a1.22,1.22,0,0,0-1.19.86l-.74-.2a1.92,1.92,0,0,1,1.93-1.42,1.76,1.76,0,0,1,2,1.94Zm-2.45-.68a1.79,1.79,0,0,0,1.1-.38,1.37,1.37,0,0,0,.51-1.16v-.16h-1.1c-.85,0-1.34.36-1.34.93A.74.74,0,0,0,57.9,203.17Z"/><path class="cls-1" d="M63.31,197.61H61.92v-.76h2.23V202c0,.81.35,1.22,1.06,1.22s1-.41,1.17-1.22l.76.15a1.87,1.87,0,0,1-1.93,1.83,1.79,1.79,0,0,1-1.9-2Z"/><path class="cls-1" d="M76.38,196.85h.84l2.49,7H78.8L78.17,202H75.43l-.63,1.87h-.91ZM76.8,198l-1.08,3.15h2.16Z"/><path class="cls-1" d="M84.11,198.81h1l-1.64,2.37,1.83,2.67h-.95l-1.34-2-1.34,2h-.95l1.83-2.67-1.64-2.37h1L83,200.48Z"/><path class="cls-1" d="M87.39,199.55v-.74h2.38v4.3h1.86v.74H87.19v-.74h1.74v-3.56Zm1.9-2.78a.69.69,0,0,1,.69.7.67.67,0,0,1-.69.68.69.69,0,0,1,0-1.38Z"/><path class="cls-1" d="M97.22,199.82l-.66.47a1.35,1.35,0,0,0-1.21-.8c-.48,0-.87.22-.87.67s.37.62,1.17.78a4.48,4.48,0,0,1,1,.3,1.12,1.12,0,0,1,.78,1.07,1.44,1.44,0,0,1-.56,1.19,2.39,2.39,0,0,1-3.57-1l.8-.3a1.41,1.41,0,0,0,1.39,1c.61,0,1.07-.27,1.07-.78s-.38-.54-1.3-.74-1.63-.57-1.63-1.46a1.3,1.3,0,0,1,.5-1.06,1.86,1.86,0,0,1,1.22-.4A2,2,0,0,1,97.22,199.82Z"/><path class="cls-1" d="M105.18,197.69v-.84h5.24v.84h-2.18v6.16h-.88v-6.16Z"/><path class="cls-1" d="M111.93,198.81h.84v3.33c0,.69.31,1,.93,1a1.26,1.26,0,0,0,1-.63,3,3,0,0,0,.43-1.7v-2H116v5h-.84v-.93a2.06,2.06,0,0,1-1.71,1,1.42,1.42,0,0,1-1.54-1.61Z"/><path class="cls-1" d="M121.85,200.41a.9.9,0,0,0-1-.92,1.47,1.47,0,0,0-1.21.67,3.06,3.06,0,0,0-.5,1.87v1.82h-.84v-5h.84v.93a2.08,2.08,0,0,1,1.86-1,1.56,1.56,0,0,1,1.66,1.68Z"/><path class="cls-1" d="M125.14,203.18v.67h-.84v-7.08h.84v2.68a1.93,1.93,0,0,1,1.54-.72,2.62,2.62,0,0,1,0,5.2A1.92,1.92,0,0,1,125.14,203.18Zm3-1.85a2.07,2.07,0,0,0-.41-1.33,1.48,1.48,0,0,0-2.24,0,2.36,2.36,0,0,0,0,2.66,1.48,1.48,0,0,0,2.24,0A2.07,2.07,0,0,0,128.13,201.33Z"/><path class="cls-1" d="M130.79,199.55v-.74h2.38v4.3H135v.74h-4.44v-.74h1.74v-3.56Zm1.9-2.78a.69.69,0,0,1,.69.7.67.67,0,0,1-.69.68.69.69,0,0,1,0-1.38Z"/><path class="cls-1" d="M140.92,203.85h-.84v-3.33c0-.69-.31-1-.93-1a1.25,1.25,0,0,0-1,.64,2.92,2.92,0,0,0-.43,1.69v2h-.84v-5h.84v.93a2.06,2.06,0,0,1,1.71-1,1.42,1.42,0,0,1,1.54,1.61Z"/><path class="cls-1" d="M147.46,201.51h-3.94a1.57,1.57,0,0,0,1.55,1.66,1.73,1.73,0,0,0,1.62-1l.67.35a2.42,2.42,0,0,1-2.29,1.41,2.27,2.27,0,0,1-1.75-.74,2.68,2.68,0,0,1-.66-1.86,2.75,2.75,0,0,1,.65-1.85,2.5,2.5,0,0,1,3.52,0,2.48,2.48,0,0,1,.63,1.73Zm-3.88-.76h3a1.43,1.43,0,0,0-1.5-1.26A1.45,1.45,0,0,0,143.58,200.75Z"/></svg>