<svg xmlns="http://www.w3.org/2000/svg" viewBox="0 0 164 202"><defs><style>.cls-1{fill:#efefef;}.cls-2{fill:#bf64ff;}</style></defs><title>wind-horizturbine</title><g id="bg"><rect class="cls-1" width="164" height="202"/></g><g id="Layer_1" data-name="Layer 1"><rect class="cls-2" x="20.8" y="49.06" width="122.4" height="27.2"/><rect class="cls-2" x="34.4" y="89.86" width="108.8" height="27.2"/><rect class="cls-2" x="20.8" y="130.66" width="122.4" height="13.6"/><rect class="cls-2" x="48" y="21.86" width="95.2" height="13.6"/><polygon points="88.8 21.86 88.8 76.25 102.4 62.66 88.8 21.86"/><polygon points="102.4 103.45 88.8 89.86 88.8 144.25 102.4 103.45"/><polygon points="75.2 76.25 61.6 89.86 61.6 144.25 75.2 144.25 75.2 89.86 88.8 89.86 102.4 89.86 102.4 76.25 88.8 76.25 75.2 76.25"/><path d="M21.85,166.21l.91,2.83.91-2.83h.68l.91,2.83.91-2.83h1l-1.45,4.27H24.9l-.9-2.59-.9,2.59h-.83l-1.45-4.27Z"/><path d="M29.32,166.21v4.27h-1v-4.27Z"/><path d="M30.92,170.48v-4.27h.86L34.09,169v-2.75h1v4.27h-.86l-2.31-2.76v2.76Z"/><path d="M38,166.21a2.25,2.25,0,0,1,1.68.59,2.23,2.23,0,0,1,0,3,2.3,2.3,0,0,1-1.68.64H36.65v-4.27Zm-.36,3.43h.26a1.54,1.54,0,0,0,1-.29,1.33,1.33,0,0,0,.42-1,1.26,1.26,0,0,0-.35-.92,1.41,1.41,0,0,0-1-.36h-.26Z"/><path class="cls-2" d="M24.51,174.48h.7v5.6h-.7v-2.64H22v2.64h-.7v-5.6H22v2.29h2.46Z"/><path class="cls-2" d="M26.26,178.07a2.15,2.15,0,0,1,.54-1.47,2,2,0,0,1,2.88,0,2.26,2.26,0,0,1,0,2.94,2,2,0,0,1-2.88,0A2.15,2.15,0,0,1,26.26,178.07Zm.69,0a1.6,1.6,0,0,0,.35,1,1.25,1.25,0,0,0,1.89,0,1.71,1.71,0,0,0,0-2.08,1.25,1.25,0,0,0-1.89,0A1.6,1.6,0,0,0,26.94,178.07Z"/><path class="cls-2" d="M34.52,177.33a.72.72,0,0,0-.77-.74,1.17,1.17,0,0,0-1,.54,2.45,2.45,0,0,0-.4,1.5v1.46H31.7v-4h.67v.74a1.67,1.67,0,0,1,1.49-.81,1.25,1.25,0,0,1,1.33,1.34Z"/><path class="cls-2" d="M36.71,176.64v-.59h1.9v3.44H40.1v.59H36.55v-.59h1.39v-2.85Zm1.52-2.22a.55.55,0,0,1,.55.56.54.54,0,0,1-.55.54.55.55,0,0,1,0-1.1Z"/><path class="cls-2" d="M41.62,176.66v-.61h3v.29l-2.13,3.13h2.23v.61H41.52v-.29l2.11-3.13Z"/><path class="cls-2" d="M46.1,178.07a2.15,2.15,0,0,1,.54-1.47,2,2,0,0,1,2.88,0,2.26,2.26,0,0,1,0,2.94,2,2,0,0,1-2.88,0A2.15,2.15,0,0,1,46.1,178.07Zm.69,0a1.6,1.6,0,0,0,.35,1,1.25,1.25,0,0,0,1.89,0A1.71,1.71,0,0,0,49,177a1.25,1.25,0,0,0-1.89,0A1.6,1.6,0,0,0,46.78,178.07Z"/><path class="cls-2" d="M54.73,180.08h-.67v-2.66c0-.55-.25-.82-.74-.82a1,1,0,0,0-.84.51,2.33,2.33,0,0,0-.34,1.35v1.62h-.67v-4h.67v.74A1.65,1.65,0,0,1,53.5,176a1.14,1.14,0,0,1,1.23,1.29Z"/><path class="cls-2" d="M56,176.66v-.61h1.07v-1.21l.67-.42v1.63h2v.61h-2v2.06q0,.82.7.82a1.35,1.35,0,0,0,1-.48l.25.57a1.7,1.7,0,0,1-1.24.52,1.23,1.23,0,0,1-1.37-1.4v-2.09Z"/><path class="cls-2" d="M64.68,180.08h-.54l-.1-.57a1.75,1.75,0,0,1-1.42.63,1.16,1.16,0,0,1-1.25-1.22c0-.87.68-1.32,1.82-1.32H64v-.18c0-.58-.38-.83-.93-.83a1,1,0,0,0-1,.69l-.59-.16A1.54,1.54,0,0,1,63.08,176a1.41,1.41,0,0,1,1.6,1.55Zm-2-.54a1.43,1.43,0,0,0,.88-.3,1.1,1.1,0,0,0,.41-.93v-.13h-.88c-.68,0-1.07.29-1.07.74A.59.59,0,0,0,62.72,179.54Z"/><path class="cls-2" d="M67,175.09H65.94v-.61h1.78v4.08c0,.65.28,1,.85,1s.83-.33.94-1l.61.12a1.5,1.5,0,0,1-1.54,1.46A1.43,1.43,0,0,1,67,178.56Z"/><path class="cls-2" d="M77.5,174.48h.67l2,5.6h-.73l-.5-1.5H76.75l-.5,1.5h-.73Zm.34.91L77,177.91H78.7Z"/><path class="cls-2" d="M83.69,176.05h.79l-1.31,1.89,1.46,2.13h-.76L82.8,178.5l-1.07,1.58H81l1.46-2.13-1.31-1.89h.79l.89,1.34Z"/><path class="cls-2" d="M86.31,176.64v-.59h1.9v3.44H89.7v.59H86.15v-.59h1.39v-2.85Zm1.52-2.22a.55.55,0,0,1,.55.56.54.54,0,0,1-.55.54.55.55,0,0,1,0-1.1Z"/><path class="cls-2" d="M94.18,176.86l-.53.38a1.08,1.08,0,0,0-1-.64c-.38,0-.7.18-.7.54s.3.5.94.62a3.59,3.59,0,0,1,.82.24.9.9,0,0,1,.62.86,1.15,1.15,0,0,1-.45,1,1.91,1.91,0,0,1-2.85-.82l.64-.24a1.13,1.13,0,0,0,1.11.8c.49,0,.86-.22.86-.62s-.3-.43-1-.59-1.3-.46-1.3-1.17a1,1,0,0,1,.4-.85,1.49,1.49,0,0,1,1-.32A1.57,1.57,0,0,1,94.18,176.86Z"/><path class="cls-2" d="M100.55,175.16v-.67h4.19v.67H103v4.93h-.7v-4.93Z"/><path class="cls-2" d="M105.95,176.05h.67v2.66c0,.55.25.82.74.82a1,1,0,0,0,.84-.5,2.38,2.38,0,0,0,.34-1.36v-1.62h.67v4h-.67v-.74a1.65,1.65,0,0,1-1.37.81,1.14,1.14,0,0,1-1.23-1.29Z"/><path class="cls-2" d="M113.88,177.33a.72.72,0,0,0-.77-.74,1.17,1.17,0,0,0-1,.54,2.45,2.45,0,0,0-.4,1.5v1.46h-.67v-4h.67v.74a1.67,1.67,0,0,1,1.49-.81,1.25,1.25,0,0,1,1.33,1.34Z"/><path class="cls-2" d="M116.51,179.55v.54h-.67v-5.66h.67v2.14a1.54,1.54,0,0,1,1.23-.58,2.09,2.09,0,0,1,0,4.16A1.54,1.54,0,0,1,116.51,179.55Zm2.39-1.48a1.66,1.66,0,0,0-.33-1.06,1.19,1.19,0,0,0-1.79,0,1.89,1.89,0,0,0,0,2.13,1.19,1.19,0,0,0,1.79,0A1.66,1.66,0,0,0,118.9,178.07Z"/><path class="cls-2" d="M121,176.64v-.59h1.9v3.44h1.49v.59h-3.55v-.59h1.39v-2.85Zm1.52-2.22a.55.55,0,0,1,.55.56.54.54,0,0,1-.55.54.55.55,0,0,1,0-1.1Z"/><path class="cls-2" d="M129.14,180.08h-.67v-2.66c0-.55-.25-.82-.74-.82a1,1,0,0,0-.84.51,2.33,2.33,0,0,0-.34,1.35v1.62h-.67v-4h.67v.74a1.65,1.65,0,0,1,1.37-.81,1.14,1.14,0,0,1,1.23,1.29Z"/><path class="cls-2" d="M134.37,178.21h-3.15a1.25,1.25,0,0,0,1.24,1.33,1.39,1.39,0,0,0,1.3-.8l.54.28a1.93,1.93,0,0,1-1.83,1.13,1.81,1.81,0,0,1-1.4-.59,2.14,2.14,0,0,1-.53-1.49,2.2,2.2,0,0,1,.52-1.48,2,2,0,0,1,2.81,0,2,2,0,0,1,.5,1.38Zm-3.1-.61h2.39a1.14,1.14,0,0,0-1.2-1A1.16,1.16,0,0,0,131.27,177.6Z"/></g></svg>