<?xml version="1.0" encoding="utf-8"?>
<!-- Generator: Adobe Illustrator 16.0.0, SVG Export Plug-In . SVG Version: 6.00 Build 0)  -->
<!DOCTYPE svg PUBLIC "-//W3C//DTD SVG 1.1//EN" "http://www.w3.org/Graphics/SVG/1.1/DTD/svg11.dtd">
<svg version="1.1" xmlns="http://www.w3.org/2000/svg" xmlns:xlink="http://www.w3.org/1999/xlink" x="0px" y="0px" width="1400px"
	 height="700px" viewBox="0 0 1400 700" enable-background="new 0 0 1400 700" xml:space="preserve">
<g id="romeo_and_juliet">
</g>
<g id="gatsby">
</g>
<g id="big_lebowski">
</g>
<g id="_x32_001">
</g>
<g id="life_aquatic">
</g>
<g id="hobbit">
</g>
<g id="reservoir_dogs">
</g>
<g id="akira">
	<g>
		<g>
			<g>
				<path fill="#FFFFFF" d="M332.891,189.215c12.953-12.952,33.949-12.952,46.9,0c12.951,12.953,12.952,33.949,0,46.899
					l-89.644,89.646c-12.952,12.95-33.949,12.95-46.9,0c-12.951-12.952-12.952-33.949,0-46.901L332.891,189.215z"/>
				<path d="M266.697,339.333c-9.889,0-19.186-3.851-26.179-10.843c-14.436-14.437-14.435-37.925,0-52.36l89.643-89.645
					c6.993-6.993,16.291-10.845,26.18-10.845c9.889,0,19.186,3.852,26.179,10.845c14.435,14.438,14.435,37.926,0,52.358
					l-89.644,89.646C285.883,335.482,276.586,339.333,266.697,339.333z M356.341,183.36c-7.827,0-15.186,3.049-20.722,8.584
					l-89.643,89.645c-11.426,11.425-11.426,30.017,0,41.442c5.534,5.534,12.893,8.582,20.72,8.582s15.186-3.048,20.721-8.582
					l89.644-89.646c11.425-11.423,11.425-30.014,0-41.441C371.527,186.409,364.168,183.36,356.341,183.36z"/>
			</g>
			<g>
				<path fill="#009DDC" d="M335.259,280.647l44.532-44.533c12.952-12.95,12.951-33.946,0-46.899
					c-12.951-12.952-33.948-12.952-46.9,0l-44.532,44.534L335.259,280.647z"/>
				<path d="M335.259,286.105L282.9,233.749l47.262-47.264c6.993-6.993,16.291-10.845,26.18-10.845
					c9.889,0,19.186,3.852,26.179,10.845c14.435,14.438,14.435,37.926,0,52.358L335.259,286.105z M293.817,233.749l41.442,41.44
					l41.803-41.805c11.425-11.423,11.425-30.014,0-41.441c-5.535-5.534-12.893-8.583-20.72-8.583s-15.186,3.049-20.722,8.584
					L293.817,233.749z"/>
			</g>
			<path fill="#FFFFFF" d="M349.278,249.641c-0.988,0-1.976-0.377-2.729-1.13c-1.507-1.508-1.507-3.951,0-5.459l20.089-20.09
				c4.868-4.867,5.651-12.567,1.863-18.311c-1.174-1.779-0.683-4.173,1.096-5.347s4.173-0.684,5.347,1.097
				c5.798,8.788,4.6,20.572-2.848,28.02l-20.088,20.09C351.253,249.264,350.266,249.641,349.278,249.641z"/>
		</g>
		<g>
			<path fill="#009DDC" d="M453.633,244.713c0,0,47.255-55.05,126.426-74.753l8.956,30.571L453.633,244.713z"/>
			<g>
				<circle cx="714.865" cy="293.889" r="39.758"/>
				<path d="M714.865,337.507c-24.051,0-43.618-19.566-43.618-43.618c0-24.051,19.567-43.617,43.618-43.617
					s43.618,19.566,43.618,43.617C758.482,317.94,738.916,337.507,714.865,337.507z M714.865,257.99
					c-19.794,0-35.898,16.104-35.898,35.898c0,19.795,16.104,35.899,35.898,35.899s35.898-16.104,35.898-35.899
					C750.763,274.095,734.659,257.99,714.865,257.99z"/>
			</g>
			<g>
				<circle fill="#EF4135" cx="714.864" cy="293.889" r="29.01"/>
				<path fill="#FFFFFF" d="M714.865,326.758c-18.125,0-32.87-14.745-32.87-32.869c0-18.125,14.746-32.87,32.87-32.87
					c18.124,0,32.869,14.745,32.869,32.87C747.734,312.013,732.989,326.758,714.865,326.758z M714.865,268.737
					c-13.868,0-25.15,11.283-25.15,25.151s11.282,25.15,25.15,25.15c13.868,0,25.149-11.282,25.149-25.15
					S728.732,268.737,714.865,268.737z"/>
			</g>
			<circle fill="#F15642" cx="714.864" cy="293.889" r="25.185"/>
			<circle fill="#F15642" cx="728.409" cy="279.521" r="9.491"/>
			<g>
				<circle cx="457.75" cy="295.716" r="39.758"/>
				<path d="M457.751,339.333c-24.051,0-43.618-19.566-43.618-43.617c0-24.052,19.567-43.618,43.618-43.618
					c24.051,0,43.618,19.566,43.618,43.618C501.369,319.767,481.802,339.333,457.751,339.333z M457.751,259.816
					c-19.794,0-35.898,16.104-35.898,35.899c0,19.794,16.104,35.898,35.898,35.898s35.898-16.104,35.898-35.898
					C493.649,275.921,477.545,259.816,457.751,259.816z"/>
			</g>
			<g>
				<circle fill="#EF4135" cx="457.75" cy="295.716" r="30.736"/>
				<path fill="#FFFFFF" d="M457.751,330.312c-19.076,0-34.596-15.52-34.596-34.596c0-19.075,15.52-34.594,34.596-34.594
					c19.076,0,34.595,15.519,34.595,34.594C492.346,314.792,476.827,330.312,457.751,330.312z M457.751,268.841
					c-14.82,0-26.876,12.057-26.876,26.875c0,14.82,12.057,26.877,26.876,26.877c14.819,0,26.875-12.057,26.875-26.877
					C484.626,280.897,472.57,268.841,457.751,268.841z"/>
			</g>
			<circle fill="#F15642" cx="457.75" cy="295.716" r="27.013"/>
			<g>
				<path d="M558.553,231.129l19.092-3.25c0,0,4.384,2.803,6.499,0c3.477-4.609-4.927-6.093-4.927-6.093l-4.695-13.199
					l-27.952,11.88l7.717,12.083L558.553,231.129z"/>
				<path d="M552.654,237.162l-11.792-18.463l35.923-15.268l5.38,15.124c2.217,0.718,5.149,2.171,6.257,4.987
					c0.49,1.245,0.986,3.766-1.197,6.66c-1.354,1.794-3.38,2.781-5.707,2.781c-1.759,0-3.393-0.566-4.515-1.081l-17.512,2.98
					L552.654,237.162z M552.279,222.234l3.643,5.703l1.984-0.613l18.097-3.081l-0.421-1.163l-3.322-9.338L552.279,222.234z"/>
			</g>
			<g>
				<path d="M675.582,217.865c0,0-9.178-4.305-16.796,7.272c-7.616,11.577-33.207,60.018-33.207,60.018l-35.036,4.008l15.538,26.152
					l32.903-8.834L675.582,217.865z"/>
				<path d="M604.256,319.802l-20.078-33.796l38.941-4.454c4.779-9.018,25.56-48.074,32.442-58.535
					c5.326-8.095,11.557-9.794,15.845-9.794c3.203,0,5.405,0.956,5.814,1.148l3.335,1.563l-38.732,93.78L604.256,319.802z
					 M596.908,292.32l10.997,18.509l28.238-7.581l33.948-82.197c-2.941,0.486-5.711,2.608-8.081,6.208
					c-7.428,11.292-32.763,59.217-33.019,59.699l-0.951,1.801L596.908,292.32z"/>
			</g>
			<g>
				<path fill="#F15642" d="M442.58,252.355l12.999-12.087l116.945-37.903l3.294,10.252l-20.991,8.56l4.626,8.195l11.287,5.513
					l35.544,74.645l5.332-0.411c0,0,24.728-4.667,31.328-16.347c4.657-8.239,28.943-75.142,28.943-75.142
					s21.326-1.328,34.731,25.482l-14.318,8.226l16.755,25.592l-11.576,19.497l-23.459,3.047l-14.928,32.903h-88.96l-41.129-9.14
					l-12.89-20.81l-23.06,13.193l-36.864-34.731v-12.14L442.58,252.355z"/>
				<path d="M661.578,336.236h-91.872l-43.13-9.584l-11.784-19.023l-22.307,12.763l-40.158-37.836v-12.412l-15.048-18.13
					l16.296-15.153l121.438-39.359l5.572,17.34l-20.244,8.255l1.882,3.335l11.42,5.578l34.984,73.469l2.472-0.19
					c6.552-1.277,23.853-6.223,28.482-14.415c3.69-6.529,21.951-56.035,28.675-74.56l0.855-2.355l2.534-0.18
					c0,0,0.257-0.018,0.738-0.018c3.986,0,24.538,1.332,37.685,27.627l1.629,3.258l-13.929,8.002l15.833,24.184l-13.764,23.183
					l-23.192,3.012L661.578,336.236z M570.554,328.518h86.049l14.788-32.595l23.727-3.082l9.388-15.812l-17.678-27l14.616-8.396
					c-4.529-7.866-10.242-13.564-17.019-16.966c-4.076-2.046-7.635-2.787-9.883-3.049c-4.643,12.735-23.967,65.495-28.239,73.053
					c-3.196,5.654-9.974,10.455-20.145,14.268c-7.235,2.713-13.562,3.922-13.828,3.973l-0.419,0.056l-7.975,0.614l-36.104-75.82
					l-11.153-5.447l-7.371-13.056l21.738-8.864l-1.016-3.164l-112.451,36.447l-9.702,9.021l12.168,14.659v11.866l33.569,31.628
					l23.812-13.624l13.997,22.596L570.554,328.518z"/>
			</g>
			<g>
				<circle fill="#F15642" cx="660.132" cy="317.402" r="14.975"/>
				<path d="M660.132,336.236c-10.385,0-18.834-8.448-18.834-18.834s8.449-18.834,18.834-18.834s18.834,8.448,18.834,18.834
					S670.517,336.236,660.132,336.236z M660.132,306.287c-6.129,0-11.115,4.986-11.115,11.115s4.986,11.115,11.115,11.115
					s11.115-4.986,11.115-11.115S666.261,306.287,660.132,306.287z"/>
			</g>
			
				<rect x="509.604" y="196.165" transform="matrix(0.3727 0.928 -0.928 0.3727 561.4304 -314.6948)" width="7.72" height="123.445"/>
			
				<rect x="534.675" y="237.196" transform="matrix(0.4965 0.868 -0.868 0.4965 522.5295 -321.6555)" width="7.72" height="104.803"/>
			
				<rect x="503.961" y="193.802" transform="matrix(0.3562 0.9344 -0.9344 0.3562 559.6312 -314.1699)" width="7.719" height="110.518"/>
			<polygon points="573.316,323.025 532.425,315.453 522.158,299.157 528.689,295.042 537.155,308.479 573.038,315.123 
				619.14,303.184 621.075,310.656 			"/>
			<polygon points="678.848,263.585 658.453,252.448 662.153,245.673 678.737,254.729 690.366,247.998 694.233,254.678 			"/>
			<polygon points="670.271,300.396 665.393,280.555 675.247,257.633 682.338,260.682 673.507,281.225 677.767,298.552 			"/>
		</g>
		<g>
			<g>
				<g>
					<g>
						<path fill="#F15642" d="M1162.277,250.488c-5.016-4.285-12.553-3.688-16.836,1.325l-19.121,22.393l-0.064-89.453
							c0.002-6.596-5.346-11.942-11.939-11.942c-6.598,0-11.945,5.347-11.945,11.942v56.288v-69.016
							c0-6.594-5.348-11.94-11.943-11.94s-11.943,5.347-11.943,11.94v69.016l-0.002-59.343c0.002-6.596-5.346-11.942-11.941-11.942
							c-6.598,0-11.942,5.347-11.942,11.942v59.343l-0.003-39.575c0.003-6.596-5.346-11.942-11.941-11.942
							c-6.596,0-11.943,5.347-11.943,11.942v82.242c0,28.589,23.086,51.766,51.676,51.766c18.381,0,34.957-9.51,48.814-25.004
							l32.402-43.148C1167.89,262.311,1167.294,254.773,1162.277,250.488z"/>
						<path d="M1082.386,339.333c-30.622,0-55.536-24.953-55.536-55.625v-82.242c0-8.713,7.089-15.802,15.803-15.802
							c2.892,0,5.666,0.771,8.085,2.217v-6.183c0-8.713,7.089-15.802,15.802-15.802c3.062,0,5.992,0.865,8.509,2.479
							c1.652-6.959,7.92-12.15,15.378-12.15c8.435,0,15.347,6.64,15.781,14.967c2.372-1.423,5.146-2.241,8.107-2.241
							c4.22,0,8.188,1.644,11.172,4.628c2.985,2.985,4.628,6.954,4.626,11.175l0.057,78.997l12.334-14.443
							c3.007-3.521,7.389-5.541,12.022-5.541c3.755,0,7.397,1.346,10.255,3.787c3.21,2.741,5.161,6.568,5.493,10.775
							c0.328,4.165-0.969,8.209-3.656,11.401l-32.543,43.312C1118.695,330.242,1100.82,339.333,1082.386,339.333z M1042.654,193.383
							c-4.458,0-8.083,3.626-8.083,8.083v82.242c0,26.415,21.45,47.906,47.816,47.906c16.133,0,31.977-8.158,45.828-23.596
							l32.456-43.206c1.402-1.639,2.081-3.726,1.911-5.876c-0.17-2.152-1.168-4.11-2.812-5.514
							c-1.462-1.249-3.323-1.937-5.242-1.937c-2.372,0-4.614,1.033-6.153,2.834l-25.908,30.341l-0.072-99.905
							c0.001-2.162-0.839-4.192-2.366-5.719s-3.556-2.367-5.714-2.367c-4.458,0-8.085,3.626-8.085,8.083v56.288h-7.72v-69.016
							c0-4.456-3.626-8.081-8.083-8.081s-8.083,3.625-8.083,8.081v69.016h-7.72l-0.002-59.343c0.001-2.159-0.839-4.188-2.366-5.716
							c-1.527-1.526-3.557-2.367-5.716-2.367c-4.457,0-8.082,3.626-8.082,8.083v59.343h-7.72l-0.003-39.575
							c0.001-2.16-0.839-4.188-2.365-5.715C1046.843,194.224,1044.813,193.383,1042.654,193.383z"/>
					</g>
					<g>
						<rect x="1030.908" y="237.182" width="97.074" height="7.719"/>
					</g>
				</g>
				<g>
					<g>
						<path fill="#FFFFFF" d="M1101.244,283.608h-10.833l-0.931-0.573c-3.95-2.432-5.953-4.921-5.953-7.398V264.48
							c0-3.704,3.014-6.718,6.719-6.718h11.156c3.705,0,6.719,3.014,6.719,6.718v11.156c0,2.477-2,4.965-5.945,7.397
							L1101.244,283.608z M1092.672,275.89h6.308c0.556-0.399,1.085-0.825,1.422-1.147v-9.261h-9.156v9.259
							C1091.583,275.063,1092.114,275.49,1092.672,275.89z"/>
						<path fill="#FFFFFF" d="M1101.402,301.737h-11.156c-3.705,0-6.719-3.015-6.719-6.721v-11.153c0-2.481,2.003-4.972,5.955-7.402
							l0.93-0.571h10.832l0.931,0.573c3.946,2.431,5.946,4.92,5.946,7.4v11.153C1108.121,298.723,1105.107,301.737,1101.402,301.737
							z M1091.246,294.019h9.156v-9.264c-0.336-0.321-0.865-0.748-1.421-1.146h-6.31c-0.557,0.398-1.088,0.826-1.425,1.148V294.019z
							"/>
					</g>
					<g>
						<path fill="#FFFFFF" d="M1075.958,301.737h-20.735c-2.131,0-3.86-1.728-3.86-3.859v-10.117c0-1.155,0.518-2.25,1.411-2.983
							l15.464-12.698v-6.598h-9.155v4.696h-7.72v-5.697c0-3.704,3.015-6.718,6.72-6.718h11.154c3.706,0,6.721,3.014,6.721,6.718
							v9.424c0,1.155-0.518,2.25-1.411,2.983l-15.464,12.698v4.433h16.875V301.737z"/>
					</g>
				</g>
			</g>
			<rect x="1122.46" y="274.206" width="7.719" height="42.423"/>
		</g>
		<g>
			<path fill="#00A3DE" d="M868.808,302.453c-30.852,0-55.953-25.101-55.953-55.954c0-30.853,25.101-55.952,55.953-55.952
				c30.853,0,55.954,25.1,55.954,55.952C924.761,277.353,899.661,302.453,868.808,302.453z M868.808,198.266
				c-26.596,0-48.233,21.638-48.233,48.233c0,26.597,21.637,48.235,48.233,48.235c26.597,0,48.234-21.639,48.234-48.235
				C917.042,219.903,895.404,198.266,868.808,198.266z"/>
			<path fill="#00A3DE" d="M856.053,285.752c-30.854,0-55.955-25.1-55.955-55.952c0-30.854,25.101-55.954,55.955-55.954
				c30.853,0,55.953,25.101,55.953,55.954C912.006,260.652,886.905,285.752,856.053,285.752z M856.053,181.564
				c-26.597,0-48.235,21.639-48.235,48.235c0,26.596,21.638,48.233,48.235,48.233c26.596,0,48.234-21.638,48.234-48.233
				C904.287,203.203,882.649,181.564,856.053,181.564z"/>
			<g>
				<path d="M906.005,247.092l-10.027,21.125l-5.078,0.995l-2.27,2.271l3.93,3.931l25.877,25.879l1.35,1.349
					c10.113-10.112,26.508-10.112,36.617,0l2.576-2.575L906.005,247.092z"/>
				
					<rect x="907.559" y="219.94" transform="matrix(-0.7071 -0.7071 0.7071 -0.7071 1402.7932 1039.1272)" fill="#F15642" width="18.072" height="18.223"/>
				<polygon points="982.535,328.771 822.323,168.56 820.704,161.788 827.928,154.564 834.53,156.353 994.742,316.564 				"/>
				<path d="M889.923,228.971l-58.583-58.585c-0.933-0.933-2.443-0.933-3.376,0l-18.528,18.528c-0.933,0.933-0.933,2.443,0,3.376
					l58.584,58.585c0.931,0.93,2.44,0.93,3.373,0l18.531-18.531C890.857,231.412,890.857,229.902,889.923,228.971z"/>
				<path d="M888.888,214.143c0.764,0.381,29.182,13.924,29.182,13.924l5.34-5.342l31.471,31.471l-5.34,5.342l-2.385-2.385
					l-6.521,1.49l10.623,10.62v7.629L888.888,214.143z"/>
				<path d="M963.861,323.502l11.973,11.972l9.277-9.279l-14.354-14.352l-11.777-11.776l-2.576,2.575
					c4.293,4.29,6.762,9.713,7.412,15.305C964.031,319.791,964.042,321.654,963.861,323.502z"/>
				<path fill="#FFFFFF" d="M918.439,266.497c-2.672,2.67-7.002,2.67-9.674,0c-2.671-2.671-2.671-7.003,0-9.675L918.439,266.497z"/>
			</g>
			<g>
				<circle fill="#F15642" cx="824.192" cy="266.759" r="5.393"/>
				<polygon points="859.111,266.759 882.021,289.67 882.021,335.474 813.308,335.474 813.308,266.759 				"/>
			</g>
		</g>
		<path d="M1137.839,441.402H238.356c-2.132,0-3.86-1.728-3.86-3.859s1.728-3.859,3.86-3.859h899.483
			c2.132,0,3.859,1.728,3.859,3.859S1139.971,441.402,1137.839,441.402z"/>
		<g>
			<path d="M669.403,567.662l-0.533-5.184h-2.516l-0.496,5.184h-5.183l4.117-26.678h5.639l4.078,26.678H669.403z M668.297,556.189
				c-0.19-2.399-0.571-6.174-0.761-9.222c-0.152,3.048-0.495,6.822-0.725,9.261l-0.152,1.715h1.791L668.297,556.189z"/>
			<path d="M685.32,567.662l-2.134-11.09l-0.42,1.371v9.719h-5.336v-26.678h5.336v3.125c0,2.629-0.038,4.726-0.115,6.821
				c0.496-2.134,1.22-4.953,1.791-6.859l0.916-3.087h5.374l-3.354,9.946l3.431,16.731H685.32z"/>
			<path d="M693.806,567.662v-26.678h5.336v26.678H693.806z"/>
			<path d="M710.599,567.662l-1.867-11.396h-0.458v11.396h-5.221v-26.678h6.517c3.353,0,6.136,2.02,6.136,7.545
				c0,2.935-0.8,4.993-2.211,6.252l2.439,12.881H710.599z M708.808,545.1h-0.533v7.204h0.458c1.257,0,1.639-1.03,1.639-3.582
				C710.371,545.978,710.028,545.1,708.808,545.1z"/>
			<path d="M726.78,567.662l-0.535-5.184h-2.514l-0.495,5.184h-5.184l4.116-26.678h5.64l4.079,26.678H726.78z M725.674,556.189
				c-0.19-2.399-0.572-6.174-0.763-9.222c-0.153,3.048-0.496,6.822-0.724,9.261l-0.152,1.715h1.791L725.674,556.189z"/>
		</g>
		<g>
			<path d="M1137.244,466.319c-1.187,0-2.149-0.962-2.149-2.149v-14.71c0-1.188,0.962-2.149,2.149-2.149s2.149,0.962,2.149,2.149
				v14.71C1139.393,465.357,1138.431,466.319,1137.244,466.319z"/>
			<path d="M1137.244,427.779c-1.187,0-2.149-0.962-2.149-2.149v-14.715c0-1.188,0.962-2.149,2.149-2.149s2.149,0.962,2.149,2.149
				v14.715C1139.393,426.817,1138.431,427.779,1137.244,427.779z"/>
			<path d="M1163.871,439.692h-14.711c-1.187,0-2.149-0.962-2.149-2.149s0.962-2.149,2.149-2.149h14.711
				c1.187,0,2.149,0.962,2.149,2.149S1165.058,439.692,1163.871,439.692z"/>
			<path d="M1145.669,431.27c-0.55,0-1.1-0.21-1.52-0.629c-0.84-0.84-0.84-2.2,0-3.04l10.402-10.406
				c0.839-0.84,2.2-0.839,3.04-0.001c0.84,0.84,0.84,2.2,0,3.04l-10.402,10.406C1146.77,431.06,1146.22,431.27,1145.669,431.27z"/>
			<path d="M1156.072,458.521c-0.55,0-1.1-0.21-1.52-0.63l-10.402-10.404c-0.839-0.839-0.839-2.2,0-3.04
				c0.839-0.838,2.2-0.839,3.04,0.001l10.402,10.404c0.839,0.839,0.839,2.2,0,3.04
				C1157.172,458.311,1156.622,458.521,1156.072,458.521z"/>
		</g>
	</g>
</g>
</svg>
