<?xml version="1.0" encoding="utf-8"?>
<!-- Generator: Adobe Illustrator 16.0.0, SVG Export Plug-In . SVG Version: 6.00 Build 0)  -->
<!DOCTYPE svg PUBLIC "-//W3C//DTD SVG 1.1//EN" "http://www.w3.org/Graphics/SVG/1.1/DTD/svg11.dtd">
<svg version="1.1" xmlns="http://www.w3.org/2000/svg" xmlns:xlink="http://www.w3.org/1999/xlink" x="0px" y="0px" width="1400px"
	 height="700px" viewBox="0 0 1400 700" enable-background="new 0 0 1400 700" xml:space="preserve">
<g id="romeo_and_juliet">
	<g>
		<g>
			<path fill="#010101" d="M527.305,552.874c0,0.741,0.062,4.013,0.062,4.662c0,1.389,0.092,1.605,1.234,1.883
				c0.803,0.186,0.926,0.217,0.926,0.648v0.74c0,0.463-0.309,0.463-0.494,0.463c-0.369,0-0.803-0.092-3.828-0.092
				c-3.889,0-4.354,0.092-4.691,0.092c-0.311,0-0.494-0.092-0.494-0.463v-0.74c0-0.432,0.154-0.463,0.955-0.68
				c0.959-0.216,1.205-0.369,1.205-1.636c0-0.771,0.062-4.198,0.062-4.878v-5.002c0-0.709-0.062-3.982-0.062-4.631
				c0-1.358-0.031-1.637-1.205-1.914c-0.832-0.186-0.955-0.217-0.955-0.649v-0.74c0-0.463,0.309-0.463,0.463-0.463
				c0.492,0,3.271,0.123,5.648,0.123c1.605,0,3.336-0.123,6.484-0.123c4.291,0,5.682,2.718,5.682,5.124
				c0,2.162-1.051,4.2-4.076,5.096c-0.525,0.154-0.586,0.154-0.586,0.246c0,0.278,4.939,8.367,5.156,8.676
				c0.432,0.648,0.646,0.71,1.852,1.02c0.309,0.092,0.371,0.185,0.371,0.493v0.771c0,0.34-0.094,0.433-0.434,0.433
				s-0.988-0.154-3.117-0.154c-2.439,0-3.025,0.154-3.49,0.154c-0.246,0-0.277-0.062-0.463-0.464
				c-0.277-0.647-2.531-5.928-3.982-8.428c-0.709-1.234-0.803-1.389-1.482-1.389c-0.586,0-0.74,0.185-0.74,0.925V552.874z
				 M527.305,548.12c0,0.431,0,0.771,0.123,0.894c0.125,0.125,0.525,0.125,1.482,0.125c0.586,0,1.76-0.062,2.625-0.711
				c0.986-0.71,1.357-2.099,1.357-3.025c0-0.74-0.186-2.593-1.729-3.304c-0.371-0.186-0.803-0.37-3.025-0.37
				c-0.586,0-0.834,0.031-0.803,0.802L527.305,548.12z"/>
			<path fill="#010101" d="M574.084,550.373c0,5.773-3.768,11.515-12.969,11.515c-8.182,0-12.719-5.062-12.719-11.205
				c0-4.94,3.148-11.609,13.121-11.609C570.502,539.073,574.084,544.724,574.084,550.373z M553.861,550.403
				c0,5.249,3.055,9.263,7.408,9.263c3.861,0,7.35-3.181,7.35-8.983c0-4.446-2.162-9.387-7.35-9.387
				C556.764,541.296,553.861,545.187,553.861,550.403z"/>
			<path fill="#010101" d="M610.949,560.839c0,0.278-0.062,0.432-0.432,0.432c-0.68,0-1.297-0.092-6.607-0.092
				c-1.543,0-1.791,0.092-2.1,0.092c-0.494,0-0.494-0.246-0.494-0.432v-0.74c0-0.463,0.094-0.525,0.865-0.617
				c0.865-0.125,1.172-0.525,1.172-1.482c0-1.081-0.184-5.865-0.215-6.823c-0.092-2.994-0.125-5.989-0.309-6.854
				c-0.125,0.153-0.957,2.593-1.143,3.087l-4.416,11.423c-0.215,0.617-0.494,1.604-0.771,2.192
				c-0.123,0.216-0.217,0.246-1.111,0.433c-0.186,0.031-0.926,0.247-1.08,0.247c-0.34,0-0.494-0.371-0.711-0.958
				c-2.191-5.958-4.693-12.102-6.174-16.548c-0.248,1.327-0.586,13.06-0.586,13.771c0,0.647,0.029,1.265,1.604,1.48
				c0.834,0.094,0.834,0.371,0.834,0.804v0.586c0,0.371-0.154,0.432-0.523,0.432c-0.494,0-2.779-0.092-3.242-0.092
				c-2.625,0-2.965,0.092-3.273,0.092c-0.246,0-0.432-0.123-0.432-0.432v-0.74c0-0.525,0.092-0.525,1.049-0.772
				c0.896-0.247,0.928-0.617,1.02-2.038c0.186-2.994,0.432-5.434,0.586-9.324c0.186-4.29,0.186-4.753,0.186-5.186
				c0-0.896-0.309-1.235-1.389-1.39c-0.742-0.093-0.834-0.247-0.834-0.617v-0.803c0-0.433,0.186-0.494,0.525-0.494
				c0.648,0,3.582,0.093,4.199,0.093c2.562,0,3.117-0.093,3.611-0.093c0.463,0,0.525,0.524,0.865,1.513
				c1.049,3.057,3.674,10.621,4.6,13.245l2.531-7.101c0.68-1.884,2.1-5.896,2.377-6.885c0.154-0.649,0.371-0.772,0.617-0.772
				c0.619,0,1.668,0.093,3.52,0.093c2.842,0,3.984-0.093,4.602-0.093c0.586,0,0.68,0.123,0.68,0.433v0.864
				c0,0.308-0.094,0.433-0.65,0.556c-1.574,0.339-1.729,0.586-1.729,1.697c0,2.594,0.463,14.141,0.68,15.375
				c0.125,0.649,0.371,0.865,1.174,1.02c0.926,0.154,0.926,0.401,0.926,0.68V560.839z"/>
			<path fill="#010101" d="M621.357,547.872c0-0.709-0.062-3.982-0.062-4.631c0-1.358-0.031-1.637-1.203-1.914
				c-0.834-0.186-0.957-0.217-0.957-0.649v-0.74c0-0.463,0.309-0.463,0.463-0.463c0.432,0,3.736,0.185,5.588,0.185
				c4.414,0,7.625-0.185,8.244-0.185c0.184,0,0.617,0,0.555,0.617l-0.217,3.644c0,0.369-0.061,0.679-0.555,0.679h-0.74
				c-0.402,0-0.465-0.092-0.648-0.74c-0.371-1.39-0.434-1.638-1.73-1.638c-2.592,0-3.117,0-3.334,0.031
				c-0.186,0.031-0.186,0.278-0.186,0.494v5.559c0,0.74,0.279,0.74,1.205,0.74c4.414,0,5.34-0.186,5.619-0.186
				c0.369,0,0.432,0.124,0.369,0.464l-0.338,2.007c-0.094,0.555-0.094,0.617-0.463,0.617c-0.311,0-1.359-0.217-5.311-0.217
				c-0.865,0-1.082,0-1.082,0.68c0,0.803,0.031,4.445,0,5.155c0,1.144,0.186,1.421,1.359,1.421c3.859,0,4.014,0,4.508-0.771
				c0.34-0.494,0.555-1.267,0.74-1.606c0.123-0.216,0.371-0.246,0.586-0.246h1.082c0.492,0,0.463,0.276,0.432,0.556l-0.432,4.013
				c-0.062,0.556-0.371,0.617-0.773,0.617c-0.029,0-1.141-0.062-2.5-0.093c-0.803,0-4.045-0.153-6.391-0.153
				c-4.23,0-5.002,0.153-5.557,0.153c-0.311,0-0.494-0.092-0.494-0.463v-0.74c0-0.432,0.154-0.463,0.957-0.68
				c0.957-0.216,1.203-0.369,1.203-1.636c0-0.771,0.062-4.198,0.062-4.878V547.872z"/>
			<path fill="#010101" d="M669.615,550.373c0,5.773-3.768,11.515-12.967,11.515c-8.182,0-12.721-5.062-12.721-11.205
				c0-4.94,3.15-11.609,13.121-11.609C666.033,539.073,669.615,544.724,669.615,550.373z M649.393,550.403
				c0,5.249,3.057,9.263,7.41,9.263c3.859,0,7.348-3.181,7.348-8.983c0-4.446-2.162-9.387-7.348-9.387
				C652.295,541.296,649.393,545.187,649.393,550.403z"/>
			<path fill="#010101" d="M715.99,559.543c0,0.524-0.215,0.494-1.049,0.863c-1.111,0.526-3.211,1.328-4.354,1.328
				c-1.357,0-2.594-1.142-3.273-1.853c-0.646-0.679-0.709-0.771-0.926-0.771c-0.246,0-0.986,0.525-1.357,0.771
				c-2.439,1.698-5.156,1.945-6.176,1.945c-3.488,0-7.471-2.378-7.471-6.699c0-3.736,2.871-5.559,3.736-6.083
				c0.463-0.308,1.203-0.74,1.203-0.988l-0.4-0.647c-0.402-0.587-1.02-1.76-1.02-3.057c0-2.593,2.191-5.218,7.133-5.218
				c4.785,0,5.277,2.5,5.277,3.272c0,2.408-3.488,4.106-3.92,4.106c-0.248,0-0.771-0.37-0.771-0.741
				c0-0.186,0.463-0.895,0.494-1.018c0.186-0.464,0.34-0.896,0.34-1.514c0-1.451-0.988-2.315-2.193-2.315
				c-0.957,0-1.76,0.586-1.76,1.761c0,1.11,0.648,2.068,2.533,4.229c1.852,2.099,5.988,6.483,6.451,6.483
				c0.277,0,1.02-1.204,1.02-3.52c0-1.39-0.248-1.759-1.205-1.945c-0.646-0.153-0.646-0.371-0.646-0.771v-0.619
				c0-0.4,0.246-0.4,0.338-0.4c0.34,0,1.113,0.123,3.119,0.123c2.934,0,3.428-0.123,3.797-0.123c0.34,0,0.371,0.246,0.371,0.4v0.711
				c0,0.463,0,0.556-1.143,0.834c-0.74,0.185-0.896,0.216-1.174,1.296c-0.154,0.617-0.832,2.531-2.408,5.001
				c-0.34,0.587-0.369,0.649-0.369,0.742c0,0.401,2.469,2.624,4.445,3.271c0.186,0.062,1.018,0.187,1.174,0.248
				c0.123,0.062,0.184,0.123,0.184,0.277V559.543z M702.221,558.215c1.174,0,2.471-0.556,2.471-0.927
				c0-0.153-0.803-0.957-0.957-1.142c-1.697-1.698-3.365-3.458-5.002-5.188c-0.865-0.957-0.957-1.08-1.203-1.08
				c-0.434,0-1.359,1.08-1.359,2.378C696.17,555.005,699.072,558.215,702.221,558.215z"/>
			<path fill="#010101" d="M743.535,547.872c-0.031-0.74-0.062-3.982-0.062-4.661c0-1.328-0.061-1.606-1.234-1.884
				c-0.834-0.186-0.926-0.217-0.926-0.649v-0.74c0-0.463,0.277-0.463,0.463-0.463c0.277,0,1.852,0.093,3.859,0.093
				c4.076,0,4.568-0.093,4.816-0.093c0.309,0,0.492,0.093,0.492,0.463v0.74c0,0.433-0.123,0.464-0.955,0.681
				c-0.928,0.246-1.205,0.37-1.205,1.636c0,0.772-0.031,4.199-0.061,4.878v7.965l0.061,3.612c0,2.656-0.34,4.384-3.18,6.052
				c-2.006,1.173-5.248,2.161-5.711,2.161c-0.154,0-0.279-0.062-0.494-0.277l-0.434-0.493c-0.061-0.063-0.123-0.156-0.123-0.248
				c0-0.154,0.094-0.279,0.68-0.679c1.359-0.865,3.057-2.285,3.551-4.477c0.463-1.976,0.463-7.287,0.463-8.646V547.872z"/>
			<path fill="#010101" d="M761.195,547.872c0-0.709-0.061-3.982-0.061-4.631c0-1.358-0.031-1.637-1.205-1.914
				c-0.832-0.186-0.957-0.217-0.957-0.649v-0.74c0-0.463,0.311-0.463,0.494-0.463c0.434,0,1.205,0.093,3.859,0.093
				c4.199,0,4.539-0.093,4.785-0.093c0.311,0,0.525,0.093,0.525,0.463v0.74c0,0.433-0.154,0.464-0.957,0.681
				c-0.988,0.215-1.203,0.37-1.203,1.636c0,0.772-0.062,4.199-0.062,4.878v3.768c0,3.333,0.154,4.538,1.02,5.711
				c1.049,1.42,2.777,1.976,4.168,1.976c1.943,0,3.426-1.019,4.229-2.191c0.711-1.05,0.773-2.841,0.773-5.219v-4.044l-0.031-4.661
				c0-1.358-0.094-1.606-1.234-1.884c-0.836-0.186-0.959-0.217-0.959-0.649v-0.74c0-0.463,0.309-0.463,0.494-0.463
				c0.494,0,1.854,0.093,2.996,0.093c2.377,0,2.871-0.093,3.242-0.093c0.307,0,0.523,0.093,0.523,0.463v0.74
				c0,0.433-0.154,0.464-0.986,0.681c-0.959,0.215-1.205,0.37-1.205,1.636l-0.031,4.878v4.322c0,3.272-0.277,5.342-1.914,7.162
				c-2.16,2.408-5.773,2.531-7.193,2.531c-2.223,0-5.404-0.431-7.441-2.593c-1.668-1.79-1.668-4.198-1.668-6.729V547.872z"/>
			<path fill="#010101" d="M796.92,552.781l-0.031,2.13c0,3.767,0.125,3.921,1.42,3.921c3.242,0,3.799,0,4.57-0.833
				c0.586-0.588,0.771-1.545,0.803-1.729c0.123-0.709,0.277-0.709,0.678-0.709h1.082c0.525,0,0.525,0.062,0.463,0.556l-0.463,4.414
				c-0.094,0.68-0.248,0.958-0.957,0.958c-0.865,0-2.285-0.155-4.971-0.218c-1.42-0.03-2.963-0.153-5.188-0.153
				c-2.223,0-3.703,0.153-4.354,0.153c-0.307,0-0.494-0.092-0.494-0.463v-0.74c0-0.432,0.156-0.463,0.957-0.68
				c0.957-0.216,1.205-0.369,1.205-1.636c0-0.771,0.062-4.198,0.062-4.878v-5.002c0-0.709-0.062-3.982-0.062-4.631
				c0-1.358-0.031-1.637-1.205-1.914c-0.832-0.186-0.957-0.217-0.957-0.649v-0.74c0-0.433,0.311-0.433,0.463-0.433
				c0.557,0,3.025,0.123,4.756,0.123c1.977,0,4.137-0.123,4.785-0.123c0.371,0,0.432,0.154,0.432,0.433v0.74
				c0,0.558-0.092,0.558-0.895,0.742c-1.945,0.433-1.975,0.433-2.037,1.697c-0.031,0.803-0.062,4.354-0.062,5.064V552.781z"/>
			<path fill="#010101" d="M821.436,552.874c0,0.741,0.062,4.013,0.062,4.662c0,1.389,0.092,1.605,1.203,1.883
				c0.834,0.186,0.957,0.217,0.957,0.648v0.74c0,0.463-0.309,0.463-0.494,0.463c-0.432,0-0.863-0.092-4.074-0.092
				c-3.582,0-4.045,0.092-4.57,0.092c-0.338,0-0.525-0.092-0.525-0.463v-0.74c0-0.432,0.156-0.463,0.988-0.68
				c0.926-0.216,1.174-0.369,1.174-1.636c0-0.771,0.062-4.198,0.062-4.878v-5.002c0-0.709-0.062-3.982-0.062-4.631
				c0-1.358-0.031-1.637-1.205-1.914c-0.832-0.186-0.957-0.217-0.957-0.649v-0.74c0-0.463,0.311-0.463,0.494-0.463
				c0.434,0,0.896,0.093,3.891,0.093c3.828,0,4.385-0.093,4.756-0.093c0.34,0,0.523,0.093,0.523,0.463v0.74
				c0,0.433-0.154,0.464-0.957,0.681c-0.988,0.215-1.203,0.37-1.203,1.636c0,0.772-0.062,4.199-0.062,4.878V552.874z"/>
			<path fill="#010101" d="M834.373,547.872c0-0.709-0.061-3.982-0.061-4.631c0-1.358-0.031-1.637-1.205-1.914
				c-0.832-0.186-0.957-0.217-0.957-0.649v-0.74c0-0.463,0.309-0.463,0.463-0.463c0.432,0,3.736,0.185,5.59,0.185
				c4.412,0,7.625-0.185,8.242-0.185c0.186,0,0.617,0,0.555,0.617l-0.215,3.644c0,0.369-0.062,0.679-0.557,0.679h-0.74
				c-0.4,0-0.465-0.092-0.648-0.74c-0.371-1.39-0.434-1.638-1.729-1.638c-2.594,0-3.119,0-3.334,0.031
				c-0.188,0.031-0.188,0.278-0.188,0.494v5.559c0,0.74,0.279,0.74,1.205,0.74c4.416,0,5.342-0.186,5.619-0.186
				c0.371,0,0.432,0.124,0.371,0.464l-0.34,2.007c-0.094,0.555-0.094,0.617-0.463,0.617c-0.309,0-1.357-0.217-5.311-0.217
				c-0.865,0-1.082,0-1.082,0.68c0,0.803,0.031,4.445,0,5.155c0,1.144,0.188,1.421,1.359,1.421c3.859,0,4.014,0,4.508-0.771
				c0.34-0.494,0.555-1.267,0.742-1.606c0.123-0.216,0.369-0.246,0.586-0.246h1.08c0.494,0,0.463,0.276,0.432,0.556l-0.432,4.013
				c-0.062,0.556-0.371,0.617-0.771,0.617c-0.031,0-1.143-0.062-2.502-0.093c-0.801,0-4.045-0.153-6.389-0.153
				c-4.23,0-5.004,0.153-5.559,0.153c-0.309,0-0.494-0.092-0.494-0.463v-0.74c0-0.432,0.154-0.463,0.957-0.68
				c0.957-0.216,1.205-0.369,1.205-1.636c0-0.771,0.061-4.198,0.061-4.878V547.872z"/>
			<path fill="#010101" d="M867.873,557.629c0.031,1.296,0.309,1.604,1.236,1.759c1.111,0.155,1.295,0.186,1.295,0.68v0.74
				c0,0.463-0.307,0.463-0.586,0.463c-0.678,0-1.605-0.092-4.137-0.092c-2.963,0-4.262,0.092-5.033,0.092
				c-0.463,0-0.586-0.153-0.586-0.463v-0.74c0-0.494,0.123-0.524,1.297-0.68c0.74-0.123,1.08-0.369,1.172-1.143
				c0.031-0.493,0.094-4.477,0.094-5.371v-4.692c0-0.804-0.062-5.403-0.062-5.62c0-0.494-0.338-0.494-1.234-0.494
				c-2.531,0-2.592,0-2.902,1.267l-0.215,1.08c-0.094,0.248-0.217,0.341-0.496,0.341h-0.895c-0.432,0-0.463-0.125-0.494-0.617
				l-0.186-4.077c0-0.433,0-0.586,0.309-0.586c3.49,0,6.516,0.185,8.893,0.185c2.748,0,4.971-0.185,8.551-0.185
				c0.434,0,0.402,0.247,0.402,0.586l-0.186,4.077c0,0.431-0.123,0.617-0.492,0.617h-0.805c-0.215,0-0.432,0-0.646-1.081
				c-0.342-1.668-0.557-1.606-3.305-1.606c-1.049,0-1.02,0.062-1.02,0.988v9.818L867.873,557.629z"/>
		</g>
		<g>
			<g>
				<g>
					<path fill="#010101" d="M400.971,269.155l78.297-78.295c-0.246-4.106-0.623-7.042-0.818-8.363l-23.4-2.692l-70.334,70.333
						C388.402,256.438,393.623,263.171,400.971,269.155z"/>
					<path fill="#010101" d="M401.145,272.569l-1.776-1.446c-6.734-5.484-12.4-12.114-16.843-19.703l-0.99-1.691l72.586-72.585
						l26.554,3.056l0.284,1.927c0.166,1.118,0.578,4.191,0.842,8.583l0.068,1.139l-0.808,0.807L401.145,272.569z M387.914,250.526
						c3.563,5.715,7.895,10.81,12.91,15.187l75.837-75.835c-0.146-2.106-0.321-3.83-0.47-5.086l-20.215-2.326L387.914,250.526z"/>
				</g>
				<g id="XMLID_5_">
					<g>
						<path d="M425.909,282.275l-0.812-0.229c-7.866-2.588-14.489-6.014-20.047-9.896l74.451-74.45c0,0.305,0,0.609,0,0.913
							c0,17.053-3.096,32.277-9.161,45.244c-5.963,12.865-18.396,29.917-43.619,38.189L425.909,282.275z M425.301,281.463
							l0.608,0.152l0.66-0.178c24.994-8.195,37.301-25.096,43.214-37.834c5.963-12.764,9.008-27.684,9.084-44.355l-72.826,72.826
							C411.775,275.982,418.246,279.129,425.301,281.463z"/>
						<path d="M425.098,282.047l0.812,0.229l0.812-0.229c25.223-8.272,37.656-25.324,43.619-38.189
							c6.065-12.967,9.161-28.191,9.161-45.244c0-0.304,0-0.608,0-0.913l-74.451,74.45
							C410.608,276.033,417.231,279.459,425.098,282.047z M424.92,282.656c-7.46-2.437-14.235-5.812-20.224-9.973
							c-0.152-0.102-0.254-0.279-0.279-0.482c0-0.178,0.051-0.354,0.203-0.481l74.45-74.451c0.178-0.203,0.432-0.254,0.685-0.152
							c0.229,0.102,0.381,0.33,0.381,0.584v0.913c0,17.129-3.096,32.43-9.211,45.523c-6.014,12.967-18.523,30.171-44,38.52
							l-0.838,0.229c-0.051,0.025-0.102,0.025-0.178,0.025c-0.051,0-0.102,0-0.178-0.025L424.92,282.656z"/>
						<path d="M385.538,250.125c4.11,6.928,9.287,12.992,15.402,18.067l77.698-77.673c-0.229-3.578-0.559-6.167-0.735-7.562
							l-22.482-2.74L385.538,250.125z M401.423,269.486c-0.127,0.127-0.279,0.178-0.457,0.178c-0.127,0-0.279-0.051-0.406-0.127
							c-6.521-5.329-12.053-11.774-16.367-19.184c-0.151-0.254-0.101-0.559,0.102-0.762l69.959-69.984
							c-0.025-0.127,0-0.253,0.051-0.38c0.102-0.229,0.381-0.381,0.635-0.355l23.599,2.867c0.305,0.051,0.533,0.279,0.559,0.559
							c0.152,1.142,0.559,4.187,0.812,8.424c0.025,0.178-0.051,0.355-0.178,0.482L401.423,269.486z"/>
						<path d="M372.951,198.613c0,16.926,3.071,32.049,9.085,44.99c0.102,0.229,0.229,0.457,0.355,0.686l65.036-65.062l-21.519-2.64
							l-51.993,6.369C373.637,185.089,372.951,190.798,372.951,198.613z M382.112,245.989c-0.203-0.025-0.355-0.152-0.457-0.355
							c-0.102-0.178-0.203-0.381-0.305-0.584c-0.178-0.304-0.33-0.608-0.456-0.913c-6.116-13.094-9.212-28.42-9.212-45.523
							c0-8.576,0.812-14.666,1.066-16.315c0.025-0.279,0.253-0.508,0.532-0.559l52.552-6.42c0.051,0,0.102,0,0.152,0l22.889,2.791
							c0.254,0.051,0.457,0.203,0.532,0.432c0.076,0.229,0.025,0.482-0.151,0.66l-66.585,66.609
							c-0.127,0.127-0.278,0.178-0.456,0.178C382.188,245.989,382.163,245.989,382.112,245.989z"/>
						<path d="M423.474,287.503c-27.278-8.882-40.728-27.329-47.173-41.234c-6.42-13.729-9.693-29.766-9.693-47.655
							c0-10.784,1.244-17.889,1.27-17.939l0.507-2.969c0.025-0.279,0.254-0.482,0.533-0.533l56.916-6.979c0.051,0,0.102,0,0.152,0
							l56.916,6.979c0.279,0.051,0.508,0.254,0.559,0.533l0.508,2.994c0,0.025,1.243,7.13,1.243,17.914
							c0,17.89-3.248,33.927-9.668,47.655c-6.471,13.905-19.894,32.353-47.146,41.234l-2.31,0.634
							c-0.051,0.025-0.102,0.025-0.178,0.025c-0.051,0-0.102,0-0.152-0.025L423.474,287.503z M377.443,245.735
							c6.369,13.677,19.563,31.82,46.386,40.549l2.08,0.584l2.132-0.584c26.771-8.729,39.991-26.872,46.36-40.549
							c6.344-13.576,9.541-29.41,9.541-47.122c0-10.632-1.218-17.609-1.218-17.66l-0.432-2.563l-56.384-6.927l-56.357,6.927
							l-0.432,2.513c-0.025,0.102-1.243,7.079-1.243,17.711C367.877,216.325,371.1,232.159,377.443,245.735z"/>
					</g>
				</g>
				<g>
					<path fill="#010101" d="M297.4,176.622l-50.002,6.121c-0.299,2.048-1.053,8.025-1.053,16.241
						c0.006,6.796,0.518,13.283,1.492,19.47H297.4V176.622z"/>
					<path fill="#010101" d="M298.669,219.723h-51.916l-0.168-1.071c-0.995-6.313-1.502-12.93-1.508-19.666
						c0-8.231,0.745-14.229,1.065-16.426l0.141-0.958l52.386-6.413V219.723z M248.928,217.186h47.204v-39.13l-47.61,5.828
						c-0.349,2.659-0.907,8.029-0.907,15.101C247.62,205.208,248.062,211.326,248.928,217.186z"/>
				</g>
				<g>
					<path fill="#010101" d="M302.475,281.574c24.053-8.468,36.068-25.001,41.908-37.563c2.98-6.37,5.227-13.287,6.756-20.691
						h-48.664V281.574z"/>
					<path fill="#010101" d="M301.206,283.366v-61.315h51.49l-0.315,1.525c-1.554,7.524-3.858,14.58-6.849,20.973
						c-5.886,12.659-18.061,29.57-42.637,38.222L301.206,283.366z M303.743,224.588v55.174
						c22.612-8.524,33.944-24.358,39.489-36.286c2.705-5.782,4.834-12.129,6.337-18.888H303.743z"/>
				</g>
				<path fill="#7F3F98" d="M302.623,176.722l50,6.123c0.299,2.047,1.057,8.025,1.057,16.24c-0.004,6.796-0.521,13.283-1.492,19.47
					h-49.564V176.722z"/>
				<path fill="#7F3F98" d="M297.551,281.672c-24.053-8.465-36.074-24.999-41.914-37.561c-2.975-6.37-5.227-13.29-6.754-20.692
					h48.668V281.672z"/>
				<g>
					<path fill="#010101" d="M357.375,180.823l-0.514-3.006l-56.924-6.967l-56.908,6.967l-0.521,3.006
						c-0.031,0.206-1.238,7.271-1.238,17.815c0.01,12.687,1.715,30.449,9.629,47.37c7.861,16.916,22.334,32.938,46.758,40.902
						l2.281,0.639l2.287-0.639c24.428-7.965,38.902-23.986,46.762-40.896c7.912-16.927,9.619-34.689,9.629-47.376
						C358.615,188.095,357.408,181.029,357.375,180.823z M297.4,281.429c-24.045-8.458-36.061-24.997-41.904-37.57
						c-2.977-6.363-5.227-13.273-6.754-20.678H297.4V281.429z M297.4,218.106h-49.562c-0.975-6.186-1.486-12.674-1.492-19.468
						c0-8.217,0.754-14.194,1.053-16.242l50.002-6.121V218.106z M344.383,243.874c-5.84,12.563-17.855,29.097-41.908,37.555v-58.248
						h48.664C349.609,230.585,347.363,237.504,344.383,243.874z M352.045,218.106h-49.57v-41.831l50.01,6.121
						c0.301,2.058,1.055,8.006,1.055,16.242C353.535,205.427,353.02,211.921,352.045,218.106z"/>
					<path fill="#010101" d="M299.938,288.867l-2.623-0.734c-27.517-8.973-41.05-27.567-47.566-41.589
						c-6.453-13.799-9.733-29.916-9.747-47.904c0-9.789,1.039-16.69,1.247-17.974l0.692-3.993l57.997-7.101l0.154,0.019
						l57.861,7.082l0.673,3.937c0.214,1.296,1.258,8.113,1.258,18.029c-0.014,17.984-3.293,34.104-9.748,47.913
						c-6.515,14.017-20.048,32.608-47.518,41.565L299.938,288.867z M244.118,178.962l-0.36,2.078
						c-0.208,1.282-1.22,8.006-1.22,17.599c0.014,17.613,3.213,33.37,9.51,46.833c6.306,13.568,19.403,31.56,46.002,40.233
						l1.888,0.527l1.946-0.543c26.55-8.658,39.648-26.646,45.952-40.21c6.298-13.473,9.497-29.231,9.511-46.842
						c0-9.922-1.095-16.829-1.22-17.584l-0.357-2.092l-55.832-6.833L244.118,178.962z M298.669,283.22l-1.689-0.594
						c-24.567-8.642-36.744-25.562-42.634-38.232c-2.995-6.402-5.299-13.454-6.846-20.957l-0.315-1.524h51.484V283.22z
						 M250.312,224.449c1.497,6.74,3.625,13.081,6.334,18.872c5.549,11.938,16.882,27.779,39.486,36.295v-55.167H250.312z
						 M301.206,283.22v-61.308h51.49l-0.315,1.525c-1.554,7.526-3.858,14.583-6.849,20.975
						c-5.886,12.661-18.062,29.571-42.637,38.214L301.206,283.22z M303.743,224.449v55.168
						c22.614-8.516,33.944-24.349,39.489-36.278c2.705-5.781,4.834-12.129,6.337-18.89H303.743z M353.13,219.375h-51.924v-44.533
						l52.394,6.413l0.141,0.958c0.32,2.197,1.067,8.195,1.067,16.426c-0.004,6.716-0.512,13.332-1.51,19.665L353.13,219.375z
						 M303.743,216.838h47.212c0.869-5.877,1.312-11.994,1.315-18.2c0-7.07-0.561-12.44-0.909-15.101l-47.618-5.828V216.838z
						 M298.669,219.375h-51.916l-0.168-1.071c-0.995-6.312-1.502-12.928-1.508-19.664c0-8.232,0.745-14.229,1.065-16.427
						l0.141-0.958l52.386-6.413V219.375z M248.928,216.838h47.204v-39.129l-47.61,5.828c-0.349,2.659-0.907,8.029-0.907,15.102
						C247.62,204.862,248.062,210.979,248.928,216.838z"/>
				</g>
			</g>
			<g>
				<path fill="#010101" d="M594.281,269.093l102.252-102.355c5.883-6.656,8.182-7.932,11.559-17.088l-0.297-0.297
					c-9.156,3.383-10.082,6.026-16.74,11.906l-102.73,101.877L594.281,269.093z"/>
				<g>
					<polygon fill="#7F3F98" points="565.857,296.968 560.479,291.591 587.002,261.813 595.631,270.443 					"/>
				</g>
				<path fill="#010101" d="M589.704,315.8c-2.938,0-5.949-0.759-9.087-2.265c-7.487-3.593-15.259-11.083-27.17-22.992l5.383-5.383
					c11.339,11.338,18.686,18.443,25.081,21.512c4.926,2.365,9.563,2.579,16.187-4.043c7.933-7.934,7.672-14.666-0.9-23.237
					l-24.217-24.213l5.383-5.383l24.217,24.213c11.579,11.578,11.883,23.019,0.9,34.003
					C600.266,313.227,595.112,315.8,589.704,315.8z"/>
				<path fill="#010101" d="M675.908,263.136L573.176,161.259c-6.658-5.88-7.58-8.523-16.74-11.906l-0.297,0.297
					c3.381,9.156,5.678,10.432,11.561,17.088l102.254,102.355L675.908,263.136z"/>
				<g>
					<polygon fill="#F15A29" points="698.375,296.968 703.756,291.591 677.229,261.813 668.602,270.443 					"/>
				</g>
				<path fill="#010101" d="M674.528,315.8c-5.408,0-10.562-2.572-15.776-7.788c-10.981-10.983-10.678-22.424,0.902-34.003
					c14.064-14.069,24.216-24.214,24.216-24.214l5.381,5.385c0,0-10.15,10.144-24.213,24.212
					c-8.573,8.571-8.835,15.304-0.903,23.237c6.623,6.625,11.262,6.407,16.187,4.043c6.396-3.068,13.741-10.174,25.079-21.512
					l5.383,5.383c-11.909,11.909-19.681,19.399-27.168,22.992C680.478,315.041,677.465,315.8,674.528,315.8z"/>
			</g>
			<g>
				<g id="XMLID_6_">
					<g>
						<g id="XMLID_7_">
							<g>
								<path d="M910.007,217.239c-0.152,1.192-0.355,2.385-0.584,3.553C909.651,219.624,909.854,218.432,910.007,217.239z"/>
								<path d="M902.369,239.823c-0.305,0.532-0.609,1.065-0.939,1.624C901.76,240.914,902.064,240.381,902.369,239.823z"/>
								<path d="M900.39,243.173c0.355-0.559,0.71-1.143,1.04-1.726C901.1,242.03,900.745,242.589,900.39,243.173z"/>
								<path d="M899.806,182.476c0.33,0.278,0.66,0.583,0.99,0.888C900.466,183.059,900.136,182.754,899.806,182.476z"/>
								<path d="M898.562,181.435c0.076,0.051,0.127,0.102,0.203,0.178C898.689,181.562,898.613,181.511,898.562,181.435z"/>
								<path d="M897.497,180.648c0.355,0.229,0.685,0.507,1.04,0.786C898.207,181.155,897.853,180.902,897.497,180.648z"/>
								<path d="M897.446,180.598c0.025,0,0.051,0.051,0.051,0.051S897.472,180.623,897.446,180.598z"/>
								<path d="M895.289,250.303c0.457-0.584,0.914-1.167,1.345-1.751C896.203,249.136,895.746,249.719,895.289,250.303z"/>
								<path d="M893.767,178.263c0.736,0.381,1.421,0.812,2.106,1.269c-0.736-0.456-1.472-0.913-2.233-1.319
									C893.69,178.212,893.716,178.237,893.767,178.263z"/>
								<path d="M893.589,178.187c0.025,0,0.051,0.025,0.051,0.025C893.64,178.187,893.614,178.187,893.589,178.187z"/>
								<path d="M893.335,178.034c0.102,0.051,0.178,0.102,0.254,0.152C893.513,178.136,893.411,178.085,893.335,178.034z"/>
								<path d="M889.504,256.875c0.456-0.482,0.913-0.964,1.345-1.446C890.417,255.911,889.96,256.393,889.504,256.875z"/>
								<path d="M886.205,175.218c2.385,0.635,4.694,1.548,6.826,2.664c-2.233-1.142-4.594-2.055-7.08-2.715
									C886.053,175.167,886.129,175.192,886.205,175.218z"/>
								<path d="M886.205,175.218c-0.076-0.025-0.152-0.051-0.254-0.051c-1.294-0.355-2.639-0.634-4.009-0.837
									C883.389,174.533,884.81,174.837,886.205,175.218z"/>
								<path d="M911.199,286.69c0,0-16.088-6.014-32.328-18.574c0.178-0.127,0.355-0.279,0.508-0.406
									c14.896,11.495,29.815,17.509,31.82,18.296c4.212-1.675,64.935-26.848,64.935-77.141c0-18.523-15.072-33.622-33.622-33.622
									c-13.245,0-25.324,7.841-30.729,19.971c-0.203,0.456-0.965,0.456-1.167,0c-3.426-7.664-9.491-13.602-16.85-16.951
									c-0.051-0.025-0.076-0.051-0.127-0.051c0,0-0.025-0.025-0.051-0.025c-0.076-0.051-0.152-0.102-0.254-0.152
									s-0.203-0.102-0.304-0.152c-2.132-1.116-4.441-2.029-6.826-2.664c11.216,2.081,20.478,9.617,24.994,19.717
									c5.354-11.927,17.331-20.325,31.312-20.325c18.905,0,34.257,15.326,34.257,34.256
									C976.769,261.747,911.199,286.69,911.199,286.69z"/>
								<path d="M882.221,263.701c2.411-2.081,4.669-4.188,6.775-6.318C886.89,259.539,884.632,261.646,882.221,263.701z"/>
								<path d="M882.221,263.701c-0.507,0.456-1.015,0.888-1.548,1.319C881.206,264.563,881.714,264.132,882.221,263.701z"/>
								<path d="M880.673,265.021c0.533-0.432,1.041-0.863,1.548-1.319c2.411-2.056,4.669-4.162,6.775-6.318
									c0.178-0.152,0.33-0.33,0.508-0.508c0.456-0.482,0.913-0.964,1.345-1.446c1.599-1.7,3.07-3.4,4.44-5.126
									c0.457-0.584,0.914-1.167,1.345-1.751c1.37-1.776,2.614-3.578,3.756-5.379c0.355-0.584,0.71-1.143,1.04-1.726
									c0.33-0.559,0.635-1.092,0.939-1.624c3.426-6.116,5.785-12.485,7.054-19.031c0.229-1.168,0.432-2.36,0.584-3.553
									c0.381-2.74,0.559-5.558,0.559-8.374c0-18.042-14.084-32.759-32.074-33.571c0.456-0.051,0.938-0.051,1.37-0.051
									c4.821,0,9.49,1.041,13.728,2.943c0.025,0,0.051,0,0.051,0.025c0.762,0.406,1.497,0.863,2.233,1.319
									c0.532,0.33,1.065,0.686,1.573,1.066c0.025,0.025,0.051,0.051,0.051,0.051c0.355,0.254,0.71,0.507,1.04,0.786
									c0,0,0-0.025,0.025,0c0.051,0.076,0.127,0.127,0.203,0.178c0.355,0.254,0.71,0.559,1.04,0.863
									c0.33,0.278,0.66,0.583,0.99,0.888c6.8,6.344,11.038,15.428,11.038,25.502c0,21.898-10.911,41.717-32.455,58.845
									c-0.203-0.152-0.432-0.305-0.634-0.482c-0.127-0.102-0.254-0.202-0.381-0.304
									C879.15,266.289,879.912,265.654,880.673,265.021z"/>
								<path d="M880.673,265.021c-0.761,0.634-1.522,1.269-2.309,1.903c-0.025,0-0.025-0.025-0.025-0.025
									C879.125,266.264,879.912,265.629,880.673,265.021z"/>
								<path d="M878.745,268.218c0.05-0.025,0.075-0.076,0.126-0.102c16.24,12.561,32.328,18.574,32.328,18.574
									s65.569-24.943,65.569-77.825c0-18.93-15.352-34.256-34.257-34.256c-13.981,0-25.958,8.398-31.312,20.325
									c-4.517-10.1-13.778-17.636-24.994-19.717c-1.396-0.381-2.816-0.685-4.263-0.888c-1.143-0.152-2.284-0.254-3.451-0.305
									c0.456-0.051,0.938-0.051,1.37-0.051c13.321,0,25.477,7.612,31.338,19.488c5.861-11.876,18.017-19.488,31.312-19.488
									c19.234,0,34.892,15.656,34.892,34.891c0,15.225-5.735,37.859-33.014,59.251c-16.29,12.764-32.784,19.107-32.962,19.184
									c-0.076,0.025-0.152,0.025-0.229,0.025s-0.152,0-0.203-0.025c-0.178-0.076-16.442-6.217-32.632-18.777
									C878.491,268.421,878.618,268.319,878.745,268.218z"/>
								<path d="M878.745,267.228c0.202,0.178,0.431,0.33,0.634,0.482c-0.152,0.127-0.33,0.279-0.508,0.406
									c-0.177-0.127-0.354-0.279-0.532-0.406c-0.152-0.127-0.33-0.254-0.482-0.406c0.025-0.025,0.076-0.051,0.102-0.076
									c0.127-0.102,0.279-0.202,0.406-0.304C878.491,267.025,878.618,267.126,878.745,267.228z"/>
								<path d="M878.339,267.71c0.178,0.127,0.355,0.279,0.532,0.406c-0.051,0.025-0.076,0.076-0.126,0.102
									c-0.127,0.076-0.254,0.127-0.406,0.127c-0.127,0-0.279-0.051-0.381-0.127c-0.229-0.178-0.432-0.33-0.635-0.508
									c0.178-0.127,0.355-0.254,0.533-0.406C878.009,267.456,878.187,267.583,878.339,267.71z"/>
								<path d="M878.745,268.218c-0.127,0.102-0.254,0.203-0.381,0.305c-0.127-0.102-0.279-0.203-0.406-0.305
									c0.102,0.076,0.254,0.127,0.381,0.127C878.491,268.345,878.618,268.294,878.745,268.218z"/>
								<path d="M878.415,174.66c-2.538,0.101-5.024,0.481-7.385,1.116c-2.689,0.482-5.277,1.269-7.739,2.385
									c4.517-2.436,9.643-3.907,15.099-4.136c0.025,0,0.076,0,0.102,0c1.167,0.051,2.309,0.152,3.451,0.305
									c1.37,0.203,2.715,0.481,4.009,0.837c-1.979-0.381-4.009-0.558-6.09-0.558C879.404,174.609,878.896,174.609,878.415,174.66z
									"/>
								<path d="M870.346,176.639c1.04-0.33,2.105-0.583,3.172-0.761C872.451,176.081,871.386,176.334,870.346,176.639z"/>
								<path d="M871.03,175.776c2.36-0.635,4.847-1.016,7.385-1.116c0.481-0.051,0.989-0.051,1.446-0.051
									c2.081,0,4.11,0.177,6.09,0.558c2.486,0.66,4.847,1.573,7.08,2.715c0.101,0.051,0.202,0.102,0.304,0.152
									c0.076,0.051,0.178,0.102,0.254,0.152c-4.237-1.902-8.906-2.943-13.728-2.943c-0.432,0-0.914,0-1.37,0.051
									c-0.025,0-0.076,0-0.102,0c-0.482-0.051-0.965-0.051-1.446-0.051C874.938,175.243,872.959,175.421,871.03,175.776z"/>
								<path d="M870.295,176.639c-1.522,0.457-3.02,1.016-4.466,1.675C867.25,177.654,868.747,177.096,870.295,176.639z"/>
								<path d="M862.986,179.785c-0.431,0.279-0.888,0.533-1.319,0.812C862.099,180.318,862.53,180.039,862.986,179.785z"/>
								<path d="M861.489,250.354c0.457,0.584,0.914,1.167,1.396,1.726C862.403,251.495,861.921,250.938,861.489,250.354z"/>
								<path d="M860.145,248.628c0.432,0.584,0.863,1.167,1.345,1.726C861.008,249.77,860.576,249.212,860.145,248.628z"/>
								<path d="M856.744,184.479c-0.38,0.381-0.761,0.736-1.116,1.117C855.983,185.19,856.364,184.81,856.744,184.479z"/>
								<path d="M855.374,241.523c0.33,0.583,0.686,1.167,1.041,1.725C856.06,242.665,855.704,242.106,855.374,241.523z"/>
								<path d="M854.436,239.899c0.305,0.558,0.608,1.091,0.938,1.624C855.044,240.965,854.74,240.432,854.436,239.899z"/>
								<path d="M853.547,187.956c0.66-0.837,1.345-1.624,2.081-2.359C854.892,186.332,854.207,187.145,853.547,187.956z"/>
								<path d="M850.883,191.839c0.787-1.345,1.675-2.665,2.664-3.883C852.583,189.174,851.694,190.494,850.883,191.839z"/>
								<path d="M851.67,234.342c-0.559-1.269-1.066-2.512-1.523-3.781C850.629,231.83,851.137,233.099,851.67,234.342z"/>
								<path d="M847.863,222.872c0.432,1.954,0.989,3.883,1.624,5.786C848.827,226.755,848.295,224.826,847.863,222.872z"/>
								<path d="M846.849,217.265c0.126,0.989,0.278,1.954,0.456,2.918C847.127,219.219,846.975,218.229,846.849,217.265z"/>
								<path d="M877.323,267.71c-21.441-17.052-32.302-36.819-32.302-58.845c0-13.221,7.308-24.74,18.168-30.653
									c0.025-0.025,0.076-0.025,0.102-0.051c2.462-1.116,5.05-1.902,7.739-2.385c-14.615,3.907-25.375,17.229-25.375,33.089
									c0,26.34,15.986,45.624,32.201,58.438C877.679,267.456,877.501,267.583,877.323,267.71z"/>
								<path d="M850.883,191.839c-2.918,4.999-4.593,10.81-4.593,17.026c0,2.842,0.178,5.634,0.559,8.399
									c0.126,0.964,0.278,1.954,0.456,2.918c0.152,0.913,0.355,1.802,0.559,2.689c0.432,1.954,0.964,3.883,1.624,5.786
									c0.203,0.659,0.432,1.294,0.659,1.902c0.457,1.27,0.965,2.513,1.523,3.781c0.837,1.878,1.75,3.73,2.766,5.558
									c0.305,0.532,0.608,1.065,0.938,1.624c0.33,0.583,0.686,1.142,1.041,1.725c1.142,1.802,2.385,3.604,3.729,5.38
									c0.432,0.584,0.863,1.142,1.345,1.726c0.432,0.584,0.914,1.142,1.396,1.726c4.314,5.151,9.466,10.1,15.454,14.819
									c0,0,0,0.025,0.025,0.025c-0.127,0.102-0.279,0.202-0.406,0.304c-0.025,0.025-0.076,0.051-0.102,0.076
									c-16.215-12.814-32.201-32.099-32.201-58.438c0-15.859,10.76-29.182,25.375-33.089c1.929-0.355,3.908-0.533,5.913-0.533
									c0.481,0,0.964,0,1.446,0.051c-1.649,0.076-3.273,0.279-4.872,0.584c-1.066,0.178-2.132,0.431-3.172,0.761
									c0,0-0.025,0-0.051,0c-1.548,0.457-3.045,1.016-4.466,1.675c-0.965,0.457-1.929,0.939-2.843,1.472
									c-0.456,0.254-0.888,0.533-1.319,0.812c-1.776,1.142-3.426,2.436-4.923,3.882c-0.38,0.33-0.761,0.711-1.116,1.117
									c-0.736,0.735-1.421,1.522-2.081,2.359C852.558,189.174,851.67,190.494,850.883,191.839z"/>
								<path d="M814.317,173.975c13.271,0,25.426,7.612,31.338,19.514c5.837-11.901,17.966-19.514,31.288-19.514
									c0.481,0,0.964,0,1.446,0.051c-5.456,0.229-10.582,1.7-15.099,4.136c-0.051,0-0.076,0-0.102,0.051
									c-7.409,3.324-13.524,9.287-16.95,17.002c-0.102,0.228-0.33,0.38-0.584,0.38s-0.456-0.127-0.583-0.354
									c-5.456-12.155-17.534-19.996-30.755-19.996c-18.523,0-33.622,15.099-33.622,33.622c0,50.699,60.773,75.491,64.96,77.141
									c2.005-0.787,16.799-6.826,31.668-18.296c0.203,0.178,0.406,0.33,0.635,0.508c0.127,0.102,0.279,0.203,0.406,0.305
									c-16.139,12.51-32.303,18.701-32.48,18.777c-0.076,0.025-0.152,0.025-0.229,0.025s-0.152,0-0.229-0.025
									c-0.151-0.076-16.671-6.318-32.962-19.031c-15.072-11.774-33.038-31.617-33.038-59.403
									C779.427,189.631,795.083,173.975,814.317,173.975z"/>
							</g>
						</g>
					</g>
				</g>
				<path fill="#010101" d="M885.307,300.078c0,8.665-7.396,8.84-7.396,8.84s-7.406,0.41-7.406-8.84
					c0-9.254,7.406-19.154,7.406-19.154S885.307,291.41,885.307,300.078z"/>
			</g>
			<g>
				<g>
					<path fill="#F15A29" d="M1086.584,155.575l-15.225-0.005c-0.654,8.007-3.252,49.118-2.988,57.856h21.152
						C1089.523,213.427,1087.234,163.577,1086.584,155.575z"/>
					<path fill="#F05133" d="M1093.509,217.233h-28.831l-0.111-3.691c-0.278-9.233,2.422-51.213,2.999-58.281l0.286-3.498
						l22.242,0.008l0.284,3.496c0.648,7.978,2.854,55.947,2.947,57.985L1093.509,217.233z M1072.184,209.62h13.354
						c-0.49-10.538-1.835-39.095-2.511-50.24l-8.136-0.002C1074.091,170.646,1072.412,198.099,1072.184,209.62z"/>
				</g>
				<g>
					<path fill="#FFFFFF" d="M1118.131,164.017v11.846h5.074V303.09c0,8.407,6.814,15.227,15.225,15.227s15.225-6.819,15.225-15.227
						V175.862h5.076v-11.846H1118.131z"/>
					<path fill="#010101" d="M1138.43,322.123c-10.494,0-19.031-8.538-19.031-19.033V179.669h-5.074V160.21h48.213v19.459h-5.076
						V303.09C1157.461,313.585,1148.924,322.123,1138.43,322.123z M1121.938,172.056h5.074V303.09c0,6.297,5.122,11.42,11.418,11.42
						s11.418-5.123,11.418-11.42V172.056h5.076v-4.232h-32.986V172.056z"/>
				</g>
				<g>
					<polygon fill="#010101" points="1147.311,164.017 1129.549,164.017 1127.01,150.486 1149.842,150.486 					"/>
				</g>
				<path fill="#7F3F98" d="M1126.748,217.766v85.432c0,6.444,5.242,11.681,11.682,11.681c6.443,0,11.684-5.24,11.684-11.684
					v-85.429H1126.748z"/>
				<g>
					<path fill="#FFFFFF" d="M1073.289,292.088c-1.391-8.736-2.104-17.479-2.881-26.219c-0.746-8.74-1.303-17.479-1.711-26.222
						c-0.336-8.74-0.59-17.479-0.326-26.221h21.152c0.262,8.741,0.01,17.48-0.32,26.221c-0.414,8.738-0.973,17.481-1.723,26.222
						c-0.773,8.74-1.486,17.482-2.875,26.219c-1.539,10.001-2.535,16.223-5.496,26.224
						C1079.109,318.312,1074.631,300.832,1073.289,292.088z"/>
					<path fill="#010101" d="M1078.845,332.613l-3.423-13.357c-0.185-0.721-4.54-17.763-5.896-26.591
						c-1.287-8.087-2.009-16.269-2.708-24.181l-0.201-2.278c-0.719-8.412-1.297-17.283-1.722-26.381
						c-0.381-9.885-0.581-18.158-0.329-26.514l0.111-3.691h28.54l0.11,3.692c0.276,9.249-0.021,18.518-0.321,26.479
						c-0.441,9.322-1.009,17.946-1.734,26.403l-0.19,2.168c-0.699,7.952-1.422,16.175-2.718,24.323
						c-1.59,10.331-2.636,16.676-5.605,26.706L1078.845,332.613z M1072.094,217.233c-0.1,6.937,0.091,14.036,0.407,22.268
						c0.419,8.97,0.991,17.743,1.699,26.045l0.201,2.269c0.688,7.782,1.397,15.83,2.646,23.675c0.437,2.847,1.224,6.68,2.077,10.522
						c0.576-3.145,1.1-6.483,1.719-10.503c1.256-7.903,1.967-15.992,2.655-23.813l0.19-2.162c0.716-8.349,1.276-16.879,1.712-26.065
						c0.254-6.736,0.507-14.452,0.398-22.234H1072.094z"/>
				</g>
				<rect x="1050.559" y="209.62" fill="#010101" width="56.619" height="7.613"/>
				<rect x="1062.695" y="151.761" fill="#010101" width="32.352" height="7.613"/>
			</g>
		</g>
		<g>
			<path d="M427.078,437.524c0,4.302-3.67,4.387-3.67,4.387s-3.676,0.201-3.676-4.387c-0.002-4.588,3.676-9.503,3.676-9.503
				S427.078,433.223,427.078,437.524z"/>
			<path d="M400.738,437.524c0,4.302-3.67,4.387-3.67,4.387s-3.676,0.201-3.676-4.387c-0.002-4.588,3.674-9.503,3.674-9.503
				S400.738,433.223,400.738,437.524z"/>
			<path d="M374.395,437.524c0,4.302-3.668,4.387-3.668,4.387s-3.676,0.201-3.676-4.387c-0.002-4.588,3.674-9.503,3.674-9.503
				S374.395,433.223,374.395,437.524z"/>
			<path d="M348.053,437.524c0.002,4.302-3.67,4.387-3.67,4.387s-3.674,0.201-3.674-4.387c-0.004-4.588,3.672-9.503,3.672-9.503
				S348.053,433.223,348.053,437.524z"/>
			<path d="M532.447,437.524c0.006,4.302-3.67,4.387-3.67,4.387s-3.676,0.201-3.676-4.387s3.676-9.503,3.676-9.503
				S532.447,433.223,532.447,437.524z"/>
			<path d="M506.104,437.524c0.002,4.302-3.668,4.387-3.668,4.387s-3.674,0.201-3.674-4.387c-0.004-4.588,3.674-9.503,3.674-9.503
				S506.104,433.223,506.104,437.524z"/>
			<path d="M479.764,437.524c0.002,4.302-3.672,4.387-3.672,4.387s-3.674,0.201-3.674-4.387s3.674-9.503,3.674-9.503
				S479.764,433.223,479.764,437.524z"/>
			<path d="M453.424,437.524c0.004,4.302-3.67,4.387-3.67,4.387s-3.68,0.201-3.68-4.387c-0.002-4.588,3.68-9.503,3.68-9.503
				S453.424,433.223,453.424,437.524z"/>
			<path d="M295.369,437.524c0.002,4.302-3.668,4.387-3.668,4.387s-3.68,0.201-3.68-4.387s3.674-9.503,3.674-9.503
				S295.369,433.223,295.369,437.524z"/>
			<path d="M269.025,437.524c0,4.302-3.668,4.387-3.668,4.387s-3.68,0.201-3.68-4.387c-0.002-4.588,3.674-9.503,3.674-9.503
				S269.025,433.223,269.025,437.524z"/>
			<path d="M242.682,437.524c0.006,4.302-3.668,4.387-3.668,4.387s-3.674,0.201-3.674-4.387c-0.004-4.588,3.674-9.503,3.674-9.503
				S242.682,433.223,242.682,437.524z"/>
			<path d="M321.711,437.524c0.002,4.302-3.67,4.387-3.67,4.387s-3.676,0.201-3.676-4.387s3.674-9.503,3.674-9.503
				S321.711,433.223,321.711,437.524z"/>
			<path d="M637.818,437.524c0.002,4.302-3.672,4.387-3.672,4.387s-3.674,0.201-3.674-4.387s3.674-9.503,3.674-9.503
				S637.818,433.223,637.818,437.524z"/>
			<path d="M611.477,437.524c0.002,4.302-3.674,4.387-3.674,4.387s-3.674,0.201-3.674-4.387c-0.002-4.588,3.674-9.503,3.674-9.503
				S611.477,433.223,611.477,437.524z"/>
			<path d="M585.131,437.524c0.004,4.302-3.668,4.387-3.668,4.387s-3.676,0.201-3.676-4.387c-0.002-4.588,3.676-9.503,3.676-9.503
				S585.131,433.223,585.131,437.524z"/>
			<path d="M558.791,437.524c0,4.302-3.67,4.387-3.67,4.387s-3.674,0.201-3.674-4.387c-0.004-4.588,3.67-9.503,3.67-9.503
				S558.791,433.223,558.791,437.524z"/>
			<path d="M743.189,437.524c0,4.302-3.674,4.387-3.674,4.387s-3.678,0.201-3.678-4.387s3.678-9.503,3.678-9.503
				S743.189,433.223,743.189,437.524z"/>
			<path d="M716.846,437.524c0,4.302-3.67,4.387-3.67,4.387s-3.68,0.201-3.68-4.387s3.678-9.503,3.678-9.503
				S716.846,433.223,716.846,437.524z"/>
			<path d="M690.502,437.524c0,4.302-3.67,4.387-3.67,4.387s-3.678,0.201-3.678-4.387s3.676-9.503,3.676-9.503
				S690.502,433.223,690.502,437.524z"/>
			<path d="M664.16,437.524c0.002,4.302-3.67,4.387-3.67,4.387s-3.674,0.201-3.674-4.387c-0.004-4.588,3.674-9.503,3.674-9.503
				S664.16,433.223,664.16,437.524z"/>
			<path d="M848.553,437.524c0,4.302-3.668,4.387-3.668,4.387s-3.68,0.201-3.68-4.387s3.68-9.503,3.68-9.503
				S848.553,433.223,848.553,437.524z"/>
			<path d="M822.209,437.524c0.006,4.302-3.664,4.387-3.664,4.387s-3.676,0.201-3.676-4.387c-0.006-4.588,3.67-9.503,3.67-9.503
				S822.209,433.223,822.209,437.524z"/>
			<path d="M795.869,437.524c0.006,4.302-3.67,4.387-3.67,4.387s-3.674,0.201-3.674-4.387c-0.006-4.588,3.668-9.503,3.668-9.503
				S795.869,433.223,795.869,437.524z"/>
			<path d="M769.529,437.524c0,4.302-3.674,4.387-3.674,4.387s-3.674,0.201-3.674-4.387s3.674-9.503,3.674-9.503
				S769.529,433.223,769.529,437.524z"/>
			<path d="M953.926,437.524c0,4.302-3.674,4.387-3.674,4.387s-3.676,0.201-3.676-4.387s3.676-9.503,3.676-9.503
				S953.926,433.223,953.926,437.524z"/>
			<path d="M927.582,437.524c0.004,4.302-3.672,4.387-3.672,4.387s-3.674,0.201-3.674-4.387c-0.002-4.588,3.674-9.503,3.674-9.503
				S927.582,433.223,927.582,437.524z"/>
			<path d="M901.236,437.524c0.006,4.302-3.664,4.387-3.664,4.387s-3.68,0.201-3.68-4.387c-0.006-4.588,3.674-9.503,3.674-9.503
				S901.236,433.223,901.236,437.524z"/>
			<path d="M874.9,437.524c0,4.302-3.672,4.387-3.672,4.387s-3.674,0.201-3.674-4.387s3.674-9.503,3.674-9.503
				S874.9,433.223,874.9,437.524z"/>
			<path d="M1059.293,437.524c0,4.302-3.672,4.387-3.672,4.387s-3.676,0.201-3.676-4.387s3.676-9.503,3.676-9.503
				S1059.293,433.223,1059.293,437.524z"/>
			<path d="M1032.949,437.524c0.004,4.302-3.67,4.387-3.67,4.387s-3.674,0.201-3.674-4.387c-0.004-4.588,3.674-9.503,3.674-9.503
				S1032.949,433.223,1032.949,437.524z"/>
			<path d="M1006.605,437.524c0.004,4.302-3.666,4.387-3.666,4.387s-3.68,0.201-3.68-4.387c-0.006-4.588,3.674-9.503,3.674-9.503
				S1006.605,433.223,1006.605,437.524z"/>
			<path d="M980.268,437.524c0,4.302-3.672,4.387-3.672,4.387s-3.678,0.201-3.678-4.387s3.678-9.503,3.678-9.503
				S980.268,433.223,980.268,437.524z"/>
			<path d="M1164.66,437.524c0,4.302-3.672,4.387-3.672,4.387s-3.676,0.201-3.676-4.387s3.676-9.503,3.676-9.503
				S1164.66,433.223,1164.66,437.524z"/>
			<path d="M1138.318,437.524c0.004,4.302-3.666,4.387-3.666,4.387s-3.682,0.201-3.682-4.387c-0.004-4.588,3.676-9.503,3.676-9.503
				S1138.318,433.223,1138.318,437.524z"/>
			<path d="M1111.977,437.524c0.004,4.302-3.67,4.387-3.67,4.387s-3.674,0.201-3.674-4.387c-0.002-4.588,3.672-9.503,3.672-9.503
				S1111.977,433.223,1111.977,437.524z"/>
			<path d="M1085.637,437.524c0,4.302-3.674,4.387-3.674,4.387s-3.678,0.201-3.678-4.387s3.678-9.503,3.678-9.503
				S1085.637,433.223,1085.637,437.524z"/>
		</g>
	</g>
</g>
<g id="gatsby">
</g>
<g id="big_lebowski">
</g>
<g id="_x32_001">
</g>
<g id="life_aquatic">
</g>
<g id="hobbit">
</g>
<g id="reservoir_dogs">
</g>
<g id="akira">
</g>
</svg>
