<?xml version="1.0" encoding="utf-8"?>
<!-- Generator: Adobe Illustrator 19.2.1, SVG Export Plug-In . SVG Version: 6.00 Build 0)  -->
<svg version="1.1" xmlns="http://www.w3.org/2000/svg" xmlns:xlink="http://www.w3.org/1999/xlink" x="0px" y="0px"
	 viewBox="0 0 1420 319" enable-background="new 0 0 1420 319" xml:space="preserve">
<g id="Layer_2">
</g>
<g id="Layer_1">
	<g>
		<g>
			<path fill="#004B87" d="M250.4,274c-40.6,0-73.6-33-73.6-73.6s33-73.6,73.6-73.6s73.6,33,73.6,73.6S291,274,250.4,274z
				 M250.4,143.1c-31.6,0-57.3,25.7-57.3,57.3s25.7,57.3,57.3,57.3s57.3-25.7,57.3-57.3S282,143.1,250.4,143.1z"/>
			<circle fill="#004B87" cx="250.4" cy="200.4" r="16.4"/>
			<rect x="5" y="298.5" fill="#004B87" width="310.8" height="16.4"/>
			<path fill="#004B87" d="M45.9,306.7H29.5c0-121.8,99.1-220.8,220.8-220.8v16.4C137.6,102.2,45.9,194,45.9,306.7z"/>
			<path fill="#004B87" d="M258.6,135h-16.4V28.6h32.7c13.5,0,24.5-11,24.5-24.5h16.4c0,22.5-18.3,40.9-40.9,40.9h-16.4V135z"/>
			<rect x="242.2" y="265.8" fill="#004B87" width="16.4" height="40.9"/>
			<path fill="#004B87" d="M111.3,94.1H37.7C19.7,94.1,5,79.4,5,61.3h16.4c0,9,7.3,16.4,16.4,16.4h73.6V94.1z"/>
			<circle fill="#004B87" cx="119.5" cy="224.9" r="24.5"/>
			
				<rect x="99.1" y="77.1" transform="matrix(0.9261 -0.3773 0.3773 0.9261 -66.14 54.9704)" fill="#004B87" width="16.4" height="238.5"/>
		</g>
		<g>
			<path fill="#004B87" d="M940.2,167.7c-4.5,0-8.2-3.7-8.2-8.2v-49.1c0-36.1,29.4-65.4,65.4-65.4c25.2,0,48.4,14.7,59.1,37.4
				c1.9,4.1,0.2,9-3.9,10.9c-4.1,1.9-9,0.2-10.9-3.9c-8.1-17.1-25.5-28.1-44.4-28.1c-27.1,0-49.1,22-49.1,49.1v49.1
				C948.4,164,944.7,167.7,940.2,167.7z"/>
			<path fill="#004B87" d="M1103.8,167.7h-49.1v-24.5c0-9-7.3-16.4-16.4-16.4s-16.4,7.3-16.4,16.4v16.4h-16.4v-16.4
				c0-18,14.7-32.7,32.7-32.7c18,0,32.7,14.7,32.7,32.7v8.2h16.4v-8.2c0-27.1-22-49.1-49.1-49.1c-22.6,0-49.1,10.7-49.1,40.9v24.5
				h-16.4V135c0-34.2,26.3-57.3,65.4-57.3c36.1,0,65.4,29.4,65.4,65.4V167.7z"/>
			<path fill="#004B87" d="M948.4,110.4H932V69.5c0-27.1-22-49.1-49.1-49.1V4.1c36.1,0,65.4,29.4,65.4,65.4V110.4z"/>
			<path fill="#004B87" d="M1003,314.9c-79.7,0-144.6-64.9-144.6-144.6v-13c0-30.6,13.6-44.2,24.5-55.1c9.2-9.2,16.4-16.4,16.4-32.7
				c0-9-7.3-16.4-16.4-16.4c-4.5,0-8.2-3.7-8.2-8.2s3.7-8.2,8.2-8.2c18,0,32.7,14.7,32.7,32.7c0,23.1-11.3,34.3-21.2,44.2
				c-10.6,10.6-19.7,19.7-19.7,43.5v13c0,70.7,57.5,128.2,128.2,128.2c15,0,27.2-12.2,27.2-27.2V126.8c0-4.5,3.7-8.2,8.2-8.2
				s8.2,3.7,8.2,8.2v144.6C1046.6,295.4,1027,314.9,1003,314.9z"/>
			<path fill="#004B87" d="M883,53.2c-13.5,0-24.5-11-24.5-24.5s11-24.5,24.5-24.5c13.5,0,24.5,11,24.5,24.5S896.5,53.2,883,53.2z
				 M883,20.5c-4.5,0-8.2,3.7-8.2,8.2s3.7,8.2,8.2,8.2c4.5,0,8.2-3.7,8.2-8.2S887.5,20.5,883,20.5z"/>
			<path fill="#004B87" d="M1022,53.2h-16.4V28.6c0-4.5-3.7-8.2-8.2-8.2c-4.5,0-8.2,3.7-8.2,8.2v24.5h-16.4V28.6
				c0-13.5,11-24.5,24.5-24.5c13.5,0,24.5,11,24.5,24.5V53.2z"/>
			<path fill="#004B87" d="M883,224.9h-8.2c-4.5,0-8.2-3.7-8.2-8.2c0-4.5,3.7-8.2,8.2-8.2h8.2c27.1,0,49.1-22,49.1-49.1v-8.2h106.3
				c4.5,0,8.2,3.7,8.2,8.2s-3.7,8.2-8.2,8.2h-90.5C943.9,199.9,916.3,224.9,883,224.9z"/>
		</g>
		<g>
			<path fill="#004B87" d="M695.1,282.2c-18.4,0-36.8-7-50.8-21l-45.1-45.1l11.6-11.6l45.1,45.1c19.7,19.7,50.6,21.5,72.3,5.4
				l-67-67l11.6-11.6l79,79l-5.8,5.8C731.9,275.2,713.5,282.2,695.1,282.2z"/>
			<path fill="#004B87" d="M583.9,226.5L445.4,87.9c-19.1-19.1-19.1-50.3,0-69.4c9.3-9.3,21.6-14.4,34.7-14.4s25.4,5.1,34.7,14.4
				l166.3,166.3L583.9,226.5z M480.1,20.5c-8.4,0-16.8,3.2-23.1,9.6c-12.8,12.8-12.8,33.5,0,46.3l130.8,130.7l64.8-27.8L503.2,30
				C496.8,23.7,488.4,20.5,480.1,20.5z"/>
			<path fill="#004B87" d="M594.3,167.7c-2.1,0-4.2-0.8-5.8-2.4L482.2,59c-3.2-3.2-3.2-8.4,0-11.6c3.2-3.2,8.4-3.2,11.6,0
				l106.3,106.3c3.2,3.2,3.2,8.4,0,11.6C598.5,166.9,596.4,167.7,594.3,167.7z"/>
			<path fill="#004B87" d="M741.5,314.9h-16.4v-16.4h16.4V314.9z M708.8,314.9h-16.4v-16.4h16.4V314.9z M676.1,314.9h-16.4v-16.4
				h16.4V314.9z M643.4,314.9H627v-16.4h16.4V314.9z M610.6,314.9h-16.4v-16.4h16.4V314.9z M577.9,314.9h-16.4v-16.4h16.4V314.9z
				 M545.2,314.9h-16.4v-16.4h16.4V314.9z M512.5,314.9h-16.4v-16.4h16.4V314.9z M479.8,314.9h-16.4v-16.4h16.4V314.9z M447.1,314.9
				h-16.4v-16.4h16.4V314.9z"/>
		</g>
		<g>
			<path fill="#004B87" d="M1365.9,241.3h-130.9c-13.5,0-24.5-11-24.5-24.5V102.2c0-13.5,11-24.5,24.5-24.5h130.9
				c13.5,0,24.5,11,24.5,24.5v114.5C1390.5,230.3,1379.5,241.3,1365.9,241.3z M1235.1,94.1c-4.5,0-8.2,3.7-8.2,8.2v114.5
				c0,4.5,3.7,8.2,8.2,8.2h130.9c4.5,0,8.2-3.7,8.2-8.2V102.2c0-4.5-3.7-8.2-8.2-8.2H1235.1z"/>
			<polygon fill="#004B87" points="1365.9,314.9 1235.1,314.9 1235.1,224.9 1251.4,224.9 1251.4,298.5 1349.6,298.5 1349.6,224.9 
				1365.9,224.9 			"/>
			<polygon fill="#004B87" points="1365.9,94.1 1349.6,94.1 1349.6,20.5 1251.4,20.5 1251.4,94.1 1235.1,94.1 1235.1,4.1 
				1365.9,4.1 			"/>
			<rect x="1243.2" y="28.6" fill="#004B87" width="114.5" height="16.4"/>
			<rect x="1243.2" y="53.2" fill="#004B87" width="114.5" height="16.4"/>
			<rect x="1243.2" y="274" fill="#004B87" width="114.5" height="16.4"/>
			<rect x="1243.2" y="249.5" fill="#004B87" width="114.5" height="16.4"/>
			<rect x="1398.6" y="110.4" fill="#004B87" width="16.4" height="32.7"/>
			<rect x="1398.6" y="159.5" fill="#004B87" width="16.4" height="32.7"/>
			<polygon fill="#004B87" points="1334.1,204.6 1292.3,162.9 1292.3,118.6 1308.7,118.6 1308.7,156.1 1345.6,193.1 			"/>
		</g>
	</g>
</g>
</svg>
