<?xml version="1.0" encoding="utf-8"?>
<!-- Generator: Adobe Illustrator 16.0.0, SVG Export Plug-In . SVG Version: 6.00 Build 0)  -->
<!DOCTYPE svg PUBLIC "-//W3C//DTD SVG 1.1//EN" "http://www.w3.org/Graphics/SVG/1.1/DTD/svg11.dtd">
<svg version="1.1" id="Layer_1" xmlns="http://www.w3.org/2000/svg" xmlns:xlink="http://www.w3.org/1999/xlink" x="0px" y="0px"
	 width="600px" height="600px" viewBox="0 0 600 600" enable-background="new 0 0 600 600" xml:space="preserve">
<g>
	<g>
		<path fill="#009DDC" d="M500,299.995c0,110.462-89.54,200.003-199.999,200.003C189.544,499.998,100,410.457,100,299.995
			c0.001-110.444,89.544-199.993,200.001-199.993C410.46,100.001,500,189.551,500,299.995z"/>
		<g>
			<path fill="#DEDFE0" d="M347.368,212.512l-16.683,11.178l-6.415,27.955l-9.887-7.85l-7.575,32.277l-8.26-11.868l-16.184,47.19
				l-9.237-9.318l-6.997,22.132l-5.424-7.142l-20.383,42.242l-8.598-9.189l-6.457,16.988l-15.28-27.383l-3.816,4.141l-5.423-4.131
				l-2.631,4.455l-19.9-15.273l-4.778-10.492c0,0-11.578-12.214-11.709-17.013c-0.129-4.796-4.015-10.565-0.148-25.369
				c3.882-14.821,17.097-23.702,23.935-26.672c6.834-2.96,23.173-7.743,31.151-12.764c7.975-5.012,44.742-30.991,47.701-30.991
				c2.596,0,41.518-6.948,41.518-6.948l-4.764,9.917L347.368,212.512z"/>
			<polygon fill="#808285" points="222.554,312.096 231.419,331.854 231.419,350.316 225.285,366.586 214.741,346.363 			"/>
			<path fill="#DEDFE0" d="M330.686,223.689c15.819,7.529,49.203,19.543,56.062,22.726c9.345,4.324,26,15.39,27.577,17.323
				c1.238,1.506,4.333,30.761,5.015,32.127c0.682,1.368-13.673,23.238-14.586,33.045c-0.901,9.797,4.334,22.791,3.646,25.76
				c-0.681,2.957-10.055,34.422-10.055,34.422l-1.788,6.436h-18.842l3.569-8.252l7.067-6.898l3.799-29.049l-9.553-6.201
				l-2.539,14.229l-16.979,31.328l-1.787,10.096l-19.434-0.406l5.281-11.996c0,0,4.973-6.203,6.105-8.025
				c1.144-1.824,8.72-21.52,8.72-21.52l-2.758-17.611l0.444-11.688l-25.998,11.953l-5.013-6.628l-21.471,5.622l8.629,15.145h-8.669
				l5.438,6.234h-8.84l4.88,13.721l-7.56,0.975l-4.322,13.102l-2.973,5.871h-18.902l5.949-6.211l3.837-15.557l-5.854-10.721
				l-3.569,4.852l0.108,6.6l-6.515,2.568l-2.461,13.635l-4.462,11.068h-18.204l6.512-12.725l4.021-18.906l-4.219-17.467
				l-7.995-6.576l14.993-70.729L330.686,223.689z"/>
			<path fill="#F1F1F2" d="M327.577,239.544l3.434-16.557c0,0,53.381,19.156,83.291,40.723l3.544,22.265
				c0,0-21.438-18.47-29.33-23.812C380.621,256.834,327.577,239.544,327.577,239.544z"/>
			<polygon fill="#808285" points="245.136,349.346 261.703,318.379 266.633,324.141 272.885,303.619 281.625,310.658 
				298.672,266.306 306.809,276.074 313.127,245.796 324.655,251.073 331.011,225.473 338.334,226.653 327.577,264.26 
				317.229,256.737 309.612,290.532 300.429,279.729 284.211,323.936 275.815,315.133 268.389,336.844 261.943,329.609 
				255.492,351.254 			"/>
			<polygon fill="#808285" points="348.495,310.658 333.656,324.174 306.288,330.586 301.674,337.248 328.645,334.861 
				334.325,341.523 357.615,330.469 352.787,322.475 			"/>
			<path fill="#808285" d="M359.712,333.364l2.199,25.503c0,0-7.1,16.367-8.568,19.896c-1.465,3.504-6.426,7.256-6.426,7.256
				l-3.085,9.508H360.4l2.679-8.354l14.667-28.412l5.937-11.492L359.712,333.364z"/>
			<path fill="#808285" d="M250.226,357.943l1.868-7.66l4.903-0.938c0,0,3.386,7.613,4.161,7.613c0.787,0,7.232-5.469,7.232-5.469
				l4.497,21.1l-5.081,4.488l-1.457,16.086l-5.58,9.508c0,0-17.578-0.189-16.991,0c0.582,0.197,6.417-11.227,6.417-11.227
				l3.429-17.16L250.226,357.943z"/>
			<path fill="#F1F1F2" d="M340.479,212.875l-34.579,4.339h-29.298c0,0-32.701,23.17-55.332,29.622
				c-22.622,6.441-59.992,30.977-55.379,51.461l-5.974-9.508c0,0-3.904-32.312,34.119-43.03
				c38.021-10.72,70.338-40.344,70.338-40.344l41.52-6.841l-2.928,9.26l44.401,1.331L340.479,212.875z"/>
			<path d="M264.17,401.762h-24.754l7.477-14.195l3.734-17.457l-3.785-15.574l-4.773-4.635l4.564-5.162l6.519,6.518l4.647,19.932
				l-4.299,16.576l-2.325,1.529h8.43l3.358-2.143l2.7-14.998l3.951-2.473l-5.246-15.539l6.866-2.047l7.707,5.275l9.383,17.623
				l-4.231,14.254l7.125,0.045l2.156-1.623l4.964-16.236l5.157,1.322l-4.935-10.895h8.315l-5.438-14.963h8.17l-7.93-11.369
				l28.395-5.52l4.684,6.644l24.519-11.163l3.451,15.412l2.85,18.268l-0.338,0.895c-2.313,6.025-7.82,20.242-9.014,22.143
				c-1.09,1.744-4.894,1.648-6.052,3.094l-2.997,3.994h11.189l1.368-4.586l16.979-28.768l3.412-17.582l15.768,11.576l-4.196,33.34
				l-7.252,4.172l-1.999,1.848h11.184l1.337-2.471c3.19-11.916,9.319-32.432,10.002-35.289c0.02-0.885-0.65-2.436-1.192-4.684
				c-1.31-5.484-3.107-12.374-2.508-18.881c0.65-6.95,6.734-17.863,11.164-26.047c1.306-2.4,2.749-4.923,3.304-6.185
				c-0.298-1.462-0.705-4.366-1.63-11.453c-0.792-6.084-2.098-15.986-2.77-18.62c-2.905-2.495-17.527-12.147-26.057-16.102
				c-2.49-1.15-9.039-3.659-16.618-6.577c-13.166-5.081-29.537-11.397-39.476-16.127l3.011-6.328
				c9.702,4.615,25.937,10.883,38.984,15.917c8.012,3.087,14.345,5.53,17.051,6.786c8.961,4.155,26.562,15.537,28.81,18.269
				c1.126,1.373,5.585,33.114,5.585,33.114s-1.799,6.787-4.033,10.951c-3.652,6.789-9.831,18.133-10.341,23.668
				c-0.5,5.351,1.141,12.211,2.337,17.207c1.136,4.748,1.665,7.123,1.235,9.006c-0.676,2.932-9.308,32.754-10.049,35.514
				l-2.289,10.801h-26.489l5.137-15.057l6.864-7.219l3.406-26.219l-3.333-2.018l-1.665,9.359l-16.971,28.834l-2.214,12.318h-27.682
				l7.871-18.705c1.874-1.246,5.12-4.914,5.87-6.123c0.691-1.217,4.592-10.219,8.077-19.273l-2.661-16.629l0.242-6.117
				L332.56,345.75l-5.349-7.019l-14.544,5.46l9.321,17.668h-9.171l5.435,1.246h-9.342l4.813,14.68l-9.955,1.637l-3.705,12.137
				l-3.773,10.201h-26.052l7.266-12.682l3.441-14.316l-2.167-3.67l0.1,5.709l-6.919,2.773l-2.209,11.955L264.17,401.762z"/>
			<polygon points="275.251,365.141 269.927,355.25 260.755,361.551 254.703,352.955 250.246,354.781 247.595,348.297 
				257.227,344.359 262.499,351.852 272.759,344.717 281.138,361.859 			"/>
			<polygon points="377.746,360.572 349.569,323.795 343.832,294.127 356.067,320.75 354.902,319.076 389.675,345.371 			"/>
			<path d="M225.875,375.383l-16.579-29.719l-2.711,2.934l-4.822-3.688l-2.643,4.465l-23.725-18.209l-4.902-10.751
				c-3.952-4.208-12.557-21.035-12.862-22.424c-0.989-4.438-2.484-11.146,0.569-22.832c5.099-19.469,23.811-28.076,25.932-29.002
				c2.341-1.02,5.609-2.175,9.393-3.531c7.241-2.594,16.254-5.818,21.279-8.98c2.442-1.537,7.786-5.172,13.967-9.386
				c28.279-19.266,33.097-22.107,35.56-22.143c2.399-0.125,26.367-4.296,40.947-6.889l6.735-1.208l-5.527,11.512l51.128,4.33
				l-23.827,15.971l-7.34,32.016l-9.919-7.871l-8.109,34.557l-8.806-12.66l-15.768,46.007l-9.125-9.214l-7.291,23.064l-6.054-7.987
				l-20.116,41.694l-8.251-8.816L225.875,375.383z M210.695,333.803l13.972,25.031l5.784-15.193l8.938,9.547l20.65-42.801
				l4.793,6.312l6.704-21.211l9.345,9.432l16.597-48.405l7.715,11.102l7.039-30.005l9.86,7.836l5.485-23.892l9.55-6.395
				l-41.36-3.505l4.005-8.338c-11.782,2.08-30.939,5.419-34.871,5.772c-3.391,1.336-21.369,13.587-32.185,20.959
				c-6.24,4.254-11.628,7.926-14.184,9.533c-5.679,3.566-15.093,6.937-22.649,9.643c-3.664,1.3-6.824,2.436-8.963,3.372
				c-6.521,2.819-18.482,11.127-21.934,24.329c-2.63,10.045-1.458,15.309-0.514,19.545c0.372,1.672,5.935,13.662,11.509,19.549
				l0.404,0.425l4.661,10.221l16.067,12.336l2.629-4.448l6.018,4.592L210.695,333.803z"/>
			<path d="M208.779,294.001c0,0,5.79-9.305,3.242-17.678c-2.55-8.375-22.225-12.064-22.225-12.064s8.326,6.04,9.917,11.704
				c1.887,6.698-1.274,10.625-1.274,10.625s-0.743,4.707,3.768,7.412C206.728,296.687,208.779,294.001,208.779,294.001z"/>
			<path d="M198.716,305.096l-4.681,13.108c0,0,6.541,1.142,7.7-2.353C203.744,309.832,198.716,305.096,198.716,305.096z"/>
			<path d="M221.269,290.709l24.232-11.887c0,0-0.325,9.679-5.433,11.59C230.046,294.154,221.269,290.709,221.269,290.709z"/>
			<polygon points="208.445,336.399 215.226,327.799 222.554,312.096 221.334,331.357 217.053,349.109 			"/>
			<path d="M413.044,258.199c14.143,9.977,36.897,33.956,28.926,50.924c-15.525,33.064-67.249-13.376-67.249-13.376l-12.594-4.94
				l5.491-2.528l-7-6.844l6.847,1.479l-0.892-9.975l4.915,8.496l2.092-4.32l1.636,8.332l3.573-5.059l0.645,12.714
				c0,0,37.927,33.45,52.748,17.296c12.035-13.111-15.869-37.899-15.869-37.899L413.044,258.199z"/>
		</g>
	</g>
</g>
</svg>
