<?xml version="1.0" encoding="utf-8"?>
<!-- Generator: Adobe Illustrator 16.0.0, SVG Export Plug-In . SVG Version: 6.00 Build 0)  -->
<!DOCTYPE svg PUBLIC "-//W3C//DTD SVG 1.1//EN" "http://www.w3.org/Graphics/SVG/1.1/DTD/svg11.dtd">
<svg version="1.1" id="Layer_1" xmlns="http://www.w3.org/2000/svg" xmlns:xlink="http://www.w3.org/1999/xlink" x="0px" y="0px"
	 width="600px" height="600px" viewBox="0 0 600 600" enable-background="new 0 0 600 600" xml:space="preserve">
<g>
	<path d="M300,100c-110.459,0-200,89.543-200,200c0,110.458,89.541,200,200,200c110.457,0,200-89.542,200-200
		C500,189.543,410.457,100,300,100z M323.339,239.979l11.651-32.014c0,0,3.082-1.9,6.084-0.809c3,1.093,3.922,4.449,3.922,4.449
		l-11.652,32.016c0,0-2.215,2.97-6.216,1.513C323.126,243.678,323.339,239.979,323.339,239.979z M255.758,207.157
		c3.002-1.092,6.084,0.809,6.084,0.809l11.651,32.014c0,0,0.214,3.699-3.788,5.155c-4.002,1.458-6.217-1.513-6.217-1.513
		l-11.652-32.016C251.836,211.606,252.757,208.25,255.758,207.157z M283.261,354.322c-12.012,12.249-41.157,37.517-72.961,26.321
		c-31.802-11.195-32.976-30.32-31.634-44.298c1.379-14.369,35.212-78.145,35.212-78.145s-6.649,24-3.548,53.344l-7.669-9.689
		c0,0-13.598,27.677-13.972,37.689c-0.467,12.479,5.857,24.656,22.654,29.495c23.006,6.629,57.403-6.805,77.047-43.03
		c2.036,4.138,4.14,8.171,6.256,11.915C290.773,344.778,286.86,350.651,283.261,354.322z M386.533,380.643
		c-31.804,11.196-60.95-14.072-72.96-26.321c-12.012-12.245-27.491-48.908-33.438-65.25c-5.946-16.339-13.107-36.016-13.107-36.016
		s3.184,1.484,5.741,0.553c2.558-0.931,4.264-4.195,4.264-4.195s7.688,26.224,21.382,56.252
		c13.693-30.027,21.386-56.252,21.386-56.252s1.707,3.264,4.266,4.195c2.556,0.931,5.739-0.553,5.739-0.553
		s-7.161,19.677-13.107,36.016c-2.602,7.147-7.027,18.181-12.188,29.359c1.078,2.153,2.184,4.31,3.317,6.462
		c19.536,37.075,54.418,50.843,77.661,44.145c16.796-4.839,23.121-17.016,22.654-29.495c-0.375-10.012-13.971-37.689-13.971-37.689
		l-7.669,9.689c3.101-29.344-3.548-53.344-3.548-53.344s33.833,63.775,35.211,78.145
		C419.508,350.322,418.334,369.447,386.533,380.643z"/>
</g>
</svg>
