<?xml version="1.0" encoding="utf-8"?>
<!-- Generator: Adobe Illustrator 16.0.0, SVG Export Plug-In . SVG Version: 6.00 Build 0)  -->
<!DOCTYPE svg PUBLIC "-//W3C//DTD SVG 1.1//EN" "http://www.w3.org/Graphics/SVG/1.1/DTD/svg11.dtd">
<svg version="1.1" id="Layer_1" xmlns="http://www.w3.org/2000/svg" xmlns:xlink="http://www.w3.org/1999/xlink" x="0px" y="0px"
	 width="600px" height="600px" viewBox="0 0 600 600" enable-background="new 0 0 600 600" xml:space="preserve">
<g>
	<polygon points="311.096,151.456 319.494,100 280.583,100 288.981,151.456 	"/>
	<path d="M424.259,189.456c-19.153-19.05-44.824-29.542-72.283-29.542H248.791c-27.489,0-53.284,10.48-72.633,29.51
		c-19.457,19.135-30.172,44.762-30.172,72.163v15.766c0,14.125,6.668,21.044,12.264,24.423c2.346,1.417,4.7,2.287,6.768,2.829
		v33.838c0,58.988,32.039,98.654,58.916,121.542c31.809,27.088,64.619,38.688,74.703,39.821l1.729,0.194l1.657-0.533
		c1.347-0.433,33.365-10.89,65.764-35.708c19.188-14.699,34.509-31.408,45.539-49.665c13.903-23.015,20.953-48.468,20.953-75.651
		v-32.924c9.581-2.671,19.736-10.96,19.736-28.166v-15.766C454.014,234.157,443.447,208.541,424.259,189.456z M197.326,402.697
		c-10.68-19.732-16.096-41.351-16.096-64.254v-17.819h183.266v21.308c0,68.938-24.621,109.929-65.699,141.491
		c-9.949-2.045-38.388-13.668-64.353-35.78C218.701,434.235,206.212,419.114,197.326,402.697z"/>
</g>
</svg>
